M48
INCH,TZ
T1C0.0157
T2C0.0276
T3C0.0315
T4C0.0394
T5C0.0433
T6C0.0512
%
G90
G05
T1
X7520Y-7205
X7520Y-8189
X7520Y-9173
X7520Y-10157
X7520Y-11142
X7520Y-12126
X7520Y-13110
X7520Y-14094
X7520Y-15079
X7520Y-16063
X7520Y-20000
X7520Y-20984
X7520Y-21969
X7520Y-22953
X7520Y-23937
X7520Y-24921
X7520Y-25906
X7520Y-26890
X7520Y-27874
X7520Y-28858
X7520Y-29843
X8504Y-7205
X8504Y-29843
X9488Y-7205
X9488Y-29843
X10472Y-7205
X10472Y-29843
X10669Y-15276
X10669Y-15866
X10669Y-16555
X10669Y-17244
X10669Y-17835
X10669Y-18425
X10669Y-19114
X10669Y-19803
X10669Y-20492
X10669Y-21181
X10669Y-21772
X10669Y-22362
X10669Y-22953
X10669Y-23543
X10669Y-24134
X10669Y-24724
X10669Y-27087
X10768Y-27677
X11260Y-15276
X11358Y-27677
X11457Y-7205
X11457Y-29843
X11949Y-15276
X12047Y-27677
X12441Y-7205
X12441Y-29843
X12638Y-27677
X12736Y-15276
X13130Y-15276
X13228Y-27677
X13425Y-7205
X13425Y-29843
X13819Y-10846
X13819Y-27677
X13917Y-15276
X14311Y-15276
X14311Y-15669
X14311Y-16063
X14311Y-16457
X14311Y-16850
X14311Y-17244
X14311Y-21969
X14311Y-22362
X14311Y-22756
X14311Y-23150
X14311Y-23543
X14409Y-7205
X14409Y-27677
X14409Y-29843
X14705Y-15276
X14705Y-15669
X14705Y-16063
X14705Y-16457
X14705Y-16850
X14705Y-17244
X14705Y-17638
X14705Y-21969
X14705Y-22362
X14705Y-22756
X14705Y-23150
X14705Y-23543
X15000Y-27677
X15098Y-15276
X15098Y-15669
X15098Y-16063
X15098Y-16457
X15098Y-16850
X15098Y-17244
X15098Y-17638
X15098Y-21575
X15098Y-21969
X15098Y-22362
X15098Y-22756
X15098Y-23150
X15098Y-23543
X15394Y-7205
X15394Y-29843
X15492Y-15276
X15492Y-15669
X15492Y-16063
X15492Y-16457
X15492Y-16850
X15492Y-17244
X15492Y-17638
X15492Y-18031
X15492Y-18425
X15492Y-18819
X15492Y-19213
X15492Y-19606
X15492Y-20000
X15492Y-20394
X15492Y-20787
X15492Y-21181
X15492Y-21575
X15492Y-21969
X15492Y-22362
X15492Y-22756
X15492Y-23150
X15492Y-23543
X15591Y-27677
X15886Y-15276
X15886Y-15669
X15886Y-16063
X15886Y-16457
X15886Y-16850
X15886Y-17244
X15886Y-17638
X15886Y-18031
X15886Y-18425
X15886Y-18819
X15886Y-19213
X15886Y-19606
X15886Y-20000
X15886Y-20394
X15886Y-20787
X15886Y-21181
X15886Y-21575
X15886Y-21969
X15886Y-22362
X15886Y-22756
X15886Y-23150
X15886Y-23543
X16181Y-27677
X16280Y-15276
X16280Y-15669
X16280Y-16063
X16280Y-16457
X16280Y-16850
X16280Y-17244
X16280Y-17638
X16280Y-18031
X16280Y-18425
X16280Y-18819
X16280Y-19213
X16280Y-19606
X16280Y-20000
X16280Y-20394
X16280Y-20787
X16280Y-21181
X16280Y-21575
X16280Y-21969
X16280Y-22362
X16280Y-22756
X16280Y-22756
X16280Y-23150
X16280Y-23543
X16378Y-7205
X16378Y-29843
X16575Y-13406
X16673Y-15276
X16673Y-15669
X16673Y-16063
X16673Y-16457
X16673Y-16850
X16673Y-17244
X16673Y-17638
X16673Y-18031
X16673Y-18031
X16673Y-18425
X16673Y-18819
X16673Y-19213
X16673Y-19606
X16673Y-20000
X16673Y-20394
X16673Y-20787
X16673Y-21181
X16673Y-21575
X16673Y-21969
X16673Y-22362
X16673Y-22756
X16673Y-23150
X16673Y-23543
X16772Y-27677
X17067Y-15276
X17067Y-15669
X17067Y-16063
X17067Y-16457
X17067Y-16850
X17067Y-17244
X17067Y-17638
X17067Y-18031
X17067Y-18425
X17067Y-18819
X17067Y-19213
X17067Y-19606
X17067Y-20000
X17067Y-20394
X17067Y-20787
X17067Y-21181
X17067Y-21575
X17067Y-21969
X17067Y-22362
X17067Y-22756
X17067Y-23150
X17067Y-23543
X17264Y-27677
X17362Y-7205
X17362Y-29843
X17461Y-15276
X17461Y-15669
X17461Y-16063
X17461Y-16457
X17461Y-16850
X17461Y-17244
X17461Y-17638
X17461Y-18031
X17461Y-18425
X17461Y-18819
X17461Y-19213
X17461Y-19606
X17461Y-20000
X17461Y-20394
X17461Y-20787
X17461Y-21181
X17461Y-21575
X17461Y-21969
X17461Y-22362
X17461Y-22756
X17461Y-23150
X17461Y-23543
X17854Y-15276
X17854Y-15669
X17854Y-16063
X17854Y-16457
X17854Y-16850
X17854Y-17244
X17854Y-17638
X17854Y-18031
X17854Y-18425
X17854Y-18819
X17854Y-19213
X17854Y-19606
X17854Y-20000
X17854Y-20394
X17854Y-20787
X17854Y-21181
X17854Y-21575
X17854Y-21969
X17854Y-22362
X17854Y-22756
X17854Y-23150
X17854Y-23543
X17854Y-24035
X17854Y-24429
X17854Y-24921
X17854Y-25413
X17854Y-25906
X17854Y-26398
X17854Y-26890
X17854Y-27283
X17854Y-27677
X18150Y-9665
X18346Y-7205
X18346Y-12323
X18346Y-29843
X19331Y-7205
X19331Y-29843
X20020Y-10846
X20030Y-22569
X20226Y-23789
X20315Y-7205
X20315Y-29843
X20837Y-22569
X20915Y-23809
X21299Y-7205
X21299Y-29843
X21890Y-23071
X22283Y-7205
X22283Y-29843
X23268Y-7205
X23268Y-29843
X24016Y-23150
X24016Y-24016
X24016Y-25748
X24252Y-7205
X24252Y-29843
X24488Y-21378
X24803Y-23150
X24803Y-24016
X24803Y-25748
X25236Y-7205
X25236Y-11535
X25236Y-29843
X25354Y-21339
X26220Y-7205
X27205Y-7205
X28189Y-7205
X28189Y-18031
X28189Y-19016
X28189Y-20000
X28484Y-11437
X28976Y-10551
X29173Y-7205
X29173Y-20000
X29173Y-20984
X29173Y-21969
X29173Y-22953
X29173Y-23937
X29173Y-24921
X29173Y-25906
X29665Y-14783
X30059Y-12815
X30157Y-7205
X31043Y-7402
X31043Y-8091
X31043Y-8878
X31043Y-9665
X31043Y-10354
X31043Y-10354
X31043Y-12421
X31043Y-12815
X31043Y-13602
X31043Y-14390
X31043Y-15177
X31043Y-15965
X31043Y-16752
X31043Y-17539
X31043Y-18327
X31043Y-19114
X31043Y-19902
X31043Y-20689
X31043Y-21476
X31043Y-22264
X31043Y-23051
X31043Y-23839
X31043Y-24626
X31043Y-25413
X31043Y-26201
X31043Y-26988
X31043Y-27776
X31043Y-28465
X31535Y-28465
X31732Y-7402
X32323Y-28465
X32520Y-7402
X33110Y-28465
X33307Y-7402
X33898Y-28465
X34094Y-7402
X34685Y-28465
X34882Y-7402
X35472Y-28465
X35669Y-7402
X36260Y-28465
X36457Y-7402
X37047Y-28465
X37244Y-7402
X37835Y-28465
X38031Y-7402
X38819Y-7402
X39016Y-19213
X39508Y-20689
X39606Y-7402
X40000Y-28465
X40394Y-7402
X40591Y-28465
X41181Y-7402
X41378Y-19213
X41378Y-28465
X41969Y-7402
X41969Y-20689
X42165Y-28465
X42756Y-7402
X42953Y-28465
X43543Y-7402
X43740Y-28465
X43839Y-19213
X44331Y-7402
X44331Y-20689
X44528Y-28465
X45118Y-7402
X45315Y-28465
X45906Y-7402
X46102Y-28465
X46201Y-19213
X46693Y-7402
X46693Y-20689
X46890Y-28465
X47480Y-7402
X47677Y-28465
X48268Y-7402
X48465Y-28465
X48563Y-19213
X49055Y-7402
X49154Y-20689
X49252Y-28465
X49843Y-7402
X50039Y-28465
X50630Y-7402
X50827Y-28465
X51024Y-19213
X51417Y-7402
X51516Y-20689
X51614Y-28465
X52205Y-7402
X52402Y-28465
X52992Y-7402
X53189Y-28465
X53780Y-7402
X53976Y-28465
X54567Y-7402
X54764Y-28465
X55650Y-7402
X55650Y-8287
X55650Y-9075
X55650Y-9862
X55650Y-10650
X55650Y-11437
X55650Y-12224
X55650Y-13012
X55650Y-13799
X55650Y-14587
X55650Y-15374
X55650Y-16161
X55650Y-16949
X55650Y-17736
X55650Y-18524
X55650Y-19311
X55650Y-20098
X55650Y-20886
X55650Y-21673
X55650Y-22461
X55650Y-23248
X55650Y-24035
X55650Y-24823
X55650Y-25610
X55650Y-26398
X55650Y-27185
X55650Y-27972
X55650Y-28465
T2
X40219Y-13819
X40219Y-15819
X40219Y-17819
X40219Y-19819
X42619Y-13819
X42619Y-15819
X42619Y-17819
X42619Y-19819
X45019Y-13819
X45019Y-15819
X45019Y-17819
X45019Y-19819
X47419Y-13819
X47419Y-15819
X47419Y-17819
X47419Y-19819
X49819Y-13819
X49819Y-15819
X49819Y-17819
X49819Y-19819
X52219Y-13819
X52219Y-15819
X52219Y-17819
X52219Y-19819
T3
X7717Y-17047
X9213Y-17047
X10669Y-10701
X10669Y-13701
X12343Y-13701
X13343Y-13701
X14343Y-13701
X16476Y-24902
X16476Y-26398
X19606Y-26220
X19606Y-29220
X22606Y-26220
X22606Y-29220
X24646Y-27874
X26142Y-27874
X26713Y-12913
X27713Y-12913
X28713Y-12913
X28819Y-26850
X28819Y-28346
X35374Y-25118
X35374Y-26614
X43346Y-24921
X43346Y-26417
T4
X9488Y-19295
X9488Y-20295
X9488Y-21295
X11736Y-17244
X11949Y-19181
X11949Y-21181
X12736Y-17244
X27559Y-22047
X27559Y-23047
X27559Y-24047
X27559Y-25047
X27843Y-30079
X28843Y-30079
X29272Y-17720
X29272Y-18720
X29843Y-30079
X37047Y-8976
X37886Y-27185
X38047Y-8976
X38524Y-23937
X38886Y-27185
X39886Y-27185
X40492Y-23937
X40886Y-27185
X43087Y-22953
X44087Y-22953
X45087Y-22953
X46087Y-22953
X47087Y-22953
X48087Y-22953
X49087Y-22953
X52795Y-23051
X53795Y-23051
T5
X12638Y-22807
X12638Y-25807
X32520Y-9339
X32520Y-10339
X32520Y-11339
X34882Y-14587
X38189Y-14587
X49780Y-24331
X53780Y-24331
T6
X20709Y-15276
X20709Y-17244
X22579Y-13110
X23150Y-18504
X23150Y-20472
X24547Y-13110
X24843Y-16457
X26811Y-16457
X36260Y-20197
X36260Y-22165
T0
M30
