%TF.GenerationSoftware,KiCad,Pcbnew,5.1.9-1.fc33*%
%TF.CreationDate,2021-01-07T12:32:34+03:00*%
%TF.ProjectId,Full schematic,46756c6c-2073-4636-9865-6d617469632e,rev?*%
%TF.SameCoordinates,Original*%
%TF.FileFunction,Copper,L2,Bot*%
%TF.FilePolarity,Positive*%
%FSLAX46Y46*%
G04 Gerber Fmt 4.6, Leading zero omitted, Abs format (unit mm)*
G04 Created by KiCad (PCBNEW 5.1.9-1.fc33) date 2021-01-07 12:32:34*
%MOMM*%
%LPD*%
G01*
G04 APERTURE LIST*
%TA.AperFunction,ComponentPad*%
%ADD10C,2.000000*%
%TD*%
%TA.AperFunction,ComponentPad*%
%ADD11R,2.000000X2.000000*%
%TD*%
%TA.AperFunction,ComponentPad*%
%ADD12C,2.600000*%
%TD*%
%TA.AperFunction,ComponentPad*%
%ADD13C,1.600000*%
%TD*%
%TA.AperFunction,ComponentPad*%
%ADD14R,1.600000X1.600000*%
%TD*%
%TA.AperFunction,ComponentPad*%
%ADD15C,1.440000*%
%TD*%
%TA.AperFunction,ComponentPad*%
%ADD16O,1.905000X2.000000*%
%TD*%
%TA.AperFunction,ComponentPad*%
%ADD17R,1.905000X2.000000*%
%TD*%
%TA.AperFunction,ComponentPad*%
%ADD18R,1.400000X1.400000*%
%TD*%
%TA.AperFunction,ComponentPad*%
%ADD19C,1.400000*%
%TD*%
%TA.AperFunction,ComponentPad*%
%ADD20O,1.700000X1.700000*%
%TD*%
%TA.AperFunction,ComponentPad*%
%ADD21R,1.700000X1.700000*%
%TD*%
%TA.AperFunction,ComponentPad*%
%ADD22O,2.200000X2.200000*%
%TD*%
%TA.AperFunction,ComponentPad*%
%ADD23R,2.200000X2.200000*%
%TD*%
%TA.AperFunction,ComponentPad*%
%ADD24C,2.400000*%
%TD*%
%TA.AperFunction,ComponentPad*%
%ADD25R,2.400000X2.400000*%
%TD*%
%TA.AperFunction,ViaPad*%
%ADD26C,0.800000*%
%TD*%
%TA.AperFunction,Conductor*%
%ADD27C,0.500000*%
%TD*%
%TA.AperFunction,Conductor*%
%ADD28C,1.000000*%
%TD*%
%TA.AperFunction,Conductor*%
%ADD29C,0.300000*%
%TD*%
%TA.AperFunction,Conductor*%
%ADD30C,0.254000*%
%TD*%
%TA.AperFunction,Conductor*%
%ADD31C,0.100000*%
%TD*%
G04 APERTURE END LIST*
D10*
%TO.P,C12,2*%
%TO.N,GND*%
X122936000Y-137240000D03*
D11*
%TO.P,C12,1*%
%TO.N,+5V*%
X122936000Y-142240000D03*
%TD*%
D12*
%TO.P,L5,2*%
%TO.N,Net-(C21-Pad2)*%
X115236000Y-109982000D03*
%TO.P,L5,1*%
%TO.N,Net-(C19-Pad1)*%
X110236000Y-109982000D03*
%TD*%
D13*
%TO.P,X1,4*%
%TO.N,GND*%
X83820000Y-146050000D03*
%TO.P,X1,5*%
%TO.N,Net-(U3-Pad6)*%
X83820000Y-138430000D03*
%TO.P,X1,8*%
%TO.N,+5V*%
X91440000Y-138430000D03*
D14*
%TO.P,X1,1*%
%TO.N,Net-(X1-Pad1)*%
X91440000Y-146050000D03*
%TD*%
D15*
%TO.P,RV1,1*%
%TO.N,GND*%
X90678000Y-108966000D03*
%TO.P,RV1,2*%
%TO.N,Net-(C17-Pad1)*%
X90678000Y-106426000D03*
%TO.P,RV1,3*%
%TO.N,Net-(C55-Pad1)*%
X90678000Y-103886000D03*
%TD*%
D16*
%TO.P,Q2,3*%
%TO.N,GND*%
X125984000Y-109220000D03*
%TO.P,Q2,2*%
%TO.N,Net-(C21-Pad2)*%
X123444000Y-109220000D03*
D17*
%TO.P,Q2,1*%
%TO.N,Net-(DA1-Pad6)*%
X120904000Y-109220000D03*
%TD*%
D12*
%TO.P,L6,2*%
%TO.N,ANT_3.5*%
X128778000Y-96854000D03*
%TO.P,L6,1*%
%TO.N,Net-(C21-Pad1)*%
X128778000Y-101854000D03*
%TD*%
%TO.P,L4,2*%
%TO.N,Net-(C17-Pad2)*%
X85264000Y-92964000D03*
%TO.P,L4,1*%
%TO.N,Net-(C16-Pad1)*%
X80264000Y-92964000D03*
%TD*%
%TO.P,L3,2*%
%TO.N,Net-(C16-Pad1)*%
X81280000Y-100918000D03*
%TO.P,L3,1*%
%TO.N,Net-(C15-Pad1)*%
X81280000Y-105918000D03*
%TD*%
%TO.P,L2,2*%
%TO.N,Net-(C15-Pad1)*%
X81280000Y-114126000D03*
%TO.P,L2,1*%
%TO.N,Net-(C13-Pad1)*%
X81280000Y-119126000D03*
%TD*%
%TO.P,L1,2*%
%TO.N,Net-(C13-Pad1)*%
X89742000Y-119126000D03*
%TO.P,L1,1*%
%TO.N,Net-(C11-Pad1)*%
X94742000Y-119126000D03*
%TD*%
D18*
%TO.P,K5,1*%
%TO.N,Net-(C54-Pad2)*%
X151892000Y-110236000D03*
D19*
%TO.P,K5,3*%
%TO.N,+5V*%
X151892000Y-114046000D03*
%TO.P,K5,5*%
%TO.N,Net-(K5-Pad5)*%
X151892000Y-117856000D03*
%TO.P,K5,7*%
%TO.N,GND*%
X151892000Y-121666000D03*
%TD*%
D18*
%TO.P,K4,1*%
%TO.N,Net-(C48-Pad2)*%
X147320000Y-110236000D03*
D19*
%TO.P,K4,3*%
%TO.N,+5V*%
X147320000Y-114046000D03*
%TO.P,K4,5*%
%TO.N,Net-(K4-Pad5)*%
X147320000Y-117856000D03*
%TO.P,K4,7*%
%TO.N,GND*%
X147320000Y-121666000D03*
%TD*%
D18*
%TO.P,K3,1*%
%TO.N,Net-(C42-Pad2)*%
X142748000Y-110236000D03*
D19*
%TO.P,K3,3*%
%TO.N,+5V*%
X142748000Y-114046000D03*
%TO.P,K3,5*%
%TO.N,Net-(K3-Pad5)*%
X142748000Y-117856000D03*
%TO.P,K3,7*%
%TO.N,GND*%
X142748000Y-121666000D03*
%TD*%
D18*
%TO.P,K2,1*%
%TO.N,Net-(C35-Pad2)*%
X138176000Y-110236000D03*
D19*
%TO.P,K2,3*%
%TO.N,+5V*%
X138176000Y-114046000D03*
%TO.P,K2,5*%
%TO.N,Net-(K2-Pad5)*%
X138176000Y-117856000D03*
%TO.P,K2,7*%
%TO.N,GND*%
X138176000Y-121666000D03*
%TD*%
D18*
%TO.P,K1,1*%
%TO.N,Net-(C29-Pad2)*%
X133604000Y-110236000D03*
D19*
%TO.P,K1,3*%
%TO.N,+5V*%
X133604000Y-114046000D03*
%TO.P,K1,5*%
%TO.N,Net-(K1-Pad5)*%
X133604000Y-117856000D03*
%TO.P,K1,7*%
%TO.N,GND*%
X133604000Y-121666000D03*
%TD*%
D20*
%TO.P,J8,6*%
%TO.N,GND*%
X148844000Y-125476000D03*
%TO.P,J8,5*%
%TO.N,Net-(J8-Pad5)*%
X146304000Y-125476000D03*
%TO.P,J8,4*%
%TO.N,Net-(J8-Pad4)*%
X143764000Y-125476000D03*
%TO.P,J8,3*%
%TO.N,Net-(J8-Pad3)*%
X141224000Y-125476000D03*
%TO.P,J8,2*%
%TO.N,Net-(J8-Pad2)*%
X138684000Y-125476000D03*
D21*
%TO.P,J8,1*%
%TO.N,Net-(J8-Pad1)*%
X136144000Y-125476000D03*
%TD*%
D20*
%TO.P,J7,2*%
%TO.N,ANT_3.5*%
X121666000Y-97790000D03*
D21*
%TO.P,J7,1*%
%TO.N,GND*%
X121666000Y-100330000D03*
%TD*%
D20*
%TO.P,J6,2*%
%TO.N,Net-(D2-Pad1)*%
X111760000Y-97790000D03*
D21*
%TO.P,J6,1*%
%TO.N,GND*%
X111760000Y-95250000D03*
%TD*%
D20*
%TO.P,J5,2*%
%TO.N,Net-(C19-Pad1)*%
X105156000Y-111506000D03*
D21*
%TO.P,J5,1*%
%TO.N,GND*%
X105156000Y-114046000D03*
%TD*%
D20*
%TO.P,J4,2*%
%TO.N,GND*%
X91694000Y-92964000D03*
D21*
%TO.P,J4,1*%
%TO.N,Net-(J4-Pad1)*%
X89154000Y-92964000D03*
%TD*%
D20*
%TO.P,J3,2*%
%TO.N,Net-(C17-Pad2)*%
X86868000Y-108204000D03*
D21*
%TO.P,J3,1*%
%TO.N,GND*%
X86868000Y-110744000D03*
%TD*%
D20*
%TO.P,J2,4*%
%TO.N,+3V3*%
X104406000Y-144260000D03*
%TO.P,J2,3*%
%TO.N,+5V*%
X104406000Y-141720000D03*
%TO.P,J2,2*%
%TO.N,+12V*%
X104406000Y-139180000D03*
D21*
%TO.P,J2,1*%
%TO.N,GND*%
X104406000Y-136640000D03*
%TD*%
D20*
%TO.P,J1,4*%
%TO.N,GND*%
X98552000Y-128016000D03*
%TO.P,J1,3*%
%TO.N,Net-(J1-Pad3)*%
X98552000Y-130556000D03*
%TO.P,J1,2*%
%TO.N,Net-(J1-Pad2)*%
X98552000Y-133096000D03*
D21*
%TO.P,J1,1*%
%TO.N,Net-(J1-Pad1)*%
X98552000Y-135636000D03*
%TD*%
D22*
%TO.P,D2,2*%
%TO.N,GND*%
X124206000Y-93472000D03*
D23*
%TO.P,D2,1*%
%TO.N,Net-(D2-Pad1)*%
X114046000Y-93472000D03*
%TD*%
%TO.P,C36,2*%
%TO.N,GND*%
%TA.AperFunction,SMDPad,CuDef*%
G36*
G01*
X130081000Y-117798000D02*
X131031000Y-117798000D01*
G75*
G02*
X131281000Y-118048000I0J-250000D01*
G01*
X131281000Y-118723000D01*
G75*
G02*
X131031000Y-118973000I-250000J0D01*
G01*
X130081000Y-118973000D01*
G75*
G02*
X129831000Y-118723000I0J250000D01*
G01*
X129831000Y-118048000D01*
G75*
G02*
X130081000Y-117798000I250000J0D01*
G01*
G37*
%TD.AperFunction*%
%TO.P,C36,1*%
%TO.N,+5V*%
%TA.AperFunction,SMDPad,CuDef*%
G36*
G01*
X130081000Y-115723000D02*
X131031000Y-115723000D01*
G75*
G02*
X131281000Y-115973000I0J-250000D01*
G01*
X131281000Y-116648000D01*
G75*
G02*
X131031000Y-116898000I-250000J0D01*
G01*
X130081000Y-116898000D01*
G75*
G02*
X129831000Y-116648000I0J250000D01*
G01*
X129831000Y-115973000D01*
G75*
G02*
X130081000Y-115723000I250000J0D01*
G01*
G37*
%TD.AperFunction*%
%TD*%
D24*
%TO.P,C19,2*%
%TO.N,GND*%
X110236000Y-126372000D03*
D25*
%TO.P,C19,1*%
%TO.N,Net-(C19-Pad1)*%
X110236000Y-118872000D03*
%TD*%
D10*
%TO.P,C14,2*%
%TO.N,GND*%
X112014000Y-137240000D03*
D11*
%TO.P,C14,1*%
%TO.N,+12V*%
X112014000Y-142240000D03*
%TD*%
D10*
%TO.P,C10,2*%
%TO.N,GND*%
X133858000Y-137240000D03*
D11*
%TO.P,C10,1*%
%TO.N,+3V3*%
X133858000Y-142240000D03*
%TD*%
%TO.P,C7,2*%
%TO.N,GND*%
%TA.AperFunction,SMDPad,CuDef*%
G36*
G01*
X82513500Y-133063000D02*
X82513500Y-132113000D01*
G75*
G02*
X82763500Y-131863000I250000J0D01*
G01*
X83438500Y-131863000D01*
G75*
G02*
X83688500Y-132113000I0J-250000D01*
G01*
X83688500Y-133063000D01*
G75*
G02*
X83438500Y-133313000I-250000J0D01*
G01*
X82763500Y-133313000D01*
G75*
G02*
X82513500Y-133063000I0J250000D01*
G01*
G37*
%TD.AperFunction*%
%TO.P,C7,1*%
%TO.N,+5V*%
%TA.AperFunction,SMDPad,CuDef*%
G36*
G01*
X80438500Y-133063000D02*
X80438500Y-132113000D01*
G75*
G02*
X80688500Y-131863000I250000J0D01*
G01*
X81363500Y-131863000D01*
G75*
G02*
X81613500Y-132113000I0J-250000D01*
G01*
X81613500Y-133063000D01*
G75*
G02*
X81363500Y-133313000I-250000J0D01*
G01*
X80688500Y-133313000D01*
G75*
G02*
X80438500Y-133063000I0J250000D01*
G01*
G37*
%TD.AperFunction*%
%TD*%
%TO.P,C6,2*%
%TO.N,GND*%
%TA.AperFunction,SMDPad,CuDef*%
G36*
G01*
X82513500Y-135349000D02*
X82513500Y-134399000D01*
G75*
G02*
X82763500Y-134149000I250000J0D01*
G01*
X83438500Y-134149000D01*
G75*
G02*
X83688500Y-134399000I0J-250000D01*
G01*
X83688500Y-135349000D01*
G75*
G02*
X83438500Y-135599000I-250000J0D01*
G01*
X82763500Y-135599000D01*
G75*
G02*
X82513500Y-135349000I0J250000D01*
G01*
G37*
%TD.AperFunction*%
%TO.P,C6,1*%
%TO.N,+5V*%
%TA.AperFunction,SMDPad,CuDef*%
G36*
G01*
X80438500Y-135349000D02*
X80438500Y-134399000D01*
G75*
G02*
X80688500Y-134149000I250000J0D01*
G01*
X81363500Y-134149000D01*
G75*
G02*
X81613500Y-134399000I0J-250000D01*
G01*
X81613500Y-135349000D01*
G75*
G02*
X81363500Y-135599000I-250000J0D01*
G01*
X80688500Y-135599000D01*
G75*
G02*
X80438500Y-135349000I0J250000D01*
G01*
G37*
%TD.AperFunction*%
%TD*%
D26*
%TO.N,GND*%
X130302000Y-107442000D03*
X117348000Y-96012000D03*
X116586000Y-102362000D03*
X116586000Y-102362000D03*
X103124000Y-88646000D03*
X105664000Y-88646000D03*
X108204000Y-88646000D03*
X110744000Y-88646000D03*
X113284000Y-88646000D03*
X115824000Y-88646000D03*
X118364000Y-88646000D03*
X120904000Y-88646000D03*
X123444000Y-88646000D03*
X125984000Y-88646000D03*
X128524000Y-88646000D03*
X131064000Y-88646000D03*
X133604000Y-88646000D03*
X136144000Y-88646000D03*
X138684000Y-88646000D03*
X141224000Y-88646000D03*
X143764000Y-88646000D03*
X146304000Y-88646000D03*
X148844000Y-88646000D03*
X151384000Y-88646000D03*
X153924000Y-88646000D03*
X155956000Y-88646000D03*
X155956000Y-90424000D03*
X155956000Y-92964000D03*
X155956000Y-95504000D03*
X155956000Y-98044000D03*
X155956000Y-100584000D03*
X155956000Y-103124000D03*
X155956000Y-105664000D03*
X155956000Y-108204000D03*
X155956000Y-110744000D03*
X155956000Y-115824000D03*
X155956000Y-118364000D03*
X155956000Y-120904000D03*
X155956000Y-123444000D03*
X155956000Y-125984000D03*
X155956000Y-128524000D03*
X155956000Y-131064000D03*
X153924000Y-131064000D03*
X151384000Y-131064000D03*
X148844000Y-131064000D03*
X146304000Y-131064000D03*
X143764000Y-131064000D03*
X141224000Y-131064000D03*
X138684000Y-131064000D03*
X136144000Y-131064000D03*
X133604000Y-131064000D03*
X131064000Y-131064000D03*
X128524000Y-131064000D03*
X125984000Y-131064000D03*
X123444000Y-131064000D03*
X120904000Y-131064000D03*
X118364000Y-131064000D03*
X115824000Y-131064000D03*
X113284000Y-131064000D03*
X110744000Y-131064000D03*
X108204000Y-131064000D03*
X105664000Y-131064000D03*
X101092000Y-131064000D03*
X101092000Y-128524000D03*
X101092000Y-125984000D03*
X101092000Y-123444000D03*
X101092000Y-120904000D03*
X101092000Y-115570000D03*
X101092000Y-113284000D03*
X101092000Y-110744000D03*
X101092000Y-108204000D03*
X101092000Y-103124000D03*
X101092000Y-100584000D03*
X101092000Y-98044000D03*
X101092000Y-95504000D03*
X101092000Y-92964000D03*
X101092000Y-90424000D03*
X101092000Y-88646000D03*
X96012000Y-101346000D03*
X83101000Y-133647000D03*
X91186000Y-134112000D03*
X91235000Y-128319000D03*
X94488000Y-125222000D03*
X96266000Y-125222000D03*
X98044000Y-125222000D03*
X99822000Y-125222000D03*
X80772000Y-125476000D03*
X78994000Y-125476000D03*
X77216000Y-125476000D03*
X76454000Y-124460000D03*
X76454000Y-122682000D03*
X76454000Y-120904000D03*
X76454000Y-119126000D03*
X76454000Y-117348000D03*
X76454000Y-115570000D03*
X76454000Y-113792000D03*
X76454000Y-112014000D03*
X76454000Y-110236000D03*
X76454000Y-108458000D03*
X76454000Y-106680000D03*
X76454000Y-104902000D03*
X76454000Y-103124000D03*
X76454000Y-101346000D03*
X76454000Y-99568000D03*
X76454000Y-97790000D03*
X76454000Y-96012000D03*
X76454000Y-94234000D03*
X76454000Y-92456000D03*
X76454000Y-90678000D03*
X76454000Y-88900000D03*
X77978000Y-88646000D03*
X79756000Y-88646000D03*
X81534000Y-88646000D03*
X83312000Y-88646000D03*
X85090000Y-88646000D03*
X86868000Y-88646000D03*
X88646000Y-88646000D03*
X90424000Y-88646000D03*
X92202000Y-88646000D03*
X93980000Y-88646000D03*
X95758000Y-88646000D03*
X97536000Y-88646000D03*
X99314000Y-88646000D03*
%TO.N,+5V*%
X81026000Y-133858000D03*
X89662000Y-131826000D03*
%TO.N,+12V*%
X95631000Y-103759000D03*
%TD*%
D27*
%TO.N,GND*%
X133604000Y-121433500D02*
X130556000Y-118385500D01*
X133604000Y-121666000D02*
X133604000Y-121433500D01*
X130302000Y-107442000D02*
X130302000Y-107442000D01*
D28*
X128524000Y-109220000D02*
X130302000Y-107442000D01*
X125984000Y-109220000D02*
X128524000Y-109220000D01*
X105156000Y-121292000D02*
X105156000Y-114046000D01*
X110236000Y-126372000D02*
X105156000Y-121292000D01*
X125984000Y-104648000D02*
X121666000Y-100330000D01*
X125984000Y-109220000D02*
X125984000Y-104648000D01*
D29*
X83101000Y-132588000D02*
X83101000Y-133647000D01*
X83101000Y-133647000D02*
X83101000Y-134874000D01*
D27*
%TO.N,+5V*%
X130556000Y-116310500D02*
X130577500Y-116310500D01*
X132842000Y-114046000D02*
X133604000Y-114046000D01*
X130577500Y-116310500D02*
X132842000Y-114046000D01*
D29*
X81026000Y-132588000D02*
X81026000Y-133858000D01*
X81026000Y-133858000D02*
X81026000Y-134874000D01*
X81026000Y-134874000D02*
X81026000Y-135890000D01*
X90289999Y-137279999D02*
X91440000Y-138430000D01*
X82415999Y-137279999D02*
X90289999Y-137279999D01*
X81026000Y-135890000D02*
X82415999Y-137279999D01*
X90289999Y-137279999D02*
X89662000Y-136652000D01*
X89662000Y-136652000D02*
X89662000Y-131826000D01*
X89662000Y-131826000D02*
X89662000Y-131826000D01*
D28*
X94730000Y-141720000D02*
X91440000Y-138430000D01*
X104406000Y-141720000D02*
X94730000Y-141720000D01*
D27*
%TO.N,+12V*%
X95631000Y-112903000D02*
X95631000Y-103759000D01*
X103124000Y-120396000D02*
X95631000Y-112903000D01*
X103124000Y-131826000D02*
X103124000Y-120396000D01*
X102604000Y-132346000D02*
X103124000Y-131826000D01*
X102604000Y-139180000D02*
X102604000Y-132346000D01*
X104406000Y-139180000D02*
X102604000Y-139180000D01*
D28*
%TO.N,Net-(C21-Pad2)*%
X123444000Y-109220000D02*
X123444000Y-122428000D01*
%TD*%
D30*
%TO.N,GND*%
X100711000Y-111379000D02*
X96516000Y-111379000D01*
X96516000Y-104297454D01*
X96548205Y-104249256D01*
X96626226Y-104060898D01*
X96666000Y-103860939D01*
X96666000Y-103657061D01*
X96626226Y-103457102D01*
X96548205Y-103268744D01*
X96434937Y-103099226D01*
X96290774Y-102955063D01*
X96121256Y-102841795D01*
X95932898Y-102763774D01*
X95732939Y-102724000D01*
X95529061Y-102724000D01*
X95329102Y-102763774D01*
X95140744Y-102841795D01*
X94971226Y-102955063D01*
X94827063Y-103099226D01*
X94713795Y-103268744D01*
X94635774Y-103457102D01*
X94596000Y-103657061D01*
X94596000Y-103860939D01*
X94635774Y-104060898D01*
X94713795Y-104249256D01*
X94746001Y-104297456D01*
X94746000Y-111379000D01*
X88354901Y-111379000D01*
X88353000Y-111029750D01*
X88194250Y-110871000D01*
X86995000Y-110871000D01*
X86995000Y-110891000D01*
X86741000Y-110891000D01*
X86741000Y-110871000D01*
X86721000Y-110871000D01*
X86721000Y-110617000D01*
X86741000Y-110617000D01*
X86741000Y-110597000D01*
X86995000Y-110597000D01*
X86995000Y-110617000D01*
X88194250Y-110617000D01*
X88353000Y-110458250D01*
X88356030Y-109901560D01*
X89922045Y-109901560D01*
X89983932Y-110137368D01*
X90225790Y-110250266D01*
X90485027Y-110313811D01*
X90751680Y-110325561D01*
X91015501Y-110285063D01*
X91266353Y-110193875D01*
X91372068Y-110137368D01*
X91433955Y-109901560D01*
X90678000Y-109145605D01*
X89922045Y-109901560D01*
X88356030Y-109901560D01*
X88356072Y-109894000D01*
X88343812Y-109769518D01*
X88307502Y-109649820D01*
X88248537Y-109539506D01*
X88169185Y-109442815D01*
X88072494Y-109363463D01*
X87962180Y-109304498D01*
X87889620Y-109282487D01*
X88021475Y-109150632D01*
X88095610Y-109039680D01*
X89318439Y-109039680D01*
X89358937Y-109303501D01*
X89450125Y-109554353D01*
X89506632Y-109660068D01*
X89742440Y-109721955D01*
X90498395Y-108966000D01*
X90857605Y-108966000D01*
X91613560Y-109721955D01*
X91849368Y-109660068D01*
X91962266Y-109418210D01*
X92025811Y-109158973D01*
X92037561Y-108892320D01*
X91997063Y-108628499D01*
X91905875Y-108377647D01*
X91849368Y-108271932D01*
X91613560Y-108210045D01*
X90857605Y-108966000D01*
X90498395Y-108966000D01*
X89742440Y-108210045D01*
X89506632Y-108271932D01*
X89393734Y-108513790D01*
X89330189Y-108773027D01*
X89318439Y-109039680D01*
X88095610Y-109039680D01*
X88183990Y-108907411D01*
X88295932Y-108637158D01*
X88353000Y-108350260D01*
X88353000Y-108057740D01*
X88295932Y-107770842D01*
X88183990Y-107500589D01*
X88021475Y-107257368D01*
X87814632Y-107050525D01*
X87571411Y-106888010D01*
X87301158Y-106776068D01*
X87014260Y-106719000D01*
X86721740Y-106719000D01*
X86434842Y-106776068D01*
X86233000Y-106859673D01*
X86233000Y-103752544D01*
X89323000Y-103752544D01*
X89323000Y-104019456D01*
X89375072Y-104281239D01*
X89477215Y-104527833D01*
X89625503Y-104749762D01*
X89814238Y-104938497D01*
X90036167Y-105086785D01*
X90203266Y-105156000D01*
X90036167Y-105225215D01*
X89814238Y-105373503D01*
X89625503Y-105562238D01*
X89477215Y-105784167D01*
X89375072Y-106030761D01*
X89323000Y-106292544D01*
X89323000Y-106559456D01*
X89375072Y-106821239D01*
X89477215Y-107067833D01*
X89625503Y-107289762D01*
X89814238Y-107478497D01*
X90036167Y-107626785D01*
X90204324Y-107696438D01*
X90089647Y-107738125D01*
X89983932Y-107794632D01*
X89922045Y-108030440D01*
X90678000Y-108786395D01*
X91433955Y-108030440D01*
X91372068Y-107794632D01*
X91156993Y-107694236D01*
X91319833Y-107626785D01*
X91541762Y-107478497D01*
X91730497Y-107289762D01*
X91878785Y-107067833D01*
X91980928Y-106821239D01*
X92033000Y-106559456D01*
X92033000Y-106292544D01*
X91980928Y-106030761D01*
X91878785Y-105784167D01*
X91730497Y-105562238D01*
X91541762Y-105373503D01*
X91319833Y-105225215D01*
X91152734Y-105156000D01*
X91319833Y-105086785D01*
X91541762Y-104938497D01*
X91730497Y-104749762D01*
X91878785Y-104527833D01*
X91980928Y-104281239D01*
X92033000Y-104019456D01*
X92033000Y-103752544D01*
X91980928Y-103490761D01*
X91878785Y-103244167D01*
X91730497Y-103022238D01*
X91541762Y-102833503D01*
X91319833Y-102685215D01*
X91073239Y-102583072D01*
X90811456Y-102531000D01*
X90544544Y-102531000D01*
X90282761Y-102583072D01*
X90036167Y-102685215D01*
X89814238Y-102833503D01*
X89625503Y-103022238D01*
X89477215Y-103244167D01*
X89375072Y-103490761D01*
X89323000Y-103752544D01*
X86233000Y-103752544D01*
X86233000Y-94643740D01*
X86497491Y-94467013D01*
X86767013Y-94197491D01*
X86978775Y-93880566D01*
X87124639Y-93528419D01*
X87199000Y-93154581D01*
X87199000Y-92773419D01*
X87124639Y-92399581D01*
X87006348Y-92114000D01*
X87665928Y-92114000D01*
X87665928Y-93814000D01*
X87678188Y-93938482D01*
X87714498Y-94058180D01*
X87773463Y-94168494D01*
X87852815Y-94265185D01*
X87949506Y-94344537D01*
X88059820Y-94403502D01*
X88179518Y-94439812D01*
X88304000Y-94452072D01*
X90004000Y-94452072D01*
X90128482Y-94439812D01*
X90248180Y-94403502D01*
X90358494Y-94344537D01*
X90455185Y-94265185D01*
X90534537Y-94168494D01*
X90593502Y-94058180D01*
X90617966Y-93977534D01*
X90693731Y-94061588D01*
X90927080Y-94235641D01*
X91189901Y-94360825D01*
X91337110Y-94405476D01*
X91567000Y-94284155D01*
X91567000Y-93091000D01*
X91821000Y-93091000D01*
X91821000Y-94284155D01*
X92050890Y-94405476D01*
X92198099Y-94360825D01*
X92460920Y-94235641D01*
X92694269Y-94061588D01*
X92889178Y-93845355D01*
X93038157Y-93595252D01*
X93135481Y-93320891D01*
X93014814Y-93091000D01*
X91821000Y-93091000D01*
X91567000Y-93091000D01*
X91547000Y-93091000D01*
X91547000Y-92837000D01*
X91567000Y-92837000D01*
X91567000Y-91643845D01*
X91821000Y-91643845D01*
X91821000Y-92837000D01*
X93014814Y-92837000D01*
X93135481Y-92607109D01*
X93038157Y-92332748D01*
X92889178Y-92082645D01*
X92694269Y-91866412D01*
X92460920Y-91692359D01*
X92198099Y-91567175D01*
X92050890Y-91522524D01*
X91821000Y-91643845D01*
X91567000Y-91643845D01*
X91337110Y-91522524D01*
X91189901Y-91567175D01*
X90927080Y-91692359D01*
X90693731Y-91866412D01*
X90617966Y-91950466D01*
X90593502Y-91869820D01*
X90534537Y-91759506D01*
X90455185Y-91662815D01*
X90358494Y-91583463D01*
X90248180Y-91524498D01*
X90128482Y-91488188D01*
X90004000Y-91475928D01*
X88304000Y-91475928D01*
X88179518Y-91488188D01*
X88059820Y-91524498D01*
X87949506Y-91583463D01*
X87852815Y-91662815D01*
X87773463Y-91759506D01*
X87714498Y-91869820D01*
X87678188Y-91989518D01*
X87665928Y-92114000D01*
X87006348Y-92114000D01*
X86978775Y-92047434D01*
X86767013Y-91730509D01*
X86497491Y-91460987D01*
X86233000Y-91284260D01*
X86233000Y-91059000D01*
X100711000Y-91059000D01*
X100711000Y-111379000D01*
%TA.AperFunction,Conductor*%
D31*
G36*
X100711000Y-111379000D02*
G01*
X96516000Y-111379000D01*
X96516000Y-104297454D01*
X96548205Y-104249256D01*
X96626226Y-104060898D01*
X96666000Y-103860939D01*
X96666000Y-103657061D01*
X96626226Y-103457102D01*
X96548205Y-103268744D01*
X96434937Y-103099226D01*
X96290774Y-102955063D01*
X96121256Y-102841795D01*
X95932898Y-102763774D01*
X95732939Y-102724000D01*
X95529061Y-102724000D01*
X95329102Y-102763774D01*
X95140744Y-102841795D01*
X94971226Y-102955063D01*
X94827063Y-103099226D01*
X94713795Y-103268744D01*
X94635774Y-103457102D01*
X94596000Y-103657061D01*
X94596000Y-103860939D01*
X94635774Y-104060898D01*
X94713795Y-104249256D01*
X94746001Y-104297456D01*
X94746000Y-111379000D01*
X88354901Y-111379000D01*
X88353000Y-111029750D01*
X88194250Y-110871000D01*
X86995000Y-110871000D01*
X86995000Y-110891000D01*
X86741000Y-110891000D01*
X86741000Y-110871000D01*
X86721000Y-110871000D01*
X86721000Y-110617000D01*
X86741000Y-110617000D01*
X86741000Y-110597000D01*
X86995000Y-110597000D01*
X86995000Y-110617000D01*
X88194250Y-110617000D01*
X88353000Y-110458250D01*
X88356030Y-109901560D01*
X89922045Y-109901560D01*
X89983932Y-110137368D01*
X90225790Y-110250266D01*
X90485027Y-110313811D01*
X90751680Y-110325561D01*
X91015501Y-110285063D01*
X91266353Y-110193875D01*
X91372068Y-110137368D01*
X91433955Y-109901560D01*
X90678000Y-109145605D01*
X89922045Y-109901560D01*
X88356030Y-109901560D01*
X88356072Y-109894000D01*
X88343812Y-109769518D01*
X88307502Y-109649820D01*
X88248537Y-109539506D01*
X88169185Y-109442815D01*
X88072494Y-109363463D01*
X87962180Y-109304498D01*
X87889620Y-109282487D01*
X88021475Y-109150632D01*
X88095610Y-109039680D01*
X89318439Y-109039680D01*
X89358937Y-109303501D01*
X89450125Y-109554353D01*
X89506632Y-109660068D01*
X89742440Y-109721955D01*
X90498395Y-108966000D01*
X90857605Y-108966000D01*
X91613560Y-109721955D01*
X91849368Y-109660068D01*
X91962266Y-109418210D01*
X92025811Y-109158973D01*
X92037561Y-108892320D01*
X91997063Y-108628499D01*
X91905875Y-108377647D01*
X91849368Y-108271932D01*
X91613560Y-108210045D01*
X90857605Y-108966000D01*
X90498395Y-108966000D01*
X89742440Y-108210045D01*
X89506632Y-108271932D01*
X89393734Y-108513790D01*
X89330189Y-108773027D01*
X89318439Y-109039680D01*
X88095610Y-109039680D01*
X88183990Y-108907411D01*
X88295932Y-108637158D01*
X88353000Y-108350260D01*
X88353000Y-108057740D01*
X88295932Y-107770842D01*
X88183990Y-107500589D01*
X88021475Y-107257368D01*
X87814632Y-107050525D01*
X87571411Y-106888010D01*
X87301158Y-106776068D01*
X87014260Y-106719000D01*
X86721740Y-106719000D01*
X86434842Y-106776068D01*
X86233000Y-106859673D01*
X86233000Y-103752544D01*
X89323000Y-103752544D01*
X89323000Y-104019456D01*
X89375072Y-104281239D01*
X89477215Y-104527833D01*
X89625503Y-104749762D01*
X89814238Y-104938497D01*
X90036167Y-105086785D01*
X90203266Y-105156000D01*
X90036167Y-105225215D01*
X89814238Y-105373503D01*
X89625503Y-105562238D01*
X89477215Y-105784167D01*
X89375072Y-106030761D01*
X89323000Y-106292544D01*
X89323000Y-106559456D01*
X89375072Y-106821239D01*
X89477215Y-107067833D01*
X89625503Y-107289762D01*
X89814238Y-107478497D01*
X90036167Y-107626785D01*
X90204324Y-107696438D01*
X90089647Y-107738125D01*
X89983932Y-107794632D01*
X89922045Y-108030440D01*
X90678000Y-108786395D01*
X91433955Y-108030440D01*
X91372068Y-107794632D01*
X91156993Y-107694236D01*
X91319833Y-107626785D01*
X91541762Y-107478497D01*
X91730497Y-107289762D01*
X91878785Y-107067833D01*
X91980928Y-106821239D01*
X92033000Y-106559456D01*
X92033000Y-106292544D01*
X91980928Y-106030761D01*
X91878785Y-105784167D01*
X91730497Y-105562238D01*
X91541762Y-105373503D01*
X91319833Y-105225215D01*
X91152734Y-105156000D01*
X91319833Y-105086785D01*
X91541762Y-104938497D01*
X91730497Y-104749762D01*
X91878785Y-104527833D01*
X91980928Y-104281239D01*
X92033000Y-104019456D01*
X92033000Y-103752544D01*
X91980928Y-103490761D01*
X91878785Y-103244167D01*
X91730497Y-103022238D01*
X91541762Y-102833503D01*
X91319833Y-102685215D01*
X91073239Y-102583072D01*
X90811456Y-102531000D01*
X90544544Y-102531000D01*
X90282761Y-102583072D01*
X90036167Y-102685215D01*
X89814238Y-102833503D01*
X89625503Y-103022238D01*
X89477215Y-103244167D01*
X89375072Y-103490761D01*
X89323000Y-103752544D01*
X86233000Y-103752544D01*
X86233000Y-94643740D01*
X86497491Y-94467013D01*
X86767013Y-94197491D01*
X86978775Y-93880566D01*
X87124639Y-93528419D01*
X87199000Y-93154581D01*
X87199000Y-92773419D01*
X87124639Y-92399581D01*
X87006348Y-92114000D01*
X87665928Y-92114000D01*
X87665928Y-93814000D01*
X87678188Y-93938482D01*
X87714498Y-94058180D01*
X87773463Y-94168494D01*
X87852815Y-94265185D01*
X87949506Y-94344537D01*
X88059820Y-94403502D01*
X88179518Y-94439812D01*
X88304000Y-94452072D01*
X90004000Y-94452072D01*
X90128482Y-94439812D01*
X90248180Y-94403502D01*
X90358494Y-94344537D01*
X90455185Y-94265185D01*
X90534537Y-94168494D01*
X90593502Y-94058180D01*
X90617966Y-93977534D01*
X90693731Y-94061588D01*
X90927080Y-94235641D01*
X91189901Y-94360825D01*
X91337110Y-94405476D01*
X91567000Y-94284155D01*
X91567000Y-93091000D01*
X91821000Y-93091000D01*
X91821000Y-94284155D01*
X92050890Y-94405476D01*
X92198099Y-94360825D01*
X92460920Y-94235641D01*
X92694269Y-94061588D01*
X92889178Y-93845355D01*
X93038157Y-93595252D01*
X93135481Y-93320891D01*
X93014814Y-93091000D01*
X91821000Y-93091000D01*
X91567000Y-93091000D01*
X91547000Y-93091000D01*
X91547000Y-92837000D01*
X91567000Y-92837000D01*
X91567000Y-91643845D01*
X91821000Y-91643845D01*
X91821000Y-92837000D01*
X93014814Y-92837000D01*
X93135481Y-92607109D01*
X93038157Y-92332748D01*
X92889178Y-92082645D01*
X92694269Y-91866412D01*
X92460920Y-91692359D01*
X92198099Y-91567175D01*
X92050890Y-91522524D01*
X91821000Y-91643845D01*
X91567000Y-91643845D01*
X91337110Y-91522524D01*
X91189901Y-91567175D01*
X90927080Y-91692359D01*
X90693731Y-91866412D01*
X90617966Y-91950466D01*
X90593502Y-91869820D01*
X90534537Y-91759506D01*
X90455185Y-91662815D01*
X90358494Y-91583463D01*
X90248180Y-91524498D01*
X90128482Y-91488188D01*
X90004000Y-91475928D01*
X88304000Y-91475928D01*
X88179518Y-91488188D01*
X88059820Y-91524498D01*
X87949506Y-91583463D01*
X87852815Y-91662815D01*
X87773463Y-91759506D01*
X87714498Y-91869820D01*
X87678188Y-91989518D01*
X87665928Y-92114000D01*
X87006348Y-92114000D01*
X86978775Y-92047434D01*
X86767013Y-91730509D01*
X86497491Y-91460987D01*
X86233000Y-91284260D01*
X86233000Y-91059000D01*
X100711000Y-91059000D01*
X100711000Y-111379000D01*
G37*
%TD.AperFunction*%
%TD*%
D30*
%TO.N,Net-(C21-Pad2)*%
X128905000Y-129159000D02*
X117983000Y-129159000D01*
X117983000Y-125645098D01*
X121059000Y-125645098D01*
X121059000Y-126114902D01*
X121150654Y-126575679D01*
X121330440Y-127009721D01*
X121591450Y-127400349D01*
X121923651Y-127732550D01*
X122314279Y-127993560D01*
X122748321Y-128173346D01*
X123209098Y-128265000D01*
X123678902Y-128265000D01*
X124139679Y-128173346D01*
X124573721Y-127993560D01*
X124964349Y-127732550D01*
X125296550Y-127400349D01*
X125557560Y-127009721D01*
X125737346Y-126575679D01*
X125829000Y-126114902D01*
X125829000Y-125645098D01*
X125737346Y-125184321D01*
X125557560Y-124750279D01*
X125296550Y-124359651D01*
X124964349Y-124027450D01*
X124573721Y-123766440D01*
X124139679Y-123586654D01*
X123678902Y-123495000D01*
X123209098Y-123495000D01*
X122748321Y-123586654D01*
X122314279Y-123766440D01*
X121923651Y-124027450D01*
X121591450Y-124359651D01*
X121330440Y-124750279D01*
X121150654Y-125184321D01*
X121059000Y-125645098D01*
X117983000Y-125645098D01*
X117983000Y-113157000D01*
X128905000Y-113157000D01*
X128905000Y-129159000D01*
%TA.AperFunction,Conductor*%
D31*
G36*
X128905000Y-129159000D02*
G01*
X117983000Y-129159000D01*
X117983000Y-125645098D01*
X121059000Y-125645098D01*
X121059000Y-126114902D01*
X121150654Y-126575679D01*
X121330440Y-127009721D01*
X121591450Y-127400349D01*
X121923651Y-127732550D01*
X122314279Y-127993560D01*
X122748321Y-128173346D01*
X123209098Y-128265000D01*
X123678902Y-128265000D01*
X124139679Y-128173346D01*
X124573721Y-127993560D01*
X124964349Y-127732550D01*
X125296550Y-127400349D01*
X125557560Y-127009721D01*
X125737346Y-126575679D01*
X125829000Y-126114902D01*
X125829000Y-125645098D01*
X125737346Y-125184321D01*
X125557560Y-124750279D01*
X125296550Y-124359651D01*
X124964349Y-124027450D01*
X124573721Y-123766440D01*
X124139679Y-123586654D01*
X123678902Y-123495000D01*
X123209098Y-123495000D01*
X122748321Y-123586654D01*
X122314279Y-123766440D01*
X121923651Y-124027450D01*
X121591450Y-124359651D01*
X121330440Y-124750279D01*
X121150654Y-125184321D01*
X121059000Y-125645098D01*
X117983000Y-125645098D01*
X117983000Y-113157000D01*
X128905000Y-113157000D01*
X128905000Y-129159000D01*
G37*
%TD.AperFunction*%
%TD*%
D30*
%TO.N,GND*%
X102239001Y-120762580D02*
X102239000Y-131459422D01*
X102008952Y-131689470D01*
X101975184Y-131717183D01*
X101947471Y-131750951D01*
X101947468Y-131750954D01*
X101864590Y-131851941D01*
X101782412Y-132005687D01*
X101731805Y-132172510D01*
X101728408Y-132207000D01*
X100711000Y-132207000D01*
X100711000Y-119234579D01*
X102239001Y-120762580D01*
%TA.AperFunction,Conductor*%
D31*
G36*
X102239001Y-120762580D02*
G01*
X102239000Y-131459422D01*
X102008952Y-131689470D01*
X101975184Y-131717183D01*
X101947471Y-131750951D01*
X101947468Y-131750954D01*
X101864590Y-131851941D01*
X101782412Y-132005687D01*
X101731805Y-132172510D01*
X101728408Y-132207000D01*
X100711000Y-132207000D01*
X100711000Y-119234579D01*
X102239001Y-120762580D01*
G37*
%TD.AperFunction*%
D30*
X156337000Y-132207000D02*
X103923842Y-132207000D01*
X103945589Y-132166313D01*
X103996195Y-131999490D01*
X104009000Y-131869477D01*
X104009000Y-131869467D01*
X104013281Y-131826001D01*
X104009000Y-131782534D01*
X104009000Y-127649980D01*
X109137626Y-127649980D01*
X109257514Y-127934836D01*
X109581210Y-128095699D01*
X109930069Y-128190322D01*
X110290684Y-128215067D01*
X110649198Y-128168985D01*
X110991833Y-128053846D01*
X111214486Y-127934836D01*
X111334374Y-127649980D01*
X110236000Y-126551605D01*
X109137626Y-127649980D01*
X104009000Y-127649980D01*
X104009000Y-126426684D01*
X108392933Y-126426684D01*
X108439015Y-126785198D01*
X108554154Y-127127833D01*
X108673164Y-127350486D01*
X108958020Y-127470374D01*
X110056395Y-126372000D01*
X110415605Y-126372000D01*
X111513980Y-127470374D01*
X111798836Y-127350486D01*
X111959699Y-127026790D01*
X112054322Y-126677931D01*
X112079067Y-126317316D01*
X112032985Y-125958802D01*
X111917846Y-125616167D01*
X111798836Y-125393514D01*
X111513980Y-125273626D01*
X110415605Y-126372000D01*
X110056395Y-126372000D01*
X108958020Y-125273626D01*
X108673164Y-125393514D01*
X108512301Y-125717210D01*
X108417678Y-126066069D01*
X108392933Y-126426684D01*
X104009000Y-126426684D01*
X104009000Y-125094020D01*
X109137626Y-125094020D01*
X110236000Y-126192395D01*
X111334374Y-125094020D01*
X111214486Y-124809164D01*
X110890790Y-124648301D01*
X110541931Y-124553678D01*
X110181316Y-124528933D01*
X109822802Y-124575015D01*
X109480167Y-124690154D01*
X109257514Y-124809164D01*
X109137626Y-125094020D01*
X104009000Y-125094020D01*
X104009000Y-120439465D01*
X104013281Y-120395999D01*
X104009000Y-120352533D01*
X104009000Y-120352523D01*
X103996195Y-120222510D01*
X103945589Y-120055687D01*
X103863411Y-119901941D01*
X103752817Y-119767183D01*
X103719049Y-119739470D01*
X101651579Y-117672000D01*
X108397928Y-117672000D01*
X108397928Y-120072000D01*
X108410188Y-120196482D01*
X108446498Y-120316180D01*
X108505463Y-120426494D01*
X108584815Y-120523185D01*
X108681506Y-120602537D01*
X108791820Y-120661502D01*
X108911518Y-120697812D01*
X109036000Y-120710072D01*
X111436000Y-120710072D01*
X111560482Y-120697812D01*
X111680180Y-120661502D01*
X111790494Y-120602537D01*
X111887185Y-120523185D01*
X111966537Y-120426494D01*
X112025502Y-120316180D01*
X112061812Y-120196482D01*
X112074072Y-120072000D01*
X112074072Y-117672000D01*
X112061812Y-117547518D01*
X112025502Y-117427820D01*
X111966537Y-117317506D01*
X111887185Y-117220815D01*
X111790494Y-117141463D01*
X111680180Y-117082498D01*
X111560482Y-117046188D01*
X111436000Y-117033928D01*
X109036000Y-117033928D01*
X108911518Y-117046188D01*
X108791820Y-117082498D01*
X108681506Y-117141463D01*
X108584815Y-117220815D01*
X108505463Y-117317506D01*
X108446498Y-117427820D01*
X108410188Y-117547518D01*
X108397928Y-117672000D01*
X101651579Y-117672000D01*
X100711000Y-116731421D01*
X100711000Y-114896000D01*
X103667928Y-114896000D01*
X103680188Y-115020482D01*
X103716498Y-115140180D01*
X103775463Y-115250494D01*
X103854815Y-115347185D01*
X103951506Y-115426537D01*
X104061820Y-115485502D01*
X104181518Y-115521812D01*
X104306000Y-115534072D01*
X104870250Y-115531000D01*
X105029000Y-115372250D01*
X105029000Y-114173000D01*
X105283000Y-114173000D01*
X105283000Y-115372250D01*
X105441750Y-115531000D01*
X106006000Y-115534072D01*
X106130482Y-115521812D01*
X106250180Y-115485502D01*
X106360494Y-115426537D01*
X106457185Y-115347185D01*
X106536537Y-115250494D01*
X106595502Y-115140180D01*
X106631812Y-115020482D01*
X106644072Y-114896000D01*
X106641000Y-114331750D01*
X106482250Y-114173000D01*
X105283000Y-114173000D01*
X105029000Y-114173000D01*
X103829750Y-114173000D01*
X103671000Y-114331750D01*
X103667928Y-114896000D01*
X100711000Y-114896000D01*
X100711000Y-113196000D01*
X103667928Y-113196000D01*
X103671000Y-113760250D01*
X103829750Y-113919000D01*
X105029000Y-113919000D01*
X105029000Y-113899000D01*
X105283000Y-113899000D01*
X105283000Y-113919000D01*
X106482250Y-113919000D01*
X106641000Y-113760250D01*
X106644072Y-113196000D01*
X106631812Y-113071518D01*
X106595502Y-112951820D01*
X106536537Y-112841506D01*
X106457185Y-112744815D01*
X106360494Y-112665463D01*
X106250180Y-112606498D01*
X106177620Y-112584487D01*
X106240107Y-112522000D01*
X117221000Y-112522000D01*
X117221000Y-129794000D01*
X117223440Y-129818776D01*
X117230667Y-129842601D01*
X117242403Y-129864557D01*
X117258197Y-129883803D01*
X117277443Y-129899597D01*
X117299399Y-129911333D01*
X117323224Y-129918560D01*
X117348000Y-129921000D01*
X129540000Y-129921000D01*
X129564776Y-129918560D01*
X129588601Y-129911333D01*
X129610557Y-129899597D01*
X129629803Y-129883803D01*
X129645597Y-129864557D01*
X129657333Y-129842601D01*
X129664560Y-129818776D01*
X129667000Y-129794000D01*
X129667000Y-124626000D01*
X134655928Y-124626000D01*
X134655928Y-126326000D01*
X134668188Y-126450482D01*
X134704498Y-126570180D01*
X134763463Y-126680494D01*
X134842815Y-126777185D01*
X134939506Y-126856537D01*
X135049820Y-126915502D01*
X135169518Y-126951812D01*
X135294000Y-126964072D01*
X136994000Y-126964072D01*
X137118482Y-126951812D01*
X137238180Y-126915502D01*
X137348494Y-126856537D01*
X137445185Y-126777185D01*
X137524537Y-126680494D01*
X137583502Y-126570180D01*
X137605513Y-126497620D01*
X137737368Y-126629475D01*
X137980589Y-126791990D01*
X138250842Y-126903932D01*
X138537740Y-126961000D01*
X138830260Y-126961000D01*
X139117158Y-126903932D01*
X139387411Y-126791990D01*
X139630632Y-126629475D01*
X139837475Y-126422632D01*
X139954000Y-126248240D01*
X140070525Y-126422632D01*
X140277368Y-126629475D01*
X140520589Y-126791990D01*
X140790842Y-126903932D01*
X141077740Y-126961000D01*
X141370260Y-126961000D01*
X141657158Y-126903932D01*
X141927411Y-126791990D01*
X142170632Y-126629475D01*
X142377475Y-126422632D01*
X142494000Y-126248240D01*
X142610525Y-126422632D01*
X142817368Y-126629475D01*
X143060589Y-126791990D01*
X143330842Y-126903932D01*
X143617740Y-126961000D01*
X143910260Y-126961000D01*
X144197158Y-126903932D01*
X144467411Y-126791990D01*
X144710632Y-126629475D01*
X144917475Y-126422632D01*
X145034000Y-126248240D01*
X145150525Y-126422632D01*
X145357368Y-126629475D01*
X145600589Y-126791990D01*
X145870842Y-126903932D01*
X146157740Y-126961000D01*
X146450260Y-126961000D01*
X146737158Y-126903932D01*
X147007411Y-126791990D01*
X147250632Y-126629475D01*
X147457475Y-126422632D01*
X147579195Y-126240466D01*
X147648822Y-126357355D01*
X147843731Y-126573588D01*
X148077080Y-126747641D01*
X148339901Y-126872825D01*
X148487110Y-126917476D01*
X148717000Y-126796155D01*
X148717000Y-125603000D01*
X148971000Y-125603000D01*
X148971000Y-126796155D01*
X149200890Y-126917476D01*
X149348099Y-126872825D01*
X149610920Y-126747641D01*
X149844269Y-126573588D01*
X150039178Y-126357355D01*
X150188157Y-126107252D01*
X150285481Y-125832891D01*
X150164814Y-125603000D01*
X148971000Y-125603000D01*
X148717000Y-125603000D01*
X148697000Y-125603000D01*
X148697000Y-125349000D01*
X148717000Y-125349000D01*
X148717000Y-124155845D01*
X148971000Y-124155845D01*
X148971000Y-125349000D01*
X150164814Y-125349000D01*
X150285481Y-125119109D01*
X150188157Y-124844748D01*
X150039178Y-124594645D01*
X149844269Y-124378412D01*
X149610920Y-124204359D01*
X149348099Y-124079175D01*
X149200890Y-124034524D01*
X148971000Y-124155845D01*
X148717000Y-124155845D01*
X148487110Y-124034524D01*
X148339901Y-124079175D01*
X148077080Y-124204359D01*
X147843731Y-124378412D01*
X147648822Y-124594645D01*
X147579195Y-124711534D01*
X147457475Y-124529368D01*
X147250632Y-124322525D01*
X147007411Y-124160010D01*
X146737158Y-124048068D01*
X146450260Y-123991000D01*
X146157740Y-123991000D01*
X145870842Y-124048068D01*
X145600589Y-124160010D01*
X145357368Y-124322525D01*
X145150525Y-124529368D01*
X145034000Y-124703760D01*
X144917475Y-124529368D01*
X144710632Y-124322525D01*
X144467411Y-124160010D01*
X144197158Y-124048068D01*
X143910260Y-123991000D01*
X143617740Y-123991000D01*
X143330842Y-124048068D01*
X143060589Y-124160010D01*
X142817368Y-124322525D01*
X142610525Y-124529368D01*
X142494000Y-124703760D01*
X142377475Y-124529368D01*
X142170632Y-124322525D01*
X141927411Y-124160010D01*
X141657158Y-124048068D01*
X141370260Y-123991000D01*
X141077740Y-123991000D01*
X140790842Y-124048068D01*
X140520589Y-124160010D01*
X140277368Y-124322525D01*
X140070525Y-124529368D01*
X139954000Y-124703760D01*
X139837475Y-124529368D01*
X139630632Y-124322525D01*
X139387411Y-124160010D01*
X139117158Y-124048068D01*
X138830260Y-123991000D01*
X138537740Y-123991000D01*
X138250842Y-124048068D01*
X137980589Y-124160010D01*
X137737368Y-124322525D01*
X137605513Y-124454380D01*
X137583502Y-124381820D01*
X137524537Y-124271506D01*
X137445185Y-124174815D01*
X137348494Y-124095463D01*
X137238180Y-124036498D01*
X137118482Y-124000188D01*
X136994000Y-123987928D01*
X135294000Y-123987928D01*
X135169518Y-124000188D01*
X135049820Y-124036498D01*
X134939506Y-124095463D01*
X134842815Y-124174815D01*
X134763463Y-124271506D01*
X134704498Y-124381820D01*
X134668188Y-124501518D01*
X134655928Y-124626000D01*
X129667000Y-124626000D01*
X129667000Y-122587269D01*
X132862336Y-122587269D01*
X132921797Y-122821037D01*
X133160242Y-122931934D01*
X133415740Y-122994183D01*
X133678473Y-123005390D01*
X133938344Y-122965125D01*
X134185366Y-122874935D01*
X134286203Y-122821037D01*
X134345664Y-122587269D01*
X137434336Y-122587269D01*
X137493797Y-122821037D01*
X137732242Y-122931934D01*
X137987740Y-122994183D01*
X138250473Y-123005390D01*
X138510344Y-122965125D01*
X138757366Y-122874935D01*
X138858203Y-122821037D01*
X138917664Y-122587269D01*
X142006336Y-122587269D01*
X142065797Y-122821037D01*
X142304242Y-122931934D01*
X142559740Y-122994183D01*
X142822473Y-123005390D01*
X143082344Y-122965125D01*
X143329366Y-122874935D01*
X143430203Y-122821037D01*
X143489664Y-122587269D01*
X146578336Y-122587269D01*
X146637797Y-122821037D01*
X146876242Y-122931934D01*
X147131740Y-122994183D01*
X147394473Y-123005390D01*
X147654344Y-122965125D01*
X147901366Y-122874935D01*
X148002203Y-122821037D01*
X148061664Y-122587269D01*
X151150336Y-122587269D01*
X151209797Y-122821037D01*
X151448242Y-122931934D01*
X151703740Y-122994183D01*
X151966473Y-123005390D01*
X152226344Y-122965125D01*
X152473366Y-122874935D01*
X152574203Y-122821037D01*
X152633664Y-122587269D01*
X151892000Y-121845605D01*
X151150336Y-122587269D01*
X148061664Y-122587269D01*
X147320000Y-121845605D01*
X146578336Y-122587269D01*
X143489664Y-122587269D01*
X142748000Y-121845605D01*
X142006336Y-122587269D01*
X138917664Y-122587269D01*
X138176000Y-121845605D01*
X137434336Y-122587269D01*
X134345664Y-122587269D01*
X133604000Y-121845605D01*
X132862336Y-122587269D01*
X129667000Y-122587269D01*
X129667000Y-121740473D01*
X132264610Y-121740473D01*
X132304875Y-122000344D01*
X132395065Y-122247366D01*
X132448963Y-122348203D01*
X132682731Y-122407664D01*
X133424395Y-121666000D01*
X133783605Y-121666000D01*
X134525269Y-122407664D01*
X134759037Y-122348203D01*
X134869934Y-122109758D01*
X134932183Y-121854260D01*
X134937036Y-121740473D01*
X136836610Y-121740473D01*
X136876875Y-122000344D01*
X136967065Y-122247366D01*
X137020963Y-122348203D01*
X137254731Y-122407664D01*
X137996395Y-121666000D01*
X138355605Y-121666000D01*
X139097269Y-122407664D01*
X139331037Y-122348203D01*
X139441934Y-122109758D01*
X139504183Y-121854260D01*
X139509036Y-121740473D01*
X141408610Y-121740473D01*
X141448875Y-122000344D01*
X141539065Y-122247366D01*
X141592963Y-122348203D01*
X141826731Y-122407664D01*
X142568395Y-121666000D01*
X142927605Y-121666000D01*
X143669269Y-122407664D01*
X143903037Y-122348203D01*
X144013934Y-122109758D01*
X144076183Y-121854260D01*
X144081036Y-121740473D01*
X145980610Y-121740473D01*
X146020875Y-122000344D01*
X146111065Y-122247366D01*
X146164963Y-122348203D01*
X146398731Y-122407664D01*
X147140395Y-121666000D01*
X147499605Y-121666000D01*
X148241269Y-122407664D01*
X148475037Y-122348203D01*
X148585934Y-122109758D01*
X148648183Y-121854260D01*
X148653036Y-121740473D01*
X150552610Y-121740473D01*
X150592875Y-122000344D01*
X150683065Y-122247366D01*
X150736963Y-122348203D01*
X150970731Y-122407664D01*
X151712395Y-121666000D01*
X152071605Y-121666000D01*
X152813269Y-122407664D01*
X153047037Y-122348203D01*
X153157934Y-122109758D01*
X153220183Y-121854260D01*
X153231390Y-121591527D01*
X153191125Y-121331656D01*
X153100935Y-121084634D01*
X153047037Y-120983797D01*
X152813269Y-120924336D01*
X152071605Y-121666000D01*
X151712395Y-121666000D01*
X150970731Y-120924336D01*
X150736963Y-120983797D01*
X150626066Y-121222242D01*
X150563817Y-121477740D01*
X150552610Y-121740473D01*
X148653036Y-121740473D01*
X148659390Y-121591527D01*
X148619125Y-121331656D01*
X148528935Y-121084634D01*
X148475037Y-120983797D01*
X148241269Y-120924336D01*
X147499605Y-121666000D01*
X147140395Y-121666000D01*
X146398731Y-120924336D01*
X146164963Y-120983797D01*
X146054066Y-121222242D01*
X145991817Y-121477740D01*
X145980610Y-121740473D01*
X144081036Y-121740473D01*
X144087390Y-121591527D01*
X144047125Y-121331656D01*
X143956935Y-121084634D01*
X143903037Y-120983797D01*
X143669269Y-120924336D01*
X142927605Y-121666000D01*
X142568395Y-121666000D01*
X141826731Y-120924336D01*
X141592963Y-120983797D01*
X141482066Y-121222242D01*
X141419817Y-121477740D01*
X141408610Y-121740473D01*
X139509036Y-121740473D01*
X139515390Y-121591527D01*
X139475125Y-121331656D01*
X139384935Y-121084634D01*
X139331037Y-120983797D01*
X139097269Y-120924336D01*
X138355605Y-121666000D01*
X137996395Y-121666000D01*
X137254731Y-120924336D01*
X137020963Y-120983797D01*
X136910066Y-121222242D01*
X136847817Y-121477740D01*
X136836610Y-121740473D01*
X134937036Y-121740473D01*
X134943390Y-121591527D01*
X134903125Y-121331656D01*
X134812935Y-121084634D01*
X134759037Y-120983797D01*
X134525269Y-120924336D01*
X133783605Y-121666000D01*
X133424395Y-121666000D01*
X132682731Y-120924336D01*
X132448963Y-120983797D01*
X132338066Y-121222242D01*
X132275817Y-121477740D01*
X132264610Y-121740473D01*
X129667000Y-121740473D01*
X129667000Y-120744731D01*
X132862336Y-120744731D01*
X133604000Y-121486395D01*
X134345664Y-120744731D01*
X137434336Y-120744731D01*
X138176000Y-121486395D01*
X138917664Y-120744731D01*
X142006336Y-120744731D01*
X142748000Y-121486395D01*
X143489664Y-120744731D01*
X146578336Y-120744731D01*
X147320000Y-121486395D01*
X148061664Y-120744731D01*
X151150336Y-120744731D01*
X151892000Y-121486395D01*
X152633664Y-120744731D01*
X152574203Y-120510963D01*
X152335758Y-120400066D01*
X152080260Y-120337817D01*
X151817527Y-120326610D01*
X151557656Y-120366875D01*
X151310634Y-120457065D01*
X151209797Y-120510963D01*
X151150336Y-120744731D01*
X148061664Y-120744731D01*
X148002203Y-120510963D01*
X147763758Y-120400066D01*
X147508260Y-120337817D01*
X147245527Y-120326610D01*
X146985656Y-120366875D01*
X146738634Y-120457065D01*
X146637797Y-120510963D01*
X146578336Y-120744731D01*
X143489664Y-120744731D01*
X143430203Y-120510963D01*
X143191758Y-120400066D01*
X142936260Y-120337817D01*
X142673527Y-120326610D01*
X142413656Y-120366875D01*
X142166634Y-120457065D01*
X142065797Y-120510963D01*
X142006336Y-120744731D01*
X138917664Y-120744731D01*
X138858203Y-120510963D01*
X138619758Y-120400066D01*
X138364260Y-120337817D01*
X138101527Y-120326610D01*
X137841656Y-120366875D01*
X137594634Y-120457065D01*
X137493797Y-120510963D01*
X137434336Y-120744731D01*
X134345664Y-120744731D01*
X134286203Y-120510963D01*
X134047758Y-120400066D01*
X133792260Y-120337817D01*
X133529527Y-120326610D01*
X133269656Y-120366875D01*
X133022634Y-120457065D01*
X132921797Y-120510963D01*
X132862336Y-120744731D01*
X129667000Y-120744731D01*
X129667000Y-119586824D01*
X129706518Y-119598812D01*
X129831000Y-119611072D01*
X130270250Y-119608000D01*
X130429000Y-119449250D01*
X130429000Y-118512500D01*
X130683000Y-118512500D01*
X130683000Y-119449250D01*
X130841750Y-119608000D01*
X131281000Y-119611072D01*
X131405482Y-119598812D01*
X131525180Y-119562502D01*
X131635494Y-119503537D01*
X131732185Y-119424185D01*
X131811537Y-119327494D01*
X131870502Y-119217180D01*
X131906812Y-119097482D01*
X131919072Y-118973000D01*
X131916000Y-118671250D01*
X131757250Y-118512500D01*
X130683000Y-118512500D01*
X130429000Y-118512500D01*
X130409000Y-118512500D01*
X130409000Y-118258500D01*
X130429000Y-118258500D01*
X130429000Y-118238500D01*
X130683000Y-118238500D01*
X130683000Y-118258500D01*
X131757250Y-118258500D01*
X131916000Y-118099750D01*
X131919072Y-117798000D01*
X131911835Y-117724514D01*
X132269000Y-117724514D01*
X132269000Y-117987486D01*
X132320304Y-118245405D01*
X132420939Y-118488359D01*
X132567038Y-118707013D01*
X132752987Y-118892962D01*
X132971641Y-119039061D01*
X133214595Y-119139696D01*
X133472514Y-119191000D01*
X133735486Y-119191000D01*
X133993405Y-119139696D01*
X134236359Y-119039061D01*
X134455013Y-118892962D01*
X134640962Y-118707013D01*
X134787061Y-118488359D01*
X134887696Y-118245405D01*
X134939000Y-117987486D01*
X134939000Y-117724514D01*
X136841000Y-117724514D01*
X136841000Y-117987486D01*
X136892304Y-118245405D01*
X136992939Y-118488359D01*
X137139038Y-118707013D01*
X137324987Y-118892962D01*
X137543641Y-119039061D01*
X137786595Y-119139696D01*
X138044514Y-119191000D01*
X138307486Y-119191000D01*
X138565405Y-119139696D01*
X138808359Y-119039061D01*
X139027013Y-118892962D01*
X139212962Y-118707013D01*
X139359061Y-118488359D01*
X139459696Y-118245405D01*
X139511000Y-117987486D01*
X139511000Y-117724514D01*
X141413000Y-117724514D01*
X141413000Y-117987486D01*
X141464304Y-118245405D01*
X141564939Y-118488359D01*
X141711038Y-118707013D01*
X141896987Y-118892962D01*
X142115641Y-119039061D01*
X142358595Y-119139696D01*
X142616514Y-119191000D01*
X142879486Y-119191000D01*
X143137405Y-119139696D01*
X143380359Y-119039061D01*
X143599013Y-118892962D01*
X143784962Y-118707013D01*
X143931061Y-118488359D01*
X144031696Y-118245405D01*
X144083000Y-117987486D01*
X144083000Y-117724514D01*
X145985000Y-117724514D01*
X145985000Y-117987486D01*
X146036304Y-118245405D01*
X146136939Y-118488359D01*
X146283038Y-118707013D01*
X146468987Y-118892962D01*
X146687641Y-119039061D01*
X146930595Y-119139696D01*
X147188514Y-119191000D01*
X147451486Y-119191000D01*
X147709405Y-119139696D01*
X147952359Y-119039061D01*
X148171013Y-118892962D01*
X148356962Y-118707013D01*
X148503061Y-118488359D01*
X148603696Y-118245405D01*
X148655000Y-117987486D01*
X148655000Y-117724514D01*
X150557000Y-117724514D01*
X150557000Y-117987486D01*
X150608304Y-118245405D01*
X150708939Y-118488359D01*
X150855038Y-118707013D01*
X151040987Y-118892962D01*
X151259641Y-119039061D01*
X151502595Y-119139696D01*
X151760514Y-119191000D01*
X152023486Y-119191000D01*
X152281405Y-119139696D01*
X152524359Y-119039061D01*
X152743013Y-118892962D01*
X152928962Y-118707013D01*
X153075061Y-118488359D01*
X153175696Y-118245405D01*
X153227000Y-117987486D01*
X153227000Y-117724514D01*
X153175696Y-117466595D01*
X153075061Y-117223641D01*
X152928962Y-117004987D01*
X152743013Y-116819038D01*
X152524359Y-116672939D01*
X152281405Y-116572304D01*
X152023486Y-116521000D01*
X151760514Y-116521000D01*
X151502595Y-116572304D01*
X151259641Y-116672939D01*
X151040987Y-116819038D01*
X150855038Y-117004987D01*
X150708939Y-117223641D01*
X150608304Y-117466595D01*
X150557000Y-117724514D01*
X148655000Y-117724514D01*
X148603696Y-117466595D01*
X148503061Y-117223641D01*
X148356962Y-117004987D01*
X148171013Y-116819038D01*
X147952359Y-116672939D01*
X147709405Y-116572304D01*
X147451486Y-116521000D01*
X147188514Y-116521000D01*
X146930595Y-116572304D01*
X146687641Y-116672939D01*
X146468987Y-116819038D01*
X146283038Y-117004987D01*
X146136939Y-117223641D01*
X146036304Y-117466595D01*
X145985000Y-117724514D01*
X144083000Y-117724514D01*
X144031696Y-117466595D01*
X143931061Y-117223641D01*
X143784962Y-117004987D01*
X143599013Y-116819038D01*
X143380359Y-116672939D01*
X143137405Y-116572304D01*
X142879486Y-116521000D01*
X142616514Y-116521000D01*
X142358595Y-116572304D01*
X142115641Y-116672939D01*
X141896987Y-116819038D01*
X141711038Y-117004987D01*
X141564939Y-117223641D01*
X141464304Y-117466595D01*
X141413000Y-117724514D01*
X139511000Y-117724514D01*
X139459696Y-117466595D01*
X139359061Y-117223641D01*
X139212962Y-117004987D01*
X139027013Y-116819038D01*
X138808359Y-116672939D01*
X138565405Y-116572304D01*
X138307486Y-116521000D01*
X138044514Y-116521000D01*
X137786595Y-116572304D01*
X137543641Y-116672939D01*
X137324987Y-116819038D01*
X137139038Y-117004987D01*
X136992939Y-117223641D01*
X136892304Y-117466595D01*
X136841000Y-117724514D01*
X134939000Y-117724514D01*
X134887696Y-117466595D01*
X134787061Y-117223641D01*
X134640962Y-117004987D01*
X134455013Y-116819038D01*
X134236359Y-116672939D01*
X133993405Y-116572304D01*
X133735486Y-116521000D01*
X133472514Y-116521000D01*
X133214595Y-116572304D01*
X132971641Y-116672939D01*
X132752987Y-116819038D01*
X132567038Y-117004987D01*
X132420939Y-117223641D01*
X132320304Y-117466595D01*
X132269000Y-117724514D01*
X131911835Y-117724514D01*
X131906812Y-117673518D01*
X131870502Y-117553820D01*
X131811537Y-117443506D01*
X131732185Y-117346815D01*
X131652406Y-117281342D01*
X131658962Y-117275962D01*
X131769405Y-117141386D01*
X131851472Y-116987850D01*
X131902008Y-116821254D01*
X131919072Y-116648000D01*
X131919072Y-116220506D01*
X132935000Y-115204579D01*
X132971641Y-115229061D01*
X133214595Y-115329696D01*
X133472514Y-115381000D01*
X133735486Y-115381000D01*
X133993405Y-115329696D01*
X134236359Y-115229061D01*
X134455013Y-115082962D01*
X134640962Y-114897013D01*
X134787061Y-114678359D01*
X134887696Y-114435405D01*
X134939000Y-114177486D01*
X134939000Y-113914514D01*
X136841000Y-113914514D01*
X136841000Y-114177486D01*
X136892304Y-114435405D01*
X136992939Y-114678359D01*
X137139038Y-114897013D01*
X137324987Y-115082962D01*
X137543641Y-115229061D01*
X137786595Y-115329696D01*
X138044514Y-115381000D01*
X138307486Y-115381000D01*
X138565405Y-115329696D01*
X138808359Y-115229061D01*
X139027013Y-115082962D01*
X139212962Y-114897013D01*
X139359061Y-114678359D01*
X139459696Y-114435405D01*
X139511000Y-114177486D01*
X139511000Y-113914514D01*
X141413000Y-113914514D01*
X141413000Y-114177486D01*
X141464304Y-114435405D01*
X141564939Y-114678359D01*
X141711038Y-114897013D01*
X141896987Y-115082962D01*
X142115641Y-115229061D01*
X142358595Y-115329696D01*
X142616514Y-115381000D01*
X142879486Y-115381000D01*
X143137405Y-115329696D01*
X143380359Y-115229061D01*
X143599013Y-115082962D01*
X143784962Y-114897013D01*
X143931061Y-114678359D01*
X144031696Y-114435405D01*
X144083000Y-114177486D01*
X144083000Y-113914514D01*
X145985000Y-113914514D01*
X145985000Y-114177486D01*
X146036304Y-114435405D01*
X146136939Y-114678359D01*
X146283038Y-114897013D01*
X146468987Y-115082962D01*
X146687641Y-115229061D01*
X146930595Y-115329696D01*
X147188514Y-115381000D01*
X147451486Y-115381000D01*
X147709405Y-115329696D01*
X147952359Y-115229061D01*
X148171013Y-115082962D01*
X148356962Y-114897013D01*
X148503061Y-114678359D01*
X148603696Y-114435405D01*
X148655000Y-114177486D01*
X148655000Y-113914514D01*
X150557000Y-113914514D01*
X150557000Y-114177486D01*
X150608304Y-114435405D01*
X150708939Y-114678359D01*
X150855038Y-114897013D01*
X151040987Y-115082962D01*
X151259641Y-115229061D01*
X151502595Y-115329696D01*
X151760514Y-115381000D01*
X152023486Y-115381000D01*
X152281405Y-115329696D01*
X152524359Y-115229061D01*
X152743013Y-115082962D01*
X152928962Y-114897013D01*
X153075061Y-114678359D01*
X153175696Y-114435405D01*
X153227000Y-114177486D01*
X153227000Y-113914514D01*
X153175696Y-113656595D01*
X153075061Y-113413641D01*
X152928962Y-113194987D01*
X152743013Y-113009038D01*
X152524359Y-112862939D01*
X152281405Y-112762304D01*
X152023486Y-112711000D01*
X151760514Y-112711000D01*
X151502595Y-112762304D01*
X151259641Y-112862939D01*
X151040987Y-113009038D01*
X150855038Y-113194987D01*
X150708939Y-113413641D01*
X150608304Y-113656595D01*
X150557000Y-113914514D01*
X148655000Y-113914514D01*
X148603696Y-113656595D01*
X148503061Y-113413641D01*
X148356962Y-113194987D01*
X148171013Y-113009038D01*
X147952359Y-112862939D01*
X147709405Y-112762304D01*
X147451486Y-112711000D01*
X147188514Y-112711000D01*
X146930595Y-112762304D01*
X146687641Y-112862939D01*
X146468987Y-113009038D01*
X146283038Y-113194987D01*
X146136939Y-113413641D01*
X146036304Y-113656595D01*
X145985000Y-113914514D01*
X144083000Y-113914514D01*
X144031696Y-113656595D01*
X143931061Y-113413641D01*
X143784962Y-113194987D01*
X143599013Y-113009038D01*
X143380359Y-112862939D01*
X143137405Y-112762304D01*
X142879486Y-112711000D01*
X142616514Y-112711000D01*
X142358595Y-112762304D01*
X142115641Y-112862939D01*
X141896987Y-113009038D01*
X141711038Y-113194987D01*
X141564939Y-113413641D01*
X141464304Y-113656595D01*
X141413000Y-113914514D01*
X139511000Y-113914514D01*
X139459696Y-113656595D01*
X139359061Y-113413641D01*
X139212962Y-113194987D01*
X139027013Y-113009038D01*
X138808359Y-112862939D01*
X138565405Y-112762304D01*
X138307486Y-112711000D01*
X138044514Y-112711000D01*
X137786595Y-112762304D01*
X137543641Y-112862939D01*
X137324987Y-113009038D01*
X137139038Y-113194987D01*
X136992939Y-113413641D01*
X136892304Y-113656595D01*
X136841000Y-113914514D01*
X134939000Y-113914514D01*
X134887696Y-113656595D01*
X134787061Y-113413641D01*
X134640962Y-113194987D01*
X134455013Y-113009038D01*
X134236359Y-112862939D01*
X133993405Y-112762304D01*
X133735486Y-112711000D01*
X133472514Y-112711000D01*
X133214595Y-112762304D01*
X132971641Y-112862939D01*
X132752987Y-113009038D01*
X132567038Y-113194987D01*
X132558993Y-113207027D01*
X132501686Y-113224411D01*
X132347941Y-113306589D01*
X132246953Y-113389468D01*
X132246951Y-113389470D01*
X132213183Y-113417183D01*
X132185470Y-113450951D01*
X130551494Y-115084928D01*
X130081000Y-115084928D01*
X129907746Y-115101992D01*
X129741150Y-115152528D01*
X129667000Y-115192162D01*
X129667000Y-112522000D01*
X129664560Y-112497224D01*
X129657333Y-112473399D01*
X129645597Y-112451443D01*
X129629803Y-112432197D01*
X129610557Y-112416403D01*
X129588601Y-112404667D01*
X129564776Y-112397440D01*
X129540000Y-112395000D01*
X124579000Y-112395000D01*
X124579000Y-110386888D01*
X124719162Y-110216100D01*
X124874563Y-110401315D01*
X125117077Y-110595969D01*
X125392906Y-110739571D01*
X125611020Y-110810563D01*
X125857000Y-110690594D01*
X125857000Y-109347000D01*
X126111000Y-109347000D01*
X126111000Y-110690594D01*
X126356980Y-110810563D01*
X126575094Y-110739571D01*
X126850923Y-110595969D01*
X127093437Y-110401315D01*
X127293316Y-110163089D01*
X127442879Y-109890446D01*
X127536378Y-109593863D01*
X127506656Y-109536000D01*
X132265928Y-109536000D01*
X132265928Y-110936000D01*
X132278188Y-111060482D01*
X132314498Y-111180180D01*
X132373463Y-111290494D01*
X132452815Y-111387185D01*
X132549506Y-111466537D01*
X132659820Y-111525502D01*
X132779518Y-111561812D01*
X132904000Y-111574072D01*
X134304000Y-111574072D01*
X134428482Y-111561812D01*
X134548180Y-111525502D01*
X134658494Y-111466537D01*
X134755185Y-111387185D01*
X134834537Y-111290494D01*
X134893502Y-111180180D01*
X134929812Y-111060482D01*
X134942072Y-110936000D01*
X134942072Y-109536000D01*
X136837928Y-109536000D01*
X136837928Y-110936000D01*
X136850188Y-111060482D01*
X136886498Y-111180180D01*
X136945463Y-111290494D01*
X137024815Y-111387185D01*
X137121506Y-111466537D01*
X137231820Y-111525502D01*
X137351518Y-111561812D01*
X137476000Y-111574072D01*
X138876000Y-111574072D01*
X139000482Y-111561812D01*
X139120180Y-111525502D01*
X139230494Y-111466537D01*
X139327185Y-111387185D01*
X139406537Y-111290494D01*
X139465502Y-111180180D01*
X139501812Y-111060482D01*
X139514072Y-110936000D01*
X139514072Y-109536000D01*
X141409928Y-109536000D01*
X141409928Y-110936000D01*
X141422188Y-111060482D01*
X141458498Y-111180180D01*
X141517463Y-111290494D01*
X141596815Y-111387185D01*
X141693506Y-111466537D01*
X141803820Y-111525502D01*
X141923518Y-111561812D01*
X142048000Y-111574072D01*
X143448000Y-111574072D01*
X143572482Y-111561812D01*
X143692180Y-111525502D01*
X143802494Y-111466537D01*
X143899185Y-111387185D01*
X143978537Y-111290494D01*
X144037502Y-111180180D01*
X144073812Y-111060482D01*
X144086072Y-110936000D01*
X144086072Y-109536000D01*
X145981928Y-109536000D01*
X145981928Y-110936000D01*
X145994188Y-111060482D01*
X146030498Y-111180180D01*
X146089463Y-111290494D01*
X146168815Y-111387185D01*
X146265506Y-111466537D01*
X146375820Y-111525502D01*
X146495518Y-111561812D01*
X146620000Y-111574072D01*
X148020000Y-111574072D01*
X148144482Y-111561812D01*
X148264180Y-111525502D01*
X148374494Y-111466537D01*
X148471185Y-111387185D01*
X148550537Y-111290494D01*
X148609502Y-111180180D01*
X148645812Y-111060482D01*
X148658072Y-110936000D01*
X148658072Y-109536000D01*
X150553928Y-109536000D01*
X150553928Y-110936000D01*
X150566188Y-111060482D01*
X150602498Y-111180180D01*
X150661463Y-111290494D01*
X150740815Y-111387185D01*
X150837506Y-111466537D01*
X150947820Y-111525502D01*
X151067518Y-111561812D01*
X151192000Y-111574072D01*
X152592000Y-111574072D01*
X152716482Y-111561812D01*
X152836180Y-111525502D01*
X152946494Y-111466537D01*
X153043185Y-111387185D01*
X153122537Y-111290494D01*
X153181502Y-111180180D01*
X153217812Y-111060482D01*
X153230072Y-110936000D01*
X153230072Y-109536000D01*
X153217812Y-109411518D01*
X153181502Y-109291820D01*
X153122537Y-109181506D01*
X153043185Y-109084815D01*
X152946494Y-109005463D01*
X152836180Y-108946498D01*
X152716482Y-108910188D01*
X152592000Y-108897928D01*
X151192000Y-108897928D01*
X151067518Y-108910188D01*
X150947820Y-108946498D01*
X150837506Y-109005463D01*
X150740815Y-109084815D01*
X150661463Y-109181506D01*
X150602498Y-109291820D01*
X150566188Y-109411518D01*
X150553928Y-109536000D01*
X148658072Y-109536000D01*
X148645812Y-109411518D01*
X148609502Y-109291820D01*
X148550537Y-109181506D01*
X148471185Y-109084815D01*
X148374494Y-109005463D01*
X148264180Y-108946498D01*
X148144482Y-108910188D01*
X148020000Y-108897928D01*
X146620000Y-108897928D01*
X146495518Y-108910188D01*
X146375820Y-108946498D01*
X146265506Y-109005463D01*
X146168815Y-109084815D01*
X146089463Y-109181506D01*
X146030498Y-109291820D01*
X145994188Y-109411518D01*
X145981928Y-109536000D01*
X144086072Y-109536000D01*
X144073812Y-109411518D01*
X144037502Y-109291820D01*
X143978537Y-109181506D01*
X143899185Y-109084815D01*
X143802494Y-109005463D01*
X143692180Y-108946498D01*
X143572482Y-108910188D01*
X143448000Y-108897928D01*
X142048000Y-108897928D01*
X141923518Y-108910188D01*
X141803820Y-108946498D01*
X141693506Y-109005463D01*
X141596815Y-109084815D01*
X141517463Y-109181506D01*
X141458498Y-109291820D01*
X141422188Y-109411518D01*
X141409928Y-109536000D01*
X139514072Y-109536000D01*
X139501812Y-109411518D01*
X139465502Y-109291820D01*
X139406537Y-109181506D01*
X139327185Y-109084815D01*
X139230494Y-109005463D01*
X139120180Y-108946498D01*
X139000482Y-108910188D01*
X138876000Y-108897928D01*
X137476000Y-108897928D01*
X137351518Y-108910188D01*
X137231820Y-108946498D01*
X137121506Y-109005463D01*
X137024815Y-109084815D01*
X136945463Y-109181506D01*
X136886498Y-109291820D01*
X136850188Y-109411518D01*
X136837928Y-109536000D01*
X134942072Y-109536000D01*
X134929812Y-109411518D01*
X134893502Y-109291820D01*
X134834537Y-109181506D01*
X134755185Y-109084815D01*
X134658494Y-109005463D01*
X134548180Y-108946498D01*
X134428482Y-108910188D01*
X134304000Y-108897928D01*
X132904000Y-108897928D01*
X132779518Y-108910188D01*
X132659820Y-108946498D01*
X132549506Y-109005463D01*
X132452815Y-109084815D01*
X132373463Y-109181506D01*
X132314498Y-109291820D01*
X132278188Y-109411518D01*
X132265928Y-109536000D01*
X127506656Y-109536000D01*
X127409570Y-109347000D01*
X126111000Y-109347000D01*
X125857000Y-109347000D01*
X125837000Y-109347000D01*
X125837000Y-109093000D01*
X125857000Y-109093000D01*
X125857000Y-107749406D01*
X126111000Y-107749406D01*
X126111000Y-109093000D01*
X127409570Y-109093000D01*
X127536378Y-108846137D01*
X127442879Y-108549554D01*
X127293316Y-108276911D01*
X127093437Y-108038685D01*
X126850923Y-107844031D01*
X126575094Y-107700429D01*
X126356980Y-107629437D01*
X126111000Y-107749406D01*
X125857000Y-107749406D01*
X125611020Y-107629437D01*
X125392906Y-107700429D01*
X125117077Y-107844031D01*
X124874563Y-108038685D01*
X124719163Y-108223899D01*
X124571963Y-108044537D01*
X124330234Y-107846155D01*
X124054448Y-107698745D01*
X123755203Y-107607970D01*
X123444000Y-107577319D01*
X123132796Y-107607970D01*
X122833551Y-107698745D01*
X122557765Y-107846155D01*
X122431905Y-107949446D01*
X122387037Y-107865506D01*
X122307685Y-107768815D01*
X122210994Y-107689463D01*
X122100680Y-107630498D01*
X121980982Y-107594188D01*
X121856500Y-107581928D01*
X119951500Y-107581928D01*
X119827018Y-107594188D01*
X119707320Y-107630498D01*
X119597006Y-107689463D01*
X119500315Y-107768815D01*
X119420963Y-107865506D01*
X119361998Y-107975820D01*
X119325688Y-108095518D01*
X119313428Y-108220000D01*
X119313428Y-110220000D01*
X119325688Y-110344482D01*
X119361998Y-110464180D01*
X119420963Y-110574494D01*
X119500315Y-110671185D01*
X119597006Y-110750537D01*
X119707320Y-110809502D01*
X119827018Y-110845812D01*
X119951500Y-110858072D01*
X121856500Y-110858072D01*
X121980982Y-110845812D01*
X122100680Y-110809502D01*
X122210994Y-110750537D01*
X122307685Y-110671185D01*
X122309000Y-110669583D01*
X122309000Y-112395000D01*
X117348000Y-112395000D01*
X117323224Y-112397440D01*
X117299399Y-112404667D01*
X117277443Y-112416403D01*
X117258197Y-112432197D01*
X117242403Y-112451443D01*
X117230667Y-112473399D01*
X117223440Y-112497224D01*
X117221000Y-112522000D01*
X106240107Y-112522000D01*
X106309475Y-112452632D01*
X106471990Y-112209411D01*
X106583932Y-111939158D01*
X106641000Y-111652260D01*
X106641000Y-111359740D01*
X106583932Y-111072842D01*
X106471990Y-110802589D01*
X106309475Y-110559368D01*
X106102632Y-110352525D01*
X105859411Y-110190010D01*
X105589158Y-110078068D01*
X105302260Y-110021000D01*
X105009740Y-110021000D01*
X104722842Y-110078068D01*
X104452589Y-110190010D01*
X104209368Y-110352525D01*
X104002525Y-110559368D01*
X103840010Y-110802589D01*
X103728068Y-111072842D01*
X103671000Y-111359740D01*
X103671000Y-111652260D01*
X103728068Y-111939158D01*
X103840010Y-112209411D01*
X104002525Y-112452632D01*
X104134380Y-112584487D01*
X104061820Y-112606498D01*
X103951506Y-112665463D01*
X103854815Y-112744815D01*
X103775463Y-112841506D01*
X103716498Y-112951820D01*
X103680188Y-113071518D01*
X103667928Y-113196000D01*
X100711000Y-113196000D01*
X100711000Y-109791419D01*
X108301000Y-109791419D01*
X108301000Y-110172581D01*
X108375361Y-110546419D01*
X108521225Y-110898566D01*
X108732987Y-111215491D01*
X109002509Y-111485013D01*
X109319434Y-111696775D01*
X109671581Y-111842639D01*
X110045419Y-111917000D01*
X110426581Y-111917000D01*
X110800419Y-111842639D01*
X111152566Y-111696775D01*
X111469491Y-111485013D01*
X111739013Y-111215491D01*
X111950775Y-110898566D01*
X112096639Y-110546419D01*
X112171000Y-110172581D01*
X112171000Y-109791419D01*
X113301000Y-109791419D01*
X113301000Y-110172581D01*
X113375361Y-110546419D01*
X113521225Y-110898566D01*
X113732987Y-111215491D01*
X114002509Y-111485013D01*
X114319434Y-111696775D01*
X114671581Y-111842639D01*
X115045419Y-111917000D01*
X115426581Y-111917000D01*
X115800419Y-111842639D01*
X116152566Y-111696775D01*
X116469491Y-111485013D01*
X116739013Y-111215491D01*
X116950775Y-110898566D01*
X117096639Y-110546419D01*
X117171000Y-110172581D01*
X117171000Y-109791419D01*
X117096639Y-109417581D01*
X116950775Y-109065434D01*
X116739013Y-108748509D01*
X116469491Y-108478987D01*
X116152566Y-108267225D01*
X115800419Y-108121361D01*
X115426581Y-108047000D01*
X115045419Y-108047000D01*
X114671581Y-108121361D01*
X114319434Y-108267225D01*
X114002509Y-108478987D01*
X113732987Y-108748509D01*
X113521225Y-109065434D01*
X113375361Y-109417581D01*
X113301000Y-109791419D01*
X112171000Y-109791419D01*
X112096639Y-109417581D01*
X111950775Y-109065434D01*
X111739013Y-108748509D01*
X111469491Y-108478987D01*
X111152566Y-108267225D01*
X110800419Y-108121361D01*
X110426581Y-108047000D01*
X110045419Y-108047000D01*
X109671581Y-108121361D01*
X109319434Y-108267225D01*
X109002509Y-108478987D01*
X108732987Y-108748509D01*
X108521225Y-109065434D01*
X108375361Y-109417581D01*
X108301000Y-109791419D01*
X100711000Y-109791419D01*
X100711000Y-101180000D01*
X120177928Y-101180000D01*
X120190188Y-101304482D01*
X120226498Y-101424180D01*
X120285463Y-101534494D01*
X120364815Y-101631185D01*
X120461506Y-101710537D01*
X120571820Y-101769502D01*
X120691518Y-101805812D01*
X120816000Y-101818072D01*
X121380250Y-101815000D01*
X121539000Y-101656250D01*
X121539000Y-100457000D01*
X121793000Y-100457000D01*
X121793000Y-101656250D01*
X121951750Y-101815000D01*
X122516000Y-101818072D01*
X122640482Y-101805812D01*
X122760180Y-101769502D01*
X122870494Y-101710537D01*
X122927907Y-101663419D01*
X126843000Y-101663419D01*
X126843000Y-102044581D01*
X126917361Y-102418419D01*
X127063225Y-102770566D01*
X127274987Y-103087491D01*
X127544509Y-103357013D01*
X127861434Y-103568775D01*
X128213581Y-103714639D01*
X128587419Y-103789000D01*
X128968581Y-103789000D01*
X129342419Y-103714639D01*
X129694566Y-103568775D01*
X130011491Y-103357013D01*
X130281013Y-103087491D01*
X130492775Y-102770566D01*
X130638639Y-102418419D01*
X130713000Y-102044581D01*
X130713000Y-101663419D01*
X130638639Y-101289581D01*
X130492775Y-100937434D01*
X130281013Y-100620509D01*
X130011491Y-100350987D01*
X129694566Y-100139225D01*
X129342419Y-99993361D01*
X128968581Y-99919000D01*
X128587419Y-99919000D01*
X128213581Y-99993361D01*
X127861434Y-100139225D01*
X127544509Y-100350987D01*
X127274987Y-100620509D01*
X127063225Y-100937434D01*
X126917361Y-101289581D01*
X126843000Y-101663419D01*
X122927907Y-101663419D01*
X122967185Y-101631185D01*
X123046537Y-101534494D01*
X123105502Y-101424180D01*
X123141812Y-101304482D01*
X123154072Y-101180000D01*
X123151000Y-100615750D01*
X122992250Y-100457000D01*
X121793000Y-100457000D01*
X121539000Y-100457000D01*
X120339750Y-100457000D01*
X120181000Y-100615750D01*
X120177928Y-101180000D01*
X100711000Y-101180000D01*
X100711000Y-99480000D01*
X120177928Y-99480000D01*
X120181000Y-100044250D01*
X120339750Y-100203000D01*
X121539000Y-100203000D01*
X121539000Y-100183000D01*
X121793000Y-100183000D01*
X121793000Y-100203000D01*
X122992250Y-100203000D01*
X123151000Y-100044250D01*
X123154072Y-99480000D01*
X123141812Y-99355518D01*
X123105502Y-99235820D01*
X123046537Y-99125506D01*
X122967185Y-99028815D01*
X122870494Y-98949463D01*
X122760180Y-98890498D01*
X122687620Y-98868487D01*
X122819475Y-98736632D01*
X122981990Y-98493411D01*
X123093932Y-98223158D01*
X123151000Y-97936260D01*
X123151000Y-97643740D01*
X123093932Y-97356842D01*
X122981990Y-97086589D01*
X122819475Y-96843368D01*
X122639526Y-96663419D01*
X126843000Y-96663419D01*
X126843000Y-97044581D01*
X126917361Y-97418419D01*
X127063225Y-97770566D01*
X127274987Y-98087491D01*
X127544509Y-98357013D01*
X127861434Y-98568775D01*
X128213581Y-98714639D01*
X128587419Y-98789000D01*
X128968581Y-98789000D01*
X129342419Y-98714639D01*
X129694566Y-98568775D01*
X130011491Y-98357013D01*
X130281013Y-98087491D01*
X130492775Y-97770566D01*
X130638639Y-97418419D01*
X130713000Y-97044581D01*
X130713000Y-96663419D01*
X130638639Y-96289581D01*
X130492775Y-95937434D01*
X130281013Y-95620509D01*
X130011491Y-95350987D01*
X129694566Y-95139225D01*
X129342419Y-94993361D01*
X128968581Y-94919000D01*
X128587419Y-94919000D01*
X128213581Y-94993361D01*
X127861434Y-95139225D01*
X127544509Y-95350987D01*
X127274987Y-95620509D01*
X127063225Y-95937434D01*
X126917361Y-96289581D01*
X126843000Y-96663419D01*
X122639526Y-96663419D01*
X122612632Y-96636525D01*
X122369411Y-96474010D01*
X122099158Y-96362068D01*
X121812260Y-96305000D01*
X121519740Y-96305000D01*
X121232842Y-96362068D01*
X120962589Y-96474010D01*
X120719368Y-96636525D01*
X120512525Y-96843368D01*
X120350010Y-97086589D01*
X120238068Y-97356842D01*
X120181000Y-97643740D01*
X120181000Y-97936260D01*
X120238068Y-98223158D01*
X120350010Y-98493411D01*
X120512525Y-98736632D01*
X120644380Y-98868487D01*
X120571820Y-98890498D01*
X120461506Y-98949463D01*
X120364815Y-99028815D01*
X120285463Y-99125506D01*
X120226498Y-99235820D01*
X120190188Y-99355518D01*
X120177928Y-99480000D01*
X100711000Y-99480000D01*
X100711000Y-96100000D01*
X110271928Y-96100000D01*
X110284188Y-96224482D01*
X110320498Y-96344180D01*
X110379463Y-96454494D01*
X110458815Y-96551185D01*
X110555506Y-96630537D01*
X110665820Y-96689502D01*
X110738380Y-96711513D01*
X110606525Y-96843368D01*
X110444010Y-97086589D01*
X110332068Y-97356842D01*
X110275000Y-97643740D01*
X110275000Y-97936260D01*
X110332068Y-98223158D01*
X110444010Y-98493411D01*
X110606525Y-98736632D01*
X110813368Y-98943475D01*
X111056589Y-99105990D01*
X111326842Y-99217932D01*
X111613740Y-99275000D01*
X111906260Y-99275000D01*
X112193158Y-99217932D01*
X112463411Y-99105990D01*
X112706632Y-98943475D01*
X112913475Y-98736632D01*
X113075990Y-98493411D01*
X113187932Y-98223158D01*
X113245000Y-97936260D01*
X113245000Y-97643740D01*
X113187932Y-97356842D01*
X113075990Y-97086589D01*
X112913475Y-96843368D01*
X112781620Y-96711513D01*
X112854180Y-96689502D01*
X112964494Y-96630537D01*
X113061185Y-96551185D01*
X113140537Y-96454494D01*
X113199502Y-96344180D01*
X113235812Y-96224482D01*
X113248072Y-96100000D01*
X113245000Y-95535750D01*
X113086250Y-95377000D01*
X111887000Y-95377000D01*
X111887000Y-95397000D01*
X111633000Y-95397000D01*
X111633000Y-95377000D01*
X110433750Y-95377000D01*
X110275000Y-95535750D01*
X110271928Y-96100000D01*
X100711000Y-96100000D01*
X100711000Y-94400000D01*
X110271928Y-94400000D01*
X110275000Y-94964250D01*
X110433750Y-95123000D01*
X111633000Y-95123000D01*
X111633000Y-93923750D01*
X111887000Y-93923750D01*
X111887000Y-95123000D01*
X112629789Y-95123000D01*
X112701820Y-95161502D01*
X112821518Y-95197812D01*
X112946000Y-95210072D01*
X115146000Y-95210072D01*
X115270482Y-95197812D01*
X115390180Y-95161502D01*
X115500494Y-95102537D01*
X115597185Y-95023185D01*
X115676537Y-94926494D01*
X115735502Y-94816180D01*
X115771812Y-94696482D01*
X115784072Y-94572000D01*
X115784072Y-93868122D01*
X122516825Y-93868122D01*
X122581425Y-94081094D01*
X122731469Y-94386329D01*
X122938178Y-94656427D01*
X123193609Y-94881008D01*
X123487946Y-95051442D01*
X123809877Y-95161179D01*
X124079000Y-95043600D01*
X124079000Y-93599000D01*
X124333000Y-93599000D01*
X124333000Y-95043600D01*
X124602123Y-95161179D01*
X124924054Y-95051442D01*
X125218391Y-94881008D01*
X125473822Y-94656427D01*
X125680531Y-94386329D01*
X125830575Y-94081094D01*
X125895175Y-93868122D01*
X125777125Y-93599000D01*
X124333000Y-93599000D01*
X124079000Y-93599000D01*
X122634875Y-93599000D01*
X122516825Y-93868122D01*
X115784072Y-93868122D01*
X115784072Y-93075878D01*
X122516825Y-93075878D01*
X122634875Y-93345000D01*
X124079000Y-93345000D01*
X124079000Y-91900400D01*
X124333000Y-91900400D01*
X124333000Y-93345000D01*
X125777125Y-93345000D01*
X125895175Y-93075878D01*
X125830575Y-92862906D01*
X125680531Y-92557671D01*
X125473822Y-92287573D01*
X125218391Y-92062992D01*
X124924054Y-91892558D01*
X124602123Y-91782821D01*
X124333000Y-91900400D01*
X124079000Y-91900400D01*
X123809877Y-91782821D01*
X123487946Y-91892558D01*
X123193609Y-92062992D01*
X122938178Y-92287573D01*
X122731469Y-92557671D01*
X122581425Y-92862906D01*
X122516825Y-93075878D01*
X115784072Y-93075878D01*
X115784072Y-92372000D01*
X115771812Y-92247518D01*
X115735502Y-92127820D01*
X115676537Y-92017506D01*
X115597185Y-91920815D01*
X115500494Y-91841463D01*
X115390180Y-91782498D01*
X115270482Y-91746188D01*
X115146000Y-91733928D01*
X112946000Y-91733928D01*
X112821518Y-91746188D01*
X112701820Y-91782498D01*
X112591506Y-91841463D01*
X112494815Y-91920815D01*
X112415463Y-92017506D01*
X112356498Y-92127820D01*
X112320188Y-92247518D01*
X112307928Y-92372000D01*
X112307928Y-93763573D01*
X112045750Y-93765000D01*
X111887000Y-93923750D01*
X111633000Y-93923750D01*
X111474250Y-93765000D01*
X110910000Y-93761928D01*
X110785518Y-93774188D01*
X110665820Y-93810498D01*
X110555506Y-93869463D01*
X110458815Y-93948815D01*
X110379463Y-94045506D01*
X110320498Y-94155820D01*
X110284188Y-94275518D01*
X110271928Y-94400000D01*
X100711000Y-94400000D01*
X100711000Y-88569000D01*
X156337000Y-88569000D01*
X156337000Y-132207000D01*
%TA.AperFunction,Conductor*%
D31*
G36*
X156337000Y-132207000D02*
G01*
X103923842Y-132207000D01*
X103945589Y-132166313D01*
X103996195Y-131999490D01*
X104009000Y-131869477D01*
X104009000Y-131869467D01*
X104013281Y-131826001D01*
X104009000Y-131782534D01*
X104009000Y-127649980D01*
X109137626Y-127649980D01*
X109257514Y-127934836D01*
X109581210Y-128095699D01*
X109930069Y-128190322D01*
X110290684Y-128215067D01*
X110649198Y-128168985D01*
X110991833Y-128053846D01*
X111214486Y-127934836D01*
X111334374Y-127649980D01*
X110236000Y-126551605D01*
X109137626Y-127649980D01*
X104009000Y-127649980D01*
X104009000Y-126426684D01*
X108392933Y-126426684D01*
X108439015Y-126785198D01*
X108554154Y-127127833D01*
X108673164Y-127350486D01*
X108958020Y-127470374D01*
X110056395Y-126372000D01*
X110415605Y-126372000D01*
X111513980Y-127470374D01*
X111798836Y-127350486D01*
X111959699Y-127026790D01*
X112054322Y-126677931D01*
X112079067Y-126317316D01*
X112032985Y-125958802D01*
X111917846Y-125616167D01*
X111798836Y-125393514D01*
X111513980Y-125273626D01*
X110415605Y-126372000D01*
X110056395Y-126372000D01*
X108958020Y-125273626D01*
X108673164Y-125393514D01*
X108512301Y-125717210D01*
X108417678Y-126066069D01*
X108392933Y-126426684D01*
X104009000Y-126426684D01*
X104009000Y-125094020D01*
X109137626Y-125094020D01*
X110236000Y-126192395D01*
X111334374Y-125094020D01*
X111214486Y-124809164D01*
X110890790Y-124648301D01*
X110541931Y-124553678D01*
X110181316Y-124528933D01*
X109822802Y-124575015D01*
X109480167Y-124690154D01*
X109257514Y-124809164D01*
X109137626Y-125094020D01*
X104009000Y-125094020D01*
X104009000Y-120439465D01*
X104013281Y-120395999D01*
X104009000Y-120352533D01*
X104009000Y-120352523D01*
X103996195Y-120222510D01*
X103945589Y-120055687D01*
X103863411Y-119901941D01*
X103752817Y-119767183D01*
X103719049Y-119739470D01*
X101651579Y-117672000D01*
X108397928Y-117672000D01*
X108397928Y-120072000D01*
X108410188Y-120196482D01*
X108446498Y-120316180D01*
X108505463Y-120426494D01*
X108584815Y-120523185D01*
X108681506Y-120602537D01*
X108791820Y-120661502D01*
X108911518Y-120697812D01*
X109036000Y-120710072D01*
X111436000Y-120710072D01*
X111560482Y-120697812D01*
X111680180Y-120661502D01*
X111790494Y-120602537D01*
X111887185Y-120523185D01*
X111966537Y-120426494D01*
X112025502Y-120316180D01*
X112061812Y-120196482D01*
X112074072Y-120072000D01*
X112074072Y-117672000D01*
X112061812Y-117547518D01*
X112025502Y-117427820D01*
X111966537Y-117317506D01*
X111887185Y-117220815D01*
X111790494Y-117141463D01*
X111680180Y-117082498D01*
X111560482Y-117046188D01*
X111436000Y-117033928D01*
X109036000Y-117033928D01*
X108911518Y-117046188D01*
X108791820Y-117082498D01*
X108681506Y-117141463D01*
X108584815Y-117220815D01*
X108505463Y-117317506D01*
X108446498Y-117427820D01*
X108410188Y-117547518D01*
X108397928Y-117672000D01*
X101651579Y-117672000D01*
X100711000Y-116731421D01*
X100711000Y-114896000D01*
X103667928Y-114896000D01*
X103680188Y-115020482D01*
X103716498Y-115140180D01*
X103775463Y-115250494D01*
X103854815Y-115347185D01*
X103951506Y-115426537D01*
X104061820Y-115485502D01*
X104181518Y-115521812D01*
X104306000Y-115534072D01*
X104870250Y-115531000D01*
X105029000Y-115372250D01*
X105029000Y-114173000D01*
X105283000Y-114173000D01*
X105283000Y-115372250D01*
X105441750Y-115531000D01*
X106006000Y-115534072D01*
X106130482Y-115521812D01*
X106250180Y-115485502D01*
X106360494Y-115426537D01*
X106457185Y-115347185D01*
X106536537Y-115250494D01*
X106595502Y-115140180D01*
X106631812Y-115020482D01*
X106644072Y-114896000D01*
X106641000Y-114331750D01*
X106482250Y-114173000D01*
X105283000Y-114173000D01*
X105029000Y-114173000D01*
X103829750Y-114173000D01*
X103671000Y-114331750D01*
X103667928Y-114896000D01*
X100711000Y-114896000D01*
X100711000Y-113196000D01*
X103667928Y-113196000D01*
X103671000Y-113760250D01*
X103829750Y-113919000D01*
X105029000Y-113919000D01*
X105029000Y-113899000D01*
X105283000Y-113899000D01*
X105283000Y-113919000D01*
X106482250Y-113919000D01*
X106641000Y-113760250D01*
X106644072Y-113196000D01*
X106631812Y-113071518D01*
X106595502Y-112951820D01*
X106536537Y-112841506D01*
X106457185Y-112744815D01*
X106360494Y-112665463D01*
X106250180Y-112606498D01*
X106177620Y-112584487D01*
X106240107Y-112522000D01*
X117221000Y-112522000D01*
X117221000Y-129794000D01*
X117223440Y-129818776D01*
X117230667Y-129842601D01*
X117242403Y-129864557D01*
X117258197Y-129883803D01*
X117277443Y-129899597D01*
X117299399Y-129911333D01*
X117323224Y-129918560D01*
X117348000Y-129921000D01*
X129540000Y-129921000D01*
X129564776Y-129918560D01*
X129588601Y-129911333D01*
X129610557Y-129899597D01*
X129629803Y-129883803D01*
X129645597Y-129864557D01*
X129657333Y-129842601D01*
X129664560Y-129818776D01*
X129667000Y-129794000D01*
X129667000Y-124626000D01*
X134655928Y-124626000D01*
X134655928Y-126326000D01*
X134668188Y-126450482D01*
X134704498Y-126570180D01*
X134763463Y-126680494D01*
X134842815Y-126777185D01*
X134939506Y-126856537D01*
X135049820Y-126915502D01*
X135169518Y-126951812D01*
X135294000Y-126964072D01*
X136994000Y-126964072D01*
X137118482Y-126951812D01*
X137238180Y-126915502D01*
X137348494Y-126856537D01*
X137445185Y-126777185D01*
X137524537Y-126680494D01*
X137583502Y-126570180D01*
X137605513Y-126497620D01*
X137737368Y-126629475D01*
X137980589Y-126791990D01*
X138250842Y-126903932D01*
X138537740Y-126961000D01*
X138830260Y-126961000D01*
X139117158Y-126903932D01*
X139387411Y-126791990D01*
X139630632Y-126629475D01*
X139837475Y-126422632D01*
X139954000Y-126248240D01*
X140070525Y-126422632D01*
X140277368Y-126629475D01*
X140520589Y-126791990D01*
X140790842Y-126903932D01*
X141077740Y-126961000D01*
X141370260Y-126961000D01*
X141657158Y-126903932D01*
X141927411Y-126791990D01*
X142170632Y-126629475D01*
X142377475Y-126422632D01*
X142494000Y-126248240D01*
X142610525Y-126422632D01*
X142817368Y-126629475D01*
X143060589Y-126791990D01*
X143330842Y-126903932D01*
X143617740Y-126961000D01*
X143910260Y-126961000D01*
X144197158Y-126903932D01*
X144467411Y-126791990D01*
X144710632Y-126629475D01*
X144917475Y-126422632D01*
X145034000Y-126248240D01*
X145150525Y-126422632D01*
X145357368Y-126629475D01*
X145600589Y-126791990D01*
X145870842Y-126903932D01*
X146157740Y-126961000D01*
X146450260Y-126961000D01*
X146737158Y-126903932D01*
X147007411Y-126791990D01*
X147250632Y-126629475D01*
X147457475Y-126422632D01*
X147579195Y-126240466D01*
X147648822Y-126357355D01*
X147843731Y-126573588D01*
X148077080Y-126747641D01*
X148339901Y-126872825D01*
X148487110Y-126917476D01*
X148717000Y-126796155D01*
X148717000Y-125603000D01*
X148971000Y-125603000D01*
X148971000Y-126796155D01*
X149200890Y-126917476D01*
X149348099Y-126872825D01*
X149610920Y-126747641D01*
X149844269Y-126573588D01*
X150039178Y-126357355D01*
X150188157Y-126107252D01*
X150285481Y-125832891D01*
X150164814Y-125603000D01*
X148971000Y-125603000D01*
X148717000Y-125603000D01*
X148697000Y-125603000D01*
X148697000Y-125349000D01*
X148717000Y-125349000D01*
X148717000Y-124155845D01*
X148971000Y-124155845D01*
X148971000Y-125349000D01*
X150164814Y-125349000D01*
X150285481Y-125119109D01*
X150188157Y-124844748D01*
X150039178Y-124594645D01*
X149844269Y-124378412D01*
X149610920Y-124204359D01*
X149348099Y-124079175D01*
X149200890Y-124034524D01*
X148971000Y-124155845D01*
X148717000Y-124155845D01*
X148487110Y-124034524D01*
X148339901Y-124079175D01*
X148077080Y-124204359D01*
X147843731Y-124378412D01*
X147648822Y-124594645D01*
X147579195Y-124711534D01*
X147457475Y-124529368D01*
X147250632Y-124322525D01*
X147007411Y-124160010D01*
X146737158Y-124048068D01*
X146450260Y-123991000D01*
X146157740Y-123991000D01*
X145870842Y-124048068D01*
X145600589Y-124160010D01*
X145357368Y-124322525D01*
X145150525Y-124529368D01*
X145034000Y-124703760D01*
X144917475Y-124529368D01*
X144710632Y-124322525D01*
X144467411Y-124160010D01*
X144197158Y-124048068D01*
X143910260Y-123991000D01*
X143617740Y-123991000D01*
X143330842Y-124048068D01*
X143060589Y-124160010D01*
X142817368Y-124322525D01*
X142610525Y-124529368D01*
X142494000Y-124703760D01*
X142377475Y-124529368D01*
X142170632Y-124322525D01*
X141927411Y-124160010D01*
X141657158Y-124048068D01*
X141370260Y-123991000D01*
X141077740Y-123991000D01*
X140790842Y-124048068D01*
X140520589Y-124160010D01*
X140277368Y-124322525D01*
X140070525Y-124529368D01*
X139954000Y-124703760D01*
X139837475Y-124529368D01*
X139630632Y-124322525D01*
X139387411Y-124160010D01*
X139117158Y-124048068D01*
X138830260Y-123991000D01*
X138537740Y-123991000D01*
X138250842Y-124048068D01*
X137980589Y-124160010D01*
X137737368Y-124322525D01*
X137605513Y-124454380D01*
X137583502Y-124381820D01*
X137524537Y-124271506D01*
X137445185Y-124174815D01*
X137348494Y-124095463D01*
X137238180Y-124036498D01*
X137118482Y-124000188D01*
X136994000Y-123987928D01*
X135294000Y-123987928D01*
X135169518Y-124000188D01*
X135049820Y-124036498D01*
X134939506Y-124095463D01*
X134842815Y-124174815D01*
X134763463Y-124271506D01*
X134704498Y-124381820D01*
X134668188Y-124501518D01*
X134655928Y-124626000D01*
X129667000Y-124626000D01*
X129667000Y-122587269D01*
X132862336Y-122587269D01*
X132921797Y-122821037D01*
X133160242Y-122931934D01*
X133415740Y-122994183D01*
X133678473Y-123005390D01*
X133938344Y-122965125D01*
X134185366Y-122874935D01*
X134286203Y-122821037D01*
X134345664Y-122587269D01*
X137434336Y-122587269D01*
X137493797Y-122821037D01*
X137732242Y-122931934D01*
X137987740Y-122994183D01*
X138250473Y-123005390D01*
X138510344Y-122965125D01*
X138757366Y-122874935D01*
X138858203Y-122821037D01*
X138917664Y-122587269D01*
X142006336Y-122587269D01*
X142065797Y-122821037D01*
X142304242Y-122931934D01*
X142559740Y-122994183D01*
X142822473Y-123005390D01*
X143082344Y-122965125D01*
X143329366Y-122874935D01*
X143430203Y-122821037D01*
X143489664Y-122587269D01*
X146578336Y-122587269D01*
X146637797Y-122821037D01*
X146876242Y-122931934D01*
X147131740Y-122994183D01*
X147394473Y-123005390D01*
X147654344Y-122965125D01*
X147901366Y-122874935D01*
X148002203Y-122821037D01*
X148061664Y-122587269D01*
X151150336Y-122587269D01*
X151209797Y-122821037D01*
X151448242Y-122931934D01*
X151703740Y-122994183D01*
X151966473Y-123005390D01*
X152226344Y-122965125D01*
X152473366Y-122874935D01*
X152574203Y-122821037D01*
X152633664Y-122587269D01*
X151892000Y-121845605D01*
X151150336Y-122587269D01*
X148061664Y-122587269D01*
X147320000Y-121845605D01*
X146578336Y-122587269D01*
X143489664Y-122587269D01*
X142748000Y-121845605D01*
X142006336Y-122587269D01*
X138917664Y-122587269D01*
X138176000Y-121845605D01*
X137434336Y-122587269D01*
X134345664Y-122587269D01*
X133604000Y-121845605D01*
X132862336Y-122587269D01*
X129667000Y-122587269D01*
X129667000Y-121740473D01*
X132264610Y-121740473D01*
X132304875Y-122000344D01*
X132395065Y-122247366D01*
X132448963Y-122348203D01*
X132682731Y-122407664D01*
X133424395Y-121666000D01*
X133783605Y-121666000D01*
X134525269Y-122407664D01*
X134759037Y-122348203D01*
X134869934Y-122109758D01*
X134932183Y-121854260D01*
X134937036Y-121740473D01*
X136836610Y-121740473D01*
X136876875Y-122000344D01*
X136967065Y-122247366D01*
X137020963Y-122348203D01*
X137254731Y-122407664D01*
X137996395Y-121666000D01*
X138355605Y-121666000D01*
X139097269Y-122407664D01*
X139331037Y-122348203D01*
X139441934Y-122109758D01*
X139504183Y-121854260D01*
X139509036Y-121740473D01*
X141408610Y-121740473D01*
X141448875Y-122000344D01*
X141539065Y-122247366D01*
X141592963Y-122348203D01*
X141826731Y-122407664D01*
X142568395Y-121666000D01*
X142927605Y-121666000D01*
X143669269Y-122407664D01*
X143903037Y-122348203D01*
X144013934Y-122109758D01*
X144076183Y-121854260D01*
X144081036Y-121740473D01*
X145980610Y-121740473D01*
X146020875Y-122000344D01*
X146111065Y-122247366D01*
X146164963Y-122348203D01*
X146398731Y-122407664D01*
X147140395Y-121666000D01*
X147499605Y-121666000D01*
X148241269Y-122407664D01*
X148475037Y-122348203D01*
X148585934Y-122109758D01*
X148648183Y-121854260D01*
X148653036Y-121740473D01*
X150552610Y-121740473D01*
X150592875Y-122000344D01*
X150683065Y-122247366D01*
X150736963Y-122348203D01*
X150970731Y-122407664D01*
X151712395Y-121666000D01*
X152071605Y-121666000D01*
X152813269Y-122407664D01*
X153047037Y-122348203D01*
X153157934Y-122109758D01*
X153220183Y-121854260D01*
X153231390Y-121591527D01*
X153191125Y-121331656D01*
X153100935Y-121084634D01*
X153047037Y-120983797D01*
X152813269Y-120924336D01*
X152071605Y-121666000D01*
X151712395Y-121666000D01*
X150970731Y-120924336D01*
X150736963Y-120983797D01*
X150626066Y-121222242D01*
X150563817Y-121477740D01*
X150552610Y-121740473D01*
X148653036Y-121740473D01*
X148659390Y-121591527D01*
X148619125Y-121331656D01*
X148528935Y-121084634D01*
X148475037Y-120983797D01*
X148241269Y-120924336D01*
X147499605Y-121666000D01*
X147140395Y-121666000D01*
X146398731Y-120924336D01*
X146164963Y-120983797D01*
X146054066Y-121222242D01*
X145991817Y-121477740D01*
X145980610Y-121740473D01*
X144081036Y-121740473D01*
X144087390Y-121591527D01*
X144047125Y-121331656D01*
X143956935Y-121084634D01*
X143903037Y-120983797D01*
X143669269Y-120924336D01*
X142927605Y-121666000D01*
X142568395Y-121666000D01*
X141826731Y-120924336D01*
X141592963Y-120983797D01*
X141482066Y-121222242D01*
X141419817Y-121477740D01*
X141408610Y-121740473D01*
X139509036Y-121740473D01*
X139515390Y-121591527D01*
X139475125Y-121331656D01*
X139384935Y-121084634D01*
X139331037Y-120983797D01*
X139097269Y-120924336D01*
X138355605Y-121666000D01*
X137996395Y-121666000D01*
X137254731Y-120924336D01*
X137020963Y-120983797D01*
X136910066Y-121222242D01*
X136847817Y-121477740D01*
X136836610Y-121740473D01*
X134937036Y-121740473D01*
X134943390Y-121591527D01*
X134903125Y-121331656D01*
X134812935Y-121084634D01*
X134759037Y-120983797D01*
X134525269Y-120924336D01*
X133783605Y-121666000D01*
X133424395Y-121666000D01*
X132682731Y-120924336D01*
X132448963Y-120983797D01*
X132338066Y-121222242D01*
X132275817Y-121477740D01*
X132264610Y-121740473D01*
X129667000Y-121740473D01*
X129667000Y-120744731D01*
X132862336Y-120744731D01*
X133604000Y-121486395D01*
X134345664Y-120744731D01*
X137434336Y-120744731D01*
X138176000Y-121486395D01*
X138917664Y-120744731D01*
X142006336Y-120744731D01*
X142748000Y-121486395D01*
X143489664Y-120744731D01*
X146578336Y-120744731D01*
X147320000Y-121486395D01*
X148061664Y-120744731D01*
X151150336Y-120744731D01*
X151892000Y-121486395D01*
X152633664Y-120744731D01*
X152574203Y-120510963D01*
X152335758Y-120400066D01*
X152080260Y-120337817D01*
X151817527Y-120326610D01*
X151557656Y-120366875D01*
X151310634Y-120457065D01*
X151209797Y-120510963D01*
X151150336Y-120744731D01*
X148061664Y-120744731D01*
X148002203Y-120510963D01*
X147763758Y-120400066D01*
X147508260Y-120337817D01*
X147245527Y-120326610D01*
X146985656Y-120366875D01*
X146738634Y-120457065D01*
X146637797Y-120510963D01*
X146578336Y-120744731D01*
X143489664Y-120744731D01*
X143430203Y-120510963D01*
X143191758Y-120400066D01*
X142936260Y-120337817D01*
X142673527Y-120326610D01*
X142413656Y-120366875D01*
X142166634Y-120457065D01*
X142065797Y-120510963D01*
X142006336Y-120744731D01*
X138917664Y-120744731D01*
X138858203Y-120510963D01*
X138619758Y-120400066D01*
X138364260Y-120337817D01*
X138101527Y-120326610D01*
X137841656Y-120366875D01*
X137594634Y-120457065D01*
X137493797Y-120510963D01*
X137434336Y-120744731D01*
X134345664Y-120744731D01*
X134286203Y-120510963D01*
X134047758Y-120400066D01*
X133792260Y-120337817D01*
X133529527Y-120326610D01*
X133269656Y-120366875D01*
X133022634Y-120457065D01*
X132921797Y-120510963D01*
X132862336Y-120744731D01*
X129667000Y-120744731D01*
X129667000Y-119586824D01*
X129706518Y-119598812D01*
X129831000Y-119611072D01*
X130270250Y-119608000D01*
X130429000Y-119449250D01*
X130429000Y-118512500D01*
X130683000Y-118512500D01*
X130683000Y-119449250D01*
X130841750Y-119608000D01*
X131281000Y-119611072D01*
X131405482Y-119598812D01*
X131525180Y-119562502D01*
X131635494Y-119503537D01*
X131732185Y-119424185D01*
X131811537Y-119327494D01*
X131870502Y-119217180D01*
X131906812Y-119097482D01*
X131919072Y-118973000D01*
X131916000Y-118671250D01*
X131757250Y-118512500D01*
X130683000Y-118512500D01*
X130429000Y-118512500D01*
X130409000Y-118512500D01*
X130409000Y-118258500D01*
X130429000Y-118258500D01*
X130429000Y-118238500D01*
X130683000Y-118238500D01*
X130683000Y-118258500D01*
X131757250Y-118258500D01*
X131916000Y-118099750D01*
X131919072Y-117798000D01*
X131911835Y-117724514D01*
X132269000Y-117724514D01*
X132269000Y-117987486D01*
X132320304Y-118245405D01*
X132420939Y-118488359D01*
X132567038Y-118707013D01*
X132752987Y-118892962D01*
X132971641Y-119039061D01*
X133214595Y-119139696D01*
X133472514Y-119191000D01*
X133735486Y-119191000D01*
X133993405Y-119139696D01*
X134236359Y-119039061D01*
X134455013Y-118892962D01*
X134640962Y-118707013D01*
X134787061Y-118488359D01*
X134887696Y-118245405D01*
X134939000Y-117987486D01*
X134939000Y-117724514D01*
X136841000Y-117724514D01*
X136841000Y-117987486D01*
X136892304Y-118245405D01*
X136992939Y-118488359D01*
X137139038Y-118707013D01*
X137324987Y-118892962D01*
X137543641Y-119039061D01*
X137786595Y-119139696D01*
X138044514Y-119191000D01*
X138307486Y-119191000D01*
X138565405Y-119139696D01*
X138808359Y-119039061D01*
X139027013Y-118892962D01*
X139212962Y-118707013D01*
X139359061Y-118488359D01*
X139459696Y-118245405D01*
X139511000Y-117987486D01*
X139511000Y-117724514D01*
X141413000Y-117724514D01*
X141413000Y-117987486D01*
X141464304Y-118245405D01*
X141564939Y-118488359D01*
X141711038Y-118707013D01*
X141896987Y-118892962D01*
X142115641Y-119039061D01*
X142358595Y-119139696D01*
X142616514Y-119191000D01*
X142879486Y-119191000D01*
X143137405Y-119139696D01*
X143380359Y-119039061D01*
X143599013Y-118892962D01*
X143784962Y-118707013D01*
X143931061Y-118488359D01*
X144031696Y-118245405D01*
X144083000Y-117987486D01*
X144083000Y-117724514D01*
X145985000Y-117724514D01*
X145985000Y-117987486D01*
X146036304Y-118245405D01*
X146136939Y-118488359D01*
X146283038Y-118707013D01*
X146468987Y-118892962D01*
X146687641Y-119039061D01*
X146930595Y-119139696D01*
X147188514Y-119191000D01*
X147451486Y-119191000D01*
X147709405Y-119139696D01*
X147952359Y-119039061D01*
X148171013Y-118892962D01*
X148356962Y-118707013D01*
X148503061Y-118488359D01*
X148603696Y-118245405D01*
X148655000Y-117987486D01*
X148655000Y-117724514D01*
X150557000Y-117724514D01*
X150557000Y-117987486D01*
X150608304Y-118245405D01*
X150708939Y-118488359D01*
X150855038Y-118707013D01*
X151040987Y-118892962D01*
X151259641Y-119039061D01*
X151502595Y-119139696D01*
X151760514Y-119191000D01*
X152023486Y-119191000D01*
X152281405Y-119139696D01*
X152524359Y-119039061D01*
X152743013Y-118892962D01*
X152928962Y-118707013D01*
X153075061Y-118488359D01*
X153175696Y-118245405D01*
X153227000Y-117987486D01*
X153227000Y-117724514D01*
X153175696Y-117466595D01*
X153075061Y-117223641D01*
X152928962Y-117004987D01*
X152743013Y-116819038D01*
X152524359Y-116672939D01*
X152281405Y-116572304D01*
X152023486Y-116521000D01*
X151760514Y-116521000D01*
X151502595Y-116572304D01*
X151259641Y-116672939D01*
X151040987Y-116819038D01*
X150855038Y-117004987D01*
X150708939Y-117223641D01*
X150608304Y-117466595D01*
X150557000Y-117724514D01*
X148655000Y-117724514D01*
X148603696Y-117466595D01*
X148503061Y-117223641D01*
X148356962Y-117004987D01*
X148171013Y-116819038D01*
X147952359Y-116672939D01*
X147709405Y-116572304D01*
X147451486Y-116521000D01*
X147188514Y-116521000D01*
X146930595Y-116572304D01*
X146687641Y-116672939D01*
X146468987Y-116819038D01*
X146283038Y-117004987D01*
X146136939Y-117223641D01*
X146036304Y-117466595D01*
X145985000Y-117724514D01*
X144083000Y-117724514D01*
X144031696Y-117466595D01*
X143931061Y-117223641D01*
X143784962Y-117004987D01*
X143599013Y-116819038D01*
X143380359Y-116672939D01*
X143137405Y-116572304D01*
X142879486Y-116521000D01*
X142616514Y-116521000D01*
X142358595Y-116572304D01*
X142115641Y-116672939D01*
X141896987Y-116819038D01*
X141711038Y-117004987D01*
X141564939Y-117223641D01*
X141464304Y-117466595D01*
X141413000Y-117724514D01*
X139511000Y-117724514D01*
X139459696Y-117466595D01*
X139359061Y-117223641D01*
X139212962Y-117004987D01*
X139027013Y-116819038D01*
X138808359Y-116672939D01*
X138565405Y-116572304D01*
X138307486Y-116521000D01*
X138044514Y-116521000D01*
X137786595Y-116572304D01*
X137543641Y-116672939D01*
X137324987Y-116819038D01*
X137139038Y-117004987D01*
X136992939Y-117223641D01*
X136892304Y-117466595D01*
X136841000Y-117724514D01*
X134939000Y-117724514D01*
X134887696Y-117466595D01*
X134787061Y-117223641D01*
X134640962Y-117004987D01*
X134455013Y-116819038D01*
X134236359Y-116672939D01*
X133993405Y-116572304D01*
X133735486Y-116521000D01*
X133472514Y-116521000D01*
X133214595Y-116572304D01*
X132971641Y-116672939D01*
X132752987Y-116819038D01*
X132567038Y-117004987D01*
X132420939Y-117223641D01*
X132320304Y-117466595D01*
X132269000Y-117724514D01*
X131911835Y-117724514D01*
X131906812Y-117673518D01*
X131870502Y-117553820D01*
X131811537Y-117443506D01*
X131732185Y-117346815D01*
X131652406Y-117281342D01*
X131658962Y-117275962D01*
X131769405Y-117141386D01*
X131851472Y-116987850D01*
X131902008Y-116821254D01*
X131919072Y-116648000D01*
X131919072Y-116220506D01*
X132935000Y-115204579D01*
X132971641Y-115229061D01*
X133214595Y-115329696D01*
X133472514Y-115381000D01*
X133735486Y-115381000D01*
X133993405Y-115329696D01*
X134236359Y-115229061D01*
X134455013Y-115082962D01*
X134640962Y-114897013D01*
X134787061Y-114678359D01*
X134887696Y-114435405D01*
X134939000Y-114177486D01*
X134939000Y-113914514D01*
X136841000Y-113914514D01*
X136841000Y-114177486D01*
X136892304Y-114435405D01*
X136992939Y-114678359D01*
X137139038Y-114897013D01*
X137324987Y-115082962D01*
X137543641Y-115229061D01*
X137786595Y-115329696D01*
X138044514Y-115381000D01*
X138307486Y-115381000D01*
X138565405Y-115329696D01*
X138808359Y-115229061D01*
X139027013Y-115082962D01*
X139212962Y-114897013D01*
X139359061Y-114678359D01*
X139459696Y-114435405D01*
X139511000Y-114177486D01*
X139511000Y-113914514D01*
X141413000Y-113914514D01*
X141413000Y-114177486D01*
X141464304Y-114435405D01*
X141564939Y-114678359D01*
X141711038Y-114897013D01*
X141896987Y-115082962D01*
X142115641Y-115229061D01*
X142358595Y-115329696D01*
X142616514Y-115381000D01*
X142879486Y-115381000D01*
X143137405Y-115329696D01*
X143380359Y-115229061D01*
X143599013Y-115082962D01*
X143784962Y-114897013D01*
X143931061Y-114678359D01*
X144031696Y-114435405D01*
X144083000Y-114177486D01*
X144083000Y-113914514D01*
X145985000Y-113914514D01*
X145985000Y-114177486D01*
X146036304Y-114435405D01*
X146136939Y-114678359D01*
X146283038Y-114897013D01*
X146468987Y-115082962D01*
X146687641Y-115229061D01*
X146930595Y-115329696D01*
X147188514Y-115381000D01*
X147451486Y-115381000D01*
X147709405Y-115329696D01*
X147952359Y-115229061D01*
X148171013Y-115082962D01*
X148356962Y-114897013D01*
X148503061Y-114678359D01*
X148603696Y-114435405D01*
X148655000Y-114177486D01*
X148655000Y-113914514D01*
X150557000Y-113914514D01*
X150557000Y-114177486D01*
X150608304Y-114435405D01*
X150708939Y-114678359D01*
X150855038Y-114897013D01*
X151040987Y-115082962D01*
X151259641Y-115229061D01*
X151502595Y-115329696D01*
X151760514Y-115381000D01*
X152023486Y-115381000D01*
X152281405Y-115329696D01*
X152524359Y-115229061D01*
X152743013Y-115082962D01*
X152928962Y-114897013D01*
X153075061Y-114678359D01*
X153175696Y-114435405D01*
X153227000Y-114177486D01*
X153227000Y-113914514D01*
X153175696Y-113656595D01*
X153075061Y-113413641D01*
X152928962Y-113194987D01*
X152743013Y-113009038D01*
X152524359Y-112862939D01*
X152281405Y-112762304D01*
X152023486Y-112711000D01*
X151760514Y-112711000D01*
X151502595Y-112762304D01*
X151259641Y-112862939D01*
X151040987Y-113009038D01*
X150855038Y-113194987D01*
X150708939Y-113413641D01*
X150608304Y-113656595D01*
X150557000Y-113914514D01*
X148655000Y-113914514D01*
X148603696Y-113656595D01*
X148503061Y-113413641D01*
X148356962Y-113194987D01*
X148171013Y-113009038D01*
X147952359Y-112862939D01*
X147709405Y-112762304D01*
X147451486Y-112711000D01*
X147188514Y-112711000D01*
X146930595Y-112762304D01*
X146687641Y-112862939D01*
X146468987Y-113009038D01*
X146283038Y-113194987D01*
X146136939Y-113413641D01*
X146036304Y-113656595D01*
X145985000Y-113914514D01*
X144083000Y-113914514D01*
X144031696Y-113656595D01*
X143931061Y-113413641D01*
X143784962Y-113194987D01*
X143599013Y-113009038D01*
X143380359Y-112862939D01*
X143137405Y-112762304D01*
X142879486Y-112711000D01*
X142616514Y-112711000D01*
X142358595Y-112762304D01*
X142115641Y-112862939D01*
X141896987Y-113009038D01*
X141711038Y-113194987D01*
X141564939Y-113413641D01*
X141464304Y-113656595D01*
X141413000Y-113914514D01*
X139511000Y-113914514D01*
X139459696Y-113656595D01*
X139359061Y-113413641D01*
X139212962Y-113194987D01*
X139027013Y-113009038D01*
X138808359Y-112862939D01*
X138565405Y-112762304D01*
X138307486Y-112711000D01*
X138044514Y-112711000D01*
X137786595Y-112762304D01*
X137543641Y-112862939D01*
X137324987Y-113009038D01*
X137139038Y-113194987D01*
X136992939Y-113413641D01*
X136892304Y-113656595D01*
X136841000Y-113914514D01*
X134939000Y-113914514D01*
X134887696Y-113656595D01*
X134787061Y-113413641D01*
X134640962Y-113194987D01*
X134455013Y-113009038D01*
X134236359Y-112862939D01*
X133993405Y-112762304D01*
X133735486Y-112711000D01*
X133472514Y-112711000D01*
X133214595Y-112762304D01*
X132971641Y-112862939D01*
X132752987Y-113009038D01*
X132567038Y-113194987D01*
X132558993Y-113207027D01*
X132501686Y-113224411D01*
X132347941Y-113306589D01*
X132246953Y-113389468D01*
X132246951Y-113389470D01*
X132213183Y-113417183D01*
X132185470Y-113450951D01*
X130551494Y-115084928D01*
X130081000Y-115084928D01*
X129907746Y-115101992D01*
X129741150Y-115152528D01*
X129667000Y-115192162D01*
X129667000Y-112522000D01*
X129664560Y-112497224D01*
X129657333Y-112473399D01*
X129645597Y-112451443D01*
X129629803Y-112432197D01*
X129610557Y-112416403D01*
X129588601Y-112404667D01*
X129564776Y-112397440D01*
X129540000Y-112395000D01*
X124579000Y-112395000D01*
X124579000Y-110386888D01*
X124719162Y-110216100D01*
X124874563Y-110401315D01*
X125117077Y-110595969D01*
X125392906Y-110739571D01*
X125611020Y-110810563D01*
X125857000Y-110690594D01*
X125857000Y-109347000D01*
X126111000Y-109347000D01*
X126111000Y-110690594D01*
X126356980Y-110810563D01*
X126575094Y-110739571D01*
X126850923Y-110595969D01*
X127093437Y-110401315D01*
X127293316Y-110163089D01*
X127442879Y-109890446D01*
X127536378Y-109593863D01*
X127506656Y-109536000D01*
X132265928Y-109536000D01*
X132265928Y-110936000D01*
X132278188Y-111060482D01*
X132314498Y-111180180D01*
X132373463Y-111290494D01*
X132452815Y-111387185D01*
X132549506Y-111466537D01*
X132659820Y-111525502D01*
X132779518Y-111561812D01*
X132904000Y-111574072D01*
X134304000Y-111574072D01*
X134428482Y-111561812D01*
X134548180Y-111525502D01*
X134658494Y-111466537D01*
X134755185Y-111387185D01*
X134834537Y-111290494D01*
X134893502Y-111180180D01*
X134929812Y-111060482D01*
X134942072Y-110936000D01*
X134942072Y-109536000D01*
X136837928Y-109536000D01*
X136837928Y-110936000D01*
X136850188Y-111060482D01*
X136886498Y-111180180D01*
X136945463Y-111290494D01*
X137024815Y-111387185D01*
X137121506Y-111466537D01*
X137231820Y-111525502D01*
X137351518Y-111561812D01*
X137476000Y-111574072D01*
X138876000Y-111574072D01*
X139000482Y-111561812D01*
X139120180Y-111525502D01*
X139230494Y-111466537D01*
X139327185Y-111387185D01*
X139406537Y-111290494D01*
X139465502Y-111180180D01*
X139501812Y-111060482D01*
X139514072Y-110936000D01*
X139514072Y-109536000D01*
X141409928Y-109536000D01*
X141409928Y-110936000D01*
X141422188Y-111060482D01*
X141458498Y-111180180D01*
X141517463Y-111290494D01*
X141596815Y-111387185D01*
X141693506Y-111466537D01*
X141803820Y-111525502D01*
X141923518Y-111561812D01*
X142048000Y-111574072D01*
X143448000Y-111574072D01*
X143572482Y-111561812D01*
X143692180Y-111525502D01*
X143802494Y-111466537D01*
X143899185Y-111387185D01*
X143978537Y-111290494D01*
X144037502Y-111180180D01*
X144073812Y-111060482D01*
X144086072Y-110936000D01*
X144086072Y-109536000D01*
X145981928Y-109536000D01*
X145981928Y-110936000D01*
X145994188Y-111060482D01*
X146030498Y-111180180D01*
X146089463Y-111290494D01*
X146168815Y-111387185D01*
X146265506Y-111466537D01*
X146375820Y-111525502D01*
X146495518Y-111561812D01*
X146620000Y-111574072D01*
X148020000Y-111574072D01*
X148144482Y-111561812D01*
X148264180Y-111525502D01*
X148374494Y-111466537D01*
X148471185Y-111387185D01*
X148550537Y-111290494D01*
X148609502Y-111180180D01*
X148645812Y-111060482D01*
X148658072Y-110936000D01*
X148658072Y-109536000D01*
X150553928Y-109536000D01*
X150553928Y-110936000D01*
X150566188Y-111060482D01*
X150602498Y-111180180D01*
X150661463Y-111290494D01*
X150740815Y-111387185D01*
X150837506Y-111466537D01*
X150947820Y-111525502D01*
X151067518Y-111561812D01*
X151192000Y-111574072D01*
X152592000Y-111574072D01*
X152716482Y-111561812D01*
X152836180Y-111525502D01*
X152946494Y-111466537D01*
X153043185Y-111387185D01*
X153122537Y-111290494D01*
X153181502Y-111180180D01*
X153217812Y-111060482D01*
X153230072Y-110936000D01*
X153230072Y-109536000D01*
X153217812Y-109411518D01*
X153181502Y-109291820D01*
X153122537Y-109181506D01*
X153043185Y-109084815D01*
X152946494Y-109005463D01*
X152836180Y-108946498D01*
X152716482Y-108910188D01*
X152592000Y-108897928D01*
X151192000Y-108897928D01*
X151067518Y-108910188D01*
X150947820Y-108946498D01*
X150837506Y-109005463D01*
X150740815Y-109084815D01*
X150661463Y-109181506D01*
X150602498Y-109291820D01*
X150566188Y-109411518D01*
X150553928Y-109536000D01*
X148658072Y-109536000D01*
X148645812Y-109411518D01*
X148609502Y-109291820D01*
X148550537Y-109181506D01*
X148471185Y-109084815D01*
X148374494Y-109005463D01*
X148264180Y-108946498D01*
X148144482Y-108910188D01*
X148020000Y-108897928D01*
X146620000Y-108897928D01*
X146495518Y-108910188D01*
X146375820Y-108946498D01*
X146265506Y-109005463D01*
X146168815Y-109084815D01*
X146089463Y-109181506D01*
X146030498Y-109291820D01*
X145994188Y-109411518D01*
X145981928Y-109536000D01*
X144086072Y-109536000D01*
X144073812Y-109411518D01*
X144037502Y-109291820D01*
X143978537Y-109181506D01*
X143899185Y-109084815D01*
X143802494Y-109005463D01*
X143692180Y-108946498D01*
X143572482Y-108910188D01*
X143448000Y-108897928D01*
X142048000Y-108897928D01*
X141923518Y-108910188D01*
X141803820Y-108946498D01*
X141693506Y-109005463D01*
X141596815Y-109084815D01*
X141517463Y-109181506D01*
X141458498Y-109291820D01*
X141422188Y-109411518D01*
X141409928Y-109536000D01*
X139514072Y-109536000D01*
X139501812Y-109411518D01*
X139465502Y-109291820D01*
X139406537Y-109181506D01*
X139327185Y-109084815D01*
X139230494Y-109005463D01*
X139120180Y-108946498D01*
X139000482Y-108910188D01*
X138876000Y-108897928D01*
X137476000Y-108897928D01*
X137351518Y-108910188D01*
X137231820Y-108946498D01*
X137121506Y-109005463D01*
X137024815Y-109084815D01*
X136945463Y-109181506D01*
X136886498Y-109291820D01*
X136850188Y-109411518D01*
X136837928Y-109536000D01*
X134942072Y-109536000D01*
X134929812Y-109411518D01*
X134893502Y-109291820D01*
X134834537Y-109181506D01*
X134755185Y-109084815D01*
X134658494Y-109005463D01*
X134548180Y-108946498D01*
X134428482Y-108910188D01*
X134304000Y-108897928D01*
X132904000Y-108897928D01*
X132779518Y-108910188D01*
X132659820Y-108946498D01*
X132549506Y-109005463D01*
X132452815Y-109084815D01*
X132373463Y-109181506D01*
X132314498Y-109291820D01*
X132278188Y-109411518D01*
X132265928Y-109536000D01*
X127506656Y-109536000D01*
X127409570Y-109347000D01*
X126111000Y-109347000D01*
X125857000Y-109347000D01*
X125837000Y-109347000D01*
X125837000Y-109093000D01*
X125857000Y-109093000D01*
X125857000Y-107749406D01*
X126111000Y-107749406D01*
X126111000Y-109093000D01*
X127409570Y-109093000D01*
X127536378Y-108846137D01*
X127442879Y-108549554D01*
X127293316Y-108276911D01*
X127093437Y-108038685D01*
X126850923Y-107844031D01*
X126575094Y-107700429D01*
X126356980Y-107629437D01*
X126111000Y-107749406D01*
X125857000Y-107749406D01*
X125611020Y-107629437D01*
X125392906Y-107700429D01*
X125117077Y-107844031D01*
X124874563Y-108038685D01*
X124719163Y-108223899D01*
X124571963Y-108044537D01*
X124330234Y-107846155D01*
X124054448Y-107698745D01*
X123755203Y-107607970D01*
X123444000Y-107577319D01*
X123132796Y-107607970D01*
X122833551Y-107698745D01*
X122557765Y-107846155D01*
X122431905Y-107949446D01*
X122387037Y-107865506D01*
X122307685Y-107768815D01*
X122210994Y-107689463D01*
X122100680Y-107630498D01*
X121980982Y-107594188D01*
X121856500Y-107581928D01*
X119951500Y-107581928D01*
X119827018Y-107594188D01*
X119707320Y-107630498D01*
X119597006Y-107689463D01*
X119500315Y-107768815D01*
X119420963Y-107865506D01*
X119361998Y-107975820D01*
X119325688Y-108095518D01*
X119313428Y-108220000D01*
X119313428Y-110220000D01*
X119325688Y-110344482D01*
X119361998Y-110464180D01*
X119420963Y-110574494D01*
X119500315Y-110671185D01*
X119597006Y-110750537D01*
X119707320Y-110809502D01*
X119827018Y-110845812D01*
X119951500Y-110858072D01*
X121856500Y-110858072D01*
X121980982Y-110845812D01*
X122100680Y-110809502D01*
X122210994Y-110750537D01*
X122307685Y-110671185D01*
X122309000Y-110669583D01*
X122309000Y-112395000D01*
X117348000Y-112395000D01*
X117323224Y-112397440D01*
X117299399Y-112404667D01*
X117277443Y-112416403D01*
X117258197Y-112432197D01*
X117242403Y-112451443D01*
X117230667Y-112473399D01*
X117223440Y-112497224D01*
X117221000Y-112522000D01*
X106240107Y-112522000D01*
X106309475Y-112452632D01*
X106471990Y-112209411D01*
X106583932Y-111939158D01*
X106641000Y-111652260D01*
X106641000Y-111359740D01*
X106583932Y-111072842D01*
X106471990Y-110802589D01*
X106309475Y-110559368D01*
X106102632Y-110352525D01*
X105859411Y-110190010D01*
X105589158Y-110078068D01*
X105302260Y-110021000D01*
X105009740Y-110021000D01*
X104722842Y-110078068D01*
X104452589Y-110190010D01*
X104209368Y-110352525D01*
X104002525Y-110559368D01*
X103840010Y-110802589D01*
X103728068Y-111072842D01*
X103671000Y-111359740D01*
X103671000Y-111652260D01*
X103728068Y-111939158D01*
X103840010Y-112209411D01*
X104002525Y-112452632D01*
X104134380Y-112584487D01*
X104061820Y-112606498D01*
X103951506Y-112665463D01*
X103854815Y-112744815D01*
X103775463Y-112841506D01*
X103716498Y-112951820D01*
X103680188Y-113071518D01*
X103667928Y-113196000D01*
X100711000Y-113196000D01*
X100711000Y-109791419D01*
X108301000Y-109791419D01*
X108301000Y-110172581D01*
X108375361Y-110546419D01*
X108521225Y-110898566D01*
X108732987Y-111215491D01*
X109002509Y-111485013D01*
X109319434Y-111696775D01*
X109671581Y-111842639D01*
X110045419Y-111917000D01*
X110426581Y-111917000D01*
X110800419Y-111842639D01*
X111152566Y-111696775D01*
X111469491Y-111485013D01*
X111739013Y-111215491D01*
X111950775Y-110898566D01*
X112096639Y-110546419D01*
X112171000Y-110172581D01*
X112171000Y-109791419D01*
X113301000Y-109791419D01*
X113301000Y-110172581D01*
X113375361Y-110546419D01*
X113521225Y-110898566D01*
X113732987Y-111215491D01*
X114002509Y-111485013D01*
X114319434Y-111696775D01*
X114671581Y-111842639D01*
X115045419Y-111917000D01*
X115426581Y-111917000D01*
X115800419Y-111842639D01*
X116152566Y-111696775D01*
X116469491Y-111485013D01*
X116739013Y-111215491D01*
X116950775Y-110898566D01*
X117096639Y-110546419D01*
X117171000Y-110172581D01*
X117171000Y-109791419D01*
X117096639Y-109417581D01*
X116950775Y-109065434D01*
X116739013Y-108748509D01*
X116469491Y-108478987D01*
X116152566Y-108267225D01*
X115800419Y-108121361D01*
X115426581Y-108047000D01*
X115045419Y-108047000D01*
X114671581Y-108121361D01*
X114319434Y-108267225D01*
X114002509Y-108478987D01*
X113732987Y-108748509D01*
X113521225Y-109065434D01*
X113375361Y-109417581D01*
X113301000Y-109791419D01*
X112171000Y-109791419D01*
X112096639Y-109417581D01*
X111950775Y-109065434D01*
X111739013Y-108748509D01*
X111469491Y-108478987D01*
X111152566Y-108267225D01*
X110800419Y-108121361D01*
X110426581Y-108047000D01*
X110045419Y-108047000D01*
X109671581Y-108121361D01*
X109319434Y-108267225D01*
X109002509Y-108478987D01*
X108732987Y-108748509D01*
X108521225Y-109065434D01*
X108375361Y-109417581D01*
X108301000Y-109791419D01*
X100711000Y-109791419D01*
X100711000Y-101180000D01*
X120177928Y-101180000D01*
X120190188Y-101304482D01*
X120226498Y-101424180D01*
X120285463Y-101534494D01*
X120364815Y-101631185D01*
X120461506Y-101710537D01*
X120571820Y-101769502D01*
X120691518Y-101805812D01*
X120816000Y-101818072D01*
X121380250Y-101815000D01*
X121539000Y-101656250D01*
X121539000Y-100457000D01*
X121793000Y-100457000D01*
X121793000Y-101656250D01*
X121951750Y-101815000D01*
X122516000Y-101818072D01*
X122640482Y-101805812D01*
X122760180Y-101769502D01*
X122870494Y-101710537D01*
X122927907Y-101663419D01*
X126843000Y-101663419D01*
X126843000Y-102044581D01*
X126917361Y-102418419D01*
X127063225Y-102770566D01*
X127274987Y-103087491D01*
X127544509Y-103357013D01*
X127861434Y-103568775D01*
X128213581Y-103714639D01*
X128587419Y-103789000D01*
X128968581Y-103789000D01*
X129342419Y-103714639D01*
X129694566Y-103568775D01*
X130011491Y-103357013D01*
X130281013Y-103087491D01*
X130492775Y-102770566D01*
X130638639Y-102418419D01*
X130713000Y-102044581D01*
X130713000Y-101663419D01*
X130638639Y-101289581D01*
X130492775Y-100937434D01*
X130281013Y-100620509D01*
X130011491Y-100350987D01*
X129694566Y-100139225D01*
X129342419Y-99993361D01*
X128968581Y-99919000D01*
X128587419Y-99919000D01*
X128213581Y-99993361D01*
X127861434Y-100139225D01*
X127544509Y-100350987D01*
X127274987Y-100620509D01*
X127063225Y-100937434D01*
X126917361Y-101289581D01*
X126843000Y-101663419D01*
X122927907Y-101663419D01*
X122967185Y-101631185D01*
X123046537Y-101534494D01*
X123105502Y-101424180D01*
X123141812Y-101304482D01*
X123154072Y-101180000D01*
X123151000Y-100615750D01*
X122992250Y-100457000D01*
X121793000Y-100457000D01*
X121539000Y-100457000D01*
X120339750Y-100457000D01*
X120181000Y-100615750D01*
X120177928Y-101180000D01*
X100711000Y-101180000D01*
X100711000Y-99480000D01*
X120177928Y-99480000D01*
X120181000Y-100044250D01*
X120339750Y-100203000D01*
X121539000Y-100203000D01*
X121539000Y-100183000D01*
X121793000Y-100183000D01*
X121793000Y-100203000D01*
X122992250Y-100203000D01*
X123151000Y-100044250D01*
X123154072Y-99480000D01*
X123141812Y-99355518D01*
X123105502Y-99235820D01*
X123046537Y-99125506D01*
X122967185Y-99028815D01*
X122870494Y-98949463D01*
X122760180Y-98890498D01*
X122687620Y-98868487D01*
X122819475Y-98736632D01*
X122981990Y-98493411D01*
X123093932Y-98223158D01*
X123151000Y-97936260D01*
X123151000Y-97643740D01*
X123093932Y-97356842D01*
X122981990Y-97086589D01*
X122819475Y-96843368D01*
X122639526Y-96663419D01*
X126843000Y-96663419D01*
X126843000Y-97044581D01*
X126917361Y-97418419D01*
X127063225Y-97770566D01*
X127274987Y-98087491D01*
X127544509Y-98357013D01*
X127861434Y-98568775D01*
X128213581Y-98714639D01*
X128587419Y-98789000D01*
X128968581Y-98789000D01*
X129342419Y-98714639D01*
X129694566Y-98568775D01*
X130011491Y-98357013D01*
X130281013Y-98087491D01*
X130492775Y-97770566D01*
X130638639Y-97418419D01*
X130713000Y-97044581D01*
X130713000Y-96663419D01*
X130638639Y-96289581D01*
X130492775Y-95937434D01*
X130281013Y-95620509D01*
X130011491Y-95350987D01*
X129694566Y-95139225D01*
X129342419Y-94993361D01*
X128968581Y-94919000D01*
X128587419Y-94919000D01*
X128213581Y-94993361D01*
X127861434Y-95139225D01*
X127544509Y-95350987D01*
X127274987Y-95620509D01*
X127063225Y-95937434D01*
X126917361Y-96289581D01*
X126843000Y-96663419D01*
X122639526Y-96663419D01*
X122612632Y-96636525D01*
X122369411Y-96474010D01*
X122099158Y-96362068D01*
X121812260Y-96305000D01*
X121519740Y-96305000D01*
X121232842Y-96362068D01*
X120962589Y-96474010D01*
X120719368Y-96636525D01*
X120512525Y-96843368D01*
X120350010Y-97086589D01*
X120238068Y-97356842D01*
X120181000Y-97643740D01*
X120181000Y-97936260D01*
X120238068Y-98223158D01*
X120350010Y-98493411D01*
X120512525Y-98736632D01*
X120644380Y-98868487D01*
X120571820Y-98890498D01*
X120461506Y-98949463D01*
X120364815Y-99028815D01*
X120285463Y-99125506D01*
X120226498Y-99235820D01*
X120190188Y-99355518D01*
X120177928Y-99480000D01*
X100711000Y-99480000D01*
X100711000Y-96100000D01*
X110271928Y-96100000D01*
X110284188Y-96224482D01*
X110320498Y-96344180D01*
X110379463Y-96454494D01*
X110458815Y-96551185D01*
X110555506Y-96630537D01*
X110665820Y-96689502D01*
X110738380Y-96711513D01*
X110606525Y-96843368D01*
X110444010Y-97086589D01*
X110332068Y-97356842D01*
X110275000Y-97643740D01*
X110275000Y-97936260D01*
X110332068Y-98223158D01*
X110444010Y-98493411D01*
X110606525Y-98736632D01*
X110813368Y-98943475D01*
X111056589Y-99105990D01*
X111326842Y-99217932D01*
X111613740Y-99275000D01*
X111906260Y-99275000D01*
X112193158Y-99217932D01*
X112463411Y-99105990D01*
X112706632Y-98943475D01*
X112913475Y-98736632D01*
X113075990Y-98493411D01*
X113187932Y-98223158D01*
X113245000Y-97936260D01*
X113245000Y-97643740D01*
X113187932Y-97356842D01*
X113075990Y-97086589D01*
X112913475Y-96843368D01*
X112781620Y-96711513D01*
X112854180Y-96689502D01*
X112964494Y-96630537D01*
X113061185Y-96551185D01*
X113140537Y-96454494D01*
X113199502Y-96344180D01*
X113235812Y-96224482D01*
X113248072Y-96100000D01*
X113245000Y-95535750D01*
X113086250Y-95377000D01*
X111887000Y-95377000D01*
X111887000Y-95397000D01*
X111633000Y-95397000D01*
X111633000Y-95377000D01*
X110433750Y-95377000D01*
X110275000Y-95535750D01*
X110271928Y-96100000D01*
X100711000Y-96100000D01*
X100711000Y-94400000D01*
X110271928Y-94400000D01*
X110275000Y-94964250D01*
X110433750Y-95123000D01*
X111633000Y-95123000D01*
X111633000Y-93923750D01*
X111887000Y-93923750D01*
X111887000Y-95123000D01*
X112629789Y-95123000D01*
X112701820Y-95161502D01*
X112821518Y-95197812D01*
X112946000Y-95210072D01*
X115146000Y-95210072D01*
X115270482Y-95197812D01*
X115390180Y-95161502D01*
X115500494Y-95102537D01*
X115597185Y-95023185D01*
X115676537Y-94926494D01*
X115735502Y-94816180D01*
X115771812Y-94696482D01*
X115784072Y-94572000D01*
X115784072Y-93868122D01*
X122516825Y-93868122D01*
X122581425Y-94081094D01*
X122731469Y-94386329D01*
X122938178Y-94656427D01*
X123193609Y-94881008D01*
X123487946Y-95051442D01*
X123809877Y-95161179D01*
X124079000Y-95043600D01*
X124079000Y-93599000D01*
X124333000Y-93599000D01*
X124333000Y-95043600D01*
X124602123Y-95161179D01*
X124924054Y-95051442D01*
X125218391Y-94881008D01*
X125473822Y-94656427D01*
X125680531Y-94386329D01*
X125830575Y-94081094D01*
X125895175Y-93868122D01*
X125777125Y-93599000D01*
X124333000Y-93599000D01*
X124079000Y-93599000D01*
X122634875Y-93599000D01*
X122516825Y-93868122D01*
X115784072Y-93868122D01*
X115784072Y-93075878D01*
X122516825Y-93075878D01*
X122634875Y-93345000D01*
X124079000Y-93345000D01*
X124079000Y-91900400D01*
X124333000Y-91900400D01*
X124333000Y-93345000D01*
X125777125Y-93345000D01*
X125895175Y-93075878D01*
X125830575Y-92862906D01*
X125680531Y-92557671D01*
X125473822Y-92287573D01*
X125218391Y-92062992D01*
X124924054Y-91892558D01*
X124602123Y-91782821D01*
X124333000Y-91900400D01*
X124079000Y-91900400D01*
X123809877Y-91782821D01*
X123487946Y-91892558D01*
X123193609Y-92062992D01*
X122938178Y-92287573D01*
X122731469Y-92557671D01*
X122581425Y-92862906D01*
X122516825Y-93075878D01*
X115784072Y-93075878D01*
X115784072Y-92372000D01*
X115771812Y-92247518D01*
X115735502Y-92127820D01*
X115676537Y-92017506D01*
X115597185Y-91920815D01*
X115500494Y-91841463D01*
X115390180Y-91782498D01*
X115270482Y-91746188D01*
X115146000Y-91733928D01*
X112946000Y-91733928D01*
X112821518Y-91746188D01*
X112701820Y-91782498D01*
X112591506Y-91841463D01*
X112494815Y-91920815D01*
X112415463Y-92017506D01*
X112356498Y-92127820D01*
X112320188Y-92247518D01*
X112307928Y-92372000D01*
X112307928Y-93763573D01*
X112045750Y-93765000D01*
X111887000Y-93923750D01*
X111633000Y-93923750D01*
X111474250Y-93765000D01*
X110910000Y-93761928D01*
X110785518Y-93774188D01*
X110665820Y-93810498D01*
X110555506Y-93869463D01*
X110458815Y-93948815D01*
X110379463Y-94045506D01*
X110320498Y-94155820D01*
X110284188Y-94275518D01*
X110271928Y-94400000D01*
X100711000Y-94400000D01*
X100711000Y-88569000D01*
X156337000Y-88569000D01*
X156337000Y-132207000D01*
G37*
%TD.AperFunction*%
%TD*%
D30*
%TO.N,GND*%
X101473000Y-117493421D02*
X96516000Y-112536422D01*
X96516000Y-104297454D01*
X96548205Y-104249256D01*
X96626226Y-104060898D01*
X96666000Y-103860939D01*
X96666000Y-103657061D01*
X96626226Y-103457102D01*
X96548205Y-103268744D01*
X96434937Y-103099226D01*
X96290774Y-102955063D01*
X96121256Y-102841795D01*
X95932898Y-102763774D01*
X95732939Y-102724000D01*
X95529061Y-102724000D01*
X95329102Y-102763774D01*
X95140744Y-102841795D01*
X94971226Y-102955063D01*
X94827063Y-103099226D01*
X94713795Y-103268744D01*
X94635774Y-103457102D01*
X94596000Y-103657061D01*
X94596000Y-103860939D01*
X94635774Y-104060898D01*
X94713795Y-104249256D01*
X94746001Y-104297456D01*
X94746000Y-112859531D01*
X94741719Y-112903000D01*
X94746000Y-112946469D01*
X94746000Y-112946476D01*
X94758805Y-113076489D01*
X94809411Y-113243312D01*
X94891589Y-113397058D01*
X95002183Y-113531817D01*
X95035956Y-113559534D01*
X101473000Y-119996579D01*
X101473000Y-132207000D01*
X99743983Y-132207000D01*
X99705475Y-132149368D01*
X99498632Y-131942525D01*
X99324240Y-131826000D01*
X99498632Y-131709475D01*
X99705475Y-131502632D01*
X99867990Y-131259411D01*
X99979932Y-130989158D01*
X100037000Y-130702260D01*
X100037000Y-130409740D01*
X99979932Y-130122842D01*
X99867990Y-129852589D01*
X99705475Y-129609368D01*
X99498632Y-129402525D01*
X99316466Y-129280805D01*
X99433355Y-129211178D01*
X99649588Y-129016269D01*
X99823641Y-128782920D01*
X99948825Y-128520099D01*
X99993476Y-128372890D01*
X99872155Y-128143000D01*
X98679000Y-128143000D01*
X98679000Y-128163000D01*
X98425000Y-128163000D01*
X98425000Y-128143000D01*
X97231845Y-128143000D01*
X97110524Y-128372890D01*
X97155175Y-128520099D01*
X97280359Y-128782920D01*
X97454412Y-129016269D01*
X97670645Y-129211178D01*
X97787534Y-129280805D01*
X97605368Y-129402525D01*
X97398525Y-129609368D01*
X97236010Y-129852589D01*
X97124068Y-130122842D01*
X97067000Y-130409740D01*
X97067000Y-130702260D01*
X97124068Y-130989158D01*
X97236010Y-131259411D01*
X97398525Y-131502632D01*
X97605368Y-131709475D01*
X97779760Y-131826000D01*
X97605368Y-131942525D01*
X97398525Y-132149368D01*
X97360017Y-132207000D01*
X90624461Y-132207000D01*
X90657226Y-132127898D01*
X90697000Y-131927939D01*
X90697000Y-131724061D01*
X90657226Y-131524102D01*
X90579205Y-131335744D01*
X90465937Y-131166226D01*
X90321774Y-131022063D01*
X90152256Y-130908795D01*
X89963898Y-130830774D01*
X89763939Y-130791000D01*
X89560061Y-130791000D01*
X89360102Y-130830774D01*
X89171744Y-130908795D01*
X89002226Y-131022063D01*
X88858063Y-131166226D01*
X88744795Y-131335744D01*
X88666774Y-131524102D01*
X88627000Y-131724061D01*
X88627000Y-131927939D01*
X88666774Y-132127898D01*
X88699539Y-132207000D01*
X84324166Y-132207000D01*
X84326572Y-131863000D01*
X84314312Y-131738518D01*
X84278002Y-131618820D01*
X84219037Y-131508506D01*
X84139685Y-131411815D01*
X84042994Y-131332463D01*
X83932680Y-131273498D01*
X83812982Y-131237188D01*
X83688500Y-131224928D01*
X83386750Y-131228000D01*
X83228000Y-131386750D01*
X83228000Y-132207000D01*
X82974000Y-132207000D01*
X82974000Y-131386750D01*
X82815250Y-131228000D01*
X82513500Y-131224928D01*
X82389018Y-131237188D01*
X82269320Y-131273498D01*
X82159006Y-131332463D01*
X82062315Y-131411815D01*
X81996842Y-131491594D01*
X81991462Y-131485038D01*
X81856886Y-131374595D01*
X81703350Y-131292528D01*
X81536754Y-131241992D01*
X81363500Y-131224928D01*
X80688500Y-131224928D01*
X80515246Y-131241992D01*
X80348650Y-131292528D01*
X80195114Y-131374595D01*
X80060538Y-131485038D01*
X79950095Y-131619614D01*
X79868028Y-131773150D01*
X79817492Y-131939746D01*
X79800428Y-132113000D01*
X79800428Y-132207000D01*
X76631000Y-132207000D01*
X76631000Y-127659110D01*
X97110524Y-127659110D01*
X97231845Y-127889000D01*
X98425000Y-127889000D01*
X98425000Y-126695186D01*
X98679000Y-126695186D01*
X98679000Y-127889000D01*
X99872155Y-127889000D01*
X99993476Y-127659110D01*
X99948825Y-127511901D01*
X99823641Y-127249080D01*
X99649588Y-127015731D01*
X99433355Y-126820822D01*
X99183252Y-126671843D01*
X98908891Y-126574519D01*
X98679000Y-126695186D01*
X98425000Y-126695186D01*
X98195109Y-126574519D01*
X97920748Y-126671843D01*
X97670645Y-126820822D01*
X97454412Y-127015731D01*
X97280359Y-127249080D01*
X97155175Y-127511901D01*
X97110524Y-127659110D01*
X76631000Y-127659110D01*
X76631000Y-118935419D01*
X79345000Y-118935419D01*
X79345000Y-119316581D01*
X79419361Y-119690419D01*
X79565225Y-120042566D01*
X79776987Y-120359491D01*
X80046509Y-120629013D01*
X80363434Y-120840775D01*
X80715581Y-120986639D01*
X81089419Y-121061000D01*
X81470581Y-121061000D01*
X81844419Y-120986639D01*
X82196566Y-120840775D01*
X82513491Y-120629013D01*
X82783013Y-120359491D01*
X82994775Y-120042566D01*
X83140639Y-119690419D01*
X83215000Y-119316581D01*
X83215000Y-118935419D01*
X87807000Y-118935419D01*
X87807000Y-119316581D01*
X87881361Y-119690419D01*
X88027225Y-120042566D01*
X88238987Y-120359491D01*
X88508509Y-120629013D01*
X88825434Y-120840775D01*
X89177581Y-120986639D01*
X89551419Y-121061000D01*
X89932581Y-121061000D01*
X90306419Y-120986639D01*
X90658566Y-120840775D01*
X90975491Y-120629013D01*
X91245013Y-120359491D01*
X91456775Y-120042566D01*
X91602639Y-119690419D01*
X91677000Y-119316581D01*
X91677000Y-118935419D01*
X92807000Y-118935419D01*
X92807000Y-119316581D01*
X92881361Y-119690419D01*
X93027225Y-120042566D01*
X93238987Y-120359491D01*
X93508509Y-120629013D01*
X93825434Y-120840775D01*
X94177581Y-120986639D01*
X94551419Y-121061000D01*
X94932581Y-121061000D01*
X95306419Y-120986639D01*
X95658566Y-120840775D01*
X95975491Y-120629013D01*
X96245013Y-120359491D01*
X96456775Y-120042566D01*
X96602639Y-119690419D01*
X96677000Y-119316581D01*
X96677000Y-118935419D01*
X96602639Y-118561581D01*
X96456775Y-118209434D01*
X96245013Y-117892509D01*
X95975491Y-117622987D01*
X95658566Y-117411225D01*
X95306419Y-117265361D01*
X94932581Y-117191000D01*
X94551419Y-117191000D01*
X94177581Y-117265361D01*
X93825434Y-117411225D01*
X93508509Y-117622987D01*
X93238987Y-117892509D01*
X93027225Y-118209434D01*
X92881361Y-118561581D01*
X92807000Y-118935419D01*
X91677000Y-118935419D01*
X91602639Y-118561581D01*
X91456775Y-118209434D01*
X91245013Y-117892509D01*
X90975491Y-117622987D01*
X90658566Y-117411225D01*
X90306419Y-117265361D01*
X89932581Y-117191000D01*
X89551419Y-117191000D01*
X89177581Y-117265361D01*
X88825434Y-117411225D01*
X88508509Y-117622987D01*
X88238987Y-117892509D01*
X88027225Y-118209434D01*
X87881361Y-118561581D01*
X87807000Y-118935419D01*
X83215000Y-118935419D01*
X83140639Y-118561581D01*
X82994775Y-118209434D01*
X82783013Y-117892509D01*
X82513491Y-117622987D01*
X82196566Y-117411225D01*
X81844419Y-117265361D01*
X81470581Y-117191000D01*
X81089419Y-117191000D01*
X80715581Y-117265361D01*
X80363434Y-117411225D01*
X80046509Y-117622987D01*
X79776987Y-117892509D01*
X79565225Y-118209434D01*
X79419361Y-118561581D01*
X79345000Y-118935419D01*
X76631000Y-118935419D01*
X76631000Y-113935419D01*
X79345000Y-113935419D01*
X79345000Y-114316581D01*
X79419361Y-114690419D01*
X79565225Y-115042566D01*
X79776987Y-115359491D01*
X80046509Y-115629013D01*
X80363434Y-115840775D01*
X80715581Y-115986639D01*
X81089419Y-116061000D01*
X81470581Y-116061000D01*
X81844419Y-115986639D01*
X82196566Y-115840775D01*
X82513491Y-115629013D01*
X82783013Y-115359491D01*
X82994775Y-115042566D01*
X83140639Y-114690419D01*
X83215000Y-114316581D01*
X83215000Y-113935419D01*
X83140639Y-113561581D01*
X82994775Y-113209434D01*
X82783013Y-112892509D01*
X82513491Y-112622987D01*
X82196566Y-112411225D01*
X81844419Y-112265361D01*
X81470581Y-112191000D01*
X81089419Y-112191000D01*
X80715581Y-112265361D01*
X80363434Y-112411225D01*
X80046509Y-112622987D01*
X79776987Y-112892509D01*
X79565225Y-113209434D01*
X79419361Y-113561581D01*
X79345000Y-113935419D01*
X76631000Y-113935419D01*
X76631000Y-111594000D01*
X85379928Y-111594000D01*
X85392188Y-111718482D01*
X85428498Y-111838180D01*
X85487463Y-111948494D01*
X85566815Y-112045185D01*
X85663506Y-112124537D01*
X85773820Y-112183502D01*
X85893518Y-112219812D01*
X86018000Y-112232072D01*
X86582250Y-112229000D01*
X86741000Y-112070250D01*
X86741000Y-110871000D01*
X86995000Y-110871000D01*
X86995000Y-112070250D01*
X87153750Y-112229000D01*
X87718000Y-112232072D01*
X87842482Y-112219812D01*
X87962180Y-112183502D01*
X88072494Y-112124537D01*
X88169185Y-112045185D01*
X88248537Y-111948494D01*
X88307502Y-111838180D01*
X88343812Y-111718482D01*
X88356072Y-111594000D01*
X88353000Y-111029750D01*
X88194250Y-110871000D01*
X86995000Y-110871000D01*
X86741000Y-110871000D01*
X85541750Y-110871000D01*
X85383000Y-111029750D01*
X85379928Y-111594000D01*
X76631000Y-111594000D01*
X76631000Y-109894000D01*
X85379928Y-109894000D01*
X85383000Y-110458250D01*
X85541750Y-110617000D01*
X86741000Y-110617000D01*
X86741000Y-110597000D01*
X86995000Y-110597000D01*
X86995000Y-110617000D01*
X88194250Y-110617000D01*
X88353000Y-110458250D01*
X88356030Y-109901560D01*
X89922045Y-109901560D01*
X89983932Y-110137368D01*
X90225790Y-110250266D01*
X90485027Y-110313811D01*
X90751680Y-110325561D01*
X91015501Y-110285063D01*
X91266353Y-110193875D01*
X91372068Y-110137368D01*
X91433955Y-109901560D01*
X90678000Y-109145605D01*
X89922045Y-109901560D01*
X88356030Y-109901560D01*
X88356072Y-109894000D01*
X88343812Y-109769518D01*
X88307502Y-109649820D01*
X88248537Y-109539506D01*
X88169185Y-109442815D01*
X88072494Y-109363463D01*
X87962180Y-109304498D01*
X87889620Y-109282487D01*
X88021475Y-109150632D01*
X88095610Y-109039680D01*
X89318439Y-109039680D01*
X89358937Y-109303501D01*
X89450125Y-109554353D01*
X89506632Y-109660068D01*
X89742440Y-109721955D01*
X90498395Y-108966000D01*
X90857605Y-108966000D01*
X91613560Y-109721955D01*
X91849368Y-109660068D01*
X91962266Y-109418210D01*
X92025811Y-109158973D01*
X92037561Y-108892320D01*
X91997063Y-108628499D01*
X91905875Y-108377647D01*
X91849368Y-108271932D01*
X91613560Y-108210045D01*
X90857605Y-108966000D01*
X90498395Y-108966000D01*
X89742440Y-108210045D01*
X89506632Y-108271932D01*
X89393734Y-108513790D01*
X89330189Y-108773027D01*
X89318439Y-109039680D01*
X88095610Y-109039680D01*
X88183990Y-108907411D01*
X88295932Y-108637158D01*
X88353000Y-108350260D01*
X88353000Y-108057740D01*
X88295932Y-107770842D01*
X88183990Y-107500589D01*
X88021475Y-107257368D01*
X87814632Y-107050525D01*
X87571411Y-106888010D01*
X87301158Y-106776068D01*
X87014260Y-106719000D01*
X86721740Y-106719000D01*
X86434842Y-106776068D01*
X86164589Y-106888010D01*
X85921368Y-107050525D01*
X85714525Y-107257368D01*
X85552010Y-107500589D01*
X85440068Y-107770842D01*
X85383000Y-108057740D01*
X85383000Y-108350260D01*
X85440068Y-108637158D01*
X85552010Y-108907411D01*
X85714525Y-109150632D01*
X85846380Y-109282487D01*
X85773820Y-109304498D01*
X85663506Y-109363463D01*
X85566815Y-109442815D01*
X85487463Y-109539506D01*
X85428498Y-109649820D01*
X85392188Y-109769518D01*
X85379928Y-109894000D01*
X76631000Y-109894000D01*
X76631000Y-105727419D01*
X79345000Y-105727419D01*
X79345000Y-106108581D01*
X79419361Y-106482419D01*
X79565225Y-106834566D01*
X79776987Y-107151491D01*
X80046509Y-107421013D01*
X80363434Y-107632775D01*
X80715581Y-107778639D01*
X81089419Y-107853000D01*
X81470581Y-107853000D01*
X81844419Y-107778639D01*
X82196566Y-107632775D01*
X82513491Y-107421013D01*
X82783013Y-107151491D01*
X82994775Y-106834566D01*
X83140639Y-106482419D01*
X83215000Y-106108581D01*
X83215000Y-105727419D01*
X83140639Y-105353581D01*
X82994775Y-105001434D01*
X82783013Y-104684509D01*
X82513491Y-104414987D01*
X82196566Y-104203225D01*
X81844419Y-104057361D01*
X81470581Y-103983000D01*
X81089419Y-103983000D01*
X80715581Y-104057361D01*
X80363434Y-104203225D01*
X80046509Y-104414987D01*
X79776987Y-104684509D01*
X79565225Y-105001434D01*
X79419361Y-105353581D01*
X79345000Y-105727419D01*
X76631000Y-105727419D01*
X76631000Y-103752544D01*
X89323000Y-103752544D01*
X89323000Y-104019456D01*
X89375072Y-104281239D01*
X89477215Y-104527833D01*
X89625503Y-104749762D01*
X89814238Y-104938497D01*
X90036167Y-105086785D01*
X90203266Y-105156000D01*
X90036167Y-105225215D01*
X89814238Y-105373503D01*
X89625503Y-105562238D01*
X89477215Y-105784167D01*
X89375072Y-106030761D01*
X89323000Y-106292544D01*
X89323000Y-106559456D01*
X89375072Y-106821239D01*
X89477215Y-107067833D01*
X89625503Y-107289762D01*
X89814238Y-107478497D01*
X90036167Y-107626785D01*
X90204324Y-107696438D01*
X90089647Y-107738125D01*
X89983932Y-107794632D01*
X89922045Y-108030440D01*
X90678000Y-108786395D01*
X91433955Y-108030440D01*
X91372068Y-107794632D01*
X91156993Y-107694236D01*
X91319833Y-107626785D01*
X91541762Y-107478497D01*
X91730497Y-107289762D01*
X91878785Y-107067833D01*
X91980928Y-106821239D01*
X92033000Y-106559456D01*
X92033000Y-106292544D01*
X91980928Y-106030761D01*
X91878785Y-105784167D01*
X91730497Y-105562238D01*
X91541762Y-105373503D01*
X91319833Y-105225215D01*
X91152734Y-105156000D01*
X91319833Y-105086785D01*
X91541762Y-104938497D01*
X91730497Y-104749762D01*
X91878785Y-104527833D01*
X91980928Y-104281239D01*
X92033000Y-104019456D01*
X92033000Y-103752544D01*
X91980928Y-103490761D01*
X91878785Y-103244167D01*
X91730497Y-103022238D01*
X91541762Y-102833503D01*
X91319833Y-102685215D01*
X91073239Y-102583072D01*
X90811456Y-102531000D01*
X90544544Y-102531000D01*
X90282761Y-102583072D01*
X90036167Y-102685215D01*
X89814238Y-102833503D01*
X89625503Y-103022238D01*
X89477215Y-103244167D01*
X89375072Y-103490761D01*
X89323000Y-103752544D01*
X76631000Y-103752544D01*
X76631000Y-100727419D01*
X79345000Y-100727419D01*
X79345000Y-101108581D01*
X79419361Y-101482419D01*
X79565225Y-101834566D01*
X79776987Y-102151491D01*
X80046509Y-102421013D01*
X80363434Y-102632775D01*
X80715581Y-102778639D01*
X81089419Y-102853000D01*
X81470581Y-102853000D01*
X81844419Y-102778639D01*
X82196566Y-102632775D01*
X82513491Y-102421013D01*
X82783013Y-102151491D01*
X82994775Y-101834566D01*
X83140639Y-101482419D01*
X83215000Y-101108581D01*
X83215000Y-100727419D01*
X83140639Y-100353581D01*
X82994775Y-100001434D01*
X82783013Y-99684509D01*
X82513491Y-99414987D01*
X82196566Y-99203225D01*
X81844419Y-99057361D01*
X81470581Y-98983000D01*
X81089419Y-98983000D01*
X80715581Y-99057361D01*
X80363434Y-99203225D01*
X80046509Y-99414987D01*
X79776987Y-99684509D01*
X79565225Y-100001434D01*
X79419361Y-100353581D01*
X79345000Y-100727419D01*
X76631000Y-100727419D01*
X76631000Y-92773419D01*
X78329000Y-92773419D01*
X78329000Y-93154581D01*
X78403361Y-93528419D01*
X78549225Y-93880566D01*
X78760987Y-94197491D01*
X79030509Y-94467013D01*
X79347434Y-94678775D01*
X79699581Y-94824639D01*
X80073419Y-94899000D01*
X80454581Y-94899000D01*
X80828419Y-94824639D01*
X81180566Y-94678775D01*
X81497491Y-94467013D01*
X81767013Y-94197491D01*
X81978775Y-93880566D01*
X82124639Y-93528419D01*
X82199000Y-93154581D01*
X82199000Y-92773419D01*
X83329000Y-92773419D01*
X83329000Y-93154581D01*
X83403361Y-93528419D01*
X83549225Y-93880566D01*
X83760987Y-94197491D01*
X84030509Y-94467013D01*
X84347434Y-94678775D01*
X84699581Y-94824639D01*
X85073419Y-94899000D01*
X85454581Y-94899000D01*
X85828419Y-94824639D01*
X86180566Y-94678775D01*
X86497491Y-94467013D01*
X86767013Y-94197491D01*
X86978775Y-93880566D01*
X87124639Y-93528419D01*
X87199000Y-93154581D01*
X87199000Y-92773419D01*
X87124639Y-92399581D01*
X87006348Y-92114000D01*
X87665928Y-92114000D01*
X87665928Y-93814000D01*
X87678188Y-93938482D01*
X87714498Y-94058180D01*
X87773463Y-94168494D01*
X87852815Y-94265185D01*
X87949506Y-94344537D01*
X88059820Y-94403502D01*
X88179518Y-94439812D01*
X88304000Y-94452072D01*
X90004000Y-94452072D01*
X90128482Y-94439812D01*
X90248180Y-94403502D01*
X90358494Y-94344537D01*
X90455185Y-94265185D01*
X90534537Y-94168494D01*
X90593502Y-94058180D01*
X90617966Y-93977534D01*
X90693731Y-94061588D01*
X90927080Y-94235641D01*
X91189901Y-94360825D01*
X91337110Y-94405476D01*
X91567000Y-94284155D01*
X91567000Y-93091000D01*
X91821000Y-93091000D01*
X91821000Y-94284155D01*
X92050890Y-94405476D01*
X92198099Y-94360825D01*
X92460920Y-94235641D01*
X92694269Y-94061588D01*
X92889178Y-93845355D01*
X93038157Y-93595252D01*
X93135481Y-93320891D01*
X93014814Y-93091000D01*
X91821000Y-93091000D01*
X91567000Y-93091000D01*
X91547000Y-93091000D01*
X91547000Y-92837000D01*
X91567000Y-92837000D01*
X91567000Y-91643845D01*
X91821000Y-91643845D01*
X91821000Y-92837000D01*
X93014814Y-92837000D01*
X93135481Y-92607109D01*
X93038157Y-92332748D01*
X92889178Y-92082645D01*
X92694269Y-91866412D01*
X92460920Y-91692359D01*
X92198099Y-91567175D01*
X92050890Y-91522524D01*
X91821000Y-91643845D01*
X91567000Y-91643845D01*
X91337110Y-91522524D01*
X91189901Y-91567175D01*
X90927080Y-91692359D01*
X90693731Y-91866412D01*
X90617966Y-91950466D01*
X90593502Y-91869820D01*
X90534537Y-91759506D01*
X90455185Y-91662815D01*
X90358494Y-91583463D01*
X90248180Y-91524498D01*
X90128482Y-91488188D01*
X90004000Y-91475928D01*
X88304000Y-91475928D01*
X88179518Y-91488188D01*
X88059820Y-91524498D01*
X87949506Y-91583463D01*
X87852815Y-91662815D01*
X87773463Y-91759506D01*
X87714498Y-91869820D01*
X87678188Y-91989518D01*
X87665928Y-92114000D01*
X87006348Y-92114000D01*
X86978775Y-92047434D01*
X86767013Y-91730509D01*
X86497491Y-91460987D01*
X86180566Y-91249225D01*
X85828419Y-91103361D01*
X85454581Y-91029000D01*
X85073419Y-91029000D01*
X84699581Y-91103361D01*
X84347434Y-91249225D01*
X84030509Y-91460987D01*
X83760987Y-91730509D01*
X83549225Y-92047434D01*
X83403361Y-92399581D01*
X83329000Y-92773419D01*
X82199000Y-92773419D01*
X82124639Y-92399581D01*
X81978775Y-92047434D01*
X81767013Y-91730509D01*
X81497491Y-91460987D01*
X81180566Y-91249225D01*
X80828419Y-91103361D01*
X80454581Y-91029000D01*
X80073419Y-91029000D01*
X79699581Y-91103361D01*
X79347434Y-91249225D01*
X79030509Y-91460987D01*
X78760987Y-91730509D01*
X78549225Y-92047434D01*
X78403361Y-92399581D01*
X78329000Y-92773419D01*
X76631000Y-92773419D01*
X76631000Y-88569000D01*
X101473000Y-88569000D01*
X101473000Y-117493421D01*
%TA.AperFunction,Conductor*%
D31*
G36*
X101473000Y-117493421D02*
G01*
X96516000Y-112536422D01*
X96516000Y-104297454D01*
X96548205Y-104249256D01*
X96626226Y-104060898D01*
X96666000Y-103860939D01*
X96666000Y-103657061D01*
X96626226Y-103457102D01*
X96548205Y-103268744D01*
X96434937Y-103099226D01*
X96290774Y-102955063D01*
X96121256Y-102841795D01*
X95932898Y-102763774D01*
X95732939Y-102724000D01*
X95529061Y-102724000D01*
X95329102Y-102763774D01*
X95140744Y-102841795D01*
X94971226Y-102955063D01*
X94827063Y-103099226D01*
X94713795Y-103268744D01*
X94635774Y-103457102D01*
X94596000Y-103657061D01*
X94596000Y-103860939D01*
X94635774Y-104060898D01*
X94713795Y-104249256D01*
X94746001Y-104297456D01*
X94746000Y-112859531D01*
X94741719Y-112903000D01*
X94746000Y-112946469D01*
X94746000Y-112946476D01*
X94758805Y-113076489D01*
X94809411Y-113243312D01*
X94891589Y-113397058D01*
X95002183Y-113531817D01*
X95035956Y-113559534D01*
X101473000Y-119996579D01*
X101473000Y-132207000D01*
X99743983Y-132207000D01*
X99705475Y-132149368D01*
X99498632Y-131942525D01*
X99324240Y-131826000D01*
X99498632Y-131709475D01*
X99705475Y-131502632D01*
X99867990Y-131259411D01*
X99979932Y-130989158D01*
X100037000Y-130702260D01*
X100037000Y-130409740D01*
X99979932Y-130122842D01*
X99867990Y-129852589D01*
X99705475Y-129609368D01*
X99498632Y-129402525D01*
X99316466Y-129280805D01*
X99433355Y-129211178D01*
X99649588Y-129016269D01*
X99823641Y-128782920D01*
X99948825Y-128520099D01*
X99993476Y-128372890D01*
X99872155Y-128143000D01*
X98679000Y-128143000D01*
X98679000Y-128163000D01*
X98425000Y-128163000D01*
X98425000Y-128143000D01*
X97231845Y-128143000D01*
X97110524Y-128372890D01*
X97155175Y-128520099D01*
X97280359Y-128782920D01*
X97454412Y-129016269D01*
X97670645Y-129211178D01*
X97787534Y-129280805D01*
X97605368Y-129402525D01*
X97398525Y-129609368D01*
X97236010Y-129852589D01*
X97124068Y-130122842D01*
X97067000Y-130409740D01*
X97067000Y-130702260D01*
X97124068Y-130989158D01*
X97236010Y-131259411D01*
X97398525Y-131502632D01*
X97605368Y-131709475D01*
X97779760Y-131826000D01*
X97605368Y-131942525D01*
X97398525Y-132149368D01*
X97360017Y-132207000D01*
X90624461Y-132207000D01*
X90657226Y-132127898D01*
X90697000Y-131927939D01*
X90697000Y-131724061D01*
X90657226Y-131524102D01*
X90579205Y-131335744D01*
X90465937Y-131166226D01*
X90321774Y-131022063D01*
X90152256Y-130908795D01*
X89963898Y-130830774D01*
X89763939Y-130791000D01*
X89560061Y-130791000D01*
X89360102Y-130830774D01*
X89171744Y-130908795D01*
X89002226Y-131022063D01*
X88858063Y-131166226D01*
X88744795Y-131335744D01*
X88666774Y-131524102D01*
X88627000Y-131724061D01*
X88627000Y-131927939D01*
X88666774Y-132127898D01*
X88699539Y-132207000D01*
X84324166Y-132207000D01*
X84326572Y-131863000D01*
X84314312Y-131738518D01*
X84278002Y-131618820D01*
X84219037Y-131508506D01*
X84139685Y-131411815D01*
X84042994Y-131332463D01*
X83932680Y-131273498D01*
X83812982Y-131237188D01*
X83688500Y-131224928D01*
X83386750Y-131228000D01*
X83228000Y-131386750D01*
X83228000Y-132207000D01*
X82974000Y-132207000D01*
X82974000Y-131386750D01*
X82815250Y-131228000D01*
X82513500Y-131224928D01*
X82389018Y-131237188D01*
X82269320Y-131273498D01*
X82159006Y-131332463D01*
X82062315Y-131411815D01*
X81996842Y-131491594D01*
X81991462Y-131485038D01*
X81856886Y-131374595D01*
X81703350Y-131292528D01*
X81536754Y-131241992D01*
X81363500Y-131224928D01*
X80688500Y-131224928D01*
X80515246Y-131241992D01*
X80348650Y-131292528D01*
X80195114Y-131374595D01*
X80060538Y-131485038D01*
X79950095Y-131619614D01*
X79868028Y-131773150D01*
X79817492Y-131939746D01*
X79800428Y-132113000D01*
X79800428Y-132207000D01*
X76631000Y-132207000D01*
X76631000Y-127659110D01*
X97110524Y-127659110D01*
X97231845Y-127889000D01*
X98425000Y-127889000D01*
X98425000Y-126695186D01*
X98679000Y-126695186D01*
X98679000Y-127889000D01*
X99872155Y-127889000D01*
X99993476Y-127659110D01*
X99948825Y-127511901D01*
X99823641Y-127249080D01*
X99649588Y-127015731D01*
X99433355Y-126820822D01*
X99183252Y-126671843D01*
X98908891Y-126574519D01*
X98679000Y-126695186D01*
X98425000Y-126695186D01*
X98195109Y-126574519D01*
X97920748Y-126671843D01*
X97670645Y-126820822D01*
X97454412Y-127015731D01*
X97280359Y-127249080D01*
X97155175Y-127511901D01*
X97110524Y-127659110D01*
X76631000Y-127659110D01*
X76631000Y-118935419D01*
X79345000Y-118935419D01*
X79345000Y-119316581D01*
X79419361Y-119690419D01*
X79565225Y-120042566D01*
X79776987Y-120359491D01*
X80046509Y-120629013D01*
X80363434Y-120840775D01*
X80715581Y-120986639D01*
X81089419Y-121061000D01*
X81470581Y-121061000D01*
X81844419Y-120986639D01*
X82196566Y-120840775D01*
X82513491Y-120629013D01*
X82783013Y-120359491D01*
X82994775Y-120042566D01*
X83140639Y-119690419D01*
X83215000Y-119316581D01*
X83215000Y-118935419D01*
X87807000Y-118935419D01*
X87807000Y-119316581D01*
X87881361Y-119690419D01*
X88027225Y-120042566D01*
X88238987Y-120359491D01*
X88508509Y-120629013D01*
X88825434Y-120840775D01*
X89177581Y-120986639D01*
X89551419Y-121061000D01*
X89932581Y-121061000D01*
X90306419Y-120986639D01*
X90658566Y-120840775D01*
X90975491Y-120629013D01*
X91245013Y-120359491D01*
X91456775Y-120042566D01*
X91602639Y-119690419D01*
X91677000Y-119316581D01*
X91677000Y-118935419D01*
X92807000Y-118935419D01*
X92807000Y-119316581D01*
X92881361Y-119690419D01*
X93027225Y-120042566D01*
X93238987Y-120359491D01*
X93508509Y-120629013D01*
X93825434Y-120840775D01*
X94177581Y-120986639D01*
X94551419Y-121061000D01*
X94932581Y-121061000D01*
X95306419Y-120986639D01*
X95658566Y-120840775D01*
X95975491Y-120629013D01*
X96245013Y-120359491D01*
X96456775Y-120042566D01*
X96602639Y-119690419D01*
X96677000Y-119316581D01*
X96677000Y-118935419D01*
X96602639Y-118561581D01*
X96456775Y-118209434D01*
X96245013Y-117892509D01*
X95975491Y-117622987D01*
X95658566Y-117411225D01*
X95306419Y-117265361D01*
X94932581Y-117191000D01*
X94551419Y-117191000D01*
X94177581Y-117265361D01*
X93825434Y-117411225D01*
X93508509Y-117622987D01*
X93238987Y-117892509D01*
X93027225Y-118209434D01*
X92881361Y-118561581D01*
X92807000Y-118935419D01*
X91677000Y-118935419D01*
X91602639Y-118561581D01*
X91456775Y-118209434D01*
X91245013Y-117892509D01*
X90975491Y-117622987D01*
X90658566Y-117411225D01*
X90306419Y-117265361D01*
X89932581Y-117191000D01*
X89551419Y-117191000D01*
X89177581Y-117265361D01*
X88825434Y-117411225D01*
X88508509Y-117622987D01*
X88238987Y-117892509D01*
X88027225Y-118209434D01*
X87881361Y-118561581D01*
X87807000Y-118935419D01*
X83215000Y-118935419D01*
X83140639Y-118561581D01*
X82994775Y-118209434D01*
X82783013Y-117892509D01*
X82513491Y-117622987D01*
X82196566Y-117411225D01*
X81844419Y-117265361D01*
X81470581Y-117191000D01*
X81089419Y-117191000D01*
X80715581Y-117265361D01*
X80363434Y-117411225D01*
X80046509Y-117622987D01*
X79776987Y-117892509D01*
X79565225Y-118209434D01*
X79419361Y-118561581D01*
X79345000Y-118935419D01*
X76631000Y-118935419D01*
X76631000Y-113935419D01*
X79345000Y-113935419D01*
X79345000Y-114316581D01*
X79419361Y-114690419D01*
X79565225Y-115042566D01*
X79776987Y-115359491D01*
X80046509Y-115629013D01*
X80363434Y-115840775D01*
X80715581Y-115986639D01*
X81089419Y-116061000D01*
X81470581Y-116061000D01*
X81844419Y-115986639D01*
X82196566Y-115840775D01*
X82513491Y-115629013D01*
X82783013Y-115359491D01*
X82994775Y-115042566D01*
X83140639Y-114690419D01*
X83215000Y-114316581D01*
X83215000Y-113935419D01*
X83140639Y-113561581D01*
X82994775Y-113209434D01*
X82783013Y-112892509D01*
X82513491Y-112622987D01*
X82196566Y-112411225D01*
X81844419Y-112265361D01*
X81470581Y-112191000D01*
X81089419Y-112191000D01*
X80715581Y-112265361D01*
X80363434Y-112411225D01*
X80046509Y-112622987D01*
X79776987Y-112892509D01*
X79565225Y-113209434D01*
X79419361Y-113561581D01*
X79345000Y-113935419D01*
X76631000Y-113935419D01*
X76631000Y-111594000D01*
X85379928Y-111594000D01*
X85392188Y-111718482D01*
X85428498Y-111838180D01*
X85487463Y-111948494D01*
X85566815Y-112045185D01*
X85663506Y-112124537D01*
X85773820Y-112183502D01*
X85893518Y-112219812D01*
X86018000Y-112232072D01*
X86582250Y-112229000D01*
X86741000Y-112070250D01*
X86741000Y-110871000D01*
X86995000Y-110871000D01*
X86995000Y-112070250D01*
X87153750Y-112229000D01*
X87718000Y-112232072D01*
X87842482Y-112219812D01*
X87962180Y-112183502D01*
X88072494Y-112124537D01*
X88169185Y-112045185D01*
X88248537Y-111948494D01*
X88307502Y-111838180D01*
X88343812Y-111718482D01*
X88356072Y-111594000D01*
X88353000Y-111029750D01*
X88194250Y-110871000D01*
X86995000Y-110871000D01*
X86741000Y-110871000D01*
X85541750Y-110871000D01*
X85383000Y-111029750D01*
X85379928Y-111594000D01*
X76631000Y-111594000D01*
X76631000Y-109894000D01*
X85379928Y-109894000D01*
X85383000Y-110458250D01*
X85541750Y-110617000D01*
X86741000Y-110617000D01*
X86741000Y-110597000D01*
X86995000Y-110597000D01*
X86995000Y-110617000D01*
X88194250Y-110617000D01*
X88353000Y-110458250D01*
X88356030Y-109901560D01*
X89922045Y-109901560D01*
X89983932Y-110137368D01*
X90225790Y-110250266D01*
X90485027Y-110313811D01*
X90751680Y-110325561D01*
X91015501Y-110285063D01*
X91266353Y-110193875D01*
X91372068Y-110137368D01*
X91433955Y-109901560D01*
X90678000Y-109145605D01*
X89922045Y-109901560D01*
X88356030Y-109901560D01*
X88356072Y-109894000D01*
X88343812Y-109769518D01*
X88307502Y-109649820D01*
X88248537Y-109539506D01*
X88169185Y-109442815D01*
X88072494Y-109363463D01*
X87962180Y-109304498D01*
X87889620Y-109282487D01*
X88021475Y-109150632D01*
X88095610Y-109039680D01*
X89318439Y-109039680D01*
X89358937Y-109303501D01*
X89450125Y-109554353D01*
X89506632Y-109660068D01*
X89742440Y-109721955D01*
X90498395Y-108966000D01*
X90857605Y-108966000D01*
X91613560Y-109721955D01*
X91849368Y-109660068D01*
X91962266Y-109418210D01*
X92025811Y-109158973D01*
X92037561Y-108892320D01*
X91997063Y-108628499D01*
X91905875Y-108377647D01*
X91849368Y-108271932D01*
X91613560Y-108210045D01*
X90857605Y-108966000D01*
X90498395Y-108966000D01*
X89742440Y-108210045D01*
X89506632Y-108271932D01*
X89393734Y-108513790D01*
X89330189Y-108773027D01*
X89318439Y-109039680D01*
X88095610Y-109039680D01*
X88183990Y-108907411D01*
X88295932Y-108637158D01*
X88353000Y-108350260D01*
X88353000Y-108057740D01*
X88295932Y-107770842D01*
X88183990Y-107500589D01*
X88021475Y-107257368D01*
X87814632Y-107050525D01*
X87571411Y-106888010D01*
X87301158Y-106776068D01*
X87014260Y-106719000D01*
X86721740Y-106719000D01*
X86434842Y-106776068D01*
X86164589Y-106888010D01*
X85921368Y-107050525D01*
X85714525Y-107257368D01*
X85552010Y-107500589D01*
X85440068Y-107770842D01*
X85383000Y-108057740D01*
X85383000Y-108350260D01*
X85440068Y-108637158D01*
X85552010Y-108907411D01*
X85714525Y-109150632D01*
X85846380Y-109282487D01*
X85773820Y-109304498D01*
X85663506Y-109363463D01*
X85566815Y-109442815D01*
X85487463Y-109539506D01*
X85428498Y-109649820D01*
X85392188Y-109769518D01*
X85379928Y-109894000D01*
X76631000Y-109894000D01*
X76631000Y-105727419D01*
X79345000Y-105727419D01*
X79345000Y-106108581D01*
X79419361Y-106482419D01*
X79565225Y-106834566D01*
X79776987Y-107151491D01*
X80046509Y-107421013D01*
X80363434Y-107632775D01*
X80715581Y-107778639D01*
X81089419Y-107853000D01*
X81470581Y-107853000D01*
X81844419Y-107778639D01*
X82196566Y-107632775D01*
X82513491Y-107421013D01*
X82783013Y-107151491D01*
X82994775Y-106834566D01*
X83140639Y-106482419D01*
X83215000Y-106108581D01*
X83215000Y-105727419D01*
X83140639Y-105353581D01*
X82994775Y-105001434D01*
X82783013Y-104684509D01*
X82513491Y-104414987D01*
X82196566Y-104203225D01*
X81844419Y-104057361D01*
X81470581Y-103983000D01*
X81089419Y-103983000D01*
X80715581Y-104057361D01*
X80363434Y-104203225D01*
X80046509Y-104414987D01*
X79776987Y-104684509D01*
X79565225Y-105001434D01*
X79419361Y-105353581D01*
X79345000Y-105727419D01*
X76631000Y-105727419D01*
X76631000Y-103752544D01*
X89323000Y-103752544D01*
X89323000Y-104019456D01*
X89375072Y-104281239D01*
X89477215Y-104527833D01*
X89625503Y-104749762D01*
X89814238Y-104938497D01*
X90036167Y-105086785D01*
X90203266Y-105156000D01*
X90036167Y-105225215D01*
X89814238Y-105373503D01*
X89625503Y-105562238D01*
X89477215Y-105784167D01*
X89375072Y-106030761D01*
X89323000Y-106292544D01*
X89323000Y-106559456D01*
X89375072Y-106821239D01*
X89477215Y-107067833D01*
X89625503Y-107289762D01*
X89814238Y-107478497D01*
X90036167Y-107626785D01*
X90204324Y-107696438D01*
X90089647Y-107738125D01*
X89983932Y-107794632D01*
X89922045Y-108030440D01*
X90678000Y-108786395D01*
X91433955Y-108030440D01*
X91372068Y-107794632D01*
X91156993Y-107694236D01*
X91319833Y-107626785D01*
X91541762Y-107478497D01*
X91730497Y-107289762D01*
X91878785Y-107067833D01*
X91980928Y-106821239D01*
X92033000Y-106559456D01*
X92033000Y-106292544D01*
X91980928Y-106030761D01*
X91878785Y-105784167D01*
X91730497Y-105562238D01*
X91541762Y-105373503D01*
X91319833Y-105225215D01*
X91152734Y-105156000D01*
X91319833Y-105086785D01*
X91541762Y-104938497D01*
X91730497Y-104749762D01*
X91878785Y-104527833D01*
X91980928Y-104281239D01*
X92033000Y-104019456D01*
X92033000Y-103752544D01*
X91980928Y-103490761D01*
X91878785Y-103244167D01*
X91730497Y-103022238D01*
X91541762Y-102833503D01*
X91319833Y-102685215D01*
X91073239Y-102583072D01*
X90811456Y-102531000D01*
X90544544Y-102531000D01*
X90282761Y-102583072D01*
X90036167Y-102685215D01*
X89814238Y-102833503D01*
X89625503Y-103022238D01*
X89477215Y-103244167D01*
X89375072Y-103490761D01*
X89323000Y-103752544D01*
X76631000Y-103752544D01*
X76631000Y-100727419D01*
X79345000Y-100727419D01*
X79345000Y-101108581D01*
X79419361Y-101482419D01*
X79565225Y-101834566D01*
X79776987Y-102151491D01*
X80046509Y-102421013D01*
X80363434Y-102632775D01*
X80715581Y-102778639D01*
X81089419Y-102853000D01*
X81470581Y-102853000D01*
X81844419Y-102778639D01*
X82196566Y-102632775D01*
X82513491Y-102421013D01*
X82783013Y-102151491D01*
X82994775Y-101834566D01*
X83140639Y-101482419D01*
X83215000Y-101108581D01*
X83215000Y-100727419D01*
X83140639Y-100353581D01*
X82994775Y-100001434D01*
X82783013Y-99684509D01*
X82513491Y-99414987D01*
X82196566Y-99203225D01*
X81844419Y-99057361D01*
X81470581Y-98983000D01*
X81089419Y-98983000D01*
X80715581Y-99057361D01*
X80363434Y-99203225D01*
X80046509Y-99414987D01*
X79776987Y-99684509D01*
X79565225Y-100001434D01*
X79419361Y-100353581D01*
X79345000Y-100727419D01*
X76631000Y-100727419D01*
X76631000Y-92773419D01*
X78329000Y-92773419D01*
X78329000Y-93154581D01*
X78403361Y-93528419D01*
X78549225Y-93880566D01*
X78760987Y-94197491D01*
X79030509Y-94467013D01*
X79347434Y-94678775D01*
X79699581Y-94824639D01*
X80073419Y-94899000D01*
X80454581Y-94899000D01*
X80828419Y-94824639D01*
X81180566Y-94678775D01*
X81497491Y-94467013D01*
X81767013Y-94197491D01*
X81978775Y-93880566D01*
X82124639Y-93528419D01*
X82199000Y-93154581D01*
X82199000Y-92773419D01*
X83329000Y-92773419D01*
X83329000Y-93154581D01*
X83403361Y-93528419D01*
X83549225Y-93880566D01*
X83760987Y-94197491D01*
X84030509Y-94467013D01*
X84347434Y-94678775D01*
X84699581Y-94824639D01*
X85073419Y-94899000D01*
X85454581Y-94899000D01*
X85828419Y-94824639D01*
X86180566Y-94678775D01*
X86497491Y-94467013D01*
X86767013Y-94197491D01*
X86978775Y-93880566D01*
X87124639Y-93528419D01*
X87199000Y-93154581D01*
X87199000Y-92773419D01*
X87124639Y-92399581D01*
X87006348Y-92114000D01*
X87665928Y-92114000D01*
X87665928Y-93814000D01*
X87678188Y-93938482D01*
X87714498Y-94058180D01*
X87773463Y-94168494D01*
X87852815Y-94265185D01*
X87949506Y-94344537D01*
X88059820Y-94403502D01*
X88179518Y-94439812D01*
X88304000Y-94452072D01*
X90004000Y-94452072D01*
X90128482Y-94439812D01*
X90248180Y-94403502D01*
X90358494Y-94344537D01*
X90455185Y-94265185D01*
X90534537Y-94168494D01*
X90593502Y-94058180D01*
X90617966Y-93977534D01*
X90693731Y-94061588D01*
X90927080Y-94235641D01*
X91189901Y-94360825D01*
X91337110Y-94405476D01*
X91567000Y-94284155D01*
X91567000Y-93091000D01*
X91821000Y-93091000D01*
X91821000Y-94284155D01*
X92050890Y-94405476D01*
X92198099Y-94360825D01*
X92460920Y-94235641D01*
X92694269Y-94061588D01*
X92889178Y-93845355D01*
X93038157Y-93595252D01*
X93135481Y-93320891D01*
X93014814Y-93091000D01*
X91821000Y-93091000D01*
X91567000Y-93091000D01*
X91547000Y-93091000D01*
X91547000Y-92837000D01*
X91567000Y-92837000D01*
X91567000Y-91643845D01*
X91821000Y-91643845D01*
X91821000Y-92837000D01*
X93014814Y-92837000D01*
X93135481Y-92607109D01*
X93038157Y-92332748D01*
X92889178Y-92082645D01*
X92694269Y-91866412D01*
X92460920Y-91692359D01*
X92198099Y-91567175D01*
X92050890Y-91522524D01*
X91821000Y-91643845D01*
X91567000Y-91643845D01*
X91337110Y-91522524D01*
X91189901Y-91567175D01*
X90927080Y-91692359D01*
X90693731Y-91866412D01*
X90617966Y-91950466D01*
X90593502Y-91869820D01*
X90534537Y-91759506D01*
X90455185Y-91662815D01*
X90358494Y-91583463D01*
X90248180Y-91524498D01*
X90128482Y-91488188D01*
X90004000Y-91475928D01*
X88304000Y-91475928D01*
X88179518Y-91488188D01*
X88059820Y-91524498D01*
X87949506Y-91583463D01*
X87852815Y-91662815D01*
X87773463Y-91759506D01*
X87714498Y-91869820D01*
X87678188Y-91989518D01*
X87665928Y-92114000D01*
X87006348Y-92114000D01*
X86978775Y-92047434D01*
X86767013Y-91730509D01*
X86497491Y-91460987D01*
X86180566Y-91249225D01*
X85828419Y-91103361D01*
X85454581Y-91029000D01*
X85073419Y-91029000D01*
X84699581Y-91103361D01*
X84347434Y-91249225D01*
X84030509Y-91460987D01*
X83760987Y-91730509D01*
X83549225Y-92047434D01*
X83403361Y-92399581D01*
X83329000Y-92773419D01*
X82199000Y-92773419D01*
X82124639Y-92399581D01*
X81978775Y-92047434D01*
X81767013Y-91730509D01*
X81497491Y-91460987D01*
X81180566Y-91249225D01*
X80828419Y-91103361D01*
X80454581Y-91029000D01*
X80073419Y-91029000D01*
X79699581Y-91103361D01*
X79347434Y-91249225D01*
X79030509Y-91460987D01*
X78760987Y-91730509D01*
X78549225Y-92047434D01*
X78403361Y-92399581D01*
X78329000Y-92773419D01*
X76631000Y-92773419D01*
X76631000Y-88569000D01*
X101473000Y-88569000D01*
X101473000Y-117493421D01*
G37*
%TD.AperFunction*%
%TD*%
D30*
%TO.N,GND*%
X100711000Y-140585000D02*
X95200133Y-140585000D01*
X92867850Y-138252718D01*
X92819853Y-138011426D01*
X92711680Y-137750273D01*
X92554637Y-137515241D01*
X92354759Y-137315363D01*
X92119727Y-137158320D01*
X91858574Y-137050147D01*
X91581335Y-136995000D01*
X91298665Y-136995000D01*
X91145604Y-137025446D01*
X90872344Y-136752187D01*
X90847763Y-136722235D01*
X90817809Y-136697652D01*
X90447000Y-136326843D01*
X90447000Y-134786000D01*
X97063928Y-134786000D01*
X97063928Y-136486000D01*
X97076188Y-136610482D01*
X97112498Y-136730180D01*
X97171463Y-136840494D01*
X97250815Y-136937185D01*
X97347506Y-137016537D01*
X97457820Y-137075502D01*
X97577518Y-137111812D01*
X97702000Y-137124072D01*
X99402000Y-137124072D01*
X99526482Y-137111812D01*
X99646180Y-137075502D01*
X99756494Y-137016537D01*
X99853185Y-136937185D01*
X99932537Y-136840494D01*
X99991502Y-136730180D01*
X100027812Y-136610482D01*
X100040072Y-136486000D01*
X100040072Y-134786000D01*
X100027812Y-134661518D01*
X99991502Y-134541820D01*
X99932537Y-134431506D01*
X99853185Y-134334815D01*
X99756494Y-134255463D01*
X99646180Y-134196498D01*
X99573620Y-134174487D01*
X99705475Y-134042632D01*
X99867990Y-133799411D01*
X99979932Y-133529158D01*
X100037000Y-133242260D01*
X100037000Y-132949740D01*
X99979932Y-132662842D01*
X99867990Y-132392589D01*
X99705475Y-132149368D01*
X99498632Y-131942525D01*
X99324240Y-131826000D01*
X99498632Y-131709475D01*
X99705475Y-131502632D01*
X99867990Y-131259411D01*
X99979932Y-130989158D01*
X100037000Y-130702260D01*
X100037000Y-130409740D01*
X99979932Y-130122842D01*
X99867990Y-129852589D01*
X99705475Y-129609368D01*
X99498632Y-129402525D01*
X99316466Y-129280805D01*
X99433355Y-129211178D01*
X99649588Y-129016269D01*
X99823641Y-128782920D01*
X99948825Y-128520099D01*
X99993476Y-128372890D01*
X99872155Y-128143000D01*
X98679000Y-128143000D01*
X98679000Y-128163000D01*
X98425000Y-128163000D01*
X98425000Y-128143000D01*
X97231845Y-128143000D01*
X97110524Y-128372890D01*
X97155175Y-128520099D01*
X97280359Y-128782920D01*
X97454412Y-129016269D01*
X97670645Y-129211178D01*
X97787534Y-129280805D01*
X97605368Y-129402525D01*
X97398525Y-129609368D01*
X97236010Y-129852589D01*
X97124068Y-130122842D01*
X97067000Y-130409740D01*
X97067000Y-130702260D01*
X97124068Y-130989158D01*
X97236010Y-131259411D01*
X97398525Y-131502632D01*
X97605368Y-131709475D01*
X97779760Y-131826000D01*
X97605368Y-131942525D01*
X97398525Y-132149368D01*
X97236010Y-132392589D01*
X97124068Y-132662842D01*
X97067000Y-132949740D01*
X97067000Y-133242260D01*
X97124068Y-133529158D01*
X97236010Y-133799411D01*
X97398525Y-134042632D01*
X97530380Y-134174487D01*
X97457820Y-134196498D01*
X97347506Y-134255463D01*
X97250815Y-134334815D01*
X97171463Y-134431506D01*
X97112498Y-134541820D01*
X97076188Y-134661518D01*
X97063928Y-134786000D01*
X90447000Y-134786000D01*
X90447000Y-132504711D01*
X90465937Y-132485774D01*
X90579205Y-132316256D01*
X90657226Y-132127898D01*
X90697000Y-131927939D01*
X90697000Y-131724061D01*
X90657226Y-131524102D01*
X90579205Y-131335744D01*
X90465937Y-131166226D01*
X90321774Y-131022063D01*
X90152256Y-130908795D01*
X89963898Y-130830774D01*
X89763939Y-130791000D01*
X89560061Y-130791000D01*
X89360102Y-130830774D01*
X89171744Y-130908795D01*
X89002226Y-131022063D01*
X88858063Y-131166226D01*
X88744795Y-131335744D01*
X88666774Y-131524102D01*
X88627000Y-131724061D01*
X88627000Y-131927939D01*
X88666774Y-132127898D01*
X88744795Y-132316256D01*
X88858063Y-132485774D01*
X88877001Y-132504712D01*
X88877000Y-136494999D01*
X82741157Y-136494999D01*
X82479923Y-136233765D01*
X82513500Y-136237072D01*
X82815250Y-136234000D01*
X82974000Y-136075250D01*
X82974000Y-135001000D01*
X83228000Y-135001000D01*
X83228000Y-136075250D01*
X83386750Y-136234000D01*
X83688500Y-136237072D01*
X83812982Y-136224812D01*
X83932680Y-136188502D01*
X84042994Y-136129537D01*
X84139685Y-136050185D01*
X84219037Y-135953494D01*
X84278002Y-135843180D01*
X84314312Y-135723482D01*
X84326572Y-135599000D01*
X84323500Y-135159750D01*
X84164750Y-135001000D01*
X83228000Y-135001000D01*
X82974000Y-135001000D01*
X82954000Y-135001000D01*
X82954000Y-134747000D01*
X82974000Y-134747000D01*
X82974000Y-132715000D01*
X83228000Y-132715000D01*
X83228000Y-134747000D01*
X84164750Y-134747000D01*
X84323500Y-134588250D01*
X84326572Y-134149000D01*
X84314312Y-134024518D01*
X84278002Y-133904820D01*
X84219037Y-133794506D01*
X84166919Y-133731000D01*
X84219037Y-133667494D01*
X84278002Y-133557180D01*
X84314312Y-133437482D01*
X84326572Y-133313000D01*
X84323500Y-132873750D01*
X84164750Y-132715000D01*
X83228000Y-132715000D01*
X82974000Y-132715000D01*
X82954000Y-132715000D01*
X82954000Y-132461000D01*
X82974000Y-132461000D01*
X82974000Y-131386750D01*
X83228000Y-131386750D01*
X83228000Y-132461000D01*
X84164750Y-132461000D01*
X84323500Y-132302250D01*
X84326572Y-131863000D01*
X84314312Y-131738518D01*
X84278002Y-131618820D01*
X84219037Y-131508506D01*
X84139685Y-131411815D01*
X84042994Y-131332463D01*
X83932680Y-131273498D01*
X83812982Y-131237188D01*
X83688500Y-131224928D01*
X83386750Y-131228000D01*
X83228000Y-131386750D01*
X82974000Y-131386750D01*
X82815250Y-131228000D01*
X82513500Y-131224928D01*
X82389018Y-131237188D01*
X82269320Y-131273498D01*
X82159006Y-131332463D01*
X82062315Y-131411815D01*
X81996842Y-131491594D01*
X81991462Y-131485038D01*
X81856886Y-131374595D01*
X81703350Y-131292528D01*
X81536754Y-131241992D01*
X81363500Y-131224928D01*
X80688500Y-131224928D01*
X80515246Y-131241992D01*
X80348650Y-131292528D01*
X80195114Y-131374595D01*
X80060538Y-131485038D01*
X79950095Y-131619614D01*
X79868028Y-131773150D01*
X79817492Y-131939746D01*
X79800428Y-132113000D01*
X79800428Y-133063000D01*
X79817492Y-133236254D01*
X79868028Y-133402850D01*
X79950095Y-133556386D01*
X80014989Y-133635460D01*
X79991000Y-133756061D01*
X79991000Y-133855771D01*
X79950095Y-133905614D01*
X79868028Y-134059150D01*
X79817492Y-134225746D01*
X79800428Y-134399000D01*
X79800428Y-135349000D01*
X79817492Y-135522254D01*
X79868028Y-135688850D01*
X79950095Y-135842386D01*
X80060538Y-135976962D01*
X80195114Y-136087405D01*
X80279193Y-136132346D01*
X80297246Y-136191859D01*
X80297247Y-136191860D01*
X80370139Y-136328233D01*
X80388119Y-136350141D01*
X80443655Y-136417812D01*
X80443659Y-136417816D01*
X80468237Y-136447764D01*
X80498185Y-136472342D01*
X81833657Y-137807815D01*
X81858235Y-137837763D01*
X81888183Y-137862341D01*
X81888186Y-137862344D01*
X81917558Y-137886449D01*
X81977766Y-137935861D01*
X82114139Y-138008753D01*
X82227671Y-138043193D01*
X82262111Y-138053640D01*
X82276489Y-138055056D01*
X82377438Y-138064999D01*
X82377445Y-138064999D01*
X82415998Y-138068796D01*
X82428990Y-138067516D01*
X82385000Y-138288665D01*
X82385000Y-138571335D01*
X82440147Y-138848574D01*
X82548320Y-139109727D01*
X82705363Y-139344759D01*
X82905241Y-139544637D01*
X83140273Y-139701680D01*
X83401426Y-139809853D01*
X83678665Y-139865000D01*
X83961335Y-139865000D01*
X84238574Y-139809853D01*
X84499727Y-139701680D01*
X84734759Y-139544637D01*
X84934637Y-139344759D01*
X85091680Y-139109727D01*
X85199853Y-138848574D01*
X85255000Y-138571335D01*
X85255000Y-138288665D01*
X85210509Y-138064999D01*
X89964842Y-138064999D01*
X90035446Y-138135604D01*
X90005000Y-138288665D01*
X90005000Y-138571335D01*
X90060147Y-138848574D01*
X90168320Y-139109727D01*
X90325363Y-139344759D01*
X90525241Y-139544637D01*
X90760273Y-139701680D01*
X91021426Y-139809853D01*
X91262718Y-139857850D01*
X93888013Y-142483146D01*
X93923551Y-142526449D01*
X93966854Y-142561987D01*
X93966856Y-142561989D01*
X94096377Y-142668284D01*
X94293553Y-142773676D01*
X94507501Y-142838577D01*
X94730000Y-142860491D01*
X94785752Y-142855000D01*
X100711000Y-142855000D01*
X100711000Y-148667000D01*
X76631000Y-148667000D01*
X76631000Y-147042702D01*
X83006903Y-147042702D01*
X83078486Y-147286671D01*
X83333996Y-147407571D01*
X83608184Y-147476300D01*
X83890512Y-147490217D01*
X84170130Y-147448787D01*
X84436292Y-147353603D01*
X84561514Y-147286671D01*
X84633097Y-147042702D01*
X83820000Y-146229605D01*
X83006903Y-147042702D01*
X76631000Y-147042702D01*
X76631000Y-146120512D01*
X82379783Y-146120512D01*
X82421213Y-146400130D01*
X82516397Y-146666292D01*
X82583329Y-146791514D01*
X82827298Y-146863097D01*
X83640395Y-146050000D01*
X83999605Y-146050000D01*
X84812702Y-146863097D01*
X85056671Y-146791514D01*
X85177571Y-146536004D01*
X85246300Y-146261816D01*
X85260217Y-145979488D01*
X85218787Y-145699870D01*
X85123603Y-145433708D01*
X85056671Y-145308486D01*
X84857340Y-145250000D01*
X90001928Y-145250000D01*
X90001928Y-146850000D01*
X90014188Y-146974482D01*
X90050498Y-147094180D01*
X90109463Y-147204494D01*
X90188815Y-147301185D01*
X90285506Y-147380537D01*
X90395820Y-147439502D01*
X90515518Y-147475812D01*
X90640000Y-147488072D01*
X92240000Y-147488072D01*
X92364482Y-147475812D01*
X92484180Y-147439502D01*
X92594494Y-147380537D01*
X92691185Y-147301185D01*
X92770537Y-147204494D01*
X92829502Y-147094180D01*
X92865812Y-146974482D01*
X92878072Y-146850000D01*
X92878072Y-145250000D01*
X92865812Y-145125518D01*
X92829502Y-145005820D01*
X92770537Y-144895506D01*
X92691185Y-144798815D01*
X92594494Y-144719463D01*
X92484180Y-144660498D01*
X92364482Y-144624188D01*
X92240000Y-144611928D01*
X90640000Y-144611928D01*
X90515518Y-144624188D01*
X90395820Y-144660498D01*
X90285506Y-144719463D01*
X90188815Y-144798815D01*
X90109463Y-144895506D01*
X90050498Y-145005820D01*
X90014188Y-145125518D01*
X90001928Y-145250000D01*
X84857340Y-145250000D01*
X84812702Y-145236903D01*
X83999605Y-146050000D01*
X83640395Y-146050000D01*
X82827298Y-145236903D01*
X82583329Y-145308486D01*
X82462429Y-145563996D01*
X82393700Y-145838184D01*
X82379783Y-146120512D01*
X76631000Y-146120512D01*
X76631000Y-145057298D01*
X83006903Y-145057298D01*
X83820000Y-145870395D01*
X84633097Y-145057298D01*
X84561514Y-144813329D01*
X84306004Y-144692429D01*
X84031816Y-144623700D01*
X83749488Y-144609783D01*
X83469870Y-144651213D01*
X83203708Y-144746397D01*
X83078486Y-144813329D01*
X83006903Y-145057298D01*
X76631000Y-145057298D01*
X76631000Y-127659110D01*
X97110524Y-127659110D01*
X97231845Y-127889000D01*
X98425000Y-127889000D01*
X98425000Y-126695186D01*
X98679000Y-126695186D01*
X98679000Y-127889000D01*
X99872155Y-127889000D01*
X99993476Y-127659110D01*
X99948825Y-127511901D01*
X99823641Y-127249080D01*
X99649588Y-127015731D01*
X99433355Y-126820822D01*
X99183252Y-126671843D01*
X98908891Y-126574519D01*
X98679000Y-126695186D01*
X98425000Y-126695186D01*
X98195109Y-126574519D01*
X97920748Y-126671843D01*
X97670645Y-126820822D01*
X97454412Y-127015731D01*
X97280359Y-127249080D01*
X97155175Y-127511901D01*
X97110524Y-127659110D01*
X76631000Y-127659110D01*
X76631000Y-125857000D01*
X100711000Y-125857000D01*
X100711000Y-140585000D01*
%TA.AperFunction,Conductor*%
D31*
G36*
X100711000Y-140585000D02*
G01*
X95200133Y-140585000D01*
X92867850Y-138252718D01*
X92819853Y-138011426D01*
X92711680Y-137750273D01*
X92554637Y-137515241D01*
X92354759Y-137315363D01*
X92119727Y-137158320D01*
X91858574Y-137050147D01*
X91581335Y-136995000D01*
X91298665Y-136995000D01*
X91145604Y-137025446D01*
X90872344Y-136752187D01*
X90847763Y-136722235D01*
X90817809Y-136697652D01*
X90447000Y-136326843D01*
X90447000Y-134786000D01*
X97063928Y-134786000D01*
X97063928Y-136486000D01*
X97076188Y-136610482D01*
X97112498Y-136730180D01*
X97171463Y-136840494D01*
X97250815Y-136937185D01*
X97347506Y-137016537D01*
X97457820Y-137075502D01*
X97577518Y-137111812D01*
X97702000Y-137124072D01*
X99402000Y-137124072D01*
X99526482Y-137111812D01*
X99646180Y-137075502D01*
X99756494Y-137016537D01*
X99853185Y-136937185D01*
X99932537Y-136840494D01*
X99991502Y-136730180D01*
X100027812Y-136610482D01*
X100040072Y-136486000D01*
X100040072Y-134786000D01*
X100027812Y-134661518D01*
X99991502Y-134541820D01*
X99932537Y-134431506D01*
X99853185Y-134334815D01*
X99756494Y-134255463D01*
X99646180Y-134196498D01*
X99573620Y-134174487D01*
X99705475Y-134042632D01*
X99867990Y-133799411D01*
X99979932Y-133529158D01*
X100037000Y-133242260D01*
X100037000Y-132949740D01*
X99979932Y-132662842D01*
X99867990Y-132392589D01*
X99705475Y-132149368D01*
X99498632Y-131942525D01*
X99324240Y-131826000D01*
X99498632Y-131709475D01*
X99705475Y-131502632D01*
X99867990Y-131259411D01*
X99979932Y-130989158D01*
X100037000Y-130702260D01*
X100037000Y-130409740D01*
X99979932Y-130122842D01*
X99867990Y-129852589D01*
X99705475Y-129609368D01*
X99498632Y-129402525D01*
X99316466Y-129280805D01*
X99433355Y-129211178D01*
X99649588Y-129016269D01*
X99823641Y-128782920D01*
X99948825Y-128520099D01*
X99993476Y-128372890D01*
X99872155Y-128143000D01*
X98679000Y-128143000D01*
X98679000Y-128163000D01*
X98425000Y-128163000D01*
X98425000Y-128143000D01*
X97231845Y-128143000D01*
X97110524Y-128372890D01*
X97155175Y-128520099D01*
X97280359Y-128782920D01*
X97454412Y-129016269D01*
X97670645Y-129211178D01*
X97787534Y-129280805D01*
X97605368Y-129402525D01*
X97398525Y-129609368D01*
X97236010Y-129852589D01*
X97124068Y-130122842D01*
X97067000Y-130409740D01*
X97067000Y-130702260D01*
X97124068Y-130989158D01*
X97236010Y-131259411D01*
X97398525Y-131502632D01*
X97605368Y-131709475D01*
X97779760Y-131826000D01*
X97605368Y-131942525D01*
X97398525Y-132149368D01*
X97236010Y-132392589D01*
X97124068Y-132662842D01*
X97067000Y-132949740D01*
X97067000Y-133242260D01*
X97124068Y-133529158D01*
X97236010Y-133799411D01*
X97398525Y-134042632D01*
X97530380Y-134174487D01*
X97457820Y-134196498D01*
X97347506Y-134255463D01*
X97250815Y-134334815D01*
X97171463Y-134431506D01*
X97112498Y-134541820D01*
X97076188Y-134661518D01*
X97063928Y-134786000D01*
X90447000Y-134786000D01*
X90447000Y-132504711D01*
X90465937Y-132485774D01*
X90579205Y-132316256D01*
X90657226Y-132127898D01*
X90697000Y-131927939D01*
X90697000Y-131724061D01*
X90657226Y-131524102D01*
X90579205Y-131335744D01*
X90465937Y-131166226D01*
X90321774Y-131022063D01*
X90152256Y-130908795D01*
X89963898Y-130830774D01*
X89763939Y-130791000D01*
X89560061Y-130791000D01*
X89360102Y-130830774D01*
X89171744Y-130908795D01*
X89002226Y-131022063D01*
X88858063Y-131166226D01*
X88744795Y-131335744D01*
X88666774Y-131524102D01*
X88627000Y-131724061D01*
X88627000Y-131927939D01*
X88666774Y-132127898D01*
X88744795Y-132316256D01*
X88858063Y-132485774D01*
X88877001Y-132504712D01*
X88877000Y-136494999D01*
X82741157Y-136494999D01*
X82479923Y-136233765D01*
X82513500Y-136237072D01*
X82815250Y-136234000D01*
X82974000Y-136075250D01*
X82974000Y-135001000D01*
X83228000Y-135001000D01*
X83228000Y-136075250D01*
X83386750Y-136234000D01*
X83688500Y-136237072D01*
X83812982Y-136224812D01*
X83932680Y-136188502D01*
X84042994Y-136129537D01*
X84139685Y-136050185D01*
X84219037Y-135953494D01*
X84278002Y-135843180D01*
X84314312Y-135723482D01*
X84326572Y-135599000D01*
X84323500Y-135159750D01*
X84164750Y-135001000D01*
X83228000Y-135001000D01*
X82974000Y-135001000D01*
X82954000Y-135001000D01*
X82954000Y-134747000D01*
X82974000Y-134747000D01*
X82974000Y-132715000D01*
X83228000Y-132715000D01*
X83228000Y-134747000D01*
X84164750Y-134747000D01*
X84323500Y-134588250D01*
X84326572Y-134149000D01*
X84314312Y-134024518D01*
X84278002Y-133904820D01*
X84219037Y-133794506D01*
X84166919Y-133731000D01*
X84219037Y-133667494D01*
X84278002Y-133557180D01*
X84314312Y-133437482D01*
X84326572Y-133313000D01*
X84323500Y-132873750D01*
X84164750Y-132715000D01*
X83228000Y-132715000D01*
X82974000Y-132715000D01*
X82954000Y-132715000D01*
X82954000Y-132461000D01*
X82974000Y-132461000D01*
X82974000Y-131386750D01*
X83228000Y-131386750D01*
X83228000Y-132461000D01*
X84164750Y-132461000D01*
X84323500Y-132302250D01*
X84326572Y-131863000D01*
X84314312Y-131738518D01*
X84278002Y-131618820D01*
X84219037Y-131508506D01*
X84139685Y-131411815D01*
X84042994Y-131332463D01*
X83932680Y-131273498D01*
X83812982Y-131237188D01*
X83688500Y-131224928D01*
X83386750Y-131228000D01*
X83228000Y-131386750D01*
X82974000Y-131386750D01*
X82815250Y-131228000D01*
X82513500Y-131224928D01*
X82389018Y-131237188D01*
X82269320Y-131273498D01*
X82159006Y-131332463D01*
X82062315Y-131411815D01*
X81996842Y-131491594D01*
X81991462Y-131485038D01*
X81856886Y-131374595D01*
X81703350Y-131292528D01*
X81536754Y-131241992D01*
X81363500Y-131224928D01*
X80688500Y-131224928D01*
X80515246Y-131241992D01*
X80348650Y-131292528D01*
X80195114Y-131374595D01*
X80060538Y-131485038D01*
X79950095Y-131619614D01*
X79868028Y-131773150D01*
X79817492Y-131939746D01*
X79800428Y-132113000D01*
X79800428Y-133063000D01*
X79817492Y-133236254D01*
X79868028Y-133402850D01*
X79950095Y-133556386D01*
X80014989Y-133635460D01*
X79991000Y-133756061D01*
X79991000Y-133855771D01*
X79950095Y-133905614D01*
X79868028Y-134059150D01*
X79817492Y-134225746D01*
X79800428Y-134399000D01*
X79800428Y-135349000D01*
X79817492Y-135522254D01*
X79868028Y-135688850D01*
X79950095Y-135842386D01*
X80060538Y-135976962D01*
X80195114Y-136087405D01*
X80279193Y-136132346D01*
X80297246Y-136191859D01*
X80297247Y-136191860D01*
X80370139Y-136328233D01*
X80388119Y-136350141D01*
X80443655Y-136417812D01*
X80443659Y-136417816D01*
X80468237Y-136447764D01*
X80498185Y-136472342D01*
X81833657Y-137807815D01*
X81858235Y-137837763D01*
X81888183Y-137862341D01*
X81888186Y-137862344D01*
X81917558Y-137886449D01*
X81977766Y-137935861D01*
X82114139Y-138008753D01*
X82227671Y-138043193D01*
X82262111Y-138053640D01*
X82276489Y-138055056D01*
X82377438Y-138064999D01*
X82377445Y-138064999D01*
X82415998Y-138068796D01*
X82428990Y-138067516D01*
X82385000Y-138288665D01*
X82385000Y-138571335D01*
X82440147Y-138848574D01*
X82548320Y-139109727D01*
X82705363Y-139344759D01*
X82905241Y-139544637D01*
X83140273Y-139701680D01*
X83401426Y-139809853D01*
X83678665Y-139865000D01*
X83961335Y-139865000D01*
X84238574Y-139809853D01*
X84499727Y-139701680D01*
X84734759Y-139544637D01*
X84934637Y-139344759D01*
X85091680Y-139109727D01*
X85199853Y-138848574D01*
X85255000Y-138571335D01*
X85255000Y-138288665D01*
X85210509Y-138064999D01*
X89964842Y-138064999D01*
X90035446Y-138135604D01*
X90005000Y-138288665D01*
X90005000Y-138571335D01*
X90060147Y-138848574D01*
X90168320Y-139109727D01*
X90325363Y-139344759D01*
X90525241Y-139544637D01*
X90760273Y-139701680D01*
X91021426Y-139809853D01*
X91262718Y-139857850D01*
X93888013Y-142483146D01*
X93923551Y-142526449D01*
X93966854Y-142561987D01*
X93966856Y-142561989D01*
X94096377Y-142668284D01*
X94293553Y-142773676D01*
X94507501Y-142838577D01*
X94730000Y-142860491D01*
X94785752Y-142855000D01*
X100711000Y-142855000D01*
X100711000Y-148667000D01*
X76631000Y-148667000D01*
X76631000Y-147042702D01*
X83006903Y-147042702D01*
X83078486Y-147286671D01*
X83333996Y-147407571D01*
X83608184Y-147476300D01*
X83890512Y-147490217D01*
X84170130Y-147448787D01*
X84436292Y-147353603D01*
X84561514Y-147286671D01*
X84633097Y-147042702D01*
X83820000Y-146229605D01*
X83006903Y-147042702D01*
X76631000Y-147042702D01*
X76631000Y-146120512D01*
X82379783Y-146120512D01*
X82421213Y-146400130D01*
X82516397Y-146666292D01*
X82583329Y-146791514D01*
X82827298Y-146863097D01*
X83640395Y-146050000D01*
X83999605Y-146050000D01*
X84812702Y-146863097D01*
X85056671Y-146791514D01*
X85177571Y-146536004D01*
X85246300Y-146261816D01*
X85260217Y-145979488D01*
X85218787Y-145699870D01*
X85123603Y-145433708D01*
X85056671Y-145308486D01*
X84857340Y-145250000D01*
X90001928Y-145250000D01*
X90001928Y-146850000D01*
X90014188Y-146974482D01*
X90050498Y-147094180D01*
X90109463Y-147204494D01*
X90188815Y-147301185D01*
X90285506Y-147380537D01*
X90395820Y-147439502D01*
X90515518Y-147475812D01*
X90640000Y-147488072D01*
X92240000Y-147488072D01*
X92364482Y-147475812D01*
X92484180Y-147439502D01*
X92594494Y-147380537D01*
X92691185Y-147301185D01*
X92770537Y-147204494D01*
X92829502Y-147094180D01*
X92865812Y-146974482D01*
X92878072Y-146850000D01*
X92878072Y-145250000D01*
X92865812Y-145125518D01*
X92829502Y-145005820D01*
X92770537Y-144895506D01*
X92691185Y-144798815D01*
X92594494Y-144719463D01*
X92484180Y-144660498D01*
X92364482Y-144624188D01*
X92240000Y-144611928D01*
X90640000Y-144611928D01*
X90515518Y-144624188D01*
X90395820Y-144660498D01*
X90285506Y-144719463D01*
X90188815Y-144798815D01*
X90109463Y-144895506D01*
X90050498Y-145005820D01*
X90014188Y-145125518D01*
X90001928Y-145250000D01*
X84857340Y-145250000D01*
X84812702Y-145236903D01*
X83999605Y-146050000D01*
X83640395Y-146050000D01*
X82827298Y-145236903D01*
X82583329Y-145308486D01*
X82462429Y-145563996D01*
X82393700Y-145838184D01*
X82379783Y-146120512D01*
X76631000Y-146120512D01*
X76631000Y-145057298D01*
X83006903Y-145057298D01*
X83820000Y-145870395D01*
X84633097Y-145057298D01*
X84561514Y-144813329D01*
X84306004Y-144692429D01*
X84031816Y-144623700D01*
X83749488Y-144609783D01*
X83469870Y-144651213D01*
X83203708Y-144746397D01*
X83078486Y-144813329D01*
X83006903Y-145057298D01*
X76631000Y-145057298D01*
X76631000Y-127659110D01*
X97110524Y-127659110D01*
X97231845Y-127889000D01*
X98425000Y-127889000D01*
X98425000Y-126695186D01*
X98679000Y-126695186D01*
X98679000Y-127889000D01*
X99872155Y-127889000D01*
X99993476Y-127659110D01*
X99948825Y-127511901D01*
X99823641Y-127249080D01*
X99649588Y-127015731D01*
X99433355Y-126820822D01*
X99183252Y-126671843D01*
X98908891Y-126574519D01*
X98679000Y-126695186D01*
X98425000Y-126695186D01*
X98195109Y-126574519D01*
X97920748Y-126671843D01*
X97670645Y-126820822D01*
X97454412Y-127015731D01*
X97280359Y-127249080D01*
X97155175Y-127511901D01*
X97110524Y-127659110D01*
X76631000Y-127659110D01*
X76631000Y-125857000D01*
X100711000Y-125857000D01*
X100711000Y-140585000D01*
G37*
%TD.AperFunction*%
%TD*%
D30*
%TO.N,GND*%
X158827001Y-148667000D02*
X100457000Y-148667000D01*
X100457000Y-142855000D01*
X103440893Y-142855000D01*
X103459368Y-142873475D01*
X103633760Y-142990000D01*
X103459368Y-143106525D01*
X103252525Y-143313368D01*
X103090010Y-143556589D01*
X102978068Y-143826842D01*
X102921000Y-144113740D01*
X102921000Y-144406260D01*
X102978068Y-144693158D01*
X103090010Y-144963411D01*
X103252525Y-145206632D01*
X103459368Y-145413475D01*
X103702589Y-145575990D01*
X103972842Y-145687932D01*
X104259740Y-145745000D01*
X104552260Y-145745000D01*
X104839158Y-145687932D01*
X105109411Y-145575990D01*
X105352632Y-145413475D01*
X105559475Y-145206632D01*
X105721990Y-144963411D01*
X105833932Y-144693158D01*
X105891000Y-144406260D01*
X105891000Y-144113740D01*
X105833932Y-143826842D01*
X105721990Y-143556589D01*
X105559475Y-143313368D01*
X105352632Y-143106525D01*
X105178240Y-142990000D01*
X105352632Y-142873475D01*
X105559475Y-142666632D01*
X105721990Y-142423411D01*
X105833932Y-142153158D01*
X105891000Y-141866260D01*
X105891000Y-141573740D01*
X105833932Y-141286842D01*
X105814530Y-141240000D01*
X110375928Y-141240000D01*
X110375928Y-143240000D01*
X110388188Y-143364482D01*
X110424498Y-143484180D01*
X110483463Y-143594494D01*
X110562815Y-143691185D01*
X110659506Y-143770537D01*
X110769820Y-143829502D01*
X110889518Y-143865812D01*
X111014000Y-143878072D01*
X113014000Y-143878072D01*
X113138482Y-143865812D01*
X113258180Y-143829502D01*
X113368494Y-143770537D01*
X113465185Y-143691185D01*
X113544537Y-143594494D01*
X113603502Y-143484180D01*
X113639812Y-143364482D01*
X113652072Y-143240000D01*
X113652072Y-141240000D01*
X121297928Y-141240000D01*
X121297928Y-143240000D01*
X121310188Y-143364482D01*
X121346498Y-143484180D01*
X121405463Y-143594494D01*
X121484815Y-143691185D01*
X121581506Y-143770537D01*
X121691820Y-143829502D01*
X121811518Y-143865812D01*
X121936000Y-143878072D01*
X123936000Y-143878072D01*
X124060482Y-143865812D01*
X124180180Y-143829502D01*
X124290494Y-143770537D01*
X124387185Y-143691185D01*
X124466537Y-143594494D01*
X124525502Y-143484180D01*
X124561812Y-143364482D01*
X124574072Y-143240000D01*
X124574072Y-141240000D01*
X132219928Y-141240000D01*
X132219928Y-143240000D01*
X132232188Y-143364482D01*
X132268498Y-143484180D01*
X132327463Y-143594494D01*
X132406815Y-143691185D01*
X132503506Y-143770537D01*
X132613820Y-143829502D01*
X132733518Y-143865812D01*
X132858000Y-143878072D01*
X134858000Y-143878072D01*
X134982482Y-143865812D01*
X135102180Y-143829502D01*
X135212494Y-143770537D01*
X135309185Y-143691185D01*
X135388537Y-143594494D01*
X135447502Y-143484180D01*
X135483812Y-143364482D01*
X135496072Y-143240000D01*
X135496072Y-141240000D01*
X135483812Y-141115518D01*
X135447502Y-140995820D01*
X135388537Y-140885506D01*
X135309185Y-140788815D01*
X135212494Y-140709463D01*
X135102180Y-140650498D01*
X134982482Y-140614188D01*
X134858000Y-140601928D01*
X132858000Y-140601928D01*
X132733518Y-140614188D01*
X132613820Y-140650498D01*
X132503506Y-140709463D01*
X132406815Y-140788815D01*
X132327463Y-140885506D01*
X132268498Y-140995820D01*
X132232188Y-141115518D01*
X132219928Y-141240000D01*
X124574072Y-141240000D01*
X124561812Y-141115518D01*
X124525502Y-140995820D01*
X124466537Y-140885506D01*
X124387185Y-140788815D01*
X124290494Y-140709463D01*
X124180180Y-140650498D01*
X124060482Y-140614188D01*
X123936000Y-140601928D01*
X121936000Y-140601928D01*
X121811518Y-140614188D01*
X121691820Y-140650498D01*
X121581506Y-140709463D01*
X121484815Y-140788815D01*
X121405463Y-140885506D01*
X121346498Y-140995820D01*
X121310188Y-141115518D01*
X121297928Y-141240000D01*
X113652072Y-141240000D01*
X113639812Y-141115518D01*
X113603502Y-140995820D01*
X113544537Y-140885506D01*
X113465185Y-140788815D01*
X113368494Y-140709463D01*
X113258180Y-140650498D01*
X113138482Y-140614188D01*
X113014000Y-140601928D01*
X111014000Y-140601928D01*
X110889518Y-140614188D01*
X110769820Y-140650498D01*
X110659506Y-140709463D01*
X110562815Y-140788815D01*
X110483463Y-140885506D01*
X110424498Y-140995820D01*
X110388188Y-141115518D01*
X110375928Y-141240000D01*
X105814530Y-141240000D01*
X105721990Y-141016589D01*
X105559475Y-140773368D01*
X105352632Y-140566525D01*
X105178240Y-140450000D01*
X105352632Y-140333475D01*
X105559475Y-140126632D01*
X105721990Y-139883411D01*
X105833932Y-139613158D01*
X105891000Y-139326260D01*
X105891000Y-139033740D01*
X105833932Y-138746842D01*
X105721990Y-138476589D01*
X105654387Y-138375413D01*
X111058192Y-138375413D01*
X111153956Y-138639814D01*
X111443571Y-138780704D01*
X111755108Y-138862384D01*
X112076595Y-138881718D01*
X112395675Y-138837961D01*
X112700088Y-138732795D01*
X112874044Y-138639814D01*
X112969808Y-138375413D01*
X121980192Y-138375413D01*
X122075956Y-138639814D01*
X122365571Y-138780704D01*
X122677108Y-138862384D01*
X122998595Y-138881718D01*
X123317675Y-138837961D01*
X123622088Y-138732795D01*
X123796044Y-138639814D01*
X123891808Y-138375413D01*
X132902192Y-138375413D01*
X132997956Y-138639814D01*
X133287571Y-138780704D01*
X133599108Y-138862384D01*
X133920595Y-138881718D01*
X134239675Y-138837961D01*
X134544088Y-138732795D01*
X134718044Y-138639814D01*
X134813808Y-138375413D01*
X133858000Y-137419605D01*
X132902192Y-138375413D01*
X123891808Y-138375413D01*
X122936000Y-137419605D01*
X121980192Y-138375413D01*
X112969808Y-138375413D01*
X112014000Y-137419605D01*
X111058192Y-138375413D01*
X105654387Y-138375413D01*
X105559475Y-138233368D01*
X105427620Y-138101513D01*
X105500180Y-138079502D01*
X105610494Y-138020537D01*
X105707185Y-137941185D01*
X105786537Y-137844494D01*
X105845502Y-137734180D01*
X105881812Y-137614482D01*
X105894072Y-137490000D01*
X105893052Y-137302595D01*
X110372282Y-137302595D01*
X110416039Y-137621675D01*
X110521205Y-137926088D01*
X110614186Y-138100044D01*
X110878587Y-138195808D01*
X111834395Y-137240000D01*
X112193605Y-137240000D01*
X113149413Y-138195808D01*
X113413814Y-138100044D01*
X113554704Y-137810429D01*
X113636384Y-137498892D01*
X113648189Y-137302595D01*
X121294282Y-137302595D01*
X121338039Y-137621675D01*
X121443205Y-137926088D01*
X121536186Y-138100044D01*
X121800587Y-138195808D01*
X122756395Y-137240000D01*
X123115605Y-137240000D01*
X124071413Y-138195808D01*
X124335814Y-138100044D01*
X124476704Y-137810429D01*
X124558384Y-137498892D01*
X124570189Y-137302595D01*
X132216282Y-137302595D01*
X132260039Y-137621675D01*
X132365205Y-137926088D01*
X132458186Y-138100044D01*
X132722587Y-138195808D01*
X133678395Y-137240000D01*
X134037605Y-137240000D01*
X134993413Y-138195808D01*
X135257814Y-138100044D01*
X135398704Y-137810429D01*
X135480384Y-137498892D01*
X135499718Y-137177405D01*
X135455961Y-136858325D01*
X135350795Y-136553912D01*
X135257814Y-136379956D01*
X134993413Y-136284192D01*
X134037605Y-137240000D01*
X133678395Y-137240000D01*
X132722587Y-136284192D01*
X132458186Y-136379956D01*
X132317296Y-136669571D01*
X132235616Y-136981108D01*
X132216282Y-137302595D01*
X124570189Y-137302595D01*
X124577718Y-137177405D01*
X124533961Y-136858325D01*
X124428795Y-136553912D01*
X124335814Y-136379956D01*
X124071413Y-136284192D01*
X123115605Y-137240000D01*
X122756395Y-137240000D01*
X121800587Y-136284192D01*
X121536186Y-136379956D01*
X121395296Y-136669571D01*
X121313616Y-136981108D01*
X121294282Y-137302595D01*
X113648189Y-137302595D01*
X113655718Y-137177405D01*
X113611961Y-136858325D01*
X113506795Y-136553912D01*
X113413814Y-136379956D01*
X113149413Y-136284192D01*
X112193605Y-137240000D01*
X111834395Y-137240000D01*
X110878587Y-136284192D01*
X110614186Y-136379956D01*
X110473296Y-136669571D01*
X110391616Y-136981108D01*
X110372282Y-137302595D01*
X105893052Y-137302595D01*
X105891000Y-136925750D01*
X105732250Y-136767000D01*
X104533000Y-136767000D01*
X104533000Y-136787000D01*
X104279000Y-136787000D01*
X104279000Y-136767000D01*
X104259000Y-136767000D01*
X104259000Y-136513000D01*
X104279000Y-136513000D01*
X104279000Y-135313750D01*
X104533000Y-135313750D01*
X104533000Y-136513000D01*
X105732250Y-136513000D01*
X105891000Y-136354250D01*
X105892359Y-136104587D01*
X111058192Y-136104587D01*
X112014000Y-137060395D01*
X112969808Y-136104587D01*
X121980192Y-136104587D01*
X122936000Y-137060395D01*
X123891808Y-136104587D01*
X132902192Y-136104587D01*
X133858000Y-137060395D01*
X134813808Y-136104587D01*
X134718044Y-135840186D01*
X134428429Y-135699296D01*
X134116892Y-135617616D01*
X133795405Y-135598282D01*
X133476325Y-135642039D01*
X133171912Y-135747205D01*
X132997956Y-135840186D01*
X132902192Y-136104587D01*
X123891808Y-136104587D01*
X123796044Y-135840186D01*
X123506429Y-135699296D01*
X123194892Y-135617616D01*
X122873405Y-135598282D01*
X122554325Y-135642039D01*
X122249912Y-135747205D01*
X122075956Y-135840186D01*
X121980192Y-136104587D01*
X112969808Y-136104587D01*
X112874044Y-135840186D01*
X112584429Y-135699296D01*
X112272892Y-135617616D01*
X111951405Y-135598282D01*
X111632325Y-135642039D01*
X111327912Y-135747205D01*
X111153956Y-135840186D01*
X111058192Y-136104587D01*
X105892359Y-136104587D01*
X105894072Y-135790000D01*
X105881812Y-135665518D01*
X105845502Y-135545820D01*
X105786537Y-135435506D01*
X105707185Y-135338815D01*
X105610494Y-135259463D01*
X105500180Y-135200498D01*
X105380482Y-135164188D01*
X105256000Y-135151928D01*
X104691750Y-135155000D01*
X104533000Y-135313750D01*
X104279000Y-135313750D01*
X104120250Y-135155000D01*
X103556000Y-135151928D01*
X103489000Y-135158527D01*
X103489000Y-132712578D01*
X103719045Y-132482533D01*
X103752817Y-132454817D01*
X103863411Y-132320059D01*
X103923842Y-132207000D01*
X158827001Y-132207000D01*
X158827001Y-148667000D01*
%TA.AperFunction,Conductor*%
D31*
G36*
X158827001Y-148667000D02*
G01*
X100457000Y-148667000D01*
X100457000Y-142855000D01*
X103440893Y-142855000D01*
X103459368Y-142873475D01*
X103633760Y-142990000D01*
X103459368Y-143106525D01*
X103252525Y-143313368D01*
X103090010Y-143556589D01*
X102978068Y-143826842D01*
X102921000Y-144113740D01*
X102921000Y-144406260D01*
X102978068Y-144693158D01*
X103090010Y-144963411D01*
X103252525Y-145206632D01*
X103459368Y-145413475D01*
X103702589Y-145575990D01*
X103972842Y-145687932D01*
X104259740Y-145745000D01*
X104552260Y-145745000D01*
X104839158Y-145687932D01*
X105109411Y-145575990D01*
X105352632Y-145413475D01*
X105559475Y-145206632D01*
X105721990Y-144963411D01*
X105833932Y-144693158D01*
X105891000Y-144406260D01*
X105891000Y-144113740D01*
X105833932Y-143826842D01*
X105721990Y-143556589D01*
X105559475Y-143313368D01*
X105352632Y-143106525D01*
X105178240Y-142990000D01*
X105352632Y-142873475D01*
X105559475Y-142666632D01*
X105721990Y-142423411D01*
X105833932Y-142153158D01*
X105891000Y-141866260D01*
X105891000Y-141573740D01*
X105833932Y-141286842D01*
X105814530Y-141240000D01*
X110375928Y-141240000D01*
X110375928Y-143240000D01*
X110388188Y-143364482D01*
X110424498Y-143484180D01*
X110483463Y-143594494D01*
X110562815Y-143691185D01*
X110659506Y-143770537D01*
X110769820Y-143829502D01*
X110889518Y-143865812D01*
X111014000Y-143878072D01*
X113014000Y-143878072D01*
X113138482Y-143865812D01*
X113258180Y-143829502D01*
X113368494Y-143770537D01*
X113465185Y-143691185D01*
X113544537Y-143594494D01*
X113603502Y-143484180D01*
X113639812Y-143364482D01*
X113652072Y-143240000D01*
X113652072Y-141240000D01*
X121297928Y-141240000D01*
X121297928Y-143240000D01*
X121310188Y-143364482D01*
X121346498Y-143484180D01*
X121405463Y-143594494D01*
X121484815Y-143691185D01*
X121581506Y-143770537D01*
X121691820Y-143829502D01*
X121811518Y-143865812D01*
X121936000Y-143878072D01*
X123936000Y-143878072D01*
X124060482Y-143865812D01*
X124180180Y-143829502D01*
X124290494Y-143770537D01*
X124387185Y-143691185D01*
X124466537Y-143594494D01*
X124525502Y-143484180D01*
X124561812Y-143364482D01*
X124574072Y-143240000D01*
X124574072Y-141240000D01*
X132219928Y-141240000D01*
X132219928Y-143240000D01*
X132232188Y-143364482D01*
X132268498Y-143484180D01*
X132327463Y-143594494D01*
X132406815Y-143691185D01*
X132503506Y-143770537D01*
X132613820Y-143829502D01*
X132733518Y-143865812D01*
X132858000Y-143878072D01*
X134858000Y-143878072D01*
X134982482Y-143865812D01*
X135102180Y-143829502D01*
X135212494Y-143770537D01*
X135309185Y-143691185D01*
X135388537Y-143594494D01*
X135447502Y-143484180D01*
X135483812Y-143364482D01*
X135496072Y-143240000D01*
X135496072Y-141240000D01*
X135483812Y-141115518D01*
X135447502Y-140995820D01*
X135388537Y-140885506D01*
X135309185Y-140788815D01*
X135212494Y-140709463D01*
X135102180Y-140650498D01*
X134982482Y-140614188D01*
X134858000Y-140601928D01*
X132858000Y-140601928D01*
X132733518Y-140614188D01*
X132613820Y-140650498D01*
X132503506Y-140709463D01*
X132406815Y-140788815D01*
X132327463Y-140885506D01*
X132268498Y-140995820D01*
X132232188Y-141115518D01*
X132219928Y-141240000D01*
X124574072Y-141240000D01*
X124561812Y-141115518D01*
X124525502Y-140995820D01*
X124466537Y-140885506D01*
X124387185Y-140788815D01*
X124290494Y-140709463D01*
X124180180Y-140650498D01*
X124060482Y-140614188D01*
X123936000Y-140601928D01*
X121936000Y-140601928D01*
X121811518Y-140614188D01*
X121691820Y-140650498D01*
X121581506Y-140709463D01*
X121484815Y-140788815D01*
X121405463Y-140885506D01*
X121346498Y-140995820D01*
X121310188Y-141115518D01*
X121297928Y-141240000D01*
X113652072Y-141240000D01*
X113639812Y-141115518D01*
X113603502Y-140995820D01*
X113544537Y-140885506D01*
X113465185Y-140788815D01*
X113368494Y-140709463D01*
X113258180Y-140650498D01*
X113138482Y-140614188D01*
X113014000Y-140601928D01*
X111014000Y-140601928D01*
X110889518Y-140614188D01*
X110769820Y-140650498D01*
X110659506Y-140709463D01*
X110562815Y-140788815D01*
X110483463Y-140885506D01*
X110424498Y-140995820D01*
X110388188Y-141115518D01*
X110375928Y-141240000D01*
X105814530Y-141240000D01*
X105721990Y-141016589D01*
X105559475Y-140773368D01*
X105352632Y-140566525D01*
X105178240Y-140450000D01*
X105352632Y-140333475D01*
X105559475Y-140126632D01*
X105721990Y-139883411D01*
X105833932Y-139613158D01*
X105891000Y-139326260D01*
X105891000Y-139033740D01*
X105833932Y-138746842D01*
X105721990Y-138476589D01*
X105654387Y-138375413D01*
X111058192Y-138375413D01*
X111153956Y-138639814D01*
X111443571Y-138780704D01*
X111755108Y-138862384D01*
X112076595Y-138881718D01*
X112395675Y-138837961D01*
X112700088Y-138732795D01*
X112874044Y-138639814D01*
X112969808Y-138375413D01*
X121980192Y-138375413D01*
X122075956Y-138639814D01*
X122365571Y-138780704D01*
X122677108Y-138862384D01*
X122998595Y-138881718D01*
X123317675Y-138837961D01*
X123622088Y-138732795D01*
X123796044Y-138639814D01*
X123891808Y-138375413D01*
X132902192Y-138375413D01*
X132997956Y-138639814D01*
X133287571Y-138780704D01*
X133599108Y-138862384D01*
X133920595Y-138881718D01*
X134239675Y-138837961D01*
X134544088Y-138732795D01*
X134718044Y-138639814D01*
X134813808Y-138375413D01*
X133858000Y-137419605D01*
X132902192Y-138375413D01*
X123891808Y-138375413D01*
X122936000Y-137419605D01*
X121980192Y-138375413D01*
X112969808Y-138375413D01*
X112014000Y-137419605D01*
X111058192Y-138375413D01*
X105654387Y-138375413D01*
X105559475Y-138233368D01*
X105427620Y-138101513D01*
X105500180Y-138079502D01*
X105610494Y-138020537D01*
X105707185Y-137941185D01*
X105786537Y-137844494D01*
X105845502Y-137734180D01*
X105881812Y-137614482D01*
X105894072Y-137490000D01*
X105893052Y-137302595D01*
X110372282Y-137302595D01*
X110416039Y-137621675D01*
X110521205Y-137926088D01*
X110614186Y-138100044D01*
X110878587Y-138195808D01*
X111834395Y-137240000D01*
X112193605Y-137240000D01*
X113149413Y-138195808D01*
X113413814Y-138100044D01*
X113554704Y-137810429D01*
X113636384Y-137498892D01*
X113648189Y-137302595D01*
X121294282Y-137302595D01*
X121338039Y-137621675D01*
X121443205Y-137926088D01*
X121536186Y-138100044D01*
X121800587Y-138195808D01*
X122756395Y-137240000D01*
X123115605Y-137240000D01*
X124071413Y-138195808D01*
X124335814Y-138100044D01*
X124476704Y-137810429D01*
X124558384Y-137498892D01*
X124570189Y-137302595D01*
X132216282Y-137302595D01*
X132260039Y-137621675D01*
X132365205Y-137926088D01*
X132458186Y-138100044D01*
X132722587Y-138195808D01*
X133678395Y-137240000D01*
X134037605Y-137240000D01*
X134993413Y-138195808D01*
X135257814Y-138100044D01*
X135398704Y-137810429D01*
X135480384Y-137498892D01*
X135499718Y-137177405D01*
X135455961Y-136858325D01*
X135350795Y-136553912D01*
X135257814Y-136379956D01*
X134993413Y-136284192D01*
X134037605Y-137240000D01*
X133678395Y-137240000D01*
X132722587Y-136284192D01*
X132458186Y-136379956D01*
X132317296Y-136669571D01*
X132235616Y-136981108D01*
X132216282Y-137302595D01*
X124570189Y-137302595D01*
X124577718Y-137177405D01*
X124533961Y-136858325D01*
X124428795Y-136553912D01*
X124335814Y-136379956D01*
X124071413Y-136284192D01*
X123115605Y-137240000D01*
X122756395Y-137240000D01*
X121800587Y-136284192D01*
X121536186Y-136379956D01*
X121395296Y-136669571D01*
X121313616Y-136981108D01*
X121294282Y-137302595D01*
X113648189Y-137302595D01*
X113655718Y-137177405D01*
X113611961Y-136858325D01*
X113506795Y-136553912D01*
X113413814Y-136379956D01*
X113149413Y-136284192D01*
X112193605Y-137240000D01*
X111834395Y-137240000D01*
X110878587Y-136284192D01*
X110614186Y-136379956D01*
X110473296Y-136669571D01*
X110391616Y-136981108D01*
X110372282Y-137302595D01*
X105893052Y-137302595D01*
X105891000Y-136925750D01*
X105732250Y-136767000D01*
X104533000Y-136767000D01*
X104533000Y-136787000D01*
X104279000Y-136787000D01*
X104279000Y-136767000D01*
X104259000Y-136767000D01*
X104259000Y-136513000D01*
X104279000Y-136513000D01*
X104279000Y-135313750D01*
X104533000Y-135313750D01*
X104533000Y-136513000D01*
X105732250Y-136513000D01*
X105891000Y-136354250D01*
X105892359Y-136104587D01*
X111058192Y-136104587D01*
X112014000Y-137060395D01*
X112969808Y-136104587D01*
X121980192Y-136104587D01*
X122936000Y-137060395D01*
X123891808Y-136104587D01*
X132902192Y-136104587D01*
X133858000Y-137060395D01*
X134813808Y-136104587D01*
X134718044Y-135840186D01*
X134428429Y-135699296D01*
X134116892Y-135617616D01*
X133795405Y-135598282D01*
X133476325Y-135642039D01*
X133171912Y-135747205D01*
X132997956Y-135840186D01*
X132902192Y-136104587D01*
X123891808Y-136104587D01*
X123796044Y-135840186D01*
X123506429Y-135699296D01*
X123194892Y-135617616D01*
X122873405Y-135598282D01*
X122554325Y-135642039D01*
X122249912Y-135747205D01*
X122075956Y-135840186D01*
X121980192Y-136104587D01*
X112969808Y-136104587D01*
X112874044Y-135840186D01*
X112584429Y-135699296D01*
X112272892Y-135617616D01*
X111951405Y-135598282D01*
X111632325Y-135642039D01*
X111327912Y-135747205D01*
X111153956Y-135840186D01*
X111058192Y-136104587D01*
X105892359Y-136104587D01*
X105894072Y-135790000D01*
X105881812Y-135665518D01*
X105845502Y-135545820D01*
X105786537Y-135435506D01*
X105707185Y-135338815D01*
X105610494Y-135259463D01*
X105500180Y-135200498D01*
X105380482Y-135164188D01*
X105256000Y-135151928D01*
X104691750Y-135155000D01*
X104533000Y-135313750D01*
X104279000Y-135313750D01*
X104120250Y-135155000D01*
X103556000Y-135151928D01*
X103489000Y-135158527D01*
X103489000Y-132712578D01*
X103719045Y-132482533D01*
X103752817Y-132454817D01*
X103863411Y-132320059D01*
X103923842Y-132207000D01*
X158827001Y-132207000D01*
X158827001Y-148667000D01*
G37*
%TD.AperFunction*%
D30*
X101714719Y-132346000D02*
X101719001Y-132389479D01*
X101719000Y-139136523D01*
X101714718Y-139180000D01*
X101731805Y-139353490D01*
X101782411Y-139520313D01*
X101864589Y-139674059D01*
X101975183Y-139808817D01*
X102109941Y-139919411D01*
X102263687Y-140001589D01*
X102430510Y-140052195D01*
X102604000Y-140069282D01*
X102647476Y-140065000D01*
X103211344Y-140065000D01*
X103252525Y-140126632D01*
X103459368Y-140333475D01*
X103633760Y-140450000D01*
X103459368Y-140566525D01*
X103440893Y-140585000D01*
X100457000Y-140585000D01*
X100457000Y-132207000D01*
X101728408Y-132207000D01*
X101714719Y-132346000D01*
%TA.AperFunction,Conductor*%
D31*
G36*
X101714719Y-132346000D02*
G01*
X101719001Y-132389479D01*
X101719000Y-139136523D01*
X101714718Y-139180000D01*
X101731805Y-139353490D01*
X101782411Y-139520313D01*
X101864589Y-139674059D01*
X101975183Y-139808817D01*
X102109941Y-139919411D01*
X102263687Y-140001589D01*
X102430510Y-140052195D01*
X102604000Y-140069282D01*
X102647476Y-140065000D01*
X103211344Y-140065000D01*
X103252525Y-140126632D01*
X103459368Y-140333475D01*
X103633760Y-140450000D01*
X103459368Y-140566525D01*
X103440893Y-140585000D01*
X100457000Y-140585000D01*
X100457000Y-132207000D01*
X101728408Y-132207000D01*
X101714719Y-132346000D01*
G37*
%TD.AperFunction*%
%TD*%
D30*
%TO.N,GND*%
X158827001Y-148667000D02*
X155321000Y-148667000D01*
X155321000Y-88569000D01*
X158827000Y-88569000D01*
X158827001Y-148667000D01*
%TA.AperFunction,Conductor*%
D31*
G36*
X158827001Y-148667000D02*
G01*
X155321000Y-148667000D01*
X155321000Y-88569000D01*
X158827000Y-88569000D01*
X158827001Y-148667000D01*
G37*
%TD.AperFunction*%
%TD*%
M02*
