%TF.GenerationSoftware,KiCad,Pcbnew,5.1.10-1.fc34*%
%TF.CreationDate,2021-06-19T08:30:20+03:00*%
%TF.ProjectId,Full schematic,46756c6c-2073-4636-9865-6d617469632e,rev?*%
%TF.SameCoordinates,Original*%
%TF.FileFunction,Soldermask,Top*%
%TF.FilePolarity,Negative*%
%FSLAX46Y46*%
G04 Gerber Fmt 4.6, Leading zero omitted, Abs format (unit mm)*
G04 Created by KiCad (PCBNEW 5.1.10-1.fc34) date 2021-06-19 08:30:20*
%MOMM*%
%LPD*%
G01*
G04 APERTURE LIST*
%ADD10O,1.700000X1.700000*%
%ADD11R,1.700000X1.700000*%
%ADD12C,2.200000*%
%ADD13C,2.000000*%
%ADD14R,2.000000X2.000000*%
%ADD15C,1.000000*%
%ADD16C,1.500000*%
%ADD17C,1.600000*%
%ADD18R,1.600000X1.600000*%
%ADD19R,0.400000X1.560000*%
%ADD20R,0.650000X1.220000*%
%ADD21R,1.060000X0.650000*%
%ADD22R,0.400000X1.000000*%
%ADD23R,0.800000X0.300000*%
%ADD24C,1.440000*%
%ADD25O,1.600000X1.600000*%
%ADD26R,0.800000X0.900000*%
%ADD27C,0.100000*%
%ADD28R,0.900000X2.300000*%
%ADD29R,0.900000X0.800000*%
%ADD30O,1.905000X2.000000*%
%ADD31R,1.905000X2.000000*%
%ADD32O,2.000000X1.905000*%
%ADD33R,2.000000X1.905000*%
%ADD34O,2.000000X2.000000*%
%ADD35O,2.200000X2.200000*%
%ADD36R,2.900000X5.400000*%
%ADD37C,3.000000*%
%ADD38R,1.400000X1.400000*%
%ADD39C,1.400000*%
%ADD40R,2.200000X2.200000*%
%ADD41R,1.200000X0.900000*%
%ADD42O,2.400000X2.400000*%
%ADD43R,2.400000X2.400000*%
%ADD44R,0.900000X1.200000*%
%ADD45C,1.200000*%
%ADD46R,1.200000X1.200000*%
G04 APERTURE END LIST*
D10*
%TO.C,JP1*%
X100838000Y-156718000D03*
X100838000Y-159258000D03*
D11*
X100838000Y-161798000D03*
%TD*%
%TO.C,L11*%
G36*
G01*
X143563000Y-126946500D02*
X140663000Y-126946500D01*
G75*
G02*
X140413000Y-126696500I0J250000D01*
G01*
X140413000Y-125896500D01*
G75*
G02*
X140663000Y-125646500I250000J0D01*
G01*
X143563000Y-125646500D01*
G75*
G02*
X143813000Y-125896500I0J-250000D01*
G01*
X143813000Y-126696500D01*
G75*
G02*
X143563000Y-126946500I-250000J0D01*
G01*
G37*
G36*
G01*
X143563000Y-131396500D02*
X140663000Y-131396500D01*
G75*
G02*
X140413000Y-131146500I0J250000D01*
G01*
X140413000Y-130346500D01*
G75*
G02*
X140663000Y-130096500I250000J0D01*
G01*
X143563000Y-130096500D01*
G75*
G02*
X143813000Y-130346500I0J-250000D01*
G01*
X143813000Y-131146500D01*
G75*
G02*
X143563000Y-131396500I-250000J0D01*
G01*
G37*
%TD*%
D12*
%TO.C,L12*%
X154069000Y-141414500D03*
X145669000Y-141414500D03*
%TD*%
D13*
%TO.C,C58*%
X79375000Y-151050000D03*
D14*
X79375000Y-146050000D03*
%TD*%
%TO.C,C57*%
G36*
G01*
X80170000Y-149040000D02*
X81120000Y-149040000D01*
G75*
G02*
X81370000Y-149290000I0J-250000D01*
G01*
X81370000Y-149965000D01*
G75*
G02*
X81120000Y-150215000I-250000J0D01*
G01*
X80170000Y-150215000D01*
G75*
G02*
X79920000Y-149965000I0J250000D01*
G01*
X79920000Y-149290000D01*
G75*
G02*
X80170000Y-149040000I250000J0D01*
G01*
G37*
G36*
G01*
X80170000Y-146965000D02*
X81120000Y-146965000D01*
G75*
G02*
X81370000Y-147215000I0J-250000D01*
G01*
X81370000Y-147890000D01*
G75*
G02*
X81120000Y-148140000I-250000J0D01*
G01*
X80170000Y-148140000D01*
G75*
G02*
X79920000Y-147890000I0J250000D01*
G01*
X79920000Y-147215000D01*
G75*
G02*
X80170000Y-146965000I250000J0D01*
G01*
G37*
%TD*%
%TO.C,C55*%
G36*
G01*
X77630000Y-149040000D02*
X78580000Y-149040000D01*
G75*
G02*
X78830000Y-149290000I0J-250000D01*
G01*
X78830000Y-149965000D01*
G75*
G02*
X78580000Y-150215000I-250000J0D01*
G01*
X77630000Y-150215000D01*
G75*
G02*
X77380000Y-149965000I0J250000D01*
G01*
X77380000Y-149290000D01*
G75*
G02*
X77630000Y-149040000I250000J0D01*
G01*
G37*
G36*
G01*
X77630000Y-146965000D02*
X78580000Y-146965000D01*
G75*
G02*
X78830000Y-147215000I0J-250000D01*
G01*
X78830000Y-147890000D01*
G75*
G02*
X78580000Y-148140000I-250000J0D01*
G01*
X77630000Y-148140000D01*
G75*
G02*
X77380000Y-147890000I0J250000D01*
G01*
X77380000Y-147215000D01*
G75*
G02*
X77630000Y-146965000I250000J0D01*
G01*
G37*
%TD*%
%TO.C,L5*%
G36*
G01*
X98224000Y-167904000D02*
X95324000Y-167904000D01*
G75*
G02*
X95074000Y-167654000I0J250000D01*
G01*
X95074000Y-166854000D01*
G75*
G02*
X95324000Y-166604000I250000J0D01*
G01*
X98224000Y-166604000D01*
G75*
G02*
X98474000Y-166854000I0J-250000D01*
G01*
X98474000Y-167654000D01*
G75*
G02*
X98224000Y-167904000I-250000J0D01*
G01*
G37*
G36*
G01*
X98224000Y-172354000D02*
X95324000Y-172354000D01*
G75*
G02*
X95074000Y-172104000I0J250000D01*
G01*
X95074000Y-171304000D01*
G75*
G02*
X95324000Y-171054000I250000J0D01*
G01*
X98224000Y-171054000D01*
G75*
G02*
X98474000Y-171304000I0J-250000D01*
G01*
X98474000Y-172104000D01*
G75*
G02*
X98224000Y-172354000I-250000J0D01*
G01*
G37*
%TD*%
%TO.C,L4*%
G36*
G01*
X82984000Y-167904000D02*
X80084000Y-167904000D01*
G75*
G02*
X79834000Y-167654000I0J250000D01*
G01*
X79834000Y-166854000D01*
G75*
G02*
X80084000Y-166604000I250000J0D01*
G01*
X82984000Y-166604000D01*
G75*
G02*
X83234000Y-166854000I0J-250000D01*
G01*
X83234000Y-167654000D01*
G75*
G02*
X82984000Y-167904000I-250000J0D01*
G01*
G37*
G36*
G01*
X82984000Y-172354000D02*
X80084000Y-172354000D01*
G75*
G02*
X79834000Y-172104000I0J250000D01*
G01*
X79834000Y-171304000D01*
G75*
G02*
X80084000Y-171054000I250000J0D01*
G01*
X82984000Y-171054000D01*
G75*
G02*
X83234000Y-171304000I0J-250000D01*
G01*
X83234000Y-172104000D01*
G75*
G02*
X82984000Y-172354000I-250000J0D01*
G01*
G37*
%TD*%
%TO.C,L3*%
G36*
G01*
X67998000Y-172608000D02*
X65098000Y-172608000D01*
G75*
G02*
X64848000Y-172358000I0J250000D01*
G01*
X64848000Y-171558000D01*
G75*
G02*
X65098000Y-171308000I250000J0D01*
G01*
X67998000Y-171308000D01*
G75*
G02*
X68248000Y-171558000I0J-250000D01*
G01*
X68248000Y-172358000D01*
G75*
G02*
X67998000Y-172608000I-250000J0D01*
G01*
G37*
G36*
G01*
X67998000Y-177058000D02*
X65098000Y-177058000D01*
G75*
G02*
X64848000Y-176808000I0J250000D01*
G01*
X64848000Y-176008000D01*
G75*
G02*
X65098000Y-175758000I250000J0D01*
G01*
X67998000Y-175758000D01*
G75*
G02*
X68248000Y-176008000I0J-250000D01*
G01*
X68248000Y-176808000D01*
G75*
G02*
X67998000Y-177058000I-250000J0D01*
G01*
G37*
%TD*%
%TO.C,L1*%
G36*
G01*
X42723000Y-171630000D02*
X42723000Y-168730000D01*
G75*
G02*
X42973000Y-168480000I250000J0D01*
G01*
X43773000Y-168480000D01*
G75*
G02*
X44023000Y-168730000I0J-250000D01*
G01*
X44023000Y-171630000D01*
G75*
G02*
X43773000Y-171880000I-250000J0D01*
G01*
X42973000Y-171880000D01*
G75*
G02*
X42723000Y-171630000I0J250000D01*
G01*
G37*
G36*
G01*
X38273000Y-171630000D02*
X38273000Y-168730000D01*
G75*
G02*
X38523000Y-168480000I250000J0D01*
G01*
X39323000Y-168480000D01*
G75*
G02*
X39573000Y-168730000I0J-250000D01*
G01*
X39573000Y-171630000D01*
G75*
G02*
X39323000Y-171880000I-250000J0D01*
G01*
X38523000Y-171880000D01*
G75*
G02*
X38273000Y-171630000I0J250000D01*
G01*
G37*
%TD*%
%TO.C,C40*%
G36*
G01*
X51331999Y-168446500D02*
X54332001Y-168446500D01*
G75*
G02*
X54582000Y-168696499I0J-249999D01*
G01*
X54582000Y-170921501D01*
G75*
G02*
X54332001Y-171171500I-249999J0D01*
G01*
X51331999Y-171171500D01*
G75*
G02*
X51082000Y-170921501I0J249999D01*
G01*
X51082000Y-168696499D01*
G75*
G02*
X51331999Y-168446500I249999J0D01*
G01*
G37*
G36*
G01*
X51331999Y-162721500D02*
X54332001Y-162721500D01*
G75*
G02*
X54582000Y-162971499I0J-249999D01*
G01*
X54582000Y-165196501D01*
G75*
G02*
X54332001Y-165446500I-249999J0D01*
G01*
X51331999Y-165446500D01*
G75*
G02*
X51082000Y-165196501I0J249999D01*
G01*
X51082000Y-162971499D01*
G75*
G02*
X51331999Y-162721500I249999J0D01*
G01*
G37*
%TD*%
D15*
%TO.C,Y2*%
X108366000Y-167579000D03*
X108366000Y-169479000D03*
%TD*%
D16*
%TO.C,Y1*%
X105737000Y-173355000D03*
X110617000Y-173355000D03*
%TD*%
D17*
%TO.C,X1*%
X145161000Y-178752500D03*
X137541000Y-178752500D03*
X137541000Y-171132500D03*
D18*
X145161000Y-171132500D03*
%TD*%
%TO.C,U12*%
G36*
G01*
X122168000Y-156250500D02*
X122168000Y-156550500D01*
G75*
G02*
X122018000Y-156700500I-150000J0D01*
G01*
X120718000Y-156700500D01*
G75*
G02*
X120568000Y-156550500I0J150000D01*
G01*
X120568000Y-156250500D01*
G75*
G02*
X120718000Y-156100500I150000J0D01*
G01*
X122018000Y-156100500D01*
G75*
G02*
X122168000Y-156250500I0J-150000D01*
G01*
G37*
G36*
G01*
X122168000Y-154980500D02*
X122168000Y-155280500D01*
G75*
G02*
X122018000Y-155430500I-150000J0D01*
G01*
X120718000Y-155430500D01*
G75*
G02*
X120568000Y-155280500I0J150000D01*
G01*
X120568000Y-154980500D01*
G75*
G02*
X120718000Y-154830500I150000J0D01*
G01*
X122018000Y-154830500D01*
G75*
G02*
X122168000Y-154980500I0J-150000D01*
G01*
G37*
G36*
G01*
X122168000Y-153710500D02*
X122168000Y-154010500D01*
G75*
G02*
X122018000Y-154160500I-150000J0D01*
G01*
X120718000Y-154160500D01*
G75*
G02*
X120568000Y-154010500I0J150000D01*
G01*
X120568000Y-153710500D01*
G75*
G02*
X120718000Y-153560500I150000J0D01*
G01*
X122018000Y-153560500D01*
G75*
G02*
X122168000Y-153710500I0J-150000D01*
G01*
G37*
G36*
G01*
X122168000Y-152440500D02*
X122168000Y-152740500D01*
G75*
G02*
X122018000Y-152890500I-150000J0D01*
G01*
X120718000Y-152890500D01*
G75*
G02*
X120568000Y-152740500I0J150000D01*
G01*
X120568000Y-152440500D01*
G75*
G02*
X120718000Y-152290500I150000J0D01*
G01*
X122018000Y-152290500D01*
G75*
G02*
X122168000Y-152440500I0J-150000D01*
G01*
G37*
G36*
G01*
X129368000Y-152440500D02*
X129368000Y-152740500D01*
G75*
G02*
X129218000Y-152890500I-150000J0D01*
G01*
X127918000Y-152890500D01*
G75*
G02*
X127768000Y-152740500I0J150000D01*
G01*
X127768000Y-152440500D01*
G75*
G02*
X127918000Y-152290500I150000J0D01*
G01*
X129218000Y-152290500D01*
G75*
G02*
X129368000Y-152440500I0J-150000D01*
G01*
G37*
G36*
G01*
X129368000Y-153710500D02*
X129368000Y-154010500D01*
G75*
G02*
X129218000Y-154160500I-150000J0D01*
G01*
X127918000Y-154160500D01*
G75*
G02*
X127768000Y-154010500I0J150000D01*
G01*
X127768000Y-153710500D01*
G75*
G02*
X127918000Y-153560500I150000J0D01*
G01*
X129218000Y-153560500D01*
G75*
G02*
X129368000Y-153710500I0J-150000D01*
G01*
G37*
G36*
G01*
X129368000Y-154980500D02*
X129368000Y-155280500D01*
G75*
G02*
X129218000Y-155430500I-150000J0D01*
G01*
X127918000Y-155430500D01*
G75*
G02*
X127768000Y-155280500I0J150000D01*
G01*
X127768000Y-154980500D01*
G75*
G02*
X127918000Y-154830500I150000J0D01*
G01*
X129218000Y-154830500D01*
G75*
G02*
X129368000Y-154980500I0J-150000D01*
G01*
G37*
G36*
G01*
X129368000Y-156250500D02*
X129368000Y-156550500D01*
G75*
G02*
X129218000Y-156700500I-150000J0D01*
G01*
X127918000Y-156700500D01*
G75*
G02*
X127768000Y-156550500I0J150000D01*
G01*
X127768000Y-156250500D01*
G75*
G02*
X127918000Y-156100500I150000J0D01*
G01*
X129218000Y-156100500D01*
G75*
G02*
X129368000Y-156250500I0J-150000D01*
G01*
G37*
%TD*%
%TO.C,U11*%
G36*
G01*
X106482000Y-161777000D02*
X105157000Y-161777000D01*
G75*
G02*
X105082000Y-161702000I0J75000D01*
G01*
X105082000Y-161552000D01*
G75*
G02*
X105157000Y-161477000I75000J0D01*
G01*
X106482000Y-161477000D01*
G75*
G02*
X106557000Y-161552000I0J-75000D01*
G01*
X106557000Y-161702000D01*
G75*
G02*
X106482000Y-161777000I-75000J0D01*
G01*
G37*
G36*
G01*
X106482000Y-161277000D02*
X105157000Y-161277000D01*
G75*
G02*
X105082000Y-161202000I0J75000D01*
G01*
X105082000Y-161052000D01*
G75*
G02*
X105157000Y-160977000I75000J0D01*
G01*
X106482000Y-160977000D01*
G75*
G02*
X106557000Y-161052000I0J-75000D01*
G01*
X106557000Y-161202000D01*
G75*
G02*
X106482000Y-161277000I-75000J0D01*
G01*
G37*
G36*
G01*
X106482000Y-160777000D02*
X105157000Y-160777000D01*
G75*
G02*
X105082000Y-160702000I0J75000D01*
G01*
X105082000Y-160552000D01*
G75*
G02*
X105157000Y-160477000I75000J0D01*
G01*
X106482000Y-160477000D01*
G75*
G02*
X106557000Y-160552000I0J-75000D01*
G01*
X106557000Y-160702000D01*
G75*
G02*
X106482000Y-160777000I-75000J0D01*
G01*
G37*
G36*
G01*
X106482000Y-160277000D02*
X105157000Y-160277000D01*
G75*
G02*
X105082000Y-160202000I0J75000D01*
G01*
X105082000Y-160052000D01*
G75*
G02*
X105157000Y-159977000I75000J0D01*
G01*
X106482000Y-159977000D01*
G75*
G02*
X106557000Y-160052000I0J-75000D01*
G01*
X106557000Y-160202000D01*
G75*
G02*
X106482000Y-160277000I-75000J0D01*
G01*
G37*
G36*
G01*
X106482000Y-159777000D02*
X105157000Y-159777000D01*
G75*
G02*
X105082000Y-159702000I0J75000D01*
G01*
X105082000Y-159552000D01*
G75*
G02*
X105157000Y-159477000I75000J0D01*
G01*
X106482000Y-159477000D01*
G75*
G02*
X106557000Y-159552000I0J-75000D01*
G01*
X106557000Y-159702000D01*
G75*
G02*
X106482000Y-159777000I-75000J0D01*
G01*
G37*
G36*
G01*
X106482000Y-159277000D02*
X105157000Y-159277000D01*
G75*
G02*
X105082000Y-159202000I0J75000D01*
G01*
X105082000Y-159052000D01*
G75*
G02*
X105157000Y-158977000I75000J0D01*
G01*
X106482000Y-158977000D01*
G75*
G02*
X106557000Y-159052000I0J-75000D01*
G01*
X106557000Y-159202000D01*
G75*
G02*
X106482000Y-159277000I-75000J0D01*
G01*
G37*
G36*
G01*
X106482000Y-158777000D02*
X105157000Y-158777000D01*
G75*
G02*
X105082000Y-158702000I0J75000D01*
G01*
X105082000Y-158552000D01*
G75*
G02*
X105157000Y-158477000I75000J0D01*
G01*
X106482000Y-158477000D01*
G75*
G02*
X106557000Y-158552000I0J-75000D01*
G01*
X106557000Y-158702000D01*
G75*
G02*
X106482000Y-158777000I-75000J0D01*
G01*
G37*
G36*
G01*
X106482000Y-158277000D02*
X105157000Y-158277000D01*
G75*
G02*
X105082000Y-158202000I0J75000D01*
G01*
X105082000Y-158052000D01*
G75*
G02*
X105157000Y-157977000I75000J0D01*
G01*
X106482000Y-157977000D01*
G75*
G02*
X106557000Y-158052000I0J-75000D01*
G01*
X106557000Y-158202000D01*
G75*
G02*
X106482000Y-158277000I-75000J0D01*
G01*
G37*
G36*
G01*
X106482000Y-157777000D02*
X105157000Y-157777000D01*
G75*
G02*
X105082000Y-157702000I0J75000D01*
G01*
X105082000Y-157552000D01*
G75*
G02*
X105157000Y-157477000I75000J0D01*
G01*
X106482000Y-157477000D01*
G75*
G02*
X106557000Y-157552000I0J-75000D01*
G01*
X106557000Y-157702000D01*
G75*
G02*
X106482000Y-157777000I-75000J0D01*
G01*
G37*
G36*
G01*
X106482000Y-157277000D02*
X105157000Y-157277000D01*
G75*
G02*
X105082000Y-157202000I0J75000D01*
G01*
X105082000Y-157052000D01*
G75*
G02*
X105157000Y-156977000I75000J0D01*
G01*
X106482000Y-156977000D01*
G75*
G02*
X106557000Y-157052000I0J-75000D01*
G01*
X106557000Y-157202000D01*
G75*
G02*
X106482000Y-157277000I-75000J0D01*
G01*
G37*
G36*
G01*
X106482000Y-156777000D02*
X105157000Y-156777000D01*
G75*
G02*
X105082000Y-156702000I0J75000D01*
G01*
X105082000Y-156552000D01*
G75*
G02*
X105157000Y-156477000I75000J0D01*
G01*
X106482000Y-156477000D01*
G75*
G02*
X106557000Y-156552000I0J-75000D01*
G01*
X106557000Y-156702000D01*
G75*
G02*
X106482000Y-156777000I-75000J0D01*
G01*
G37*
G36*
G01*
X106482000Y-156277000D02*
X105157000Y-156277000D01*
G75*
G02*
X105082000Y-156202000I0J75000D01*
G01*
X105082000Y-156052000D01*
G75*
G02*
X105157000Y-155977000I75000J0D01*
G01*
X106482000Y-155977000D01*
G75*
G02*
X106557000Y-156052000I0J-75000D01*
G01*
X106557000Y-156202000D01*
G75*
G02*
X106482000Y-156277000I-75000J0D01*
G01*
G37*
G36*
G01*
X107307000Y-155452000D02*
X107157000Y-155452000D01*
G75*
G02*
X107082000Y-155377000I0J75000D01*
G01*
X107082000Y-154052000D01*
G75*
G02*
X107157000Y-153977000I75000J0D01*
G01*
X107307000Y-153977000D01*
G75*
G02*
X107382000Y-154052000I0J-75000D01*
G01*
X107382000Y-155377000D01*
G75*
G02*
X107307000Y-155452000I-75000J0D01*
G01*
G37*
G36*
G01*
X107807000Y-155452000D02*
X107657000Y-155452000D01*
G75*
G02*
X107582000Y-155377000I0J75000D01*
G01*
X107582000Y-154052000D01*
G75*
G02*
X107657000Y-153977000I75000J0D01*
G01*
X107807000Y-153977000D01*
G75*
G02*
X107882000Y-154052000I0J-75000D01*
G01*
X107882000Y-155377000D01*
G75*
G02*
X107807000Y-155452000I-75000J0D01*
G01*
G37*
G36*
G01*
X108307000Y-155452000D02*
X108157000Y-155452000D01*
G75*
G02*
X108082000Y-155377000I0J75000D01*
G01*
X108082000Y-154052000D01*
G75*
G02*
X108157000Y-153977000I75000J0D01*
G01*
X108307000Y-153977000D01*
G75*
G02*
X108382000Y-154052000I0J-75000D01*
G01*
X108382000Y-155377000D01*
G75*
G02*
X108307000Y-155452000I-75000J0D01*
G01*
G37*
G36*
G01*
X108807000Y-155452000D02*
X108657000Y-155452000D01*
G75*
G02*
X108582000Y-155377000I0J75000D01*
G01*
X108582000Y-154052000D01*
G75*
G02*
X108657000Y-153977000I75000J0D01*
G01*
X108807000Y-153977000D01*
G75*
G02*
X108882000Y-154052000I0J-75000D01*
G01*
X108882000Y-155377000D01*
G75*
G02*
X108807000Y-155452000I-75000J0D01*
G01*
G37*
G36*
G01*
X109307000Y-155452000D02*
X109157000Y-155452000D01*
G75*
G02*
X109082000Y-155377000I0J75000D01*
G01*
X109082000Y-154052000D01*
G75*
G02*
X109157000Y-153977000I75000J0D01*
G01*
X109307000Y-153977000D01*
G75*
G02*
X109382000Y-154052000I0J-75000D01*
G01*
X109382000Y-155377000D01*
G75*
G02*
X109307000Y-155452000I-75000J0D01*
G01*
G37*
G36*
G01*
X109807000Y-155452000D02*
X109657000Y-155452000D01*
G75*
G02*
X109582000Y-155377000I0J75000D01*
G01*
X109582000Y-154052000D01*
G75*
G02*
X109657000Y-153977000I75000J0D01*
G01*
X109807000Y-153977000D01*
G75*
G02*
X109882000Y-154052000I0J-75000D01*
G01*
X109882000Y-155377000D01*
G75*
G02*
X109807000Y-155452000I-75000J0D01*
G01*
G37*
G36*
G01*
X110307000Y-155452000D02*
X110157000Y-155452000D01*
G75*
G02*
X110082000Y-155377000I0J75000D01*
G01*
X110082000Y-154052000D01*
G75*
G02*
X110157000Y-153977000I75000J0D01*
G01*
X110307000Y-153977000D01*
G75*
G02*
X110382000Y-154052000I0J-75000D01*
G01*
X110382000Y-155377000D01*
G75*
G02*
X110307000Y-155452000I-75000J0D01*
G01*
G37*
G36*
G01*
X110807000Y-155452000D02*
X110657000Y-155452000D01*
G75*
G02*
X110582000Y-155377000I0J75000D01*
G01*
X110582000Y-154052000D01*
G75*
G02*
X110657000Y-153977000I75000J0D01*
G01*
X110807000Y-153977000D01*
G75*
G02*
X110882000Y-154052000I0J-75000D01*
G01*
X110882000Y-155377000D01*
G75*
G02*
X110807000Y-155452000I-75000J0D01*
G01*
G37*
G36*
G01*
X111307000Y-155452000D02*
X111157000Y-155452000D01*
G75*
G02*
X111082000Y-155377000I0J75000D01*
G01*
X111082000Y-154052000D01*
G75*
G02*
X111157000Y-153977000I75000J0D01*
G01*
X111307000Y-153977000D01*
G75*
G02*
X111382000Y-154052000I0J-75000D01*
G01*
X111382000Y-155377000D01*
G75*
G02*
X111307000Y-155452000I-75000J0D01*
G01*
G37*
G36*
G01*
X111807000Y-155452000D02*
X111657000Y-155452000D01*
G75*
G02*
X111582000Y-155377000I0J75000D01*
G01*
X111582000Y-154052000D01*
G75*
G02*
X111657000Y-153977000I75000J0D01*
G01*
X111807000Y-153977000D01*
G75*
G02*
X111882000Y-154052000I0J-75000D01*
G01*
X111882000Y-155377000D01*
G75*
G02*
X111807000Y-155452000I-75000J0D01*
G01*
G37*
G36*
G01*
X112307000Y-155452000D02*
X112157000Y-155452000D01*
G75*
G02*
X112082000Y-155377000I0J75000D01*
G01*
X112082000Y-154052000D01*
G75*
G02*
X112157000Y-153977000I75000J0D01*
G01*
X112307000Y-153977000D01*
G75*
G02*
X112382000Y-154052000I0J-75000D01*
G01*
X112382000Y-155377000D01*
G75*
G02*
X112307000Y-155452000I-75000J0D01*
G01*
G37*
G36*
G01*
X112807000Y-155452000D02*
X112657000Y-155452000D01*
G75*
G02*
X112582000Y-155377000I0J75000D01*
G01*
X112582000Y-154052000D01*
G75*
G02*
X112657000Y-153977000I75000J0D01*
G01*
X112807000Y-153977000D01*
G75*
G02*
X112882000Y-154052000I0J-75000D01*
G01*
X112882000Y-155377000D01*
G75*
G02*
X112807000Y-155452000I-75000J0D01*
G01*
G37*
G36*
G01*
X114807000Y-156277000D02*
X113482000Y-156277000D01*
G75*
G02*
X113407000Y-156202000I0J75000D01*
G01*
X113407000Y-156052000D01*
G75*
G02*
X113482000Y-155977000I75000J0D01*
G01*
X114807000Y-155977000D01*
G75*
G02*
X114882000Y-156052000I0J-75000D01*
G01*
X114882000Y-156202000D01*
G75*
G02*
X114807000Y-156277000I-75000J0D01*
G01*
G37*
G36*
G01*
X114807000Y-156777000D02*
X113482000Y-156777000D01*
G75*
G02*
X113407000Y-156702000I0J75000D01*
G01*
X113407000Y-156552000D01*
G75*
G02*
X113482000Y-156477000I75000J0D01*
G01*
X114807000Y-156477000D01*
G75*
G02*
X114882000Y-156552000I0J-75000D01*
G01*
X114882000Y-156702000D01*
G75*
G02*
X114807000Y-156777000I-75000J0D01*
G01*
G37*
G36*
G01*
X114807000Y-157277000D02*
X113482000Y-157277000D01*
G75*
G02*
X113407000Y-157202000I0J75000D01*
G01*
X113407000Y-157052000D01*
G75*
G02*
X113482000Y-156977000I75000J0D01*
G01*
X114807000Y-156977000D01*
G75*
G02*
X114882000Y-157052000I0J-75000D01*
G01*
X114882000Y-157202000D01*
G75*
G02*
X114807000Y-157277000I-75000J0D01*
G01*
G37*
G36*
G01*
X114807000Y-157777000D02*
X113482000Y-157777000D01*
G75*
G02*
X113407000Y-157702000I0J75000D01*
G01*
X113407000Y-157552000D01*
G75*
G02*
X113482000Y-157477000I75000J0D01*
G01*
X114807000Y-157477000D01*
G75*
G02*
X114882000Y-157552000I0J-75000D01*
G01*
X114882000Y-157702000D01*
G75*
G02*
X114807000Y-157777000I-75000J0D01*
G01*
G37*
G36*
G01*
X114807000Y-158277000D02*
X113482000Y-158277000D01*
G75*
G02*
X113407000Y-158202000I0J75000D01*
G01*
X113407000Y-158052000D01*
G75*
G02*
X113482000Y-157977000I75000J0D01*
G01*
X114807000Y-157977000D01*
G75*
G02*
X114882000Y-158052000I0J-75000D01*
G01*
X114882000Y-158202000D01*
G75*
G02*
X114807000Y-158277000I-75000J0D01*
G01*
G37*
G36*
G01*
X114807000Y-158777000D02*
X113482000Y-158777000D01*
G75*
G02*
X113407000Y-158702000I0J75000D01*
G01*
X113407000Y-158552000D01*
G75*
G02*
X113482000Y-158477000I75000J0D01*
G01*
X114807000Y-158477000D01*
G75*
G02*
X114882000Y-158552000I0J-75000D01*
G01*
X114882000Y-158702000D01*
G75*
G02*
X114807000Y-158777000I-75000J0D01*
G01*
G37*
G36*
G01*
X114807000Y-159277000D02*
X113482000Y-159277000D01*
G75*
G02*
X113407000Y-159202000I0J75000D01*
G01*
X113407000Y-159052000D01*
G75*
G02*
X113482000Y-158977000I75000J0D01*
G01*
X114807000Y-158977000D01*
G75*
G02*
X114882000Y-159052000I0J-75000D01*
G01*
X114882000Y-159202000D01*
G75*
G02*
X114807000Y-159277000I-75000J0D01*
G01*
G37*
G36*
G01*
X114807000Y-159777000D02*
X113482000Y-159777000D01*
G75*
G02*
X113407000Y-159702000I0J75000D01*
G01*
X113407000Y-159552000D01*
G75*
G02*
X113482000Y-159477000I75000J0D01*
G01*
X114807000Y-159477000D01*
G75*
G02*
X114882000Y-159552000I0J-75000D01*
G01*
X114882000Y-159702000D01*
G75*
G02*
X114807000Y-159777000I-75000J0D01*
G01*
G37*
G36*
G01*
X114807000Y-160277000D02*
X113482000Y-160277000D01*
G75*
G02*
X113407000Y-160202000I0J75000D01*
G01*
X113407000Y-160052000D01*
G75*
G02*
X113482000Y-159977000I75000J0D01*
G01*
X114807000Y-159977000D01*
G75*
G02*
X114882000Y-160052000I0J-75000D01*
G01*
X114882000Y-160202000D01*
G75*
G02*
X114807000Y-160277000I-75000J0D01*
G01*
G37*
G36*
G01*
X114807000Y-160777000D02*
X113482000Y-160777000D01*
G75*
G02*
X113407000Y-160702000I0J75000D01*
G01*
X113407000Y-160552000D01*
G75*
G02*
X113482000Y-160477000I75000J0D01*
G01*
X114807000Y-160477000D01*
G75*
G02*
X114882000Y-160552000I0J-75000D01*
G01*
X114882000Y-160702000D01*
G75*
G02*
X114807000Y-160777000I-75000J0D01*
G01*
G37*
G36*
G01*
X114807000Y-161277000D02*
X113482000Y-161277000D01*
G75*
G02*
X113407000Y-161202000I0J75000D01*
G01*
X113407000Y-161052000D01*
G75*
G02*
X113482000Y-160977000I75000J0D01*
G01*
X114807000Y-160977000D01*
G75*
G02*
X114882000Y-161052000I0J-75000D01*
G01*
X114882000Y-161202000D01*
G75*
G02*
X114807000Y-161277000I-75000J0D01*
G01*
G37*
G36*
G01*
X114807000Y-161777000D02*
X113482000Y-161777000D01*
G75*
G02*
X113407000Y-161702000I0J75000D01*
G01*
X113407000Y-161552000D01*
G75*
G02*
X113482000Y-161477000I75000J0D01*
G01*
X114807000Y-161477000D01*
G75*
G02*
X114882000Y-161552000I0J-75000D01*
G01*
X114882000Y-161702000D01*
G75*
G02*
X114807000Y-161777000I-75000J0D01*
G01*
G37*
G36*
G01*
X112807000Y-163777000D02*
X112657000Y-163777000D01*
G75*
G02*
X112582000Y-163702000I0J75000D01*
G01*
X112582000Y-162377000D01*
G75*
G02*
X112657000Y-162302000I75000J0D01*
G01*
X112807000Y-162302000D01*
G75*
G02*
X112882000Y-162377000I0J-75000D01*
G01*
X112882000Y-163702000D01*
G75*
G02*
X112807000Y-163777000I-75000J0D01*
G01*
G37*
G36*
G01*
X112307000Y-163777000D02*
X112157000Y-163777000D01*
G75*
G02*
X112082000Y-163702000I0J75000D01*
G01*
X112082000Y-162377000D01*
G75*
G02*
X112157000Y-162302000I75000J0D01*
G01*
X112307000Y-162302000D01*
G75*
G02*
X112382000Y-162377000I0J-75000D01*
G01*
X112382000Y-163702000D01*
G75*
G02*
X112307000Y-163777000I-75000J0D01*
G01*
G37*
G36*
G01*
X111807000Y-163777000D02*
X111657000Y-163777000D01*
G75*
G02*
X111582000Y-163702000I0J75000D01*
G01*
X111582000Y-162377000D01*
G75*
G02*
X111657000Y-162302000I75000J0D01*
G01*
X111807000Y-162302000D01*
G75*
G02*
X111882000Y-162377000I0J-75000D01*
G01*
X111882000Y-163702000D01*
G75*
G02*
X111807000Y-163777000I-75000J0D01*
G01*
G37*
G36*
G01*
X111307000Y-163777000D02*
X111157000Y-163777000D01*
G75*
G02*
X111082000Y-163702000I0J75000D01*
G01*
X111082000Y-162377000D01*
G75*
G02*
X111157000Y-162302000I75000J0D01*
G01*
X111307000Y-162302000D01*
G75*
G02*
X111382000Y-162377000I0J-75000D01*
G01*
X111382000Y-163702000D01*
G75*
G02*
X111307000Y-163777000I-75000J0D01*
G01*
G37*
G36*
G01*
X110807000Y-163777000D02*
X110657000Y-163777000D01*
G75*
G02*
X110582000Y-163702000I0J75000D01*
G01*
X110582000Y-162377000D01*
G75*
G02*
X110657000Y-162302000I75000J0D01*
G01*
X110807000Y-162302000D01*
G75*
G02*
X110882000Y-162377000I0J-75000D01*
G01*
X110882000Y-163702000D01*
G75*
G02*
X110807000Y-163777000I-75000J0D01*
G01*
G37*
G36*
G01*
X110307000Y-163777000D02*
X110157000Y-163777000D01*
G75*
G02*
X110082000Y-163702000I0J75000D01*
G01*
X110082000Y-162377000D01*
G75*
G02*
X110157000Y-162302000I75000J0D01*
G01*
X110307000Y-162302000D01*
G75*
G02*
X110382000Y-162377000I0J-75000D01*
G01*
X110382000Y-163702000D01*
G75*
G02*
X110307000Y-163777000I-75000J0D01*
G01*
G37*
G36*
G01*
X109807000Y-163777000D02*
X109657000Y-163777000D01*
G75*
G02*
X109582000Y-163702000I0J75000D01*
G01*
X109582000Y-162377000D01*
G75*
G02*
X109657000Y-162302000I75000J0D01*
G01*
X109807000Y-162302000D01*
G75*
G02*
X109882000Y-162377000I0J-75000D01*
G01*
X109882000Y-163702000D01*
G75*
G02*
X109807000Y-163777000I-75000J0D01*
G01*
G37*
G36*
G01*
X109307000Y-163777000D02*
X109157000Y-163777000D01*
G75*
G02*
X109082000Y-163702000I0J75000D01*
G01*
X109082000Y-162377000D01*
G75*
G02*
X109157000Y-162302000I75000J0D01*
G01*
X109307000Y-162302000D01*
G75*
G02*
X109382000Y-162377000I0J-75000D01*
G01*
X109382000Y-163702000D01*
G75*
G02*
X109307000Y-163777000I-75000J0D01*
G01*
G37*
G36*
G01*
X108807000Y-163777000D02*
X108657000Y-163777000D01*
G75*
G02*
X108582000Y-163702000I0J75000D01*
G01*
X108582000Y-162377000D01*
G75*
G02*
X108657000Y-162302000I75000J0D01*
G01*
X108807000Y-162302000D01*
G75*
G02*
X108882000Y-162377000I0J-75000D01*
G01*
X108882000Y-163702000D01*
G75*
G02*
X108807000Y-163777000I-75000J0D01*
G01*
G37*
G36*
G01*
X108307000Y-163777000D02*
X108157000Y-163777000D01*
G75*
G02*
X108082000Y-163702000I0J75000D01*
G01*
X108082000Y-162377000D01*
G75*
G02*
X108157000Y-162302000I75000J0D01*
G01*
X108307000Y-162302000D01*
G75*
G02*
X108382000Y-162377000I0J-75000D01*
G01*
X108382000Y-163702000D01*
G75*
G02*
X108307000Y-163777000I-75000J0D01*
G01*
G37*
G36*
G01*
X107807000Y-163777000D02*
X107657000Y-163777000D01*
G75*
G02*
X107582000Y-163702000I0J75000D01*
G01*
X107582000Y-162377000D01*
G75*
G02*
X107657000Y-162302000I75000J0D01*
G01*
X107807000Y-162302000D01*
G75*
G02*
X107882000Y-162377000I0J-75000D01*
G01*
X107882000Y-163702000D01*
G75*
G02*
X107807000Y-163777000I-75000J0D01*
G01*
G37*
G36*
G01*
X107307000Y-163777000D02*
X107157000Y-163777000D01*
G75*
G02*
X107082000Y-163702000I0J75000D01*
G01*
X107082000Y-162377000D01*
G75*
G02*
X107157000Y-162302000I75000J0D01*
G01*
X107307000Y-162302000D01*
G75*
G02*
X107382000Y-162377000I0J-75000D01*
G01*
X107382000Y-163702000D01*
G75*
G02*
X107307000Y-163777000I-75000J0D01*
G01*
G37*
%TD*%
%TO.C,U10*%
G36*
G01*
X172472000Y-171155500D02*
X172472000Y-170855500D01*
G75*
G02*
X172622000Y-170705500I150000J0D01*
G01*
X173922000Y-170705500D01*
G75*
G02*
X174072000Y-170855500I0J-150000D01*
G01*
X174072000Y-171155500D01*
G75*
G02*
X173922000Y-171305500I-150000J0D01*
G01*
X172622000Y-171305500D01*
G75*
G02*
X172472000Y-171155500I0J150000D01*
G01*
G37*
G36*
G01*
X172472000Y-172425500D02*
X172472000Y-172125500D01*
G75*
G02*
X172622000Y-171975500I150000J0D01*
G01*
X173922000Y-171975500D01*
G75*
G02*
X174072000Y-172125500I0J-150000D01*
G01*
X174072000Y-172425500D01*
G75*
G02*
X173922000Y-172575500I-150000J0D01*
G01*
X172622000Y-172575500D01*
G75*
G02*
X172472000Y-172425500I0J150000D01*
G01*
G37*
G36*
G01*
X172472000Y-173695500D02*
X172472000Y-173395500D01*
G75*
G02*
X172622000Y-173245500I150000J0D01*
G01*
X173922000Y-173245500D01*
G75*
G02*
X174072000Y-173395500I0J-150000D01*
G01*
X174072000Y-173695500D01*
G75*
G02*
X173922000Y-173845500I-150000J0D01*
G01*
X172622000Y-173845500D01*
G75*
G02*
X172472000Y-173695500I0J150000D01*
G01*
G37*
G36*
G01*
X172472000Y-174965500D02*
X172472000Y-174665500D01*
G75*
G02*
X172622000Y-174515500I150000J0D01*
G01*
X173922000Y-174515500D01*
G75*
G02*
X174072000Y-174665500I0J-150000D01*
G01*
X174072000Y-174965500D01*
G75*
G02*
X173922000Y-175115500I-150000J0D01*
G01*
X172622000Y-175115500D01*
G75*
G02*
X172472000Y-174965500I0J150000D01*
G01*
G37*
G36*
G01*
X165272000Y-174965500D02*
X165272000Y-174665500D01*
G75*
G02*
X165422000Y-174515500I150000J0D01*
G01*
X166722000Y-174515500D01*
G75*
G02*
X166872000Y-174665500I0J-150000D01*
G01*
X166872000Y-174965500D01*
G75*
G02*
X166722000Y-175115500I-150000J0D01*
G01*
X165422000Y-175115500D01*
G75*
G02*
X165272000Y-174965500I0J150000D01*
G01*
G37*
G36*
G01*
X165272000Y-173695500D02*
X165272000Y-173395500D01*
G75*
G02*
X165422000Y-173245500I150000J0D01*
G01*
X166722000Y-173245500D01*
G75*
G02*
X166872000Y-173395500I0J-150000D01*
G01*
X166872000Y-173695500D01*
G75*
G02*
X166722000Y-173845500I-150000J0D01*
G01*
X165422000Y-173845500D01*
G75*
G02*
X165272000Y-173695500I0J150000D01*
G01*
G37*
G36*
G01*
X165272000Y-172425500D02*
X165272000Y-172125500D01*
G75*
G02*
X165422000Y-171975500I150000J0D01*
G01*
X166722000Y-171975500D01*
G75*
G02*
X166872000Y-172125500I0J-150000D01*
G01*
X166872000Y-172425500D01*
G75*
G02*
X166722000Y-172575500I-150000J0D01*
G01*
X165422000Y-172575500D01*
G75*
G02*
X165272000Y-172425500I0J150000D01*
G01*
G37*
G36*
G01*
X165272000Y-171155500D02*
X165272000Y-170855500D01*
G75*
G02*
X165422000Y-170705500I150000J0D01*
G01*
X166722000Y-170705500D01*
G75*
G02*
X166872000Y-170855500I0J-150000D01*
G01*
X166872000Y-171155500D01*
G75*
G02*
X166722000Y-171305500I-150000J0D01*
G01*
X165422000Y-171305500D01*
G75*
G02*
X165272000Y-171155500I0J150000D01*
G01*
G37*
%TD*%
D19*
%TO.C,U9*%
X79574000Y-138938000D03*
X80224000Y-138938000D03*
X80884000Y-138938000D03*
X81534000Y-138938000D03*
X81534000Y-141638000D03*
X80884000Y-141638000D03*
X80224000Y-141638000D03*
X79574000Y-141638000D03*
%TD*%
%TO.C,U8*%
G36*
G01*
X47220000Y-131849000D02*
X47220000Y-131549000D01*
G75*
G02*
X47370000Y-131399000I150000J0D01*
G01*
X49020000Y-131399000D01*
G75*
G02*
X49170000Y-131549000I0J-150000D01*
G01*
X49170000Y-131849000D01*
G75*
G02*
X49020000Y-131999000I-150000J0D01*
G01*
X47370000Y-131999000D01*
G75*
G02*
X47220000Y-131849000I0J150000D01*
G01*
G37*
G36*
G01*
X47220000Y-133119000D02*
X47220000Y-132819000D01*
G75*
G02*
X47370000Y-132669000I150000J0D01*
G01*
X49020000Y-132669000D01*
G75*
G02*
X49170000Y-132819000I0J-150000D01*
G01*
X49170000Y-133119000D01*
G75*
G02*
X49020000Y-133269000I-150000J0D01*
G01*
X47370000Y-133269000D01*
G75*
G02*
X47220000Y-133119000I0J150000D01*
G01*
G37*
G36*
G01*
X47220000Y-134389000D02*
X47220000Y-134089000D01*
G75*
G02*
X47370000Y-133939000I150000J0D01*
G01*
X49020000Y-133939000D01*
G75*
G02*
X49170000Y-134089000I0J-150000D01*
G01*
X49170000Y-134389000D01*
G75*
G02*
X49020000Y-134539000I-150000J0D01*
G01*
X47370000Y-134539000D01*
G75*
G02*
X47220000Y-134389000I0J150000D01*
G01*
G37*
G36*
G01*
X47220000Y-135659000D02*
X47220000Y-135359000D01*
G75*
G02*
X47370000Y-135209000I150000J0D01*
G01*
X49020000Y-135209000D01*
G75*
G02*
X49170000Y-135359000I0J-150000D01*
G01*
X49170000Y-135659000D01*
G75*
G02*
X49020000Y-135809000I-150000J0D01*
G01*
X47370000Y-135809000D01*
G75*
G02*
X47220000Y-135659000I0J150000D01*
G01*
G37*
G36*
G01*
X42270000Y-135659000D02*
X42270000Y-135359000D01*
G75*
G02*
X42420000Y-135209000I150000J0D01*
G01*
X44070000Y-135209000D01*
G75*
G02*
X44220000Y-135359000I0J-150000D01*
G01*
X44220000Y-135659000D01*
G75*
G02*
X44070000Y-135809000I-150000J0D01*
G01*
X42420000Y-135809000D01*
G75*
G02*
X42270000Y-135659000I0J150000D01*
G01*
G37*
G36*
G01*
X42270000Y-134389000D02*
X42270000Y-134089000D01*
G75*
G02*
X42420000Y-133939000I150000J0D01*
G01*
X44070000Y-133939000D01*
G75*
G02*
X44220000Y-134089000I0J-150000D01*
G01*
X44220000Y-134389000D01*
G75*
G02*
X44070000Y-134539000I-150000J0D01*
G01*
X42420000Y-134539000D01*
G75*
G02*
X42270000Y-134389000I0J150000D01*
G01*
G37*
G36*
G01*
X42270000Y-133119000D02*
X42270000Y-132819000D01*
G75*
G02*
X42420000Y-132669000I150000J0D01*
G01*
X44070000Y-132669000D01*
G75*
G02*
X44220000Y-132819000I0J-150000D01*
G01*
X44220000Y-133119000D01*
G75*
G02*
X44070000Y-133269000I-150000J0D01*
G01*
X42420000Y-133269000D01*
G75*
G02*
X42270000Y-133119000I0J150000D01*
G01*
G37*
G36*
G01*
X42270000Y-131849000D02*
X42270000Y-131549000D01*
G75*
G02*
X42420000Y-131399000I150000J0D01*
G01*
X44070000Y-131399000D01*
G75*
G02*
X44220000Y-131549000I0J-150000D01*
G01*
X44220000Y-131849000D01*
G75*
G02*
X44070000Y-131999000I-150000J0D01*
G01*
X42420000Y-131999000D01*
G75*
G02*
X42270000Y-131849000I0J150000D01*
G01*
G37*
%TD*%
D20*
%TO.C,U7*%
X89556000Y-171302000D03*
X88606000Y-171302000D03*
X87656000Y-171302000D03*
X87656000Y-168682000D03*
X88606000Y-168682000D03*
X89556000Y-168682000D03*
%TD*%
%TO.C,U6*%
X74650000Y-171236000D03*
X73700000Y-171236000D03*
X72750000Y-171236000D03*
X72750000Y-168616000D03*
X73700000Y-168616000D03*
X74650000Y-168616000D03*
%TD*%
%TO.C,U5*%
X59812000Y-176102000D03*
X58862000Y-176102000D03*
X57912000Y-176102000D03*
X57912000Y-173482000D03*
X58862000Y-173482000D03*
X59812000Y-173482000D03*
%TD*%
D21*
%TO.C,U4*%
X39032000Y-167574000D03*
X39032000Y-165674000D03*
X41232000Y-165674000D03*
X41232000Y-166624000D03*
X41232000Y-167574000D03*
%TD*%
D22*
%TO.C,U3*%
X139457000Y-163279500D03*
X140107000Y-163279500D03*
X140757000Y-163279500D03*
X141407000Y-163279500D03*
X142057000Y-163279500D03*
X142707000Y-163279500D03*
X143357000Y-163279500D03*
X144007000Y-163279500D03*
X144007000Y-169079500D03*
X143357000Y-169079500D03*
X142707000Y-169079500D03*
X142057000Y-169079500D03*
X141407000Y-169079500D03*
X140757000Y-169079500D03*
X140107000Y-169079500D03*
X139457000Y-169079500D03*
%TD*%
D23*
%TO.C,U2*%
X149199000Y-162865500D03*
X149199000Y-162365500D03*
X149199000Y-161865500D03*
X149199000Y-161365500D03*
X152299000Y-161365500D03*
X152299000Y-161865500D03*
X152299000Y-162365500D03*
X152299000Y-162865500D03*
%TD*%
%TO.C,U1*%
X149199000Y-169088500D03*
X149199000Y-168588500D03*
X149199000Y-168088500D03*
X149199000Y-167588500D03*
X152299000Y-167588500D03*
X152299000Y-168088500D03*
X152299000Y-168588500D03*
X152299000Y-169088500D03*
%TD*%
D24*
%TO.C,RV2*%
X182626000Y-163639500D03*
X182626000Y-166179500D03*
X182626000Y-168719500D03*
%TD*%
%TO.C,RV1*%
X133477000Y-142176500D03*
X133477000Y-139636500D03*
X133477000Y-137096500D03*
%TD*%
%TO.C,R97*%
G36*
G01*
X185350999Y-152212500D02*
X186251001Y-152212500D01*
G75*
G02*
X186501000Y-152462499I0J-249999D01*
G01*
X186501000Y-153162501D01*
G75*
G02*
X186251001Y-153412500I-249999J0D01*
G01*
X185350999Y-153412500D01*
G75*
G02*
X185101000Y-153162501I0J249999D01*
G01*
X185101000Y-152462499D01*
G75*
G02*
X185350999Y-152212500I249999J0D01*
G01*
G37*
G36*
G01*
X185350999Y-150212500D02*
X186251001Y-150212500D01*
G75*
G02*
X186501000Y-150462499I0J-249999D01*
G01*
X186501000Y-151162501D01*
G75*
G02*
X186251001Y-151412500I-249999J0D01*
G01*
X185350999Y-151412500D01*
G75*
G02*
X185101000Y-151162501I0J249999D01*
G01*
X185101000Y-150462499D01*
G75*
G02*
X185350999Y-150212500I249999J0D01*
G01*
G37*
%TD*%
%TO.C,R96*%
G36*
G01*
X179508999Y-152212500D02*
X180409001Y-152212500D01*
G75*
G02*
X180659000Y-152462499I0J-249999D01*
G01*
X180659000Y-153162501D01*
G75*
G02*
X180409001Y-153412500I-249999J0D01*
G01*
X179508999Y-153412500D01*
G75*
G02*
X179259000Y-153162501I0J249999D01*
G01*
X179259000Y-152462499D01*
G75*
G02*
X179508999Y-152212500I249999J0D01*
G01*
G37*
G36*
G01*
X179508999Y-150212500D02*
X180409001Y-150212500D01*
G75*
G02*
X180659000Y-150462499I0J-249999D01*
G01*
X180659000Y-151162501D01*
G75*
G02*
X180409001Y-151412500I-249999J0D01*
G01*
X179508999Y-151412500D01*
G75*
G02*
X179259000Y-151162501I0J249999D01*
G01*
X179259000Y-150462499D01*
G75*
G02*
X179508999Y-150212500I249999J0D01*
G01*
G37*
%TD*%
%TO.C,R95*%
G36*
G01*
X173666999Y-152212500D02*
X174567001Y-152212500D01*
G75*
G02*
X174817000Y-152462499I0J-249999D01*
G01*
X174817000Y-153162501D01*
G75*
G02*
X174567001Y-153412500I-249999J0D01*
G01*
X173666999Y-153412500D01*
G75*
G02*
X173417000Y-153162501I0J249999D01*
G01*
X173417000Y-152462499D01*
G75*
G02*
X173666999Y-152212500I249999J0D01*
G01*
G37*
G36*
G01*
X173666999Y-150212500D02*
X174567001Y-150212500D01*
G75*
G02*
X174817000Y-150462499I0J-249999D01*
G01*
X174817000Y-151162501D01*
G75*
G02*
X174567001Y-151412500I-249999J0D01*
G01*
X173666999Y-151412500D01*
G75*
G02*
X173417000Y-151162501I0J249999D01*
G01*
X173417000Y-150462499D01*
G75*
G02*
X173666999Y-150212500I249999J0D01*
G01*
G37*
%TD*%
%TO.C,R94*%
G36*
G01*
X167824999Y-152212500D02*
X168725001Y-152212500D01*
G75*
G02*
X168975000Y-152462499I0J-249999D01*
G01*
X168975000Y-153162501D01*
G75*
G02*
X168725001Y-153412500I-249999J0D01*
G01*
X167824999Y-153412500D01*
G75*
G02*
X167575000Y-153162501I0J249999D01*
G01*
X167575000Y-152462499D01*
G75*
G02*
X167824999Y-152212500I249999J0D01*
G01*
G37*
G36*
G01*
X167824999Y-150212500D02*
X168725001Y-150212500D01*
G75*
G02*
X168975000Y-150462499I0J-249999D01*
G01*
X168975000Y-151162501D01*
G75*
G02*
X168725001Y-151412500I-249999J0D01*
G01*
X167824999Y-151412500D01*
G75*
G02*
X167575000Y-151162501I0J249999D01*
G01*
X167575000Y-150462499D01*
G75*
G02*
X167824999Y-150212500I249999J0D01*
G01*
G37*
%TD*%
%TO.C,R93*%
G36*
G01*
X161982999Y-152212500D02*
X162883001Y-152212500D01*
G75*
G02*
X163133000Y-152462499I0J-249999D01*
G01*
X163133000Y-153162501D01*
G75*
G02*
X162883001Y-153412500I-249999J0D01*
G01*
X161982999Y-153412500D01*
G75*
G02*
X161733000Y-153162501I0J249999D01*
G01*
X161733000Y-152462499D01*
G75*
G02*
X161982999Y-152212500I249999J0D01*
G01*
G37*
G36*
G01*
X161982999Y-150212500D02*
X162883001Y-150212500D01*
G75*
G02*
X163133000Y-150462499I0J-249999D01*
G01*
X163133000Y-151162501D01*
G75*
G02*
X162883001Y-151412500I-249999J0D01*
G01*
X161982999Y-151412500D01*
G75*
G02*
X161733000Y-151162501I0J249999D01*
G01*
X161733000Y-150462499D01*
G75*
G02*
X161982999Y-150212500I249999J0D01*
G01*
G37*
%TD*%
%TO.C,R89*%
G36*
G01*
X156394999Y-152212500D02*
X157295001Y-152212500D01*
G75*
G02*
X157545000Y-152462499I0J-249999D01*
G01*
X157545000Y-153162501D01*
G75*
G02*
X157295001Y-153412500I-249999J0D01*
G01*
X156394999Y-153412500D01*
G75*
G02*
X156145000Y-153162501I0J249999D01*
G01*
X156145000Y-152462499D01*
G75*
G02*
X156394999Y-152212500I249999J0D01*
G01*
G37*
G36*
G01*
X156394999Y-150212500D02*
X157295001Y-150212500D01*
G75*
G02*
X157545000Y-150462499I0J-249999D01*
G01*
X157545000Y-151162501D01*
G75*
G02*
X157295001Y-151412500I-249999J0D01*
G01*
X156394999Y-151412500D01*
G75*
G02*
X156145000Y-151162501I0J249999D01*
G01*
X156145000Y-150462499D01*
G75*
G02*
X156394999Y-150212500I249999J0D01*
G01*
G37*
%TD*%
%TO.C,R87*%
G36*
G01*
X98587000Y-153612001D02*
X98587000Y-152711999D01*
G75*
G02*
X98836999Y-152462000I249999J0D01*
G01*
X99537001Y-152462000D01*
G75*
G02*
X99787000Y-152711999I0J-249999D01*
G01*
X99787000Y-153612001D01*
G75*
G02*
X99537001Y-153862000I-249999J0D01*
G01*
X98836999Y-153862000D01*
G75*
G02*
X98587000Y-153612001I0J249999D01*
G01*
G37*
G36*
G01*
X96587000Y-153612001D02*
X96587000Y-152711999D01*
G75*
G02*
X96836999Y-152462000I249999J0D01*
G01*
X97537001Y-152462000D01*
G75*
G02*
X97787000Y-152711999I0J-249999D01*
G01*
X97787000Y-153612001D01*
G75*
G02*
X97537001Y-153862000I-249999J0D01*
G01*
X96836999Y-153862000D01*
G75*
G02*
X96587000Y-153612001I0J249999D01*
G01*
G37*
%TD*%
%TO.C,R86*%
G36*
G01*
X98587000Y-151072001D02*
X98587000Y-150171999D01*
G75*
G02*
X98836999Y-149922000I249999J0D01*
G01*
X99537001Y-149922000D01*
G75*
G02*
X99787000Y-150171999I0J-249999D01*
G01*
X99787000Y-151072001D01*
G75*
G02*
X99537001Y-151322000I-249999J0D01*
G01*
X98836999Y-151322000D01*
G75*
G02*
X98587000Y-151072001I0J249999D01*
G01*
G37*
G36*
G01*
X96587000Y-151072001D02*
X96587000Y-150171999D01*
G75*
G02*
X96836999Y-149922000I249999J0D01*
G01*
X97537001Y-149922000D01*
G75*
G02*
X97787000Y-150171999I0J-249999D01*
G01*
X97787000Y-151072001D01*
G75*
G02*
X97537001Y-151322000I-249999J0D01*
G01*
X96836999Y-151322000D01*
G75*
G02*
X96587000Y-151072001I0J249999D01*
G01*
G37*
%TD*%
%TO.C,R85*%
G36*
G01*
X175517000Y-158247501D02*
X175517000Y-157347499D01*
G75*
G02*
X175766999Y-157097500I249999J0D01*
G01*
X176467001Y-157097500D01*
G75*
G02*
X176717000Y-157347499I0J-249999D01*
G01*
X176717000Y-158247501D01*
G75*
G02*
X176467001Y-158497500I-249999J0D01*
G01*
X175766999Y-158497500D01*
G75*
G02*
X175517000Y-158247501I0J249999D01*
G01*
G37*
G36*
G01*
X173517000Y-158247501D02*
X173517000Y-157347499D01*
G75*
G02*
X173766999Y-157097500I249999J0D01*
G01*
X174467001Y-157097500D01*
G75*
G02*
X174717000Y-157347499I0J-249999D01*
G01*
X174717000Y-158247501D01*
G75*
G02*
X174467001Y-158497500I-249999J0D01*
G01*
X173766999Y-158497500D01*
G75*
G02*
X173517000Y-158247501I0J249999D01*
G01*
G37*
%TD*%
%TO.C,R84*%
G36*
G01*
X114678000Y-143821999D02*
X114678000Y-144722001D01*
G75*
G02*
X114428001Y-144972000I-249999J0D01*
G01*
X113727999Y-144972000D01*
G75*
G02*
X113478000Y-144722001I0J249999D01*
G01*
X113478000Y-143821999D01*
G75*
G02*
X113727999Y-143572000I249999J0D01*
G01*
X114428001Y-143572000D01*
G75*
G02*
X114678000Y-143821999I0J-249999D01*
G01*
G37*
G36*
G01*
X116678000Y-143821999D02*
X116678000Y-144722001D01*
G75*
G02*
X116428001Y-144972000I-249999J0D01*
G01*
X115727999Y-144972000D01*
G75*
G02*
X115478000Y-144722001I0J249999D01*
G01*
X115478000Y-143821999D01*
G75*
G02*
X115727999Y-143572000I249999J0D01*
G01*
X116428001Y-143572000D01*
G75*
G02*
X116678000Y-143821999I0J-249999D01*
G01*
G37*
%TD*%
%TO.C,R83*%
G36*
G01*
X178724000Y-175519501D02*
X178724000Y-174619499D01*
G75*
G02*
X178973999Y-174369500I249999J0D01*
G01*
X179674001Y-174369500D01*
G75*
G02*
X179924000Y-174619499I0J-249999D01*
G01*
X179924000Y-175519501D01*
G75*
G02*
X179674001Y-175769500I-249999J0D01*
G01*
X178973999Y-175769500D01*
G75*
G02*
X178724000Y-175519501I0J249999D01*
G01*
G37*
G36*
G01*
X176724000Y-175519501D02*
X176724000Y-174619499D01*
G75*
G02*
X176973999Y-174369500I249999J0D01*
G01*
X177674001Y-174369500D01*
G75*
G02*
X177924000Y-174619499I0J-249999D01*
G01*
X177924000Y-175519501D01*
G75*
G02*
X177674001Y-175769500I-249999J0D01*
G01*
X176973999Y-175769500D01*
G75*
G02*
X176724000Y-175519501I0J249999D01*
G01*
G37*
%TD*%
%TO.C,R82*%
G36*
G01*
X175317999Y-170532500D02*
X176218001Y-170532500D01*
G75*
G02*
X176468000Y-170782499I0J-249999D01*
G01*
X176468000Y-171482501D01*
G75*
G02*
X176218001Y-171732500I-249999J0D01*
G01*
X175317999Y-171732500D01*
G75*
G02*
X175068000Y-171482501I0J249999D01*
G01*
X175068000Y-170782499D01*
G75*
G02*
X175317999Y-170532500I249999J0D01*
G01*
G37*
G36*
G01*
X175317999Y-168532500D02*
X176218001Y-168532500D01*
G75*
G02*
X176468000Y-168782499I0J-249999D01*
G01*
X176468000Y-169482501D01*
G75*
G02*
X176218001Y-169732500I-249999J0D01*
G01*
X175317999Y-169732500D01*
G75*
G02*
X175068000Y-169482501I0J249999D01*
G01*
X175068000Y-168782499D01*
G75*
G02*
X175317999Y-168532500I249999J0D01*
G01*
G37*
%TD*%
%TO.C,R81*%
G36*
G01*
X174567001Y-160207500D02*
X173666999Y-160207500D01*
G75*
G02*
X173417000Y-159957501I0J249999D01*
G01*
X173417000Y-159257499D01*
G75*
G02*
X173666999Y-159007500I249999J0D01*
G01*
X174567001Y-159007500D01*
G75*
G02*
X174817000Y-159257499I0J-249999D01*
G01*
X174817000Y-159957501D01*
G75*
G02*
X174567001Y-160207500I-249999J0D01*
G01*
G37*
G36*
G01*
X174567001Y-162207500D02*
X173666999Y-162207500D01*
G75*
G02*
X173417000Y-161957501I0J249999D01*
G01*
X173417000Y-161257499D01*
G75*
G02*
X173666999Y-161007500I249999J0D01*
G01*
X174567001Y-161007500D01*
G75*
G02*
X174817000Y-161257499I0J-249999D01*
G01*
X174817000Y-161957501D01*
G75*
G02*
X174567001Y-162207500I-249999J0D01*
G01*
G37*
%TD*%
%TO.C,R80*%
G36*
G01*
X114678000Y-141281999D02*
X114678000Y-142182001D01*
G75*
G02*
X114428001Y-142432000I-249999J0D01*
G01*
X113727999Y-142432000D01*
G75*
G02*
X113478000Y-142182001I0J249999D01*
G01*
X113478000Y-141281999D01*
G75*
G02*
X113727999Y-141032000I249999J0D01*
G01*
X114428001Y-141032000D01*
G75*
G02*
X114678000Y-141281999I0J-249999D01*
G01*
G37*
G36*
G01*
X116678000Y-141281999D02*
X116678000Y-142182001D01*
G75*
G02*
X116428001Y-142432000I-249999J0D01*
G01*
X115727999Y-142432000D01*
G75*
G02*
X115478000Y-142182001I0J249999D01*
G01*
X115478000Y-141281999D01*
G75*
G02*
X115727999Y-141032000I249999J0D01*
G01*
X116428001Y-141032000D01*
G75*
G02*
X116678000Y-141281999I0J-249999D01*
G01*
G37*
%TD*%
%TO.C,R79*%
G36*
G01*
X183711001Y-158302500D02*
X182810999Y-158302500D01*
G75*
G02*
X182561000Y-158052501I0J249999D01*
G01*
X182561000Y-157352499D01*
G75*
G02*
X182810999Y-157102500I249999J0D01*
G01*
X183711001Y-157102500D01*
G75*
G02*
X183961000Y-157352499I0J-249999D01*
G01*
X183961000Y-158052501D01*
G75*
G02*
X183711001Y-158302500I-249999J0D01*
G01*
G37*
G36*
G01*
X183711001Y-160302500D02*
X182810999Y-160302500D01*
G75*
G02*
X182561000Y-160052501I0J249999D01*
G01*
X182561000Y-159352499D01*
G75*
G02*
X182810999Y-159102500I249999J0D01*
G01*
X183711001Y-159102500D01*
G75*
G02*
X183961000Y-159352499I0J-249999D01*
G01*
X183961000Y-160052501D01*
G75*
G02*
X183711001Y-160302500I-249999J0D01*
G01*
G37*
%TD*%
%TO.C,R78*%
G36*
G01*
X114678000Y-138741999D02*
X114678000Y-139642001D01*
G75*
G02*
X114428001Y-139892000I-249999J0D01*
G01*
X113727999Y-139892000D01*
G75*
G02*
X113478000Y-139642001I0J249999D01*
G01*
X113478000Y-138741999D01*
G75*
G02*
X113727999Y-138492000I249999J0D01*
G01*
X114428001Y-138492000D01*
G75*
G02*
X114678000Y-138741999I0J-249999D01*
G01*
G37*
G36*
G01*
X116678000Y-138741999D02*
X116678000Y-139642001D01*
G75*
G02*
X116428001Y-139892000I-249999J0D01*
G01*
X115727999Y-139892000D01*
G75*
G02*
X115478000Y-139642001I0J249999D01*
G01*
X115478000Y-138741999D01*
G75*
G02*
X115727999Y-138492000I249999J0D01*
G01*
X116428001Y-138492000D01*
G75*
G02*
X116678000Y-138741999I0J-249999D01*
G01*
G37*
%TD*%
%TO.C,R77*%
G36*
G01*
X191077001Y-137474500D02*
X190176999Y-137474500D01*
G75*
G02*
X189927000Y-137224501I0J249999D01*
G01*
X189927000Y-136524499D01*
G75*
G02*
X190176999Y-136274500I249999J0D01*
G01*
X191077001Y-136274500D01*
G75*
G02*
X191327000Y-136524499I0J-249999D01*
G01*
X191327000Y-137224501D01*
G75*
G02*
X191077001Y-137474500I-249999J0D01*
G01*
G37*
G36*
G01*
X191077001Y-139474500D02*
X190176999Y-139474500D01*
G75*
G02*
X189927000Y-139224501I0J249999D01*
G01*
X189927000Y-138524499D01*
G75*
G02*
X190176999Y-138274500I249999J0D01*
G01*
X191077001Y-138274500D01*
G75*
G02*
X191327000Y-138524499I0J-249999D01*
G01*
X191327000Y-139224501D01*
G75*
G02*
X191077001Y-139474500I-249999J0D01*
G01*
G37*
%TD*%
%TO.C,R76*%
G36*
G01*
X176660000Y-177297501D02*
X176660000Y-176397499D01*
G75*
G02*
X176909999Y-176147500I249999J0D01*
G01*
X177610001Y-176147500D01*
G75*
G02*
X177860000Y-176397499I0J-249999D01*
G01*
X177860000Y-177297501D01*
G75*
G02*
X177610001Y-177547500I-249999J0D01*
G01*
X176909999Y-177547500D01*
G75*
G02*
X176660000Y-177297501I0J249999D01*
G01*
G37*
G36*
G01*
X174660000Y-177297501D02*
X174660000Y-176397499D01*
G75*
G02*
X174909999Y-176147500I249999J0D01*
G01*
X175610001Y-176147500D01*
G75*
G02*
X175860000Y-176397499I0J-249999D01*
G01*
X175860000Y-177297501D01*
G75*
G02*
X175610001Y-177547500I-249999J0D01*
G01*
X174909999Y-177547500D01*
G75*
G02*
X174660000Y-177297501I0J249999D01*
G01*
G37*
%TD*%
%TO.C,R75*%
G36*
G01*
X192855001Y-137474500D02*
X191954999Y-137474500D01*
G75*
G02*
X191705000Y-137224501I0J249999D01*
G01*
X191705000Y-136524499D01*
G75*
G02*
X191954999Y-136274500I249999J0D01*
G01*
X192855001Y-136274500D01*
G75*
G02*
X193105000Y-136524499I0J-249999D01*
G01*
X193105000Y-137224501D01*
G75*
G02*
X192855001Y-137474500I-249999J0D01*
G01*
G37*
G36*
G01*
X192855001Y-139474500D02*
X191954999Y-139474500D01*
G75*
G02*
X191705000Y-139224501I0J249999D01*
G01*
X191705000Y-138524499D01*
G75*
G02*
X191954999Y-138274500I249999J0D01*
G01*
X192855001Y-138274500D01*
G75*
G02*
X193105000Y-138524499I0J-249999D01*
G01*
X193105000Y-139224501D01*
G75*
G02*
X192855001Y-139474500I-249999J0D01*
G01*
G37*
%TD*%
%TO.C,R74*%
G36*
G01*
X114242001Y-132696000D02*
X113341999Y-132696000D01*
G75*
G02*
X113092000Y-132446001I0J249999D01*
G01*
X113092000Y-131745999D01*
G75*
G02*
X113341999Y-131496000I249999J0D01*
G01*
X114242001Y-131496000D01*
G75*
G02*
X114492000Y-131745999I0J-249999D01*
G01*
X114492000Y-132446001D01*
G75*
G02*
X114242001Y-132696000I-249999J0D01*
G01*
G37*
G36*
G01*
X114242001Y-134696000D02*
X113341999Y-134696000D01*
G75*
G02*
X113092000Y-134446001I0J249999D01*
G01*
X113092000Y-133745999D01*
G75*
G02*
X113341999Y-133496000I249999J0D01*
G01*
X114242001Y-133496000D01*
G75*
G02*
X114492000Y-133745999I0J-249999D01*
G01*
X114492000Y-134446001D01*
G75*
G02*
X114242001Y-134696000I-249999J0D01*
G01*
G37*
%TD*%
%TO.C,R73*%
G36*
G01*
X111817999Y-169437000D02*
X112718001Y-169437000D01*
G75*
G02*
X112968000Y-169686999I0J-249999D01*
G01*
X112968000Y-170387001D01*
G75*
G02*
X112718001Y-170637000I-249999J0D01*
G01*
X111817999Y-170637000D01*
G75*
G02*
X111568000Y-170387001I0J249999D01*
G01*
X111568000Y-169686999D01*
G75*
G02*
X111817999Y-169437000I249999J0D01*
G01*
G37*
G36*
G01*
X111817999Y-167437000D02*
X112718001Y-167437000D01*
G75*
G02*
X112968000Y-167686999I0J-249999D01*
G01*
X112968000Y-168387001D01*
G75*
G02*
X112718001Y-168637000I-249999J0D01*
G01*
X111817999Y-168637000D01*
G75*
G02*
X111568000Y-168387001I0J249999D01*
G01*
X111568000Y-167686999D01*
G75*
G02*
X111817999Y-167437000I249999J0D01*
G01*
G37*
%TD*%
%TO.C,R72*%
G36*
G01*
X189668999Y-132908500D02*
X190569001Y-132908500D01*
G75*
G02*
X190819000Y-133158499I0J-249999D01*
G01*
X190819000Y-133858501D01*
G75*
G02*
X190569001Y-134108500I-249999J0D01*
G01*
X189668999Y-134108500D01*
G75*
G02*
X189419000Y-133858501I0J249999D01*
G01*
X189419000Y-133158499D01*
G75*
G02*
X189668999Y-132908500I249999J0D01*
G01*
G37*
G36*
G01*
X189668999Y-130908500D02*
X190569001Y-130908500D01*
G75*
G02*
X190819000Y-131158499I0J-249999D01*
G01*
X190819000Y-131858501D01*
G75*
G02*
X190569001Y-132108500I-249999J0D01*
G01*
X189668999Y-132108500D01*
G75*
G02*
X189419000Y-131858501I0J249999D01*
G01*
X189419000Y-131158499D01*
G75*
G02*
X189668999Y-130908500I249999J0D01*
G01*
G37*
%TD*%
%TO.C,R71*%
G36*
G01*
X189668999Y-129098500D02*
X190569001Y-129098500D01*
G75*
G02*
X190819000Y-129348499I0J-249999D01*
G01*
X190819000Y-130048501D01*
G75*
G02*
X190569001Y-130298500I-249999J0D01*
G01*
X189668999Y-130298500D01*
G75*
G02*
X189419000Y-130048501I0J249999D01*
G01*
X189419000Y-129348499D01*
G75*
G02*
X189668999Y-129098500I249999J0D01*
G01*
G37*
G36*
G01*
X189668999Y-127098500D02*
X190569001Y-127098500D01*
G75*
G02*
X190819000Y-127348499I0J-249999D01*
G01*
X190819000Y-128048501D01*
G75*
G02*
X190569001Y-128298500I-249999J0D01*
G01*
X189668999Y-128298500D01*
G75*
G02*
X189419000Y-128048501I0J249999D01*
G01*
X189419000Y-127348499D01*
G75*
G02*
X189668999Y-127098500I249999J0D01*
G01*
G37*
%TD*%
%TO.C,R70*%
G36*
G01*
X172082000Y-168523499D02*
X172082000Y-169423501D01*
G75*
G02*
X171832001Y-169673500I-249999J0D01*
G01*
X171131999Y-169673500D01*
G75*
G02*
X170882000Y-169423501I0J249999D01*
G01*
X170882000Y-168523499D01*
G75*
G02*
X171131999Y-168273500I249999J0D01*
G01*
X171832001Y-168273500D01*
G75*
G02*
X172082000Y-168523499I0J-249999D01*
G01*
G37*
G36*
G01*
X174082000Y-168523499D02*
X174082000Y-169423501D01*
G75*
G02*
X173832001Y-169673500I-249999J0D01*
G01*
X173131999Y-169673500D01*
G75*
G02*
X172882000Y-169423501I0J249999D01*
G01*
X172882000Y-168523499D01*
G75*
G02*
X173131999Y-168273500I249999J0D01*
G01*
X173832001Y-168273500D01*
G75*
G02*
X174082000Y-168523499I0J-249999D01*
G01*
G37*
%TD*%
%TO.C,R69*%
G36*
G01*
X111563999Y-133496000D02*
X112464001Y-133496000D01*
G75*
G02*
X112714000Y-133745999I0J-249999D01*
G01*
X112714000Y-134446001D01*
G75*
G02*
X112464001Y-134696000I-249999J0D01*
G01*
X111563999Y-134696000D01*
G75*
G02*
X111314000Y-134446001I0J249999D01*
G01*
X111314000Y-133745999D01*
G75*
G02*
X111563999Y-133496000I249999J0D01*
G01*
G37*
G36*
G01*
X111563999Y-131496000D02*
X112464001Y-131496000D01*
G75*
G02*
X112714000Y-131745999I0J-249999D01*
G01*
X112714000Y-132446001D01*
G75*
G02*
X112464001Y-132696000I-249999J0D01*
G01*
X111563999Y-132696000D01*
G75*
G02*
X111314000Y-132446001I0J249999D01*
G01*
X111314000Y-131745999D01*
G75*
G02*
X111563999Y-131496000I249999J0D01*
G01*
G37*
%TD*%
%TO.C,R68*%
G36*
G01*
X116843000Y-136848001D02*
X116843000Y-135947999D01*
G75*
G02*
X117092999Y-135698000I249999J0D01*
G01*
X117793001Y-135698000D01*
G75*
G02*
X118043000Y-135947999I0J-249999D01*
G01*
X118043000Y-136848001D01*
G75*
G02*
X117793001Y-137098000I-249999J0D01*
G01*
X117092999Y-137098000D01*
G75*
G02*
X116843000Y-136848001I0J249999D01*
G01*
G37*
G36*
G01*
X114843000Y-136848001D02*
X114843000Y-135947999D01*
G75*
G02*
X115092999Y-135698000I249999J0D01*
G01*
X115793001Y-135698000D01*
G75*
G02*
X116043000Y-135947999I0J-249999D01*
G01*
X116043000Y-136848001D01*
G75*
G02*
X115793001Y-137098000I-249999J0D01*
G01*
X115092999Y-137098000D01*
G75*
G02*
X114843000Y-136848001I0J249999D01*
G01*
G37*
%TD*%
%TO.C,R67*%
G36*
G01*
X85973499Y-148974000D02*
X86873501Y-148974000D01*
G75*
G02*
X87123500Y-149223999I0J-249999D01*
G01*
X87123500Y-149924001D01*
G75*
G02*
X86873501Y-150174000I-249999J0D01*
G01*
X85973499Y-150174000D01*
G75*
G02*
X85723500Y-149924001I0J249999D01*
G01*
X85723500Y-149223999D01*
G75*
G02*
X85973499Y-148974000I249999J0D01*
G01*
G37*
G36*
G01*
X85973499Y-146974000D02*
X86873501Y-146974000D01*
G75*
G02*
X87123500Y-147223999I0J-249999D01*
G01*
X87123500Y-147924001D01*
G75*
G02*
X86873501Y-148174000I-249999J0D01*
G01*
X85973499Y-148174000D01*
G75*
G02*
X85723500Y-147924001I0J249999D01*
G01*
X85723500Y-147223999D01*
G75*
G02*
X85973499Y-146974000I249999J0D01*
G01*
G37*
%TD*%
%TO.C,R66*%
G36*
G01*
X83982000Y-148087501D02*
X83982000Y-147187499D01*
G75*
G02*
X84231999Y-146937500I249999J0D01*
G01*
X84932001Y-146937500D01*
G75*
G02*
X85182000Y-147187499I0J-249999D01*
G01*
X85182000Y-148087501D01*
G75*
G02*
X84932001Y-148337500I-249999J0D01*
G01*
X84231999Y-148337500D01*
G75*
G02*
X83982000Y-148087501I0J249999D01*
G01*
G37*
G36*
G01*
X81982000Y-148087501D02*
X81982000Y-147187499D01*
G75*
G02*
X82231999Y-146937500I249999J0D01*
G01*
X82932001Y-146937500D01*
G75*
G02*
X83182000Y-147187499I0J-249999D01*
G01*
X83182000Y-148087501D01*
G75*
G02*
X82932001Y-148337500I-249999J0D01*
G01*
X82231999Y-148337500D01*
G75*
G02*
X81982000Y-148087501I0J249999D01*
G01*
G37*
%TD*%
%TO.C,R65*%
G36*
G01*
X168183000Y-169550501D02*
X168183000Y-168650499D01*
G75*
G02*
X168432999Y-168400500I249999J0D01*
G01*
X169133001Y-168400500D01*
G75*
G02*
X169383000Y-168650499I0J-249999D01*
G01*
X169383000Y-169550501D01*
G75*
G02*
X169133001Y-169800500I-249999J0D01*
G01*
X168432999Y-169800500D01*
G75*
G02*
X168183000Y-169550501I0J249999D01*
G01*
G37*
G36*
G01*
X166183000Y-169550501D02*
X166183000Y-168650499D01*
G75*
G02*
X166432999Y-168400500I249999J0D01*
G01*
X167133001Y-168400500D01*
G75*
G02*
X167383000Y-168650499I0J-249999D01*
G01*
X167383000Y-169550501D01*
G75*
G02*
X167133001Y-169800500I-249999J0D01*
G01*
X166432999Y-169800500D01*
G75*
G02*
X166183000Y-169550501I0J249999D01*
G01*
G37*
%TD*%
%TO.C,R64*%
G36*
G01*
X168018000Y-166364499D02*
X168018000Y-167264501D01*
G75*
G02*
X167768001Y-167514500I-249999J0D01*
G01*
X167067999Y-167514500D01*
G75*
G02*
X166818000Y-167264501I0J249999D01*
G01*
X166818000Y-166364499D01*
G75*
G02*
X167067999Y-166114500I249999J0D01*
G01*
X167768001Y-166114500D01*
G75*
G02*
X168018000Y-166364499I0J-249999D01*
G01*
G37*
G36*
G01*
X170018000Y-166364499D02*
X170018000Y-167264501D01*
G75*
G02*
X169768001Y-167514500I-249999J0D01*
G01*
X169067999Y-167514500D01*
G75*
G02*
X168818000Y-167264501I0J249999D01*
G01*
X168818000Y-166364499D01*
G75*
G02*
X169067999Y-166114500I249999J0D01*
G01*
X169768001Y-166114500D01*
G75*
G02*
X170018000Y-166364499I0J-249999D01*
G01*
G37*
%TD*%
%TO.C,R63*%
G36*
G01*
X136141000Y-142234499D02*
X136141000Y-143134501D01*
G75*
G02*
X135891001Y-143384500I-249999J0D01*
G01*
X135190999Y-143384500D01*
G75*
G02*
X134941000Y-143134501I0J249999D01*
G01*
X134941000Y-142234499D01*
G75*
G02*
X135190999Y-141984500I249999J0D01*
G01*
X135891001Y-141984500D01*
G75*
G02*
X136141000Y-142234499I0J-249999D01*
G01*
G37*
G36*
G01*
X138141000Y-142234499D02*
X138141000Y-143134501D01*
G75*
G02*
X137891001Y-143384500I-249999J0D01*
G01*
X137190999Y-143384500D01*
G75*
G02*
X136941000Y-143134501I0J249999D01*
G01*
X136941000Y-142234499D01*
G75*
G02*
X137190999Y-141984500I249999J0D01*
G01*
X137891001Y-141984500D01*
G75*
G02*
X138141000Y-142234499I0J-249999D01*
G01*
G37*
%TD*%
%TO.C,R62*%
G36*
G01*
X139919000Y-142234499D02*
X139919000Y-143134501D01*
G75*
G02*
X139669001Y-143384500I-249999J0D01*
G01*
X138968999Y-143384500D01*
G75*
G02*
X138719000Y-143134501I0J249999D01*
G01*
X138719000Y-142234499D01*
G75*
G02*
X138968999Y-141984500I249999J0D01*
G01*
X139669001Y-141984500D01*
G75*
G02*
X139919000Y-142234499I0J-249999D01*
G01*
G37*
G36*
G01*
X141919000Y-142234499D02*
X141919000Y-143134501D01*
G75*
G02*
X141669001Y-143384500I-249999J0D01*
G01*
X140968999Y-143384500D01*
G75*
G02*
X140719000Y-143134501I0J249999D01*
G01*
X140719000Y-142234499D01*
G75*
G02*
X140968999Y-141984500I249999J0D01*
G01*
X141669001Y-141984500D01*
G75*
G02*
X141919000Y-142234499I0J-249999D01*
G01*
G37*
%TD*%
%TO.C,R61*%
G36*
G01*
X170630001Y-157794500D02*
X169729999Y-157794500D01*
G75*
G02*
X169480000Y-157544501I0J249999D01*
G01*
X169480000Y-156844499D01*
G75*
G02*
X169729999Y-156594500I249999J0D01*
G01*
X170630001Y-156594500D01*
G75*
G02*
X170880000Y-156844499I0J-249999D01*
G01*
X170880000Y-157544501D01*
G75*
G02*
X170630001Y-157794500I-249999J0D01*
G01*
G37*
G36*
G01*
X170630001Y-159794500D02*
X169729999Y-159794500D01*
G75*
G02*
X169480000Y-159544501I0J249999D01*
G01*
X169480000Y-158844499D01*
G75*
G02*
X169729999Y-158594500I249999J0D01*
G01*
X170630001Y-158594500D01*
G75*
G02*
X170880000Y-158844499I0J-249999D01*
G01*
X170880000Y-159544501D01*
G75*
G02*
X170630001Y-159794500I-249999J0D01*
G01*
G37*
%TD*%
%TO.C,R60*%
G36*
G01*
X166875000Y-157220499D02*
X166875000Y-158120501D01*
G75*
G02*
X166625001Y-158370500I-249999J0D01*
G01*
X165924999Y-158370500D01*
G75*
G02*
X165675000Y-158120501I0J249999D01*
G01*
X165675000Y-157220499D01*
G75*
G02*
X165924999Y-156970500I249999J0D01*
G01*
X166625001Y-156970500D01*
G75*
G02*
X166875000Y-157220499I0J-249999D01*
G01*
G37*
G36*
G01*
X168875000Y-157220499D02*
X168875000Y-158120501D01*
G75*
G02*
X168625001Y-158370500I-249999J0D01*
G01*
X167924999Y-158370500D01*
G75*
G02*
X167675000Y-158120501I0J249999D01*
G01*
X167675000Y-157220499D01*
G75*
G02*
X167924999Y-156970500I249999J0D01*
G01*
X168625001Y-156970500D01*
G75*
G02*
X168875000Y-157220499I0J-249999D01*
G01*
G37*
%TD*%
%TO.C,R59*%
G36*
G01*
X169729999Y-164309500D02*
X170630001Y-164309500D01*
G75*
G02*
X170880000Y-164559499I0J-249999D01*
G01*
X170880000Y-165259501D01*
G75*
G02*
X170630001Y-165509500I-249999J0D01*
G01*
X169729999Y-165509500D01*
G75*
G02*
X169480000Y-165259501I0J249999D01*
G01*
X169480000Y-164559499D01*
G75*
G02*
X169729999Y-164309500I249999J0D01*
G01*
G37*
G36*
G01*
X169729999Y-162309500D02*
X170630001Y-162309500D01*
G75*
G02*
X170880000Y-162559499I0J-249999D01*
G01*
X170880000Y-163259501D01*
G75*
G02*
X170630001Y-163509500I-249999J0D01*
G01*
X169729999Y-163509500D01*
G75*
G02*
X169480000Y-163259501I0J249999D01*
G01*
X169480000Y-162559499D01*
G75*
G02*
X169729999Y-162309500I249999J0D01*
G01*
G37*
%TD*%
%TO.C,R58*%
G36*
G01*
X170780000Y-160522499D02*
X170780000Y-161422501D01*
G75*
G02*
X170530001Y-161672500I-249999J0D01*
G01*
X169829999Y-161672500D01*
G75*
G02*
X169580000Y-161422501I0J249999D01*
G01*
X169580000Y-160522499D01*
G75*
G02*
X169829999Y-160272500I249999J0D01*
G01*
X170530001Y-160272500D01*
G75*
G02*
X170780000Y-160522499I0J-249999D01*
G01*
G37*
G36*
G01*
X172780000Y-160522499D02*
X172780000Y-161422501D01*
G75*
G02*
X172530001Y-161672500I-249999J0D01*
G01*
X171829999Y-161672500D01*
G75*
G02*
X171580000Y-161422501I0J249999D01*
G01*
X171580000Y-160522499D01*
G75*
G02*
X171829999Y-160272500I249999J0D01*
G01*
X172530001Y-160272500D01*
G75*
G02*
X172780000Y-160522499I0J-249999D01*
G01*
G37*
%TD*%
%TO.C,R57*%
G36*
G01*
X134109000Y-134868499D02*
X134109000Y-135768501D01*
G75*
G02*
X133859001Y-136018500I-249999J0D01*
G01*
X133158999Y-136018500D01*
G75*
G02*
X132909000Y-135768501I0J249999D01*
G01*
X132909000Y-134868499D01*
G75*
G02*
X133158999Y-134618500I249999J0D01*
G01*
X133859001Y-134618500D01*
G75*
G02*
X134109000Y-134868499I0J-249999D01*
G01*
G37*
G36*
G01*
X136109000Y-134868499D02*
X136109000Y-135768501D01*
G75*
G02*
X135859001Y-136018500I-249999J0D01*
G01*
X135158999Y-136018500D01*
G75*
G02*
X134909000Y-135768501I0J249999D01*
G01*
X134909000Y-134868499D01*
G75*
G02*
X135158999Y-134618500I249999J0D01*
G01*
X135859001Y-134618500D01*
G75*
G02*
X136109000Y-134868499I0J-249999D01*
G01*
G37*
%TD*%
%TO.C,R56*%
G36*
G01*
X78174001Y-140078000D02*
X77273999Y-140078000D01*
G75*
G02*
X77024000Y-139828001I0J249999D01*
G01*
X77024000Y-139127999D01*
G75*
G02*
X77273999Y-138878000I249999J0D01*
G01*
X78174001Y-138878000D01*
G75*
G02*
X78424000Y-139127999I0J-249999D01*
G01*
X78424000Y-139828001D01*
G75*
G02*
X78174001Y-140078000I-249999J0D01*
G01*
G37*
G36*
G01*
X78174001Y-142078000D02*
X77273999Y-142078000D01*
G75*
G02*
X77024000Y-141828001I0J249999D01*
G01*
X77024000Y-141127999D01*
G75*
G02*
X77273999Y-140878000I249999J0D01*
G01*
X78174001Y-140878000D01*
G75*
G02*
X78424000Y-141127999I0J-249999D01*
G01*
X78424000Y-141828001D01*
G75*
G02*
X78174001Y-142078000I-249999J0D01*
G01*
G37*
%TD*%
%TO.C,R55*%
G36*
G01*
X78174001Y-143634000D02*
X77273999Y-143634000D01*
G75*
G02*
X77024000Y-143384001I0J249999D01*
G01*
X77024000Y-142683999D01*
G75*
G02*
X77273999Y-142434000I249999J0D01*
G01*
X78174001Y-142434000D01*
G75*
G02*
X78424000Y-142683999I0J-249999D01*
G01*
X78424000Y-143384001D01*
G75*
G02*
X78174001Y-143634000I-249999J0D01*
G01*
G37*
G36*
G01*
X78174001Y-145634000D02*
X77273999Y-145634000D01*
G75*
G02*
X77024000Y-145384001I0J249999D01*
G01*
X77024000Y-144683999D01*
G75*
G02*
X77273999Y-144434000I249999J0D01*
G01*
X78174001Y-144434000D01*
G75*
G02*
X78424000Y-144683999I0J-249999D01*
G01*
X78424000Y-145384001D01*
G75*
G02*
X78174001Y-145634000I-249999J0D01*
G01*
G37*
%TD*%
%TO.C,R54*%
G36*
G01*
X164522999Y-168595500D02*
X165423001Y-168595500D01*
G75*
G02*
X165673000Y-168845499I0J-249999D01*
G01*
X165673000Y-169545501D01*
G75*
G02*
X165423001Y-169795500I-249999J0D01*
G01*
X164522999Y-169795500D01*
G75*
G02*
X164273000Y-169545501I0J249999D01*
G01*
X164273000Y-168845499D01*
G75*
G02*
X164522999Y-168595500I249999J0D01*
G01*
G37*
G36*
G01*
X164522999Y-166595500D02*
X165423001Y-166595500D01*
G75*
G02*
X165673000Y-166845499I0J-249999D01*
G01*
X165673000Y-167545501D01*
G75*
G02*
X165423001Y-167795500I-249999J0D01*
G01*
X164522999Y-167795500D01*
G75*
G02*
X164273000Y-167545501I0J249999D01*
G01*
X164273000Y-166845499D01*
G75*
G02*
X164522999Y-166595500I249999J0D01*
G01*
G37*
%TD*%
%TO.C,R53*%
G36*
G01*
X163887999Y-160721500D02*
X164788001Y-160721500D01*
G75*
G02*
X165038000Y-160971499I0J-249999D01*
G01*
X165038000Y-161671501D01*
G75*
G02*
X164788001Y-161921500I-249999J0D01*
G01*
X163887999Y-161921500D01*
G75*
G02*
X163638000Y-161671501I0J249999D01*
G01*
X163638000Y-160971499D01*
G75*
G02*
X163887999Y-160721500I249999J0D01*
G01*
G37*
G36*
G01*
X163887999Y-158721500D02*
X164788001Y-158721500D01*
G75*
G02*
X165038000Y-158971499I0J-249999D01*
G01*
X165038000Y-159671501D01*
G75*
G02*
X164788001Y-159921500I-249999J0D01*
G01*
X163887999Y-159921500D01*
G75*
G02*
X163638000Y-159671501I0J249999D01*
G01*
X163638000Y-158971499D01*
G75*
G02*
X163887999Y-158721500I249999J0D01*
G01*
G37*
%TD*%
%TO.C,R52*%
G36*
G01*
X130299000Y-132836499D02*
X130299000Y-133736501D01*
G75*
G02*
X130049001Y-133986500I-249999J0D01*
G01*
X129348999Y-133986500D01*
G75*
G02*
X129099000Y-133736501I0J249999D01*
G01*
X129099000Y-132836499D01*
G75*
G02*
X129348999Y-132586500I249999J0D01*
G01*
X130049001Y-132586500D01*
G75*
G02*
X130299000Y-132836499I0J-249999D01*
G01*
G37*
G36*
G01*
X132299000Y-132836499D02*
X132299000Y-133736501D01*
G75*
G02*
X132049001Y-133986500I-249999J0D01*
G01*
X131348999Y-133986500D01*
G75*
G02*
X131099000Y-133736501I0J249999D01*
G01*
X131099000Y-132836499D01*
G75*
G02*
X131348999Y-132586500I249999J0D01*
G01*
X132049001Y-132586500D01*
G75*
G02*
X132299000Y-132836499I0J-249999D01*
G01*
G37*
%TD*%
%TO.C,R51*%
G36*
G01*
X160585999Y-168500500D02*
X161486001Y-168500500D01*
G75*
G02*
X161736000Y-168750499I0J-249999D01*
G01*
X161736000Y-169450501D01*
G75*
G02*
X161486001Y-169700500I-249999J0D01*
G01*
X160585999Y-169700500D01*
G75*
G02*
X160336000Y-169450501I0J249999D01*
G01*
X160336000Y-168750499D01*
G75*
G02*
X160585999Y-168500500I249999J0D01*
G01*
G37*
G36*
G01*
X160585999Y-166500500D02*
X161486001Y-166500500D01*
G75*
G02*
X161736000Y-166750499I0J-249999D01*
G01*
X161736000Y-167450501D01*
G75*
G02*
X161486001Y-167700500I-249999J0D01*
G01*
X160585999Y-167700500D01*
G75*
G02*
X160336000Y-167450501I0J249999D01*
G01*
X160336000Y-166750499D01*
G75*
G02*
X160585999Y-166500500I249999J0D01*
G01*
G37*
%TD*%
%TO.C,R50*%
G36*
G01*
X161855999Y-160737500D02*
X162756001Y-160737500D01*
G75*
G02*
X163006000Y-160987499I0J-249999D01*
G01*
X163006000Y-161687501D01*
G75*
G02*
X162756001Y-161937500I-249999J0D01*
G01*
X161855999Y-161937500D01*
G75*
G02*
X161606000Y-161687501I0J249999D01*
G01*
X161606000Y-160987499D01*
G75*
G02*
X161855999Y-160737500I249999J0D01*
G01*
G37*
G36*
G01*
X161855999Y-158737500D02*
X162756001Y-158737500D01*
G75*
G02*
X163006000Y-158987499I0J-249999D01*
G01*
X163006000Y-159687501D01*
G75*
G02*
X162756001Y-159937500I-249999J0D01*
G01*
X161855999Y-159937500D01*
G75*
G02*
X161606000Y-159687501I0J249999D01*
G01*
X161606000Y-158987499D01*
G75*
G02*
X161855999Y-158737500I249999J0D01*
G01*
G37*
%TD*%
D25*
%TO.C,R49*%
X68580000Y-139700000D03*
D17*
X68580000Y-137160000D03*
%TD*%
%TO.C,R48*%
G36*
G01*
X142497000Y-150119501D02*
X142497000Y-149219499D01*
G75*
G02*
X142746999Y-148969500I249999J0D01*
G01*
X143447001Y-148969500D01*
G75*
G02*
X143697000Y-149219499I0J-249999D01*
G01*
X143697000Y-150119501D01*
G75*
G02*
X143447001Y-150369500I-249999J0D01*
G01*
X142746999Y-150369500D01*
G75*
G02*
X142497000Y-150119501I0J249999D01*
G01*
G37*
G36*
G01*
X140497000Y-150119501D02*
X140497000Y-149219499D01*
G75*
G02*
X140746999Y-148969500I249999J0D01*
G01*
X141447001Y-148969500D01*
G75*
G02*
X141697000Y-149219499I0J-249999D01*
G01*
X141697000Y-150119501D01*
G75*
G02*
X141447001Y-150369500I-249999J0D01*
G01*
X140746999Y-150369500D01*
G75*
G02*
X140497000Y-150119501I0J249999D01*
G01*
G37*
%TD*%
D25*
%TO.C,R47*%
X74930000Y-139700000D03*
D17*
X74930000Y-137160000D03*
%TD*%
D25*
%TO.C,R46*%
X71755000Y-139700000D03*
D17*
X71755000Y-137160000D03*
%TD*%
D25*
%TO.C,R45*%
X65405000Y-139700000D03*
D17*
X65405000Y-137160000D03*
%TD*%
%TO.C,R44*%
G36*
G01*
X56988000Y-130105999D02*
X56988000Y-131006001D01*
G75*
G02*
X56738001Y-131256000I-249999J0D01*
G01*
X56037999Y-131256000D01*
G75*
G02*
X55788000Y-131006001I0J249999D01*
G01*
X55788000Y-130105999D01*
G75*
G02*
X56037999Y-129856000I249999J0D01*
G01*
X56738001Y-129856000D01*
G75*
G02*
X56988000Y-130105999I0J-249999D01*
G01*
G37*
G36*
G01*
X58988000Y-130105999D02*
X58988000Y-131006001D01*
G75*
G02*
X58738001Y-131256000I-249999J0D01*
G01*
X58037999Y-131256000D01*
G75*
G02*
X57788000Y-131006001I0J249999D01*
G01*
X57788000Y-130105999D01*
G75*
G02*
X58037999Y-129856000I249999J0D01*
G01*
X58738001Y-129856000D01*
G75*
G02*
X58988000Y-130105999I0J-249999D01*
G01*
G37*
%TD*%
%TO.C,R43*%
G36*
G01*
X52889999Y-135925000D02*
X53790001Y-135925000D01*
G75*
G02*
X54040000Y-136174999I0J-249999D01*
G01*
X54040000Y-136875001D01*
G75*
G02*
X53790001Y-137125000I-249999J0D01*
G01*
X52889999Y-137125000D01*
G75*
G02*
X52640000Y-136875001I0J249999D01*
G01*
X52640000Y-136174999D01*
G75*
G02*
X52889999Y-135925000I249999J0D01*
G01*
G37*
G36*
G01*
X52889999Y-133925000D02*
X53790001Y-133925000D01*
G75*
G02*
X54040000Y-134174999I0J-249999D01*
G01*
X54040000Y-134875001D01*
G75*
G02*
X53790001Y-135125000I-249999J0D01*
G01*
X52889999Y-135125000D01*
G75*
G02*
X52640000Y-134875001I0J249999D01*
G01*
X52640000Y-134174999D01*
G75*
G02*
X52889999Y-133925000I249999J0D01*
G01*
G37*
%TD*%
%TO.C,R42*%
G36*
G01*
X53425001Y-129505000D02*
X52524999Y-129505000D01*
G75*
G02*
X52275000Y-129255001I0J249999D01*
G01*
X52275000Y-128554999D01*
G75*
G02*
X52524999Y-128305000I249999J0D01*
G01*
X53425001Y-128305000D01*
G75*
G02*
X53675000Y-128554999I0J-249999D01*
G01*
X53675000Y-129255001D01*
G75*
G02*
X53425001Y-129505000I-249999J0D01*
G01*
G37*
G36*
G01*
X53425001Y-131505000D02*
X52524999Y-131505000D01*
G75*
G02*
X52275000Y-131255001I0J249999D01*
G01*
X52275000Y-130554999D01*
G75*
G02*
X52524999Y-130305000I249999J0D01*
G01*
X53425001Y-130305000D01*
G75*
G02*
X53675000Y-130554999I0J-249999D01*
G01*
X53675000Y-131255001D01*
G75*
G02*
X53425001Y-131505000I-249999J0D01*
G01*
G37*
%TD*%
%TO.C,R41*%
G36*
G01*
X85976000Y-166681999D02*
X85976000Y-167582001D01*
G75*
G02*
X85726001Y-167832000I-249999J0D01*
G01*
X85025999Y-167832000D01*
G75*
G02*
X84776000Y-167582001I0J249999D01*
G01*
X84776000Y-166681999D01*
G75*
G02*
X85025999Y-166432000I249999J0D01*
G01*
X85726001Y-166432000D01*
G75*
G02*
X85976000Y-166681999I0J-249999D01*
G01*
G37*
G36*
G01*
X87976000Y-166681999D02*
X87976000Y-167582001D01*
G75*
G02*
X87726001Y-167832000I-249999J0D01*
G01*
X87025999Y-167832000D01*
G75*
G02*
X86776000Y-167582001I0J249999D01*
G01*
X86776000Y-166681999D01*
G75*
G02*
X87025999Y-166432000I249999J0D01*
G01*
X87726001Y-166432000D01*
G75*
G02*
X87976000Y-166681999I0J-249999D01*
G01*
G37*
%TD*%
%TO.C,R40*%
G36*
G01*
X88008000Y-164903999D02*
X88008000Y-165804001D01*
G75*
G02*
X87758001Y-166054000I-249999J0D01*
G01*
X87057999Y-166054000D01*
G75*
G02*
X86808000Y-165804001I0J249999D01*
G01*
X86808000Y-164903999D01*
G75*
G02*
X87057999Y-164654000I249999J0D01*
G01*
X87758001Y-164654000D01*
G75*
G02*
X88008000Y-164903999I0J-249999D01*
G01*
G37*
G36*
G01*
X90008000Y-164903999D02*
X90008000Y-165804001D01*
G75*
G02*
X89758001Y-166054000I-249999J0D01*
G01*
X89057999Y-166054000D01*
G75*
G02*
X88808000Y-165804001I0J249999D01*
G01*
X88808000Y-164903999D01*
G75*
G02*
X89057999Y-164654000I249999J0D01*
G01*
X89758001Y-164654000D01*
G75*
G02*
X90008000Y-164903999I0J-249999D01*
G01*
G37*
%TD*%
%TO.C,R39*%
G36*
G01*
X70958000Y-166427999D02*
X70958000Y-167328001D01*
G75*
G02*
X70708001Y-167578000I-249999J0D01*
G01*
X70007999Y-167578000D01*
G75*
G02*
X69758000Y-167328001I0J249999D01*
G01*
X69758000Y-166427999D01*
G75*
G02*
X70007999Y-166178000I249999J0D01*
G01*
X70708001Y-166178000D01*
G75*
G02*
X70958000Y-166427999I0J-249999D01*
G01*
G37*
G36*
G01*
X72958000Y-166427999D02*
X72958000Y-167328001D01*
G75*
G02*
X72708001Y-167578000I-249999J0D01*
G01*
X72007999Y-167578000D01*
G75*
G02*
X71758000Y-167328001I0J249999D01*
G01*
X71758000Y-166427999D01*
G75*
G02*
X72007999Y-166178000I249999J0D01*
G01*
X72708001Y-166178000D01*
G75*
G02*
X72958000Y-166427999I0J-249999D01*
G01*
G37*
%TD*%
%TO.C,R38*%
G36*
G01*
X73276000Y-164395999D02*
X73276000Y-165296001D01*
G75*
G02*
X73026001Y-165546000I-249999J0D01*
G01*
X72325999Y-165546000D01*
G75*
G02*
X72076000Y-165296001I0J249999D01*
G01*
X72076000Y-164395999D01*
G75*
G02*
X72325999Y-164146000I249999J0D01*
G01*
X73026001Y-164146000D01*
G75*
G02*
X73276000Y-164395999I0J-249999D01*
G01*
G37*
G36*
G01*
X75276000Y-164395999D02*
X75276000Y-165296001D01*
G75*
G02*
X75026001Y-165546000I-249999J0D01*
G01*
X74325999Y-165546000D01*
G75*
G02*
X74076000Y-165296001I0J249999D01*
G01*
X74076000Y-164395999D01*
G75*
G02*
X74325999Y-164146000I249999J0D01*
G01*
X75026001Y-164146000D01*
G75*
G02*
X75276000Y-164395999I0J-249999D01*
G01*
G37*
%TD*%
%TO.C,R37*%
G36*
G01*
X56226000Y-171507999D02*
X56226000Y-172408001D01*
G75*
G02*
X55976001Y-172658000I-249999J0D01*
G01*
X55275999Y-172658000D01*
G75*
G02*
X55026000Y-172408001I0J249999D01*
G01*
X55026000Y-171507999D01*
G75*
G02*
X55275999Y-171258000I249999J0D01*
G01*
X55976001Y-171258000D01*
G75*
G02*
X56226000Y-171507999I0J-249999D01*
G01*
G37*
G36*
G01*
X58226000Y-171507999D02*
X58226000Y-172408001D01*
G75*
G02*
X57976001Y-172658000I-249999J0D01*
G01*
X57275999Y-172658000D01*
G75*
G02*
X57026000Y-172408001I0J249999D01*
G01*
X57026000Y-171507999D01*
G75*
G02*
X57275999Y-171258000I249999J0D01*
G01*
X57976001Y-171258000D01*
G75*
G02*
X58226000Y-171507999I0J-249999D01*
G01*
G37*
%TD*%
%TO.C,R36*%
G36*
G01*
X58274000Y-168713999D02*
X58274000Y-169614001D01*
G75*
G02*
X58024001Y-169864000I-249999J0D01*
G01*
X57323999Y-169864000D01*
G75*
G02*
X57074000Y-169614001I0J249999D01*
G01*
X57074000Y-168713999D01*
G75*
G02*
X57323999Y-168464000I249999J0D01*
G01*
X58024001Y-168464000D01*
G75*
G02*
X58274000Y-168713999I0J-249999D01*
G01*
G37*
G36*
G01*
X60274000Y-168713999D02*
X60274000Y-169614001D01*
G75*
G02*
X60024001Y-169864000I-249999J0D01*
G01*
X59323999Y-169864000D01*
G75*
G02*
X59074000Y-169614001I0J249999D01*
G01*
X59074000Y-168713999D01*
G75*
G02*
X59323999Y-168464000I249999J0D01*
G01*
X60024001Y-168464000D01*
G75*
G02*
X60274000Y-168713999I0J-249999D01*
G01*
G37*
%TD*%
%TO.C,R35*%
G36*
G01*
X48168000Y-142690001D02*
X48168000Y-141789999D01*
G75*
G02*
X48417999Y-141540000I249999J0D01*
G01*
X49118001Y-141540000D01*
G75*
G02*
X49368000Y-141789999I0J-249999D01*
G01*
X49368000Y-142690001D01*
G75*
G02*
X49118001Y-142940000I-249999J0D01*
G01*
X48417999Y-142940000D01*
G75*
G02*
X48168000Y-142690001I0J249999D01*
G01*
G37*
G36*
G01*
X46168000Y-142690001D02*
X46168000Y-141789999D01*
G75*
G02*
X46417999Y-141540000I249999J0D01*
G01*
X47118001Y-141540000D01*
G75*
G02*
X47368000Y-141789999I0J-249999D01*
G01*
X47368000Y-142690001D01*
G75*
G02*
X47118001Y-142940000I-249999J0D01*
G01*
X46417999Y-142940000D01*
G75*
G02*
X46168000Y-142690001I0J249999D01*
G01*
G37*
%TD*%
%TO.C,R34*%
G36*
G01*
X45408001Y-165224000D02*
X44507999Y-165224000D01*
G75*
G02*
X44258000Y-164974001I0J249999D01*
G01*
X44258000Y-164273999D01*
G75*
G02*
X44507999Y-164024000I249999J0D01*
G01*
X45408001Y-164024000D01*
G75*
G02*
X45658000Y-164273999I0J-249999D01*
G01*
X45658000Y-164974001D01*
G75*
G02*
X45408001Y-165224000I-249999J0D01*
G01*
G37*
G36*
G01*
X45408001Y-167224000D02*
X44507999Y-167224000D01*
G75*
G02*
X44258000Y-166974001I0J249999D01*
G01*
X44258000Y-166273999D01*
G75*
G02*
X44507999Y-166024000I249999J0D01*
G01*
X45408001Y-166024000D01*
G75*
G02*
X45658000Y-166273999I0J-249999D01*
G01*
X45658000Y-166974001D01*
G75*
G02*
X45408001Y-167224000I-249999J0D01*
G01*
G37*
%TD*%
%TO.C,R33*%
G36*
G01*
X140332000Y-172206499D02*
X140332000Y-173106501D01*
G75*
G02*
X140082001Y-173356500I-249999J0D01*
G01*
X139381999Y-173356500D01*
G75*
G02*
X139132000Y-173106501I0J249999D01*
G01*
X139132000Y-172206499D01*
G75*
G02*
X139381999Y-171956500I249999J0D01*
G01*
X140082001Y-171956500D01*
G75*
G02*
X140332000Y-172206499I0J-249999D01*
G01*
G37*
G36*
G01*
X142332000Y-172206499D02*
X142332000Y-173106501D01*
G75*
G02*
X142082001Y-173356500I-249999J0D01*
G01*
X141381999Y-173356500D01*
G75*
G02*
X141132000Y-173106501I0J249999D01*
G01*
X141132000Y-172206499D01*
G75*
G02*
X141381999Y-171956500I249999J0D01*
G01*
X142082001Y-171956500D01*
G75*
G02*
X142332000Y-172206499I0J-249999D01*
G01*
G37*
%TD*%
%TO.C,R32*%
G36*
G01*
X43376001Y-164208000D02*
X42475999Y-164208000D01*
G75*
G02*
X42226000Y-163958001I0J249999D01*
G01*
X42226000Y-163257999D01*
G75*
G02*
X42475999Y-163008000I249999J0D01*
G01*
X43376001Y-163008000D01*
G75*
G02*
X43626000Y-163257999I0J-249999D01*
G01*
X43626000Y-163958001D01*
G75*
G02*
X43376001Y-164208000I-249999J0D01*
G01*
G37*
G36*
G01*
X43376001Y-166208000D02*
X42475999Y-166208000D01*
G75*
G02*
X42226000Y-165958001I0J249999D01*
G01*
X42226000Y-165257999D01*
G75*
G02*
X42475999Y-165008000I249999J0D01*
G01*
X43376001Y-165008000D01*
G75*
G02*
X43626000Y-165257999I0J-249999D01*
G01*
X43626000Y-165958001D01*
G75*
G02*
X43376001Y-166208000I-249999J0D01*
G01*
G37*
%TD*%
%TO.C,R31*%
G36*
G01*
X142497000Y-162057501D02*
X142497000Y-161157499D01*
G75*
G02*
X142746999Y-160907500I249999J0D01*
G01*
X143447001Y-160907500D01*
G75*
G02*
X143697000Y-161157499I0J-249999D01*
G01*
X143697000Y-162057501D01*
G75*
G02*
X143447001Y-162307500I-249999J0D01*
G01*
X142746999Y-162307500D01*
G75*
G02*
X142497000Y-162057501I0J249999D01*
G01*
G37*
G36*
G01*
X140497000Y-162057501D02*
X140497000Y-161157499D01*
G75*
G02*
X140746999Y-160907500I249999J0D01*
G01*
X141447001Y-160907500D01*
G75*
G02*
X141697000Y-161157499I0J-249999D01*
G01*
X141697000Y-162057501D01*
G75*
G02*
X141447001Y-162307500I-249999J0D01*
G01*
X140746999Y-162307500D01*
G75*
G02*
X140497000Y-162057501I0J249999D01*
G01*
G37*
%TD*%
%TO.C,R30*%
G36*
G01*
X43812000Y-136709999D02*
X43812000Y-137610001D01*
G75*
G02*
X43562001Y-137860000I-249999J0D01*
G01*
X42861999Y-137860000D01*
G75*
G02*
X42612000Y-137610001I0J249999D01*
G01*
X42612000Y-136709999D01*
G75*
G02*
X42861999Y-136460000I249999J0D01*
G01*
X43562001Y-136460000D01*
G75*
G02*
X43812000Y-136709999I0J-249999D01*
G01*
G37*
G36*
G01*
X45812000Y-136709999D02*
X45812000Y-137610001D01*
G75*
G02*
X45562001Y-137860000I-249999J0D01*
G01*
X44861999Y-137860000D01*
G75*
G02*
X44612000Y-137610001I0J249999D01*
G01*
X44612000Y-136709999D01*
G75*
G02*
X44861999Y-136460000I249999J0D01*
G01*
X45562001Y-136460000D01*
G75*
G02*
X45812000Y-136709999I0J-249999D01*
G01*
G37*
%TD*%
%TO.C,R29*%
G36*
G01*
X40681999Y-131972000D02*
X41582001Y-131972000D01*
G75*
G02*
X41832000Y-132221999I0J-249999D01*
G01*
X41832000Y-132922001D01*
G75*
G02*
X41582001Y-133172000I-249999J0D01*
G01*
X40681999Y-133172000D01*
G75*
G02*
X40432000Y-132922001I0J249999D01*
G01*
X40432000Y-132221999D01*
G75*
G02*
X40681999Y-131972000I249999J0D01*
G01*
G37*
G36*
G01*
X40681999Y-129972000D02*
X41582001Y-129972000D01*
G75*
G02*
X41832000Y-130221999I0J-249999D01*
G01*
X41832000Y-130922001D01*
G75*
G02*
X41582001Y-131172000I-249999J0D01*
G01*
X40681999Y-131172000D01*
G75*
G02*
X40432000Y-130922001I0J249999D01*
G01*
X40432000Y-130221999D01*
G75*
G02*
X40681999Y-129972000I249999J0D01*
G01*
G37*
%TD*%
%TO.C,R28*%
G36*
G01*
X50996001Y-139316000D02*
X50095999Y-139316000D01*
G75*
G02*
X49846000Y-139066001I0J249999D01*
G01*
X49846000Y-138365999D01*
G75*
G02*
X50095999Y-138116000I249999J0D01*
G01*
X50996001Y-138116000D01*
G75*
G02*
X51246000Y-138365999I0J-249999D01*
G01*
X51246000Y-139066001D01*
G75*
G02*
X50996001Y-139316000I-249999J0D01*
G01*
G37*
G36*
G01*
X50996001Y-141316000D02*
X50095999Y-141316000D01*
G75*
G02*
X49846000Y-141066001I0J249999D01*
G01*
X49846000Y-140365999D01*
G75*
G02*
X50095999Y-140116000I249999J0D01*
G01*
X50996001Y-140116000D01*
G75*
G02*
X51246000Y-140365999I0J-249999D01*
G01*
X51246000Y-141066001D01*
G75*
G02*
X50996001Y-141316000I-249999J0D01*
G01*
G37*
%TD*%
%TO.C,R27*%
G36*
G01*
X146974000Y-169677501D02*
X146974000Y-168777499D01*
G75*
G02*
X147223999Y-168527500I249999J0D01*
G01*
X147924001Y-168527500D01*
G75*
G02*
X148174000Y-168777499I0J-249999D01*
G01*
X148174000Y-169677501D01*
G75*
G02*
X147924001Y-169927500I-249999J0D01*
G01*
X147223999Y-169927500D01*
G75*
G02*
X146974000Y-169677501I0J249999D01*
G01*
G37*
G36*
G01*
X144974000Y-169677501D02*
X144974000Y-168777499D01*
G75*
G02*
X145223999Y-168527500I249999J0D01*
G01*
X145924001Y-168527500D01*
G75*
G02*
X146174000Y-168777499I0J-249999D01*
G01*
X146174000Y-169677501D01*
G75*
G02*
X145924001Y-169927500I-249999J0D01*
G01*
X145223999Y-169927500D01*
G75*
G02*
X144974000Y-169677501I0J249999D01*
G01*
G37*
%TD*%
%TO.C,R26*%
G36*
G01*
X146942000Y-165867501D02*
X146942000Y-164967499D01*
G75*
G02*
X147191999Y-164717500I249999J0D01*
G01*
X147892001Y-164717500D01*
G75*
G02*
X148142000Y-164967499I0J-249999D01*
G01*
X148142000Y-165867501D01*
G75*
G02*
X147892001Y-166117500I-249999J0D01*
G01*
X147191999Y-166117500D01*
G75*
G02*
X146942000Y-165867501I0J249999D01*
G01*
G37*
G36*
G01*
X144942000Y-165867501D02*
X144942000Y-164967499D01*
G75*
G02*
X145191999Y-164717500I249999J0D01*
G01*
X145892001Y-164717500D01*
G75*
G02*
X146142000Y-164967499I0J-249999D01*
G01*
X146142000Y-165867501D01*
G75*
G02*
X145892001Y-166117500I-249999J0D01*
G01*
X145191999Y-166117500D01*
G75*
G02*
X144942000Y-165867501I0J249999D01*
G01*
G37*
%TD*%
%TO.C,R25*%
G36*
G01*
X146958000Y-167772501D02*
X146958000Y-166872499D01*
G75*
G02*
X147207999Y-166622500I249999J0D01*
G01*
X147908001Y-166622500D01*
G75*
G02*
X148158000Y-166872499I0J-249999D01*
G01*
X148158000Y-167772501D01*
G75*
G02*
X147908001Y-168022500I-249999J0D01*
G01*
X147207999Y-168022500D01*
G75*
G02*
X146958000Y-167772501I0J249999D01*
G01*
G37*
G36*
G01*
X144958000Y-167772501D02*
X144958000Y-166872499D01*
G75*
G02*
X145207999Y-166622500I249999J0D01*
G01*
X145908001Y-166622500D01*
G75*
G02*
X146158000Y-166872499I0J-249999D01*
G01*
X146158000Y-167772501D01*
G75*
G02*
X145908001Y-168022500I-249999J0D01*
G01*
X145207999Y-168022500D01*
G75*
G02*
X144958000Y-167772501I0J249999D01*
G01*
G37*
%TD*%
%TO.C,R24*%
G36*
G01*
X91913000Y-153346999D02*
X91913000Y-154247001D01*
G75*
G02*
X91663001Y-154497000I-249999J0D01*
G01*
X90962999Y-154497000D01*
G75*
G02*
X90713000Y-154247001I0J249999D01*
G01*
X90713000Y-153346999D01*
G75*
G02*
X90962999Y-153097000I249999J0D01*
G01*
X91663001Y-153097000D01*
G75*
G02*
X91913000Y-153346999I0J-249999D01*
G01*
G37*
G36*
G01*
X93913000Y-153346999D02*
X93913000Y-154247001D01*
G75*
G02*
X93663001Y-154497000I-249999J0D01*
G01*
X92962999Y-154497000D01*
G75*
G02*
X92713000Y-154247001I0J249999D01*
G01*
X92713000Y-153346999D01*
G75*
G02*
X92962999Y-153097000I249999J0D01*
G01*
X93663001Y-153097000D01*
G75*
G02*
X93913000Y-153346999I0J-249999D01*
G01*
G37*
%TD*%
%TO.C,R23*%
G36*
G01*
X93668001Y-156302000D02*
X92767999Y-156302000D01*
G75*
G02*
X92518000Y-156052001I0J249999D01*
G01*
X92518000Y-155351999D01*
G75*
G02*
X92767999Y-155102000I249999J0D01*
G01*
X93668001Y-155102000D01*
G75*
G02*
X93918000Y-155351999I0J-249999D01*
G01*
X93918000Y-156052001D01*
G75*
G02*
X93668001Y-156302000I-249999J0D01*
G01*
G37*
G36*
G01*
X93668001Y-158302000D02*
X92767999Y-158302000D01*
G75*
G02*
X92518000Y-158052001I0J249999D01*
G01*
X92518000Y-157351999D01*
G75*
G02*
X92767999Y-157102000I249999J0D01*
G01*
X93668001Y-157102000D01*
G75*
G02*
X93918000Y-157351999I0J-249999D01*
G01*
X93918000Y-158052001D01*
G75*
G02*
X93668001Y-158302000I-249999J0D01*
G01*
G37*
%TD*%
%TO.C,R22*%
G36*
G01*
X161144000Y-171571499D02*
X161144000Y-172471501D01*
G75*
G02*
X160894001Y-172721500I-249999J0D01*
G01*
X160193999Y-172721500D01*
G75*
G02*
X159944000Y-172471501I0J249999D01*
G01*
X159944000Y-171571499D01*
G75*
G02*
X160193999Y-171321500I249999J0D01*
G01*
X160894001Y-171321500D01*
G75*
G02*
X161144000Y-171571499I0J-249999D01*
G01*
G37*
G36*
G01*
X163144000Y-171571499D02*
X163144000Y-172471501D01*
G75*
G02*
X162894001Y-172721500I-249999J0D01*
G01*
X162193999Y-172721500D01*
G75*
G02*
X161944000Y-172471501I0J249999D01*
G01*
X161944000Y-171571499D01*
G75*
G02*
X162193999Y-171321500I249999J0D01*
G01*
X162894001Y-171321500D01*
G75*
G02*
X163144000Y-171571499I0J-249999D01*
G01*
G37*
%TD*%
%TO.C,R21*%
G36*
G01*
X173637500Y-178429499D02*
X173637500Y-179329501D01*
G75*
G02*
X173387501Y-179579500I-249999J0D01*
G01*
X172687499Y-179579500D01*
G75*
G02*
X172437500Y-179329501I0J249999D01*
G01*
X172437500Y-178429499D01*
G75*
G02*
X172687499Y-178179500I249999J0D01*
G01*
X173387501Y-178179500D01*
G75*
G02*
X173637500Y-178429499I0J-249999D01*
G01*
G37*
G36*
G01*
X175637500Y-178429499D02*
X175637500Y-179329501D01*
G75*
G02*
X175387501Y-179579500I-249999J0D01*
G01*
X174687499Y-179579500D01*
G75*
G02*
X174437500Y-179329501I0J249999D01*
G01*
X174437500Y-178429499D01*
G75*
G02*
X174687499Y-178179500I249999J0D01*
G01*
X175387501Y-178179500D01*
G75*
G02*
X175637500Y-178429499I0J-249999D01*
G01*
G37*
%TD*%
%TO.C,R20*%
G36*
G01*
X68742000Y-182314001D02*
X68742000Y-181413999D01*
G75*
G02*
X68991999Y-181164000I249999J0D01*
G01*
X69692001Y-181164000D01*
G75*
G02*
X69942000Y-181413999I0J-249999D01*
G01*
X69942000Y-182314001D01*
G75*
G02*
X69692001Y-182564000I-249999J0D01*
G01*
X68991999Y-182564000D01*
G75*
G02*
X68742000Y-182314001I0J249999D01*
G01*
G37*
G36*
G01*
X66742000Y-182314001D02*
X66742000Y-181413999D01*
G75*
G02*
X66991999Y-181164000I249999J0D01*
G01*
X67692001Y-181164000D01*
G75*
G02*
X67942000Y-181413999I0J-249999D01*
G01*
X67942000Y-182314001D01*
G75*
G02*
X67692001Y-182564000I-249999J0D01*
G01*
X66991999Y-182564000D01*
G75*
G02*
X66742000Y-182314001I0J249999D01*
G01*
G37*
%TD*%
%TO.C,R19*%
G36*
G01*
X70300001Y-156572000D02*
X69399999Y-156572000D01*
G75*
G02*
X69150000Y-156322001I0J249999D01*
G01*
X69150000Y-155621999D01*
G75*
G02*
X69399999Y-155372000I249999J0D01*
G01*
X70300001Y-155372000D01*
G75*
G02*
X70550000Y-155621999I0J-249999D01*
G01*
X70550000Y-156322001D01*
G75*
G02*
X70300001Y-156572000I-249999J0D01*
G01*
G37*
G36*
G01*
X70300001Y-158572000D02*
X69399999Y-158572000D01*
G75*
G02*
X69150000Y-158322001I0J249999D01*
G01*
X69150000Y-157621999D01*
G75*
G02*
X69399999Y-157372000I249999J0D01*
G01*
X70300001Y-157372000D01*
G75*
G02*
X70550000Y-157621999I0J-249999D01*
G01*
X70550000Y-158322001D01*
G75*
G02*
X70300001Y-158572000I-249999J0D01*
G01*
G37*
%TD*%
%TO.C,R18*%
G36*
G01*
X86579000Y-153346999D02*
X86579000Y-154247001D01*
G75*
G02*
X86329001Y-154497000I-249999J0D01*
G01*
X85628999Y-154497000D01*
G75*
G02*
X85379000Y-154247001I0J249999D01*
G01*
X85379000Y-153346999D01*
G75*
G02*
X85628999Y-153097000I249999J0D01*
G01*
X86329001Y-153097000D01*
G75*
G02*
X86579000Y-153346999I0J-249999D01*
G01*
G37*
G36*
G01*
X88579000Y-153346999D02*
X88579000Y-154247001D01*
G75*
G02*
X88329001Y-154497000I-249999J0D01*
G01*
X87628999Y-154497000D01*
G75*
G02*
X87379000Y-154247001I0J249999D01*
G01*
X87379000Y-153346999D01*
G75*
G02*
X87628999Y-153097000I249999J0D01*
G01*
X88329001Y-153097000D01*
G75*
G02*
X88579000Y-153346999I0J-249999D01*
G01*
G37*
%TD*%
%TO.C,R17*%
G36*
G01*
X74076000Y-174059001D02*
X74076000Y-173158999D01*
G75*
G02*
X74325999Y-172909000I249999J0D01*
G01*
X75026001Y-172909000D01*
G75*
G02*
X75276000Y-173158999I0J-249999D01*
G01*
X75276000Y-174059001D01*
G75*
G02*
X75026001Y-174309000I-249999J0D01*
G01*
X74325999Y-174309000D01*
G75*
G02*
X74076000Y-174059001I0J249999D01*
G01*
G37*
G36*
G01*
X72076000Y-174059001D02*
X72076000Y-173158999D01*
G75*
G02*
X72325999Y-172909000I249999J0D01*
G01*
X73026001Y-172909000D01*
G75*
G02*
X73276000Y-173158999I0J-249999D01*
G01*
X73276000Y-174059001D01*
G75*
G02*
X73026001Y-174309000I-249999J0D01*
G01*
X72325999Y-174309000D01*
G75*
G02*
X72076000Y-174059001I0J249999D01*
G01*
G37*
%TD*%
%TO.C,R16*%
G36*
G01*
X161105001Y-174431500D02*
X160204999Y-174431500D01*
G75*
G02*
X159955000Y-174181501I0J249999D01*
G01*
X159955000Y-173481499D01*
G75*
G02*
X160204999Y-173231500I249999J0D01*
G01*
X161105001Y-173231500D01*
G75*
G02*
X161355000Y-173481499I0J-249999D01*
G01*
X161355000Y-174181501D01*
G75*
G02*
X161105001Y-174431500I-249999J0D01*
G01*
G37*
G36*
G01*
X161105001Y-176431500D02*
X160204999Y-176431500D01*
G75*
G02*
X159955000Y-176181501I0J249999D01*
G01*
X159955000Y-175481499D01*
G75*
G02*
X160204999Y-175231500I249999J0D01*
G01*
X161105001Y-175231500D01*
G75*
G02*
X161355000Y-175481499I0J-249999D01*
G01*
X161355000Y-176181501D01*
G75*
G02*
X161105001Y-176431500I-249999J0D01*
G01*
G37*
%TD*%
%TO.C,R15*%
G36*
G01*
X177297501Y-179511500D02*
X176397499Y-179511500D01*
G75*
G02*
X176147500Y-179261501I0J249999D01*
G01*
X176147500Y-178561499D01*
G75*
G02*
X176397499Y-178311500I249999J0D01*
G01*
X177297501Y-178311500D01*
G75*
G02*
X177547500Y-178561499I0J-249999D01*
G01*
X177547500Y-179261501D01*
G75*
G02*
X177297501Y-179511500I-249999J0D01*
G01*
G37*
G36*
G01*
X177297501Y-181511500D02*
X176397499Y-181511500D01*
G75*
G02*
X176147500Y-181261501I0J249999D01*
G01*
X176147500Y-180561499D01*
G75*
G02*
X176397499Y-180311500I249999J0D01*
G01*
X177297501Y-180311500D01*
G75*
G02*
X177547500Y-180561499I0J-249999D01*
G01*
X177547500Y-181261501D01*
G75*
G02*
X177297501Y-181511500I-249999J0D01*
G01*
G37*
%TD*%
%TO.C,R14*%
G36*
G01*
X65335999Y-181232000D02*
X66236001Y-181232000D01*
G75*
G02*
X66486000Y-181481999I0J-249999D01*
G01*
X66486000Y-182182001D01*
G75*
G02*
X66236001Y-182432000I-249999J0D01*
G01*
X65335999Y-182432000D01*
G75*
G02*
X65086000Y-182182001I0J249999D01*
G01*
X65086000Y-181481999D01*
G75*
G02*
X65335999Y-181232000I249999J0D01*
G01*
G37*
G36*
G01*
X65335999Y-179232000D02*
X66236001Y-179232000D01*
G75*
G02*
X66486000Y-179481999I0J-249999D01*
G01*
X66486000Y-180182001D01*
G75*
G02*
X66236001Y-180432000I-249999J0D01*
G01*
X65335999Y-180432000D01*
G75*
G02*
X65086000Y-180182001I0J249999D01*
G01*
X65086000Y-179481999D01*
G75*
G02*
X65335999Y-179232000I249999J0D01*
G01*
G37*
%TD*%
%TO.C,R13*%
G36*
G01*
X70300001Y-160366000D02*
X69399999Y-160366000D01*
G75*
G02*
X69150000Y-160116001I0J249999D01*
G01*
X69150000Y-159415999D01*
G75*
G02*
X69399999Y-159166000I249999J0D01*
G01*
X70300001Y-159166000D01*
G75*
G02*
X70550000Y-159415999I0J-249999D01*
G01*
X70550000Y-160116001D01*
G75*
G02*
X70300001Y-160366000I-249999J0D01*
G01*
G37*
G36*
G01*
X70300001Y-162366000D02*
X69399999Y-162366000D01*
G75*
G02*
X69150000Y-162116001I0J249999D01*
G01*
X69150000Y-161415999D01*
G75*
G02*
X69399999Y-161166000I249999J0D01*
G01*
X70300001Y-161166000D01*
G75*
G02*
X70550000Y-161415999I0J-249999D01*
G01*
X70550000Y-162116001D01*
G75*
G02*
X70300001Y-162366000I-249999J0D01*
G01*
G37*
%TD*%
%TO.C,R12*%
G36*
G01*
X88334001Y-156318000D02*
X87433999Y-156318000D01*
G75*
G02*
X87184000Y-156068001I0J249999D01*
G01*
X87184000Y-155367999D01*
G75*
G02*
X87433999Y-155118000I249999J0D01*
G01*
X88334001Y-155118000D01*
G75*
G02*
X88584000Y-155367999I0J-249999D01*
G01*
X88584000Y-156068001D01*
G75*
G02*
X88334001Y-156318000I-249999J0D01*
G01*
G37*
G36*
G01*
X88334001Y-158318000D02*
X87433999Y-158318000D01*
G75*
G02*
X87184000Y-158068001I0J249999D01*
G01*
X87184000Y-157367999D01*
G75*
G02*
X87433999Y-157118000I249999J0D01*
G01*
X88334001Y-157118000D01*
G75*
G02*
X88584000Y-157367999I0J-249999D01*
G01*
X88584000Y-158068001D01*
G75*
G02*
X88334001Y-158318000I-249999J0D01*
G01*
G37*
%TD*%
%TO.C,R11*%
G36*
G01*
X158261000Y-177805501D02*
X158261000Y-176905499D01*
G75*
G02*
X158510999Y-176655500I249999J0D01*
G01*
X159211001Y-176655500D01*
G75*
G02*
X159461000Y-176905499I0J-249999D01*
G01*
X159461000Y-177805501D01*
G75*
G02*
X159211001Y-178055500I-249999J0D01*
G01*
X158510999Y-178055500D01*
G75*
G02*
X158261000Y-177805501I0J249999D01*
G01*
G37*
G36*
G01*
X156261000Y-177805501D02*
X156261000Y-176905499D01*
G75*
G02*
X156510999Y-176655500I249999J0D01*
G01*
X157211001Y-176655500D01*
G75*
G02*
X157461000Y-176905499I0J-249999D01*
G01*
X157461000Y-177805501D01*
G75*
G02*
X157211001Y-178055500I-249999J0D01*
G01*
X156510999Y-178055500D01*
G75*
G02*
X156261000Y-177805501I0J249999D01*
G01*
G37*
%TD*%
%TO.C,R10*%
G36*
G01*
X157477000Y-175000499D02*
X157477000Y-175900501D01*
G75*
G02*
X157227001Y-176150500I-249999J0D01*
G01*
X156526999Y-176150500D01*
G75*
G02*
X156277000Y-175900501I0J249999D01*
G01*
X156277000Y-175000499D01*
G75*
G02*
X156526999Y-174750500I249999J0D01*
G01*
X157227001Y-174750500D01*
G75*
G02*
X157477000Y-175000499I0J-249999D01*
G01*
G37*
G36*
G01*
X159477000Y-175000499D02*
X159477000Y-175900501D01*
G75*
G02*
X159227001Y-176150500I-249999J0D01*
G01*
X158526999Y-176150500D01*
G75*
G02*
X158277000Y-175900501I0J249999D01*
G01*
X158277000Y-175000499D01*
G75*
G02*
X158526999Y-174750500I249999J0D01*
G01*
X159227001Y-174750500D01*
G75*
G02*
X159477000Y-175000499I0J-249999D01*
G01*
G37*
%TD*%
%TO.C,R9*%
G36*
G01*
X167316999Y-179327000D02*
X168217001Y-179327000D01*
G75*
G02*
X168467000Y-179576999I0J-249999D01*
G01*
X168467000Y-180277001D01*
G75*
G02*
X168217001Y-180527000I-249999J0D01*
G01*
X167316999Y-180527000D01*
G75*
G02*
X167067000Y-180277001I0J249999D01*
G01*
X167067000Y-179576999D01*
G75*
G02*
X167316999Y-179327000I249999J0D01*
G01*
G37*
G36*
G01*
X167316999Y-177327000D02*
X168217001Y-177327000D01*
G75*
G02*
X168467000Y-177576999I0J-249999D01*
G01*
X168467000Y-178277001D01*
G75*
G02*
X168217001Y-178527000I-249999J0D01*
G01*
X167316999Y-178527000D01*
G75*
G02*
X167067000Y-178277001I0J249999D01*
G01*
X167067000Y-177576999D01*
G75*
G02*
X167316999Y-177327000I249999J0D01*
G01*
G37*
%TD*%
%TO.C,R8*%
G36*
G01*
X70046001Y-175114000D02*
X69145999Y-175114000D01*
G75*
G02*
X68896000Y-174864001I0J249999D01*
G01*
X68896000Y-174163999D01*
G75*
G02*
X69145999Y-173914000I249999J0D01*
G01*
X70046001Y-173914000D01*
G75*
G02*
X70296000Y-174163999I0J-249999D01*
G01*
X70296000Y-174864001D01*
G75*
G02*
X70046001Y-175114000I-249999J0D01*
G01*
G37*
G36*
G01*
X70046001Y-177114000D02*
X69145999Y-177114000D01*
G75*
G02*
X68896000Y-176864001I0J249999D01*
G01*
X68896000Y-176163999D01*
G75*
G02*
X69145999Y-175914000I249999J0D01*
G01*
X70046001Y-175914000D01*
G75*
G02*
X70296000Y-176163999I0J-249999D01*
G01*
X70296000Y-176864001D01*
G75*
G02*
X70046001Y-177114000I-249999J0D01*
G01*
G37*
%TD*%
%TO.C,R7*%
G36*
G01*
X85667001Y-156334000D02*
X84766999Y-156334000D01*
G75*
G02*
X84517000Y-156084001I0J249999D01*
G01*
X84517000Y-155383999D01*
G75*
G02*
X84766999Y-155134000I249999J0D01*
G01*
X85667001Y-155134000D01*
G75*
G02*
X85917000Y-155383999I0J-249999D01*
G01*
X85917000Y-156084001D01*
G75*
G02*
X85667001Y-156334000I-249999J0D01*
G01*
G37*
G36*
G01*
X85667001Y-158334000D02*
X84766999Y-158334000D01*
G75*
G02*
X84517000Y-158084001I0J249999D01*
G01*
X84517000Y-157383999D01*
G75*
G02*
X84766999Y-157134000I249999J0D01*
G01*
X85667001Y-157134000D01*
G75*
G02*
X85917000Y-157383999I0J-249999D01*
G01*
X85917000Y-158084001D01*
G75*
G02*
X85667001Y-158334000I-249999J0D01*
G01*
G37*
%TD*%
%TO.C,R6*%
G36*
G01*
X83950000Y-150818001D02*
X83950000Y-149917999D01*
G75*
G02*
X84199999Y-149668000I249999J0D01*
G01*
X84900001Y-149668000D01*
G75*
G02*
X85150000Y-149917999I0J-249999D01*
G01*
X85150000Y-150818001D01*
G75*
G02*
X84900001Y-151068000I-249999J0D01*
G01*
X84199999Y-151068000D01*
G75*
G02*
X83950000Y-150818001I0J249999D01*
G01*
G37*
G36*
G01*
X81950000Y-150818001D02*
X81950000Y-149917999D01*
G75*
G02*
X82199999Y-149668000I249999J0D01*
G01*
X82900001Y-149668000D01*
G75*
G02*
X83150000Y-149917999I0J-249999D01*
G01*
X83150000Y-150818001D01*
G75*
G02*
X82900001Y-151068000I-249999J0D01*
G01*
X82199999Y-151068000D01*
G75*
G02*
X81950000Y-150818001I0J249999D01*
G01*
G37*
%TD*%
%TO.C,R5*%
G36*
G01*
X63027000Y-178504001D02*
X63027000Y-177603999D01*
G75*
G02*
X63276999Y-177354000I249999J0D01*
G01*
X63977001Y-177354000D01*
G75*
G02*
X64227000Y-177603999I0J-249999D01*
G01*
X64227000Y-178504001D01*
G75*
G02*
X63977001Y-178754000I-249999J0D01*
G01*
X63276999Y-178754000D01*
G75*
G02*
X63027000Y-178504001I0J249999D01*
G01*
G37*
G36*
G01*
X61027000Y-178504001D02*
X61027000Y-177603999D01*
G75*
G02*
X61276999Y-177354000I249999J0D01*
G01*
X61977001Y-177354000D01*
G75*
G02*
X62227000Y-177603999I0J-249999D01*
G01*
X62227000Y-178504001D01*
G75*
G02*
X61977001Y-178754000I-249999J0D01*
G01*
X61276999Y-178754000D01*
G75*
G02*
X61027000Y-178504001I0J249999D01*
G01*
G37*
%TD*%
%TO.C,R4*%
G36*
G01*
X76990500Y-173158999D02*
X76990500Y-174059001D01*
G75*
G02*
X76740501Y-174309000I-249999J0D01*
G01*
X76040499Y-174309000D01*
G75*
G02*
X75790500Y-174059001I0J249999D01*
G01*
X75790500Y-173158999D01*
G75*
G02*
X76040499Y-172909000I249999J0D01*
G01*
X76740501Y-172909000D01*
G75*
G02*
X76990500Y-173158999I0J-249999D01*
G01*
G37*
G36*
G01*
X78990500Y-173158999D02*
X78990500Y-174059001D01*
G75*
G02*
X78740501Y-174309000I-249999J0D01*
G01*
X78040499Y-174309000D01*
G75*
G02*
X77790500Y-174059001I0J249999D01*
G01*
X77790500Y-173158999D01*
G75*
G02*
X78040499Y-172909000I249999J0D01*
G01*
X78740501Y-172909000D01*
G75*
G02*
X78990500Y-173158999I0J-249999D01*
G01*
G37*
%TD*%
%TO.C,R3*%
G36*
G01*
X155324000Y-162565501D02*
X155324000Y-161665499D01*
G75*
G02*
X155573999Y-161415500I249999J0D01*
G01*
X156274001Y-161415500D01*
G75*
G02*
X156524000Y-161665499I0J-249999D01*
G01*
X156524000Y-162565501D01*
G75*
G02*
X156274001Y-162815500I-249999J0D01*
G01*
X155573999Y-162815500D01*
G75*
G02*
X155324000Y-162565501I0J249999D01*
G01*
G37*
G36*
G01*
X153324000Y-162565501D02*
X153324000Y-161665499D01*
G75*
G02*
X153573999Y-161415500I249999J0D01*
G01*
X154274001Y-161415500D01*
G75*
G02*
X154524000Y-161665499I0J-249999D01*
G01*
X154524000Y-162565501D01*
G75*
G02*
X154274001Y-162815500I-249999J0D01*
G01*
X153573999Y-162815500D01*
G75*
G02*
X153324000Y-162565501I0J249999D01*
G01*
G37*
%TD*%
%TO.C,R2*%
G36*
G01*
X155324000Y-167772501D02*
X155324000Y-166872499D01*
G75*
G02*
X155573999Y-166622500I249999J0D01*
G01*
X156274001Y-166622500D01*
G75*
G02*
X156524000Y-166872499I0J-249999D01*
G01*
X156524000Y-167772501D01*
G75*
G02*
X156274001Y-168022500I-249999J0D01*
G01*
X155573999Y-168022500D01*
G75*
G02*
X155324000Y-167772501I0J249999D01*
G01*
G37*
G36*
G01*
X153324000Y-167772501D02*
X153324000Y-166872499D01*
G75*
G02*
X153573999Y-166622500I249999J0D01*
G01*
X154274001Y-166622500D01*
G75*
G02*
X154524000Y-166872499I0J-249999D01*
G01*
X154524000Y-167772501D01*
G75*
G02*
X154274001Y-168022500I-249999J0D01*
G01*
X153573999Y-168022500D01*
G75*
G02*
X153324000Y-167772501I0J249999D01*
G01*
G37*
%TD*%
%TO.C,R1*%
G36*
G01*
X155324000Y-169804501D02*
X155324000Y-168904499D01*
G75*
G02*
X155573999Y-168654500I249999J0D01*
G01*
X156274001Y-168654500D01*
G75*
G02*
X156524000Y-168904499I0J-249999D01*
G01*
X156524000Y-169804501D01*
G75*
G02*
X156274001Y-170054500I-249999J0D01*
G01*
X155573999Y-170054500D01*
G75*
G02*
X155324000Y-169804501I0J249999D01*
G01*
G37*
G36*
G01*
X153324000Y-169804501D02*
X153324000Y-168904499D01*
G75*
G02*
X153573999Y-168654500I249999J0D01*
G01*
X154274001Y-168654500D01*
G75*
G02*
X154524000Y-168904499I0J-249999D01*
G01*
X154524000Y-169804501D01*
G75*
G02*
X154274001Y-170054500I-249999J0D01*
G01*
X153573999Y-170054500D01*
G75*
G02*
X153324000Y-169804501I0J249999D01*
G01*
G37*
%TD*%
D26*
%TO.C,Q28*%
X188529000Y-150844500D03*
X189479000Y-152844500D03*
X187579000Y-152844500D03*
%TD*%
%TO.C,Q27*%
X182565000Y-150844500D03*
X183515000Y-152844500D03*
X181615000Y-152844500D03*
%TD*%
%TO.C,Q26*%
X176911000Y-150828500D03*
X177861000Y-152828500D03*
X175961000Y-152828500D03*
%TD*%
%TO.C,Q25*%
X171069000Y-150828500D03*
X172019000Y-152828500D03*
X170119000Y-152828500D03*
%TD*%
%TO.C,Q24*%
X165293000Y-150844500D03*
X166243000Y-152844500D03*
X164343000Y-152844500D03*
%TD*%
%TO.C,Q23*%
X159639000Y-150828500D03*
X160589000Y-152828500D03*
X158689000Y-152828500D03*
%TD*%
D27*
%TO.C,Q22*%
G36*
X187556500Y-164276500D02*
G01*
X187556500Y-168401500D01*
X187140000Y-168401500D01*
X187140000Y-170876500D01*
X186240000Y-170876500D01*
X186240000Y-168401500D01*
X185823500Y-168401500D01*
X185823500Y-164276500D01*
X187556500Y-164276500D01*
G37*
D28*
X188190000Y-169726500D03*
X185190000Y-169726500D03*
%TD*%
D29*
%TO.C,Q21*%
X177768000Y-160657500D03*
X175768000Y-161607500D03*
X175768000Y-159707500D03*
%TD*%
D26*
%TO.C,Q20*%
X178562000Y-171386500D03*
X179512000Y-173386500D03*
X177612000Y-173386500D03*
%TD*%
%TO.C,Q19*%
X180594000Y-158829500D03*
X181544000Y-160829500D03*
X179644000Y-160829500D03*
%TD*%
D29*
%TO.C,Q18*%
X108617000Y-133157000D03*
X110617000Y-132207000D03*
X110617000Y-134107000D03*
%TD*%
%TO.C,Q17*%
X115475000Y-133162000D03*
X117475000Y-132212000D03*
X117475000Y-134112000D03*
%TD*%
D30*
%TO.C,Q16*%
X146939000Y-128714500D03*
X149479000Y-128714500D03*
D31*
X152019000Y-128714500D03*
%TD*%
D29*
%TO.C,Q15*%
X166513000Y-160464500D03*
X168513000Y-159514500D03*
X168513000Y-161414500D03*
%TD*%
D26*
%TO.C,Q14*%
X130937000Y-135572500D03*
X131887000Y-137572500D03*
X129987000Y-137572500D03*
%TD*%
D29*
%TO.C,Q13*%
X163544000Y-164213500D03*
X161544000Y-165163500D03*
X161544000Y-163263500D03*
%TD*%
D30*
%TO.C,Q12*%
X58420000Y-132715000D03*
X55880000Y-132715000D03*
D31*
X53340000Y-132715000D03*
%TD*%
D26*
%TO.C,Q11*%
X47818000Y-138716000D03*
X48768000Y-140716000D03*
X46868000Y-140716000D03*
%TD*%
D29*
%TO.C,Q10*%
X164306000Y-174876500D03*
X162306000Y-175826500D03*
X162306000Y-173926500D03*
%TD*%
%TO.C,Q9*%
X180530500Y-179832000D03*
X178530500Y-180782000D03*
X178530500Y-178882000D03*
%TD*%
%TO.C,Q8*%
X62230000Y-180848000D03*
X64230000Y-179898000D03*
X64230000Y-181798000D03*
%TD*%
D32*
%TO.C,Q7*%
X67310000Y-161798000D03*
X67310000Y-159258000D03*
D33*
X67310000Y-156718000D03*
%TD*%
D29*
%TO.C,Q6*%
X91567000Y-156718000D03*
X89567000Y-157668000D03*
X89567000Y-155768000D03*
%TD*%
%TO.C,Q5*%
X156877000Y-172717500D03*
X158877000Y-171767500D03*
X158877000Y-173667500D03*
%TD*%
%TO.C,Q4*%
X171481500Y-178877000D03*
X169481500Y-179827000D03*
X169481500Y-177927000D03*
%TD*%
D26*
%TO.C,Q3*%
X68580000Y-180070000D03*
X67630000Y-178070000D03*
X69530000Y-178070000D03*
%TD*%
D29*
%TO.C,Q2*%
X81534000Y-156718000D03*
X83534000Y-155768000D03*
X83534000Y-157668000D03*
%TD*%
%TO.C,Q1*%
X84439000Y-153162000D03*
X82439000Y-154112000D03*
X82439000Y-152212000D03*
%TD*%
D34*
%TO.C,L15*%
X191516000Y-159194500D03*
D13*
X191516000Y-164274500D03*
%TD*%
D35*
%TO.C,L14*%
X189992000Y-171513500D03*
D12*
X189992000Y-179133500D03*
%TD*%
D25*
%TO.C,L13*%
X178562000Y-169989500D03*
D17*
X178562000Y-162369500D03*
%TD*%
D36*
%TO.C,L10*%
X74800000Y-147320000D03*
X64900000Y-147320000D03*
%TD*%
%TO.C,L9*%
G36*
G01*
X138735000Y-147690500D02*
X138735000Y-144790500D01*
G75*
G02*
X138985000Y-144540500I250000J0D01*
G01*
X139785000Y-144540500D01*
G75*
G02*
X140035000Y-144790500I0J-250000D01*
G01*
X140035000Y-147690500D01*
G75*
G02*
X139785000Y-147940500I-250000J0D01*
G01*
X138985000Y-147940500D01*
G75*
G02*
X138735000Y-147690500I0J250000D01*
G01*
G37*
G36*
G01*
X134285000Y-147690500D02*
X134285000Y-144790500D01*
G75*
G02*
X134535000Y-144540500I250000J0D01*
G01*
X135335000Y-144540500D01*
G75*
G02*
X135585000Y-144790500I0J-250000D01*
G01*
X135585000Y-147690500D01*
G75*
G02*
X135335000Y-147940500I-250000J0D01*
G01*
X134535000Y-147940500D01*
G75*
G02*
X134285000Y-147690500I0J250000D01*
G01*
G37*
%TD*%
D37*
%TO.C,L8*%
X52205000Y-149225000D03*
X40005000Y-149225000D03*
%TD*%
%TO.C,L7*%
G36*
G01*
X135519000Y-148854500D02*
X135519000Y-151754500D01*
G75*
G02*
X135269000Y-152004500I-250000J0D01*
G01*
X134469000Y-152004500D01*
G75*
G02*
X134219000Y-151754500I0J250000D01*
G01*
X134219000Y-148854500D01*
G75*
G02*
X134469000Y-148604500I250000J0D01*
G01*
X135269000Y-148604500D01*
G75*
G02*
X135519000Y-148854500I0J-250000D01*
G01*
G37*
G36*
G01*
X139969000Y-148854500D02*
X139969000Y-151754500D01*
G75*
G02*
X139719000Y-152004500I-250000J0D01*
G01*
X138919000Y-152004500D01*
G75*
G02*
X138669000Y-151754500I0J250000D01*
G01*
X138669000Y-148854500D01*
G75*
G02*
X138919000Y-148604500I250000J0D01*
G01*
X139719000Y-148604500D01*
G75*
G02*
X139969000Y-148854500I0J-250000D01*
G01*
G37*
%TD*%
%TO.C,L6*%
G36*
G01*
X135585000Y-152918500D02*
X135585000Y-155818500D01*
G75*
G02*
X135335000Y-156068500I-250000J0D01*
G01*
X134535000Y-156068500D01*
G75*
G02*
X134285000Y-155818500I0J250000D01*
G01*
X134285000Y-152918500D01*
G75*
G02*
X134535000Y-152668500I250000J0D01*
G01*
X135335000Y-152668500D01*
G75*
G02*
X135585000Y-152918500I0J-250000D01*
G01*
G37*
G36*
G01*
X140035000Y-152918500D02*
X140035000Y-155818500D01*
G75*
G02*
X139785000Y-156068500I-250000J0D01*
G01*
X138985000Y-156068500D01*
G75*
G02*
X138735000Y-155818500I0J250000D01*
G01*
X138735000Y-152918500D01*
G75*
G02*
X138985000Y-152668500I250000J0D01*
G01*
X139785000Y-152668500D01*
G75*
G02*
X140035000Y-152918500I0J-250000D01*
G01*
G37*
%TD*%
%TO.C,L2*%
G36*
G01*
X135585000Y-156982500D02*
X135585000Y-159882500D01*
G75*
G02*
X135335000Y-160132500I-250000J0D01*
G01*
X134535000Y-160132500D01*
G75*
G02*
X134285000Y-159882500I0J250000D01*
G01*
X134285000Y-156982500D01*
G75*
G02*
X134535000Y-156732500I250000J0D01*
G01*
X135335000Y-156732500D01*
G75*
G02*
X135585000Y-156982500I0J-250000D01*
G01*
G37*
G36*
G01*
X140035000Y-156982500D02*
X140035000Y-159882500D01*
G75*
G02*
X139785000Y-160132500I-250000J0D01*
G01*
X138985000Y-160132500D01*
G75*
G02*
X138735000Y-159882500I0J250000D01*
G01*
X138735000Y-156982500D01*
G75*
G02*
X138985000Y-156732500I250000J0D01*
G01*
X139785000Y-156732500D01*
G75*
G02*
X140035000Y-156982500I0J-250000D01*
G01*
G37*
%TD*%
D38*
%TO.C,K6*%
X187579000Y-139636500D03*
D39*
X187579000Y-144716500D03*
X187579000Y-149796500D03*
X187579000Y-154876500D03*
%TD*%
D38*
%TO.C,K5*%
X181737000Y-139636500D03*
D39*
X181737000Y-144716500D03*
X181737000Y-149796500D03*
X181737000Y-154876500D03*
%TD*%
D38*
%TO.C,K4*%
X175895000Y-139636500D03*
D39*
X175895000Y-144716500D03*
X175895000Y-149796500D03*
X175895000Y-154876500D03*
%TD*%
D38*
%TO.C,K3*%
X170053000Y-139636500D03*
D39*
X170053000Y-144716500D03*
X170053000Y-149796500D03*
X170053000Y-154876500D03*
%TD*%
D38*
%TO.C,K2*%
X164211000Y-139636500D03*
D39*
X164211000Y-144716500D03*
X164211000Y-149796500D03*
X164211000Y-154876500D03*
%TD*%
D38*
%TO.C,K1*%
X158369000Y-139636500D03*
D39*
X158369000Y-144716500D03*
X158369000Y-149796500D03*
X158369000Y-154876500D03*
%TD*%
D10*
%TO.C,JP4*%
X105537000Y-145923000D03*
D11*
X105537000Y-148463000D03*
%TD*%
D10*
%TO.C,JP3*%
X106045000Y-134493000D03*
D11*
X106045000Y-137033000D03*
%TD*%
D10*
%TO.C,JP2*%
X115951000Y-147828000D03*
X115951000Y-150368000D03*
D11*
X115951000Y-152908000D03*
%TD*%
%TO.C,J10*%
X105600500Y-141732000D03*
%TD*%
D10*
%TO.C,J9*%
X187452000Y-157924500D03*
D11*
X187452000Y-160464500D03*
%TD*%
D10*
%TO.C,J8*%
X122174000Y-158940500D03*
X122174000Y-161480500D03*
D11*
X122174000Y-164020500D03*
%TD*%
D10*
%TO.C,J7*%
X100838000Y-153162000D03*
X100838000Y-150622000D03*
X100838000Y-148082000D03*
D11*
X100838000Y-145542000D03*
%TD*%
D10*
%TO.C,J6*%
X146431000Y-155384500D03*
D11*
X148971000Y-155384500D03*
%TD*%
D10*
%TO.C,J5*%
X108839000Y-148463000D03*
X108839000Y-145923000D03*
X108839000Y-143383000D03*
D11*
X108839000Y-140843000D03*
%TD*%
D10*
%TO.C,J4*%
X104394000Y-164973000D03*
D11*
X106934000Y-164973000D03*
%TD*%
D10*
%TO.C,J3*%
X112395000Y-136652000D03*
X112395000Y-139192000D03*
X112395000Y-141732000D03*
D11*
X112395000Y-144272000D03*
%TD*%
D10*
%TO.C,J2*%
X115951000Y-174879000D03*
D11*
X115951000Y-172339000D03*
%TD*%
D10*
%TO.C,J1*%
X79756000Y-155702000D03*
D11*
X79756000Y-158242000D03*
%TD*%
%TO.C,DA1*%
G36*
G01*
X139992000Y-137246500D02*
X139992000Y-136946500D01*
G75*
G02*
X140142000Y-136796500I150000J0D01*
G01*
X141792000Y-136796500D01*
G75*
G02*
X141942000Y-136946500I0J-150000D01*
G01*
X141942000Y-137246500D01*
G75*
G02*
X141792000Y-137396500I-150000J0D01*
G01*
X140142000Y-137396500D01*
G75*
G02*
X139992000Y-137246500I0J150000D01*
G01*
G37*
G36*
G01*
X139992000Y-138516500D02*
X139992000Y-138216500D01*
G75*
G02*
X140142000Y-138066500I150000J0D01*
G01*
X141792000Y-138066500D01*
G75*
G02*
X141942000Y-138216500I0J-150000D01*
G01*
X141942000Y-138516500D01*
G75*
G02*
X141792000Y-138666500I-150000J0D01*
G01*
X140142000Y-138666500D01*
G75*
G02*
X139992000Y-138516500I0J150000D01*
G01*
G37*
G36*
G01*
X139992000Y-139786500D02*
X139992000Y-139486500D01*
G75*
G02*
X140142000Y-139336500I150000J0D01*
G01*
X141792000Y-139336500D01*
G75*
G02*
X141942000Y-139486500I0J-150000D01*
G01*
X141942000Y-139786500D01*
G75*
G02*
X141792000Y-139936500I-150000J0D01*
G01*
X140142000Y-139936500D01*
G75*
G02*
X139992000Y-139786500I0J150000D01*
G01*
G37*
G36*
G01*
X139992000Y-141056500D02*
X139992000Y-140756500D01*
G75*
G02*
X140142000Y-140606500I150000J0D01*
G01*
X141792000Y-140606500D01*
G75*
G02*
X141942000Y-140756500I0J-150000D01*
G01*
X141942000Y-141056500D01*
G75*
G02*
X141792000Y-141206500I-150000J0D01*
G01*
X140142000Y-141206500D01*
G75*
G02*
X139992000Y-141056500I0J150000D01*
G01*
G37*
G36*
G01*
X135042000Y-141056500D02*
X135042000Y-140756500D01*
G75*
G02*
X135192000Y-140606500I150000J0D01*
G01*
X136842000Y-140606500D01*
G75*
G02*
X136992000Y-140756500I0J-150000D01*
G01*
X136992000Y-141056500D01*
G75*
G02*
X136842000Y-141206500I-150000J0D01*
G01*
X135192000Y-141206500D01*
G75*
G02*
X135042000Y-141056500I0J150000D01*
G01*
G37*
G36*
G01*
X135042000Y-139786500D02*
X135042000Y-139486500D01*
G75*
G02*
X135192000Y-139336500I150000J0D01*
G01*
X136842000Y-139336500D01*
G75*
G02*
X136992000Y-139486500I0J-150000D01*
G01*
X136992000Y-139786500D01*
G75*
G02*
X136842000Y-139936500I-150000J0D01*
G01*
X135192000Y-139936500D01*
G75*
G02*
X135042000Y-139786500I0J150000D01*
G01*
G37*
G36*
G01*
X135042000Y-138516500D02*
X135042000Y-138216500D01*
G75*
G02*
X135192000Y-138066500I150000J0D01*
G01*
X136842000Y-138066500D01*
G75*
G02*
X136992000Y-138216500I0J-150000D01*
G01*
X136992000Y-138516500D01*
G75*
G02*
X136842000Y-138666500I-150000J0D01*
G01*
X135192000Y-138666500D01*
G75*
G02*
X135042000Y-138516500I0J150000D01*
G01*
G37*
G36*
G01*
X135042000Y-137246500D02*
X135042000Y-136946500D01*
G75*
G02*
X135192000Y-136796500I150000J0D01*
G01*
X136842000Y-136796500D01*
G75*
G02*
X136992000Y-136946500I0J-150000D01*
G01*
X136992000Y-137246500D01*
G75*
G02*
X136842000Y-137396500I-150000J0D01*
G01*
X135192000Y-137396500D01*
G75*
G02*
X135042000Y-137246500I0J150000D01*
G01*
G37*
%TD*%
D35*
%TO.C,D14*%
X191897000Y-151320500D03*
D40*
X191897000Y-141160500D03*
%TD*%
D41*
%TO.C,D13*%
X192151000Y-129732500D03*
X192151000Y-133032500D03*
%TD*%
D42*
%TO.C,D12*%
X55880000Y-139065000D03*
D43*
X60960000Y-139065000D03*
%TD*%
D41*
%TO.C,D11*%
X50800000Y-132205000D03*
X50800000Y-128905000D03*
%TD*%
D44*
%TO.C,D10*%
X94232000Y-166624000D03*
X90932000Y-166624000D03*
%TD*%
%TO.C,D9*%
X79246000Y-166624000D03*
X75946000Y-166624000D03*
%TD*%
%TO.C,D8*%
X64006000Y-171196000D03*
X60706000Y-171196000D03*
%TD*%
D41*
%TO.C,D7*%
X93726000Y-168276000D03*
X93726000Y-171576000D03*
%TD*%
%TO.C,D6*%
X78486000Y-168402000D03*
X78486000Y-171702000D03*
%TD*%
%TO.C,D5*%
X63500000Y-173102000D03*
X63500000Y-176402000D03*
%TD*%
%TO.C,D4*%
X45466000Y-171448000D03*
X45466000Y-168148000D03*
%TD*%
%TO.C,D3*%
X54737000Y-181990000D03*
X54737000Y-178690000D03*
%TD*%
%TO.C,D2*%
X57150000Y-181989000D03*
X57150000Y-178689000D03*
%TD*%
%TO.C,D1*%
X59563000Y-181989000D03*
X59563000Y-178689000D03*
%TD*%
%TO.C,C137*%
G36*
G01*
X187499500Y-138333500D02*
X187499500Y-137383500D01*
G75*
G02*
X187749500Y-137133500I250000J0D01*
G01*
X188424500Y-137133500D01*
G75*
G02*
X188674500Y-137383500I0J-250000D01*
G01*
X188674500Y-138333500D01*
G75*
G02*
X188424500Y-138583500I-250000J0D01*
G01*
X187749500Y-138583500D01*
G75*
G02*
X187499500Y-138333500I0J250000D01*
G01*
G37*
G36*
G01*
X185424500Y-138333500D02*
X185424500Y-137383500D01*
G75*
G02*
X185674500Y-137133500I250000J0D01*
G01*
X186349500Y-137133500D01*
G75*
G02*
X186599500Y-137383500I0J-250000D01*
G01*
X186599500Y-138333500D01*
G75*
G02*
X186349500Y-138583500I-250000J0D01*
G01*
X185674500Y-138583500D01*
G75*
G02*
X185424500Y-138333500I0J250000D01*
G01*
G37*
%TD*%
%TO.C,C136*%
G36*
G01*
X186621000Y-135351500D02*
X186621000Y-136301500D01*
G75*
G02*
X186371000Y-136551500I-250000J0D01*
G01*
X185696000Y-136551500D01*
G75*
G02*
X185446000Y-136301500I0J250000D01*
G01*
X185446000Y-135351500D01*
G75*
G02*
X185696000Y-135101500I250000J0D01*
G01*
X186371000Y-135101500D01*
G75*
G02*
X186621000Y-135351500I0J-250000D01*
G01*
G37*
G36*
G01*
X188696000Y-135351500D02*
X188696000Y-136301500D01*
G75*
G02*
X188446000Y-136551500I-250000J0D01*
G01*
X187771000Y-136551500D01*
G75*
G02*
X187521000Y-136301500I0J250000D01*
G01*
X187521000Y-135351500D01*
G75*
G02*
X187771000Y-135101500I250000J0D01*
G01*
X188446000Y-135101500D01*
G75*
G02*
X188696000Y-135351500I0J-250000D01*
G01*
G37*
%TD*%
%TO.C,C135*%
G36*
G01*
X187499500Y-134269500D02*
X187499500Y-133319500D01*
G75*
G02*
X187749500Y-133069500I250000J0D01*
G01*
X188424500Y-133069500D01*
G75*
G02*
X188674500Y-133319500I0J-250000D01*
G01*
X188674500Y-134269500D01*
G75*
G02*
X188424500Y-134519500I-250000J0D01*
G01*
X187749500Y-134519500D01*
G75*
G02*
X187499500Y-134269500I0J250000D01*
G01*
G37*
G36*
G01*
X185424500Y-134269500D02*
X185424500Y-133319500D01*
G75*
G02*
X185674500Y-133069500I250000J0D01*
G01*
X186349500Y-133069500D01*
G75*
G02*
X186599500Y-133319500I0J-250000D01*
G01*
X186599500Y-134269500D01*
G75*
G02*
X186349500Y-134519500I-250000J0D01*
G01*
X185674500Y-134519500D01*
G75*
G02*
X185424500Y-134269500I0J250000D01*
G01*
G37*
%TD*%
%TO.C,C134*%
G36*
G01*
X186621000Y-131287500D02*
X186621000Y-132237500D01*
G75*
G02*
X186371000Y-132487500I-250000J0D01*
G01*
X185696000Y-132487500D01*
G75*
G02*
X185446000Y-132237500I0J250000D01*
G01*
X185446000Y-131287500D01*
G75*
G02*
X185696000Y-131037500I250000J0D01*
G01*
X186371000Y-131037500D01*
G75*
G02*
X186621000Y-131287500I0J-250000D01*
G01*
G37*
G36*
G01*
X188696000Y-131287500D02*
X188696000Y-132237500D01*
G75*
G02*
X188446000Y-132487500I-250000J0D01*
G01*
X187771000Y-132487500D01*
G75*
G02*
X187521000Y-132237500I0J250000D01*
G01*
X187521000Y-131287500D01*
G75*
G02*
X187771000Y-131037500I250000J0D01*
G01*
X188446000Y-131037500D01*
G75*
G02*
X188696000Y-131287500I0J-250000D01*
G01*
G37*
%TD*%
%TO.C,C133*%
G36*
G01*
X187499500Y-130205500D02*
X187499500Y-129255500D01*
G75*
G02*
X187749500Y-129005500I250000J0D01*
G01*
X188424500Y-129005500D01*
G75*
G02*
X188674500Y-129255500I0J-250000D01*
G01*
X188674500Y-130205500D01*
G75*
G02*
X188424500Y-130455500I-250000J0D01*
G01*
X187749500Y-130455500D01*
G75*
G02*
X187499500Y-130205500I0J250000D01*
G01*
G37*
G36*
G01*
X185424500Y-130205500D02*
X185424500Y-129255500D01*
G75*
G02*
X185674500Y-129005500I250000J0D01*
G01*
X186349500Y-129005500D01*
G75*
G02*
X186599500Y-129255500I0J-250000D01*
G01*
X186599500Y-130205500D01*
G75*
G02*
X186349500Y-130455500I-250000J0D01*
G01*
X185674500Y-130455500D01*
G75*
G02*
X185424500Y-130205500I0J250000D01*
G01*
G37*
%TD*%
%TO.C,C132*%
G36*
G01*
X186621000Y-127223500D02*
X186621000Y-128173500D01*
G75*
G02*
X186371000Y-128423500I-250000J0D01*
G01*
X185696000Y-128423500D01*
G75*
G02*
X185446000Y-128173500I0J250000D01*
G01*
X185446000Y-127223500D01*
G75*
G02*
X185696000Y-126973500I250000J0D01*
G01*
X186371000Y-126973500D01*
G75*
G02*
X186621000Y-127223500I0J-250000D01*
G01*
G37*
G36*
G01*
X188696000Y-127223500D02*
X188696000Y-128173500D01*
G75*
G02*
X188446000Y-128423500I-250000J0D01*
G01*
X187771000Y-128423500D01*
G75*
G02*
X187521000Y-128173500I0J250000D01*
G01*
X187521000Y-127223500D01*
G75*
G02*
X187771000Y-126973500I250000J0D01*
G01*
X188446000Y-126973500D01*
G75*
G02*
X188696000Y-127223500I0J-250000D01*
G01*
G37*
%TD*%
%TO.C,C131*%
G36*
G01*
X181700500Y-138333500D02*
X181700500Y-137383500D01*
G75*
G02*
X181950500Y-137133500I250000J0D01*
G01*
X182625500Y-137133500D01*
G75*
G02*
X182875500Y-137383500I0J-250000D01*
G01*
X182875500Y-138333500D01*
G75*
G02*
X182625500Y-138583500I-250000J0D01*
G01*
X181950500Y-138583500D01*
G75*
G02*
X181700500Y-138333500I0J250000D01*
G01*
G37*
G36*
G01*
X179625500Y-138333500D02*
X179625500Y-137383500D01*
G75*
G02*
X179875500Y-137133500I250000J0D01*
G01*
X180550500Y-137133500D01*
G75*
G02*
X180800500Y-137383500I0J-250000D01*
G01*
X180800500Y-138333500D01*
G75*
G02*
X180550500Y-138583500I-250000J0D01*
G01*
X179875500Y-138583500D01*
G75*
G02*
X179625500Y-138333500I0J250000D01*
G01*
G37*
%TD*%
%TO.C,C130*%
G36*
G01*
X180779000Y-135351500D02*
X180779000Y-136301500D01*
G75*
G02*
X180529000Y-136551500I-250000J0D01*
G01*
X179854000Y-136551500D01*
G75*
G02*
X179604000Y-136301500I0J250000D01*
G01*
X179604000Y-135351500D01*
G75*
G02*
X179854000Y-135101500I250000J0D01*
G01*
X180529000Y-135101500D01*
G75*
G02*
X180779000Y-135351500I0J-250000D01*
G01*
G37*
G36*
G01*
X182854000Y-135351500D02*
X182854000Y-136301500D01*
G75*
G02*
X182604000Y-136551500I-250000J0D01*
G01*
X181929000Y-136551500D01*
G75*
G02*
X181679000Y-136301500I0J250000D01*
G01*
X181679000Y-135351500D01*
G75*
G02*
X181929000Y-135101500I250000J0D01*
G01*
X182604000Y-135101500D01*
G75*
G02*
X182854000Y-135351500I0J-250000D01*
G01*
G37*
%TD*%
%TO.C,C129*%
G36*
G01*
X181657500Y-134269500D02*
X181657500Y-133319500D01*
G75*
G02*
X181907500Y-133069500I250000J0D01*
G01*
X182582500Y-133069500D01*
G75*
G02*
X182832500Y-133319500I0J-250000D01*
G01*
X182832500Y-134269500D01*
G75*
G02*
X182582500Y-134519500I-250000J0D01*
G01*
X181907500Y-134519500D01*
G75*
G02*
X181657500Y-134269500I0J250000D01*
G01*
G37*
G36*
G01*
X179582500Y-134269500D02*
X179582500Y-133319500D01*
G75*
G02*
X179832500Y-133069500I250000J0D01*
G01*
X180507500Y-133069500D01*
G75*
G02*
X180757500Y-133319500I0J-250000D01*
G01*
X180757500Y-134269500D01*
G75*
G02*
X180507500Y-134519500I-250000J0D01*
G01*
X179832500Y-134519500D01*
G75*
G02*
X179582500Y-134269500I0J250000D01*
G01*
G37*
%TD*%
%TO.C,C128*%
G36*
G01*
X180779000Y-131287500D02*
X180779000Y-132237500D01*
G75*
G02*
X180529000Y-132487500I-250000J0D01*
G01*
X179854000Y-132487500D01*
G75*
G02*
X179604000Y-132237500I0J250000D01*
G01*
X179604000Y-131287500D01*
G75*
G02*
X179854000Y-131037500I250000J0D01*
G01*
X180529000Y-131037500D01*
G75*
G02*
X180779000Y-131287500I0J-250000D01*
G01*
G37*
G36*
G01*
X182854000Y-131287500D02*
X182854000Y-132237500D01*
G75*
G02*
X182604000Y-132487500I-250000J0D01*
G01*
X181929000Y-132487500D01*
G75*
G02*
X181679000Y-132237500I0J250000D01*
G01*
X181679000Y-131287500D01*
G75*
G02*
X181929000Y-131037500I250000J0D01*
G01*
X182604000Y-131037500D01*
G75*
G02*
X182854000Y-131287500I0J-250000D01*
G01*
G37*
%TD*%
%TO.C,C127*%
G36*
G01*
X181700500Y-130205500D02*
X181700500Y-129255500D01*
G75*
G02*
X181950500Y-129005500I250000J0D01*
G01*
X182625500Y-129005500D01*
G75*
G02*
X182875500Y-129255500I0J-250000D01*
G01*
X182875500Y-130205500D01*
G75*
G02*
X182625500Y-130455500I-250000J0D01*
G01*
X181950500Y-130455500D01*
G75*
G02*
X181700500Y-130205500I0J250000D01*
G01*
G37*
G36*
G01*
X179625500Y-130205500D02*
X179625500Y-129255500D01*
G75*
G02*
X179875500Y-129005500I250000J0D01*
G01*
X180550500Y-129005500D01*
G75*
G02*
X180800500Y-129255500I0J-250000D01*
G01*
X180800500Y-130205500D01*
G75*
G02*
X180550500Y-130455500I-250000J0D01*
G01*
X179875500Y-130455500D01*
G75*
G02*
X179625500Y-130205500I0J250000D01*
G01*
G37*
%TD*%
%TO.C,C126*%
G36*
G01*
X180779000Y-127223500D02*
X180779000Y-128173500D01*
G75*
G02*
X180529000Y-128423500I-250000J0D01*
G01*
X179854000Y-128423500D01*
G75*
G02*
X179604000Y-128173500I0J250000D01*
G01*
X179604000Y-127223500D01*
G75*
G02*
X179854000Y-126973500I250000J0D01*
G01*
X180529000Y-126973500D01*
G75*
G02*
X180779000Y-127223500I0J-250000D01*
G01*
G37*
G36*
G01*
X182854000Y-127223500D02*
X182854000Y-128173500D01*
G75*
G02*
X182604000Y-128423500I-250000J0D01*
G01*
X181929000Y-128423500D01*
G75*
G02*
X181679000Y-128173500I0J250000D01*
G01*
X181679000Y-127223500D01*
G75*
G02*
X181929000Y-126973500I250000J0D01*
G01*
X182604000Y-126973500D01*
G75*
G02*
X182854000Y-127223500I0J-250000D01*
G01*
G37*
%TD*%
%TO.C,C125*%
G36*
G01*
X175815500Y-138333500D02*
X175815500Y-137383500D01*
G75*
G02*
X176065500Y-137133500I250000J0D01*
G01*
X176740500Y-137133500D01*
G75*
G02*
X176990500Y-137383500I0J-250000D01*
G01*
X176990500Y-138333500D01*
G75*
G02*
X176740500Y-138583500I-250000J0D01*
G01*
X176065500Y-138583500D01*
G75*
G02*
X175815500Y-138333500I0J250000D01*
G01*
G37*
G36*
G01*
X173740500Y-138333500D02*
X173740500Y-137383500D01*
G75*
G02*
X173990500Y-137133500I250000J0D01*
G01*
X174665500Y-137133500D01*
G75*
G02*
X174915500Y-137383500I0J-250000D01*
G01*
X174915500Y-138333500D01*
G75*
G02*
X174665500Y-138583500I-250000J0D01*
G01*
X173990500Y-138583500D01*
G75*
G02*
X173740500Y-138333500I0J250000D01*
G01*
G37*
%TD*%
%TO.C,C124*%
G36*
G01*
X174937000Y-135351500D02*
X174937000Y-136301500D01*
G75*
G02*
X174687000Y-136551500I-250000J0D01*
G01*
X174012000Y-136551500D01*
G75*
G02*
X173762000Y-136301500I0J250000D01*
G01*
X173762000Y-135351500D01*
G75*
G02*
X174012000Y-135101500I250000J0D01*
G01*
X174687000Y-135101500D01*
G75*
G02*
X174937000Y-135351500I0J-250000D01*
G01*
G37*
G36*
G01*
X177012000Y-135351500D02*
X177012000Y-136301500D01*
G75*
G02*
X176762000Y-136551500I-250000J0D01*
G01*
X176087000Y-136551500D01*
G75*
G02*
X175837000Y-136301500I0J250000D01*
G01*
X175837000Y-135351500D01*
G75*
G02*
X176087000Y-135101500I250000J0D01*
G01*
X176762000Y-135101500D01*
G75*
G02*
X177012000Y-135351500I0J-250000D01*
G01*
G37*
%TD*%
%TO.C,C123*%
G36*
G01*
X175815500Y-134269500D02*
X175815500Y-133319500D01*
G75*
G02*
X176065500Y-133069500I250000J0D01*
G01*
X176740500Y-133069500D01*
G75*
G02*
X176990500Y-133319500I0J-250000D01*
G01*
X176990500Y-134269500D01*
G75*
G02*
X176740500Y-134519500I-250000J0D01*
G01*
X176065500Y-134519500D01*
G75*
G02*
X175815500Y-134269500I0J250000D01*
G01*
G37*
G36*
G01*
X173740500Y-134269500D02*
X173740500Y-133319500D01*
G75*
G02*
X173990500Y-133069500I250000J0D01*
G01*
X174665500Y-133069500D01*
G75*
G02*
X174915500Y-133319500I0J-250000D01*
G01*
X174915500Y-134269500D01*
G75*
G02*
X174665500Y-134519500I-250000J0D01*
G01*
X173990500Y-134519500D01*
G75*
G02*
X173740500Y-134269500I0J250000D01*
G01*
G37*
%TD*%
%TO.C,C122*%
G36*
G01*
X174937000Y-131287500D02*
X174937000Y-132237500D01*
G75*
G02*
X174687000Y-132487500I-250000J0D01*
G01*
X174012000Y-132487500D01*
G75*
G02*
X173762000Y-132237500I0J250000D01*
G01*
X173762000Y-131287500D01*
G75*
G02*
X174012000Y-131037500I250000J0D01*
G01*
X174687000Y-131037500D01*
G75*
G02*
X174937000Y-131287500I0J-250000D01*
G01*
G37*
G36*
G01*
X177012000Y-131287500D02*
X177012000Y-132237500D01*
G75*
G02*
X176762000Y-132487500I-250000J0D01*
G01*
X176087000Y-132487500D01*
G75*
G02*
X175837000Y-132237500I0J250000D01*
G01*
X175837000Y-131287500D01*
G75*
G02*
X176087000Y-131037500I250000J0D01*
G01*
X176762000Y-131037500D01*
G75*
G02*
X177012000Y-131287500I0J-250000D01*
G01*
G37*
%TD*%
%TO.C,C121*%
G36*
G01*
X175815500Y-130205500D02*
X175815500Y-129255500D01*
G75*
G02*
X176065500Y-129005500I250000J0D01*
G01*
X176740500Y-129005500D01*
G75*
G02*
X176990500Y-129255500I0J-250000D01*
G01*
X176990500Y-130205500D01*
G75*
G02*
X176740500Y-130455500I-250000J0D01*
G01*
X176065500Y-130455500D01*
G75*
G02*
X175815500Y-130205500I0J250000D01*
G01*
G37*
G36*
G01*
X173740500Y-130205500D02*
X173740500Y-129255500D01*
G75*
G02*
X173990500Y-129005500I250000J0D01*
G01*
X174665500Y-129005500D01*
G75*
G02*
X174915500Y-129255500I0J-250000D01*
G01*
X174915500Y-130205500D01*
G75*
G02*
X174665500Y-130455500I-250000J0D01*
G01*
X173990500Y-130455500D01*
G75*
G02*
X173740500Y-130205500I0J250000D01*
G01*
G37*
%TD*%
%TO.C,C120*%
G36*
G01*
X174937000Y-127223500D02*
X174937000Y-128173500D01*
G75*
G02*
X174687000Y-128423500I-250000J0D01*
G01*
X174012000Y-128423500D01*
G75*
G02*
X173762000Y-128173500I0J250000D01*
G01*
X173762000Y-127223500D01*
G75*
G02*
X174012000Y-126973500I250000J0D01*
G01*
X174687000Y-126973500D01*
G75*
G02*
X174937000Y-127223500I0J-250000D01*
G01*
G37*
G36*
G01*
X177012000Y-127223500D02*
X177012000Y-128173500D01*
G75*
G02*
X176762000Y-128423500I-250000J0D01*
G01*
X176087000Y-128423500D01*
G75*
G02*
X175837000Y-128173500I0J250000D01*
G01*
X175837000Y-127223500D01*
G75*
G02*
X176087000Y-126973500I250000J0D01*
G01*
X176762000Y-126973500D01*
G75*
G02*
X177012000Y-127223500I0J-250000D01*
G01*
G37*
%TD*%
%TO.C,C119*%
G36*
G01*
X169973500Y-138333500D02*
X169973500Y-137383500D01*
G75*
G02*
X170223500Y-137133500I250000J0D01*
G01*
X170898500Y-137133500D01*
G75*
G02*
X171148500Y-137383500I0J-250000D01*
G01*
X171148500Y-138333500D01*
G75*
G02*
X170898500Y-138583500I-250000J0D01*
G01*
X170223500Y-138583500D01*
G75*
G02*
X169973500Y-138333500I0J250000D01*
G01*
G37*
G36*
G01*
X167898500Y-138333500D02*
X167898500Y-137383500D01*
G75*
G02*
X168148500Y-137133500I250000J0D01*
G01*
X168823500Y-137133500D01*
G75*
G02*
X169073500Y-137383500I0J-250000D01*
G01*
X169073500Y-138333500D01*
G75*
G02*
X168823500Y-138583500I-250000J0D01*
G01*
X168148500Y-138583500D01*
G75*
G02*
X167898500Y-138333500I0J250000D01*
G01*
G37*
%TD*%
%TO.C,C118*%
G36*
G01*
X169095000Y-135351500D02*
X169095000Y-136301500D01*
G75*
G02*
X168845000Y-136551500I-250000J0D01*
G01*
X168170000Y-136551500D01*
G75*
G02*
X167920000Y-136301500I0J250000D01*
G01*
X167920000Y-135351500D01*
G75*
G02*
X168170000Y-135101500I250000J0D01*
G01*
X168845000Y-135101500D01*
G75*
G02*
X169095000Y-135351500I0J-250000D01*
G01*
G37*
G36*
G01*
X171170000Y-135351500D02*
X171170000Y-136301500D01*
G75*
G02*
X170920000Y-136551500I-250000J0D01*
G01*
X170245000Y-136551500D01*
G75*
G02*
X169995000Y-136301500I0J250000D01*
G01*
X169995000Y-135351500D01*
G75*
G02*
X170245000Y-135101500I250000J0D01*
G01*
X170920000Y-135101500D01*
G75*
G02*
X171170000Y-135351500I0J-250000D01*
G01*
G37*
%TD*%
%TO.C,C117*%
G36*
G01*
X169973500Y-134269500D02*
X169973500Y-133319500D01*
G75*
G02*
X170223500Y-133069500I250000J0D01*
G01*
X170898500Y-133069500D01*
G75*
G02*
X171148500Y-133319500I0J-250000D01*
G01*
X171148500Y-134269500D01*
G75*
G02*
X170898500Y-134519500I-250000J0D01*
G01*
X170223500Y-134519500D01*
G75*
G02*
X169973500Y-134269500I0J250000D01*
G01*
G37*
G36*
G01*
X167898500Y-134269500D02*
X167898500Y-133319500D01*
G75*
G02*
X168148500Y-133069500I250000J0D01*
G01*
X168823500Y-133069500D01*
G75*
G02*
X169073500Y-133319500I0J-250000D01*
G01*
X169073500Y-134269500D01*
G75*
G02*
X168823500Y-134519500I-250000J0D01*
G01*
X168148500Y-134519500D01*
G75*
G02*
X167898500Y-134269500I0J250000D01*
G01*
G37*
%TD*%
%TO.C,C116*%
G36*
G01*
X169095000Y-131287500D02*
X169095000Y-132237500D01*
G75*
G02*
X168845000Y-132487500I-250000J0D01*
G01*
X168170000Y-132487500D01*
G75*
G02*
X167920000Y-132237500I0J250000D01*
G01*
X167920000Y-131287500D01*
G75*
G02*
X168170000Y-131037500I250000J0D01*
G01*
X168845000Y-131037500D01*
G75*
G02*
X169095000Y-131287500I0J-250000D01*
G01*
G37*
G36*
G01*
X171170000Y-131287500D02*
X171170000Y-132237500D01*
G75*
G02*
X170920000Y-132487500I-250000J0D01*
G01*
X170245000Y-132487500D01*
G75*
G02*
X169995000Y-132237500I0J250000D01*
G01*
X169995000Y-131287500D01*
G75*
G02*
X170245000Y-131037500I250000J0D01*
G01*
X170920000Y-131037500D01*
G75*
G02*
X171170000Y-131287500I0J-250000D01*
G01*
G37*
%TD*%
%TO.C,C115*%
G36*
G01*
X169973500Y-130205500D02*
X169973500Y-129255500D01*
G75*
G02*
X170223500Y-129005500I250000J0D01*
G01*
X170898500Y-129005500D01*
G75*
G02*
X171148500Y-129255500I0J-250000D01*
G01*
X171148500Y-130205500D01*
G75*
G02*
X170898500Y-130455500I-250000J0D01*
G01*
X170223500Y-130455500D01*
G75*
G02*
X169973500Y-130205500I0J250000D01*
G01*
G37*
G36*
G01*
X167898500Y-130205500D02*
X167898500Y-129255500D01*
G75*
G02*
X168148500Y-129005500I250000J0D01*
G01*
X168823500Y-129005500D01*
G75*
G02*
X169073500Y-129255500I0J-250000D01*
G01*
X169073500Y-130205500D01*
G75*
G02*
X168823500Y-130455500I-250000J0D01*
G01*
X168148500Y-130455500D01*
G75*
G02*
X167898500Y-130205500I0J250000D01*
G01*
G37*
%TD*%
%TO.C,C114*%
G36*
G01*
X169095000Y-127223500D02*
X169095000Y-128173500D01*
G75*
G02*
X168845000Y-128423500I-250000J0D01*
G01*
X168170000Y-128423500D01*
G75*
G02*
X167920000Y-128173500I0J250000D01*
G01*
X167920000Y-127223500D01*
G75*
G02*
X168170000Y-126973500I250000J0D01*
G01*
X168845000Y-126973500D01*
G75*
G02*
X169095000Y-127223500I0J-250000D01*
G01*
G37*
G36*
G01*
X171170000Y-127223500D02*
X171170000Y-128173500D01*
G75*
G02*
X170920000Y-128423500I-250000J0D01*
G01*
X170245000Y-128423500D01*
G75*
G02*
X169995000Y-128173500I0J250000D01*
G01*
X169995000Y-127223500D01*
G75*
G02*
X170245000Y-126973500I250000J0D01*
G01*
X170920000Y-126973500D01*
G75*
G02*
X171170000Y-127223500I0J-250000D01*
G01*
G37*
%TD*%
%TO.C,C113*%
G36*
G01*
X188250500Y-162275500D02*
X188250500Y-163225500D01*
G75*
G02*
X188000500Y-163475500I-250000J0D01*
G01*
X187325500Y-163475500D01*
G75*
G02*
X187075500Y-163225500I0J250000D01*
G01*
X187075500Y-162275500D01*
G75*
G02*
X187325500Y-162025500I250000J0D01*
G01*
X188000500Y-162025500D01*
G75*
G02*
X188250500Y-162275500I0J-250000D01*
G01*
G37*
G36*
G01*
X190325500Y-162275500D02*
X190325500Y-163225500D01*
G75*
G02*
X190075500Y-163475500I-250000J0D01*
G01*
X189400500Y-163475500D01*
G75*
G02*
X189150500Y-163225500I0J250000D01*
G01*
X189150500Y-162275500D01*
G75*
G02*
X189400500Y-162025500I250000J0D01*
G01*
X190075500Y-162025500D01*
G75*
G02*
X190325500Y-162275500I0J-250000D01*
G01*
G37*
%TD*%
D45*
%TO.C,C111*%
X153035000Y-156114500D03*
D46*
X153035000Y-154114500D03*
%TD*%
D17*
%TO.C,C110*%
X183856000Y-174561500D03*
D18*
X181356000Y-174561500D03*
%TD*%
%TO.C,C107*%
G36*
G01*
X164131500Y-138333500D02*
X164131500Y-137383500D01*
G75*
G02*
X164381500Y-137133500I250000J0D01*
G01*
X165056500Y-137133500D01*
G75*
G02*
X165306500Y-137383500I0J-250000D01*
G01*
X165306500Y-138333500D01*
G75*
G02*
X165056500Y-138583500I-250000J0D01*
G01*
X164381500Y-138583500D01*
G75*
G02*
X164131500Y-138333500I0J250000D01*
G01*
G37*
G36*
G01*
X162056500Y-138333500D02*
X162056500Y-137383500D01*
G75*
G02*
X162306500Y-137133500I250000J0D01*
G01*
X162981500Y-137133500D01*
G75*
G02*
X163231500Y-137383500I0J-250000D01*
G01*
X163231500Y-138333500D01*
G75*
G02*
X162981500Y-138583500I-250000J0D01*
G01*
X162306500Y-138583500D01*
G75*
G02*
X162056500Y-138333500I0J250000D01*
G01*
G37*
%TD*%
%TO.C,C106*%
G36*
G01*
X163253000Y-135351500D02*
X163253000Y-136301500D01*
G75*
G02*
X163003000Y-136551500I-250000J0D01*
G01*
X162328000Y-136551500D01*
G75*
G02*
X162078000Y-136301500I0J250000D01*
G01*
X162078000Y-135351500D01*
G75*
G02*
X162328000Y-135101500I250000J0D01*
G01*
X163003000Y-135101500D01*
G75*
G02*
X163253000Y-135351500I0J-250000D01*
G01*
G37*
G36*
G01*
X165328000Y-135351500D02*
X165328000Y-136301500D01*
G75*
G02*
X165078000Y-136551500I-250000J0D01*
G01*
X164403000Y-136551500D01*
G75*
G02*
X164153000Y-136301500I0J250000D01*
G01*
X164153000Y-135351500D01*
G75*
G02*
X164403000Y-135101500I250000J0D01*
G01*
X165078000Y-135101500D01*
G75*
G02*
X165328000Y-135351500I0J-250000D01*
G01*
G37*
%TD*%
%TO.C,C105*%
G36*
G01*
X164131500Y-134269500D02*
X164131500Y-133319500D01*
G75*
G02*
X164381500Y-133069500I250000J0D01*
G01*
X165056500Y-133069500D01*
G75*
G02*
X165306500Y-133319500I0J-250000D01*
G01*
X165306500Y-134269500D01*
G75*
G02*
X165056500Y-134519500I-250000J0D01*
G01*
X164381500Y-134519500D01*
G75*
G02*
X164131500Y-134269500I0J250000D01*
G01*
G37*
G36*
G01*
X162056500Y-134269500D02*
X162056500Y-133319500D01*
G75*
G02*
X162306500Y-133069500I250000J0D01*
G01*
X162981500Y-133069500D01*
G75*
G02*
X163231500Y-133319500I0J-250000D01*
G01*
X163231500Y-134269500D01*
G75*
G02*
X162981500Y-134519500I-250000J0D01*
G01*
X162306500Y-134519500D01*
G75*
G02*
X162056500Y-134269500I0J250000D01*
G01*
G37*
%TD*%
%TO.C,C104*%
G36*
G01*
X163274500Y-131287500D02*
X163274500Y-132237500D01*
G75*
G02*
X163024500Y-132487500I-250000J0D01*
G01*
X162349500Y-132487500D01*
G75*
G02*
X162099500Y-132237500I0J250000D01*
G01*
X162099500Y-131287500D01*
G75*
G02*
X162349500Y-131037500I250000J0D01*
G01*
X163024500Y-131037500D01*
G75*
G02*
X163274500Y-131287500I0J-250000D01*
G01*
G37*
G36*
G01*
X165349500Y-131287500D02*
X165349500Y-132237500D01*
G75*
G02*
X165099500Y-132487500I-250000J0D01*
G01*
X164424500Y-132487500D01*
G75*
G02*
X164174500Y-132237500I0J250000D01*
G01*
X164174500Y-131287500D01*
G75*
G02*
X164424500Y-131037500I250000J0D01*
G01*
X165099500Y-131037500D01*
G75*
G02*
X165349500Y-131287500I0J-250000D01*
G01*
G37*
%TD*%
%TO.C,C103*%
G36*
G01*
X164131500Y-130205500D02*
X164131500Y-129255500D01*
G75*
G02*
X164381500Y-129005500I250000J0D01*
G01*
X165056500Y-129005500D01*
G75*
G02*
X165306500Y-129255500I0J-250000D01*
G01*
X165306500Y-130205500D01*
G75*
G02*
X165056500Y-130455500I-250000J0D01*
G01*
X164381500Y-130455500D01*
G75*
G02*
X164131500Y-130205500I0J250000D01*
G01*
G37*
G36*
G01*
X162056500Y-130205500D02*
X162056500Y-129255500D01*
G75*
G02*
X162306500Y-129005500I250000J0D01*
G01*
X162981500Y-129005500D01*
G75*
G02*
X163231500Y-129255500I0J-250000D01*
G01*
X163231500Y-130205500D01*
G75*
G02*
X162981500Y-130455500I-250000J0D01*
G01*
X162306500Y-130455500D01*
G75*
G02*
X162056500Y-130205500I0J250000D01*
G01*
G37*
%TD*%
%TO.C,C102*%
G36*
G01*
X163253000Y-127223500D02*
X163253000Y-128173500D01*
G75*
G02*
X163003000Y-128423500I-250000J0D01*
G01*
X162328000Y-128423500D01*
G75*
G02*
X162078000Y-128173500I0J250000D01*
G01*
X162078000Y-127223500D01*
G75*
G02*
X162328000Y-126973500I250000J0D01*
G01*
X163003000Y-126973500D01*
G75*
G02*
X163253000Y-127223500I0J-250000D01*
G01*
G37*
G36*
G01*
X165328000Y-127223500D02*
X165328000Y-128173500D01*
G75*
G02*
X165078000Y-128423500I-250000J0D01*
G01*
X164403000Y-128423500D01*
G75*
G02*
X164153000Y-128173500I0J250000D01*
G01*
X164153000Y-127223500D01*
G75*
G02*
X164403000Y-126973500I250000J0D01*
G01*
X165078000Y-126973500D01*
G75*
G02*
X165328000Y-127223500I0J-250000D01*
G01*
G37*
%TD*%
%TO.C,C101*%
G36*
G01*
X190790500Y-167101500D02*
X190790500Y-168051500D01*
G75*
G02*
X190540500Y-168301500I-250000J0D01*
G01*
X189865500Y-168301500D01*
G75*
G02*
X189615500Y-168051500I0J250000D01*
G01*
X189615500Y-167101500D01*
G75*
G02*
X189865500Y-166851500I250000J0D01*
G01*
X190540500Y-166851500D01*
G75*
G02*
X190790500Y-167101500I0J-250000D01*
G01*
G37*
G36*
G01*
X192865500Y-167101500D02*
X192865500Y-168051500D01*
G75*
G02*
X192615500Y-168301500I-250000J0D01*
G01*
X191940500Y-168301500D01*
G75*
G02*
X191690500Y-168051500I0J250000D01*
G01*
X191690500Y-167101500D01*
G75*
G02*
X191940500Y-166851500I250000J0D01*
G01*
X192615500Y-166851500D01*
G75*
G02*
X192865500Y-167101500I0J-250000D01*
G01*
G37*
%TD*%
%TO.C,C99*%
G36*
G01*
X182970500Y-176814500D02*
X182970500Y-175864500D01*
G75*
G02*
X183220500Y-175614500I250000J0D01*
G01*
X183895500Y-175614500D01*
G75*
G02*
X184145500Y-175864500I0J-250000D01*
G01*
X184145500Y-176814500D01*
G75*
G02*
X183895500Y-177064500I-250000J0D01*
G01*
X183220500Y-177064500D01*
G75*
G02*
X182970500Y-176814500I0J250000D01*
G01*
G37*
G36*
G01*
X180895500Y-176814500D02*
X180895500Y-175864500D01*
G75*
G02*
X181145500Y-175614500I250000J0D01*
G01*
X181820500Y-175614500D01*
G75*
G02*
X182070500Y-175864500I0J-250000D01*
G01*
X182070500Y-176814500D01*
G75*
G02*
X181820500Y-177064500I-250000J0D01*
G01*
X181145500Y-177064500D01*
G75*
G02*
X180895500Y-176814500I0J250000D01*
G01*
G37*
%TD*%
%TO.C,C97*%
G36*
G01*
X190790500Y-169133500D02*
X190790500Y-170083500D01*
G75*
G02*
X190540500Y-170333500I-250000J0D01*
G01*
X189865500Y-170333500D01*
G75*
G02*
X189615500Y-170083500I0J250000D01*
G01*
X189615500Y-169133500D01*
G75*
G02*
X189865500Y-168883500I250000J0D01*
G01*
X190540500Y-168883500D01*
G75*
G02*
X190790500Y-169133500I0J-250000D01*
G01*
G37*
G36*
G01*
X192865500Y-169133500D02*
X192865500Y-170083500D01*
G75*
G02*
X192615500Y-170333500I-250000J0D01*
G01*
X191940500Y-170333500D01*
G75*
G02*
X191690500Y-170083500I0J250000D01*
G01*
X191690500Y-169133500D01*
G75*
G02*
X191940500Y-168883500I250000J0D01*
G01*
X192615500Y-168883500D01*
G75*
G02*
X192865500Y-169133500I0J-250000D01*
G01*
G37*
%TD*%
%TO.C,C96*%
G36*
G01*
X182970500Y-178719500D02*
X182970500Y-177769500D01*
G75*
G02*
X183220500Y-177519500I250000J0D01*
G01*
X183895500Y-177519500D01*
G75*
G02*
X184145500Y-177769500I0J-250000D01*
G01*
X184145500Y-178719500D01*
G75*
G02*
X183895500Y-178969500I-250000J0D01*
G01*
X183220500Y-178969500D01*
G75*
G02*
X182970500Y-178719500I0J250000D01*
G01*
G37*
G36*
G01*
X180895500Y-178719500D02*
X180895500Y-177769500D01*
G75*
G02*
X181145500Y-177519500I250000J0D01*
G01*
X181820500Y-177519500D01*
G75*
G02*
X182070500Y-177769500I0J-250000D01*
G01*
X182070500Y-178719500D01*
G75*
G02*
X181820500Y-178969500I-250000J0D01*
G01*
X181145500Y-178969500D01*
G75*
G02*
X180895500Y-178719500I0J250000D01*
G01*
G37*
%TD*%
%TO.C,C95*%
G36*
G01*
X125312500Y-164495500D02*
X125312500Y-163545500D01*
G75*
G02*
X125562500Y-163295500I250000J0D01*
G01*
X126237500Y-163295500D01*
G75*
G02*
X126487500Y-163545500I0J-250000D01*
G01*
X126487500Y-164495500D01*
G75*
G02*
X126237500Y-164745500I-250000J0D01*
G01*
X125562500Y-164745500D01*
G75*
G02*
X125312500Y-164495500I0J250000D01*
G01*
G37*
G36*
G01*
X123237500Y-164495500D02*
X123237500Y-163545500D01*
G75*
G02*
X123487500Y-163295500I250000J0D01*
G01*
X124162500Y-163295500D01*
G75*
G02*
X124412500Y-163545500I0J-250000D01*
G01*
X124412500Y-164495500D01*
G75*
G02*
X124162500Y-164745500I-250000J0D01*
G01*
X123487500Y-164745500D01*
G75*
G02*
X123237500Y-164495500I0J250000D01*
G01*
G37*
%TD*%
%TO.C,C93*%
G36*
G01*
X125312500Y-161955500D02*
X125312500Y-161005500D01*
G75*
G02*
X125562500Y-160755500I250000J0D01*
G01*
X126237500Y-160755500D01*
G75*
G02*
X126487500Y-161005500I0J-250000D01*
G01*
X126487500Y-161955500D01*
G75*
G02*
X126237500Y-162205500I-250000J0D01*
G01*
X125562500Y-162205500D01*
G75*
G02*
X125312500Y-161955500I0J250000D01*
G01*
G37*
G36*
G01*
X123237500Y-161955500D02*
X123237500Y-161005500D01*
G75*
G02*
X123487500Y-160755500I250000J0D01*
G01*
X124162500Y-160755500D01*
G75*
G02*
X124412500Y-161005500I0J-250000D01*
G01*
X124412500Y-161955500D01*
G75*
G02*
X124162500Y-162205500I-250000J0D01*
G01*
X123487500Y-162205500D01*
G75*
G02*
X123237500Y-161955500I0J250000D01*
G01*
G37*
%TD*%
%TO.C,C92*%
G36*
G01*
X158311000Y-138333500D02*
X158311000Y-137383500D01*
G75*
G02*
X158561000Y-137133500I250000J0D01*
G01*
X159236000Y-137133500D01*
G75*
G02*
X159486000Y-137383500I0J-250000D01*
G01*
X159486000Y-138333500D01*
G75*
G02*
X159236000Y-138583500I-250000J0D01*
G01*
X158561000Y-138583500D01*
G75*
G02*
X158311000Y-138333500I0J250000D01*
G01*
G37*
G36*
G01*
X156236000Y-138333500D02*
X156236000Y-137383500D01*
G75*
G02*
X156486000Y-137133500I250000J0D01*
G01*
X157161000Y-137133500D01*
G75*
G02*
X157411000Y-137383500I0J-250000D01*
G01*
X157411000Y-138333500D01*
G75*
G02*
X157161000Y-138583500I-250000J0D01*
G01*
X156486000Y-138583500D01*
G75*
G02*
X156236000Y-138333500I0J250000D01*
G01*
G37*
%TD*%
%TO.C,C91*%
G36*
G01*
X157389500Y-135351500D02*
X157389500Y-136301500D01*
G75*
G02*
X157139500Y-136551500I-250000J0D01*
G01*
X156464500Y-136551500D01*
G75*
G02*
X156214500Y-136301500I0J250000D01*
G01*
X156214500Y-135351500D01*
G75*
G02*
X156464500Y-135101500I250000J0D01*
G01*
X157139500Y-135101500D01*
G75*
G02*
X157389500Y-135351500I0J-250000D01*
G01*
G37*
G36*
G01*
X159464500Y-135351500D02*
X159464500Y-136301500D01*
G75*
G02*
X159214500Y-136551500I-250000J0D01*
G01*
X158539500Y-136551500D01*
G75*
G02*
X158289500Y-136301500I0J250000D01*
G01*
X158289500Y-135351500D01*
G75*
G02*
X158539500Y-135101500I250000J0D01*
G01*
X159214500Y-135101500D01*
G75*
G02*
X159464500Y-135351500I0J-250000D01*
G01*
G37*
%TD*%
%TO.C,C90*%
G36*
G01*
X158289500Y-134269500D02*
X158289500Y-133319500D01*
G75*
G02*
X158539500Y-133069500I250000J0D01*
G01*
X159214500Y-133069500D01*
G75*
G02*
X159464500Y-133319500I0J-250000D01*
G01*
X159464500Y-134269500D01*
G75*
G02*
X159214500Y-134519500I-250000J0D01*
G01*
X158539500Y-134519500D01*
G75*
G02*
X158289500Y-134269500I0J250000D01*
G01*
G37*
G36*
G01*
X156214500Y-134269500D02*
X156214500Y-133319500D01*
G75*
G02*
X156464500Y-133069500I250000J0D01*
G01*
X157139500Y-133069500D01*
G75*
G02*
X157389500Y-133319500I0J-250000D01*
G01*
X157389500Y-134269500D01*
G75*
G02*
X157139500Y-134519500I-250000J0D01*
G01*
X156464500Y-134519500D01*
G75*
G02*
X156214500Y-134269500I0J250000D01*
G01*
G37*
%TD*%
%TO.C,C89*%
G36*
G01*
X157411000Y-131287500D02*
X157411000Y-132237500D01*
G75*
G02*
X157161000Y-132487500I-250000J0D01*
G01*
X156486000Y-132487500D01*
G75*
G02*
X156236000Y-132237500I0J250000D01*
G01*
X156236000Y-131287500D01*
G75*
G02*
X156486000Y-131037500I250000J0D01*
G01*
X157161000Y-131037500D01*
G75*
G02*
X157411000Y-131287500I0J-250000D01*
G01*
G37*
G36*
G01*
X159486000Y-131287500D02*
X159486000Y-132237500D01*
G75*
G02*
X159236000Y-132487500I-250000J0D01*
G01*
X158561000Y-132487500D01*
G75*
G02*
X158311000Y-132237500I0J250000D01*
G01*
X158311000Y-131287500D01*
G75*
G02*
X158561000Y-131037500I250000J0D01*
G01*
X159236000Y-131037500D01*
G75*
G02*
X159486000Y-131287500I0J-250000D01*
G01*
G37*
%TD*%
%TO.C,C88*%
G36*
G01*
X158289500Y-130205500D02*
X158289500Y-129255500D01*
G75*
G02*
X158539500Y-129005500I250000J0D01*
G01*
X159214500Y-129005500D01*
G75*
G02*
X159464500Y-129255500I0J-250000D01*
G01*
X159464500Y-130205500D01*
G75*
G02*
X159214500Y-130455500I-250000J0D01*
G01*
X158539500Y-130455500D01*
G75*
G02*
X158289500Y-130205500I0J250000D01*
G01*
G37*
G36*
G01*
X156214500Y-130205500D02*
X156214500Y-129255500D01*
G75*
G02*
X156464500Y-129005500I250000J0D01*
G01*
X157139500Y-129005500D01*
G75*
G02*
X157389500Y-129255500I0J-250000D01*
G01*
X157389500Y-130205500D01*
G75*
G02*
X157139500Y-130455500I-250000J0D01*
G01*
X156464500Y-130455500D01*
G75*
G02*
X156214500Y-130205500I0J250000D01*
G01*
G37*
%TD*%
%TO.C,C87*%
G36*
G01*
X157411000Y-127223500D02*
X157411000Y-128173500D01*
G75*
G02*
X157161000Y-128423500I-250000J0D01*
G01*
X156486000Y-128423500D01*
G75*
G02*
X156236000Y-128173500I0J250000D01*
G01*
X156236000Y-127223500D01*
G75*
G02*
X156486000Y-126973500I250000J0D01*
G01*
X157161000Y-126973500D01*
G75*
G02*
X157411000Y-127223500I0J-250000D01*
G01*
G37*
G36*
G01*
X159486000Y-127223500D02*
X159486000Y-128173500D01*
G75*
G02*
X159236000Y-128423500I-250000J0D01*
G01*
X158561000Y-128423500D01*
G75*
G02*
X158311000Y-128173500I0J250000D01*
G01*
X158311000Y-127223500D01*
G75*
G02*
X158561000Y-126973500I250000J0D01*
G01*
X159236000Y-126973500D01*
G75*
G02*
X159486000Y-127223500I0J-250000D01*
G01*
G37*
%TD*%
%TO.C,C84*%
G36*
G01*
X179741500Y-165704500D02*
X179741500Y-166654500D01*
G75*
G02*
X179491500Y-166904500I-250000J0D01*
G01*
X178816500Y-166904500D01*
G75*
G02*
X178566500Y-166654500I0J250000D01*
G01*
X178566500Y-165704500D01*
G75*
G02*
X178816500Y-165454500I250000J0D01*
G01*
X179491500Y-165454500D01*
G75*
G02*
X179741500Y-165704500I0J-250000D01*
G01*
G37*
G36*
G01*
X181816500Y-165704500D02*
X181816500Y-166654500D01*
G75*
G02*
X181566500Y-166904500I-250000J0D01*
G01*
X180891500Y-166904500D01*
G75*
G02*
X180641500Y-166654500I0J250000D01*
G01*
X180641500Y-165704500D01*
G75*
G02*
X180891500Y-165454500I250000J0D01*
G01*
X181566500Y-165454500D01*
G75*
G02*
X181816500Y-165704500I0J-250000D01*
G01*
G37*
%TD*%
%TO.C,C83*%
G36*
G01*
X105595000Y-169070000D02*
X105595000Y-170020000D01*
G75*
G02*
X105345000Y-170270000I-250000J0D01*
G01*
X104670000Y-170270000D01*
G75*
G02*
X104420000Y-170020000I0J250000D01*
G01*
X104420000Y-169070000D01*
G75*
G02*
X104670000Y-168820000I250000J0D01*
G01*
X105345000Y-168820000D01*
G75*
G02*
X105595000Y-169070000I0J-250000D01*
G01*
G37*
G36*
G01*
X107670000Y-169070000D02*
X107670000Y-170020000D01*
G75*
G02*
X107420000Y-170270000I-250000J0D01*
G01*
X106745000Y-170270000D01*
G75*
G02*
X106495000Y-170020000I0J250000D01*
G01*
X106495000Y-169070000D01*
G75*
G02*
X106745000Y-168820000I250000J0D01*
G01*
X107420000Y-168820000D01*
G75*
G02*
X107670000Y-169070000I0J-250000D01*
G01*
G37*
%TD*%
%TO.C,C82*%
G36*
G01*
X105573500Y-167038000D02*
X105573500Y-167988000D01*
G75*
G02*
X105323500Y-168238000I-250000J0D01*
G01*
X104648500Y-168238000D01*
G75*
G02*
X104398500Y-167988000I0J250000D01*
G01*
X104398500Y-167038000D01*
G75*
G02*
X104648500Y-166788000I250000J0D01*
G01*
X105323500Y-166788000D01*
G75*
G02*
X105573500Y-167038000I0J-250000D01*
G01*
G37*
G36*
G01*
X107648500Y-167038000D02*
X107648500Y-167988000D01*
G75*
G02*
X107398500Y-168238000I-250000J0D01*
G01*
X106723500Y-168238000D01*
G75*
G02*
X106473500Y-167988000I0J250000D01*
G01*
X106473500Y-167038000D01*
G75*
G02*
X106723500Y-166788000I250000J0D01*
G01*
X107398500Y-166788000D01*
G75*
G02*
X107648500Y-167038000I0J-250000D01*
G01*
G37*
%TD*%
%TO.C,C80*%
G36*
G01*
X109934500Y-174658000D02*
X109934500Y-175608000D01*
G75*
G02*
X109684500Y-175858000I-250000J0D01*
G01*
X109009500Y-175858000D01*
G75*
G02*
X108759500Y-175608000I0J250000D01*
G01*
X108759500Y-174658000D01*
G75*
G02*
X109009500Y-174408000I250000J0D01*
G01*
X109684500Y-174408000D01*
G75*
G02*
X109934500Y-174658000I0J-250000D01*
G01*
G37*
G36*
G01*
X112009500Y-174658000D02*
X112009500Y-175608000D01*
G75*
G02*
X111759500Y-175858000I-250000J0D01*
G01*
X111084500Y-175858000D01*
G75*
G02*
X110834500Y-175608000I0J250000D01*
G01*
X110834500Y-174658000D01*
G75*
G02*
X111084500Y-174408000I250000J0D01*
G01*
X111759500Y-174408000D01*
G75*
G02*
X112009500Y-174658000I0J-250000D01*
G01*
G37*
%TD*%
%TO.C,C79*%
G36*
G01*
X107151500Y-175608000D02*
X107151500Y-174658000D01*
G75*
G02*
X107401500Y-174408000I250000J0D01*
G01*
X108076500Y-174408000D01*
G75*
G02*
X108326500Y-174658000I0J-250000D01*
G01*
X108326500Y-175608000D01*
G75*
G02*
X108076500Y-175858000I-250000J0D01*
G01*
X107401500Y-175858000D01*
G75*
G02*
X107151500Y-175608000I0J250000D01*
G01*
G37*
G36*
G01*
X105076500Y-175608000D02*
X105076500Y-174658000D01*
G75*
G02*
X105326500Y-174408000I250000J0D01*
G01*
X106001500Y-174408000D01*
G75*
G02*
X106251500Y-174658000I0J-250000D01*
G01*
X106251500Y-175608000D01*
G75*
G02*
X106001500Y-175858000I-250000J0D01*
G01*
X105326500Y-175858000D01*
G75*
G02*
X105076500Y-175608000I0J250000D01*
G01*
G37*
%TD*%
%TO.C,C77*%
G36*
G01*
X174912000Y-174398000D02*
X175862000Y-174398000D01*
G75*
G02*
X176112000Y-174648000I0J-250000D01*
G01*
X176112000Y-175323000D01*
G75*
G02*
X175862000Y-175573000I-250000J0D01*
G01*
X174912000Y-175573000D01*
G75*
G02*
X174662000Y-175323000I0J250000D01*
G01*
X174662000Y-174648000D01*
G75*
G02*
X174912000Y-174398000I250000J0D01*
G01*
G37*
G36*
G01*
X174912000Y-172323000D02*
X175862000Y-172323000D01*
G75*
G02*
X176112000Y-172573000I0J-250000D01*
G01*
X176112000Y-173248000D01*
G75*
G02*
X175862000Y-173498000I-250000J0D01*
G01*
X174912000Y-173498000D01*
G75*
G02*
X174662000Y-173248000I0J250000D01*
G01*
X174662000Y-172573000D01*
G75*
G02*
X174912000Y-172323000I250000J0D01*
G01*
G37*
%TD*%
D17*
%TO.C,C75*%
X174966000Y-163639500D03*
D18*
X172466000Y-163639500D03*
%TD*%
%TO.C,C74*%
G36*
G01*
X176704500Y-165892500D02*
X176704500Y-164942500D01*
G75*
G02*
X176954500Y-164692500I250000J0D01*
G01*
X177629500Y-164692500D01*
G75*
G02*
X177879500Y-164942500I0J-250000D01*
G01*
X177879500Y-165892500D01*
G75*
G02*
X177629500Y-166142500I-250000J0D01*
G01*
X176954500Y-166142500D01*
G75*
G02*
X176704500Y-165892500I0J250000D01*
G01*
G37*
G36*
G01*
X174629500Y-165892500D02*
X174629500Y-164942500D01*
G75*
G02*
X174879500Y-164692500I250000J0D01*
G01*
X175554500Y-164692500D01*
G75*
G02*
X175804500Y-164942500I0J-250000D01*
G01*
X175804500Y-165892500D01*
G75*
G02*
X175554500Y-166142500I-250000J0D01*
G01*
X174879500Y-166142500D01*
G75*
G02*
X174629500Y-165892500I0J250000D01*
G01*
G37*
%TD*%
%TO.C,C73*%
G36*
G01*
X190917500Y-134843500D02*
X190917500Y-135793500D01*
G75*
G02*
X190667500Y-136043500I-250000J0D01*
G01*
X189992500Y-136043500D01*
G75*
G02*
X189742500Y-135793500I0J250000D01*
G01*
X189742500Y-134843500D01*
G75*
G02*
X189992500Y-134593500I250000J0D01*
G01*
X190667500Y-134593500D01*
G75*
G02*
X190917500Y-134843500I0J-250000D01*
G01*
G37*
G36*
G01*
X192992500Y-134843500D02*
X192992500Y-135793500D01*
G75*
G02*
X192742500Y-136043500I-250000J0D01*
G01*
X192067500Y-136043500D01*
G75*
G02*
X191817500Y-135793500I0J250000D01*
G01*
X191817500Y-134843500D01*
G75*
G02*
X192067500Y-134593500I250000J0D01*
G01*
X192742500Y-134593500D01*
G75*
G02*
X192992500Y-134843500I0J-250000D01*
G01*
G37*
%TD*%
%TO.C,C72*%
G36*
G01*
X147389000Y-144429500D02*
X147389000Y-143479500D01*
G75*
G02*
X147639000Y-143229500I250000J0D01*
G01*
X148314000Y-143229500D01*
G75*
G02*
X148564000Y-143479500I0J-250000D01*
G01*
X148564000Y-144429500D01*
G75*
G02*
X148314000Y-144679500I-250000J0D01*
G01*
X147639000Y-144679500D01*
G75*
G02*
X147389000Y-144429500I0J250000D01*
G01*
G37*
G36*
G01*
X145314000Y-144429500D02*
X145314000Y-143479500D01*
G75*
G02*
X145564000Y-143229500I250000J0D01*
G01*
X146239000Y-143229500D01*
G75*
G02*
X146489000Y-143479500I0J-250000D01*
G01*
X146489000Y-144429500D01*
G75*
G02*
X146239000Y-144679500I-250000J0D01*
G01*
X145564000Y-144679500D01*
G75*
G02*
X145314000Y-144429500I0J250000D01*
G01*
G37*
%TD*%
%TO.C,C71*%
G36*
G01*
X176704500Y-167797500D02*
X176704500Y-166847500D01*
G75*
G02*
X176954500Y-166597500I250000J0D01*
G01*
X177629500Y-166597500D01*
G75*
G02*
X177879500Y-166847500I0J-250000D01*
G01*
X177879500Y-167797500D01*
G75*
G02*
X177629500Y-168047500I-250000J0D01*
G01*
X176954500Y-168047500D01*
G75*
G02*
X176704500Y-167797500I0J250000D01*
G01*
G37*
G36*
G01*
X174629500Y-167797500D02*
X174629500Y-166847500D01*
G75*
G02*
X174879500Y-166597500I250000J0D01*
G01*
X175554500Y-166597500D01*
G75*
G02*
X175804500Y-166847500I0J-250000D01*
G01*
X175804500Y-167797500D01*
G75*
G02*
X175554500Y-168047500I-250000J0D01*
G01*
X174879500Y-168047500D01*
G75*
G02*
X174629500Y-167797500I0J250000D01*
G01*
G37*
%TD*%
%TO.C,C70*%
G36*
G01*
X117889000Y-174186000D02*
X118839000Y-174186000D01*
G75*
G02*
X119089000Y-174436000I0J-250000D01*
G01*
X119089000Y-175111000D01*
G75*
G02*
X118839000Y-175361000I-250000J0D01*
G01*
X117889000Y-175361000D01*
G75*
G02*
X117639000Y-175111000I0J250000D01*
G01*
X117639000Y-174436000D01*
G75*
G02*
X117889000Y-174186000I250000J0D01*
G01*
G37*
G36*
G01*
X117889000Y-172111000D02*
X118839000Y-172111000D01*
G75*
G02*
X119089000Y-172361000I0J-250000D01*
G01*
X119089000Y-173036000D01*
G75*
G02*
X118839000Y-173286000I-250000J0D01*
G01*
X117889000Y-173286000D01*
G75*
G02*
X117639000Y-173036000I0J250000D01*
G01*
X117639000Y-172361000D01*
G75*
G02*
X117889000Y-172111000I250000J0D01*
G01*
G37*
%TD*%
%TO.C,C69*%
G36*
G01*
X148891500Y-141889500D02*
X148891500Y-140939500D01*
G75*
G02*
X149141500Y-140689500I250000J0D01*
G01*
X149816500Y-140689500D01*
G75*
G02*
X150066500Y-140939500I0J-250000D01*
G01*
X150066500Y-141889500D01*
G75*
G02*
X149816500Y-142139500I-250000J0D01*
G01*
X149141500Y-142139500D01*
G75*
G02*
X148891500Y-141889500I0J250000D01*
G01*
G37*
G36*
G01*
X146816500Y-141889500D02*
X146816500Y-140939500D01*
G75*
G02*
X147066500Y-140689500I250000J0D01*
G01*
X147741500Y-140689500D01*
G75*
G02*
X147991500Y-140939500I0J-250000D01*
G01*
X147991500Y-141889500D01*
G75*
G02*
X147741500Y-142139500I-250000J0D01*
G01*
X147066500Y-142139500D01*
G75*
G02*
X146816500Y-141889500I0J250000D01*
G01*
G37*
%TD*%
%TO.C,C68*%
G36*
G01*
X142838500Y-133253500D02*
X142838500Y-132303500D01*
G75*
G02*
X143088500Y-132053500I250000J0D01*
G01*
X143763500Y-132053500D01*
G75*
G02*
X144013500Y-132303500I0J-250000D01*
G01*
X144013500Y-133253500D01*
G75*
G02*
X143763500Y-133503500I-250000J0D01*
G01*
X143088500Y-133503500D01*
G75*
G02*
X142838500Y-133253500I0J250000D01*
G01*
G37*
G36*
G01*
X140763500Y-133253500D02*
X140763500Y-132303500D01*
G75*
G02*
X141013500Y-132053500I250000J0D01*
G01*
X141688500Y-132053500D01*
G75*
G02*
X141938500Y-132303500I0J-250000D01*
G01*
X141938500Y-133253500D01*
G75*
G02*
X141688500Y-133503500I-250000J0D01*
G01*
X141013500Y-133503500D01*
G75*
G02*
X140763500Y-133253500I0J250000D01*
G01*
G37*
%TD*%
%TO.C,C67*%
G36*
G01*
X142795500Y-135285500D02*
X142795500Y-134335500D01*
G75*
G02*
X143045500Y-134085500I250000J0D01*
G01*
X143720500Y-134085500D01*
G75*
G02*
X143970500Y-134335500I0J-250000D01*
G01*
X143970500Y-135285500D01*
G75*
G02*
X143720500Y-135535500I-250000J0D01*
G01*
X143045500Y-135535500D01*
G75*
G02*
X142795500Y-135285500I0J250000D01*
G01*
G37*
G36*
G01*
X140720500Y-135285500D02*
X140720500Y-134335500D01*
G75*
G02*
X140970500Y-134085500I250000J0D01*
G01*
X141645500Y-134085500D01*
G75*
G02*
X141895500Y-134335500I0J-250000D01*
G01*
X141895500Y-135285500D01*
G75*
G02*
X141645500Y-135535500I-250000J0D01*
G01*
X140970500Y-135535500D01*
G75*
G02*
X140720500Y-135285500I0J250000D01*
G01*
G37*
%TD*%
%TO.C,C66*%
G36*
G01*
X172560000Y-157707000D02*
X171610000Y-157707000D01*
G75*
G02*
X171360000Y-157457000I0J250000D01*
G01*
X171360000Y-156782000D01*
G75*
G02*
X171610000Y-156532000I250000J0D01*
G01*
X172560000Y-156532000D01*
G75*
G02*
X172810000Y-156782000I0J-250000D01*
G01*
X172810000Y-157457000D01*
G75*
G02*
X172560000Y-157707000I-250000J0D01*
G01*
G37*
G36*
G01*
X172560000Y-159782000D02*
X171610000Y-159782000D01*
G75*
G02*
X171360000Y-159532000I0J250000D01*
G01*
X171360000Y-158857000D01*
G75*
G02*
X171610000Y-158607000I250000J0D01*
G01*
X172560000Y-158607000D01*
G75*
G02*
X172810000Y-158857000I0J-250000D01*
G01*
X172810000Y-159532000D01*
G75*
G02*
X172560000Y-159782000I-250000J0D01*
G01*
G37*
%TD*%
%TO.C,C65*%
G36*
G01*
X167734000Y-163592000D02*
X166784000Y-163592000D01*
G75*
G02*
X166534000Y-163342000I0J250000D01*
G01*
X166534000Y-162667000D01*
G75*
G02*
X166784000Y-162417000I250000J0D01*
G01*
X167734000Y-162417000D01*
G75*
G02*
X167984000Y-162667000I0J-250000D01*
G01*
X167984000Y-163342000D01*
G75*
G02*
X167734000Y-163592000I-250000J0D01*
G01*
G37*
G36*
G01*
X167734000Y-165667000D02*
X166784000Y-165667000D01*
G75*
G02*
X166534000Y-165417000I0J250000D01*
G01*
X166534000Y-164742000D01*
G75*
G02*
X166784000Y-164492000I250000J0D01*
G01*
X167734000Y-164492000D01*
G75*
G02*
X167984000Y-164742000I0J-250000D01*
G01*
X167984000Y-165417000D01*
G75*
G02*
X167734000Y-165667000I-250000J0D01*
G01*
G37*
%TD*%
%TO.C,C64*%
G36*
G01*
X81200500Y-144239000D02*
X81200500Y-143289000D01*
G75*
G02*
X81450500Y-143039000I250000J0D01*
G01*
X82125500Y-143039000D01*
G75*
G02*
X82375500Y-143289000I0J-250000D01*
G01*
X82375500Y-144239000D01*
G75*
G02*
X82125500Y-144489000I-250000J0D01*
G01*
X81450500Y-144489000D01*
G75*
G02*
X81200500Y-144239000I0J250000D01*
G01*
G37*
G36*
G01*
X79125500Y-144239000D02*
X79125500Y-143289000D01*
G75*
G02*
X79375500Y-143039000I250000J0D01*
G01*
X80050500Y-143039000D01*
G75*
G02*
X80300500Y-143289000I0J-250000D01*
G01*
X80300500Y-144239000D01*
G75*
G02*
X80050500Y-144489000I-250000J0D01*
G01*
X79375500Y-144489000D01*
G75*
G02*
X79125500Y-144239000I0J250000D01*
G01*
G37*
%TD*%
%TO.C,C63*%
G36*
G01*
X134964500Y-133761500D02*
X134964500Y-132811500D01*
G75*
G02*
X135214500Y-132561500I250000J0D01*
G01*
X135889500Y-132561500D01*
G75*
G02*
X136139500Y-132811500I0J-250000D01*
G01*
X136139500Y-133761500D01*
G75*
G02*
X135889500Y-134011500I-250000J0D01*
G01*
X135214500Y-134011500D01*
G75*
G02*
X134964500Y-133761500I0J250000D01*
G01*
G37*
G36*
G01*
X132889500Y-133761500D02*
X132889500Y-132811500D01*
G75*
G02*
X133139500Y-132561500I250000J0D01*
G01*
X133814500Y-132561500D01*
G75*
G02*
X134064500Y-132811500I0J-250000D01*
G01*
X134064500Y-133761500D01*
G75*
G02*
X133814500Y-134011500I-250000J0D01*
G01*
X133139500Y-134011500D01*
G75*
G02*
X132889500Y-133761500I0J250000D01*
G01*
G37*
%TD*%
%TO.C,C62*%
G36*
G01*
X162466000Y-168556000D02*
X163416000Y-168556000D01*
G75*
G02*
X163666000Y-168806000I0J-250000D01*
G01*
X163666000Y-169481000D01*
G75*
G02*
X163416000Y-169731000I-250000J0D01*
G01*
X162466000Y-169731000D01*
G75*
G02*
X162216000Y-169481000I0J250000D01*
G01*
X162216000Y-168806000D01*
G75*
G02*
X162466000Y-168556000I250000J0D01*
G01*
G37*
G36*
G01*
X162466000Y-166481000D02*
X163416000Y-166481000D01*
G75*
G02*
X163666000Y-166731000I0J-250000D01*
G01*
X163666000Y-167406000D01*
G75*
G02*
X163416000Y-167656000I-250000J0D01*
G01*
X162466000Y-167656000D01*
G75*
G02*
X162216000Y-167406000I0J250000D01*
G01*
X162216000Y-166731000D01*
G75*
G02*
X162466000Y-166481000I250000J0D01*
G01*
G37*
%TD*%
%TO.C,C61*%
G36*
G01*
X164752000Y-164576000D02*
X165702000Y-164576000D01*
G75*
G02*
X165952000Y-164826000I0J-250000D01*
G01*
X165952000Y-165501000D01*
G75*
G02*
X165702000Y-165751000I-250000J0D01*
G01*
X164752000Y-165751000D01*
G75*
G02*
X164502000Y-165501000I0J250000D01*
G01*
X164502000Y-164826000D01*
G75*
G02*
X164752000Y-164576000I250000J0D01*
G01*
G37*
G36*
G01*
X164752000Y-162501000D02*
X165702000Y-162501000D01*
G75*
G02*
X165952000Y-162751000I0J-250000D01*
G01*
X165952000Y-163426000D01*
G75*
G02*
X165702000Y-163676000I-250000J0D01*
G01*
X164752000Y-163676000D01*
G75*
G02*
X164502000Y-163426000I0J250000D01*
G01*
X164502000Y-162751000D01*
G75*
G02*
X164752000Y-162501000I250000J0D01*
G01*
G37*
%TD*%
%TO.C,C60*%
G36*
G01*
X137831500Y-132811500D02*
X137831500Y-133761500D01*
G75*
G02*
X137581500Y-134011500I-250000J0D01*
G01*
X136906500Y-134011500D01*
G75*
G02*
X136656500Y-133761500I0J250000D01*
G01*
X136656500Y-132811500D01*
G75*
G02*
X136906500Y-132561500I250000J0D01*
G01*
X137581500Y-132561500D01*
G75*
G02*
X137831500Y-132811500I0J-250000D01*
G01*
G37*
G36*
G01*
X139906500Y-132811500D02*
X139906500Y-133761500D01*
G75*
G02*
X139656500Y-134011500I-250000J0D01*
G01*
X138981500Y-134011500D01*
G75*
G02*
X138731500Y-133761500I0J250000D01*
G01*
X138731500Y-132811500D01*
G75*
G02*
X138981500Y-132561500I250000J0D01*
G01*
X139656500Y-132561500D01*
G75*
G02*
X139906500Y-132811500I0J-250000D01*
G01*
G37*
%TD*%
%TO.C,C59*%
G36*
G01*
X137831500Y-134843500D02*
X137831500Y-135793500D01*
G75*
G02*
X137581500Y-136043500I-250000J0D01*
G01*
X136906500Y-136043500D01*
G75*
G02*
X136656500Y-135793500I0J250000D01*
G01*
X136656500Y-134843500D01*
G75*
G02*
X136906500Y-134593500I250000J0D01*
G01*
X137581500Y-134593500D01*
G75*
G02*
X137831500Y-134843500I0J-250000D01*
G01*
G37*
G36*
G01*
X139906500Y-134843500D02*
X139906500Y-135793500D01*
G75*
G02*
X139656500Y-136043500I-250000J0D01*
G01*
X138981500Y-136043500D01*
G75*
G02*
X138731500Y-135793500I0J250000D01*
G01*
X138731500Y-134843500D01*
G75*
G02*
X138981500Y-134593500I250000J0D01*
G01*
X139656500Y-134593500D01*
G75*
G02*
X139906500Y-134843500I0J-250000D01*
G01*
G37*
%TD*%
%TO.C,C56*%
G36*
G01*
X130487000Y-139161500D02*
X130487000Y-140111500D01*
G75*
G02*
X130237000Y-140361500I-250000J0D01*
G01*
X129562000Y-140361500D01*
G75*
G02*
X129312000Y-140111500I0J250000D01*
G01*
X129312000Y-139161500D01*
G75*
G02*
X129562000Y-138911500I250000J0D01*
G01*
X130237000Y-138911500D01*
G75*
G02*
X130487000Y-139161500I0J-250000D01*
G01*
G37*
G36*
G01*
X132562000Y-139161500D02*
X132562000Y-140111500D01*
G75*
G02*
X132312000Y-140361500I-250000J0D01*
G01*
X131637000Y-140361500D01*
G75*
G02*
X131387000Y-140111500I0J250000D01*
G01*
X131387000Y-139161500D01*
G75*
G02*
X131637000Y-138911500I250000J0D01*
G01*
X132312000Y-138911500D01*
G75*
G02*
X132562000Y-139161500I0J-250000D01*
G01*
G37*
%TD*%
%TO.C,C54*%
G36*
G01*
X159479000Y-167613000D02*
X158529000Y-167613000D01*
G75*
G02*
X158279000Y-167363000I0J250000D01*
G01*
X158279000Y-166688000D01*
G75*
G02*
X158529000Y-166438000I250000J0D01*
G01*
X159479000Y-166438000D01*
G75*
G02*
X159729000Y-166688000I0J-250000D01*
G01*
X159729000Y-167363000D01*
G75*
G02*
X159479000Y-167613000I-250000J0D01*
G01*
G37*
G36*
G01*
X159479000Y-169688000D02*
X158529000Y-169688000D01*
G75*
G02*
X158279000Y-169438000I0J250000D01*
G01*
X158279000Y-168763000D01*
G75*
G02*
X158529000Y-168513000I250000J0D01*
G01*
X159479000Y-168513000D01*
G75*
G02*
X159729000Y-168763000I0J-250000D01*
G01*
X159729000Y-169438000D01*
G75*
G02*
X159479000Y-169688000I-250000J0D01*
G01*
G37*
%TD*%
D13*
%TO.C,C53*%
X60325000Y-151050000D03*
D14*
X60325000Y-146050000D03*
%TD*%
%TO.C,C52*%
G36*
G01*
X58580000Y-149040000D02*
X59530000Y-149040000D01*
G75*
G02*
X59780000Y-149290000I0J-250000D01*
G01*
X59780000Y-149965000D01*
G75*
G02*
X59530000Y-150215000I-250000J0D01*
G01*
X58580000Y-150215000D01*
G75*
G02*
X58330000Y-149965000I0J250000D01*
G01*
X58330000Y-149290000D01*
G75*
G02*
X58580000Y-149040000I250000J0D01*
G01*
G37*
G36*
G01*
X58580000Y-146965000D02*
X59530000Y-146965000D01*
G75*
G02*
X59780000Y-147215000I0J-250000D01*
G01*
X59780000Y-147890000D01*
G75*
G02*
X59530000Y-148140000I-250000J0D01*
G01*
X58580000Y-148140000D01*
G75*
G02*
X58330000Y-147890000I0J250000D01*
G01*
X58330000Y-147215000D01*
G75*
G02*
X58580000Y-146965000I250000J0D01*
G01*
G37*
%TD*%
%TO.C,C51*%
G36*
G01*
X61120000Y-149040000D02*
X62070000Y-149040000D01*
G75*
G02*
X62320000Y-149290000I0J-250000D01*
G01*
X62320000Y-149965000D01*
G75*
G02*
X62070000Y-150215000I-250000J0D01*
G01*
X61120000Y-150215000D01*
G75*
G02*
X60870000Y-149965000I0J250000D01*
G01*
X60870000Y-149290000D01*
G75*
G02*
X61120000Y-149040000I250000J0D01*
G01*
G37*
G36*
G01*
X61120000Y-146965000D02*
X62070000Y-146965000D01*
G75*
G02*
X62320000Y-147215000I0J-250000D01*
G01*
X62320000Y-147890000D01*
G75*
G02*
X62070000Y-148140000I-250000J0D01*
G01*
X61120000Y-148140000D01*
G75*
G02*
X60870000Y-147890000I0J250000D01*
G01*
X60870000Y-147215000D01*
G75*
G02*
X61120000Y-146965000I250000J0D01*
G01*
G37*
%TD*%
D17*
%TO.C,C50*%
X94234000Y-162092000D03*
D18*
X94234000Y-164592000D03*
%TD*%
D17*
%TO.C,C49*%
X78994000Y-162346000D03*
D18*
X78994000Y-164846000D03*
%TD*%
D17*
%TO.C,C48*%
X63500000Y-166918000D03*
D18*
X63500000Y-169418000D03*
%TD*%
%TO.C,C47*%
G36*
G01*
X96487000Y-164120500D02*
X95537000Y-164120500D01*
G75*
G02*
X95287000Y-163870500I0J250000D01*
G01*
X95287000Y-163195500D01*
G75*
G02*
X95537000Y-162945500I250000J0D01*
G01*
X96487000Y-162945500D01*
G75*
G02*
X96737000Y-163195500I0J-250000D01*
G01*
X96737000Y-163870500D01*
G75*
G02*
X96487000Y-164120500I-250000J0D01*
G01*
G37*
G36*
G01*
X96487000Y-166195500D02*
X95537000Y-166195500D01*
G75*
G02*
X95287000Y-165945500I0J250000D01*
G01*
X95287000Y-165270500D01*
G75*
G02*
X95537000Y-165020500I250000J0D01*
G01*
X96487000Y-165020500D01*
G75*
G02*
X96737000Y-165270500I0J-250000D01*
G01*
X96737000Y-165945500D01*
G75*
G02*
X96487000Y-166195500I-250000J0D01*
G01*
G37*
%TD*%
%TO.C,C46*%
G36*
G01*
X81501000Y-164120500D02*
X80551000Y-164120500D01*
G75*
G02*
X80301000Y-163870500I0J250000D01*
G01*
X80301000Y-163195500D01*
G75*
G02*
X80551000Y-162945500I250000J0D01*
G01*
X81501000Y-162945500D01*
G75*
G02*
X81751000Y-163195500I0J-250000D01*
G01*
X81751000Y-163870500D01*
G75*
G02*
X81501000Y-164120500I-250000J0D01*
G01*
G37*
G36*
G01*
X81501000Y-166195500D02*
X80551000Y-166195500D01*
G75*
G02*
X80301000Y-165945500I0J250000D01*
G01*
X80301000Y-165270500D01*
G75*
G02*
X80551000Y-165020500I250000J0D01*
G01*
X81501000Y-165020500D01*
G75*
G02*
X81751000Y-165270500I0J-250000D01*
G01*
X81751000Y-165945500D01*
G75*
G02*
X81501000Y-166195500I-250000J0D01*
G01*
G37*
%TD*%
%TO.C,C45*%
G36*
G01*
X68039000Y-168692500D02*
X67089000Y-168692500D01*
G75*
G02*
X66839000Y-168442500I0J250000D01*
G01*
X66839000Y-167767500D01*
G75*
G02*
X67089000Y-167517500I250000J0D01*
G01*
X68039000Y-167517500D01*
G75*
G02*
X68289000Y-167767500I0J-250000D01*
G01*
X68289000Y-168442500D01*
G75*
G02*
X68039000Y-168692500I-250000J0D01*
G01*
G37*
G36*
G01*
X68039000Y-170767500D02*
X67089000Y-170767500D01*
G75*
G02*
X66839000Y-170517500I0J250000D01*
G01*
X66839000Y-169842500D01*
G75*
G02*
X67089000Y-169592500I250000J0D01*
G01*
X68039000Y-169592500D01*
G75*
G02*
X68289000Y-169842500I0J-250000D01*
G01*
X68289000Y-170517500D01*
G75*
G02*
X68039000Y-170767500I-250000J0D01*
G01*
G37*
%TD*%
%TO.C,C44*%
G36*
G01*
X142584500Y-152176500D02*
X142584500Y-151226500D01*
G75*
G02*
X142834500Y-150976500I250000J0D01*
G01*
X143509500Y-150976500D01*
G75*
G02*
X143759500Y-151226500I0J-250000D01*
G01*
X143759500Y-152176500D01*
G75*
G02*
X143509500Y-152426500I-250000J0D01*
G01*
X142834500Y-152426500D01*
G75*
G02*
X142584500Y-152176500I0J250000D01*
G01*
G37*
G36*
G01*
X140509500Y-152176500D02*
X140509500Y-151226500D01*
G75*
G02*
X140759500Y-150976500I250000J0D01*
G01*
X141434500Y-150976500D01*
G75*
G02*
X141684500Y-151226500I0J-250000D01*
G01*
X141684500Y-152176500D01*
G75*
G02*
X141434500Y-152426500I-250000J0D01*
G01*
X140759500Y-152426500D01*
G75*
G02*
X140509500Y-152176500I0J250000D01*
G01*
G37*
%TD*%
%TO.C,C43*%
G36*
G01*
X98519000Y-164120500D02*
X97569000Y-164120500D01*
G75*
G02*
X97319000Y-163870500I0J250000D01*
G01*
X97319000Y-163195500D01*
G75*
G02*
X97569000Y-162945500I250000J0D01*
G01*
X98519000Y-162945500D01*
G75*
G02*
X98769000Y-163195500I0J-250000D01*
G01*
X98769000Y-163870500D01*
G75*
G02*
X98519000Y-164120500I-250000J0D01*
G01*
G37*
G36*
G01*
X98519000Y-166195500D02*
X97569000Y-166195500D01*
G75*
G02*
X97319000Y-165945500I0J250000D01*
G01*
X97319000Y-165270500D01*
G75*
G02*
X97569000Y-165020500I250000J0D01*
G01*
X98519000Y-165020500D01*
G75*
G02*
X98769000Y-165270500I0J-250000D01*
G01*
X98769000Y-165945500D01*
G75*
G02*
X98519000Y-166195500I-250000J0D01*
G01*
G37*
%TD*%
%TO.C,C42*%
G36*
G01*
X83533000Y-164120500D02*
X82583000Y-164120500D01*
G75*
G02*
X82333000Y-163870500I0J250000D01*
G01*
X82333000Y-163195500D01*
G75*
G02*
X82583000Y-162945500I250000J0D01*
G01*
X83533000Y-162945500D01*
G75*
G02*
X83783000Y-163195500I0J-250000D01*
G01*
X83783000Y-163870500D01*
G75*
G02*
X83533000Y-164120500I-250000J0D01*
G01*
G37*
G36*
G01*
X83533000Y-166195500D02*
X82583000Y-166195500D01*
G75*
G02*
X82333000Y-165945500I0J250000D01*
G01*
X82333000Y-165270500D01*
G75*
G02*
X82583000Y-165020500I250000J0D01*
G01*
X83533000Y-165020500D01*
G75*
G02*
X83783000Y-165270500I0J-250000D01*
G01*
X83783000Y-165945500D01*
G75*
G02*
X83533000Y-166195500I-250000J0D01*
G01*
G37*
%TD*%
%TO.C,C41*%
G36*
G01*
X66007000Y-168735500D02*
X65057000Y-168735500D01*
G75*
G02*
X64807000Y-168485500I0J250000D01*
G01*
X64807000Y-167810500D01*
G75*
G02*
X65057000Y-167560500I250000J0D01*
G01*
X66007000Y-167560500D01*
G75*
G02*
X66257000Y-167810500I0J-250000D01*
G01*
X66257000Y-168485500D01*
G75*
G02*
X66007000Y-168735500I-250000J0D01*
G01*
G37*
G36*
G01*
X66007000Y-170810500D02*
X65057000Y-170810500D01*
G75*
G02*
X64807000Y-170560500I0J250000D01*
G01*
X64807000Y-169885500D01*
G75*
G02*
X65057000Y-169635500I250000J0D01*
G01*
X66007000Y-169635500D01*
G75*
G02*
X66257000Y-169885500I0J-250000D01*
G01*
X66257000Y-170560500D01*
G75*
G02*
X66007000Y-170810500I-250000J0D01*
G01*
G37*
%TD*%
%TO.C,C39*%
G36*
G01*
X87920500Y-162847000D02*
X87920500Y-163797000D01*
G75*
G02*
X87670500Y-164047000I-250000J0D01*
G01*
X86995500Y-164047000D01*
G75*
G02*
X86745500Y-163797000I0J250000D01*
G01*
X86745500Y-162847000D01*
G75*
G02*
X86995500Y-162597000I250000J0D01*
G01*
X87670500Y-162597000D01*
G75*
G02*
X87920500Y-162847000I0J-250000D01*
G01*
G37*
G36*
G01*
X89995500Y-162847000D02*
X89995500Y-163797000D01*
G75*
G02*
X89745500Y-164047000I-250000J0D01*
G01*
X89070500Y-164047000D01*
G75*
G02*
X88820500Y-163797000I0J250000D01*
G01*
X88820500Y-162847000D01*
G75*
G02*
X89070500Y-162597000I250000J0D01*
G01*
X89745500Y-162597000D01*
G75*
G02*
X89995500Y-162847000I0J-250000D01*
G01*
G37*
%TD*%
%TO.C,C38*%
G36*
G01*
X73188500Y-162593000D02*
X73188500Y-163543000D01*
G75*
G02*
X72938500Y-163793000I-250000J0D01*
G01*
X72263500Y-163793000D01*
G75*
G02*
X72013500Y-163543000I0J250000D01*
G01*
X72013500Y-162593000D01*
G75*
G02*
X72263500Y-162343000I250000J0D01*
G01*
X72938500Y-162343000D01*
G75*
G02*
X73188500Y-162593000I0J-250000D01*
G01*
G37*
G36*
G01*
X75263500Y-162593000D02*
X75263500Y-163543000D01*
G75*
G02*
X75013500Y-163793000I-250000J0D01*
G01*
X74338500Y-163793000D01*
G75*
G02*
X74088500Y-163543000I0J250000D01*
G01*
X74088500Y-162593000D01*
G75*
G02*
X74338500Y-162343000I250000J0D01*
G01*
X75013500Y-162343000D01*
G75*
G02*
X75263500Y-162593000I0J-250000D01*
G01*
G37*
%TD*%
%TO.C,C37*%
G36*
G01*
X58224000Y-166657000D02*
X58224000Y-167607000D01*
G75*
G02*
X57974000Y-167857000I-250000J0D01*
G01*
X57299000Y-167857000D01*
G75*
G02*
X57049000Y-167607000I0J250000D01*
G01*
X57049000Y-166657000D01*
G75*
G02*
X57299000Y-166407000I250000J0D01*
G01*
X57974000Y-166407000D01*
G75*
G02*
X58224000Y-166657000I0J-250000D01*
G01*
G37*
G36*
G01*
X60299000Y-166657000D02*
X60299000Y-167607000D01*
G75*
G02*
X60049000Y-167857000I-250000J0D01*
G01*
X59374000Y-167857000D01*
G75*
G02*
X59124000Y-167607000I0J250000D01*
G01*
X59124000Y-166657000D01*
G75*
G02*
X59374000Y-166407000I250000J0D01*
G01*
X60049000Y-166407000D01*
G75*
G02*
X60299000Y-166657000I0J-250000D01*
G01*
G37*
%TD*%
%TO.C,C36*%
G36*
G01*
X142584500Y-154208500D02*
X142584500Y-153258500D01*
G75*
G02*
X142834500Y-153008500I250000J0D01*
G01*
X143509500Y-153008500D01*
G75*
G02*
X143759500Y-153258500I0J-250000D01*
G01*
X143759500Y-154208500D01*
G75*
G02*
X143509500Y-154458500I-250000J0D01*
G01*
X142834500Y-154458500D01*
G75*
G02*
X142584500Y-154208500I0J250000D01*
G01*
G37*
G36*
G01*
X140509500Y-154208500D02*
X140509500Y-153258500D01*
G75*
G02*
X140759500Y-153008500I250000J0D01*
G01*
X141434500Y-153008500D01*
G75*
G02*
X141684500Y-153258500I0J-250000D01*
G01*
X141684500Y-154208500D01*
G75*
G02*
X141434500Y-154458500I-250000J0D01*
G01*
X140759500Y-154458500D01*
G75*
G02*
X140509500Y-154208500I0J250000D01*
G01*
G37*
%TD*%
%TO.C,C35*%
G36*
G01*
X49309000Y-169889500D02*
X50259000Y-169889500D01*
G75*
G02*
X50509000Y-170139500I0J-250000D01*
G01*
X50509000Y-170814500D01*
G75*
G02*
X50259000Y-171064500I-250000J0D01*
G01*
X49309000Y-171064500D01*
G75*
G02*
X49059000Y-170814500I0J250000D01*
G01*
X49059000Y-170139500D01*
G75*
G02*
X49309000Y-169889500I250000J0D01*
G01*
G37*
G36*
G01*
X49309000Y-167814500D02*
X50259000Y-167814500D01*
G75*
G02*
X50509000Y-168064500I0J-250000D01*
G01*
X50509000Y-168739500D01*
G75*
G02*
X50259000Y-168989500I-250000J0D01*
G01*
X49309000Y-168989500D01*
G75*
G02*
X49059000Y-168739500I0J250000D01*
G01*
X49059000Y-168064500D01*
G75*
G02*
X49309000Y-167814500I250000J0D01*
G01*
G37*
%TD*%
%TO.C,C34*%
G36*
G01*
X59530000Y-158913500D02*
X58580000Y-158913500D01*
G75*
G02*
X58330000Y-158663500I0J250000D01*
G01*
X58330000Y-157988500D01*
G75*
G02*
X58580000Y-157738500I250000J0D01*
G01*
X59530000Y-157738500D01*
G75*
G02*
X59780000Y-157988500I0J-250000D01*
G01*
X59780000Y-158663500D01*
G75*
G02*
X59530000Y-158913500I-250000J0D01*
G01*
G37*
G36*
G01*
X59530000Y-160988500D02*
X58580000Y-160988500D01*
G75*
G02*
X58330000Y-160738500I0J250000D01*
G01*
X58330000Y-160063500D01*
G75*
G02*
X58580000Y-159813500I250000J0D01*
G01*
X59530000Y-159813500D01*
G75*
G02*
X59780000Y-160063500I0J-250000D01*
G01*
X59780000Y-160738500D01*
G75*
G02*
X59530000Y-160988500I-250000J0D01*
G01*
G37*
%TD*%
%TO.C,C33*%
G36*
G01*
X40673000Y-135599500D02*
X41623000Y-135599500D01*
G75*
G02*
X41873000Y-135849500I0J-250000D01*
G01*
X41873000Y-136524500D01*
G75*
G02*
X41623000Y-136774500I-250000J0D01*
G01*
X40673000Y-136774500D01*
G75*
G02*
X40423000Y-136524500I0J250000D01*
G01*
X40423000Y-135849500D01*
G75*
G02*
X40673000Y-135599500I250000J0D01*
G01*
G37*
G36*
G01*
X40673000Y-133524500D02*
X41623000Y-133524500D01*
G75*
G02*
X41873000Y-133774500I0J-250000D01*
G01*
X41873000Y-134449500D01*
G75*
G02*
X41623000Y-134699500I-250000J0D01*
G01*
X40673000Y-134699500D01*
G75*
G02*
X40423000Y-134449500I0J250000D01*
G01*
X40423000Y-133774500D01*
G75*
G02*
X40673000Y-133524500I250000J0D01*
G01*
G37*
%TD*%
%TO.C,C32*%
G36*
G01*
X40673000Y-139388000D02*
X41623000Y-139388000D01*
G75*
G02*
X41873000Y-139638000I0J-250000D01*
G01*
X41873000Y-140313000D01*
G75*
G02*
X41623000Y-140563000I-250000J0D01*
G01*
X40673000Y-140563000D01*
G75*
G02*
X40423000Y-140313000I0J250000D01*
G01*
X40423000Y-139638000D01*
G75*
G02*
X40673000Y-139388000I250000J0D01*
G01*
G37*
G36*
G01*
X40673000Y-137313000D02*
X41623000Y-137313000D01*
G75*
G02*
X41873000Y-137563000I0J-250000D01*
G01*
X41873000Y-138238000D01*
G75*
G02*
X41623000Y-138488000I-250000J0D01*
G01*
X40673000Y-138488000D01*
G75*
G02*
X40423000Y-138238000I0J250000D01*
G01*
X40423000Y-137563000D01*
G75*
G02*
X40673000Y-137313000I250000J0D01*
G01*
G37*
%TD*%
%TO.C,C31*%
G36*
G01*
X142563000Y-156240500D02*
X142563000Y-155290500D01*
G75*
G02*
X142813000Y-155040500I250000J0D01*
G01*
X143488000Y-155040500D01*
G75*
G02*
X143738000Y-155290500I0J-250000D01*
G01*
X143738000Y-156240500D01*
G75*
G02*
X143488000Y-156490500I-250000J0D01*
G01*
X142813000Y-156490500D01*
G75*
G02*
X142563000Y-156240500I0J250000D01*
G01*
G37*
G36*
G01*
X140488000Y-156240500D02*
X140488000Y-155290500D01*
G75*
G02*
X140738000Y-155040500I250000J0D01*
G01*
X141413000Y-155040500D01*
G75*
G02*
X141663000Y-155290500I0J-250000D01*
G01*
X141663000Y-156240500D01*
G75*
G02*
X141413000Y-156490500I-250000J0D01*
G01*
X140738000Y-156490500D01*
G75*
G02*
X140488000Y-156240500I0J250000D01*
G01*
G37*
%TD*%
%TO.C,C30*%
G36*
G01*
X47277000Y-169889500D02*
X48227000Y-169889500D01*
G75*
G02*
X48477000Y-170139500I0J-250000D01*
G01*
X48477000Y-170814500D01*
G75*
G02*
X48227000Y-171064500I-250000J0D01*
G01*
X47277000Y-171064500D01*
G75*
G02*
X47027000Y-170814500I0J250000D01*
G01*
X47027000Y-170139500D01*
G75*
G02*
X47277000Y-169889500I250000J0D01*
G01*
G37*
G36*
G01*
X47277000Y-167814500D02*
X48227000Y-167814500D01*
G75*
G02*
X48477000Y-168064500I0J-250000D01*
G01*
X48477000Y-168739500D01*
G75*
G02*
X48227000Y-168989500I-250000J0D01*
G01*
X47277000Y-168989500D01*
G75*
G02*
X47027000Y-168739500I0J250000D01*
G01*
X47027000Y-168064500D01*
G75*
G02*
X47277000Y-167814500I250000J0D01*
G01*
G37*
%TD*%
D13*
%TO.C,C29*%
X60325000Y-156671000D03*
D14*
X60325000Y-161671000D03*
%TD*%
%TO.C,C28*%
G36*
G01*
X91915000Y-169476000D02*
X90965000Y-169476000D01*
G75*
G02*
X90715000Y-169226000I0J250000D01*
G01*
X90715000Y-168551000D01*
G75*
G02*
X90965000Y-168301000I250000J0D01*
G01*
X91915000Y-168301000D01*
G75*
G02*
X92165000Y-168551000I0J-250000D01*
G01*
X92165000Y-169226000D01*
G75*
G02*
X91915000Y-169476000I-250000J0D01*
G01*
G37*
G36*
G01*
X91915000Y-171551000D02*
X90965000Y-171551000D01*
G75*
G02*
X90715000Y-171301000I0J250000D01*
G01*
X90715000Y-170626000D01*
G75*
G02*
X90965000Y-170376000I250000J0D01*
G01*
X91915000Y-170376000D01*
G75*
G02*
X92165000Y-170626000I0J-250000D01*
G01*
X92165000Y-171301000D01*
G75*
G02*
X91915000Y-171551000I-250000J0D01*
G01*
G37*
%TD*%
%TO.C,C27*%
G36*
G01*
X76929000Y-169454500D02*
X75979000Y-169454500D01*
G75*
G02*
X75729000Y-169204500I0J250000D01*
G01*
X75729000Y-168529500D01*
G75*
G02*
X75979000Y-168279500I250000J0D01*
G01*
X76929000Y-168279500D01*
G75*
G02*
X77179000Y-168529500I0J-250000D01*
G01*
X77179000Y-169204500D01*
G75*
G02*
X76929000Y-169454500I-250000J0D01*
G01*
G37*
G36*
G01*
X76929000Y-171529500D02*
X75979000Y-171529500D01*
G75*
G02*
X75729000Y-171279500I0J250000D01*
G01*
X75729000Y-170604500D01*
G75*
G02*
X75979000Y-170354500I250000J0D01*
G01*
X76929000Y-170354500D01*
G75*
G02*
X77179000Y-170604500I0J-250000D01*
G01*
X77179000Y-171279500D01*
G75*
G02*
X76929000Y-171529500I-250000J0D01*
G01*
G37*
%TD*%
%TO.C,C26*%
G36*
G01*
X61943000Y-174534500D02*
X60993000Y-174534500D01*
G75*
G02*
X60743000Y-174284500I0J250000D01*
G01*
X60743000Y-173609500D01*
G75*
G02*
X60993000Y-173359500I250000J0D01*
G01*
X61943000Y-173359500D01*
G75*
G02*
X62193000Y-173609500I0J-250000D01*
G01*
X62193000Y-174284500D01*
G75*
G02*
X61943000Y-174534500I-250000J0D01*
G01*
G37*
G36*
G01*
X61943000Y-176609500D02*
X60993000Y-176609500D01*
G75*
G02*
X60743000Y-176359500I0J250000D01*
G01*
X60743000Y-175684500D01*
G75*
G02*
X60993000Y-175434500I250000J0D01*
G01*
X61943000Y-175434500D01*
G75*
G02*
X62193000Y-175684500I0J-250000D01*
G01*
X62193000Y-176359500D01*
G75*
G02*
X61943000Y-176609500I-250000J0D01*
G01*
G37*
%TD*%
%TO.C,C25*%
G36*
G01*
X47465000Y-165136500D02*
X46515000Y-165136500D01*
G75*
G02*
X46265000Y-164886500I0J250000D01*
G01*
X46265000Y-164211500D01*
G75*
G02*
X46515000Y-163961500I250000J0D01*
G01*
X47465000Y-163961500D01*
G75*
G02*
X47715000Y-164211500I0J-250000D01*
G01*
X47715000Y-164886500D01*
G75*
G02*
X47465000Y-165136500I-250000J0D01*
G01*
G37*
G36*
G01*
X47465000Y-167211500D02*
X46515000Y-167211500D01*
G75*
G02*
X46265000Y-166961500I0J250000D01*
G01*
X46265000Y-166286500D01*
G75*
G02*
X46515000Y-166036500I250000J0D01*
G01*
X47465000Y-166036500D01*
G75*
G02*
X47715000Y-166286500I0J-250000D01*
G01*
X47715000Y-166961500D01*
G75*
G02*
X47465000Y-167211500I-250000J0D01*
G01*
G37*
%TD*%
%TO.C,C24*%
G36*
G01*
X140749000Y-159115000D02*
X141699000Y-159115000D01*
G75*
G02*
X141949000Y-159365000I0J-250000D01*
G01*
X141949000Y-160040000D01*
G75*
G02*
X141699000Y-160290000I-250000J0D01*
G01*
X140749000Y-160290000D01*
G75*
G02*
X140499000Y-160040000I0J250000D01*
G01*
X140499000Y-159365000D01*
G75*
G02*
X140749000Y-159115000I250000J0D01*
G01*
G37*
G36*
G01*
X140749000Y-157040000D02*
X141699000Y-157040000D01*
G75*
G02*
X141949000Y-157290000I0J-250000D01*
G01*
X141949000Y-157965000D01*
G75*
G02*
X141699000Y-158215000I-250000J0D01*
G01*
X140749000Y-158215000D01*
G75*
G02*
X140499000Y-157965000I0J250000D01*
G01*
X140499000Y-157290000D01*
G75*
G02*
X140749000Y-157040000I250000J0D01*
G01*
G37*
%TD*%
%TO.C,C22*%
G36*
G01*
X141166000Y-171226500D02*
X141166000Y-170276500D01*
G75*
G02*
X141416000Y-170026500I250000J0D01*
G01*
X142091000Y-170026500D01*
G75*
G02*
X142341000Y-170276500I0J-250000D01*
G01*
X142341000Y-171226500D01*
G75*
G02*
X142091000Y-171476500I-250000J0D01*
G01*
X141416000Y-171476500D01*
G75*
G02*
X141166000Y-171226500I0J250000D01*
G01*
G37*
G36*
G01*
X139091000Y-171226500D02*
X139091000Y-170276500D01*
G75*
G02*
X139341000Y-170026500I250000J0D01*
G01*
X140016000Y-170026500D01*
G75*
G02*
X140266000Y-170276500I0J-250000D01*
G01*
X140266000Y-171226500D01*
G75*
G02*
X140016000Y-171476500I-250000J0D01*
G01*
X139341000Y-171476500D01*
G75*
G02*
X139091000Y-171226500I0J250000D01*
G01*
G37*
%TD*%
%TO.C,C21*%
G36*
G01*
X138524000Y-162025000D02*
X137574000Y-162025000D01*
G75*
G02*
X137324000Y-161775000I0J250000D01*
G01*
X137324000Y-161100000D01*
G75*
G02*
X137574000Y-160850000I250000J0D01*
G01*
X138524000Y-160850000D01*
G75*
G02*
X138774000Y-161100000I0J-250000D01*
G01*
X138774000Y-161775000D01*
G75*
G02*
X138524000Y-162025000I-250000J0D01*
G01*
G37*
G36*
G01*
X138524000Y-164100000D02*
X137574000Y-164100000D01*
G75*
G02*
X137324000Y-163850000I0J250000D01*
G01*
X137324000Y-163175000D01*
G75*
G02*
X137574000Y-162925000I250000J0D01*
G01*
X138524000Y-162925000D01*
G75*
G02*
X138774000Y-163175000I0J-250000D01*
G01*
X138774000Y-163850000D01*
G75*
G02*
X138524000Y-164100000I-250000J0D01*
G01*
G37*
%TD*%
%TO.C,C20*%
G36*
G01*
X44667500Y-139413000D02*
X44667500Y-138463000D01*
G75*
G02*
X44917500Y-138213000I250000J0D01*
G01*
X45592500Y-138213000D01*
G75*
G02*
X45842500Y-138463000I0J-250000D01*
G01*
X45842500Y-139413000D01*
G75*
G02*
X45592500Y-139663000I-250000J0D01*
G01*
X44917500Y-139663000D01*
G75*
G02*
X44667500Y-139413000I0J250000D01*
G01*
G37*
G36*
G01*
X42592500Y-139413000D02*
X42592500Y-138463000D01*
G75*
G02*
X42842500Y-138213000I250000J0D01*
G01*
X43517500Y-138213000D01*
G75*
G02*
X43767500Y-138463000I0J-250000D01*
G01*
X43767500Y-139413000D01*
G75*
G02*
X43517500Y-139663000I-250000J0D01*
G01*
X42842500Y-139663000D01*
G75*
G02*
X42592500Y-139413000I0J250000D01*
G01*
G37*
%TD*%
%TO.C,C19*%
G36*
G01*
X38895000Y-132022000D02*
X39845000Y-132022000D01*
G75*
G02*
X40095000Y-132272000I0J-250000D01*
G01*
X40095000Y-132947000D01*
G75*
G02*
X39845000Y-133197000I-250000J0D01*
G01*
X38895000Y-133197000D01*
G75*
G02*
X38645000Y-132947000I0J250000D01*
G01*
X38645000Y-132272000D01*
G75*
G02*
X38895000Y-132022000I250000J0D01*
G01*
G37*
G36*
G01*
X38895000Y-129947000D02*
X39845000Y-129947000D01*
G75*
G02*
X40095000Y-130197000I0J-250000D01*
G01*
X40095000Y-130872000D01*
G75*
G02*
X39845000Y-131122000I-250000J0D01*
G01*
X38895000Y-131122000D01*
G75*
G02*
X38645000Y-130872000I0J250000D01*
G01*
X38645000Y-130197000D01*
G75*
G02*
X38895000Y-129947000I250000J0D01*
G01*
G37*
%TD*%
%TO.C,C17*%
G36*
G01*
X40560500Y-164305000D02*
X40560500Y-163355000D01*
G75*
G02*
X40810500Y-163105000I250000J0D01*
G01*
X41485500Y-163105000D01*
G75*
G02*
X41735500Y-163355000I0J-250000D01*
G01*
X41735500Y-164305000D01*
G75*
G02*
X41485500Y-164555000I-250000J0D01*
G01*
X40810500Y-164555000D01*
G75*
G02*
X40560500Y-164305000I0J250000D01*
G01*
G37*
G36*
G01*
X38485500Y-164305000D02*
X38485500Y-163355000D01*
G75*
G02*
X38735500Y-163105000I250000J0D01*
G01*
X39410500Y-163105000D01*
G75*
G02*
X39660500Y-163355000I0J-250000D01*
G01*
X39660500Y-164305000D01*
G75*
G02*
X39410500Y-164555000I-250000J0D01*
G01*
X38735500Y-164555000D01*
G75*
G02*
X38485500Y-164305000I0J250000D01*
G01*
G37*
%TD*%
%TO.C,C16*%
G36*
G01*
X86327000Y-169708500D02*
X85377000Y-169708500D01*
G75*
G02*
X85127000Y-169458500I0J250000D01*
G01*
X85127000Y-168783500D01*
G75*
G02*
X85377000Y-168533500I250000J0D01*
G01*
X86327000Y-168533500D01*
G75*
G02*
X86577000Y-168783500I0J-250000D01*
G01*
X86577000Y-169458500D01*
G75*
G02*
X86327000Y-169708500I-250000J0D01*
G01*
G37*
G36*
G01*
X86327000Y-171783500D02*
X85377000Y-171783500D01*
G75*
G02*
X85127000Y-171533500I0J250000D01*
G01*
X85127000Y-170858500D01*
G75*
G02*
X85377000Y-170608500I250000J0D01*
G01*
X86327000Y-170608500D01*
G75*
G02*
X86577000Y-170858500I0J-250000D01*
G01*
X86577000Y-171533500D01*
G75*
G02*
X86327000Y-171783500I-250000J0D01*
G01*
G37*
%TD*%
%TO.C,C15*%
G36*
G01*
X71341000Y-169454500D02*
X70391000Y-169454500D01*
G75*
G02*
X70141000Y-169204500I0J250000D01*
G01*
X70141000Y-168529500D01*
G75*
G02*
X70391000Y-168279500I250000J0D01*
G01*
X71341000Y-168279500D01*
G75*
G02*
X71591000Y-168529500I0J-250000D01*
G01*
X71591000Y-169204500D01*
G75*
G02*
X71341000Y-169454500I-250000J0D01*
G01*
G37*
G36*
G01*
X71341000Y-171529500D02*
X70391000Y-171529500D01*
G75*
G02*
X70141000Y-171279500I0J250000D01*
G01*
X70141000Y-170604500D01*
G75*
G02*
X70391000Y-170354500I250000J0D01*
G01*
X71341000Y-170354500D01*
G75*
G02*
X71591000Y-170604500I0J-250000D01*
G01*
X71591000Y-171279500D01*
G75*
G02*
X71341000Y-171529500I-250000J0D01*
G01*
G37*
%TD*%
%TO.C,C14*%
G36*
G01*
X56609000Y-174534500D02*
X55659000Y-174534500D01*
G75*
G02*
X55409000Y-174284500I0J250000D01*
G01*
X55409000Y-173609500D01*
G75*
G02*
X55659000Y-173359500I250000J0D01*
G01*
X56609000Y-173359500D01*
G75*
G02*
X56859000Y-173609500I0J-250000D01*
G01*
X56859000Y-174284500D01*
G75*
G02*
X56609000Y-174534500I-250000J0D01*
G01*
G37*
G36*
G01*
X56609000Y-176609500D02*
X55659000Y-176609500D01*
G75*
G02*
X55409000Y-176359500I0J250000D01*
G01*
X55409000Y-175684500D01*
G75*
G02*
X55659000Y-175434500I250000J0D01*
G01*
X56609000Y-175434500D01*
G75*
G02*
X56859000Y-175684500I0J-250000D01*
G01*
X56859000Y-176359500D01*
G75*
G02*
X56609000Y-176609500I-250000J0D01*
G01*
G37*
%TD*%
%TO.C,C13*%
G36*
G01*
X48477500Y-137635000D02*
X48477500Y-136685000D01*
G75*
G02*
X48727500Y-136435000I250000J0D01*
G01*
X49402500Y-136435000D01*
G75*
G02*
X49652500Y-136685000I0J-250000D01*
G01*
X49652500Y-137635000D01*
G75*
G02*
X49402500Y-137885000I-250000J0D01*
G01*
X48727500Y-137885000D01*
G75*
G02*
X48477500Y-137635000I0J250000D01*
G01*
G37*
G36*
G01*
X46402500Y-137635000D02*
X46402500Y-136685000D01*
G75*
G02*
X46652500Y-136435000I250000J0D01*
G01*
X47327500Y-136435000D01*
G75*
G02*
X47577500Y-136685000I0J-250000D01*
G01*
X47577500Y-137635000D01*
G75*
G02*
X47327500Y-137885000I-250000J0D01*
G01*
X46652500Y-137885000D01*
G75*
G02*
X46402500Y-137635000I0J250000D01*
G01*
G37*
%TD*%
D45*
%TO.C,C12*%
X40894000Y-172974000D03*
D46*
X38894000Y-172974000D03*
%TD*%
D45*
%TO.C,C11*%
X84582000Y-169196000D03*
D46*
X84582000Y-171196000D03*
%TD*%
D45*
%TO.C,C10*%
X69596000Y-168942000D03*
D46*
X69596000Y-170942000D03*
%TD*%
D45*
%TO.C,C9*%
X54610000Y-174022000D03*
D46*
X54610000Y-176022000D03*
%TD*%
%TO.C,C6*%
G36*
G01*
X91857500Y-151290000D02*
X91857500Y-152240000D01*
G75*
G02*
X91607500Y-152490000I-250000J0D01*
G01*
X90932500Y-152490000D01*
G75*
G02*
X90682500Y-152240000I0J250000D01*
G01*
X90682500Y-151290000D01*
G75*
G02*
X90932500Y-151040000I250000J0D01*
G01*
X91607500Y-151040000D01*
G75*
G02*
X91857500Y-151290000I0J-250000D01*
G01*
G37*
G36*
G01*
X93932500Y-151290000D02*
X93932500Y-152240000D01*
G75*
G02*
X93682500Y-152490000I-250000J0D01*
G01*
X93007500Y-152490000D01*
G75*
G02*
X92757500Y-152240000I0J250000D01*
G01*
X92757500Y-151290000D01*
G75*
G02*
X93007500Y-151040000I250000J0D01*
G01*
X93682500Y-151040000D01*
G75*
G02*
X93932500Y-151290000I0J-250000D01*
G01*
G37*
%TD*%
%TO.C,C5*%
G36*
G01*
X151199000Y-164876500D02*
X151199000Y-163926500D01*
G75*
G02*
X151449000Y-163676500I250000J0D01*
G01*
X152124000Y-163676500D01*
G75*
G02*
X152374000Y-163926500I0J-250000D01*
G01*
X152374000Y-164876500D01*
G75*
G02*
X152124000Y-165126500I-250000J0D01*
G01*
X151449000Y-165126500D01*
G75*
G02*
X151199000Y-164876500I0J250000D01*
G01*
G37*
G36*
G01*
X149124000Y-164876500D02*
X149124000Y-163926500D01*
G75*
G02*
X149374000Y-163676500I250000J0D01*
G01*
X150049000Y-163676500D01*
G75*
G02*
X150299000Y-163926500I0J-250000D01*
G01*
X150299000Y-164876500D01*
G75*
G02*
X150049000Y-165126500I-250000J0D01*
G01*
X149374000Y-165126500D01*
G75*
G02*
X149124000Y-164876500I0J250000D01*
G01*
G37*
%TD*%
%TO.C,C4*%
G36*
G01*
X151220500Y-171099500D02*
X151220500Y-170149500D01*
G75*
G02*
X151470500Y-169899500I250000J0D01*
G01*
X152145500Y-169899500D01*
G75*
G02*
X152395500Y-170149500I0J-250000D01*
G01*
X152395500Y-171099500D01*
G75*
G02*
X152145500Y-171349500I-250000J0D01*
G01*
X151470500Y-171349500D01*
G75*
G02*
X151220500Y-171099500I0J250000D01*
G01*
G37*
G36*
G01*
X149145500Y-171099500D02*
X149145500Y-170149500D01*
G75*
G02*
X149395500Y-169899500I250000J0D01*
G01*
X150070500Y-169899500D01*
G75*
G02*
X150320500Y-170149500I0J-250000D01*
G01*
X150320500Y-171099500D01*
G75*
G02*
X150070500Y-171349500I-250000J0D01*
G01*
X149395500Y-171349500D01*
G75*
G02*
X149145500Y-171099500I0J250000D01*
G01*
G37*
%TD*%
D17*
%TO.C,C1*%
X74422000Y-154726000D03*
D18*
X74422000Y-157226000D03*
%TD*%
M02*
