M48
; DRILL file {KiCad 5.1.10-1.fc34} date Sat Jun 19 08:31:23 2021
; FORMAT={-:-/ absolute / inch / decimal}
; #@! TF.CreationDate,2021-06-19T08:31:23+03:00
; #@! TF.GenerationSoftware,Kicad,Pcbnew,5.1.10-1.fc34
; #@! TF.FileFunction,Plated,1,2,PTH
FMAT,2
INCH
T1C0.0157
T2C0.0197
T3C0.0236
T4C0.0276
T5C0.0315
T6C0.0394
T7C0.0433
T8C0.0472
T9C0.0591
%
G90
G05
T1
X1.46Y-7.23
X1.49Y-4.97
X1.56Y-6.12
X1.6194Y-5.2194
X1.62Y-5.36
X1.645Y-5.285
X1.72Y-5.08
X1.82Y-5.22
X1.82Y-5.3
X1.8925Y-7.11
X1.935Y-7.165
X2.06Y-5.44
X2.06Y-5.57
X2.08Y-6.46
X2.08Y-6.69
X2.155Y-7.165
X2.22Y-5.14
X2.25Y-7.165
X2.27Y-6.94
X2.3174Y-6.8726
X2.345Y-7.165
X2.425Y-7.01
X2.4825Y-6.3375
X2.505Y-7.01
X2.54Y-5.14
X2.57Y-6.4475
X2.5874Y-7.0826
X2.66Y-7.01
X2.74Y-6.87
X2.8Y-7.025
X2.86Y-6.75
X2.86Y-6.835
X2.86Y-6.92
X2.9Y-5.145
X2.91Y-7.22
X2.94Y-6.835
X3.0101Y-7.02
X3.06Y-5.57
X3.0862Y-6.835
X3.1383Y-5.66
X3.1637Y-6.6937
X3.2425Y-5.2875
X3.27Y-6.52
X3.29Y-5.565
X3.3125Y-5.61
X3.3275Y-6.33
X3.3275Y-6.4225
X3.35Y-5.14
X3.3725Y-6.33
X3.3937Y-5.4612
X3.4025Y-5.81
X3.4225Y-5.6775
X3.43Y-5.4925
X3.46Y-6.21
X3.485Y-5.95
X3.56Y-5.575
X3.65Y-7.22
X3.67Y-6.13
X3.74Y-5.83
X3.755Y-5.925
X3.76Y-6.0925
X3.8125Y-6.1325
X3.86Y-6.4383
X3.86Y-6.52
X3.91Y-5.41
X3.91Y-5.51
X3.95Y-5.41
X3.95Y-5.48
X4.02Y-6.95
X4.0525Y-6.3525
X4.06Y-5.68
X4.075Y-6.4175
X4.11Y-5.66
X4.15Y-5.96
X4.1939Y-6.3911
X4.225Y-6.03
X4.245Y-5.9475
X4.2708Y-6.2908
X4.2742Y-6.2092
X4.275Y-6.895
X4.285Y-5.945
X4.3508Y-6.2908
X4.355Y-5.205
X4.39Y-6.01
X4.42Y-7.22
X4.4308Y-6.2908
X4.4342Y-6.2092
X4.4525Y-6.5375
X4.57Y-6.52
X4.61Y-6.64
X4.62Y-6.2075
X4.625Y-5.37
X4.635Y-6.2775
X4.6372Y-6.5047
X4.66Y-6.235
X4.6925Y-6.2875
X4.715Y-6.405
X4.73Y-5.3
X4.73Y-5.37
X4.78Y-5.3
X4.78Y-5.37
X4.81Y-6.86
X4.84Y-5.9325
X4.84Y-6.0725
X4.84Y-6.1575
X4.91Y-5.61
X4.91Y-6.94
X4.9125Y-5.93
X4.915Y-6.0725
X4.915Y-6.1575
X4.95Y-6.9
X4.95Y-7.13
X4.99Y-5.29
X4.99Y-6.0725
X4.99Y-6.1525
X4.99Y-6.55
X5.01Y-5.59
X5.02Y-5.49
X5.05Y-6.37
X5.08Y-6.95
X5.105Y-5.25
X5.14Y-5.94
X5.19Y-6.19
X5.195Y-5.4175
X5.21Y-6.65
X5.31Y-5.9175
X5.3124Y-6.0775
X5.335Y-5.3275
X5.3363Y-5.6162
X5.39Y-6.56
X5.4033Y-5.3275
X5.435Y-6.4375
X5.465Y-5.095
X5.47Y-7.24
X5.485Y-5.3275
X5.54Y-6.5025
X5.54Y-6.5825
X5.555Y-5.9725
X5.555Y-6.0525
X5.5755Y-6.972
X5.6175Y-6.9425
X5.62Y-6.5025
X5.62Y-6.5825
X5.825Y-5.1875
X5.825Y-5.6675
X5.865Y-6.3425
X5.875Y-6.5875
X5.89Y-6.2925
X5.895Y-6.5425
X5.895Y-6.7175
X5.975Y-6.2925
X5.975Y-6.5425
X5.996Y-6.353
X6.005Y-6.5875
X6.005Y-6.6675
X6.025Y-6.4375
X6.08Y-6.7625
X6.125Y-6.7675
X6.13Y-5.69
X6.1346Y-5.6246
X6.14Y-6.38
X6.175Y-6.0175
X6.255Y-5.0275
X6.325Y-6.9225
X6.33Y-4.94
X6.33Y-5.08
X6.395Y-6.0175
X6.45Y-7.24
X6.485Y-5.0275
X6.495Y-6.6612
X6.56Y-4.96
X6.56Y-5.08
X6.625Y-6.0175
X6.625Y-6.2075
X6.63Y-6.8175
X6.645Y-6.6575
X6.6725Y-7.08
X6.6833Y-5.6246
X6.7Y-6.4925
X6.715Y-5.0275
X6.775Y-6.1858
X6.79Y-4.98
X6.79Y-5.08
X6.855Y-6.0175
X6.945Y-5.0275
X7.0Y-5.87
X7.085Y-6.0175
X7.175Y-5.0275
X7.215Y-6.2075
X7.27Y-6.48
X7.27Y-6.52
X7.27Y-6.56
X7.27Y-6.6
X7.29Y-6.7125
X7.31Y-6.48
X7.31Y-6.52
X7.31Y-6.56
X7.31Y-6.6
X7.315Y-6.0175
X7.35Y-6.47
X7.35Y-6.51
X7.35Y-6.55
X7.35Y-6.59
X7.35Y-6.63
X7.35Y-6.67
X7.35Y-6.71
X7.35Y-6.75
X7.39Y-6.48
X7.39Y-6.52
X7.39Y-6.56
X7.3925Y-6.5975
X7.405Y-5.0275
X7.43Y-6.48
X7.43Y-6.52
X7.43Y-6.56
X7.4325Y-6.5975
X7.54Y-6.37
X7.5475Y-5.6975
X7.62Y-4.97
X7.63Y-7.2
T2
X4.2664Y-6.5976
X4.2664Y-6.6724
T3
X1.5313Y-6.81
X1.61Y-6.81
X2.15Y-6.8513
X2.15Y-6.93
X2.74Y-6.6513
X2.74Y-6.73
X3.33Y-6.6613
X3.33Y-6.74
X6.025Y-6.0675
X6.025Y-6.1462
T4
X6.235Y-5.4975
X6.235Y-5.6975
X6.235Y-5.8975
X6.235Y-6.0975
X6.465Y-5.4975
X6.465Y-5.6975
X6.465Y-5.8975
X6.465Y-6.0975
X6.695Y-5.4975
X6.695Y-5.6975
X6.695Y-5.8975
X6.695Y-6.0975
X6.925Y-5.4975
X6.925Y-5.6975
X6.925Y-5.8975
X6.925Y-6.0975
X7.155Y-5.4975
X7.155Y-5.6975
X7.155Y-5.8975
X7.155Y-6.0975
X7.385Y-5.4975
X7.385Y-5.6975
X7.385Y-5.8975
X7.385Y-6.0975
T5
X2.5Y-6.5716
X2.5Y-6.67
X2.575Y-5.4
X2.575Y-5.5
X2.7Y-5.4
X2.7Y-5.5
X2.825Y-5.4
X2.825Y-5.5
X2.93Y-6.0916
X2.93Y-6.19
X2.95Y-5.4
X2.95Y-5.5
X3.11Y-6.3916
X3.11Y-6.49
X3.71Y-6.3816
X3.71Y-6.48
X4.1629Y-6.825
X4.355Y-6.825
X5.255Y-5.3975
X5.255Y-5.4975
X5.255Y-5.5975
X5.415Y-6.7375
X5.415Y-7.0375
X5.715Y-6.7375
X5.715Y-7.0375
X6.79Y-6.4425
X6.8884Y-6.4425
X7.03Y-6.3925
X7.03Y-6.6925
X7.14Y-6.8725
X7.19Y-6.4425
X7.19Y-6.5425
X7.19Y-6.6425
X7.2384Y-6.8725
T6
X2.375Y-5.75
X2.375Y-5.9469
X2.375Y-6.1681
X2.375Y-6.365
X3.125Y-5.75
X3.125Y-5.9469
X3.14Y-6.13
X3.14Y-6.23
X3.97Y-5.73
X3.97Y-5.83
X3.97Y-5.93
X3.97Y-6.03
X3.97Y-6.17
X3.97Y-6.27
X3.97Y-6.37
X4.11Y-6.495
X4.155Y-5.745
X4.155Y-5.845
X4.1575Y-5.58
X4.175Y-5.295
X4.175Y-5.395
X4.21Y-6.495
X4.285Y-5.545
X4.285Y-5.645
X4.285Y-5.745
X4.285Y-5.845
X4.425Y-5.38
X4.425Y-5.48
X4.425Y-5.58
X4.425Y-5.68
X4.565Y-5.82
X4.565Y-5.92
X4.565Y-6.02
X4.565Y-6.785
X4.565Y-6.885
X4.81Y-6.2575
X4.81Y-6.3575
X4.81Y-6.4575
X5.765Y-6.1175
X5.865Y-6.1175
X7.38Y-6.2175
X7.38Y-6.3175
X7.54Y-6.2675
X7.54Y-6.4675
T7
X2.1Y-5.225
X2.2Y-5.225
X2.3Y-5.225
X2.65Y-6.17
X2.65Y-6.27
X2.65Y-6.37
X5.735Y-5.5675
X5.785Y-5.0675
X5.885Y-5.0675
X5.985Y-5.0675
X6.0657Y-5.5675
X7.48Y-6.7525
X7.48Y-7.0525
X7.555Y-5.5575
X7.555Y-5.9575
T8
X2.2Y-5.475
X2.4Y-5.475
T9
X1.575Y-5.875
X2.0553Y-5.875
T0
M30
