#define tx_off_width 12
#define tx_off_height 12
static unsigned char tx_off_bits[] = {
   0x00, 0x00, 0x00, 0x00, 0x00, 0x00, 0x00, 0x00, 0x00, 0x00, 0x00, 0x00,
   0x00, 0x00, 0x00, 0x00, 0x00, 0x00, 0x60, 0x00, 0xf0, 0x00, 0x60, 0x00 };
