#define tx_on_width 12
#define tx_on_height 12
static unsigned char tx_on_bits[] = {
   0x60, 0x00, 0xf8, 0x01, 0xfe, 0x07, 0x07, 0x0e, 0xfc, 0x03, 0x0c, 0x03,
   0xf0, 0x00, 0xf0, 0x00, 0x00, 0x00, 0x60, 0x00, 0xf0, 0x00, 0x60, 0x00 };
