<?xml version="1.0" standalone="no"?>
 <!DOCTYPE svg PUBLIC "-//W3C//DTD SVG 1.1//EN" 
 "http://www.w3.org/Graphics/SVG/1.1/DTD/svg11.dtd"> 
<svg xmlns="http://www.w3.org/2000/svg" version="1.1" 
    width="29.7002cm" height="21.0007cm" viewBox="0 0 116930 82680 ">
<title>SVG Picture created as VCO-testboard-F.Cu.svg date 2018/09/30 19:56:44 </title>
  <desc>Picture generated by PCBNEW </desc>
<g style="fill:#000000; fill-opacity:1;stroke:#000000; stroke-opacity:1;
stroke-linecap:round; stroke-linejoin:round; "
 transform="translate(0 0) scale(1 1)">
</g>
<g style="fill:#000000; fill-opacity:0.0; 
stroke:#000000; stroke-width:-0.000393701; stroke-opacity:1; 
stroke-linecap:round; stroke-linejoin:round;">
</g>
<g style="fill:#000000; fill-opacity:0.0; 
stroke:#000000; stroke-width:39.3701; stroke-opacity:1; 
stroke-linecap:round; stroke-linejoin:round;">
</g>
<g style="fill:#000000; fill-opacity:0.0; 
stroke:#000000; stroke-width:59.0551; stroke-opacity:1; 
stroke-linecap:round; stroke-linejoin:round;">
<rect x="69685.9" y="65357.2" width="42519.7" height="12598.4" rx="0" />
</g>
<g style="fill:#000000; fill-opacity:0.0; 
stroke:#000000; stroke-width:39.3701; stroke-opacity:1; 
stroke-linecap:round; stroke-linejoin:round;">
</g>
<g style="fill:#000000; fill-opacity:0.0; 
stroke:#000000; stroke-width:59.0551; stroke-opacity:1; 
stroke-linecap:round; stroke-linejoin:round;">
<rect x="3937.01" y="3937.01" width="109056" height="74806" rx="0" />
</g>
<g style="fill:#000000; fill-opacity:0.0; 
stroke:#000000; stroke-width:39.3701; stroke-opacity:1; 
stroke-linecap:round; stroke-linejoin:round;">
</g>
<g style="fill:#000000; fill-opacity:0.0; 
stroke:#000000; stroke-width:59.0551; stroke-opacity:1; 
stroke-linecap:round; stroke-linejoin:round;">
<rect x="4724.41" y="4724.41" width="107481" height="73231.2" rx="0" />
</g>
<g style="fill:#000000; fill-opacity:0.0; 
stroke:#000000; stroke-width:39.3701; stroke-opacity:1; 
stroke-linecap:round; stroke-linejoin:round;">
</g>
<g style="fill:#000000; fill-opacity:0.0; 
stroke:#000000; stroke-width:59.0551; stroke-opacity:1; 
stroke-linecap:round; stroke-linejoin:round;">
<path d="M23622 4724
L23622 3937
" />
</g>
<g style="fill:#000000; fill-opacity:0.0; 
stroke:#000000; stroke-width:39.3701; stroke-opacity:1; 
stroke-linecap:round; stroke-linejoin:round;">
</g>
<g style="fill:#000000; fill-opacity:0.0; 
stroke:#000000; stroke-width:59.0551; stroke-opacity:1; 
stroke-linecap:round; stroke-linejoin:round;">
<path d="M43307 4724
L43307 3937
" />
</g>
<g style="fill:#000000; fill-opacity:0.0; 
stroke:#000000; stroke-width:39.3701; stroke-opacity:1; 
stroke-linecap:round; stroke-linejoin:round;">
</g>
<g style="fill:#000000; fill-opacity:0.0; 
stroke:#000000; stroke-width:59.0551; stroke-opacity:1; 
stroke-linecap:round; stroke-linejoin:round;">
<path d="M62992 4724
L62992 3937
" />
</g>
<g style="fill:#000000; fill-opacity:0.0; 
stroke:#000000; stroke-width:39.3701; stroke-opacity:1; 
stroke-linecap:round; stroke-linejoin:round;">
</g>
<g style="fill:#000000; fill-opacity:0.0; 
stroke:#000000; stroke-width:59.0551; stroke-opacity:1; 
stroke-linecap:round; stroke-linejoin:round;">
<path d="M82677 4724
L82677 3937
" />
</g>
<g style="fill:#000000; fill-opacity:0.0; 
stroke:#000000; stroke-width:39.3701; stroke-opacity:1; 
stroke-linecap:round; stroke-linejoin:round;">
</g>
<g style="fill:#000000; fill-opacity:0.0; 
stroke:#000000; stroke-width:59.0551; stroke-opacity:1; 
stroke-linecap:round; stroke-linejoin:round;">
<path d="M102362 4724
L102362 3937
" />
</g>
<g style="fill:#000000; fill-opacity:0.0; 
stroke:#000000; stroke-width:39.3701; stroke-opacity:1; 
stroke-linecap:round; stroke-linejoin:round;">
</g>
<g style="fill:#000000; fill-opacity:0.0; 
stroke:#000000; stroke-width:59.0551; stroke-opacity:1; 
stroke-linecap:round; stroke-linejoin:round;">
<path d="M14169 4562
L13877 4562
" />
<path d="M14023 4562
L14023 4050
L13974 4123
L13925 4172
L13877 4196
" />
</g>
<g style="fill:#000000; fill-opacity:0.0; 
stroke:#000000; stroke-width:39.3701; stroke-opacity:1; 
stroke-linecap:round; stroke-linejoin:round;">
</g>
<g style="fill:#000000; fill-opacity:0.0; 
stroke:#000000; stroke-width:59.0551; stroke-opacity:1; 
stroke-linecap:round; stroke-linejoin:round;">
<path d="M33562 4099
L33586 4074
L33635 4050
L33757 4050
L33805 4074
L33830 4099
L33854 4147
L33854 4196
L33830 4269
L33537 4562
L33854 4562
" />
</g>
<g style="fill:#000000; fill-opacity:0.0; 
stroke:#000000; stroke-width:39.3701; stroke-opacity:1; 
stroke-linecap:round; stroke-linejoin:round;">
</g>
<g style="fill:#000000; fill-opacity:0.0; 
stroke:#000000; stroke-width:59.0551; stroke-opacity:1; 
stroke-linecap:round; stroke-linejoin:round;">
<path d="M53222 4050
L53539 4050
L53368 4245
L53442 4245
L53490 4269
L53515 4294
L53539 4342
L53539 4464
L53515 4513
L53490 4537
L53442 4562
L53295 4562
L53247 4537
L53222 4513
" />
</g>
<g style="fill:#000000; fill-opacity:0.0; 
stroke:#000000; stroke-width:39.3701; stroke-opacity:1; 
stroke-linecap:round; stroke-linejoin:round;">
</g>
<g style="fill:#000000; fill-opacity:0.0; 
stroke:#000000; stroke-width:59.0551; stroke-opacity:1; 
stroke-linecap:round; stroke-linejoin:round;">
<path d="M73175 4221
L73175 4562
" />
<path d="M73053 4026
L72932 4391
L73248 4391
" />
</g>
<g style="fill:#000000; fill-opacity:0.0; 
stroke:#000000; stroke-width:39.3701; stroke-opacity:1; 
stroke-linecap:round; stroke-linejoin:round;">
</g>
<g style="fill:#000000; fill-opacity:0.0; 
stroke:#000000; stroke-width:59.0551; stroke-opacity:1; 
stroke-linecap:round; stroke-linejoin:round;">
<path d="M92885 4050
L92641 4050
L92617 4294
L92641 4269
L92690 4245
L92812 4245
L92860 4269
L92885 4294
L92909 4342
L92909 4464
L92885 4513
L92860 4537
L92812 4562
L92690 4562
L92641 4537
L92617 4513
" />
</g>
<g style="fill:#000000; fill-opacity:0.0; 
stroke:#000000; stroke-width:39.3701; stroke-opacity:1; 
stroke-linecap:round; stroke-linejoin:round;">
</g>
<g style="fill:#000000; fill-opacity:0.0; 
stroke:#000000; stroke-width:59.0551; stroke-opacity:1; 
stroke-linecap:round; stroke-linejoin:round;">
<path d="M112545 4050
L112448 4050
L112399 4074
L112375 4099
L112326 4172
L112302 4269
L112302 4464
L112326 4513
L112350 4537
L112399 4562
L112497 4562
L112545 4537
L112570 4513
L112594 4464
L112594 4342
L112570 4294
L112545 4269
L112497 4245
L112399 4245
L112350 4269
L112326 4294
L112302 4342
" />
</g>
<g style="fill:#000000; fill-opacity:0.0; 
stroke:#000000; stroke-width:39.3701; stroke-opacity:1; 
stroke-linecap:round; stroke-linejoin:round;">
</g>
<g style="fill:#000000; fill-opacity:0.0; 
stroke:#000000; stroke-width:59.0551; stroke-opacity:1; 
stroke-linecap:round; stroke-linejoin:round;">
<path d="M23622 77955
L23622 78742
" />
</g>
<g style="fill:#000000; fill-opacity:0.0; 
stroke:#000000; stroke-width:39.3701; stroke-opacity:1; 
stroke-linecap:round; stroke-linejoin:round;">
</g>
<g style="fill:#000000; fill-opacity:0.0; 
stroke:#000000; stroke-width:59.0551; stroke-opacity:1; 
stroke-linecap:round; stroke-linejoin:round;">
<path d="M43307 77955
L43307 78742
" />
</g>
<g style="fill:#000000; fill-opacity:0.0; 
stroke:#000000; stroke-width:39.3701; stroke-opacity:1; 
stroke-linecap:round; stroke-linejoin:round;">
</g>
<g style="fill:#000000; fill-opacity:0.0; 
stroke:#000000; stroke-width:59.0551; stroke-opacity:1; 
stroke-linecap:round; stroke-linejoin:round;">
<path d="M62992 77955
L62992 78742
" />
</g>
<g style="fill:#000000; fill-opacity:0.0; 
stroke:#000000; stroke-width:39.3701; stroke-opacity:1; 
stroke-linecap:round; stroke-linejoin:round;">
</g>
<g style="fill:#000000; fill-opacity:0.0; 
stroke:#000000; stroke-width:59.0551; stroke-opacity:1; 
stroke-linecap:round; stroke-linejoin:round;">
<path d="M82677 77955
L82677 78742
" />
</g>
<g style="fill:#000000; fill-opacity:0.0; 
stroke:#000000; stroke-width:39.3701; stroke-opacity:1; 
stroke-linecap:round; stroke-linejoin:round;">
</g>
<g style="fill:#000000; fill-opacity:0.0; 
stroke:#000000; stroke-width:59.0551; stroke-opacity:1; 
stroke-linecap:round; stroke-linejoin:round;">
<path d="M102362 77955
L102362 78742
" />
</g>
<g style="fill:#000000; fill-opacity:0.0; 
stroke:#000000; stroke-width:39.3701; stroke-opacity:1; 
stroke-linecap:round; stroke-linejoin:round;">
</g>
<g style="fill:#000000; fill-opacity:0.0; 
stroke:#000000; stroke-width:59.0551; stroke-opacity:1; 
stroke-linecap:round; stroke-linejoin:round;">
<path d="M14169 78580
L13877 78580
" />
<path d="M14023 78580
L14023 78069
L13974 78142
L13925 78190
L13877 78215
" />
</g>
<g style="fill:#000000; fill-opacity:0.0; 
stroke:#000000; stroke-width:39.3701; stroke-opacity:1; 
stroke-linecap:round; stroke-linejoin:round;">
</g>
<g style="fill:#000000; fill-opacity:0.0; 
stroke:#000000; stroke-width:59.0551; stroke-opacity:1; 
stroke-linecap:round; stroke-linejoin:round;">
<path d="M33562 78117
L33586 78093
L33635 78069
L33757 78069
L33805 78093
L33830 78117
L33854 78166
L33854 78215
L33830 78288
L33537 78580
L33854 78580
" />
</g>
<g style="fill:#000000; fill-opacity:0.0; 
stroke:#000000; stroke-width:39.3701; stroke-opacity:1; 
stroke-linecap:round; stroke-linejoin:round;">
</g>
<g style="fill:#000000; fill-opacity:0.0; 
stroke:#000000; stroke-width:59.0551; stroke-opacity:1; 
stroke-linecap:round; stroke-linejoin:round;">
<path d="M53222 78069
L53539 78069
L53368 78263
L53442 78263
L53490 78288
L53515 78312
L53539 78361
L53539 78483
L53515 78532
L53490 78556
L53442 78580
L53295 78580
L53247 78556
L53222 78532
" />
</g>
<g style="fill:#000000; fill-opacity:0.0; 
stroke:#000000; stroke-width:39.3701; stroke-opacity:1; 
stroke-linecap:round; stroke-linejoin:round;">
</g>
<g style="fill:#000000; fill-opacity:0.0; 
stroke:#000000; stroke-width:59.0551; stroke-opacity:1; 
stroke-linecap:round; stroke-linejoin:round;">
<path d="M73175 78239
L73175 78580
" />
<path d="M73053 78044
L72932 78410
L73248 78410
" />
</g>
<g style="fill:#000000; fill-opacity:0.0; 
stroke:#000000; stroke-width:39.3701; stroke-opacity:1; 
stroke-linecap:round; stroke-linejoin:round;">
</g>
<g style="fill:#000000; fill-opacity:0.0; 
stroke:#000000; stroke-width:59.0551; stroke-opacity:1; 
stroke-linecap:round; stroke-linejoin:round;">
<path d="M92885 78069
L92641 78069
L92617 78312
L92641 78288
L92690 78263
L92812 78263
L92860 78288
L92885 78312
L92909 78361
L92909 78483
L92885 78532
L92860 78556
L92812 78580
L92690 78580
L92641 78556
L92617 78532
" />
</g>
<g style="fill:#000000; fill-opacity:0.0; 
stroke:#000000; stroke-width:39.3701; stroke-opacity:1; 
stroke-linecap:round; stroke-linejoin:round;">
</g>
<g style="fill:#000000; fill-opacity:0.0; 
stroke:#000000; stroke-width:59.0551; stroke-opacity:1; 
stroke-linecap:round; stroke-linejoin:round;">
<path d="M112545 78069
L112448 78069
L112399 78093
L112375 78117
L112326 78190
L112302 78288
L112302 78483
L112326 78532
L112350 78556
L112399 78580
L112497 78580
L112545 78556
L112570 78532
L112594 78483
L112594 78361
L112570 78312
L112545 78288
L112497 78263
L112399 78263
L112350 78288
L112326 78312
L112302 78361
" />
</g>
<g style="fill:#000000; fill-opacity:0.0; 
stroke:#000000; stroke-width:39.3701; stroke-opacity:1; 
stroke-linecap:round; stroke-linejoin:round;">
</g>
<g style="fill:#000000; fill-opacity:0.0; 
stroke:#000000; stroke-width:59.0551; stroke-opacity:1; 
stroke-linecap:round; stroke-linejoin:round;">
<path d="M3937 23622
L4724 23622
" />
</g>
<g style="fill:#000000; fill-opacity:0.0; 
stroke:#000000; stroke-width:39.3701; stroke-opacity:1; 
stroke-linecap:round; stroke-linejoin:round;">
</g>
<g style="fill:#000000; fill-opacity:0.0; 
stroke:#000000; stroke-width:59.0551; stroke-opacity:1; 
stroke-linecap:round; stroke-linejoin:round;">
<path d="M3937 43307
L4724 43307
" />
</g>
<g style="fill:#000000; fill-opacity:0.0; 
stroke:#000000; stroke-width:39.3701; stroke-opacity:1; 
stroke-linecap:round; stroke-linejoin:round;">
</g>
<g style="fill:#000000; fill-opacity:0.0; 
stroke:#000000; stroke-width:59.0551; stroke-opacity:1; 
stroke-linecap:round; stroke-linejoin:round;">
<path d="M3937 62992
L4724 62992
" />
</g>
<g style="fill:#000000; fill-opacity:0.0; 
stroke:#000000; stroke-width:39.3701; stroke-opacity:1; 
stroke-linecap:round; stroke-linejoin:round;">
</g>
<g style="fill:#000000; fill-opacity:0.0; 
stroke:#000000; stroke-width:59.0551; stroke-opacity:1; 
stroke-linecap:round; stroke-linejoin:round;">
<path d="M4208 13864
L4452 13864
" />
<path d="M4160 14011
L4330 13499
L4501 14011
" />
</g>
<g style="fill:#000000; fill-opacity:0.0; 
stroke:#000000; stroke-width:39.3701; stroke-opacity:1; 
stroke-linecap:round; stroke-linejoin:round;">
</g>
<g style="fill:#000000; fill-opacity:0.0; 
stroke:#000000; stroke-width:59.0551; stroke-opacity:1; 
stroke-linecap:round; stroke-linejoin:round;">
<path d="M4367 33428
L4440 33452
L4464 33476
L4489 33525
L4489 33598
L4464 33647
L4440 33671
L4391 33696
L4196 33696
L4196 33184
L4367 33184
L4416 33208
L4440 33233
L4464 33281
L4464 33330
L4440 33379
L4416 33403
L4367 33428
L4196 33428
" />
</g>
<g style="fill:#000000; fill-opacity:0.0; 
stroke:#000000; stroke-width:39.3701; stroke-opacity:1; 
stroke-linecap:round; stroke-linejoin:round;">
</g>
<g style="fill:#000000; fill-opacity:0.0; 
stroke:#000000; stroke-width:59.0551; stroke-opacity:1; 
stroke-linecap:round; stroke-linejoin:round;">
<path d="M4489 53332
L4464 53356
L4391 53381
L4342 53381
L4269 53356
L4221 53308
L4196 53259
L4172 53161
L4172 53088
L4196 52991
L4221 52942
L4269 52893
L4342 52869
L4391 52869
L4464 52893
L4489 52918
" />
</g>
<g style="fill:#000000; fill-opacity:0.0; 
stroke:#000000; stroke-width:39.3701; stroke-opacity:1; 
stroke-linecap:round; stroke-linejoin:round;">
</g>
<g style="fill:#000000; fill-opacity:0.0; 
stroke:#000000; stroke-width:59.0551; stroke-opacity:1; 
stroke-linecap:round; stroke-linejoin:round;">
<path d="M4196 73066
L4196 72554
L4318 72554
L4391 72578
L4440 72627
L4464 72676
L4489 72773
L4489 72846
L4464 72944
L4440 72993
L4391 73041
L4318 73066
L4196 73066
" />
</g>
<g style="fill:#000000; fill-opacity:0.0; 
stroke:#000000; stroke-width:39.3701; stroke-opacity:1; 
stroke-linecap:round; stroke-linejoin:round;">
</g>
<g style="fill:#000000; fill-opacity:0.0; 
stroke:#000000; stroke-width:59.0551; stroke-opacity:1; 
stroke-linecap:round; stroke-linejoin:round;">
<path d="M112992 23622
L112205 23622
" />
</g>
<g style="fill:#000000; fill-opacity:0.0; 
stroke:#000000; stroke-width:39.3701; stroke-opacity:1; 
stroke-linecap:round; stroke-linejoin:round;">
</g>
<g style="fill:#000000; fill-opacity:0.0; 
stroke:#000000; stroke-width:59.0551; stroke-opacity:1; 
stroke-linecap:round; stroke-linejoin:round;">
<path d="M112992 43307
L112205 43307
" />
</g>
<g style="fill:#000000; fill-opacity:0.0; 
stroke:#000000; stroke-width:39.3701; stroke-opacity:1; 
stroke-linecap:round; stroke-linejoin:round;">
</g>
<g style="fill:#000000; fill-opacity:0.0; 
stroke:#000000; stroke-width:59.0551; stroke-opacity:1; 
stroke-linecap:round; stroke-linejoin:round;">
<path d="M112992 62992
L112205 62992
" />
</g>
<g style="fill:#000000; fill-opacity:0.0; 
stroke:#000000; stroke-width:39.3701; stroke-opacity:1; 
stroke-linecap:round; stroke-linejoin:round;">
</g>
<g style="fill:#000000; fill-opacity:0.0; 
stroke:#000000; stroke-width:59.0551; stroke-opacity:1; 
stroke-linecap:round; stroke-linejoin:round;">
<path d="M112477 13864
L112721 13864
" />
<path d="M112428 14011
L112599 13499
L112769 14011
" />
</g>
<g style="fill:#000000; fill-opacity:0.0; 
stroke:#000000; stroke-width:39.3701; stroke-opacity:1; 
stroke-linecap:round; stroke-linejoin:round;">
</g>
<g style="fill:#000000; fill-opacity:0.0; 
stroke:#000000; stroke-width:59.0551; stroke-opacity:1; 
stroke-linecap:round; stroke-linejoin:round;">
<path d="M112635 33428
L112708 33452
L112733 33476
L112757 33525
L112757 33598
L112733 33647
L112708 33671
L112660 33696
L112465 33696
L112465 33184
L112635 33184
L112684 33208
L112708 33233
L112733 33281
L112733 33330
L112708 33379
L112684 33403
L112635 33428
L112465 33428
" />
</g>
<g style="fill:#000000; fill-opacity:0.0; 
stroke:#000000; stroke-width:39.3701; stroke-opacity:1; 
stroke-linecap:round; stroke-linejoin:round;">
</g>
<g style="fill:#000000; fill-opacity:0.0; 
stroke:#000000; stroke-width:59.0551; stroke-opacity:1; 
stroke-linecap:round; stroke-linejoin:round;">
<path d="M112757 53332
L112733 53356
L112660 53381
L112611 53381
L112538 53356
L112489 53308
L112465 53259
L112440 53161
L112440 53088
L112465 52991
L112489 52942
L112538 52893
L112611 52869
L112660 52869
L112733 52893
L112757 52918
" />
</g>
<g style="fill:#000000; fill-opacity:0.0; 
stroke:#000000; stroke-width:39.3701; stroke-opacity:1; 
stroke-linecap:round; stroke-linejoin:round;">
</g>
<g style="fill:#000000; fill-opacity:0.0; 
stroke:#000000; stroke-width:59.0551; stroke-opacity:1; 
stroke-linecap:round; stroke-linejoin:round;">
<path d="M112465 73066
L112465 72554
L112587 72554
L112660 72578
L112708 72627
L112733 72676
L112757 72773
L112757 72846
L112733 72944
L112708 72993
L112660 73041
L112587 73066
L112465 73066
" />
</g>
<g style="fill:#000000; fill-opacity:0.0; 
stroke:#000000; stroke-width:39.3701; stroke-opacity:1; 
stroke-linecap:round; stroke-linejoin:round;">
</g>
<g style="fill:#000000; fill-opacity:0.0; 
stroke:#000000; stroke-width:59.0551; stroke-opacity:1; 
stroke-linecap:round; stroke-linejoin:round;">
<path d="M78881 76293
L78881 75703
L79022 75703
L79106 75731
L79162 75787
L79190 75843
L79219 75956
L79219 76040
L79190 76153
L79162 76209
L79106 76265
L79022 76293
L78881 76293
" />
<path d="M79725 76293
L79725 75984
L79697 75928
L79640 75899
L79528 75899
L79472 75928
" />
<path d="M79725 76265
L79669 76293
L79528 76293
L79472 76265
L79444 76209
L79444 76153
L79472 76096
L79528 76068
L79669 76068
L79725 76040
" />
<path d="M79922 75899
L80147 75899
" />
<path d="M80006 75703
L80006 76209
L80034 76265
L80090 76293
L80147 76293
" />
<path d="M80568 76265
L80512 76293
L80400 76293
L80343 76265
L80315 76209
L80315 75984
L80343 75928
L80400 75899
L80512 75899
L80568 75928
L80597 75984
L80597 76040
L80315 76096
" />
<path d="M80850 76237
L80878 76265
L80850 76293
L80822 76265
L80850 76237
L80850 76293
" />
<path d="M80850 75928
L80878 75956
L80850 75984
L80822 75956
L80850 75928
L80850 75984
" />
</g>
<g style="fill:#000000; fill-opacity:0.0; 
stroke:#000000; stroke-width:39.3701; stroke-opacity:1; 
stroke-linecap:round; stroke-linejoin:round;">
</g>
<g style="fill:#000000; fill-opacity:0.0; 
stroke:#000000; stroke-width:59.0551; stroke-opacity:1; 
stroke-linecap:round; stroke-linejoin:round;">
<path d="M69685 76577
L112205 76577
" />
</g>
<g style="fill:#000000; fill-opacity:0.0; 
stroke:#000000; stroke-width:39.3701; stroke-opacity:1; 
stroke-linecap:round; stroke-linejoin:round;">
</g>
<g style="fill:#000000; fill-opacity:0.0; 
stroke:#000000; stroke-width:59.0551; stroke-opacity:1; 
stroke-linecap:round; stroke-linejoin:round;">
<path d="M70220 77395
L70220 76805
" />
<path d="M70557 77395
L70304 77058
" />
<path d="M70557 76805
L70220 77142
" />
<path d="M70810 77395
L70810 77002
" />
<path d="M70810 76805
L70782 76833
L70810 76861
L70838 76833
L70810 76805
L70810 76861
" />
<path d="M71429 77339
L71401 77367
L71316 77395
L71260 77395
L71176 77367
L71120 77311
L71091 77255
L71063 77142
L71063 77058
L71091 76946
L71120 76889
L71176 76833
L71260 76805
L71316 76805
L71401 76833
L71429 76861
" />
<path d="M71935 77395
L71935 77086
L71907 77030
L71851 77002
L71738 77002
L71682 77030
" />
<path d="M71935 77367
L71879 77395
L71738 77395
L71682 77367
L71654 77311
L71654 77255
L71682 77199
L71738 77171
L71879 77171
L71935 77142
" />
<path d="M72469 77395
L72469 76805
" />
<path d="M72469 77367
L72413 77395
L72301 77395
L72244 77367
L72216 77339
L72188 77283
L72188 77114
L72216 77058
L72244 77030
L72301 77002
L72413 77002
L72469 77030
" />
<path d="M73201 77086
L73397 77086
" />
<path d="M73482 77395
L73201 77395
L73201 76805
L73482 76805
" />
<path d="M73735 77339
L73763 77367
L73735 77395
L73707 77367
L73735 77339
L73735 77395
" />
<path d="M74016 77395
L74016 76805
L74157 76805
L74241 76833
L74297 76889
L74325 76946
L74354 77058
L74354 77142
L74325 77255
L74297 77311
L74241 77367
L74157 77395
L74016 77395
" />
<path d="M74607 77339
L74635 77367
L74607 77395
L74579 77367
L74607 77339
L74607 77395
" />
<path d="M74860 77227
L75141 77227
" />
<path d="M74804 77395
L75000 76805
L75197 77395
" />
<path d="M75394 77339
L75422 77367
L75394 77395
L75366 77367
L75394 77339
L75394 77395
" />
<path d="M76575 77002
L76575 77592
" />
<path d="M76575 77030
L76631 77002
L76744 77002
L76800 77030
L76828 77058
L76856 77114
L76856 77283
L76828 77339
L76800 77367
L76744 77395
L76631 77395
L76575 77367
" />
<path d="M77363 77367
L77306 77395
L77194 77395
L77138 77367
L77109 77339
L77081 77283
L77081 77114
L77109 77058
L77138 77030
L77194 77002
L77306 77002
L77363 77030
" />
<path d="M77616 77395
L77616 76805
" />
<path d="M77616 77030
L77672 77002
L77784 77002
L77841 77030
L77869 77058
L77897 77114
L77897 77283
L77869 77339
L77841 77367
L77784 77395
L77672 77395
L77616 77367
" />
<path d="M78150 77002
L78150 77395
" />
<path d="M78150 77058
L78178 77030
L78234 77002
L78319 77002
L78375 77030
L78403 77086
L78403 77395
" />
<path d="M78909 77367
L78853 77395
L78741 77395
L78684 77367
L78656 77311
L78656 77086
L78684 77030
L78741 77002
L78853 77002
L78909 77030
L78937 77086
L78937 77142
L78656 77199
" />
<path d="M79134 77002
L79247 77395
L79359 77114
L79472 77395
L79584 77002
" />
<path d="M80512 77002
L80512 77395
" />
<path d="M80372 76777
L80231 77199
L80597 77199
" />
<path d="M80822 77339
L80850 77367
L80822 77395
L80793 77367
L80822 77339
L80822 77395
" />
<path d="M81215 76805
L81271 76805
L81328 76833
L81356 76861
L81384 76917
L81412 77030
L81412 77171
L81384 77283
L81356 77339
L81328 77367
L81271 77395
L81215 77395
L81159 77367
L81131 77339
L81103 77283
L81075 77171
L81075 77030
L81103 76917
L81131 76861
L81159 76833
L81215 76805
" />
<path d="M81665 77339
L81693 77367
L81665 77395
L81637 77367
L81665 77339
L81665 77395
" />
<path d="M82228 76805
L81946 76805
L81918 77086
L81946 77058
L82003 77030
L82143 77030
L82199 77058
L82228 77086
L82256 77142
L82256 77283
L82228 77339
L82199 77367
L82143 77395
L82003 77395
L81946 77367
L81918 77339
" />
<path d="M82509 77171
L82959 77171
" />
<path d="M82734 77395
L82734 76946
" />
<path d="M83493 77395
L83493 76805
" />
<path d="M83493 77367
L83437 77395
L83324 77395
L83268 77367
L83240 77339
L83212 77283
L83212 77114
L83240 77058
L83268 77030
L83324 77002
L83437 77002
L83493 77030
" />
<path d="M83690 77002
L83915 77002
" />
<path d="M83774 77395
L83774 76889
L83802 76833
L83859 76805
L83915 76805
" />
<path d="M84084 77367
L84140 77395
L84252 77395
L84309 77367
L84337 77311
L84337 77283
L84309 77227
L84252 77199
L84168 77199
L84112 77171
L84084 77114
L84084 77086
L84112 77030
L84168 77002
L84252 77002
L84309 77030
" />
<path d="M84843 77002
L84843 77480
L84815 77536
L84787 77564
L84730 77592
L84646 77592
L84590 77564
" />
<path d="M84843 77367
L84787 77395
L84674 77395
L84618 77367
L84590 77339
L84562 77283
L84562 77114
L84590 77058
L84618 77030
L84674 77002
L84787 77002
L84843 77030
" />
<path d="M85433 77395
L85096 77395
" />
<path d="M85265 77395
L85265 76805
L85208 76889
L85152 76946
L85096 76974
" />
<path d="M85687 77171
L86136 77171
" />
<path d="M86671 77002
L86671 77395
" />
<path d="M86530 76777
L86390 77199
L86755 77199
" />
</g>
<g style="fill:#000000; fill-opacity:0.0; 
stroke:#000000; stroke-width:39.3701; stroke-opacity:1; 
stroke-linecap:round; stroke-linejoin:round;">
</g>
<g style="fill:#000000; fill-opacity:0.0; 
stroke:#000000; stroke-width:59.0551; stroke-opacity:1; 
stroke-linecap:round; stroke-linejoin:round;">
<path d="M69685 75396
L112205 75396
" />
</g>
<g style="fill:#000000; fill-opacity:0.0; 
stroke:#000000; stroke-width:39.3701; stroke-opacity:1; 
stroke-linecap:round; stroke-linejoin:round;">
</g>
<g style="fill:#000000; fill-opacity:0.0; 
stroke:#000000; stroke-width:118.11; stroke-opacity:1; 
stroke-linecap:round; stroke-linejoin:round;">
<path d="M104022 76293
L103825 76012
" />
<path d="M103684 76293
L103684 75703
L103909 75703
L103965 75731
L103994 75759
L104022 75815
L104022 75899
L103994 75956
L103965 75984
L103909 76012
L103684 76012
" />
<path d="M104500 76265
L104444 76293
L104331 76293
L104275 76265
L104247 76209
L104247 75984
L104275 75928
L104331 75899
L104444 75899
L104500 75928
L104528 75984
L104528 76040
L104247 76096
" />
<path d="M104725 75899
L104865 76293
L105006 75899
" />
<path d="M105231 76237
L105259 76265
L105231 76293
L105203 76265
L105231 76237
L105231 76293
" />
<path d="M105231 75928
L105259 75956
L105231 75984
L105203 75956
L105231 75928
L105231 75984
" />
</g>
<g style="fill:#000000; fill-opacity:0.0; 
stroke:#000000; stroke-width:39.3701; stroke-opacity:1; 
stroke-linecap:round; stroke-linejoin:round;">
</g>
<g style="fill:#000000; fill-opacity:0.0; 
stroke:#000000; stroke-width:59.0551; stroke-opacity:1; 
stroke-linecap:round; stroke-linejoin:round;">
<path d="M70192 76265
L70276 76293
L70417 76293
L70473 76265
L70501 76237
L70529 76181
L70529 76124
L70501 76068
L70473 76040
L70417 76012
L70304 75984
L70248 75956
L70220 75928
L70192 75871
L70192 75815
L70220 75759
L70248 75731
L70304 75703
L70445 75703
L70529 75731
" />
<path d="M70782 76293
L70782 75899
" />
<path d="M70782 75703
L70754 75731
L70782 75759
L70810 75731
L70782 75703
L70782 75759
" />
<path d="M71007 75899
L71316 75899
L71007 76293
L71316 76293
" />
<path d="M71766 76265
L71710 76293
L71598 76293
L71541 76265
L71513 76209
L71513 75984
L71541 75928
L71598 75899
L71710 75899
L71766 75928
L71795 75984
L71795 76040
L71513 76096
" />
<path d="M72048 76237
L72076 76265
L72048 76293
L72019 76265
L72048 76237
L72048 76293
" />
<path d="M72048 75928
L72076 75956
L72048 75984
L72019 75956
L72048 75928
L72048 75984
" />
<path d="M72751 76124
L73032 76124
" />
<path d="M72694 76293
L72891 75703
L73088 76293
" />
<path d="M73538 75899
L73538 76293
" />
<path d="M73397 75674
L73257 76096
L73622 76096
" />
</g>
<g style="fill:#000000; fill-opacity:0.0; 
stroke:#000000; stroke-width:39.3701; stroke-opacity:1; 
stroke-linecap:round; stroke-linejoin:round;">
</g>
<g style="fill:#000000; fill-opacity:0.0; 
stroke:#000000; stroke-width:59.0551; stroke-opacity:1; 
stroke-linecap:round; stroke-linejoin:round;">
<path d="M103684 77395
L103684 76805
" />
<path d="M104219 77395
L104219 76805
" />
<path d="M104219 77367
L104162 77395
L104050 77395
L103994 77367
L103965 77339
L103937 77283
L103937 77114
L103965 77058
L103994 77030
L104050 77002
L104162 77002
L104219 77030
" />
<path d="M104500 77339
L104528 77367
L104500 77395
L104472 77367
L104500 77339
L104500 77395
" />
<path d="M104500 77030
L104528 77058
L104500 77086
L104472 77058
L104500 77030
L104500 77086
" />
<path d="M105540 77395
L105203 77395
" />
<path d="M105372 77395
L105372 76805
L105315 76889
L105259 76946
L105203 76974
" />
<path d="M106215 76777
L105709 77536
" />
<path d="M106721 77395
L106384 77395
" />
<path d="M106553 77395
L106553 76805
L106496 76889
L106440 76946
L106384 76974
" />
</g>
<g style="fill:#000000; fill-opacity:0.0; 
stroke:#000000; stroke-width:39.3701; stroke-opacity:1; 
stroke-linecap:round; stroke-linejoin:round;">
</g>
<g style="fill:#000000; fill-opacity:0.0; 
stroke:#000000; stroke-width:59.0551; stroke-opacity:1; 
stroke-linecap:round; stroke-linejoin:round;">
<path d="M69685 73821
L112205 73821
" />
</g>
<g style="fill:#000000; fill-opacity:0.0; 
stroke:#000000; stroke-width:39.3701; stroke-opacity:1; 
stroke-linecap:round; stroke-linejoin:round;">
</g>
<g style="fill:#000000; fill-opacity:0.0; 
stroke:#000000; stroke-width:157.48; stroke-opacity:1; 
stroke-linecap:round; stroke-linejoin:round;">
<path d="M70257 74099
L70707 74099
" />
<path d="M70384 74886
L70482 74099
" />
<path d="M70871 74886
L70937 74361
" />
<path d="M70970 74099
L70927 74136
L70960 74174
L71002 74136
L70970 74099
L70960 74174
" />
<path d="M71199 74361
L71499 74361
" />
<path d="M71345 74099
L71260 74774
L71288 74849
L71359 74886
L71434 74886
" />
<path d="M71809 74886
L71738 74849
L71710 74774
L71795 74099
" />
<path d="M72413 74849
L72334 74886
L72184 74886
L72113 74849
L72085 74774
L72123 74474
L72169 74399
L72249 74361
L72399 74361
L72469 74399
L72498 74474
L72488 74549
L72104 74624
" />
<path d="M72793 74811
L72826 74849
L72783 74886
L72751 74849
L72793 74811
L72783 74886
" />
<path d="M72844 74399
L72877 74436
L72835 74474
L72802 74436
L72844 74399
L72835 74474
" />
</g>
<g style="fill:#000000; fill-opacity:0.0; 
stroke:#000000; stroke-width:39.3701; stroke-opacity:1; 
stroke-linecap:round; stroke-linejoin:round;">
</g>
<g style="fill:#000000; fill-opacity:0.0; 
stroke:#000000; stroke-width:59.0551; stroke-opacity:1; 
stroke-linecap:round; stroke-linejoin:round;">
<path d="M70417 73070
L70220 73070
" />
<path d="M70220 73380
L70220 72789
L70501 72789
" />
<path d="M70726 73380
L70726 72986
" />
<path d="M70726 72789
L70698 72817
L70726 72845
L70754 72817
L70726 72789
L70726 72845
" />
<path d="M71091 73380
L71035 73352
L71007 73295
L71007 72789
" />
<path d="M71541 73352
L71485 73380
L71373 73380
L71316 73352
L71288 73295
L71288 73070
L71316 73014
L71373 72986
L71485 72986
L71541 73014
L71570 73070
L71570 73127
L71288 73183
" />
<path d="M71823 73323
L71851 73352
L71823 73380
L71795 73352
L71823 73323
L71823 73380
" />
<path d="M71823 73014
L71851 73042
L71823 73070
L71795 73042
L71823 73014
L71823 73070
" />
<path d="M72469 72789
L72666 73380
L72863 72789
" />
<path d="M73397 73323
L73369 73352
L73285 73380
L73229 73380
L73144 73352
L73088 73295
L73060 73239
L73032 73127
L73032 73042
L73060 72930
L73088 72874
L73144 72817
L73229 72789
L73285 72789
L73369 72817
L73397 72845
" />
<path d="M73763 72789
L73876 72789
L73932 72817
L73988 72874
L74016 72986
L74016 73183
L73988 73295
L73932 73352
L73876 73380
L73763 73380
L73707 73352
L73651 73295
L73622 73183
L73622 72986
L73651 72874
L73707 72817
L73763 72789
" />
<path d="M74269 73155
L74719 73155
" />
<path d="M74916 72986
L75141 72986
" />
<path d="M75000 72789
L75000 73295
L75028 73352
L75085 73380
L75141 73380
" />
<path d="M75563 73352
L75507 73380
L75394 73380
L75338 73352
L75310 73295
L75310 73070
L75338 73014
L75394 72986
L75507 72986
L75563 73014
L75591 73070
L75591 73127
L75310 73183
" />
<path d="M75816 73352
L75872 73380
L75985 73380
L76041 73352
L76069 73295
L76069 73267
L76041 73211
L75985 73183
L75900 73183
L75844 73155
L75816 73099
L75816 73070
L75844 73014
L75900 72986
L75985 72986
L76041 73014
" />
<path d="M76238 72986
L76463 72986
" />
<path d="M76322 72789
L76322 73295
L76350 73352
L76406 73380
L76463 73380
" />
<path d="M76660 73380
L76660 72789
" />
<path d="M76660 73014
L76716 72986
L76828 72986
L76885 73014
L76913 73042
L76941 73099
L76941 73267
L76913 73323
L76885 73352
L76828 73380
L76716 73380
L76660 73352
" />
<path d="M77278 73380
L77222 73352
L77194 73323
L77166 73267
L77166 73099
L77194 73042
L77222 73014
L77278 72986
L77363 72986
L77419 73014
L77447 73042
L77475 73099
L77475 73267
L77447 73323
L77419 73352
L77363 73380
L77278 73380
" />
<path d="M77981 73380
L77981 73070
L77953 73014
L77897 72986
L77784 72986
L77728 73014
" />
<path d="M77981 73352
L77925 73380
L77784 73380
L77728 73352
L77700 73295
L77700 73239
L77728 73183
L77784 73155
L77925 73155
L77981 73127
" />
<path d="M78262 73380
L78262 72986
" />
<path d="M78262 73099
L78291 73042
L78319 73014
L78375 72986
L78431 72986
" />
<path d="M78881 73380
L78881 72789
" />
<path d="M78881 73352
L78825 73380
L78712 73380
L78656 73352
L78628 73323
L78600 73267
L78600 73099
L78628 73042
L78656 73014
L78712 72986
L78825 72986
L78881 73014
" />
<path d="M79162 73323
L79190 73352
L79162 73380
L79134 73352
L79162 73323
L79162 73380
" />
<path d="M79444 73380
L79444 72789
" />
<path d="M79500 73155
L79669 73380
" />
<path d="M79669 72986
L79444 73211
" />
<path d="M79922 73380
L79922 72986
" />
<path d="M79922 72789
L79894 72817
L79922 72845
L79950 72817
L79922 72789
L79922 72845
" />
<path d="M80456 73352
L80400 73380
L80287 73380
L80231 73352
L80203 73323
L80175 73267
L80175 73099
L80203 73042
L80231 73014
L80287 72986
L80400 72986
L80456 73014
" />
<path d="M80962 73380
L80962 73070
L80934 73014
L80878 72986
L80765 72986
L80709 73014
" />
<path d="M80962 73352
L80906 73380
L80765 73380
L80709 73352
L80681 73295
L80681 73239
L80709 73183
L80765 73155
L80906 73155
L80962 73127
" />
<path d="M81496 73380
L81496 72789
" />
<path d="M81496 73352
L81440 73380
L81328 73380
L81271 73352
L81243 73323
L81215 73267
L81215 73099
L81243 73042
L81271 73014
L81328 72986
L81440 72986
L81496 73014
" />
<path d="M81637 73436
L82087 73436
" />
<path d="M82228 72986
L82228 73577
" />
<path d="M82228 73014
L82284 72986
L82396 72986
L82453 73014
L82481 73042
L82509 73099
L82509 73267
L82481 73323
L82453 73352
L82396 73380
L82284 73380
L82228 73352
" />
<path d="M83015 73352
L82959 73380
L82846 73380
L82790 73352
L82762 73323
L82734 73267
L82734 73099
L82762 73042
L82790 73014
L82846 72986
L82959 72986
L83015 73014
" />
<path d="M83268 73380
L83268 72789
" />
<path d="M83268 73014
L83324 72986
L83437 72986
L83493 73014
L83521 73042
L83549 73099
L83549 73267
L83521 73323
L83493 73352
L83437 73380
L83324 73380
L83268 73352
" />
</g>
<g style="fill:#000000; fill-opacity:0.0; 
stroke:#000000; stroke-width:39.3701; stroke-opacity:1; 
stroke-linecap:round; stroke-linejoin:round;">
</g>
<g style="fill:#000000; fill-opacity:0.0; 
stroke:#000000; stroke-width:59.0551; stroke-opacity:1; 
stroke-linecap:round; stroke-linejoin:round;">
<path d="M69685 71459
L112205 71459
" />
</g>
<g style="fill:#000000; fill-opacity:0.0; 
stroke:#000000; stroke-width:39.3701; stroke-opacity:1; 
stroke-linecap:round; stroke-linejoin:round;">
</g>
<g style="fill:#000000; fill-opacity:0.0; 
stroke:#000000; stroke-width:59.0551; stroke-opacity:1; 
stroke-linecap:round; stroke-linejoin:round;">
<path d="M70192 72289
L70276 72317
L70417 72317
L70473 72289
L70501 72260
L70529 72204
L70529 72148
L70501 72092
L70473 72064
L70417 72036
L70304 72007
L70248 71979
L70220 71951
L70192 71895
L70192 71839
L70220 71782
L70248 71754
L70304 71726
L70445 71726
L70529 71754
" />
<path d="M70782 72317
L70782 71726
" />
<path d="M71035 72317
L71035 72007
L71007 71951
L70951 71923
L70867 71923
L70810 71951
L70782 71979
" />
<path d="M71541 72289
L71485 72317
L71373 72317
L71316 72289
L71288 72232
L71288 72007
L71316 71951
L71373 71923
L71485 71923
L71541 71951
L71570 72007
L71570 72064
L71288 72120
" />
<path d="M72048 72289
L71991 72317
L71879 72317
L71823 72289
L71795 72232
L71795 72007
L71823 71951
L71879 71923
L71991 71923
L72048 71951
L72076 72007
L72076 72064
L71795 72120
" />
<path d="M72244 71923
L72469 71923
" />
<path d="M72329 71726
L72329 72232
L72357 72289
L72413 72317
L72469 72317
" />
<path d="M72666 72260
L72694 72289
L72666 72317
L72638 72289
L72666 72260
L72666 72317
" />
<path d="M72666 71951
L72694 71979
L72666 72007
L72638 71979
L72666 71951
L72666 72007
" />
</g>
<g style="fill:#000000; fill-opacity:0.0; 
stroke:#000000; stroke-width:39.3701; stroke-opacity:1; 
stroke-linecap:round; stroke-linejoin:round;">
</g>
<g style="fill:#000000; fill-opacity:0.0; 
stroke:#000000; stroke-width:59.0551; stroke-opacity:1; 
stroke-linecap:round; stroke-linejoin:round;">
<path d="M77559 75396
L77559 76577
" />
</g>
<g style="fill:#000000; fill-opacity:0.0; 
stroke:#000000; stroke-width:39.3701; stroke-opacity:1; 
stroke-linecap:round; stroke-linejoin:round;">
</g>
<g style="fill:#000000; fill-opacity:0.0; 
stroke:#000000; stroke-width:59.0551; stroke-opacity:1; 
stroke-linecap:round; stroke-linejoin:round;">
<path d="M102756 75396
L102756 77955
" />
</g>
<g style="fill:#000000; fill-opacity:1.0; 
stroke:#000000; stroke-width:39.3701; stroke-opacity:1; 
stroke-linecap:round; stroke-linejoin:round;">
<rect x="2992.13" y="2912.35" width="19765.7" height="14095.5" rx="0" />
</g>
<g style="fill:#FFFFFF; fill-opacity:1.0; 
stroke:#FFFFFF; stroke-width:39.3701; stroke-opacity:1; 
stroke-linecap:round; stroke-linejoin:round;">
</g>
<g style="fill:#FFFFFF; fill-opacity:1.0; 
stroke:#FFFFFF; stroke-width:0; stroke-opacity:1; 
stroke-linecap:round; stroke-linejoin:round;">
<polyline style="fill-rule:evenodd;"
points="16100,10150
16100,9350
16900,9350
16900,10150
16100,10150
" /> 
</g>
<g style="fill:#FFFFFF; fill-opacity:1.0; 
stroke:#FFFFFF; stroke-width:800; stroke-opacity:1; 
stroke-linecap:round; stroke-linejoin:round;">
</g>
<g style="fill:#FFFFFF; fill-opacity:0.0; 
stroke:#FFFFFF; stroke-width:800; stroke-opacity:1; 
stroke-linecap:round; stroke-linejoin:round;">
<path d="M16500 10750
L16500 10750
" />
</g>
<g style="fill:#FFFFFF; fill-opacity:0.0; 
stroke:#FFFFFF; stroke-width:0; stroke-opacity:1; 
stroke-linecap:round; stroke-linejoin:round;">
</g>
<g style="fill:#FFFFFF; fill-opacity:1.0; 
stroke:#FFFFFF; stroke-width:0; stroke-opacity:1; 
stroke-linecap:round; stroke-linejoin:round;">
<polyline style="fill-rule:evenodd;"
points="7177,9070
6822,9070
6822,8755
7177,8755
7177,9070
" /> 
<polyline style="fill-rule:evenodd;"
points="7177,8244
6822,8244
6822,7929
7177,7929
7177,8244
" /> 
<polyline style="fill-rule:evenodd;"
points="7787,9753
7787,10246
7196,10246
7196,9753
7787,9753
" /> 
<polyline style="fill-rule:evenodd;"
points="6803,9753
6803,10246
6212,10246
6212,9753
6803,9753
" /> 
<polyline style="fill-rule:evenodd;"
points="18212,9996
18212,9503
18803,9503
18803,9996
18212,9996
" /> 
<polyline style="fill-rule:evenodd;"
points="19196,9996
19196,9503
19787,9503
19787,9996
19196,9996
" /> 
<polyline style="fill-rule:evenodd;"
points="9246,11287
8753,11287
8753,10696
9246,10696
9246,11287
" /> 
<polyline style="fill-rule:evenodd;"
points="9246,10303
8753,10303
8753,9712
9246,9712
9246,10303
" /> 
<polyline style="fill-rule:evenodd;"
points="11246,11287
10753,11287
10753,10696
11246,10696
11246,11287
" /> 
<polyline style="fill-rule:evenodd;"
points="11246,10303
10753,10303
10753,9712
11246,9712
11246,10303
" /> 
<polyline style="fill-rule:evenodd;"
points="11246,9537
10753,9537
10753,8946
11246,8946
11246,9537
" /> 
<polyline style="fill-rule:evenodd;"
points="11246,8553
10753,8553
10753,7962
11246,7962
11246,8553
" /> 
<polyline style="fill-rule:evenodd;"
points="17253,9462
17746,9462
17746,10053
17253,10053
17253,9462
" /> 
<polyline style="fill-rule:evenodd;"
points="17253,10446
17746,10446
17746,11037
17253,11037
17253,10446
" /> 
<polyline style="fill-rule:evenodd;"
points="13212,8496
13212,8003
13803,8003
13803,8496
13212,8496
" /> 
<polyline style="fill-rule:evenodd;"
points="14196,8496
14196,8003
14787,8003
14787,8496
14196,8496
" /> 
<polyline style="fill-rule:evenodd;"
points="12287,7253
12287,7746
11696,7746
11696,7253
12287,7253
" /> 
<polyline style="fill-rule:evenodd;"
points="11303,7253
11303,7746
10712,7746
10712,7253
11303,7253
" /> 
<polyline style="fill-rule:evenodd;"
points="9427,9570
9072,9570
9072,9255
9427,9255
9427,9570
" /> 
<polyline style="fill-rule:evenodd;"
points="9427,8744
9072,8744
9072,8429
9427,8429
9427,8744
" /> 
<polyline style="fill-rule:evenodd;"
points="8572,8429
8927,8429
8927,8744
8572,8744
8572,8429
" /> 
<polyline style="fill-rule:evenodd;"
points="8572,9255
8927,9255
8927,9570
8572,9570
8572,9255
" /> 
<polyline style="fill-rule:evenodd;"
points="11975,13100
11525,13100
11525,12900
11975,12900
11975,13100
" /> 
<polyline style="fill-rule:evenodd;"
points="11975,12600
11525,12600
11525,12400
11975,12400
11975,12600
" /> 
<polyline style="fill-rule:evenodd;"
points="11975,12100
11525,12100
11525,11900
11975,11900
11975,12100
" /> 
<polyline style="fill-rule:evenodd;"
points="11975,11600
11525,11600
11525,11400
11975,11400
11975,11600
" /> 
<polyline style="fill-rule:evenodd;"
points="14475,11600
14025,11600
14025,11400
14475,11400
14475,11600
" /> 
<polyline style="fill-rule:evenodd;"
points="14475,12100
14025,12100
14025,11900
14475,11900
14475,12100
" /> 
<polyline style="fill-rule:evenodd;"
points="14475,12600
14025,12600
14025,12400
14475,12400
14475,12600
" /> 
<polyline style="fill-rule:evenodd;"
points="14475,13100
14025,13100
14025,12900
14475,12900
14475,13100
" /> 
<polyline style="fill-rule:evenodd;"
points="7650,7150
6850,7150
6850,6350
7650,6350
7650,7150
" /> 
</g>
<g style="fill:#FFFFFF; fill-opacity:1.0; 
stroke:#FFFFFF; stroke-width:800; stroke-opacity:1; 
stroke-linecap:round; stroke-linejoin:round;">
</g>
<g style="fill:#FFFFFF; fill-opacity:0.0; 
stroke:#FFFFFF; stroke-width:800; stroke-opacity:1; 
stroke-linecap:round; stroke-linejoin:round;">
<path d="M8250 6750
L8250 6750
" />
</g>
<g style="fill:#FFFFFF; fill-opacity:0.0; 
stroke:#FFFFFF; stroke-width:0; stroke-opacity:1; 
stroke-linecap:round; stroke-linejoin:round;">
</g>
<g style="fill:#FFFFFF; fill-opacity:1.0; 
stroke:#FFFFFF; stroke-width:0; stroke-opacity:1; 
stroke-linecap:round; stroke-linejoin:round;">
<polyline style="fill-rule:evenodd;"
points="11600,6350
12400,6350
12400,7150
11600,7150
11600,6350
" /> 
</g>
<g style="fill:#FFFFFF; fill-opacity:1.0; 
stroke:#FFFFFF; stroke-width:800; stroke-opacity:1; 
stroke-linecap:round; stroke-linejoin:round;">
</g>
<g style="fill:#FFFFFF; fill-opacity:0.0; 
stroke:#FFFFFF; stroke-width:800; stroke-opacity:1; 
stroke-linecap:round; stroke-linejoin:round;">
<path d="M11000 6750
L11000 6750
" />
</g>
<g style="fill:#FFFFFF; fill-opacity:0.0; 
stroke:#FFFFFF; stroke-width:0; stroke-opacity:1; 
stroke-linecap:round; stroke-linejoin:round;">
</g>
<g style="fill:#FFFFFF; fill-opacity:1.0; 
stroke:#FFFFFF; stroke-width:0; stroke-opacity:1; 
stroke-linecap:round; stroke-linejoin:round;">
<polyline style="fill-rule:evenodd;"
points="10100,11850
10900,11850
10900,12650
10100,12650
10100,11850
" /> 
</g>
<g style="fill:#FFFFFF; fill-opacity:1.0; 
stroke:#FFFFFF; stroke-width:800; stroke-opacity:1; 
stroke-linecap:round; stroke-linejoin:round;">
</g>
<g style="fill:#FFFFFF; fill-opacity:0.0; 
stroke:#FFFFFF; stroke-width:800; stroke-opacity:1; 
stroke-linecap:round; stroke-linejoin:round;">
<path d="M9500 12250
L9500 12250
" />
</g>
<g style="fill:#FFFFFF; fill-opacity:1.0; 
stroke:#FFFFFF; stroke-width:0; stroke-opacity:1; 
stroke-linecap:round; stroke-linejoin:round;">
<circle cx="8250" cy="8016" r="295.5" /> 
</g>
<g style="fill:#FFFFFF; fill-opacity:1.0; 
stroke:#FFFFFF; stroke-width:39.3701; stroke-opacity:1; 
stroke-linecap:round; stroke-linejoin:round;">
</g>
<g style="fill:#FFFFFF; fill-opacity:1.0; 
stroke:#FFFFFF; stroke-width:0; stroke-opacity:1; 
stroke-linecap:round; stroke-linejoin:round;">
<circle cx="8250" cy="9984" r="295.5" /> 
</g>
<g style="fill:#FFFFFF; fill-opacity:1.0; 
stroke:#FFFFFF; stroke-width:39.3701; stroke-opacity:1; 
stroke-linecap:round; stroke-linejoin:round;">
</g>
<g style="fill:#FFFFFF; fill-opacity:1.0; 
stroke:#FFFFFF; stroke-width:0; stroke-opacity:1; 
stroke-linecap:round; stroke-linejoin:round;">
<polyline style="fill-rule:evenodd;"
points="6505,9576
5994,9576
5994,8986
6505,8986
6505,9576
" /> 
<polyline style="fill-rule:evenodd;"
points="6505,8513
5994,8513
5994,7923
6505,7923
6505,8513
" /> 
<polyline style="fill-rule:evenodd;"
points="16244,6673
16755,6673
16755,7263
16244,7263
16244,6673
" /> 
<polyline style="fill-rule:evenodd;"
points="16244,7736
16755,7736
16755,8326
16244,8326
16244,7736
" /> 
<polyline style="fill-rule:evenodd;"
points="18173,10755
18173,10244
18763,10244
18763,10755
18173,10755
" /> 
<polyline style="fill-rule:evenodd;"
points="19236,10755
19236,10244
19826,10244
19826,10755
19236,10755
" /> 
<polyline style="fill-rule:evenodd;"
points="10505,11326
9994,11326
9994,10736
10505,10736
10505,11326
" /> 
<polyline style="fill-rule:evenodd;"
points="10505,10263
9994,10263
9994,9673
10505,9673
10505,10263
" /> 
<polyline style="fill-rule:evenodd;"
points="13076,7994
13076,8505
12486,8505
12486,7994
13076,7994
" /> 
<polyline style="fill-rule:evenodd;"
points="12013,7994
12013,8505
11423,8505
11423,7994
12013,7994
" /> 
<polyline style="fill-rule:evenodd;"
points="15005,10576
14494,10576
14494,9986
15005,9986
15005,10576
" /> 
<polyline style="fill-rule:evenodd;"
points="15005,9513
14494,9513
14494,8923
15005,8923
15005,9513
" /> 
<polyline style="fill-rule:evenodd;"
points="15755,10576
15244,10576
15244,9986
15755,9986
15755,10576
" /> 
<polyline style="fill-rule:evenodd;"
points="15755,9513
15244,9513
15244,8923
15755,8923
15755,9513
" /> 
<polyline style="fill-rule:evenodd;"
points="14076,13494
14076,14005
13486,14005
13486,13494
14076,13494
" /> 
<polyline style="fill-rule:evenodd;"
points="13013,13494
13013,14005
12423,14005
12423,13494
13013,13494
" /> 
<polyline style="fill-rule:evenodd;"
points="12076,13494
12076,14005
11486,14005
11486,13494
12076,13494
" /> 
<polyline style="fill-rule:evenodd;"
points="11013,13494
11013,14005
10423,14005
10423,13494
11013,13494
" /> 
<polyline style="fill-rule:evenodd;"
points="17400,6475
17400,6025
17600,6025
17600,6475
17400,6475
" /> 
<polyline style="fill-rule:evenodd;"
points="17900,6475
17900,6025
18100,6025
18100,6475
17900,6475
" /> 
<polyline style="fill-rule:evenodd;"
points="18400,6475
18400,6025
18600,6025
18600,6475
18400,6475
" /> 
<polyline style="fill-rule:evenodd;"
points="18900,6475
18900,6025
19100,6025
19100,6475
18900,6475
" /> 
<polyline style="fill-rule:evenodd;"
points="18900,8975
18900,8525
19100,8525
19100,8975
18900,8975
" /> 
<polyline style="fill-rule:evenodd;"
points="18400,8975
18400,8525
18600,8525
18600,8975
18400,8975
" /> 
<polyline style="fill-rule:evenodd;"
points="17900,8975
17900,8525
18100,8525
18100,8975
17900,8975
" /> 
<polyline style="fill-rule:evenodd;"
points="17400,8975
17400,8525
17600,8525
17600,8975
17400,8975
" /> 
<polyline style="fill-rule:evenodd;"
points="7677,9070
7322,9070
7322,8755
7677,8755
7677,9070
" /> 
<polyline style="fill-rule:evenodd;"
points="7677,8244
7322,8244
7322,7929
7677,7929
7677,8244
" /> 
<polyline style="fill-rule:evenodd;"
points="11929,9283
11929,8968
12283,8968
12283,9283
11929,9283
" /> 
<polyline style="fill-rule:evenodd;"
points="11929,10031
11929,9716
12283,9716
12283,10031
11929,10031
" /> 
<polyline style="fill-rule:evenodd;"
points="12716,9657
12716,9342
13070,9342
13070,9657
12716,9657
" /> 
</g>
<g style="fill:#FFFFFF; fill-opacity:1.0; 
stroke:#FFFFFF; stroke-width:157.48; stroke-opacity:1; 
stroke-linecap:round; stroke-linejoin:round;">
</g>
<g style="fill:#FFFFFF; fill-opacity:0.0; 
stroke:#FFFFFF; stroke-width:157.48; stroke-opacity:1; 
stroke-linecap:round; stroke-linejoin:round;">
<path d="M9000 9700
L8600 9700
" />
<path d="M8600 9700
L8316 9984
" />
<path d="M8316 9984
L8500 9800
" />
<path d="M8500 9800
L8500 9984
" />
</g>
<g style="fill:#FFFFFF; fill-opacity:0.0; 
stroke:#FFFFFF; stroke-width:393.701; stroke-opacity:1; 
stroke-linecap:round; stroke-linejoin:round;">
<path d="M8250 9984
L8500 9984
" />
<path d="M8500 9984
L8976 9984
" />
<path d="M8976 9984
L9000 9960
" />
<path d="M9000 9960
L9000 9700
" />
<path d="M9000 9700
L9000 9663
" />
</g>
<g style="fill:#FFFFFF; fill-opacity:0.0; 
stroke:#FFFFFF; stroke-width:98.4252; stroke-opacity:1; 
stroke-linecap:round; stroke-linejoin:round;">
<path d="M9000 10007
L9000 9663
" />
<path d="M9000 9663
L8750 9413
" />
</g>
<g style="fill:#FFFFFF; fill-opacity:0.0; 
stroke:#FFFFFF; stroke-width:393.701; stroke-opacity:1; 
stroke-linecap:round; stroke-linejoin:round;">
<path d="M7492 10000
L8234 10000
" />
</g>
<g style="fill:#FFFFFF; fill-opacity:0.0; 
stroke:#FFFFFF; stroke-width:98.4252; stroke-opacity:1; 
stroke-linecap:round; stroke-linejoin:round;">
<path d="M8234 10000
L8250 9984
" />
</g>
<g style="fill:#FFFFFF; fill-opacity:0.0; 
stroke:#FFFFFF; stroke-width:157.48; stroke-opacity:1; 
stroke-linecap:round; stroke-linejoin:round;">
<path d="M9250 9413
L8750 9413
" />
<path d="M8750 9413
L8250 9913
" />
</g>
<g style="fill:#FFFFFF; fill-opacity:0.0; 
stroke:#FFFFFF; stroke-width:98.4252; stroke-opacity:1; 
stroke-linecap:round; stroke-linejoin:round;">
<path d="M8250 9913
L8250 9984
" />
</g>
<g style="fill:#FFFFFF; fill-opacity:0.0; 
stroke:#FFFFFF; stroke-width:393.701; stroke-opacity:1; 
stroke-linecap:round; stroke-linejoin:round;">
<path d="M7000 8913
L7000 9250
" />
<path d="M7000 9250
L6968 9281
" />
<path d="M6968 9281
L6250 9281
" />
<path d="M7500 8913
L7000 8913
" />
<path d="M6507 10000
L6507 9539
" />
<path d="M6507 9539
L6250 9281
" />
</g>
<g style="fill:#FFFFFF; fill-opacity:0.0; 
stroke:#FFFFFF; stroke-width:98.4252; stroke-opacity:1; 
stroke-linecap:round; stroke-linejoin:round;">
<path d="M7500 8913
L7000 8913
" />
<path d="M7000 8913
L7000 9250
" />
<path d="M6968 9281
L6250 9281
" />
<path d="M7000 9250
L6968 9281
" />
<path d="M6250 9281
L6507 9539
" />
<path d="M6507 9539
L6507 10000
" />
<path d="M6836 8913
L7500 8913
" />
</g>
<g style="fill:#FFFFFF; fill-opacity:0.0; 
stroke:#FFFFFF; stroke-width:157.48; stroke-opacity:1; 
stroke-linecap:round; stroke-linejoin:round;">
<path d="M18500 8750
L18500 8000
" />
</g>
<g style="fill:#FFFFFF; fill-opacity:0.0; 
stroke:#FFFFFF; stroke-width:393.701; stroke-opacity:1; 
stroke-linecap:round; stroke-linejoin:round;">
<path d="M18468 8031
L16500 8031
" />
</g>
<g style="fill:#FFFFFF; fill-opacity:0.0; 
stroke:#FFFFFF; stroke-width:98.4252; stroke-opacity:1; 
stroke-linecap:round; stroke-linejoin:round;">
<path d="M18500 8000
L18468 8031
" />
</g>
<g style="fill:#FFFFFF; fill-opacity:0.0; 
stroke:#FFFFFF; stroke-width:157.48; stroke-opacity:1; 
stroke-linecap:round; stroke-linejoin:round;">
<path d="M18507 9750
L18507 8757
" />
</g>
<g style="fill:#FFFFFF; fill-opacity:0.0; 
stroke:#FFFFFF; stroke-width:98.4252; stroke-opacity:1; 
stroke-linecap:round; stroke-linejoin:round;">
<path d="M18507 8757
L18500 8750
" />
</g>
<g style="fill:#FFFFFF; fill-opacity:0.0; 
stroke:#FFFFFF; stroke-width:393.701; stroke-opacity:1; 
stroke-linecap:round; stroke-linejoin:round;">
<path d="M18468 9710
L18468 10500
" />
<path d="M11718 8250
L11007 8250
" />
<path d="M11007 8250
L11000 8257
" />
<path d="M19531 10500
L19531 9789
" />
<path d="M19531 9789
L19492 9750
" />
</g>
<g style="fill:#FFFFFF; fill-opacity:0.0; 
stroke:#FFFFFF; stroke-width:98.4252; stroke-opacity:1; 
stroke-linecap:round; stroke-linejoin:round;">
<path d="M8250 8016
L7570 8016
" />
<path d="M7570 8016
L7500 8086
" />
</g>
<g style="fill:#FFFFFF; fill-opacity:0.0; 
stroke:#FFFFFF; stroke-width:393.701; stroke-opacity:1; 
stroke-linecap:round; stroke-linejoin:round;">
<path d="M11000 6750
L11000 8257
" />
<path d="M8250 6750
L8250 8016
" />
<path d="M8250 6750
L11000 6750
" />
<path d="M19531 10500
L19531 9789
" />
<path d="M19531 9789
L19492 9750
" />
<path d="M17500 10742
L16507 10742
" />
<path d="M16507 10742
L16500 10750
" />
<path d="M9500 12250
L9500 14500
" />
<path d="M9500 14500
L13250 14500
" />
</g>
<g style="fill:#FFFFFF; fill-opacity:0.0; 
stroke:#FFFFFF; stroke-width:157.48; stroke-opacity:1; 
stroke-linecap:round; stroke-linejoin:round;">
<path d="M14250 11500
L13500 11500
" />
</g>
<g style="fill:#FFFFFF; fill-opacity:0.0; 
stroke:#FFFFFF; stroke-width:393.701; stroke-opacity:1; 
stroke-linecap:round; stroke-linejoin:round;">
<path d="M16500 13250
L16500 10750
" />
<path d="M15250 14500
L16500 13250
" />
<path d="M13250 14500
L15250 14500
" />
</g>
<g style="fill:#FFFFFF; fill-opacity:0.0; 
stroke:#FFFFFF; stroke-width:157.48; stroke-opacity:1; 
stroke-linecap:round; stroke-linejoin:round;">
<path d="M13250 11750
L13250 14500
" />
<path d="M13500 11500
L13250 11750
" />
</g>
<g style="fill:#FFFFFF; fill-opacity:0.0; 
stroke:#FFFFFF; stroke-width:98.4252; stroke-opacity:1; 
stroke-linecap:round; stroke-linejoin:round;">
<path d="M11000 5750
L19500 5750
" />
<path d="M19492 5757
L19492 9750
" />
<path d="M19500 5750
L19492 5757
" />
<path d="M11000 5750
L8250 5750
" />
<path d="M8250 5750
L8250 6750
" />
<path d="M19000 8750
L19250 8750
" />
</g>
<g style="fill:#FFFFFF; fill-opacity:0.0; 
stroke:#FFFFFF; stroke-width:393.701; stroke-opacity:1; 
stroke-linecap:round; stroke-linejoin:round;">
<path d="M19250 8750
L19492 8992
" />
</g>
<g style="fill:#FFFFFF; fill-opacity:0.0; 
stroke:#FFFFFF; stroke-width:98.4252; stroke-opacity:1; 
stroke-linecap:round; stroke-linejoin:round;">
<path d="M19492 8992
L19492 9750
" />
<path d="M11000 5750
L11000 6750
" />
<path d="M17500 10742
L17500 11000
" />
<path d="M17500 11000
L19500 11000
" />
<path d="M19531 10968
L19531 9789
" />
<path d="M19500 11000
L19531 10968
" />
<path d="M19531 9789
L19492 9750
" />
<path d="M16507 10742
L16500 10750
" />
<path d="M19492 9750
L19531 9789
" />
<path d="M11000 8257
L11000 7507
" />
<path d="M11000 7507
L11000 6750
" />
<path d="M11718 8250
L11007 8250
" />
<path d="M11007 8250
L11000 8257
" />
<path d="M11000 8257
L9578 8257
" />
<path d="M9578 8257
L9250 8586
" />
</g>
<g style="fill:#FFFFFF; fill-opacity:0.0; 
stroke:#FFFFFF; stroke-width:393.701; stroke-opacity:1; 
stroke-linecap:round; stroke-linejoin:round;">
<path d="M10250 9968
L10250 8750
" />
<path d="M10086 8586
L9250 8586
" />
</g>
<g style="fill:#FFFFFF; fill-opacity:0.0; 
stroke:#FFFFFF; stroke-width:98.4252; stroke-opacity:1; 
stroke-linecap:round; stroke-linejoin:round;">
<path d="M10250 8750
L10086 8586
" />
<path d="M8250 8016
L7070 8016
" />
<path d="M7070 8016
L7000 8086
" />
<path d="M9250 8586
L8750 8586
" />
<path d="M8750 8586
L8250 8086
" />
<path d="M8250 8086
L8250 8016
" />
</g>
<g style="fill:#FFFFFF; fill-opacity:0.0; 
stroke:#FFFFFF; stroke-width:118.11; stroke-opacity:1; 
stroke-linecap:round; stroke-linejoin:round;">
<path d="M12893 9500
L11750 9500
" />
<path d="M11500 10492
L11000 10992
" />
<path d="M11500 9750
L11500 10492
" />
<path d="M11750 9500
L11500 9750
" />
</g>
<g style="fill:#FFFFFF; fill-opacity:0.0; 
stroke:#FFFFFF; stroke-width:393.701; stroke-opacity:1; 
stroke-linecap:round; stroke-linejoin:round;">
<path d="M11000 10992
L10289 10992
" />
</g>
<g style="fill:#FFFFFF; fill-opacity:0.0; 
stroke:#FFFFFF; stroke-width:98.4252; stroke-opacity:1; 
stroke-linecap:round; stroke-linejoin:round;">
<path d="M10289 10992
L10250 11031
" />
</g>
<g style="fill:#FFFFFF; fill-opacity:0.0; 
stroke:#FFFFFF; stroke-width:393.701; stroke-opacity:1; 
stroke-linecap:round; stroke-linejoin:round;">
<path d="M10250 11031
L9039 11031
" />
</g>
<g style="fill:#FFFFFF; fill-opacity:0.0; 
stroke:#FFFFFF; stroke-width:98.4252; stroke-opacity:1; 
stroke-linecap:round; stroke-linejoin:round;">
<path d="M9039 11031
L9000 10992
" />
</g>
<g style="fill:#FFFFFF; fill-opacity:0.0; 
stroke:#FFFFFF; stroke-width:393.701; stroke-opacity:1; 
stroke-linecap:round; stroke-linejoin:round;">
<path d="M12781 8250
L13507 8250
" />
<path d="M12106 9125
L11116 9125
" />
<path d="M11116 9125
L11000 9242
" />
<path d="M11000 10007
L11000 9242
" />
</g>
<g style="fill:#FFFFFF; fill-opacity:0.0; 
stroke:#FFFFFF; stroke-width:118.11; stroke-opacity:1; 
stroke-linecap:round; stroke-linejoin:round;">
<path d="M13507 8250
L12781 8250
" />
</g>
<g style="fill:#FFFFFF; fill-opacity:0.0; 
stroke:#FFFFFF; stroke-width:98.4252; stroke-opacity:1; 
stroke-linecap:round; stroke-linejoin:round;">
<path d="M12106 9125
L11116 9125
" />
<path d="M11116 9125
L11000 9242
" />
<path d="M12781 8250
L12781 8450
" />
</g>
<g style="fill:#FFFFFF; fill-opacity:0.0; 
stroke:#FFFFFF; stroke-width:118.11; stroke-opacity:1; 
stroke-linecap:round; stroke-linejoin:round;">
<path d="M12781 8450
L12106 9125
" />
</g>
<g style="fill:#FFFFFF; fill-opacity:0.0; 
stroke:#FFFFFF; stroke-width:98.4252; stroke-opacity:1; 
stroke-linecap:round; stroke-linejoin:round;">
<path d="M11000 10007
L11000 9242
" />
</g>
<g style="fill:#FFFFFF; fill-opacity:0.0; 
stroke:#FFFFFF; stroke-width:393.701; stroke-opacity:1; 
stroke-linecap:round; stroke-linejoin:round;">
<path d="M16500 9750
L17492 9750
" />
<path d="M17492 9750
L17500 9757
" />
<path d="M14750 9218
L15500 9218
" />
<path d="M15500 9218
L15518 9200
" />
<path d="M15518 9200
L15950 9200
" />
<path d="M15950 9200
L16500 9750
" />
</g>
<g style="fill:#FFFFFF; fill-opacity:0.0; 
stroke:#FFFFFF; stroke-width:98.4252; stroke-opacity:1; 
stroke-linecap:round; stroke-linejoin:round;">
<path d="M16500 9750
L16000 9250
" />
<path d="M16000 9250
L15531 9250
" />
<path d="M15531 9250
L15500 9218
" />
<path d="M15500 9218
L14750 9218
" />
</g>
<g style="fill:#FFFFFF; fill-opacity:0.0; 
stroke:#FFFFFF; stroke-width:157.48; stroke-opacity:1; 
stroke-linecap:round; stroke-linejoin:round;">
<path d="M17500 9757
L17500 8750
" />
</g>
<g style="fill:#FFFFFF; fill-opacity:0.0; 
stroke:#FFFFFF; stroke-width:98.4252; stroke-opacity:1; 
stroke-linecap:round; stroke-linejoin:round;">
<path d="M17500 9757
L16507 9757
" />
<path d="M16507 9757
L16500 9750
" />
</g>
<g style="fill:#FFFFFF; fill-opacity:0.0; 
stroke:#FFFFFF; stroke-width:157.48; stroke-opacity:1; 
stroke-linecap:round; stroke-linejoin:round;">
<path d="M18000 8750
L17500 8750
" />
<path d="M14250 12000
L14750 12000
" />
<path d="M14750 12000
L14750 10281
" />
</g>
<g style="fill:#FFFFFF; fill-opacity:0.0; 
stroke:#FFFFFF; stroke-width:98.4252; stroke-opacity:1; 
stroke-linecap:round; stroke-linejoin:round;">
<path d="M14492 8250
L14492 8507
" />
</g>
<g style="fill:#FFFFFF; fill-opacity:0.0; 
stroke:#FFFFFF; stroke-width:157.48; stroke-opacity:1; 
stroke-linecap:round; stroke-linejoin:round;">
<path d="M14031 10281
L14750 10281
" />
</g>
<g style="fill:#FFFFFF; fill-opacity:0.0; 
stroke:#FFFFFF; stroke-width:118.11; stroke-opacity:1; 
stroke-linecap:round; stroke-linejoin:round;">
<path d="M14000 10250
L14031 10281
" />
</g>
<g style="fill:#FFFFFF; fill-opacity:0.0; 
stroke:#FFFFFF; stroke-width:157.48; stroke-opacity:1; 
stroke-linecap:round; stroke-linejoin:round;">
<path d="M14000 9000
L14000 10250
" />
<path d="M14492 8507
L14000 9000
" />
</g>
<g style="fill:#FFFFFF; fill-opacity:0.0; 
stroke:#FFFFFF; stroke-width:393.701; stroke-opacity:1; 
stroke-linecap:round; stroke-linejoin:round;">
<path d="M12000 6750
L16281 6750
" />
<path d="M16281 6750
L16500 6968
" />
<path d="M11992 7500
L11992 6757
" />
<path d="M11992 6757
L12000 6750
" />
</g>
<g style="fill:#FFFFFF; fill-opacity:0.0; 
stroke:#FFFFFF; stroke-width:157.48; stroke-opacity:1; 
stroke-linecap:round; stroke-linejoin:round;">
<path d="M11750 12500
L12000 12500
" />
<path d="M12250 12250
L12250 10250
" />
<path d="M12000 12500
L12250 12250
" />
</g>
<g style="fill:#FFFFFF; fill-opacity:0.0; 
stroke:#FFFFFF; stroke-width:98.4252; stroke-opacity:1; 
stroke-linecap:round; stroke-linejoin:round;">
<path d="M16500 6968
L13468 6968
" />
<path d="M13468 6968
L13250 6750
" />
<path d="M16500 6968
L16531 6968
" />
</g>
<g style="fill:#FFFFFF; fill-opacity:0.0; 
stroke:#FFFFFF; stroke-width:393.701; stroke-opacity:1; 
stroke-linecap:round; stroke-linejoin:round;">
<path d="M16531 6968
L17250 6250
" />
</g>
<g style="fill:#FFFFFF; fill-opacity:0.0; 
stroke:#FFFFFF; stroke-width:98.4252; stroke-opacity:1; 
stroke-linecap:round; stroke-linejoin:round;">
<path d="M17250 6250
L17500 6250
" />
<path d="M11992 7500
L11992 6757
" />
<path d="M11992 6757
L12000 6750
" />
</g>
<g style="fill:#FFFFFF; fill-opacity:0.0; 
stroke:#FFFFFF; stroke-width:157.48; stroke-opacity:1; 
stroke-linecap:round; stroke-linejoin:round;">
<path d="M12106 9874
L12106 10106
" />
<path d="M12106 10106
L12250 10250
" />
<path d="M12250 10250
L13250 10250
" />
<path d="M13250 10250
L13500 10000
" />
<path d="M13500 10000
L13500 9000
" />
</g>
<g style="fill:#FFFFFF; fill-opacity:0.0; 
stroke:#FFFFFF; stroke-width:118.11; stroke-opacity:1; 
stroke-linecap:round; stroke-linejoin:round;">
<path d="M13500 9000
L14000 8500
" />
<path d="M14000 8500
L14000 7500
" />
<path d="M14000 7500
L13250 6750
" />
</g>
<g style="fill:#FFFFFF; fill-opacity:0.0; 
stroke:#FFFFFF; stroke-width:98.4252; stroke-opacity:1; 
stroke-linecap:round; stroke-linejoin:round;">
<path d="M13250 6750
L12000 6750
" />
</g>
<g style="fill:#FFFFFF; fill-opacity:0.0; 
stroke:#FFFFFF; stroke-width:393.701; stroke-opacity:1; 
stroke-linecap:round; stroke-linejoin:round;">
<path d="M10718 13750
L10718 12468
" />
</g>
<g style="fill:#FFFFFF; fill-opacity:0.0; 
stroke:#FFFFFF; stroke-width:98.4252; stroke-opacity:1; 
stroke-linecap:round; stroke-linejoin:round;">
<path d="M10718 12468
L10500 12250
" />
</g>
<g style="fill:#FFFFFF; fill-opacity:0.0; 
stroke:#FFFFFF; stroke-width:393.701; stroke-opacity:1; 
stroke-linecap:round; stroke-linejoin:round;">
<path d="M10500 12250
L11000 12250
" />
</g>
<g style="fill:#FFFFFF; fill-opacity:0.0; 
stroke:#FFFFFF; stroke-width:157.48; stroke-opacity:1; 
stroke-linecap:round; stroke-linejoin:round;">
<path d="M11250 12000
L11750 12000
" />
</g>
<g style="fill:#FFFFFF; fill-opacity:0.0; 
stroke:#FFFFFF; stroke-width:393.701; stroke-opacity:1; 
stroke-linecap:round; stroke-linejoin:round;">
<path d="M11000 12250
L11250 12000
" />
<path d="M13781 13750
L14850 13750
" />
<path d="M14850 13750
L15000 13600
" />
<path d="M15000 13600
L15000 12500
" />
<path d="M15500 10281
L15500 12000
" />
</g>
<g style="fill:#FFFFFF; fill-opacity:0.0; 
stroke:#FFFFFF; stroke-width:157.48; stroke-opacity:1; 
stroke-linecap:round; stroke-linejoin:round;">
<path d="M15000 12500
L14750 12500
" />
<path d="M14750 12500
L14250 12500
" />
</g>
<g style="fill:#FFFFFF; fill-opacity:0.0; 
stroke:#FFFFFF; stroke-width:393.701; stroke-opacity:1; 
stroke-linecap:round; stroke-linejoin:round;">
<path d="M15500 12000
L15000 12500
" />
<path d="M6250 8218
L6250 7750
" />
<path d="M6250 7750
L7250 6750
" />
<path d="M11781 13750
L12718 13750
" />
</g>
<g style="fill:#FFFFFF; fill-opacity:1.0; 
stroke:#FFFFFF; stroke-width:100; stroke-opacity:1; 
stroke-linecap:round; stroke-linejoin:round;">
<polyline style="fill-rule:evenodd;"
points="20550,14650
5150,14650
5150,6100
5650,6100
5650,10600
5653,10619
5665,10635
5681,10646
5700,10650
8350,10650
8350,11800
8353,11819
8365,11835
8381,11846
8400,11850
9750,11850
9750,13300
9753,13319
9765,13335
9781,13346
9800,13350
10050,13350
10050,14200
10053,14219
10065,14235
10081,14246
10100,14250
15490,14250
15509,14246
15527,14233
16322,13350
16400,13350
16419,13346
16435,13334
16446,13318
16450,13300
16450,11050
16500,11050
16519,11046
16535,11034
16546,11018
16550,11000
16550,10750
17450,10750
17450,11000
17453,11019
17465,11035
17481,11046
17500,11050
19500,11050
19519,11046
19535,11034
19546,11018
19550,11000
19550,9100
19546,9080
19534,9064
19518,9053
19500,9050
19050,9050
19050,8650
19100,8650
19122,8644
19311,8550
19500,8550
19519,8546
19535,8534
19546,8518
19550,8500
19550,5800
19546,5780
19534,5764
19518,5753
19500,5750
17238,5750
17234,5744
17218,5733
17198,5730
17179,5734
17168,5740
16782,6050
11000,6050
10980,6053
10964,6065
10953,6081
10950,6100
10950,8450
10400,8450
10380,8453
10364,8465
10353,8481
10350,8500
10350,10150
9950,10150
9950,8500
9946,8480
9934,8464
9918,8453
9900,8450
9250,8450
9230,8453
9214,8465
9203,8481
9200,8500
9200,8700
8800,8700
8800,8500
8796,8480
8784,8464
8768,8453
8750,8450
8511,8450
8050,8219
8050,8200
8046,8180
8034,8164
8018,8153
8000,8150
6850,8150
6850,7820
6920,7750
8000,7750
8019,7746
8035,7734
8046,7718
8050,7700
8050,6100
8046,6080
8034,6064
8018,6053
8000,6050
5700,6050
5680,6053
5664,6065
5653,6081
5650,6100
5150,6100
5150,5150
20550,5150
20550,14650
" /> 
<polyline style="fill-rule:evenodd;"
points="16650,7150
16000,7150
15980,7153
15964,7165
15953,7181
15950,7200
15950,7550
11850,7550
11850,6450
16650,6450
16650,7150
" /> 
<polyline style="fill-rule:evenodd;"
points="17450,6450
17250,6450
17250,6150
17450,6150
17450,6450
" /> 
<polyline style="fill-rule:evenodd;"
points="9350,10250
7250,10250
7250,9850
7500,9850
7519,9846
7532,9838
8118,9350
9350,9350
9350,10250
" /> 
<polyline style="fill-rule:evenodd;"
points="7550,9279
7379,9450
7000,9450
6980,9453
6964,9464
6679,9750
6550,9750
6550,9450
6900,9450
6919,9446
6935,9434
6946,9418
6950,9400
6950,8850
7550,8850
7550,9279
" /> 
</g> 
</svg>
