<?xml version="1.0" encoding="UTF-8" standalone="no"?>
<svg
   xmlns:dc="http://purl.org/dc/elements/1.1/"
   xmlns:cc="http://creativecommons.org/ns#"
   xmlns:rdf="http://www.w3.org/1999/02/22-rdf-syntax-ns#"
   xmlns:svg="http://www.w3.org/2000/svg"
   xmlns="http://www.w3.org/2000/svg"
   xmlns:sodipodi="http://sodipodi.sourceforge.net/DTD/sodipodi-0.dtd"
   xmlns:inkscape="http://www.inkscape.org/namespaces/inkscape"
   version="1.1"
   width="4.01828cm"
   height="2.5781cm"
   viewBox="0 0 15820 10150 "
   id="svg716"
   sodipodi:docname="VCO-testboard-F.Cu.svg"
   inkscape:export-filename="/mnt/nfs/th/sps/fossa/Projects/Electronics/yiff-l/Hardware/VCO/Schematics/VCO-testboard-F.Cu.svg.png"
   inkscape:export-xdpi="1200"
   inkscape:export-ydpi="1200"
   inkscape:version="0.92.1 r15371">
  <metadata
     id="metadata722">
    <rdf:RDF>
      <cc:Work
         rdf:about="">
        <dc:format>image/svg+xml</dc:format>
        <dc:type
           rdf:resource="http://purl.org/dc/dcmitype/StillImage" />
      </cc:Work>
    </rdf:RDF>
  </metadata>
  <defs
     id="defs720" />
  <sodipodi:namedview
     pagecolor="#ffffff"
     bordercolor="#666666"
     borderopacity="1"
     objecttolerance="10"
     gridtolerance="10"
     guidetolerance="10"
     inkscape:pageopacity="0"
     inkscape:pageshadow="2"
     inkscape:window-width="1920"
     inkscape:window-height="1088"
     id="namedview718"
     showgrid="false"
     inkscape:zoom="6.8504599"
     inkscape:cx="86.345063"
     inkscape:cy="50.610131"
     inkscape:window-x="0"
     inkscape:window-y="40"
     inkscape:window-maximized="1"
     inkscape:current-layer="svg716" />
  <title
     id="title2">SVG Picture created as VCO-testboard-F.Cu.svg date 2018/09/30 20:41:00 </title>
  <desc
     id="desc4">Picture generated by PCBNEW </desc>
  <g
     style="fill:#000000; fill-opacity:1;stroke:#000000; stroke-opacity:1; stroke-linecap:round; stroke-linejoin:round; "
     transform="translate(0 0) scale(1 1)"
     id="g6" />
  <g
     style="fill:#000000; fill-opacity:0.0;  stroke:#000000; stroke-width:-0.000393701; stroke-opacity:1;  stroke-linecap:round; stroke-linejoin:round;"
     id="g8" />
  <g
     style="fill:#000000; fill-opacity:0.0;  stroke:#000000; stroke-width:0; stroke-opacity:1;  stroke-linecap:round; stroke-linejoin:round;"
     id="g10" />
  <g
     style="fill:#000000; fill-opacity:1.0;  stroke:#000000; stroke-width:0; stroke-opacity:1;  stroke-linecap:round; stroke-linejoin:round;"
     id="g14">
    <polyline
       style="fill-rule:evenodd;"
       points="11139,5269 11139,4469 11939,4469 11939,5269 11139,5269 "
       id="polyline12" />
  </g>
  <g
     style="fill:#000000; fill-opacity:1.0;  stroke:#000000; stroke-width:800; stroke-opacity:1;  stroke-linecap:round; stroke-linejoin:round;"
     id="g16" />
  <g
     style="fill:#000000; fill-opacity:0.0;  stroke:#000000; stroke-width:800; stroke-opacity:1;  stroke-linecap:round; stroke-linejoin:round;"
     id="g20">
    <path
       d="M11539 5869 L11539 5869 "
       id="path18" />
  </g>
  <g
     style="fill:#000000; fill-opacity:0.0;  stroke:#000000; stroke-width:0; stroke-opacity:1;  stroke-linecap:round; stroke-linejoin:round;"
     id="g22" />
  <g
     style="fill:#000000; fill-opacity:1.0;  stroke:#000000; stroke-width:0; stroke-opacity:1;  stroke-linecap:round; stroke-linejoin:round;"
     id="g86">
    <polyline
       style="fill-rule:evenodd;"
       points="2216,4190 1862,4190 1862,3875 2216,3875 2216,4190 "
       id="polyline24" />
    <polyline
       style="fill-rule:evenodd;"
       points="2216,3363 1862,3363 1862,3048 2216,3048 2216,3363 "
       id="polyline26" />
    <polyline
       style="fill-rule:evenodd;"
       points="2826,4873 2826,5365 2236,5365 2236,4873 2826,4873 "
       id="polyline28" />
    <polyline
       style="fill-rule:evenodd;"
       points="1842,4873 1842,5365 1251,5365 1251,4873 1842,4873 "
       id="polyline30" />
    <polyline
       style="fill-rule:evenodd;"
       points="13251,5115 13251,4623 13842,4623 13842,5115 13251,5115 "
       id="polyline32" />
    <polyline
       style="fill-rule:evenodd;"
       points="14236,5115 14236,4623 14826,4623 14826,5115 14236,5115 "
       id="polyline34" />
    <polyline
       style="fill-rule:evenodd;"
       points="4285,6406 3793,6406 3793,5815 4285,5815 4285,6406 "
       id="polyline36" />
    <polyline
       style="fill-rule:evenodd;"
       points="4285,5422 3793,5422 3793,4831 4285,4831 4285,5422 "
       id="polyline38" />
    <polyline
       style="fill-rule:evenodd;"
       points="6285,6406 5793,6406 5793,5815 6285,5815 6285,6406 "
       id="polyline40" />
    <polyline
       style="fill-rule:evenodd;"
       points="6285,5422 5793,5422 5793,4831 6285,4831 6285,5422 "
       id="polyline42" />
    <polyline
       style="fill-rule:evenodd;"
       points="6285,4656 5793,4656 5793,4065 6285,4065 6285,4656 "
       id="polyline44" />
    <polyline
       style="fill-rule:evenodd;"
       points="6285,3672 5793,3672 5793,3081 6285,3081 6285,3672 "
       id="polyline46" />
    <polyline
       style="fill-rule:evenodd;"
       points="12293,4581 12785,4581 12785,5172 12293,5172 12293,4581 "
       id="polyline48" />
    <polyline
       style="fill-rule:evenodd;"
       points="12293,5565 12785,5565 12785,6156 12293,6156 12293,5565 "
       id="polyline50" />
    <polyline
       style="fill-rule:evenodd;"
       points="8251,3615 8251,3123 8842,3123 8842,3615 8251,3615 "
       id="polyline52" />
    <polyline
       style="fill-rule:evenodd;"
       points="9236,3615 9236,3123 9826,3123 9826,3615 9236,3615 "
       id="polyline54" />
    <polyline
       style="fill-rule:evenodd;"
       points="7326,2373 7326,2865 6736,2865 6736,2373 7326,2373 "
       id="polyline56" />
    <polyline
       style="fill-rule:evenodd;"
       points="6342,2373 6342,2865 5751,2865 5751,2373 6342,2373 "
       id="polyline58" />
    <polyline
       style="fill-rule:evenodd;"
       points="4466,4690 4112,4690 4112,4375 4466,4375 4466,4690 "
       id="polyline60" />
    <polyline
       style="fill-rule:evenodd;"
       points="4466,3863 4112,3863 4112,3548 4466,3548 4466,3863 "
       id="polyline62" />
    <polyline
       style="fill-rule:evenodd;"
       points="3612,3548 3966,3548 3966,3863 3612,3863 3612,3548 "
       id="polyline64" />
    <polyline
       style="fill-rule:evenodd;"
       points="3612,4375 3966,4375 3966,4690 3612,4690 3612,4375 "
       id="polyline66" />
    <polyline
       style="fill-rule:evenodd;"
       points="7014,8219 6564,8219 6564,8019 7014,8019 7014,8219 "
       id="polyline68" />
    <polyline
       style="fill-rule:evenodd;"
       points="7014,7719 6564,7719 6564,7519 7014,7519 7014,7719 "
       id="polyline70" />
    <polyline
       style="fill-rule:evenodd;"
       points="7014,7219 6564,7219 6564,7019 7014,7019 7014,7219 "
       id="polyline72" />
    <polyline
       style="fill-rule:evenodd;"
       points="7014,6719 6564,6719 6564,6519 7014,6519 7014,6719 "
       id="polyline74" />
    <polyline
       style="fill-rule:evenodd;"
       points="9514,6719 9064,6719 9064,6519 9514,6519 9514,6719 "
       id="polyline76" />
    <polyline
       style="fill-rule:evenodd;"
       points="9514,7219 9064,7219 9064,7019 9514,7019 9514,7219 "
       id="polyline78" />
    <polyline
       style="fill-rule:evenodd;"
       points="9514,7719 9064,7719 9064,7519 9514,7519 9514,7719 "
       id="polyline80" />
    <polyline
       style="fill-rule:evenodd;"
       points="9514,8219 9064,8219 9064,8019 9514,8019 9514,8219 "
       id="polyline82" />
    <polyline
       style="fill-rule:evenodd;"
       points="2689,2269 1889,2269 1889,1469 2689,1469 2689,2269 "
       id="polyline84" />
  </g>
  <g
     style="fill:#000000; fill-opacity:1.0;  stroke:#000000; stroke-width:800; stroke-opacity:1;  stroke-linecap:round; stroke-linejoin:round;"
     id="g88" />
  <g
     style="fill:#000000; fill-opacity:0.0;  stroke:#000000; stroke-width:800; stroke-opacity:1;  stroke-linecap:round; stroke-linejoin:round;"
     id="g92">
    <path
       d="M3289 1869 L3289 1869 "
       id="path90" />
  </g>
  <g
     style="fill:#000000; fill-opacity:0.0;  stroke:#000000; stroke-width:0; stroke-opacity:1;  stroke-linecap:round; stroke-linejoin:round;"
     id="g94" />
  <g
     style="fill:#000000; fill-opacity:1.0;  stroke:#000000; stroke-width:0; stroke-opacity:1;  stroke-linecap:round; stroke-linejoin:round;"
     id="g98">
    <polyline
       style="fill-rule:evenodd;"
       points="6639,1469 7439,1469 7439,2269 6639,2269 6639,1469 "
       id="polyline96" />
  </g>
  <g
     style="fill:#000000; fill-opacity:1.0;  stroke:#000000; stroke-width:800; stroke-opacity:1;  stroke-linecap:round; stroke-linejoin:round;"
     id="g100" />
  <g
     style="fill:#000000; fill-opacity:0.0;  stroke:#000000; stroke-width:800; stroke-opacity:1;  stroke-linecap:round; stroke-linejoin:round;"
     id="g104">
    <path
       d="M6039 1869 L6039 1869 "
       id="path102" />
  </g>
  <g
     style="fill:#000000; fill-opacity:0.0;  stroke:#000000; stroke-width:0; stroke-opacity:1;  stroke-linecap:round; stroke-linejoin:round;"
     id="g106" />
  <g
     style="fill:#000000; fill-opacity:1.0;  stroke:#000000; stroke-width:0; stroke-opacity:1;  stroke-linecap:round; stroke-linejoin:round;"
     id="g110">
    <polyline
       style="fill-rule:evenodd;"
       points="5139,6969 5939,6969 5939,7769 5139,7769 5139,6969 "
       id="polyline108" />
  </g>
  <g
     style="fill:#000000; fill-opacity:1.0;  stroke:#000000; stroke-width:800; stroke-opacity:1;  stroke-linecap:round; stroke-linejoin:round;"
     id="g112" />
  <g
     style="fill:#000000; fill-opacity:0.0;  stroke:#000000; stroke-width:800; stroke-opacity:1;  stroke-linecap:round; stroke-linejoin:round;"
     id="g116">
    <path
       d="M4539 7369 L4539 7369 "
       id="path114" />
  </g>
  <g
     style="fill:#000000; fill-opacity:1.0;  stroke:#000000; stroke-width:0; stroke-opacity:1;  stroke-linecap:round; stroke-linejoin:round;"
     id="g120">
    <circle
       cx="3289.37"
       cy="3135.14"
       r="295.5"
       id="circle118" />
  </g>
  <g
     style="fill:#000000; fill-opacity:1.0;  stroke:#000000; stroke-width:39.3701; stroke-opacity:1;  stroke-linecap:round; stroke-linejoin:round;"
     id="g122" />
  <g
     style="fill:#000000; fill-opacity:1.0;  stroke:#000000; stroke-width:0; stroke-opacity:1;  stroke-linecap:round; stroke-linejoin:round;"
     id="g126">
    <circle
       cx="3289.37"
       cy="5103.14"
       r="295.5"
       id="circle124" />
  </g>
  <g
     style="fill:#000000; fill-opacity:1.0;  stroke:#000000; stroke-width:39.3701; stroke-opacity:1;  stroke-linecap:round; stroke-linejoin:round;"
     id="g128" />
  <g
     style="fill:#000000; fill-opacity:1.0;  stroke:#000000; stroke-width:0; stroke-opacity:1;  stroke-linecap:round; stroke-linejoin:round;"
     id="g192">
    <polyline
       style="fill-rule:evenodd;"
       points="1545,4695 1033,4695 1033,4105 1545,4105 1545,4695 "
       id="polyline130" />
    <polyline
       style="fill-rule:evenodd;"
       points="1545,3632 1033,3632 1033,3042 1545,3042 1545,3632 "
       id="polyline132" />
    <polyline
       style="fill-rule:evenodd;"
       points="11283,1792 11795,1792 11795,2382 11283,2382 11283,1792 "
       id="polyline134" />
    <polyline
       style="fill-rule:evenodd;"
       points="11283,2855 11795,2855 11795,3445 11283,3445 11283,2855 "
       id="polyline136" />
    <polyline
       style="fill-rule:evenodd;"
       points="13212,5875 13212,5363 13803,5363 13803,5875 13212,5875 "
       id="polyline138" />
    <polyline
       style="fill-rule:evenodd;"
       points="14275,5875 14275,5363 14866,5363 14866,5875 14275,5875 "
       id="polyline140" />
    <polyline
       style="fill-rule:evenodd;"
       points="5545,6445 5033,6445 5033,5855 5545,5855 5545,6445 "
       id="polyline142" />
    <polyline
       style="fill-rule:evenodd;"
       points="5545,5382 5033,5382 5033,4792 5545,4792 5545,5382 "
       id="polyline144" />
    <polyline
       style="fill-rule:evenodd;"
       points="8116,3113 8116,3625 7525,3625 7525,3113 8116,3113 "
       id="polyline146" />
    <polyline
       style="fill-rule:evenodd;"
       points="7053,3113 7053,3625 6462,3625 6462,3113 7053,3113 "
       id="polyline148" />
    <polyline
       style="fill-rule:evenodd;"
       points="10045,5695 9533,5695 9533,5105 10045,5105 10045,5695 "
       id="polyline150" />
    <polyline
       style="fill-rule:evenodd;"
       points="10045,4632 9533,4632 9533,4042 10045,4042 10045,4632 "
       id="polyline152" />
    <polyline
       style="fill-rule:evenodd;"
       points="10795,5695 10283,5695 10283,5105 10795,5105 10795,5695 "
       id="polyline154" />
    <polyline
       style="fill-rule:evenodd;"
       points="10795,4632 10283,4632 10283,4042 10795,4042 10795,4632 "
       id="polyline156" />
    <polyline
       style="fill-rule:evenodd;"
       points="9116,8613 9116,9125 8525,9125 8525,8613 9116,8613 "
       id="polyline158" />
    <polyline
       style="fill-rule:evenodd;"
       points="8053,8613 8053,9125 7462,9125 7462,8613 8053,8613 "
       id="polyline160" />
    <polyline
       style="fill-rule:evenodd;"
       points="7116,8613 7116,9125 6525,9125 6525,8613 7116,8613 "
       id="polyline162" />
    <polyline
       style="fill-rule:evenodd;"
       points="6053,8613 6053,9125 5462,9125 5462,8613 6053,8613 "
       id="polyline164" />
    <polyline
       style="fill-rule:evenodd;"
       points="12439,1594 12439,1144 12639,1144 12639,1594 12439,1594 "
       id="polyline166" />
    <polyline
       style="fill-rule:evenodd;"
       points="12939,1594 12939,1144 13139,1144 13139,1594 12939,1594 "
       id="polyline168" />
    <polyline
       style="fill-rule:evenodd;"
       points="13439,1594 13439,1144 13639,1144 13639,1594 13439,1594 "
       id="polyline170" />
    <polyline
       style="fill-rule:evenodd;"
       points="13939,1594 13939,1144 14139,1144 14139,1594 13939,1594 "
       id="polyline172" />
    <polyline
       style="fill-rule:evenodd;"
       points="13939,4094 13939,3644 14139,3644 14139,4094 13939,4094 "
       id="polyline174" />
    <polyline
       style="fill-rule:evenodd;"
       points="13439,4094 13439,3644 13639,3644 13639,4094 13439,4094 "
       id="polyline176" />
    <polyline
       style="fill-rule:evenodd;"
       points="12939,4094 12939,3644 13139,3644 13139,4094 12939,4094 "
       id="polyline178" />
    <polyline
       style="fill-rule:evenodd;"
       points="12439,4094 12439,3644 12639,3644 12639,4094 12439,4094 "
       id="polyline180" />
    <polyline
       style="fill-rule:evenodd;"
       points="2716,4190 2362,4190 2362,3875 2716,3875 2716,4190 "
       id="polyline182" />
    <polyline
       style="fill-rule:evenodd;"
       points="2716,3363 2362,3363 2362,3048 2716,3048 2716,3363 "
       id="polyline184" />
    <polyline
       style="fill-rule:evenodd;"
       points="6968,4402 6968,4087 7322,4087 7322,4402 6968,4402 "
       id="polyline186" />
    <polyline
       style="fill-rule:evenodd;"
       points="6968,5150 6968,4835 7322,4835 7322,5150 6968,5150 "
       id="polyline188" />
    <polyline
       style="fill-rule:evenodd;"
       points="7755,4776 7755,4461 8110,4461 8110,4776 7755,4776 "
       id="polyline190" />
  </g>
  <g
     style="fill:#000000; fill-opacity:1.0;  stroke:#000000; stroke-width:157.48; stroke-opacity:1;  stroke-linecap:round; stroke-linejoin:round;"
     id="g194" />
  <g
     style="fill:#000000; fill-opacity:0.0;  stroke:#000000; stroke-width:157.48; stroke-opacity:1;  stroke-linecap:round; stroke-linejoin:round;"
     id="g204">
    <path
       d="M4039 4819 L3639 4819 "
       id="path196" />
    <path
       d="M3639 4819 L3355 5103 "
       id="path198" />
    <path
       d="M3355 5103 L3539 4919 "
       id="path200" />
    <path
       d="M3539 4919 L3539 5103 "
       id="path202" />
  </g>
  <g
     style="fill:#000000; fill-opacity:0.0;  stroke:#000000; stroke-width:393.701; stroke-opacity:1;  stroke-linecap:round; stroke-linejoin:round;"
     id="g216">
    <path
       d="M3289 5103 L3539 5103 "
       id="path206" />
    <path
       d="M3539 5103 L4015 5103 "
       id="path208" />
    <path
       d="M4015 5103 L4039 5079 "
       id="path210" />
    <path
       d="M4039 5079 L4039 4819 "
       id="path212" />
    <path
       d="M4039 4819 L4039 4782 "
       id="path214" />
  </g>
  <g
     style="fill:#000000; fill-opacity:0.0;  stroke:#000000; stroke-width:98.4252; stroke-opacity:1;  stroke-linecap:round; stroke-linejoin:round;"
     id="g222">
    <path
       d="M4039 5127 L4039 4782 "
       id="path218" />
    <path
       d="M4039 4782 L3789 4532 "
       id="path220" />
  </g>
  <g
     style="fill:#000000; fill-opacity:0.0;  stroke:#000000; stroke-width:393.701; stroke-opacity:1;  stroke-linecap:round; stroke-linejoin:round;"
     id="g226">
    <path
       d="M2531 5119 L3273 5119 "
       id="path224" />
  </g>
  <g
     style="fill:#000000; fill-opacity:0.0;  stroke:#000000; stroke-width:98.4252; stroke-opacity:1;  stroke-linecap:round; stroke-linejoin:round;"
     id="g230">
    <path
       d="M3273 5119 L3289 5103 "
       id="path228" />
  </g>
  <g
     style="fill:#000000; fill-opacity:0.0;  stroke:#000000; stroke-width:157.48; stroke-opacity:1;  stroke-linecap:round; stroke-linejoin:round;"
     id="g236">
    <path
       d="M4289 4532 L3789 4532 "
       id="path232" />
    <path
       d="M3789 4532 L3289 5032 "
       id="path234" />
  </g>
  <g
     style="fill:#000000; fill-opacity:0.0;  stroke:#000000; stroke-width:98.4252; stroke-opacity:1;  stroke-linecap:round; stroke-linejoin:round;"
     id="g240">
    <path
       d="M3289 5032 L3289 5103 "
       id="path238" />
  </g>
  <g
     style="fill:#000000; fill-opacity:0.0;  stroke:#000000; stroke-width:393.701; stroke-opacity:1;  stroke-linecap:round; stroke-linejoin:round;"
     id="g254">
    <path
       d="M2039 4032 L2039 4369 "
       id="path242" />
    <path
       d="M2039 4369 L2007 4400 "
       id="path244" />
    <path
       d="M2007 4400 L1289 4400 "
       id="path246" />
    <path
       d="M2539 4032 L2039 4032 "
       id="path248" />
    <path
       d="M1547 5119 L1547 4658 "
       id="path250" />
    <path
       d="M1547 4658 L1289 4400 "
       id="path252" />
  </g>
  <g
     style="fill:#000000; fill-opacity:0.0;  stroke:#000000; stroke-width:98.4252; stroke-opacity:1;  stroke-linecap:round; stroke-linejoin:round;"
     id="g270">
    <path
       d="M2539 4032 L2039 4032 "
       id="path256" />
    <path
       d="M2039 4032 L2039 4369 "
       id="path258" />
    <path
       d="M2007 4400 L1289 4400 "
       id="path260" />
    <path
       d="M2039 4369 L2007 4400 "
       id="path262" />
    <path
       d="M1289 4400 L1547 4658 "
       id="path264" />
    <path
       d="M1547 4658 L1547 5119 "
       id="path266" />
    <path
       d="M1875 4032 L2539 4032 "
       id="path268" />
  </g>
  <g
     style="fill:#000000; fill-opacity:0.0;  stroke:#000000; stroke-width:157.48; stroke-opacity:1;  stroke-linecap:round; stroke-linejoin:round;"
     id="g274">
    <path
       d="M13539 3869 L13539 3119 "
       id="path272" />
  </g>
  <g
     style="fill:#000000; fill-opacity:0.0;  stroke:#000000; stroke-width:393.701; stroke-opacity:1;  stroke-linecap:round; stroke-linejoin:round;"
     id="g278">
    <path
       d="M13507 3150 L11539 3150 "
       id="path276" />
  </g>
  <g
     style="fill:#000000; fill-opacity:0.0;  stroke:#000000; stroke-width:98.4252; stroke-opacity:1;  stroke-linecap:round; stroke-linejoin:round;"
     id="g282">
    <path
       d="M13539 3119 L13507 3150 "
       id="path280" />
  </g>
  <g
     style="fill:#000000; fill-opacity:0.0;  stroke:#000000; stroke-width:157.48; stroke-opacity:1;  stroke-linecap:round; stroke-linejoin:round;"
     id="g286">
    <path
       d="M13547 4869 L13547 3877 "
       id="path284" />
  </g>
  <g
     style="fill:#000000; fill-opacity:0.0;  stroke:#000000; stroke-width:98.4252; stroke-opacity:1;  stroke-linecap:round; stroke-linejoin:round;"
     id="g290">
    <path
       d="M13547 3877 L13539 3869 "
       id="path288" />
  </g>
  <g
     style="fill:#000000; fill-opacity:0.0;  stroke:#000000; stroke-width:393.701; stroke-opacity:1;  stroke-linecap:round; stroke-linejoin:round;"
     id="g302">
    <path
       d="M13507 4829 L13507 5619 "
       id="path292" />
    <path
       d="M6757 3369 L6047 3369 "
       id="path294" />
    <path
       d="M6047 3369 L6039 3377 "
       id="path296" />
    <path
       d="M14570 5619 L14570 4908 "
       id="path298" />
    <path
       d="M14570 4908 L14531 4869 "
       id="path300" />
  </g>
  <g
     style="fill:#000000; fill-opacity:0.0;  stroke:#000000; stroke-width:98.4252; stroke-opacity:1;  stroke-linecap:round; stroke-linejoin:round;"
     id="g308">
    <path
       d="M3289 3135 L2609 3135 "
       id="path304" />
    <path
       d="M2609 3135 L2539 3205 "
       id="path306" />
  </g>
  <g
     style="fill:#000000; fill-opacity:0.0;  stroke:#000000; stroke-width:393.701; stroke-opacity:1;  stroke-linecap:round; stroke-linejoin:round;"
     id="g328">
    <path
       d="M6039 1869 L6039 3377 "
       id="path310" />
    <path
       d="M3289 1869 L3289 3135 "
       id="path312" />
    <path
       d="M3289 1869 L6039 1869 "
       id="path314" />
    <path
       d="M14570 5619 L14570 4908 "
       id="path316" />
    <path
       d="M14570 4908 L14531 4869 "
       id="path318" />
    <path
       d="M12539 5861 L11547 5861 "
       id="path320" />
    <path
       d="M11547 5861 L11539 5869 "
       id="path322" />
    <path
       d="M4539 7369 L4539 9619 "
       id="path324" />
    <path
       d="M4539 9619 L8289 9619 "
       id="path326" />
  </g>
  <g
     style="fill:#000000; fill-opacity:0.0;  stroke:#000000; stroke-width:157.48; stroke-opacity:1;  stroke-linecap:round; stroke-linejoin:round;"
     id="g332">
    <path
       d="M9289 6619 L8539 6619 "
       id="path330" />
  </g>
  <g
     style="fill:#000000; fill-opacity:0.0;  stroke:#000000; stroke-width:393.701; stroke-opacity:1;  stroke-linecap:round; stroke-linejoin:round;"
     id="g340">
    <path
       d="M11539 8369 L11539 5869 "
       id="path334" />
    <path
       d="M10289 9619 L11539 8369 "
       id="path336" />
    <path
       d="M8289 9619 L10289 9619 "
       id="path338" />
  </g>
  <g
     style="fill:#000000; fill-opacity:0.0;  stroke:#000000; stroke-width:157.48; stroke-opacity:1;  stroke-linecap:round; stroke-linejoin:round;"
     id="g346">
    <path
       d="M8289 6869 L8289 9619 "
       id="path342" />
    <path
       d="M8539 6619 L8289 6869 "
       id="path344" />
  </g>
  <g
     style="fill:#000000; fill-opacity:0.0;  stroke:#000000; stroke-width:98.4252; stroke-opacity:1;  stroke-linecap:round; stroke-linejoin:round;"
     id="g360">
    <path
       d="M6039 869 L14539 869 "
       id="path348" />
    <path
       d="M14531 877 L14531 4869 "
       id="path350" />
    <path
       d="M14539 869 L14531 877 "
       id="path352" />
    <path
       d="M6039 869 L3289 869 "
       id="path354" />
    <path
       d="M3289 869 L3289 1869 "
       id="path356" />
    <path
       d="M14039 3869 L14289 3869 "
       id="path358" />
  </g>
  <g
     style="fill:#000000; fill-opacity:0.0;  stroke:#000000; stroke-width:393.701; stroke-opacity:1;  stroke-linecap:round; stroke-linejoin:round;"
     id="g364">
    <path
       d="M14289 3869 L14531 4111 "
       id="path362" />
  </g>
  <g
     style="fill:#000000; fill-opacity:0.0;  stroke:#000000; stroke-width:98.4252; stroke-opacity:1;  stroke-linecap:round; stroke-linejoin:round;"
     id="g396">
    <path
       d="M14531 4111 L14531 4869 "
       id="path366" />
    <path
       d="M6039 869 L6039 1869 "
       id="path368" />
    <path
       d="M12539 5861 L12539 6119 "
       id="path370" />
    <path
       d="M12539 6119 L14539 6119 "
       id="path372" />
    <path
       d="M14570 6087 L14570 4908 "
       id="path374" />
    <path
       d="M14539 6119 L14570 6087 "
       id="path376" />
    <path
       d="M14570 4908 L14531 4869 "
       id="path378" />
    <path
       d="M11547 5861 L11539 5869 "
       id="path380" />
    <path
       d="M14531 4869 L14570 4908 "
       id="path382" />
    <path
       d="M6039 3377 L6039 2627 "
       id="path384" />
    <path
       d="M6039 2627 L6039 1869 "
       id="path386" />
    <path
       d="M6757 3369 L6047 3369 "
       id="path388" />
    <path
       d="M6047 3369 L6039 3377 "
       id="path390" />
    <path
       d="M6039 3377 L4618 3377 "
       id="path392" />
    <path
       d="M4618 3377 L4289 3705 "
       id="path394" />
  </g>
  <g
     style="fill:#000000; fill-opacity:0.0;  stroke:#000000; stroke-width:393.701; stroke-opacity:1;  stroke-linecap:round; stroke-linejoin:round;"
     id="g402">
    <path
       d="M5289 5087 L5289 3869 "
       id="path398" />
    <path
       d="M5125 3705 L4289 3705 "
       id="path400" />
  </g>
  <g
     style="fill:#000000; fill-opacity:0.0;  stroke:#000000; stroke-width:98.4252; stroke-opacity:1;  stroke-linecap:round; stroke-linejoin:round;"
     id="g416">
    <path
       d="M5289 3869 L5125 3705 "
       id="path404" />
    <path
       d="M3289 3135 L2109 3135 "
       id="path406" />
    <path
       d="M2109 3135 L2039 3205 "
       id="path408" />
    <path
       d="M4289 3705 L3789 3705 "
       id="path410" />
    <path
       d="M3789 3705 L3289 3205 "
       id="path412" />
    <path
       d="M3289 3205 L3289 3135 "
       id="path414" />
  </g>
  <g
     style="fill:#000000; fill-opacity:0.0;  stroke:#000000; stroke-width:118.11; stroke-opacity:1;  stroke-linecap:round; stroke-linejoin:round;"
     id="g426">
    <path
       d="M7933 4619 L6789 4619 "
       id="path418" />
    <path
       d="M6539 5611 L6039 6111 "
       id="path420" />
    <path
       d="M6539 4869 L6539 5611 "
       id="path422" />
    <path
       d="M6789 4619 L6539 4869 "
       id="path424" />
  </g>
  <g
     style="fill:#000000; fill-opacity:0.0;  stroke:#000000; stroke-width:393.701; stroke-opacity:1;  stroke-linecap:round; stroke-linejoin:round;"
     id="g430">
    <path
       d="M6039 6111 L5328 6111 "
       id="path428" />
  </g>
  <g
     style="fill:#000000; fill-opacity:0.0;  stroke:#000000; stroke-width:98.4252; stroke-opacity:1;  stroke-linecap:round; stroke-linejoin:round;"
     id="g434">
    <path
       d="M5328 6111 L5289 6150 "
       id="path432" />
  </g>
  <g
     style="fill:#000000; fill-opacity:0.0;  stroke:#000000; stroke-width:393.701; stroke-opacity:1;  stroke-linecap:round; stroke-linejoin:round;"
     id="g438">
    <path
       d="M5289 6150 L4078 6150 "
       id="path436" />
  </g>
  <g
     style="fill:#000000; fill-opacity:0.0;  stroke:#000000; stroke-width:98.4252; stroke-opacity:1;  stroke-linecap:round; stroke-linejoin:round;"
     id="g442">
    <path
       d="M4078 6150 L4039 6111 "
       id="path440" />
  </g>
  <g
     style="fill:#000000; fill-opacity:0.0;  stroke:#000000; stroke-width:393.701; stroke-opacity:1;  stroke-linecap:round; stroke-linejoin:round;"
     id="g452">
    <path
       d="M7820 3369 L8547 3369 "
       id="path444" />
    <path
       d="M7145 4245 L6155 4245 "
       id="path446" />
    <path
       d="M6155 4245 L6039 4361 "
       id="path448" />
    <path
       d="M6039 5127 L6039 4361 "
       id="path450" />
  </g>
  <g
     style="fill:#000000; fill-opacity:0.0;  stroke:#000000; stroke-width:118.11; stroke-opacity:1;  stroke-linecap:round; stroke-linejoin:round;"
     id="g456">
    <path
       d="M8547 3369 L7820 3369 "
       id="path454" />
  </g>
  <g
     style="fill:#000000; fill-opacity:0.0;  stroke:#000000; stroke-width:98.4252; stroke-opacity:1;  stroke-linecap:round; stroke-linejoin:round;"
     id="g464">
    <path
       d="M7145 4245 L6155 4245 "
       id="path458" />
    <path
       d="M6155 4245 L6039 4361 "
       id="path460" />
    <path
       d="M7820 3369 L7820 3569 "
       id="path462" />
  </g>
  <g
     style="fill:#000000; fill-opacity:0.0;  stroke:#000000; stroke-width:393.701; stroke-opacity:1;  stroke-linecap:round; stroke-linejoin:round;"
     id="g468">
    <path
       d="M7820 3569 L7145 4245 "
       id="path466" />
  </g>
  <g
     style="fill:#000000; fill-opacity:0.0;  stroke:#000000; stroke-width:98.4252; stroke-opacity:1;  stroke-linecap:round; stroke-linejoin:round;"
     id="g472">
    <path
       d="M6039 5127 L6039 4361 "
       id="path470" />
  </g>
  <g
     style="fill:#000000; fill-opacity:0.0;  stroke:#000000; stroke-width:393.701; stroke-opacity:1;  stroke-linecap:round; stroke-linejoin:round;"
     id="g486">
    <path
       d="M11539 4869 L12531 4869 "
       id="path474" />
    <path
       d="M12531 4869 L12539 4877 "
       id="path476" />
    <path
       d="M9789 4337 L10539 4337 "
       id="path478" />
    <path
       d="M10539 4337 L10557 4319 "
       id="path480" />
    <path
       d="M10557 4319 L10989 4319 "
       id="path482" />
    <path
       d="M10989 4319 L11539 4869 "
       id="path484" />
  </g>
  <g
     style="fill:#000000; fill-opacity:0.0;  stroke:#000000; stroke-width:98.4252; stroke-opacity:1;  stroke-linecap:round; stroke-linejoin:round;"
     id="g496">
    <path
       d="M11539 4869 L11039 4369 "
       id="path488" />
    <path
       d="M11039 4369 L10570 4369 "
       id="path490" />
    <path
       d="M10570 4369 L10539 4337 "
       id="path492" />
    <path
       d="M10539 4337 L9789 4337 "
       id="path494" />
  </g>
  <g
     style="fill:#000000; fill-opacity:0.0;  stroke:#000000; stroke-width:157.48; stroke-opacity:1;  stroke-linecap:round; stroke-linejoin:round;"
     id="g500">
    <path
       d="M12539 4877 L12539 3869 "
       id="path498" />
  </g>
  <g
     style="fill:#000000; fill-opacity:0.0;  stroke:#000000; stroke-width:98.4252; stroke-opacity:1;  stroke-linecap:round; stroke-linejoin:round;"
     id="g506">
    <path
       d="M12539 4877 L11547 4877 "
       id="path502" />
    <path
       d="M11547 4877 L11539 4869 "
       id="path504" />
  </g>
  <g
     style="fill:#000000; fill-opacity:0.0;  stroke:#000000; stroke-width:157.48; stroke-opacity:1;  stroke-linecap:round; stroke-linejoin:round;"
     id="g514">
    <path
       d="M13039 3869 L12539 3869 "
       id="path508" />
    <path
       d="M9289 7119 L9789 7119 "
       id="path510" />
    <path
       d="M9789 7119 L9789 5400 "
       id="path512" />
  </g>
  <g
     style="fill:#000000; fill-opacity:0.0;  stroke:#000000; stroke-width:98.4252; stroke-opacity:1;  stroke-linecap:round; stroke-linejoin:round;"
     id="g518">
    <path
       d="M9531 3369 L9531 3627 "
       id="path516" />
  </g>
  <g
     style="fill:#000000; fill-opacity:0.0;  stroke:#000000; stroke-width:157.48; stroke-opacity:1;  stroke-linecap:round; stroke-linejoin:round;"
     id="g522">
    <path
       d="M9070 5400 L9789 5400 "
       id="path520" />
  </g>
  <g
     style="fill:#000000; fill-opacity:0.0;  stroke:#000000; stroke-width:118.11; stroke-opacity:1;  stroke-linecap:round; stroke-linejoin:round;"
     id="g526">
    <path
       d="M9039 5369 L9070 5400 "
       id="path524" />
  </g>
  <g
     style="fill:#000000; fill-opacity:0.0;  stroke:#000000; stroke-width:157.48; stroke-opacity:1;  stroke-linecap:round; stroke-linejoin:round;"
     id="g532">
    <path
       d="M9039 4119 L9039 5369 "
       id="path528" />
    <path
       d="M9531 3627 L9039 4119 "
       id="path530" />
  </g>
  <g
     style="fill:#000000; fill-opacity:0.0;  stroke:#000000; stroke-width:393.701; stroke-opacity:1;  stroke-linecap:round; stroke-linejoin:round;"
     id="g542">
    <path
       d="M7039 1869 L11320 1869 "
       id="path534" />
    <path
       d="M11320 1869 L11539 2087 "
       id="path536" />
    <path
       d="M7031 2619 L7031 1877 "
       id="path538" />
    <path
       d="M7031 1877 L7039 1869 "
       id="path540" />
  </g>
  <g
     style="fill:#000000; fill-opacity:0.0;  stroke:#000000; stroke-width:157.48; stroke-opacity:1;  stroke-linecap:round; stroke-linejoin:round;"
     id="g550">
    <path
       d="M6789 7619 L7039 7619 "
       id="path544" />
    <path
       d="M7289 7369 L7289 5369 "
       id="path546" />
    <path
       d="M7039 7619 L7289 7369 "
       id="path548" />
  </g>
  <g
     style="fill:#000000; fill-opacity:0.0;  stroke:#000000; stroke-width:98.4252; stroke-opacity:1;  stroke-linecap:round; stroke-linejoin:round;"
     id="g558">
    <path
       d="M11539 2087 L8507 2087 "
       id="path552" />
    <path
       d="M8507 2087 L8289 1869 "
       id="path554" />
    <path
       d="M11539 2087 L11570 2087 "
       id="path556" />
  </g>
  <g
     style="fill:#000000; fill-opacity:0.0;  stroke:#000000; stroke-width:393.701; stroke-opacity:1;  stroke-linecap:round; stroke-linejoin:round;"
     id="g562">
    <path
       d="M11570 2087 L12289 1369 "
       id="path560" />
  </g>
  <g
     style="fill:#000000; fill-opacity:0.0;  stroke:#000000; stroke-width:98.4252; stroke-opacity:1;  stroke-linecap:round; stroke-linejoin:round;"
     id="g570">
    <path
       d="M12289 1369 L12539 1369 "
       id="path564" />
    <path
       d="M7031 2619 L7031 1877 "
       id="path566" />
    <path
       d="M7031 1877 L7039 1869 "
       id="path568" />
  </g>
  <g
     style="fill:#000000; fill-opacity:0.0;  stroke:#000000; stroke-width:157.48; stroke-opacity:1;  stroke-linecap:round; stroke-linejoin:round;"
     id="g582">
    <path
       d="M7145 4993 L7145 5225 "
       id="path572" />
    <path
       d="M7145 5225 L7289 5369 "
       id="path574" />
    <path
       d="M7289 5369 L8289 5369 "
       id="path576" />
    <path
       d="M8289 5369 L8539 5119 "
       id="path578" />
    <path
       d="M8539 5119 L8539 4119 "
       id="path580" />
  </g>
  <g
     style="fill:#000000; fill-opacity:0.0;  stroke:#000000; stroke-width:118.11; stroke-opacity:1;  stroke-linecap:round; stroke-linejoin:round;"
     id="g590">
    <path
       d="M8539 4119 L9039 3619 "
       id="path584" />
    <path
       d="M9039 3619 L9039 2619 "
       id="path586" />
    <path
       d="M9039 2619 L8289 1869 "
       id="path588" />
  </g>
  <g
     style="fill:#000000; fill-opacity:0.0;  stroke:#000000; stroke-width:98.4252; stroke-opacity:1;  stroke-linecap:round; stroke-linejoin:round;"
     id="g594">
    <path
       d="M8289 1869 L7039 1869 "
       id="path592" />
  </g>
  <g
     style="fill:#000000; fill-opacity:0.0;  stroke:#000000; stroke-width:393.701; stroke-opacity:1;  stroke-linecap:round; stroke-linejoin:round;"
     id="g598">
    <path
       d="M5757 8869 L5757 7587 "
       id="path596" />
  </g>
  <g
     style="fill:#000000; fill-opacity:0.0;  stroke:#000000; stroke-width:98.4252; stroke-opacity:1;  stroke-linecap:round; stroke-linejoin:round;"
     id="g602">
    <path
       d="M5757 7587 L5539 7369 "
       id="path600" />
  </g>
  <g
     style="fill:#000000; fill-opacity:0.0;  stroke:#000000; stroke-width:393.701; stroke-opacity:1;  stroke-linecap:round; stroke-linejoin:round;"
     id="g606">
    <path
       d="M5539 7369 L6039 7369 "
       id="path604" />
  </g>
  <g
     style="fill:#000000; fill-opacity:0.0;  stroke:#000000; stroke-width:157.48; stroke-opacity:1;  stroke-linecap:round; stroke-linejoin:round;"
     id="g610">
    <path
       d="M6289 7119 L6789 7119 "
       id="path608" />
  </g>
  <g
     style="fill:#000000; fill-opacity:0.0;  stroke:#000000; stroke-width:393.701; stroke-opacity:1;  stroke-linecap:round; stroke-linejoin:round;"
     id="g622">
    <path
       d="M6039 7369 L6289 7119 "
       id="path612" />
    <path
       d="M8820 8869 L9889 8869 "
       id="path614" />
    <path
       d="M9889 8869 L10039 8719 "
       id="path616" />
    <path
       d="M10039 8719 L10039 7619 "
       id="path618" />
    <path
       d="M10539 5400 L10539 7119 "
       id="path620" />
  </g>
  <g
     style="fill:#000000; fill-opacity:0.0;  stroke:#000000; stroke-width:157.48; stroke-opacity:1;  stroke-linecap:round; stroke-linejoin:round;"
     id="g628">
    <path
       d="M10039 7619 L9789 7619 "
       id="path624" />
    <path
       d="M9789 7619 L9289 7619 "
       id="path626" />
  </g>
  <g
     style="fill:#000000; fill-opacity:0.0;  stroke:#000000; stroke-width:393.701; stroke-opacity:1;  stroke-linecap:round; stroke-linejoin:round;"
     id="g638">
    <path
       d="M10539 7119 L10039 7619 "
       id="path630" />
    <path
       d="M1289 3337 L1289 2869 "
       id="path632" />
    <path
       d="M1289 2869 L2289 1869 "
       id="path634" />
    <path
       d="M6820 8869 L7757 8869 "
       id="path636" />
  </g>
  <g
     style="fill:#000000; fill-opacity:1.0;  stroke:#000000; stroke-width:100; stroke-opacity:1;  stroke-linecap:round; stroke-linejoin:round;"
     id="g650">
    <polyline
       style="fill-rule:evenodd;"
       points="15589,9769 189,9769 189,1219 689,1219 689,5719 693,5738 704,5754 721,5765 739,5769 3389,5769 3389,6919 3393,6938 3404,6954 3421,6965 3439,6969 4789,6969 4789,8419 4793,8438 4804,8454 4821,8465 4839,8469 5089,8469 5089,9319 5093,9338 5104,9354 5121,9365 5139,9369 10529,9369 10548,9365 10566,9352 11361,8469 11439,8469 11458,8465 11475,8454 11485,8437 11489,8419 11489,6169 11539,6169 11558,6165 11575,6154 11585,6137 11589,6119 11589,5869 12489,5869 12489,6119 12493,6138 12504,6154 12521,6165 12539,6169 14539,6169 14558,6165 14575,6154 14585,6137 14589,6119 14589,4219 14585,4199 14574,4183 14557,4172 14539,4169 14089,4169 14089,3769 14139,3769 14161,3763 14351,3669 14539,3669 14558,3665 14575,3654 14585,3637 14589,3619 14589,919 14585,899 14574,883 14557,872 14539,869 12278,869 12274,863 12257,852 12237,849 12218,853 12208,860 11821,1169 6039,1169 6019,1173 6003,1184 5992,1200 5989,1219 5989,3569 5439,3569 5419,3573 5403,3584 5392,3600 5389,3619 5389,5269 4989,5269 4989,3619 4985,3599 4974,3583 4957,3572 4939,3569 4289,3569 4269,3573 4253,3584 4242,3600 4239,3619 4239,3819 3839,3819 3839,3619 3835,3599 3824,3583 3807,3572 3789,3569 3551,3569 3089,3338 3089,3319 3085,3299 3074,3283 3057,3272 3039,3269 1889,3269 1889,2939 1960,2869 3039,2869 3058,2865 3075,2854 3085,2837 3089,2819 3089,1219 3085,1199 3074,1183 3057,1172 3039,1169 739,1169 719,1173 703,1184 692,1200 689,1219 189,1219 189,269 15589,269 15589,9769 "
       id="polyline640" />
    <polyline
       style="fill-rule:evenodd;"
       points="11689,2269 11039,2269 11019,2273 11003,2284 10992,2300 10989,2319 10989,2669 6889,2669 6889,1569 11689,1569 11689,2269 "
       id="polyline642" />
    <polyline
       style="fill-rule:evenodd;"
       points="12489,1569 12289,1569 12289,1269 12489,1269 12489,1569 "
       id="polyline644" />
    <polyline
       style="fill-rule:evenodd;"
       points="4389,5369 2289,5369 2289,4969 2539,4969 2558,4965 2571,4957 3157,4469 4389,4469 4389,5369 "
       id="polyline646" />
    <polyline
       style="fill-rule:evenodd;"
       points="2589,4398 2418,4569 2039,4569 2019,4573 2004,4583 1718,4869 1589,4869 1589,4569 1939,4569 1958,4565 1975,4554 1985,4537 1989,4519 1989,3969 2589,3969 2589,4398 "
       id="polyline648" />
  </g>
  <g
     style="fill:#FFFFFF; fill-opacity:1.0;  stroke:#FFFFFF; stroke-width:100; stroke-opacity:1;  stroke-linecap:round; stroke-linejoin:round;"
     id="g652" />
  <g
     style="fill:#FFFFFF; fill-opacity:1.0;  stroke:#FFFFFF; stroke-width:0; stroke-opacity:1;  stroke-linecap:round; stroke-linejoin:round;"
     id="g656">
    <circle
       cx="11539.4"
       cy="4869.14"
       r="200"
       id="circle654" />
  </g>
  <g
     style="fill:#FFFFFF; fill-opacity:1.0;  stroke:#FFFFFF; stroke-width:39.3701; stroke-opacity:1;  stroke-linecap:round; stroke-linejoin:round;"
     id="g658" />
  <g
     style="fill:#FFFFFF; fill-opacity:1.0;  stroke:#FFFFFF; stroke-width:0; stroke-opacity:1;  stroke-linecap:round; stroke-linejoin:round;"
     id="g662">
    <circle
       cx="11539.4"
       cy="5869.14"
       r="200"
       id="circle660" />
  </g>
  <g
     style="fill:#FFFFFF; fill-opacity:1.0;  stroke:#FFFFFF; stroke-width:39.3701; stroke-opacity:1;  stroke-linecap:round; stroke-linejoin:round;"
     id="g664" />
  <g
     style="fill:#FFFFFF; fill-opacity:1.0;  stroke:#FFFFFF; stroke-width:0; stroke-opacity:1;  stroke-linecap:round; stroke-linejoin:round;"
     id="g668">
    <circle
       cx="2289.37"
       cy="1869.14"
       r="200"
       id="circle666" />
  </g>
  <g
     style="fill:#FFFFFF; fill-opacity:1.0;  stroke:#FFFFFF; stroke-width:39.3701; stroke-opacity:1;  stroke-linecap:round; stroke-linejoin:round;"
     id="g670" />
  <g
     style="fill:#FFFFFF; fill-opacity:1.0;  stroke:#FFFFFF; stroke-width:0; stroke-opacity:1;  stroke-linecap:round; stroke-linejoin:round;"
     id="g674">
    <circle
       cx="3289.37"
       cy="1869.14"
       r="200"
       id="circle672" />
  </g>
  <g
     style="fill:#FFFFFF; fill-opacity:1.0;  stroke:#FFFFFF; stroke-width:39.3701; stroke-opacity:1;  stroke-linecap:round; stroke-linejoin:round;"
     id="g676" />
  <g
     style="fill:#FFFFFF; fill-opacity:1.0;  stroke:#FFFFFF; stroke-width:0; stroke-opacity:1;  stroke-linecap:round; stroke-linejoin:round;"
     id="g680">
    <circle
       cx="7039.37"
       cy="1869.14"
       r="200"
       id="circle678" />
  </g>
  <g
     style="fill:#FFFFFF; fill-opacity:1.0;  stroke:#FFFFFF; stroke-width:39.3701; stroke-opacity:1;  stroke-linecap:round; stroke-linejoin:round;"
     id="g682" />
  <g
     style="fill:#FFFFFF; fill-opacity:1.0;  stroke:#FFFFFF; stroke-width:0; stroke-opacity:1;  stroke-linecap:round; stroke-linejoin:round;"
     id="g686">
    <circle
       cx="6039.37"
       cy="1869.14"
       r="200"
       id="circle684" />
  </g>
  <g
     style="fill:#FFFFFF; fill-opacity:1.0;  stroke:#FFFFFF; stroke-width:39.3701; stroke-opacity:1;  stroke-linecap:round; stroke-linejoin:round;"
     id="g688" />
  <g
     style="fill:#FFFFFF; fill-opacity:1.0;  stroke:#FFFFFF; stroke-width:0; stroke-opacity:1;  stroke-linecap:round; stroke-linejoin:round;"
     id="g692">
    <circle
       cx="5539.37"
       cy="7369.14"
       r="200"
       id="circle690" />
  </g>
  <g
     style="fill:#FFFFFF; fill-opacity:1.0;  stroke:#FFFFFF; stroke-width:39.3701; stroke-opacity:1;  stroke-linecap:round; stroke-linejoin:round;"
     id="g694" />
  <g
     style="fill:#FFFFFF; fill-opacity:1.0;  stroke:#FFFFFF; stroke-width:0; stroke-opacity:1;  stroke-linecap:round; stroke-linejoin:round;"
     id="g698">
    <circle
       cx="4539.37"
       cy="7369.14"
       r="200"
       id="circle696" />
  </g>
  <g
     style="fill:#FFFFFF; fill-opacity:1.0;  stroke:#FFFFFF; stroke-width:39.3701; stroke-opacity:1;  stroke-linecap:round; stroke-linejoin:round;"
     id="g700" />
  <g
     style="fill:#FFFFFF; fill-opacity:1.0;  stroke:#FFFFFF; stroke-width:0; stroke-opacity:1;  stroke-linecap:round; stroke-linejoin:round;"
     id="g704">
    <circle
       cx="3289.37"
       cy="3135.14"
       r="157.5"
       id="circle702" />
  </g>
  <g
     style="fill:#FFFFFF; fill-opacity:1.0;  stroke:#FFFFFF; stroke-width:39.3701; stroke-opacity:1;  stroke-linecap:round; stroke-linejoin:round;"
     id="g706" />
  <g
     style="fill:#FFFFFF; fill-opacity:1.0;  stroke:#FFFFFF; stroke-width:0; stroke-opacity:1;  stroke-linecap:round; stroke-linejoin:round;"
     id="g710">
    <circle
       cx="3289.37"
       cy="5103.14"
       r="157.5"
       id="circle708" />
  </g>
  <g
     style="fill:#FFFFFF; fill-opacity:1.0;  stroke:#FFFFFF; stroke-width:39.3701; stroke-opacity:1;  stroke-linecap:round; stroke-linejoin:round;"
     id="g712" />
  <g
     style="fill:#000000; fill-opacity:1.0;  stroke:#000000; stroke-width:39.3701; stroke-opacity:1;  stroke-linecap:round; stroke-linejoin:round;"
     id="g714" />
</svg>
