<?xml version="1.0" encoding="UTF-8" standalone="no"?>
<svg
   xmlns:dc="http://purl.org/dc/elements/1.1/"
   xmlns:cc="http://creativecommons.org/ns#"
   xmlns:rdf="http://www.w3.org/1999/02/22-rdf-syntax-ns#"
   xmlns:svg="http://www.w3.org/2000/svg"
   xmlns="http://www.w3.org/2000/svg"
   xmlns:sodipodi="http://sodipodi.sourceforge.net/DTD/sodipodi-0.dtd"
   xmlns:inkscape="http://www.inkscape.org/namespaces/inkscape"
   version="1.1"
   width="4.01828cm"
   height="2.5781cm"
   viewBox="0 0 15820 10150 "
   id="svg732"
   sodipodi:docname="VCO-testboard-F.Cu.svg"
   inkscape:version="0.92.1 r15371">
  <metadata
     id="metadata738">
    <rdf:RDF>
      <cc:Work
         rdf:about="">
        <dc:format>image/svg+xml</dc:format>
        <dc:type
           rdf:resource="http://purl.org/dc/dcmitype/StillImage" />
      </cc:Work>
    </rdf:RDF>
  </metadata>
  <defs
     id="defs736" />
  <sodipodi:namedview
     pagecolor="#ffffff"
     bordercolor="#666666"
     borderopacity="1"
     objecttolerance="10"
     gridtolerance="10"
     guidetolerance="10"
     inkscape:pageopacity="0"
     inkscape:pageshadow="2"
     inkscape:window-width="1920"
     inkscape:window-height="1088"
     id="namedview734"
     showgrid="false"
     inkscape:zoom="2.4220033"
     inkscape:cx="75.936001"
     inkscape:cy="48.719999"
     inkscape:window-x="0"
     inkscape:window-y="40"
     inkscape:window-maximized="1"
     inkscape:current-layer="svg732" />
  <title
     id="title2">SVG Picture created as VCO-testboard-F.Cu.svg date 2018/09/30 23:19:26 </title>
  <desc
     id="desc4">Picture generated by PCBNEW </desc>
  <g
     id="g1103"
     inkscape:export-xdpi="1200"
     inkscape:export-ydpi="1200">
    <g
       id="g6"
       transform="translate(0 0) scale(1 1)"
       style="fill:#000000; fill-opacity:1;stroke:#000000; stroke-opacity:1; stroke-linecap:round; stroke-linejoin:round; " />
    <g
       id="g8"
       style="fill:#000000; fill-opacity:0.0;  stroke:#000000; stroke-width:-0.000393701; stroke-opacity:1;  stroke-linecap:round; stroke-linejoin:round;" />
    <g
       id="g10"
       style="fill:#000000; fill-opacity:0.0;  stroke:#000000; stroke-width:0; stroke-opacity:1;  stroke-linecap:round; stroke-linejoin:round;" />
    <g
       id="g14"
       style="fill:#000000; fill-opacity:1.0;  stroke:#000000; stroke-width:0; stroke-opacity:1;  stroke-linecap:round; stroke-linejoin:round;">
      <polyline
         id="polyline12"
         points="11139,5269 11139,4469 11939,4469 11939,5269 11139,5269 "
         style="fill-rule:evenodd;" />
    </g>
    <g
       id="g16"
       style="fill:#000000; fill-opacity:1.0;  stroke:#000000; stroke-width:800; stroke-opacity:1;  stroke-linecap:round; stroke-linejoin:round;" />
    <g
       id="g20"
       style="fill:#000000; fill-opacity:0.0;  stroke:#000000; stroke-width:800; stroke-opacity:1;  stroke-linecap:round; stroke-linejoin:round;">
      <path
         id="path18"
         d="M11539 5869 L11539 5869 " />
    </g>
    <g
       id="g22"
       style="fill:#000000; fill-opacity:0.0;  stroke:#000000; stroke-width:0; stroke-opacity:1;  stroke-linecap:round; stroke-linejoin:round;" />
    <g
       id="g86"
       style="fill:#000000; fill-opacity:1.0;  stroke:#000000; stroke-width:0; stroke-opacity:1;  stroke-linecap:round; stroke-linejoin:round;">
      <polyline
         id="polyline24"
         points="2216,4190 1862,4190 1862,3875 2216,3875 2216,4190 "
         style="fill-rule:evenodd;" />
      <polyline
         id="polyline26"
         points="2216,3363 1862,3363 1862,3048 2216,3048 2216,3363 "
         style="fill-rule:evenodd;" />
      <polyline
         id="polyline28"
         points="2826,4873 2826,5365 2236,5365 2236,4873 2826,4873 "
         style="fill-rule:evenodd;" />
      <polyline
         id="polyline30"
         points="1842,4873 1842,5365 1251,5365 1251,4873 1842,4873 "
         style="fill-rule:evenodd;" />
      <polyline
         id="polyline32"
         points="13251,5115 13251,4623 13842,4623 13842,5115 13251,5115 "
         style="fill-rule:evenodd;" />
      <polyline
         id="polyline34"
         points="14236,5115 14236,4623 14826,4623 14826,5115 14236,5115 "
         style="fill-rule:evenodd;" />
      <polyline
         id="polyline36"
         points="4285,6406 3793,6406 3793,5815 4285,5815 4285,6406 "
         style="fill-rule:evenodd;" />
      <polyline
         id="polyline38"
         points="4285,5422 3793,5422 3793,4831 4285,4831 4285,5422 "
         style="fill-rule:evenodd;" />
      <polyline
         id="polyline40"
         points="6285,6406 5793,6406 5793,5815 6285,5815 6285,6406 "
         style="fill-rule:evenodd;" />
      <polyline
         id="polyline42"
         points="6285,5422 5793,5422 5793,4831 6285,4831 6285,5422 "
         style="fill-rule:evenodd;" />
      <polyline
         id="polyline44"
         points="6285,4656 5793,4656 5793,4065 6285,4065 6285,4656 "
         style="fill-rule:evenodd;" />
      <polyline
         id="polyline46"
         points="6285,3672 5793,3672 5793,3081 6285,3081 6285,3672 "
         style="fill-rule:evenodd;" />
      <polyline
         id="polyline48"
         points="12293,4581 12785,4581 12785,5172 12293,5172 12293,4581 "
         style="fill-rule:evenodd;" />
      <polyline
         id="polyline50"
         points="12293,5565 12785,5565 12785,6156 12293,6156 12293,5565 "
         style="fill-rule:evenodd;" />
      <polyline
         id="polyline52"
         points="8251,3615 8251,3123 8842,3123 8842,3615 8251,3615 "
         style="fill-rule:evenodd;" />
      <polyline
         id="polyline54"
         points="9236,3615 9236,3123 9826,3123 9826,3615 9236,3615 "
         style="fill-rule:evenodd;" />
      <polyline
         id="polyline56"
         points="7326,2373 7326,2865 6736,2865 6736,2373 7326,2373 "
         style="fill-rule:evenodd;" />
      <polyline
         id="polyline58"
         points="6342,2373 6342,2865 5751,2865 5751,2373 6342,2373 "
         style="fill-rule:evenodd;" />
      <polyline
         id="polyline60"
         points="4466,4690 4112,4690 4112,4375 4466,4375 4466,4690 "
         style="fill-rule:evenodd;" />
      <polyline
         id="polyline62"
         points="4466,3863 4112,3863 4112,3548 4466,3548 4466,3863 "
         style="fill-rule:evenodd;" />
      <polyline
         id="polyline64"
         points="3612,3548 3966,3548 3966,3863 3612,3863 3612,3548 "
         style="fill-rule:evenodd;" />
      <polyline
         id="polyline66"
         points="3612,4375 3966,4375 3966,4690 3612,4690 3612,4375 "
         style="fill-rule:evenodd;" />
      <polyline
         id="polyline68"
         points="7014,8219 6564,8219 6564,8019 7014,8019 7014,8219 "
         style="fill-rule:evenodd;" />
      <polyline
         id="polyline70"
         points="7014,7719 6564,7719 6564,7519 7014,7519 7014,7719 "
         style="fill-rule:evenodd;" />
      <polyline
         id="polyline72"
         points="7014,7219 6564,7219 6564,7019 7014,7019 7014,7219 "
         style="fill-rule:evenodd;" />
      <polyline
         id="polyline74"
         points="7014,6719 6564,6719 6564,6519 7014,6519 7014,6719 "
         style="fill-rule:evenodd;" />
      <polyline
         id="polyline76"
         points="9514,6719 9064,6719 9064,6519 9514,6519 9514,6719 "
         style="fill-rule:evenodd;" />
      <polyline
         id="polyline78"
         points="9514,7219 9064,7219 9064,7019 9514,7019 9514,7219 "
         style="fill-rule:evenodd;" />
      <polyline
         id="polyline80"
         points="9514,7719 9064,7719 9064,7519 9514,7519 9514,7719 "
         style="fill-rule:evenodd;" />
      <polyline
         id="polyline82"
         points="9514,8219 9064,8219 9064,8019 9514,8019 9514,8219 "
         style="fill-rule:evenodd;" />
      <polyline
         id="polyline84"
         points="2689,2269 1889,2269 1889,1469 2689,1469 2689,2269 "
         style="fill-rule:evenodd;" />
    </g>
    <g
       id="g88"
       style="fill:#000000; fill-opacity:1.0;  stroke:#000000; stroke-width:800; stroke-opacity:1;  stroke-linecap:round; stroke-linejoin:round;" />
    <g
       id="g92"
       style="fill:#000000; fill-opacity:0.0;  stroke:#000000; stroke-width:800; stroke-opacity:1;  stroke-linecap:round; stroke-linejoin:round;">
      <path
         id="path90"
         d="M3289 1869 L3289 1869 " />
    </g>
    <g
       id="g94"
       style="fill:#000000; fill-opacity:0.0;  stroke:#000000; stroke-width:0; stroke-opacity:1;  stroke-linecap:round; stroke-linejoin:round;" />
    <g
       id="g98"
       style="fill:#000000; fill-opacity:1.0;  stroke:#000000; stroke-width:0; stroke-opacity:1;  stroke-linecap:round; stroke-linejoin:round;">
      <polyline
         id="polyline96"
         points="6639,1469 7439,1469 7439,2269 6639,2269 6639,1469 "
         style="fill-rule:evenodd;" />
    </g>
    <g
       id="g100"
       style="fill:#000000; fill-opacity:1.0;  stroke:#000000; stroke-width:800; stroke-opacity:1;  stroke-linecap:round; stroke-linejoin:round;" />
    <g
       id="g104"
       style="fill:#000000; fill-opacity:0.0;  stroke:#000000; stroke-width:800; stroke-opacity:1;  stroke-linecap:round; stroke-linejoin:round;">
      <path
         id="path102"
         d="M6039 1869 L6039 1869 " />
    </g>
    <g
       id="g106"
       style="fill:#000000; fill-opacity:0.0;  stroke:#000000; stroke-width:0; stroke-opacity:1;  stroke-linecap:round; stroke-linejoin:round;" />
    <g
       id="g110"
       style="fill:#000000; fill-opacity:1.0;  stroke:#000000; stroke-width:0; stroke-opacity:1;  stroke-linecap:round; stroke-linejoin:round;">
      <polyline
         id="polyline108"
         points="5139,6969 5939,6969 5939,7769 5139,7769 5139,6969 "
         style="fill-rule:evenodd;" />
    </g>
    <g
       id="g112"
       style="fill:#000000; fill-opacity:1.0;  stroke:#000000; stroke-width:800; stroke-opacity:1;  stroke-linecap:round; stroke-linejoin:round;" />
    <g
       id="g116"
       style="fill:#000000; fill-opacity:0.0;  stroke:#000000; stroke-width:800; stroke-opacity:1;  stroke-linecap:round; stroke-linejoin:round;">
      <path
         id="path114"
         d="M4539 7369 L4539 7369 " />
    </g>
    <g
       id="g120"
       style="fill:#000000; fill-opacity:1.0;  stroke:#000000; stroke-width:0; stroke-opacity:1;  stroke-linecap:round; stroke-linejoin:round;">
      <circle
         id="circle118"
         r="295.5"
         cy="3135.14"
         cx="3289.37" />
    </g>
    <g
       id="g122"
       style="fill:#000000; fill-opacity:1.0;  stroke:#000000; stroke-width:39.3701; stroke-opacity:1;  stroke-linecap:round; stroke-linejoin:round;" />
    <g
       id="g126"
       style="fill:#000000; fill-opacity:1.0;  stroke:#000000; stroke-width:0; stroke-opacity:1;  stroke-linecap:round; stroke-linejoin:round;">
      <circle
         id="circle124"
         r="295.5"
         cy="5103.14"
         cx="3289.37" />
    </g>
    <g
       id="g128"
       style="fill:#000000; fill-opacity:1.0;  stroke:#000000; stroke-width:39.3701; stroke-opacity:1;  stroke-linecap:round; stroke-linejoin:round;" />
    <g
       id="g192"
       style="fill:#000000; fill-opacity:1.0;  stroke:#000000; stroke-width:0; stroke-opacity:1;  stroke-linecap:round; stroke-linejoin:round;">
      <polyline
         id="polyline130"
         points="1545,4695 1033,4695 1033,4105 1545,4105 1545,4695 "
         style="fill-rule:evenodd;" />
      <polyline
         id="polyline132"
         points="1545,3632 1033,3632 1033,3042 1545,3042 1545,3632 "
         style="fill-rule:evenodd;" />
      <polyline
         id="polyline134"
         points="11283,1792 11795,1792 11795,2382 11283,2382 11283,1792 "
         style="fill-rule:evenodd;" />
      <polyline
         id="polyline136"
         points="11283,2855 11795,2855 11795,3445 11283,3445 11283,2855 "
         style="fill-rule:evenodd;" />
      <polyline
         id="polyline138"
         points="13212,5875 13212,5363 13803,5363 13803,5875 13212,5875 "
         style="fill-rule:evenodd;" />
      <polyline
         id="polyline140"
         points="14275,5875 14275,5363 14866,5363 14866,5875 14275,5875 "
         style="fill-rule:evenodd;" />
      <polyline
         id="polyline142"
         points="5545,6445 5033,6445 5033,5855 5545,5855 5545,6445 "
         style="fill-rule:evenodd;" />
      <polyline
         id="polyline144"
         points="5545,5382 5033,5382 5033,4792 5545,4792 5545,5382 "
         style="fill-rule:evenodd;" />
      <polyline
         id="polyline146"
         points="8116,3113 8116,3625 7525,3625 7525,3113 8116,3113 "
         style="fill-rule:evenodd;" />
      <polyline
         id="polyline148"
         points="7053,3113 7053,3625 6462,3625 6462,3113 7053,3113 "
         style="fill-rule:evenodd;" />
      <polyline
         id="polyline150"
         points="10045,5695 9533,5695 9533,5105 10045,5105 10045,5695 "
         style="fill-rule:evenodd;" />
      <polyline
         id="polyline152"
         points="10045,4632 9533,4632 9533,4042 10045,4042 10045,4632 "
         style="fill-rule:evenodd;" />
      <polyline
         id="polyline154"
         points="10795,5695 10283,5695 10283,5105 10795,5105 10795,5695 "
         style="fill-rule:evenodd;" />
      <polyline
         id="polyline156"
         points="10795,4632 10283,4632 10283,4042 10795,4042 10795,4632 "
         style="fill-rule:evenodd;" />
      <polyline
         id="polyline158"
         points="9116,8613 9116,9125 8525,9125 8525,8613 9116,8613 "
         style="fill-rule:evenodd;" />
      <polyline
         id="polyline160"
         points="8053,8613 8053,9125 7462,9125 7462,8613 8053,8613 "
         style="fill-rule:evenodd;" />
      <polyline
         id="polyline162"
         points="7116,8613 7116,9125 6525,9125 6525,8613 7116,8613 "
         style="fill-rule:evenodd;" />
      <polyline
         id="polyline164"
         points="6053,8613 6053,9125 5462,9125 5462,8613 6053,8613 "
         style="fill-rule:evenodd;" />
      <polyline
         id="polyline166"
         points="12439,1594 12439,1144 12639,1144 12639,1594 12439,1594 "
         style="fill-rule:evenodd;" />
      <polyline
         id="polyline168"
         points="12939,1594 12939,1144 13139,1144 13139,1594 12939,1594 "
         style="fill-rule:evenodd;" />
      <polyline
         id="polyline170"
         points="13439,1594 13439,1144 13639,1144 13639,1594 13439,1594 "
         style="fill-rule:evenodd;" />
      <polyline
         id="polyline172"
         points="13939,1594 13939,1144 14139,1144 14139,1594 13939,1594 "
         style="fill-rule:evenodd;" />
      <polyline
         id="polyline174"
         points="13939,4094 13939,3644 14139,3644 14139,4094 13939,4094 "
         style="fill-rule:evenodd;" />
      <polyline
         id="polyline176"
         points="13439,4094 13439,3644 13639,3644 13639,4094 13439,4094 "
         style="fill-rule:evenodd;" />
      <polyline
         id="polyline178"
         points="12939,4094 12939,3644 13139,3644 13139,4094 12939,4094 "
         style="fill-rule:evenodd;" />
      <polyline
         id="polyline180"
         points="12439,4094 12439,3644 12639,3644 12639,4094 12439,4094 "
         style="fill-rule:evenodd;" />
      <polyline
         id="polyline182"
         points="2716,4190 2362,4190 2362,3875 2716,3875 2716,4190 "
         style="fill-rule:evenodd;" />
      <polyline
         id="polyline184"
         points="2716,3363 2362,3363 2362,3048 2716,3048 2716,3363 "
         style="fill-rule:evenodd;" />
      <polyline
         id="polyline186"
         points="6968,4402 6968,4087 7322,4087 7322,4402 6968,4402 "
         style="fill-rule:evenodd;" />
      <polyline
         id="polyline188"
         points="6968,5150 6968,4835 7322,4835 7322,5150 6968,5150 "
         style="fill-rule:evenodd;" />
      <polyline
         id="polyline190"
         points="7755,4776 7755,4461 8110,4461 8110,4776 7755,4776 "
         style="fill-rule:evenodd;" />
    </g>
    <g
       id="g194"
       style="fill:#000000; fill-opacity:1.0;  stroke:#000000; stroke-width:157.48; stroke-opacity:1;  stroke-linecap:round; stroke-linejoin:round;" />
    <g
       id="g204"
       style="fill:#000000; fill-opacity:0.0;  stroke:#000000; stroke-width:157.48; stroke-opacity:1;  stroke-linecap:round; stroke-linejoin:round;">
      <path
         id="path196"
         d="M4039 4819 L3639 4819 " />
      <path
         id="path198"
         d="M3639 4819 L3355 5103 " />
      <path
         id="path200"
         d="M3355 5103 L3539 4919 " />
      <path
         id="path202"
         d="M3539 4919 L3539 5103 " />
    </g>
    <g
       id="g216"
       style="fill:#000000; fill-opacity:0.0;  stroke:#000000; stroke-width:393.701; stroke-opacity:1;  stroke-linecap:round; stroke-linejoin:round;">
      <path
         id="path206"
         d="M3289 5103 L3539 5103 " />
      <path
         id="path208"
         d="M3539 5103 L4015 5103 " />
      <path
         id="path210"
         d="M4015 5103 L4039 5079 " />
      <path
         id="path212"
         d="M4039 5079 L4039 4819 " />
      <path
         id="path214"
         d="M4039 4819 L4039 4782 " />
    </g>
    <g
       id="g222"
       style="fill:#000000; fill-opacity:0.0;  stroke:#000000; stroke-width:98.4252; stroke-opacity:1;  stroke-linecap:round; stroke-linejoin:round;">
      <path
         id="path218"
         d="M4039 5127 L4039 4782 " />
      <path
         id="path220"
         d="M4039 4782 L3789 4532 " />
    </g>
    <g
       id="g226"
       style="fill:#000000; fill-opacity:0.0;  stroke:#000000; stroke-width:393.701; stroke-opacity:1;  stroke-linecap:round; stroke-linejoin:round;">
      <path
         id="path224"
         d="M2531 5119 L3273 5119 " />
    </g>
    <g
       id="g230"
       style="fill:#000000; fill-opacity:0.0;  stroke:#000000; stroke-width:98.4252; stroke-opacity:1;  stroke-linecap:round; stroke-linejoin:round;">
      <path
         id="path228"
         d="M3273 5119 L3289 5103 " />
    </g>
    <g
       id="g236"
       style="fill:#000000; fill-opacity:0.0;  stroke:#000000; stroke-width:157.48; stroke-opacity:1;  stroke-linecap:round; stroke-linejoin:round;">
      <path
         id="path232"
         d="M4289 4532 L3789 4532 " />
      <path
         id="path234"
         d="M3789 4532 L3289 5032 " />
    </g>
    <g
       id="g240"
       style="fill:#000000; fill-opacity:0.0;  stroke:#000000; stroke-width:98.4252; stroke-opacity:1;  stroke-linecap:round; stroke-linejoin:round;">
      <path
         id="path238"
         d="M3289 5032 L3289 5103 " />
    </g>
    <g
       id="g254"
       style="fill:#000000; fill-opacity:0.0;  stroke:#000000; stroke-width:393.701; stroke-opacity:1;  stroke-linecap:round; stroke-linejoin:round;">
      <path
         id="path242"
         d="M2039 4032 L2039 4369 " />
      <path
         id="path244"
         d="M2039 4369 L2007 4400 " />
      <path
         id="path246"
         d="M2007 4400 L1289 4400 " />
      <path
         id="path248"
         d="M2539 4032 L2039 4032 " />
      <path
         id="path250"
         d="M1547 5119 L1547 4658 " />
      <path
         id="path252"
         d="M1547 4658 L1289 4400 " />
    </g>
    <g
       id="g270"
       style="fill:#000000; fill-opacity:0.0;  stroke:#000000; stroke-width:98.4252; stroke-opacity:1;  stroke-linecap:round; stroke-linejoin:round;">
      <path
         id="path256"
         d="M2539 4032 L2039 4032 " />
      <path
         id="path258"
         d="M2039 4032 L2039 4369 " />
      <path
         id="path260"
         d="M2007 4400 L1289 4400 " />
      <path
         id="path262"
         d="M2039 4369 L2007 4400 " />
      <path
         id="path264"
         d="M1289 4400 L1547 4658 " />
      <path
         id="path266"
         d="M1547 4658 L1547 5119 " />
      <path
         id="path268"
         d="M1875 4032 L2539 4032 " />
    </g>
    <g
       id="g274"
       style="fill:#000000; fill-opacity:0.0;  stroke:#000000; stroke-width:196.85; stroke-opacity:1;  stroke-linecap:round; stroke-linejoin:round;">
      <path
         id="path272"
         d="M13539 3869 L13539 3119 " />
    </g>
    <g
       id="g278"
       style="fill:#000000; fill-opacity:0.0;  stroke:#000000; stroke-width:393.701; stroke-opacity:1;  stroke-linecap:round; stroke-linejoin:round;">
      <path
         id="path276"
         d="M13507 3150 L11539 3150 " />
    </g>
    <g
       id="g282"
       style="fill:#000000; fill-opacity:0.0;  stroke:#000000; stroke-width:98.4252; stroke-opacity:1;  stroke-linecap:round; stroke-linejoin:round;">
      <path
         id="path280"
         d="M13539 3119 L13507 3150 " />
    </g>
    <g
       id="g286"
       style="fill:#000000; fill-opacity:0.0;  stroke:#000000; stroke-width:196.85; stroke-opacity:1;  stroke-linecap:round; stroke-linejoin:round;">
      <path
         id="path284"
         d="M13547 4869 L13547 3877 " />
    </g>
    <g
       id="g290"
       style="fill:#000000; fill-opacity:0.0;  stroke:#000000; stroke-width:98.4252; stroke-opacity:1;  stroke-linecap:round; stroke-linejoin:round;">
      <path
         id="path288"
         d="M13547 3877 L13539 3869 " />
    </g>
    <g
       id="g302"
       style="fill:#000000; fill-opacity:0.0;  stroke:#000000; stroke-width:393.701; stroke-opacity:1;  stroke-linecap:round; stroke-linejoin:round;">
      <path
         id="path292"
         d="M13507 4829 L13507 5619 " />
      <path
         id="path294"
         d="M6757 3369 L6047 3369 " />
      <path
         id="path296"
         d="M6047 3369 L6039 3377 " />
      <path
         id="path298"
         d="M14570 5619 L14570 4908 " />
      <path
         id="path300"
         d="M14570 4908 L14531 4869 " />
    </g>
    <g
       id="g308"
       style="fill:#000000; fill-opacity:0.0;  stroke:#000000; stroke-width:98.4252; stroke-opacity:1;  stroke-linecap:round; stroke-linejoin:round;">
      <path
         id="path304"
         d="M3289 3135 L2609 3135 " />
      <path
         id="path306"
         d="M2609 3135 L2539 3205 " />
    </g>
    <g
       id="g328"
       style="fill:#000000; fill-opacity:0.0;  stroke:#000000; stroke-width:393.701; stroke-opacity:1;  stroke-linecap:round; stroke-linejoin:round;">
      <path
         id="path310"
         d="M6039 1869 L6039 3377 " />
      <path
         id="path312"
         d="M3289 1869 L3289 3135 " />
      <path
         id="path314"
         d="M3289 1869 L6039 1869 " />
      <path
         id="path316"
         d="M14570 5619 L14570 4908 " />
      <path
         id="path318"
         d="M14570 4908 L14531 4869 " />
      <path
         id="path320"
         d="M12539 5861 L11547 5861 " />
      <path
         id="path322"
         d="M11547 5861 L11539 5869 " />
      <path
         id="path324"
         d="M4539 7369 L4539 9619 " />
      <path
         id="path326"
         d="M4539 9619 L8289 9619 " />
    </g>
    <g
       id="g332"
       style="fill:#000000; fill-opacity:0.0;  stroke:#000000; stroke-width:196.85; stroke-opacity:1;  stroke-linecap:round; stroke-linejoin:round;">
      <path
         id="path330"
         d="M9289 6619 L8539 6619 " />
    </g>
    <g
       id="g340"
       style="fill:#000000; fill-opacity:0.0;  stroke:#000000; stroke-width:393.701; stroke-opacity:1;  stroke-linecap:round; stroke-linejoin:round;">
      <path
         id="path334"
         d="M11539 8369 L11539 5869 " />
      <path
         id="path336"
         d="M10289 9619 L11539 8369 " />
      <path
         id="path338"
         d="M8289 9619 L10289 9619 " />
    </g>
    <g
       id="g346"
       style="fill:#000000; fill-opacity:0.0;  stroke:#000000; stroke-width:196.85; stroke-opacity:1;  stroke-linecap:round; stroke-linejoin:round;">
      <path
         id="path342"
         d="M8289 6869 L8289 9619 " />
      <path
         id="path344"
         d="M8539 6619 L8289 6869 " />
    </g>
    <g
       id="g360"
       style="fill:#000000; fill-opacity:0.0;  stroke:#000000; stroke-width:98.4252; stroke-opacity:1;  stroke-linecap:round; stroke-linejoin:round;">
      <path
         id="path348"
         d="M6039 869 L14539 869 " />
      <path
         id="path350"
         d="M14531 877 L14531 4869 " />
      <path
         id="path352"
         d="M14539 869 L14531 877 " />
      <path
         id="path354"
         d="M6039 869 L3289 869 " />
      <path
         id="path356"
         d="M3289 869 L3289 1869 " />
      <path
         id="path358"
         d="M14039 3869 L14289 3869 " />
    </g>
    <g
       id="g364"
       style="fill:#000000; fill-opacity:0.0;  stroke:#000000; stroke-width:393.701; stroke-opacity:1;  stroke-linecap:round; stroke-linejoin:round;">
      <path
         id="path362"
         d="M14289 3869 L14531 4111 " />
    </g>
    <g
       id="g396"
       style="fill:#000000; fill-opacity:0.0;  stroke:#000000; stroke-width:98.4252; stroke-opacity:1;  stroke-linecap:round; stroke-linejoin:round;">
      <path
         id="path366"
         d="M14531 4111 L14531 4869 " />
      <path
         id="path368"
         d="M6039 869 L6039 1869 " />
      <path
         id="path370"
         d="M12539 5861 L12539 6119 " />
      <path
         id="path372"
         d="M12539 6119 L14539 6119 " />
      <path
         id="path374"
         d="M14570 6087 L14570 4908 " />
      <path
         id="path376"
         d="M14539 6119 L14570 6087 " />
      <path
         id="path378"
         d="M14570 4908 L14531 4869 " />
      <path
         id="path380"
         d="M11547 5861 L11539 5869 " />
      <path
         id="path382"
         d="M14531 4869 L14570 4908 " />
      <path
         id="path384"
         d="M6039 3377 L6039 2627 " />
      <path
         id="path386"
         d="M6039 2627 L6039 1869 " />
      <path
         id="path388"
         d="M6757 3369 L6047 3369 " />
      <path
         id="path390"
         d="M6047 3369 L6039 3377 " />
      <path
         id="path392"
         d="M6039 3377 L4618 3377 " />
      <path
         id="path394"
         d="M4618 3377 L4289 3705 " />
    </g>
    <g
       id="g402"
       style="fill:#000000; fill-opacity:0.0;  stroke:#000000; stroke-width:393.701; stroke-opacity:1;  stroke-linecap:round; stroke-linejoin:round;">
      <path
         id="path398"
         d="M5289 5087 L5289 3869 " />
      <path
         id="path400"
         d="M5125 3705 L4289 3705 " />
    </g>
    <g
       id="g418"
       style="fill:#000000; fill-opacity:0.0;  stroke:#000000; stroke-width:98.4252; stroke-opacity:1;  stroke-linecap:round; stroke-linejoin:round;">
      <path
         id="path404"
         d="M5289 3869 L5125 3705 " />
      <path
         id="path406"
         d="M3289 3135 L2109 3135 " />
      <path
         id="path408"
         d="M2109 3135 L2039 3205 " />
      <path
         id="path410"
         d="M4289 3705 L3789 3705 " />
      <path
         id="path412"
         d="M3789 3705 L3289 3205 " />
      <path
         id="path414"
         d="M3289 3205 L3289 3135 " />
      <path
         id="path416"
         d="M7933 4619 L6789 4619 " />
    </g>
    <g
       id="g426"
       style="fill:#000000; fill-opacity:0.0;  stroke:#000000; stroke-width:196.85; stroke-opacity:1;  stroke-linecap:round; stroke-linejoin:round;">
      <path
         id="path420"
         d="M6497 6111 L6039 6111 " />
      <path
         id="path422"
         d="M6589 6019 L6497 6111 " />
      <path
         id="path424"
         d="M6589 4819 L6589 6019 " />
    </g>
    <g
       id="g430"
       style="fill:#000000; fill-opacity:0.0;  stroke:#000000; stroke-width:98.4252; stroke-opacity:1;  stroke-linecap:round; stroke-linejoin:round;">
      <path
         id="path428"
         d="M6789 4619 L6589 4819 " />
    </g>
    <g
       id="g434"
       style="fill:#000000; fill-opacity:0.0;  stroke:#000000; stroke-width:393.701; stroke-opacity:1;  stroke-linecap:round; stroke-linejoin:round;">
      <path
         id="path432"
         d="M6039 6111 L5328 6111 " />
    </g>
    <g
       id="g438"
       style="fill:#000000; fill-opacity:0.0;  stroke:#000000; stroke-width:98.4252; stroke-opacity:1;  stroke-linecap:round; stroke-linejoin:round;">
      <path
         id="path436"
         d="M5328 6111 L5289 6150 " />
    </g>
    <g
       id="g442"
       style="fill:#000000; fill-opacity:0.0;  stroke:#000000; stroke-width:393.701; stroke-opacity:1;  stroke-linecap:round; stroke-linejoin:round;">
      <path
         id="path440"
         d="M5289 6150 L4078 6150 " />
    </g>
    <g
       id="g446"
       style="fill:#000000; fill-opacity:0.0;  stroke:#000000; stroke-width:98.4252; stroke-opacity:1;  stroke-linecap:round; stroke-linejoin:round;">
      <path
         id="path444"
         d="M4078 6150 L4039 6111 " />
    </g>
    <g
       id="g456"
       style="fill:#000000; fill-opacity:0.0;  stroke:#000000; stroke-width:393.701; stroke-opacity:1;  stroke-linecap:round; stroke-linejoin:round;">
      <path
         id="path448"
         d="M7820 3369 L8547 3369 " />
      <path
         id="path450"
         d="M7145 4245 L6155 4245 " />
      <path
         id="path452"
         d="M6155 4245 L6039 4361 " />
      <path
         id="path454"
         d="M6039 5127 L6039 4361 " />
    </g>
    <g
       id="g460"
       style="fill:#000000; fill-opacity:0.0;  stroke:#000000; stroke-width:118.11; stroke-opacity:1;  stroke-linecap:round; stroke-linejoin:round;">
      <path
         id="path458"
         d="M8547 3369 L7820 3369 " />
    </g>
    <g
       id="g468"
       style="fill:#000000; fill-opacity:0.0;  stroke:#000000; stroke-width:98.4252; stroke-opacity:1;  stroke-linecap:round; stroke-linejoin:round;">
      <path
         id="path462"
         d="M7145 4245 L6155 4245 " />
      <path
         id="path464"
         d="M6155 4245 L6039 4361 " />
      <path
         id="path466"
         d="M7820 3369 L7820 3569 " />
    </g>
    <g
       id="g472"
       style="fill:#000000; fill-opacity:0.0;  stroke:#000000; stroke-width:393.701; stroke-opacity:1;  stroke-linecap:round; stroke-linejoin:round;">
      <path
         id="path470"
         d="M7820 3569 L7145 4245 " />
    </g>
    <g
       id="g476"
       style="fill:#000000; fill-opacity:0.0;  stroke:#000000; stroke-width:98.4252; stroke-opacity:1;  stroke-linecap:round; stroke-linejoin:round;">
      <path
         id="path474"
         d="M6039 5127 L6039 4361 " />
    </g>
    <g
       id="g490"
       style="fill:#000000; fill-opacity:0.0;  stroke:#000000; stroke-width:393.701; stroke-opacity:1;  stroke-linecap:round; stroke-linejoin:round;">
      <path
         id="path478"
         d="M11539 4869 L12531 4869 " />
      <path
         id="path480"
         d="M12531 4869 L12539 4877 " />
      <path
         id="path482"
         d="M9789 4337 L10539 4337 " />
      <path
         id="path484"
         d="M10539 4337 L10557 4319 " />
      <path
         id="path486"
         d="M10557 4319 L10989 4319 " />
      <path
         id="path488"
         d="M10989 4319 L11539 4869 " />
    </g>
    <g
       id="g500"
       style="fill:#000000; fill-opacity:0.0;  stroke:#000000; stroke-width:98.4252; stroke-opacity:1;  stroke-linecap:round; stroke-linejoin:round;">
      <path
         id="path492"
         d="M11539 4869 L11039 4369 " />
      <path
         id="path494"
         d="M11039 4369 L10570 4369 " />
      <path
         id="path496"
         d="M10570 4369 L10539 4337 " />
      <path
         id="path498"
         d="M10539 4337 L9789 4337 " />
    </g>
    <g
       id="g504"
       style="fill:#000000; fill-opacity:0.0;  stroke:#000000; stroke-width:196.85; stroke-opacity:1;  stroke-linecap:round; stroke-linejoin:round;">
      <path
         id="path502"
         d="M12539 4877 L12539 3869 " />
    </g>
    <g
       id="g510"
       style="fill:#000000; fill-opacity:0.0;  stroke:#000000; stroke-width:98.4252; stroke-opacity:1;  stroke-linecap:round; stroke-linejoin:round;">
      <path
         id="path506"
         d="M12539 4877 L11547 4877 " />
      <path
         id="path508"
         d="M11547 4877 L11539 4869 " />
    </g>
    <g
       id="g518"
       style="fill:#000000; fill-opacity:0.0;  stroke:#000000; stroke-width:196.85; stroke-opacity:1;  stroke-linecap:round; stroke-linejoin:round;">
      <path
         id="path512"
         d="M13039 3869 L12539 3869 " />
      <path
         id="path514"
         d="M9289 7119 L9789 7119 " />
      <path
         id="path516"
         d="M9789 7119 L9789 5400 " />
    </g>
    <g
       id="g522"
       style="fill:#000000; fill-opacity:0.0;  stroke:#000000; stroke-width:98.4252; stroke-opacity:1;  stroke-linecap:round; stroke-linejoin:round;">
      <path
         id="path520"
         d="M9531 3369 L9531 3627 " />
    </g>
    <g
       id="g526"
       style="fill:#000000; fill-opacity:0.0;  stroke:#000000; stroke-width:157.48; stroke-opacity:1;  stroke-linecap:round; stroke-linejoin:round;">
      <path
         id="path524"
         d="M9070 5400 L9789 5400 " />
    </g>
    <g
       id="g530"
       style="fill:#000000; fill-opacity:0.0;  stroke:#000000; stroke-width:118.11; stroke-opacity:1;  stroke-linecap:round; stroke-linejoin:round;">
      <path
         id="path528"
         d="M9039 5369 L9070 5400 " />
    </g>
    <g
       id="g536"
       style="fill:#000000; fill-opacity:0.0;  stroke:#000000; stroke-width:196.85; stroke-opacity:1;  stroke-linecap:round; stroke-linejoin:round;">
      <path
         id="path532"
         d="M9039 4119 L9039 5369 " />
      <path
         id="path534"
         d="M9531 3627 L9039 4119 " />
    </g>
    <g
       id="g540"
       style="fill:#000000; fill-opacity:0.0;  stroke:#000000; stroke-width:157.48; stroke-opacity:1;  stroke-linecap:round; stroke-linejoin:round;">
      <path
         id="path538"
         d="M7289 5369 L8289 5369 " />
    </g>
    <g
       id="g544"
       style="fill:#000000; fill-opacity:0.0;  stroke:#000000; stroke-width:118.11; stroke-opacity:1;  stroke-linecap:round; stroke-linejoin:round;">
      <path
         id="path542"
         d="M9039 2619 L8289 1869 " />
    </g>
    <g
       id="g548"
       style="fill:#000000; fill-opacity:0.0;  stroke:#000000; stroke-width:196.85; stroke-opacity:1;  stroke-linecap:round; stroke-linejoin:round;">
      <path
         id="path546"
         d="M9039 3619 L9039 2619 " />
    </g>
    <g
       id="g552"
       style="fill:#000000; fill-opacity:0.0;  stroke:#000000; stroke-width:118.11; stroke-opacity:1;  stroke-linecap:round; stroke-linejoin:round;">
      <path
         id="path550"
         d="M8539 4119 L9039 3619 " />
    </g>
    <g
       id="g558"
       style="fill:#000000; fill-opacity:0.0;  stroke:#000000; stroke-width:157.48; stroke-opacity:1;  stroke-linecap:round; stroke-linejoin:round;">
      <path
         id="path554"
         d="M8539 5119 L8539 4119 " />
      <path
         id="path556"
         d="M8289 5369 L8539 5119 " />
    </g>
    <g
       id="g568"
       style="fill:#000000; fill-opacity:0.0;  stroke:#000000; stroke-width:393.701; stroke-opacity:1;  stroke-linecap:round; stroke-linejoin:round;">
      <path
         id="path560"
         d="M7039 1869 L11320 1869 " />
      <path
         id="path562"
         d="M11320 1869 L11539 2087 " />
      <path
         id="path564"
         d="M7031 2619 L7031 1877 " />
      <path
         id="path566"
         d="M7031 1877 L7039 1869 " />
    </g>
    <g
       id="g576"
       style="fill:#000000; fill-opacity:0.0;  stroke:#000000; stroke-width:196.85; stroke-opacity:1;  stroke-linecap:round; stroke-linejoin:round;">
      <path
         id="path570"
         d="M6789 7619 L7039 7619 " />
      <path
         id="path572"
         d="M7289 7369 L7289 5369 " />
      <path
         id="path574"
         d="M7039 7619 L7289 7369 " />
    </g>
    <g
       id="g584"
       style="fill:#000000; fill-opacity:0.0;  stroke:#000000; stroke-width:98.4252; stroke-opacity:1;  stroke-linecap:round; stroke-linejoin:round;">
      <path
         id="path578"
         d="M11539 2087 L8507 2087 " />
      <path
         id="path580"
         d="M8507 2087 L8289 1869 " />
      <path
         id="path582"
         d="M11539 2087 L11570 2087 " />
    </g>
    <g
       id="g588"
       style="fill:#000000; fill-opacity:0.0;  stroke:#000000; stroke-width:393.701; stroke-opacity:1;  stroke-linecap:round; stroke-linejoin:round;">
      <path
         id="path586"
         d="M11570 2087 L12289 1369 " />
    </g>
    <g
       id="g592"
       style="fill:#000000; fill-opacity:0.0;  stroke:#000000; stroke-width:196.85; stroke-opacity:1;  stroke-linecap:round; stroke-linejoin:round;">
      <path
         id="path590"
         d="M12289 1369 L12539 1369 " />
    </g>
    <g
       id="g598"
       style="fill:#000000; fill-opacity:0.0;  stroke:#000000; stroke-width:98.4252; stroke-opacity:1;  stroke-linecap:round; stroke-linejoin:round;">
      <path
         id="path594"
         d="M7031 2619 L7031 1877 " />
      <path
         id="path596"
         d="M7031 1877 L7039 1869 " />
    </g>
    <g
       id="g604"
       style="fill:#000000; fill-opacity:0.0;  stroke:#000000; stroke-width:157.48; stroke-opacity:1;  stroke-linecap:round; stroke-linejoin:round;">
      <path
         id="path600"
         d="M7145 4993 L7145 5225 " />
      <path
         id="path602"
         d="M7145 5225 L7289 5369 " />
    </g>
    <g
       id="g608"
       style="fill:#000000; fill-opacity:0.0;  stroke:#000000; stroke-width:98.4252; stroke-opacity:1;  stroke-linecap:round; stroke-linejoin:round;">
      <path
         id="path606"
         d="M8289 1869 L7039 1869 " />
    </g>
    <g
       id="g612"
       style="fill:#000000; fill-opacity:0.0;  stroke:#000000; stroke-width:393.701; stroke-opacity:1;  stroke-linecap:round; stroke-linejoin:round;">
      <path
         id="path610"
         d="M5757 8869 L5757 7587 " />
    </g>
    <g
       id="g616"
       style="fill:#000000; fill-opacity:0.0;  stroke:#000000; stroke-width:98.4252; stroke-opacity:1;  stroke-linecap:round; stroke-linejoin:round;">
      <path
         id="path614"
         d="M5757 7587 L5539 7369 " />
    </g>
    <g
       id="g620"
       style="fill:#000000; fill-opacity:0.0;  stroke:#000000; stroke-width:393.701; stroke-opacity:1;  stroke-linecap:round; stroke-linejoin:round;">
      <path
         id="path618"
         d="M5539 7369 L6039 7369 " />
    </g>
    <g
       id="g624"
       style="fill:#000000; fill-opacity:0.0;  stroke:#000000; stroke-width:196.85; stroke-opacity:1;  stroke-linecap:round; stroke-linejoin:round;">
      <path
         id="path622"
         d="M6289 7119 L6789 7119 " />
    </g>
    <g
       id="g636"
       style="fill:#000000; fill-opacity:0.0;  stroke:#000000; stroke-width:393.701; stroke-opacity:1;  stroke-linecap:round; stroke-linejoin:round;">
      <path
         id="path626"
         d="M6039 7369 L6289 7119 " />
      <path
         id="path628"
         d="M8820 8869 L9889 8869 " />
      <path
         id="path630"
         d="M9889 8869 L10039 8719 " />
      <path
         id="path632"
         d="M10039 8719 L10039 7619 " />
      <path
         id="path634"
         d="M10539 5400 L10539 7119 " />
    </g>
    <g
       id="g640"
       style="fill:#000000; fill-opacity:0.0;  stroke:#000000; stroke-width:157.48; stroke-opacity:1;  stroke-linecap:round; stroke-linejoin:round;">
      <path
         id="path638"
         d="M10039 7619 L9789 7619 " />
    </g>
    <g
       id="g644"
       style="fill:#000000; fill-opacity:0.0;  stroke:#000000; stroke-width:196.85; stroke-opacity:1;  stroke-linecap:round; stroke-linejoin:round;">
      <path
         id="path642"
         d="M9789 7619 L9289 7619 " />
    </g>
    <g
       id="g654"
       style="fill:#000000; fill-opacity:0.0;  stroke:#000000; stroke-width:393.701; stroke-opacity:1;  stroke-linecap:round; stroke-linejoin:round;">
      <path
         id="path646"
         d="M10539 7119 L10039 7619 " />
      <path
         id="path648"
         d="M1289 3337 L1289 2869 " />
      <path
         id="path650"
         d="M1289 2869 L2289 1869 " />
      <path
         id="path652"
         d="M6820 8869 L7757 8869 " />
    </g>
    <g
       id="g666"
       style="fill:#000000; fill-opacity:1.0;  stroke:#000000; stroke-width:100; stroke-opacity:1;  stroke-linecap:round; stroke-linejoin:round;">
      <polyline
         id="polyline656"
         points="15589,9769 189,9769 189,1219 689,1219 689,5719 693,5738 704,5754 721,5765 739,5769 3389,5769 3389,6919 3393,6938 3404,6954 3421,6965 3439,6969 4789,6969 4789,8419 4793,8438 4804,8454 4821,8465 4839,8469 5089,8469 5089,9319 5093,9338 5104,9354 5121,9365 5139,9369 10529,9369 10548,9365 10566,9352 11361,8469 11439,8469 11458,8465 11475,8454 11485,8437 11489,8419 11489,6169 11539,6169 11558,6165 11575,6154 11585,6137 11589,6119 11589,5869 12489,5869 12489,6119 12493,6138 12504,6154 12521,6165 12539,6169 14539,6169 14558,6165 14575,6154 14585,6137 14589,6119 14589,4219 14585,4199 14574,4183 14557,4172 14539,4169 14089,4169 14089,3769 14139,3769 14161,3763 14351,3669 14539,3669 14558,3665 14575,3654 14585,3637 14589,3619 14589,919 14585,899 14574,883 14557,872 14539,869 12278,869 12274,863 12257,852 12237,849 12218,853 12208,860 11821,1169 6039,1169 6019,1173 6003,1184 5992,1200 5989,1219 5989,3569 5439,3569 5419,3573 5403,3584 5392,3600 5389,3619 5389,5269 4989,5269 4989,3619 4985,3599 4974,3583 4957,3572 4939,3569 4289,3569 4269,3573 4253,3584 4242,3600 4239,3619 4239,3819 3839,3819 3839,3619 3835,3599 3824,3583 3807,3572 3789,3569 3551,3569 3089,3338 3089,3319 3085,3299 3074,3283 3057,3272 3039,3269 1889,3269 1889,2939 1960,2869 3039,2869 3058,2865 3075,2854 3085,2837 3089,2819 3089,1219 3085,1199 3074,1183 3057,1172 3039,1169 739,1169 719,1173 703,1184 692,1200 689,1219 189,1219 189,269 15589,269 15589,9769 "
         style="fill-rule:evenodd;" />
      <polyline
         id="polyline658"
         points="11689,2269 11039,2269 11019,2273 11003,2284 10992,2300 10989,2319 10989,2669 6889,2669 6889,1569 11689,1569 11689,2269 "
         style="fill-rule:evenodd;" />
      <polyline
         id="polyline660"
         points="12489,1569 12289,1569 12289,1269 12489,1269 12489,1569 "
         style="fill-rule:evenodd;" />
      <polyline
         id="polyline662"
         points="4389,5369 2289,5369 2289,4969 2539,4969 2558,4965 2571,4957 3157,4469 4389,4469 4389,5369 "
         style="fill-rule:evenodd;" />
      <polyline
         id="polyline664"
         points="2589,4398 2418,4569 2039,4569 2019,4573 2004,4583 1718,4869 1589,4869 1589,4569 1939,4569 1958,4565 1975,4554 1985,4537 1989,4519 1989,3969 2589,3969 2589,4398 "
         style="fill-rule:evenodd;" />
    </g>
    <g
       id="g668"
       style="fill:#FFFFFF; fill-opacity:1.0;  stroke:#FFFFFF; stroke-width:100; stroke-opacity:1;  stroke-linecap:round; stroke-linejoin:round;" />
    <g
       id="g672"
       style="fill:#FFFFFF; fill-opacity:1.0;  stroke:#FFFFFF; stroke-width:0; stroke-opacity:1;  stroke-linecap:round; stroke-linejoin:round;">
      <circle
         id="circle670"
         r="200"
         cy="4869.14"
         cx="11539.4" />
    </g>
    <g
       id="g674"
       style="fill:#FFFFFF; fill-opacity:1.0;  stroke:#FFFFFF; stroke-width:39.3701; stroke-opacity:1;  stroke-linecap:round; stroke-linejoin:round;" />
    <g
       id="g678"
       style="fill:#FFFFFF; fill-opacity:1.0;  stroke:#FFFFFF; stroke-width:0; stroke-opacity:1;  stroke-linecap:round; stroke-linejoin:round;">
      <circle
         id="circle676"
         r="200"
         cy="5869.14"
         cx="11539.4" />
    </g>
    <g
       id="g680"
       style="fill:#FFFFFF; fill-opacity:1.0;  stroke:#FFFFFF; stroke-width:39.3701; stroke-opacity:1;  stroke-linecap:round; stroke-linejoin:round;" />
    <g
       id="g684"
       style="fill:#FFFFFF; fill-opacity:1.0;  stroke:#FFFFFF; stroke-width:0; stroke-opacity:1;  stroke-linecap:round; stroke-linejoin:round;">
      <circle
         id="circle682"
         r="200"
         cy="1869.14"
         cx="2289.37" />
    </g>
    <g
       id="g686"
       style="fill:#FFFFFF; fill-opacity:1.0;  stroke:#FFFFFF; stroke-width:39.3701; stroke-opacity:1;  stroke-linecap:round; stroke-linejoin:round;" />
    <g
       id="g690"
       style="fill:#FFFFFF; fill-opacity:1.0;  stroke:#FFFFFF; stroke-width:0; stroke-opacity:1;  stroke-linecap:round; stroke-linejoin:round;">
      <circle
         id="circle688"
         r="200"
         cy="1869.14"
         cx="3289.37" />
    </g>
    <g
       id="g692"
       style="fill:#FFFFFF; fill-opacity:1.0;  stroke:#FFFFFF; stroke-width:39.3701; stroke-opacity:1;  stroke-linecap:round; stroke-linejoin:round;" />
    <g
       id="g696"
       style="fill:#FFFFFF; fill-opacity:1.0;  stroke:#FFFFFF; stroke-width:0; stroke-opacity:1;  stroke-linecap:round; stroke-linejoin:round;">
      <circle
         id="circle694"
         r="200"
         cy="1869.14"
         cx="7039.37" />
    </g>
    <g
       id="g698"
       style="fill:#FFFFFF; fill-opacity:1.0;  stroke:#FFFFFF; stroke-width:39.3701; stroke-opacity:1;  stroke-linecap:round; stroke-linejoin:round;" />
    <g
       id="g702"
       style="fill:#FFFFFF; fill-opacity:1.0;  stroke:#FFFFFF; stroke-width:0; stroke-opacity:1;  stroke-linecap:round; stroke-linejoin:round;">
      <circle
         id="circle700"
         r="200"
         cy="1869.14"
         cx="6039.37" />
    </g>
    <g
       id="g704"
       style="fill:#FFFFFF; fill-opacity:1.0;  stroke:#FFFFFF; stroke-width:39.3701; stroke-opacity:1;  stroke-linecap:round; stroke-linejoin:round;" />
    <g
       id="g708"
       style="fill:#FFFFFF; fill-opacity:1.0;  stroke:#FFFFFF; stroke-width:0; stroke-opacity:1;  stroke-linecap:round; stroke-linejoin:round;">
      <circle
         id="circle706"
         r="200"
         cy="7369.14"
         cx="5539.37" />
    </g>
    <g
       id="g710"
       style="fill:#FFFFFF; fill-opacity:1.0;  stroke:#FFFFFF; stroke-width:39.3701; stroke-opacity:1;  stroke-linecap:round; stroke-linejoin:round;" />
    <g
       id="g714"
       style="fill:#FFFFFF; fill-opacity:1.0;  stroke:#FFFFFF; stroke-width:0; stroke-opacity:1;  stroke-linecap:round; stroke-linejoin:round;">
      <circle
         id="circle712"
         r="200"
         cy="7369.14"
         cx="4539.37" />
    </g>
    <g
       id="g716"
       style="fill:#FFFFFF; fill-opacity:1.0;  stroke:#FFFFFF; stroke-width:39.3701; stroke-opacity:1;  stroke-linecap:round; stroke-linejoin:round;" />
    <g
       id="g720"
       style="fill:#FFFFFF; fill-opacity:1.0;  stroke:#FFFFFF; stroke-width:0; stroke-opacity:1;  stroke-linecap:round; stroke-linejoin:round;">
      <circle
         id="circle718"
         r="157.5"
         cy="3135.14"
         cx="3289.37" />
    </g>
    <g
       id="g722"
       style="fill:#FFFFFF; fill-opacity:1.0;  stroke:#FFFFFF; stroke-width:39.3701; stroke-opacity:1;  stroke-linecap:round; stroke-linejoin:round;" />
    <g
       id="g726"
       style="fill:#FFFFFF; fill-opacity:1.0;  stroke:#FFFFFF; stroke-width:0; stroke-opacity:1;  stroke-linecap:round; stroke-linejoin:round;">
      <circle
         id="circle724"
         r="157.5"
         cy="5103.14"
         cx="3289.37" />
    </g>
    <g
       id="g728"
       style="fill:#FFFFFF; fill-opacity:1.0;  stroke:#FFFFFF; stroke-width:39.3701; stroke-opacity:1;  stroke-linecap:round; stroke-linejoin:round;" />
    <g
       id="g730"
       style="fill:#000000; fill-opacity:1.0;  stroke:#000000; stroke-width:39.3701; stroke-opacity:1;  stroke-linecap:round; stroke-linejoin:round;" />
  </g>
</svg>
