M48
INCH,TZ
T1C0.0157
T2C0.0276
T3C0.0315
T4C0.0394
T5C0.0433
T6C0.0472
T7C0.0512
%
G90
G05
T1
X30100Y-35000
X30100Y-35700
X30100Y-36400
X30100Y-37100
X30100Y-37800
X30100Y-38500
X30100Y-39200
X30100Y-39900
X30100Y-40600
X30100Y-41300
X30100Y-42000
X30100Y-42700
X30100Y-43400
X30100Y-44100
X30100Y-44800
X30100Y-45500
X30100Y-46200
X30100Y-46900
X30100Y-47600
X30100Y-48300
X30100Y-49000
X30400Y-49400
X30700Y-34900
X31100Y-49400
X31400Y-34900
X31800Y-49400
X31900Y-52700
X32100Y-34900
X32717Y-52617
X32800Y-34900
X33500Y-34900
X34200Y-34900
X34900Y-34900
X35300Y-51900
X35600Y-34900
X35900Y-52800
X35919Y-50519
X36300Y-34900
X37000Y-34900
X37200Y-49300
X37650Y-40850
X37700Y-34900
X37800Y-39900
X37900Y-49300
X38400Y-34900
X38600Y-49300
X39100Y-34900
X39300Y-49300
X39800Y-34900
X39800Y-35600
X39800Y-36600
X39800Y-37600
X39800Y-38600
X39800Y-39600
X39800Y-40600
X39800Y-42600
X39800Y-43600
X39800Y-44600
X39800Y-45500
X39800Y-47600
X39800Y-48600
X39800Y-49600
X39800Y-50600
X39800Y-51600
X40600Y-34900
X41600Y-34900
X41600Y-51600
X42600Y-34900
X42600Y-51600
X43600Y-34900
X43600Y-51600
X44600Y-34900
X44600Y-51600
X45600Y-34900
X45600Y-51600
X45900Y-40300
X45900Y-40300
X46200Y-37800
X46600Y-34900
X46600Y-51600
X47600Y-34900
X47600Y-51600
X48600Y-34900
X48600Y-51600
X49600Y-34900
X49600Y-51600
X50600Y-34900
X50600Y-51600
X51300Y-42300
X51600Y-34900
X51600Y-51600
X52600Y-34900
X52600Y-51600
X53600Y-34900
X53600Y-51600
X54600Y-34900
X54600Y-51600
X55600Y-34900
X55600Y-51600
X56600Y-34900
X56600Y-51600
X57600Y-34900
X57600Y-51600
X58600Y-34900
X58600Y-51600
X59600Y-34900
X59600Y-51600
X60600Y-34900
X60600Y-51600
X61400Y-34900
X61400Y-35600
X61400Y-36600
X61400Y-37600
X61400Y-38600
X61400Y-39600
X61400Y-40600
X61400Y-41600
X61400Y-42600
X61400Y-43600
X61400Y-45600
X61400Y-46600
X61400Y-47600
X61400Y-48600
X61400Y-49600
X61400Y-50600
X61400Y-51600
T2
X52600Y-43400
X52600Y-44900
X52600Y-46400
X52600Y-47900
X54400Y-43400
X54400Y-44900
X54400Y-46400
X54400Y-47900
X56200Y-43400
X56200Y-44900
X56200Y-46400
X56200Y-47900
X58000Y-43400
X58000Y-44900
X58000Y-46400
X58000Y-47900
X59800Y-43400
X59800Y-44900
X59800Y-46400
X59800Y-47900
T3
X33000Y-54500
X33000Y-57500
X35700Y-40900
X35700Y-41900
X35700Y-42900
X36000Y-54500
X36000Y-57500
T4
X34200Y-42600
X34200Y-43600
X35100Y-36600
X36100Y-36600
X38800Y-50400
X38800Y-51400
X38800Y-52400
X38800Y-53400
X41105Y-53795
X41105Y-54795
X41105Y-55795
X41105Y-56795
X41400Y-43900
X41400Y-44900
X44000Y-37500
X44000Y-38500
X44100Y-54031
X44100Y-56000
X47900Y-38500
X47900Y-39500
X48400Y-54031
X48400Y-56000
X52700Y-54031
X52700Y-56000
X53600Y-49400
X54600Y-49400
X55600Y-49400
X56600Y-49400
X57600Y-49400
X58600Y-49400
T5
X44900Y-36800
X47600Y-43000
X48600Y-43000
X48900Y-36800
X49600Y-43000
T6
X43400Y-46800
X43400Y-49753
T7
X31600Y-36600
X32000Y-39731
X32000Y-41700
X32000Y-44931
X32000Y-46900
X33569Y-36600
X35331Y-46900
X37300Y-46900
X43400Y-43300
X45369Y-43300
X50700Y-38131
X50700Y-40100
T0
M30
