G04 #@! TF.GenerationSoftware,KiCad,Pcbnew,6.0.10-2.fc37*
G04 #@! TF.CreationDate,2023-02-05T13:57:13+01:00*
G04 #@! TF.ProjectId,Full schematic,46756c6c-2073-4636-9865-6d617469632e,rev?*
G04 #@! TF.SameCoordinates,Original*
G04 #@! TF.FileFunction,Paste,Bot*
G04 #@! TF.FilePolarity,Positive*
%FSLAX46Y46*%
G04 Gerber Fmt 4.6, Leading zero omitted, Abs format (unit mm)*
G04 Created by KiCad (PCBNEW 6.0.10-2.fc37) date 2023-02-05 13:57:13*
%MOMM*%
%LPD*%
G01*
G04 APERTURE LIST*
G04 Aperture macros list*
%AMRoundRect*
0 Rectangle with rounded corners*
0 $1 Rounding radius*
0 $2 $3 $4 $5 $6 $7 $8 $9 X,Y pos of 4 corners*
0 Add a 4 corners polygon primitive as box body*
4,1,4,$2,$3,$4,$5,$6,$7,$8,$9,$2,$3,0*
0 Add four circle primitives for the rounded corners*
1,1,$1+$1,$2,$3*
1,1,$1+$1,$4,$5*
1,1,$1+$1,$6,$7*
1,1,$1+$1,$8,$9*
0 Add four rect primitives between the rounded corners*
20,1,$1+$1,$2,$3,$4,$5,0*
20,1,$1+$1,$4,$5,$6,$7,0*
20,1,$1+$1,$6,$7,$8,$9,0*
20,1,$1+$1,$8,$9,$2,$3,0*%
G04 Aperture macros list end*
%ADD10RoundRect,0.150000X-0.650000X-0.150000X0.650000X-0.150000X0.650000X0.150000X-0.650000X0.150000X0*%
%ADD11RoundRect,0.250000X0.350000X0.450000X-0.350000X0.450000X-0.350000X-0.450000X0.350000X-0.450000X0*%
%ADD12RoundRect,0.250000X-0.450000X0.350000X-0.450000X-0.350000X0.450000X-0.350000X0.450000X0.350000X0*%
%ADD13RoundRect,0.250000X0.337500X0.475000X-0.337500X0.475000X-0.337500X-0.475000X0.337500X-0.475000X0*%
%ADD14RoundRect,0.250000X0.475000X-0.337500X0.475000X0.337500X-0.475000X0.337500X-0.475000X-0.337500X0*%
%ADD15RoundRect,0.250000X-0.350000X-0.450000X0.350000X-0.450000X0.350000X0.450000X-0.350000X0.450000X0*%
%ADD16RoundRect,0.250000X-0.475000X0.337500X-0.475000X-0.337500X0.475000X-0.337500X0.475000X0.337500X0*%
%ADD17RoundRect,0.250000X0.450000X-0.350000X0.450000X0.350000X-0.450000X0.350000X-0.450000X-0.350000X0*%
%ADD18RoundRect,0.250000X-0.362500X-0.700000X0.362500X-0.700000X0.362500X0.700000X-0.362500X0.700000X0*%
%ADD19RoundRect,0.250000X-0.337500X-0.475000X0.337500X-0.475000X0.337500X0.475000X-0.337500X0.475000X0*%
%ADD20R,0.900000X1.200000*%
%ADD21RoundRect,0.250000X-1.450000X0.400000X-1.450000X-0.400000X1.450000X-0.400000X1.450000X0.400000X0*%
%ADD22RoundRect,0.150000X0.587500X0.150000X-0.587500X0.150000X-0.587500X-0.150000X0.587500X-0.150000X0*%
%ADD23RoundRect,0.250000X1.112500X1.500000X-1.112500X1.500000X-1.112500X-1.500000X1.112500X-1.500000X0*%
%ADD24RoundRect,0.237500X-0.237500X0.287500X-0.237500X-0.287500X0.237500X-0.287500X0.237500X0.287500X0*%
%ADD25RoundRect,0.150000X-0.150000X0.587500X-0.150000X-0.587500X0.150000X-0.587500X0.150000X0.587500X0*%
%ADD26RoundRect,0.250000X-0.400000X-1.450000X0.400000X-1.450000X0.400000X1.450000X-0.400000X1.450000X0*%
%ADD27RoundRect,0.150000X-0.587500X-0.150000X0.587500X-0.150000X0.587500X0.150000X-0.587500X0.150000X0*%
%ADD28R,6.730000X2.160000*%
G04 APERTURE END LIST*
D10*
X114637000Y-54610000D03*
X114637000Y-53340000D03*
X114637000Y-52070000D03*
X114637000Y-50800000D03*
X121837000Y-50800000D03*
X121837000Y-52070000D03*
X121837000Y-53340000D03*
X121837000Y-54610000D03*
D11*
X72517000Y-49149000D03*
X70517000Y-49149000D03*
X68802000Y-49149000D03*
X66802000Y-49149000D03*
D12*
X26035000Y-53848000D03*
X26035000Y-55848000D03*
D13*
X112565000Y-28829000D03*
X110490000Y-28829000D03*
D14*
X97282000Y-53742500D03*
X97282000Y-51667500D03*
D15*
X27117000Y-60736000D03*
X29117000Y-60736000D03*
D16*
X115316000Y-61722000D03*
X115316000Y-63797000D03*
D17*
X104775000Y-27686000D03*
X104775000Y-25686000D03*
D12*
X38862000Y-47768000D03*
X38862000Y-49768000D03*
D17*
X22479000Y-32115000D03*
X22479000Y-30115000D03*
D12*
X46228000Y-47879000D03*
X46228000Y-49879000D03*
X44450000Y-47879000D03*
X44450000Y-49879000D03*
X30800000Y-58704000D03*
X30800000Y-60704000D03*
X20320000Y-44958000D03*
X20320000Y-46958000D03*
D17*
X60706000Y-39370000D03*
X60706000Y-37370000D03*
D18*
X132311000Y-56726000D03*
X135636000Y-56726000D03*
D14*
X110490000Y-58547000D03*
X110490000Y-56472000D03*
D12*
X47117000Y-43450000D03*
X47117000Y-45450000D03*
D11*
X110839000Y-60325000D03*
X108839000Y-60325000D03*
D19*
X73279000Y-30988000D03*
X75354000Y-30988000D03*
D20*
X37721000Y-51943000D03*
X41021000Y-51943000D03*
D14*
X57752000Y-55814459D03*
X57752000Y-53739459D03*
D19*
X27117000Y-62641000D03*
X29192000Y-62641000D03*
D11*
X39497000Y-36195000D03*
X37497000Y-36195000D03*
X126984000Y-45593000D03*
X124984000Y-45593000D03*
D14*
X132715000Y-63881000D03*
X132715000Y-61806000D03*
X66802000Y-44344500D03*
X66802000Y-42269500D03*
X95123000Y-51478000D03*
X95123000Y-49403000D03*
D16*
X37338000Y-29972000D03*
X37338000Y-32047000D03*
X51435000Y-38586500D03*
X51435000Y-40661500D03*
D14*
X59276000Y-55814459D03*
X59276000Y-53739459D03*
D17*
X71501000Y-63500000D03*
X71501000Y-61500000D03*
D21*
X34925000Y-29972000D03*
X34925000Y-34422000D03*
D14*
X64262000Y-44366000D03*
X64262000Y-42291000D03*
D20*
X60325000Y-33528000D03*
X63625000Y-33528000D03*
D12*
X116078000Y-23527000D03*
X116078000Y-25527000D03*
D21*
X106299000Y-58227000D03*
X106299000Y-62677000D03*
D19*
X68707000Y-38354000D03*
X70782000Y-38354000D03*
D15*
X39878000Y-39116000D03*
X41878000Y-39116000D03*
D16*
X60800000Y-50394459D03*
X60800000Y-52469459D03*
D14*
X99060000Y-53721000D03*
X99060000Y-51646000D03*
D12*
X24130000Y-53848000D03*
X24130000Y-55848000D03*
D19*
X114511000Y-20066000D03*
X116586000Y-20066000D03*
D13*
X109093000Y-27686000D03*
X107018000Y-27686000D03*
D16*
X109049000Y-50342000D03*
X109049000Y-52417000D03*
D13*
X95547000Y-56515000D03*
X93472000Y-56515000D03*
D16*
X112649000Y-51921500D03*
X112649000Y-53996500D03*
D15*
X41402000Y-43434000D03*
X43402000Y-43434000D03*
D16*
X126873000Y-24108500D03*
X126873000Y-26183500D03*
D12*
X70485000Y-31750000D03*
X70485000Y-33750000D03*
D21*
X94488000Y-58288000D03*
X94488000Y-62738000D03*
D15*
X20828000Y-52705000D03*
X22828000Y-52705000D03*
D20*
X37719000Y-54229000D03*
X41019000Y-54229000D03*
D19*
X54737000Y-37338000D03*
X56812000Y-37338000D03*
X105261500Y-56515000D03*
X107336500Y-56515000D03*
D16*
X59276000Y-50394459D03*
X59276000Y-52469459D03*
D14*
X131318000Y-63881000D03*
X131318000Y-61806000D03*
D22*
X113284000Y-61849000D03*
X113284000Y-63749000D03*
X111409000Y-62799000D03*
D20*
X37719000Y-56515000D03*
X41019000Y-56515000D03*
D21*
X26162000Y-34539000D03*
X26162000Y-38989000D03*
D23*
X35179000Y-37084000D03*
X29454000Y-37084000D03*
D16*
X57752000Y-50415959D03*
X57752000Y-52490959D03*
D11*
X117348000Y-56642000D03*
X115348000Y-56642000D03*
D19*
X97409000Y-56515000D03*
X99484000Y-56515000D03*
D11*
X65024000Y-49149000D03*
X63024000Y-49149000D03*
D14*
X58166000Y-39370000D03*
X58166000Y-37295000D03*
D12*
X45212000Y-43434000D03*
X45212000Y-45434000D03*
D15*
X110617000Y-50292000D03*
X112617000Y-50292000D03*
D14*
X56261000Y-40810000D03*
X56261000Y-38735000D03*
D17*
X128524000Y-47609000D03*
X128524000Y-45609000D03*
D21*
X102362000Y-58288000D03*
X102362000Y-62738000D03*
D12*
X116078000Y-26940000D03*
X116078000Y-28940000D03*
D19*
X101324500Y-56515000D03*
X103399500Y-56515000D03*
D14*
X22479000Y-35327500D03*
X22479000Y-33252500D03*
D13*
X24554000Y-46355000D03*
X22479000Y-46355000D03*
D17*
X73406000Y-63484000D03*
X73406000Y-61484000D03*
D12*
X32705000Y-58704000D03*
X32705000Y-60704000D03*
D14*
X93345000Y-51478000D03*
X93345000Y-49403000D03*
D12*
X68707000Y-31750000D03*
X68707000Y-33750000D03*
D21*
X98425000Y-58354000D03*
X98425000Y-62804000D03*
D24*
X130937000Y-46623000D03*
X130937000Y-48373000D03*
D12*
X77597000Y-30004000D03*
X77597000Y-32004000D03*
D14*
X60800000Y-55814459D03*
X60800000Y-53739459D03*
D15*
X27371000Y-58704000D03*
X29371000Y-58704000D03*
X40640000Y-47879000D03*
X42640000Y-47879000D03*
D25*
X124841000Y-47625000D03*
X126741000Y-47625000D03*
X125791000Y-49500000D03*
D15*
X52451000Y-42545000D03*
X54451000Y-42545000D03*
D14*
X61722000Y-44366000D03*
X61722000Y-42291000D03*
D26*
X22601000Y-42672000D03*
X27051000Y-42672000D03*
D27*
X114300000Y-60325000D03*
X114300000Y-58425000D03*
X116175000Y-59375000D03*
D26*
X25080000Y-49403000D03*
X29530000Y-49403000D03*
D17*
X112395000Y-58531000D03*
X112395000Y-56531000D03*
D28*
X127254000Y-63840000D03*
X127254000Y-52660000D03*
M02*
