%TF.GenerationSoftware,KiCad,Pcbnew,6.0.10-2.fc37*%
%TF.CreationDate,2023-02-05T13:59:22+01:00*%
%TF.ProjectId,Full schematic,46756c6c-2073-4636-9865-6d617469632e,rev?*%
%TF.SameCoordinates,Original*%
%TF.FileFunction,Drillmap*%
%TF.FilePolarity,Positive*%
%FSLAX45Y45*%
G04 Gerber Fmt 4.5, Leading zero omitted, Abs format (unit mm)*
G04 Created by KiCad (PCBNEW 6.0.10-2.fc37) date 2023-02-05 13:59:22*
%MOMM*%
%LPD*%
G01*
G04 APERTURE LIST*
%ADD10C,0.050000*%
%ADD11C,0.200000*%
G04 APERTURE END LIST*
D10*
X2451100Y-2159000D02*
G75*
G03*
X2451100Y-2159000I-170000J0D01*
G01*
X1943100Y-1841500D02*
X13944600Y-1841500D01*
X13944600Y-1841500D02*
X13944600Y-6667500D01*
X13944600Y-6667500D02*
X1943100Y-6667500D01*
X1943100Y-6667500D02*
X1943100Y-1841500D01*
X13797100Y-6307000D02*
G75*
G03*
X13797100Y-6307000I-170000J0D01*
G01*
X2451100Y-6307000D02*
G75*
G03*
X2451100Y-6307000I-170000J0D01*
G01*
X13860600Y-2108200D02*
G75*
G03*
X13860600Y-2108200I-170000J0D01*
G01*
D11*
X2198219Y-6980476D02*
X2198219Y-6780476D01*
X2245838Y-6780476D01*
X2274410Y-6790000D01*
X2293457Y-6809048D01*
X2302981Y-6828095D01*
X2312505Y-6866190D01*
X2312505Y-6894762D01*
X2302981Y-6932857D01*
X2293457Y-6951905D01*
X2274410Y-6970952D01*
X2245838Y-6980476D01*
X2198219Y-6980476D01*
X2398219Y-6980476D02*
X2398219Y-6847143D01*
X2398219Y-6885238D02*
X2407743Y-6866190D01*
X2417267Y-6856667D01*
X2436314Y-6847143D01*
X2455362Y-6847143D01*
X2522029Y-6980476D02*
X2522029Y-6847143D01*
X2522029Y-6780476D02*
X2512505Y-6790000D01*
X2522029Y-6799524D01*
X2531552Y-6790000D01*
X2522029Y-6780476D01*
X2522029Y-6799524D01*
X2645838Y-6980476D02*
X2626790Y-6970952D01*
X2617267Y-6951905D01*
X2617267Y-6780476D01*
X2750600Y-6980476D02*
X2731552Y-6970952D01*
X2722029Y-6951905D01*
X2722029Y-6780476D01*
X2979171Y-6980476D02*
X2979171Y-6780476D01*
X3045838Y-6923333D01*
X3112505Y-6780476D01*
X3112505Y-6980476D01*
X3293457Y-6980476D02*
X3293457Y-6875714D01*
X3283933Y-6856667D01*
X3264886Y-6847143D01*
X3226790Y-6847143D01*
X3207743Y-6856667D01*
X3293457Y-6970952D02*
X3274409Y-6980476D01*
X3226790Y-6980476D01*
X3207743Y-6970952D01*
X3198219Y-6951905D01*
X3198219Y-6932857D01*
X3207743Y-6913809D01*
X3226790Y-6904286D01*
X3274409Y-6904286D01*
X3293457Y-6894762D01*
X3388695Y-6847143D02*
X3388695Y-7047143D01*
X3388695Y-6856667D02*
X3407743Y-6847143D01*
X3445838Y-6847143D01*
X3464886Y-6856667D01*
X3474409Y-6866190D01*
X3483933Y-6885238D01*
X3483933Y-6942381D01*
X3474409Y-6961428D01*
X3464886Y-6970952D01*
X3445838Y-6980476D01*
X3407743Y-6980476D01*
X3388695Y-6970952D01*
X3569648Y-6961428D02*
X3579171Y-6970952D01*
X3569648Y-6980476D01*
X3560124Y-6970952D01*
X3569648Y-6961428D01*
X3569648Y-6980476D01*
X3569648Y-6856667D02*
X3579171Y-6866190D01*
X3569648Y-6875714D01*
X3560124Y-6866190D01*
X3569648Y-6856667D01*
X3569648Y-6875714D01*
M02*
