M48
; DRILL file {KiCad 6.0.10-2.fc37} date Sun 05 Feb 2023 01:58:44 PM CET
; FORMAT={-:-/ absolute / metric / decimal}
; #@! TF.CreationDate,2023-02-05T13:58:44+01:00
; #@! TF.GenerationSoftware,Kicad,Pcbnew,6.0.10-2.fc37
; #@! TF.FileFunction,Plated,1,2,PTH
FMAT,2
METRIC
; #@! TA.AperFunction,Plated,PTH,ViaDrill
T1C0.400
; #@! TA.AperFunction,Plated,PTH,ComponentDrill
T2C0.500
; #@! TA.AperFunction,Plated,PTH,ComponentDrill
T3C0.600
; #@! TA.AperFunction,Plated,PTH,ComponentDrill
T4C0.800
; #@! TA.AperFunction,Plated,PTH,ComponentDrill
T5C1.000
; #@! TA.AperFunction,Plated,PTH,ComponentDrill
T6C1.100
; #@! TA.AperFunction,Plated,PTH,ComponentDrill
T7C1.200
%
G90
G05
T1
X20.447Y-61.341
X20.574Y-23.114
X20.574Y-57.531
X20.574Y-65.405
X20.701Y-19.431
X20.701Y-59.309
X20.828Y-52.832
X21.209Y-42.037
X21.844Y-56.261
X21.971Y-48.26
X22.479Y-33.274
X22.479Y-35.306
X22.479Y-46.355
X22.86Y-53.213
X23.622Y-26.162
X23.876Y-57.658
X23.876Y-65.532
X24.257Y-33.274
X24.257Y-56.134
X24.511Y-44.45
X24.511Y-46.355
X25.019Y-19.431
X25.019Y-52.578
X25.4Y-24.511
X26.035Y-53.848
X26.503Y-20.868
X26.67Y-22.606
X26.902Y-35.328
X26.924Y-38.989
X26.924Y-64.77
X27.051Y-19.431
X27.117Y-60.736
X27.117Y-62.641
X27.371Y-58.831
X27.686Y-44.45
X27.686Y-54.737
X27.686Y-57.023
X28.319Y-52.578
X29.149Y-62.641
X29.276Y-58.831
X29.591Y-48.641
X29.845Y-52.197
X29.845Y-54.737
X29.845Y-57.023
X29.972Y-19.431
X30.099Y-65.532
X30.48Y-38.481
X30.8Y-61.244
X30.988Y-46.99
X31.623Y-64.516
X32.258Y-19.558
X32.385Y-55.88
X32.705Y-58.831
X32.766Y-64.516
X33.528Y-61.722
X34.036Y-44.45
X34.29Y-63.881
X34.758Y-41.315
X34.925Y-39.624
X35.179Y-19.558
X35.179Y-54.229
X35.179Y-55.753
X35.179Y-58.293
X35.179Y-61.849
X35.433Y-30.607
X35.433Y-33.528
X35.433Y-38.1
X35.687Y-63.5
X35.941Y-46.228
X36.703Y-32.004
X37.338Y-30.48
X37.465Y-36.195
X37.465Y-45.466
X37.592Y-50.038
X37.721Y-56.513
X37.846Y-60.452
X38.417Y-63.944
X38.735Y-47.752
X38.862Y-49.768
X38.989Y-53.086
X39.497Y-36.195
X39.878Y-39.116
X40.64Y-47.879
X41.021Y-41.148
X41.275Y-43.434
X41.656Y-63.119
X41.688Y-60.579
X41.783Y-39.116
X42.545Y-47.879
X42.672Y-57.15
X42.672Y-59.182
X42.799Y-52.197
X43.307Y-43.434
X43.561Y-55.626
X44.45Y-49.911
X45.466Y-45.466
X46.228Y-33.655
X46.228Y-47.879
X46.228Y-49.879
X46.355Y-36.703
X46.482Y-52.959
X46.863Y-41.148
X47.117Y-43.434
X47.244Y-45.466
X47.244Y-61.976
X50.546Y-53.721
X50.673Y-42.799
X51.054Y-50.8
X51.181Y-40.64
X51.435Y-44.704
X51.594Y-38.449
X51.816Y-30.099
X51.943Y-49.403
X52.418Y-61.0
X52.451Y-42.545
X52.451Y-53.467
X52.864Y-38.449
X52.959Y-44.704
X53.086Y-55.118
X53.086Y-56.515
X53.34Y-53.721
X53.721Y-50.546
X54.229Y-57.658
X54.483Y-42.545
X54.737Y-37.338
X55.118Y-26.797
X55.245Y-56.769
X55.48Y-22.371
X55.499Y-19.558
X56.896Y-37.338
X57.023Y-45.466
X57.135Y-50.8
X57.15Y-26.797
X57.752Y-52.491
X57.752Y-53.761
X57.752Y-55.793
X57.766Y-22.371
X57.785Y-19.558
X57.785Y-44.577
X58.166Y-39.37
X58.674Y-34.12
X58.768Y-63.159
X58.864Y-44.259
X59.043Y-55.814
X59.338Y-50.394
X59.436Y-26.797
X59.944Y-19.558
X60.017Y-53.739
X60.052Y-22.371
X60.325Y-33.528
X60.325Y-43.307
X60.579Y-58.928
X60.8Y-50.394
X60.8Y-52.469
X60.8Y-55.793
X61.595Y-58.928
X62.23Y-19.558
X62.23Y-29.591
X62.611Y-39.37
X63.213Y-64.81
X63.373Y-57.15
X63.5Y-33.528
X64.864Y-63.286
X65.024Y-49.149
X65.278Y-35.56
X65.659Y-52.451
X65.659Y-57.404
X66.04Y-32.131
X66.04Y-34.163
X66.294Y-38.354
X66.294Y-58.293
X66.802Y-55.245
X66.929Y-51.943
X68.326Y-41.148
X68.834Y-49.149
X68.834Y-51.943
X69.596Y-40.259
X69.596Y-42.418
X70.358Y-52.832
X71.628Y-32.893
X71.628Y-56.642
X72.39Y-43.942
X72.517Y-49.149
X73.025Y-59.563
X73.152Y-34.671
X73.152Y-38.227
X73.279Y-54.991
X74.168Y-40.894
X74.422Y-56.642
X74.676Y-50.038
X74.93Y-45.085
X75.057Y-42.926
X75.057Y-48.006
X75.184Y-59.563
X75.184Y-62.357
X75.184Y-64.389
X75.819Y-34.798
X75.819Y-37.592
X75.819Y-54.991
X76.073Y-33.401
X76.454Y-39.243
X76.454Y-42.545
X76.835Y-56.642
X76.962Y-61.214
X77.597Y-29.94
X77.597Y-32.004
X77.597Y-59.563
X77.597Y-64.389
X77.724Y-33.782
X77.724Y-37.592
X78.105Y-54.991
X78.232Y-45.085
X78.486Y-48.006
X78.867Y-50.673
X78.994Y-62.357
X79.248Y-56.642
X79.248Y-59.563
X80.518Y-27.94
X80.518Y-43.434
X80.772Y-64.135
X81.788Y-56.261
X81.915Y-59.69
X82.042Y-36.957
X82.042Y-40.386
X82.105Y-42.608
X82.296Y-21.336
X83.566Y-46.99
X83.566Y-50.292
X83.82Y-53.848
X84.455Y-32.004
X85.09Y-61.722
X85.344Y-28.956
X85.344Y-56.515
X85.471Y-64.262
X86.868Y-20.828
X86.868Y-62.738
X86.953Y-58.462
X86.995Y-37.846
X86.995Y-46.99
X86.995Y-50.292
X87.249Y-53.848
X87.503Y-27.051
X87.63Y-32.004
X88.138Y-28.956
X88.138Y-30.607
X88.138Y-35.179
X88.392Y-41.656
X88.773Y-20.828
X89.281Y-24.765
X89.916Y-32.004
X90.043Y-48.768
X90.17Y-35.179
X90.17Y-46.99
X90.17Y-64.77
X90.551Y-27.051
X90.551Y-28.956
X90.551Y-37.846
X90.678Y-41.656
X90.805Y-20.828
X91.44Y-61.468
X91.567Y-24.765
X91.694Y-55.626
X91.821Y-59.479
X91.948Y-63.246
X92.837Y-28.956
X92.964Y-49.022
X92.964Y-51.689
X93.091Y-20.828
X93.091Y-32.004
X93.091Y-35.179
X93.091Y-41.656
X93.345Y-53.34
X93.345Y-64.77
X93.599Y-27.051
X94.107Y-24.765
X94.488Y-53.34
X95.123Y-46.99
X95.25Y-28.956
X95.504Y-51.689
X95.885Y-20.828
X96.266Y-27.051
X96.52Y-46.355
X96.52Y-64.77
X96.901Y-51.435
X96.901Y-53.975
X97.028Y-35.179
X97.028Y-37.338
X97.282Y-61.214
X97.663Y-30.607
X97.663Y-32.131
X97.917Y-42.926
X98.044Y-40.005
X98.298Y-47.879
X98.425Y-20.828
X99.06Y-60.706
X99.06Y-64.77
X99.441Y-35.179
X99.441Y-37.338
X99.441Y-53.975
X99.484Y-56.515
X99.695Y-46.482
X99.695Y-49.784
X100.076Y-59.563
X100.203Y-42.037
X100.203Y-54.737
X100.711Y-20.828
X101.219Y-42.926
X101.6Y-64.77
X102.108Y-48.895
X102.108Y-53.086
X102.235Y-36.322
X102.362Y-28.829
X102.489Y-20.828
X102.743Y-31.877
X102.87Y-59.817
X103.378Y-54.864
X104.013Y-64.77
X104.394Y-20.828
X104.648Y-46.355
X104.902Y-25.654
X105.537Y-45.847
X105.537Y-53.213
X105.6Y-54.292
X105.664Y-37.846
X105.791Y-32.893
X106.172Y-45.085
X106.299Y-35.179
X106.299Y-60.452
X106.426Y-20.828
X106.426Y-64.77
X106.553Y-30.607
X106.68Y-27.686
X106.807Y-24.511
X106.807Y-56.515
X107.442Y-39.497
X107.442Y-41.656
X107.442Y-62.738
X107.992Y-21.378
X108.204Y-33.147
X108.585Y-37.846
X108.585Y-56.515
X108.712Y-47.244
X108.712Y-49.149
X108.712Y-64.77
X109.049Y-50.385
X109.049Y-52.417
X109.093Y-54.61
X109.347Y-27.686
X109.601Y-47.371
X109.728Y-48.387
X110.363Y-26.416
X110.49Y-28.829
X110.49Y-54.356
X110.49Y-56.388
X110.49Y-58.547
X110.855Y-60.341
X110.871Y-61.849
X111.252Y-33.147
X111.633Y-36.068
X112.141Y-28.829
X112.395Y-50.673
X112.395Y-56.515
X112.395Y-58.547
X112.649Y-53.975
X113.792Y-60.325
X114.554Y-20.066
X115.062Y-32.385
X115.062Y-34.29
X115.062Y-36.449
X115.062Y-63.754
X115.316Y-56.642
X115.443Y-30.607
X115.443Y-61.722
X115.951Y-23.622
X116.078Y-52.07
X116.543Y-20.071
X117.169Y-60.241
X117.221Y-32.385
X117.221Y-35.179
X117.221Y-37.465
X117.348Y-50.927
X117.348Y-56.642
X118.618Y-20.071
X119.126Y-42.291
X119.423Y-52.832
X119.507Y-56.642
X119.634Y-58.801
X119.761Y-65.659
X120.396Y-58.42
X120.396Y-59.309
X121.285Y-56.261
X121.285Y-57.15
X121.285Y-58.039
X121.285Y-58.928
X121.285Y-59.817
X121.285Y-60.706
X121.285Y-61.595
X121.285Y-62.484
X121.92Y-50.8
X121.92Y-65.659
X122.174Y-56.261
X122.174Y-57.15
X122.174Y-58.039
X122.174Y-58.928
X122.174Y-59.817
X122.174Y-60.706
X122.174Y-61.595
X122.174Y-62.484
X122.555Y-47.625
X123.063Y-55.499
X123.063Y-56.388
X123.063Y-57.15
X123.063Y-58.039
X123.063Y-58.928
X123.063Y-59.817
X123.063Y-60.706
X123.063Y-61.595
X123.063Y-62.484
X123.952Y-32.385
X123.952Y-35.179
X123.952Y-37.465
X123.952Y-54.864
X123.952Y-55.753
X123.952Y-56.642
X123.952Y-57.531
X123.952Y-58.504
X123.952Y-59.393
X123.952Y-60.325
X123.952Y-61.214
X123.952Y-62.103
X124.206Y-65.913
X124.714Y-30.607
X124.841Y-47.625
X124.841Y-54.991
X124.841Y-55.88
X124.841Y-56.769
X124.841Y-57.658
X124.841Y-58.504
X124.841Y-59.393
X124.841Y-60.325
X124.841Y-61.214
X124.841Y-62.103
X125.73Y-54.991
X125.73Y-55.88
X125.73Y-56.769
X125.73Y-57.658
X125.73Y-58.504
X125.73Y-59.393
X125.73Y-60.325
X125.73Y-61.214
X125.73Y-62.103
X125.984Y-32.385
X126.111Y-35.179
X126.111Y-37.465
X126.238Y-65.913
X126.619Y-54.991
X126.619Y-55.88
X126.619Y-56.769
X126.619Y-57.658
X126.619Y-58.504
X126.619Y-59.393
X126.619Y-60.325
X126.619Y-61.214
X126.619Y-62.103
X126.746Y-47.625
X126.873Y-24.13
X126.873Y-26.162
X127.508Y-59.055
X127.508Y-61.976
X128.397Y-61.976
X128.397Y-65.913
X128.524Y-45.593
X128.524Y-47.625
X129.286Y-61.976
X129.413Y-32.385
X129.413Y-37.592
X129.667Y-30.607
X129.667Y-60.452
X130.175Y-53.34
X130.429Y-65.913
X130.937Y-46.623
X130.937Y-49.911
X131.191Y-59.012
X132.207Y-45.847
X132.334Y-56.726
X132.588Y-65.913
X132.969Y-37.465
X133.096Y-32.385
X133.096Y-35.052
X134.725Y-59.012
X135.001Y-65.913
X135.01Y-32.394
X135.128Y-19.431
X135.128Y-35.179
X135.128Y-37.465
X135.255Y-23.368
X135.255Y-30.607
X135.636Y-56.726
X137.16Y-65.913
X138.43Y-24.765
X138.43Y-27.432
X138.43Y-29.972
X138.43Y-32.639
X138.43Y-35.052
X138.43Y-37.338
X138.43Y-39.497
X138.43Y-42.037
X138.43Y-44.196
X138.43Y-46.355
X138.43Y-48.26
X138.43Y-50.292
X138.43Y-52.324
X138.43Y-54.356
X138.684Y-62.103
X138.684Y-64.389
X138.684Y-65.913
T2
X51.783Y-57.444
X51.783Y-59.344
T3
X20.744Y-38.608
X20.828Y-49.657
X22.744Y-38.608
X22.828Y-49.657
X24.892Y-31.496
X26.892Y-31.496
X30.607Y-30.48
X30.607Y-32.48
X86.233Y-31.897
X86.233Y-34.097
X86.233Y-36.297
X86.233Y-39.497
X91.313Y-31.897
X91.313Y-34.097
X91.313Y-36.297
X91.313Y-39.497
X95.478Y-31.887
X95.478Y-34.087
X95.478Y-36.287
X95.478Y-39.487
X100.558Y-31.887
X100.558Y-34.087
X100.558Y-36.287
X100.558Y-39.487
X104.648Y-31.897
X104.648Y-34.097
X104.648Y-36.297
X104.648Y-39.497
X104.985Y-49.92
X104.985Y-51.92
X109.728Y-31.897
X109.728Y-34.097
X109.728Y-36.297
X109.728Y-39.497
X113.538Y-31.897
X113.538Y-34.097
X113.538Y-36.297
X113.538Y-39.497
X118.618Y-31.897
X118.618Y-34.097
X118.618Y-36.297
X118.618Y-39.497
X122.656Y-31.887
X122.656Y-34.087
X122.656Y-36.287
X122.656Y-39.487
X127.736Y-31.887
X127.736Y-34.087
X127.736Y-36.287
X127.736Y-39.487
X131.699Y-31.897
X131.699Y-34.097
X131.699Y-36.297
X131.699Y-39.497
X136.779Y-31.897
X136.779Y-34.097
X136.779Y-36.297
X136.779Y-39.497
T4
X28.575Y-20.868
X28.575Y-23.368
X29.976Y-42.545
X32.476Y-42.545
X34.036Y-47.665
X34.036Y-50.165
X38.1Y-41.315
X38.1Y-43.815
X41.656Y-32.512
X41.656Y-35.052
X44.704Y-32.512
X44.704Y-35.052
X47.752Y-32.512
X47.752Y-35.052
X50.8Y-32.512
X50.8Y-35.052
X56.301Y-61.762
X61.181Y-61.762
X82.042Y-54.483
X82.042Y-62.103
X89.662Y-54.483
X89.662Y-62.103
X108.331Y-23.368
X110.871Y-23.368
X113.411Y-23.368
X118.364Y-44.792
X118.364Y-47.292
X119.507Y-61.338
X119.507Y-63.838
X134.239Y-47.371
X134.239Y-49.911
X134.239Y-52.451
T5
X21.336Y-25.654
X21.336Y-28.194
X37.211Y-21.371
X37.211Y-26.371
X45.466Y-55.626
X45.466Y-58.166
X45.466Y-60.706
X45.466Y-63.246
X48.514Y-47.879
X48.514Y-50.419
X48.514Y-52.959
X48.514Y-55.499
X50.259Y-61.043
X50.259Y-63.583
X52.451Y-46.99
X54.991Y-46.99
X57.531Y-46.99
X61.595Y-21.371
X61.595Y-26.371
X61.722Y-46.355
X64.262Y-46.355
X66.388Y-60.995
X66.388Y-63.535
X66.802Y-46.355
X69.342Y-46.355
X69.596Y-58.435
X69.596Y-60.975
X69.596Y-63.515
X78.105Y-21.162
X78.105Y-26.162
X136.525Y-25.405
X136.525Y-27.945
X137.16Y-56.726
X137.16Y-59.266
T6
X25.908Y-27.615
X28.448Y-27.615
X30.988Y-27.615
X54.991Y-31.115
X57.531Y-31.115
X60.071Y-31.115
X86.233Y-23.749
X96.393Y-23.749
X117.983Y-23.627
X117.983Y-26.167
X117.983Y-28.707
T7
X53.213Y-19.812
X53.213Y-24.892
T0
M30
