%TF.GenerationSoftware,KiCad,Pcbnew,6.0.10-2.fc37*%
%TF.CreationDate,2023-02-05T13:59:22+01:00*%
%TF.ProjectId,Full schematic,46756c6c-2073-4636-9865-6d617469632e,rev?*%
%TF.SameCoordinates,Original*%
%TF.FileFunction,Drillmap*%
%TF.FilePolarity,Positive*%
%FSLAX45Y45*%
G04 Gerber Fmt 4.5, Leading zero omitted, Abs format (unit mm)*
G04 Created by KiCad (PCBNEW 6.0.10-2.fc37) date 2023-02-05 13:59:22*
%MOMM*%
%LPD*%
G01*
G04 APERTURE LIST*
%ADD10C,0.050000*%
%ADD11C,0.200000*%
%ADD12C,0.040000*%
%ADD13C,0.060000*%
%ADD14C,0.080000*%
%ADD15C,0.100000*%
%ADD16C,0.110000*%
%ADD17C,0.120000*%
G04 APERTURE END LIST*
D10*
X2451100Y-2159000D02*
G75*
G03*
X2451100Y-2159000I-170000J0D01*
G01*
X1943100Y-1841500D02*
X13944600Y-1841500D01*
X13944600Y-1841500D02*
X13944600Y-6667500D01*
X13944600Y-6667500D02*
X1943100Y-6667500D01*
X1943100Y-6667500D02*
X1943100Y-1841500D01*
X13797100Y-6307000D02*
G75*
G03*
X13797100Y-6307000I-170000J0D01*
G01*
X2451100Y-6307000D02*
G75*
G03*
X2451100Y-6307000I-170000J0D01*
G01*
X13860600Y-2108200D02*
G75*
G03*
X13860600Y-2108200I-170000J0D01*
G01*
D11*
D12*
X2024700Y-6114100D02*
X2064700Y-6154100D01*
X2064700Y-6114100D02*
X2024700Y-6154100D01*
X2037400Y-2291400D02*
X2077400Y-2331400D01*
X2077400Y-2291400D02*
X2037400Y-2331400D01*
X2037400Y-5733100D02*
X2077400Y-5773100D01*
X2077400Y-5733100D02*
X2037400Y-5773100D01*
X2037400Y-6520500D02*
X2077400Y-6560500D01*
X2077400Y-6520500D02*
X2037400Y-6560500D01*
X2050100Y-1923100D02*
X2090100Y-1963100D01*
X2090100Y-1923100D02*
X2050100Y-1963100D01*
X2050100Y-5910900D02*
X2090100Y-5950900D01*
X2090100Y-5910900D02*
X2050100Y-5950900D01*
X2062800Y-5263200D02*
X2102800Y-5303200D01*
X2102800Y-5263200D02*
X2062800Y-5303200D01*
X2100900Y-4183700D02*
X2140900Y-4223700D01*
X2140900Y-4183700D02*
X2100900Y-4223700D01*
X2164400Y-5606100D02*
X2204400Y-5646100D01*
X2204400Y-5606100D02*
X2164400Y-5646100D01*
X2177100Y-4806000D02*
X2217100Y-4846000D01*
X2217100Y-4806000D02*
X2177100Y-4846000D01*
X2227900Y-3307400D02*
X2267900Y-3347400D01*
X2267900Y-3307400D02*
X2227900Y-3347400D01*
X2227900Y-3510600D02*
X2267900Y-3550600D01*
X2267900Y-3510600D02*
X2227900Y-3550600D01*
X2227900Y-4615500D02*
X2267900Y-4655500D01*
X2267900Y-4615500D02*
X2227900Y-4655500D01*
X2266000Y-5301300D02*
X2306000Y-5341300D01*
X2306000Y-5301300D02*
X2266000Y-5341300D01*
X2342200Y-2596200D02*
X2382200Y-2636200D01*
X2382200Y-2596200D02*
X2342200Y-2636200D01*
X2367600Y-5745800D02*
X2407600Y-5785800D01*
X2407600Y-5745800D02*
X2367600Y-5785800D01*
X2367600Y-6533200D02*
X2407600Y-6573200D01*
X2407600Y-6533200D02*
X2367600Y-6573200D01*
X2405700Y-3307400D02*
X2445700Y-3347400D01*
X2445700Y-3307400D02*
X2405700Y-3347400D01*
X2405700Y-5593400D02*
X2445700Y-5633400D01*
X2445700Y-5593400D02*
X2405700Y-5633400D01*
X2431100Y-4425000D02*
X2471100Y-4465000D01*
X2471100Y-4425000D02*
X2431100Y-4465000D01*
X2431100Y-4615500D02*
X2471100Y-4655500D01*
X2471100Y-4615500D02*
X2431100Y-4655500D01*
X2481900Y-1923100D02*
X2521900Y-1963100D01*
X2521900Y-1923100D02*
X2481900Y-1963100D01*
X2481900Y-5237800D02*
X2521900Y-5277800D01*
X2521900Y-5237800D02*
X2481900Y-5277800D01*
X2520000Y-2431100D02*
X2560000Y-2471100D01*
X2560000Y-2431100D02*
X2520000Y-2471100D01*
X2583500Y-5364800D02*
X2623500Y-5404800D01*
X2623500Y-5364800D02*
X2583500Y-5404800D01*
X2630300Y-2066800D02*
X2670300Y-2106800D01*
X2670300Y-2066800D02*
X2630300Y-2106800D01*
X2647000Y-2240600D02*
X2687000Y-2280600D01*
X2687000Y-2240600D02*
X2647000Y-2280600D01*
X2670250Y-3512750D02*
X2710250Y-3552750D01*
X2710250Y-3512750D02*
X2670250Y-3552750D01*
X2672400Y-3878900D02*
X2712400Y-3918900D01*
X2712400Y-3878900D02*
X2672400Y-3918900D01*
X2672400Y-6457000D02*
X2712400Y-6497000D01*
X2712400Y-6457000D02*
X2672400Y-6497000D01*
X2685100Y-1923100D02*
X2725100Y-1963100D01*
X2725100Y-1923100D02*
X2685100Y-1963100D01*
X2691700Y-6053600D02*
X2731700Y-6093600D01*
X2731700Y-6053600D02*
X2691700Y-6093600D01*
X2691700Y-6244100D02*
X2731700Y-6284100D01*
X2731700Y-6244100D02*
X2691700Y-6284100D01*
X2717100Y-5863100D02*
X2757100Y-5903100D01*
X2757100Y-5863100D02*
X2717100Y-5903100D01*
X2748600Y-4425000D02*
X2788600Y-4465000D01*
X2788600Y-4425000D02*
X2748600Y-4465000D01*
X2748600Y-5453700D02*
X2788600Y-5493700D01*
X2788600Y-5453700D02*
X2748600Y-5493700D01*
X2748600Y-5682300D02*
X2788600Y-5722300D01*
X2788600Y-5682300D02*
X2748600Y-5722300D01*
X2811900Y-5237800D02*
X2851900Y-5277800D01*
X2851900Y-5237800D02*
X2811900Y-5277800D01*
X2894900Y-6244100D02*
X2934900Y-6284100D01*
X2934900Y-6244100D02*
X2894900Y-6284100D01*
X2907600Y-5863100D02*
X2947600Y-5903100D01*
X2947600Y-5863100D02*
X2907600Y-5903100D01*
X2939100Y-4844100D02*
X2979100Y-4884100D01*
X2979100Y-4844100D02*
X2939100Y-4884100D01*
X2964500Y-5199700D02*
X3004500Y-5239700D01*
X3004500Y-5199700D02*
X2964500Y-5239700D01*
X2964500Y-5453700D02*
X3004500Y-5493700D01*
X3004500Y-5453700D02*
X2964500Y-5493700D01*
X2964500Y-5682300D02*
X3004500Y-5722300D01*
X3004500Y-5682300D02*
X2964500Y-5722300D01*
X2977200Y-1923100D02*
X3017200Y-1963100D01*
X3017200Y-1923100D02*
X2977200Y-1963100D01*
X2989900Y-6533200D02*
X3029900Y-6573200D01*
X3029900Y-6533200D02*
X2989900Y-6573200D01*
X3028000Y-3828100D02*
X3068000Y-3868100D01*
X3068000Y-3828100D02*
X3028000Y-3868100D01*
X3060000Y-6104400D02*
X3100000Y-6144400D01*
X3100000Y-6104400D02*
X3060000Y-6144400D01*
X3078800Y-4679000D02*
X3118800Y-4719000D01*
X3118800Y-4679000D02*
X3078800Y-4719000D01*
X3142300Y-6431600D02*
X3182300Y-6471600D01*
X3182300Y-6431600D02*
X3142300Y-6471600D01*
X3205800Y-1935800D02*
X3245800Y-1975800D01*
X3245800Y-1935800D02*
X3205800Y-1975800D01*
X3218500Y-5568000D02*
X3258500Y-5608000D01*
X3258500Y-5568000D02*
X3218500Y-5608000D01*
X3250500Y-5863100D02*
X3290500Y-5903100D01*
X3290500Y-5863100D02*
X3250500Y-5903100D01*
X3256600Y-6431600D02*
X3296600Y-6471600D01*
X3296600Y-6431600D02*
X3256600Y-6471600D01*
X3332800Y-6152200D02*
X3372800Y-6192200D01*
X3372800Y-6152200D02*
X3332800Y-6192200D01*
X3383600Y-4425000D02*
X3423600Y-4465000D01*
X3423600Y-4425000D02*
X3383600Y-4465000D01*
X3409000Y-6368100D02*
X3449000Y-6408100D01*
X3449000Y-6368100D02*
X3409000Y-6408100D01*
X3455800Y-4111500D02*
X3495800Y-4151500D01*
X3495800Y-4111500D02*
X3455800Y-4151500D01*
X3472500Y-3942400D02*
X3512500Y-3982400D01*
X3512500Y-3942400D02*
X3472500Y-3982400D01*
X3497900Y-1935800D02*
X3537900Y-1975800D01*
X3537900Y-1935800D02*
X3497900Y-1975800D01*
X3497900Y-5402900D02*
X3537900Y-5442900D01*
X3537900Y-5402900D02*
X3497900Y-5442900D01*
X3497900Y-5555300D02*
X3537900Y-5595300D01*
X3537900Y-5555300D02*
X3497900Y-5595300D01*
X3497900Y-5809300D02*
X3537900Y-5849300D01*
X3537900Y-5809300D02*
X3497900Y-5849300D01*
X3497900Y-6164900D02*
X3537900Y-6204900D01*
X3537900Y-6164900D02*
X3497900Y-6204900D01*
X3523300Y-3040700D02*
X3563300Y-3080700D01*
X3563300Y-3040700D02*
X3523300Y-3080700D01*
X3523300Y-3332800D02*
X3563300Y-3372800D01*
X3563300Y-3332800D02*
X3523300Y-3372800D01*
X3523300Y-3790000D02*
X3563300Y-3830000D01*
X3563300Y-3790000D02*
X3523300Y-3830000D01*
X3548700Y-6330000D02*
X3588700Y-6370000D01*
X3588700Y-6330000D02*
X3548700Y-6370000D01*
X3574100Y-4602800D02*
X3614100Y-4642800D01*
X3614100Y-4602800D02*
X3574100Y-4642800D01*
X3650300Y-3180400D02*
X3690300Y-3220400D01*
X3690300Y-3180400D02*
X3650300Y-3220400D01*
X3713800Y-3028000D02*
X3753800Y-3068000D01*
X3753800Y-3028000D02*
X3713800Y-3068000D01*
X3726500Y-3599500D02*
X3766500Y-3639500D01*
X3766500Y-3599500D02*
X3726500Y-3639500D01*
X3726500Y-4526600D02*
X3766500Y-4566600D01*
X3766500Y-4526600D02*
X3726500Y-4566600D01*
X3739200Y-4983800D02*
X3779200Y-5023800D01*
X3779200Y-4983800D02*
X3739200Y-5023800D01*
X3752100Y-5631300D02*
X3792100Y-5671300D01*
X3792100Y-5631300D02*
X3752100Y-5671300D01*
X3764600Y-6025200D02*
X3804600Y-6065200D01*
X3804600Y-6025200D02*
X3764600Y-6065200D01*
X3821750Y-6374450D02*
X3861750Y-6414450D01*
X3861750Y-6374450D02*
X3821750Y-6414450D01*
X3853500Y-4755200D02*
X3893500Y-4795200D01*
X3893500Y-4755200D02*
X3853500Y-4795200D01*
X3866200Y-4956800D02*
X3906200Y-4996800D01*
X3906200Y-4956800D02*
X3866200Y-4996800D01*
X3878900Y-5288600D02*
X3918900Y-5328600D01*
X3918900Y-5288600D02*
X3878900Y-5328600D01*
X3929700Y-3599500D02*
X3969700Y-3639500D01*
X3969700Y-3599500D02*
X3929700Y-3639500D01*
X3967800Y-3891600D02*
X4007800Y-3931600D01*
X4007800Y-3891600D02*
X3967800Y-3931600D01*
X4044000Y-4767900D02*
X4084000Y-4807900D01*
X4084000Y-4767900D02*
X4044000Y-4807900D01*
X4082100Y-4094800D02*
X4122100Y-4134800D01*
X4122100Y-4094800D02*
X4082100Y-4134800D01*
X4107500Y-4323400D02*
X4147500Y-4363400D01*
X4147500Y-4323400D02*
X4107500Y-4363400D01*
X4145600Y-6291900D02*
X4185600Y-6331900D01*
X4185600Y-6291900D02*
X4145600Y-6331900D01*
X4148800Y-6037900D02*
X4188800Y-6077900D01*
X4188800Y-6037900D02*
X4148800Y-6077900D01*
X4158300Y-3891600D02*
X4198300Y-3931600D01*
X4198300Y-3891600D02*
X4158300Y-3931600D01*
X4234500Y-4767900D02*
X4274500Y-4807900D01*
X4274500Y-4767900D02*
X4234500Y-4807900D01*
X4247200Y-5695000D02*
X4287200Y-5735000D01*
X4287200Y-5695000D02*
X4247200Y-5735000D01*
X4247200Y-5898200D02*
X4287200Y-5938200D01*
X4287200Y-5898200D02*
X4247200Y-5938200D01*
X4259900Y-5199700D02*
X4299900Y-5239700D01*
X4299900Y-5199700D02*
X4259900Y-5239700D01*
X4310700Y-4323400D02*
X4350700Y-4363400D01*
X4350700Y-4323400D02*
X4310700Y-4363400D01*
X4336100Y-5542600D02*
X4376100Y-5582600D01*
X4376100Y-5542600D02*
X4336100Y-5582600D01*
X4425000Y-4971100D02*
X4465000Y-5011100D01*
X4465000Y-4971100D02*
X4425000Y-5011100D01*
X4526600Y-4526600D02*
X4566600Y-4566600D01*
X4566600Y-4526600D02*
X4526600Y-4566600D01*
X4602800Y-3345500D02*
X4642800Y-3385500D01*
X4642800Y-3345500D02*
X4602800Y-3385500D01*
X4602800Y-4767900D02*
X4642800Y-4807900D01*
X4642800Y-4767900D02*
X4602800Y-4807900D01*
X4602800Y-4967900D02*
X4642800Y-5007900D01*
X4642800Y-4967900D02*
X4602800Y-5007900D01*
X4615500Y-3650300D02*
X4655500Y-3690300D01*
X4655500Y-3650300D02*
X4615500Y-3690300D01*
X4628200Y-5275900D02*
X4668200Y-5315900D01*
X4668200Y-5275900D02*
X4628200Y-5315900D01*
X4666300Y-4094800D02*
X4706300Y-4134800D01*
X4706300Y-4094800D02*
X4666300Y-4134800D01*
X4691700Y-4323400D02*
X4731700Y-4363400D01*
X4731700Y-4323400D02*
X4691700Y-4363400D01*
X4704400Y-4526600D02*
X4744400Y-4566600D01*
X4744400Y-4526600D02*
X4704400Y-4566600D01*
X4704400Y-6177600D02*
X4744400Y-6217600D01*
X4744400Y-6177600D02*
X4704400Y-6217600D01*
X5034600Y-5352100D02*
X5074600Y-5392100D01*
X5074600Y-5352100D02*
X5034600Y-5392100D01*
X5047300Y-4259900D02*
X5087300Y-4299900D01*
X5087300Y-4259900D02*
X5047300Y-4299900D01*
X5085400Y-5060000D02*
X5125400Y-5100000D01*
X5125400Y-5060000D02*
X5085400Y-5100000D01*
X5098100Y-4044000D02*
X5138100Y-4084000D01*
X5138100Y-4044000D02*
X5098100Y-4084000D01*
X5123500Y-4450400D02*
X5163500Y-4490400D01*
X5163500Y-4450400D02*
X5123500Y-4490400D01*
X5139400Y-3824900D02*
X5179400Y-3864900D01*
X5179400Y-3824900D02*
X5139400Y-3864900D01*
X5161600Y-2989900D02*
X5201600Y-3029900D01*
X5201600Y-2989900D02*
X5161600Y-3029900D01*
X5174300Y-4920300D02*
X5214300Y-4960300D01*
X5214300Y-4920300D02*
X5174300Y-4960300D01*
X5221800Y-6079996D02*
X5261800Y-6119996D01*
X5261800Y-6079996D02*
X5221800Y-6119996D01*
X5225100Y-4234500D02*
X5265100Y-4274500D01*
X5265100Y-4234500D02*
X5225100Y-4274500D01*
X5225100Y-5326700D02*
X5265100Y-5366700D01*
X5265100Y-5326700D02*
X5225100Y-5366700D01*
X5266400Y-3824900D02*
X5306400Y-3864900D01*
X5306400Y-3824900D02*
X5266400Y-3864900D01*
X5275900Y-4450400D02*
X5315900Y-4490400D01*
X5315900Y-4450400D02*
X5275900Y-4490400D01*
X5288600Y-5491800D02*
X5328600Y-5531800D01*
X5328600Y-5491800D02*
X5288600Y-5531800D01*
X5288600Y-5631500D02*
X5328600Y-5671500D01*
X5328600Y-5631500D02*
X5288600Y-5671500D01*
X5314000Y-5352100D02*
X5354000Y-5392100D01*
X5354000Y-5352100D02*
X5314000Y-5392100D01*
X5352100Y-5034600D02*
X5392100Y-5074600D01*
X5392100Y-5034600D02*
X5352100Y-5074600D01*
X5402900Y-5745800D02*
X5442900Y-5785800D01*
X5442900Y-5745800D02*
X5402900Y-5785800D01*
X5428300Y-4234500D02*
X5468300Y-4274500D01*
X5468300Y-4234500D02*
X5428300Y-4274500D01*
X5453700Y-3713800D02*
X5493700Y-3753800D01*
X5493700Y-3713800D02*
X5453700Y-3753800D01*
X5491800Y-2659700D02*
X5531800Y-2699700D01*
X5531800Y-2659700D02*
X5491800Y-2699700D01*
X5504500Y-5656900D02*
X5544500Y-5696900D01*
X5544500Y-5656900D02*
X5504500Y-5696900D01*
X5528032Y-2217068D02*
X5568032Y-2257068D01*
X5568032Y-2217068D02*
X5528032Y-2257068D01*
X5529900Y-1935800D02*
X5569900Y-1975800D01*
X5569900Y-1935800D02*
X5529900Y-1975800D01*
X5669600Y-3713800D02*
X5709600Y-3753800D01*
X5709600Y-3713800D02*
X5669600Y-3753800D01*
X5682300Y-4526600D02*
X5722300Y-4566600D01*
X5722300Y-4526600D02*
X5682300Y-4566600D01*
X5693500Y-5060000D02*
X5733500Y-5100000D01*
X5733500Y-5060000D02*
X5693500Y-5100000D01*
X5695000Y-2659700D02*
X5735000Y-2699700D01*
X5735000Y-2659700D02*
X5695000Y-2699700D01*
X5755200Y-5229096D02*
X5795200Y-5269096D01*
X5795200Y-5229096D02*
X5755200Y-5269096D01*
X5755200Y-5356096D02*
X5795200Y-5396096D01*
X5795200Y-5356096D02*
X5755200Y-5396096D01*
X5755200Y-5559296D02*
X5795200Y-5599296D01*
X5795200Y-5559296D02*
X5755200Y-5599296D01*
X5756632Y-2217068D02*
X5796632Y-2257068D01*
X5796632Y-2217068D02*
X5756632Y-2257068D01*
X5758500Y-1935800D02*
X5798500Y-1975800D01*
X5798500Y-1935800D02*
X5758500Y-1975800D01*
X5758500Y-4437700D02*
X5798500Y-4477700D01*
X5798500Y-4437700D02*
X5758500Y-4477700D01*
X5796600Y-3917000D02*
X5836600Y-3957000D01*
X5836600Y-3917000D02*
X5796600Y-3957000D01*
X5847400Y-3392000D02*
X5887400Y-3432000D01*
X5887400Y-3392000D02*
X5847400Y-3432000D01*
X5856800Y-6295896D02*
X5896800Y-6335896D01*
X5896800Y-6295896D02*
X5856800Y-6335896D01*
X5866450Y-4405950D02*
X5906450Y-4445950D01*
X5906450Y-4405950D02*
X5866450Y-4445950D01*
X5884350Y-5561446D02*
X5924350Y-5601446D01*
X5924350Y-5561446D02*
X5884350Y-5601446D01*
X5913850Y-5019446D02*
X5953850Y-5059446D01*
X5953850Y-5019446D02*
X5913850Y-5059446D01*
X5923600Y-2659700D02*
X5963600Y-2699700D01*
X5963600Y-2659700D02*
X5923600Y-2699700D01*
X5974400Y-1935800D02*
X6014400Y-1975800D01*
X6014400Y-1935800D02*
X5974400Y-1975800D01*
X5981650Y-5353946D02*
X6021650Y-5393946D01*
X6021650Y-5353946D02*
X5981650Y-5393946D01*
X5985232Y-2217068D02*
X6025232Y-2257068D01*
X6025232Y-2217068D02*
X5985232Y-2257068D01*
X6012500Y-3332800D02*
X6052500Y-3372800D01*
X6052500Y-3332800D02*
X6012500Y-3372800D01*
X6012500Y-4310700D02*
X6052500Y-4350700D01*
X6052500Y-4310700D02*
X6012500Y-4350700D01*
X6037900Y-5872800D02*
X6077900Y-5912800D01*
X6077900Y-5872800D02*
X6037900Y-5912800D01*
X6060000Y-5019446D02*
X6100000Y-5059446D01*
X6100000Y-5019446D02*
X6060000Y-5059446D01*
X6060000Y-5226946D02*
X6100000Y-5266946D01*
X6100000Y-5226946D02*
X6060000Y-5266946D01*
X6060000Y-5559296D02*
X6100000Y-5599296D01*
X6100000Y-5559296D02*
X6060000Y-5599296D01*
X6139500Y-5872800D02*
X6179500Y-5912800D01*
X6179500Y-5872800D02*
X6139500Y-5912800D01*
X6203000Y-1935800D02*
X6243000Y-1975800D01*
X6243000Y-1935800D02*
X6203000Y-1975800D01*
X6203000Y-2939100D02*
X6243000Y-2979100D01*
X6243000Y-2939100D02*
X6203000Y-2979100D01*
X6241100Y-3917000D02*
X6281100Y-3957000D01*
X6281100Y-3917000D02*
X6241100Y-3957000D01*
X6301300Y-6460996D02*
X6341300Y-6500996D01*
X6341300Y-6460996D02*
X6301300Y-6500996D01*
X6317300Y-5695000D02*
X6357300Y-5735000D01*
X6357300Y-5695000D02*
X6317300Y-5735000D01*
X6330000Y-3332800D02*
X6370000Y-3372800D01*
X6370000Y-3332800D02*
X6330000Y-3372800D01*
X6466400Y-6308596D02*
X6506400Y-6348596D01*
X6506400Y-6308596D02*
X6466400Y-6348596D01*
X6482400Y-4894900D02*
X6522400Y-4934900D01*
X6522400Y-4894900D02*
X6482400Y-4934900D01*
X6507800Y-3536000D02*
X6547800Y-3576000D01*
X6547800Y-3536000D02*
X6507800Y-3576000D01*
X6545900Y-5225100D02*
X6585900Y-5265100D01*
X6585900Y-5225100D02*
X6545900Y-5265100D01*
X6545900Y-5720400D02*
X6585900Y-5760400D01*
X6585900Y-5720400D02*
X6545900Y-5760400D01*
X6584000Y-3193100D02*
X6624000Y-3233100D01*
X6624000Y-3193100D02*
X6584000Y-3233100D01*
X6584000Y-3396300D02*
X6624000Y-3436300D01*
X6624000Y-3396300D02*
X6584000Y-3436300D01*
X6609400Y-3815400D02*
X6649400Y-3855400D01*
X6649400Y-3815400D02*
X6609400Y-3855400D01*
X6609400Y-5809300D02*
X6649400Y-5849300D01*
X6649400Y-5809300D02*
X6609400Y-5849300D01*
X6660200Y-5504500D02*
X6700200Y-5544500D01*
X6700200Y-5504500D02*
X6660200Y-5544500D01*
X6672900Y-5174300D02*
X6712900Y-5214300D01*
X6712900Y-5174300D02*
X6672900Y-5214300D01*
X6812600Y-4094800D02*
X6852600Y-4134800D01*
X6852600Y-4094800D02*
X6812600Y-4134800D01*
X6863400Y-4894900D02*
X6903400Y-4934900D01*
X6903400Y-4894900D02*
X6863400Y-4934900D01*
X6863400Y-5174300D02*
X6903400Y-5214300D01*
X6903400Y-5174300D02*
X6863400Y-5214300D01*
X6939600Y-4005900D02*
X6979600Y-4045900D01*
X6979600Y-4005900D02*
X6939600Y-4045900D01*
X6939600Y-4221800D02*
X6979600Y-4261800D01*
X6979600Y-4221800D02*
X6939600Y-4261800D01*
X7015800Y-5263200D02*
X7055800Y-5303200D01*
X7055800Y-5263200D02*
X7015800Y-5303200D01*
X7142800Y-3269300D02*
X7182800Y-3309300D01*
X7182800Y-3269300D02*
X7142800Y-3309300D01*
X7142800Y-5644200D02*
X7182800Y-5684200D01*
X7182800Y-5644200D02*
X7142800Y-5684200D01*
X7219000Y-4374200D02*
X7259000Y-4414200D01*
X7259000Y-4374200D02*
X7219000Y-4414200D01*
X7231700Y-4894900D02*
X7271700Y-4934900D01*
X7271700Y-4894900D02*
X7231700Y-4934900D01*
X7282500Y-5936300D02*
X7322500Y-5976300D01*
X7322500Y-5936300D02*
X7282500Y-5976300D01*
X7295200Y-3447100D02*
X7335200Y-3487100D01*
X7335200Y-3447100D02*
X7295200Y-3487100D01*
X7295200Y-3802700D02*
X7335200Y-3842700D01*
X7335200Y-3802700D02*
X7295200Y-3842700D01*
X7307900Y-5479100D02*
X7347900Y-5519100D01*
X7347900Y-5479100D02*
X7307900Y-5519100D01*
X7396800Y-4069400D02*
X7436800Y-4109400D01*
X7436800Y-4069400D02*
X7396800Y-4109400D01*
X7422200Y-5644200D02*
X7462200Y-5684200D01*
X7462200Y-5644200D02*
X7422200Y-5684200D01*
X7447600Y-4983800D02*
X7487600Y-5023800D01*
X7487600Y-4983800D02*
X7447600Y-5023800D01*
X7473000Y-4488500D02*
X7513000Y-4528500D01*
X7513000Y-4488500D02*
X7473000Y-4528500D01*
X7485700Y-4272600D02*
X7525700Y-4312600D01*
X7525700Y-4272600D02*
X7485700Y-4312600D01*
X7485700Y-4780600D02*
X7525700Y-4820600D01*
X7525700Y-4780600D02*
X7485700Y-4820600D01*
X7498400Y-5936300D02*
X7538400Y-5976300D01*
X7538400Y-5936300D02*
X7498400Y-5976300D01*
X7498400Y-6215700D02*
X7538400Y-6255700D01*
X7538400Y-6215700D02*
X7498400Y-6255700D01*
X7498400Y-6418900D02*
X7538400Y-6458900D01*
X7538400Y-6418900D02*
X7498400Y-6458900D01*
X7561900Y-3459800D02*
X7601900Y-3499800D01*
X7601900Y-3459800D02*
X7561900Y-3499800D01*
X7561900Y-3739200D02*
X7601900Y-3779200D01*
X7601900Y-3739200D02*
X7561900Y-3779200D01*
X7561900Y-5479100D02*
X7601900Y-5519100D01*
X7601900Y-5479100D02*
X7561900Y-5519100D01*
X7587300Y-3320100D02*
X7627300Y-3360100D01*
X7627300Y-3320100D02*
X7587300Y-3360100D01*
X7625400Y-3904300D02*
X7665400Y-3944300D01*
X7665400Y-3904300D02*
X7625400Y-3944300D01*
X7625400Y-4234500D02*
X7665400Y-4274500D01*
X7665400Y-4234500D02*
X7625400Y-4274500D01*
X7663500Y-5644200D02*
X7703500Y-5684200D01*
X7703500Y-5644200D02*
X7663500Y-5684200D01*
X7676200Y-6101400D02*
X7716200Y-6141400D01*
X7716200Y-6101400D02*
X7676200Y-6141400D01*
X7739700Y-2974000D02*
X7779700Y-3014000D01*
X7779700Y-2974000D02*
X7739700Y-3014000D01*
X7739700Y-3180400D02*
X7779700Y-3220400D01*
X7779700Y-3180400D02*
X7739700Y-3220400D01*
X7739700Y-5936300D02*
X7779700Y-5976300D01*
X7779700Y-5936300D02*
X7739700Y-5976300D01*
X7739700Y-6418900D02*
X7779700Y-6458900D01*
X7779700Y-6418900D02*
X7739700Y-6458900D01*
X7752400Y-3358200D02*
X7792400Y-3398200D01*
X7792400Y-3358200D02*
X7752400Y-3398200D01*
X7752400Y-3739200D02*
X7792400Y-3779200D01*
X7792400Y-3739200D02*
X7752400Y-3779200D01*
X7790500Y-5479100D02*
X7830500Y-5519100D01*
X7830500Y-5479100D02*
X7790500Y-5519100D01*
X7803200Y-4488500D02*
X7843200Y-4528500D01*
X7843200Y-4488500D02*
X7803200Y-4528500D01*
X7828600Y-4780600D02*
X7868600Y-4820600D01*
X7868600Y-4780600D02*
X7828600Y-4820600D01*
X7866700Y-5047300D02*
X7906700Y-5087300D01*
X7906700Y-5047300D02*
X7866700Y-5087300D01*
X7879400Y-6215700D02*
X7919400Y-6255700D01*
X7919400Y-6215700D02*
X7879400Y-6255700D01*
X7904800Y-5644200D02*
X7944800Y-5684200D01*
X7944800Y-5644200D02*
X7904800Y-5684200D01*
X7904800Y-5936300D02*
X7944800Y-5976300D01*
X7944800Y-5936300D02*
X7904800Y-5976300D01*
X8031800Y-2774000D02*
X8071800Y-2814000D01*
X8071800Y-2774000D02*
X8031800Y-2814000D01*
X8031800Y-4323400D02*
X8071800Y-4363400D01*
X8071800Y-4323400D02*
X8031800Y-4363400D01*
X8057200Y-6393500D02*
X8097200Y-6433500D01*
X8097200Y-6393500D02*
X8057200Y-6433500D01*
X8158800Y-5606100D02*
X8198800Y-5646100D01*
X8198800Y-5606100D02*
X8158800Y-5646100D01*
X8171500Y-5949000D02*
X8211500Y-5989000D01*
X8211500Y-5949000D02*
X8171500Y-5989000D01*
X8184200Y-3675700D02*
X8224200Y-3715700D01*
X8224200Y-3675700D02*
X8184200Y-3715700D01*
X8184200Y-4018600D02*
X8224200Y-4058600D01*
X8224200Y-4018600D02*
X8184200Y-4058600D01*
X8190550Y-4240850D02*
X8230550Y-4280850D01*
X8230550Y-4240850D02*
X8190550Y-4280850D01*
X8209600Y-2113600D02*
X8249600Y-2153600D01*
X8249600Y-2113600D02*
X8209600Y-2153600D01*
X8336600Y-4679000D02*
X8376600Y-4719000D01*
X8376600Y-4679000D02*
X8336600Y-4719000D01*
X8336600Y-5009200D02*
X8376600Y-5049200D01*
X8376600Y-5009200D02*
X8336600Y-5049200D01*
X8362000Y-5364800D02*
X8402000Y-5404800D01*
X8402000Y-5364800D02*
X8362000Y-5404800D01*
X8425500Y-3180400D02*
X8465500Y-3220400D01*
X8465500Y-3180400D02*
X8425500Y-3220400D01*
X8489000Y-6152200D02*
X8529000Y-6192200D01*
X8529000Y-6152200D02*
X8489000Y-6192200D01*
X8514400Y-2875600D02*
X8554400Y-2915600D01*
X8554400Y-2875600D02*
X8514400Y-2915600D01*
X8514400Y-5631500D02*
X8554400Y-5671500D01*
X8554400Y-5631500D02*
X8514400Y-5671500D01*
X8527100Y-6406200D02*
X8567100Y-6446200D01*
X8567100Y-6406200D02*
X8527100Y-6446200D01*
X8666800Y-2062800D02*
X8706800Y-2102800D01*
X8706800Y-2062800D02*
X8666800Y-2102800D01*
X8666800Y-6253800D02*
X8706800Y-6293800D01*
X8706800Y-6253800D02*
X8666800Y-6293800D01*
X8675300Y-5826200D02*
X8715300Y-5866200D01*
X8715300Y-5826200D02*
X8675300Y-5866200D01*
X8679500Y-3764600D02*
X8719500Y-3804600D01*
X8719500Y-3764600D02*
X8679500Y-3804600D01*
X8679500Y-4679000D02*
X8719500Y-4719000D01*
X8719500Y-4679000D02*
X8679500Y-4719000D01*
X8679500Y-5009200D02*
X8719500Y-5049200D01*
X8719500Y-5009200D02*
X8679500Y-5049200D01*
X8704900Y-5364800D02*
X8744900Y-5404800D01*
X8744900Y-5364800D02*
X8704900Y-5404800D01*
X8730300Y-2685100D02*
X8770300Y-2725100D01*
X8770300Y-2685100D02*
X8730300Y-2725100D01*
X8743000Y-3180400D02*
X8783000Y-3220400D01*
X8783000Y-3180400D02*
X8743000Y-3220400D01*
X8793800Y-2875600D02*
X8833800Y-2915600D01*
X8833800Y-2875600D02*
X8793800Y-2915600D01*
X8793800Y-3040700D02*
X8833800Y-3080700D01*
X8833800Y-3040700D02*
X8793800Y-3080700D01*
X8793800Y-3497900D02*
X8833800Y-3537900D01*
X8833800Y-3497900D02*
X8793800Y-3537900D01*
X8819200Y-4145600D02*
X8859200Y-4185600D01*
X8859200Y-4145600D02*
X8819200Y-4185600D01*
X8857300Y-2062800D02*
X8897300Y-2102800D01*
X8897300Y-2062800D02*
X8857300Y-2102800D01*
X8908100Y-2456500D02*
X8948100Y-2496500D01*
X8948100Y-2456500D02*
X8908100Y-2496500D01*
X8971600Y-3180400D02*
X9011600Y-3220400D01*
X9011600Y-3180400D02*
X8971600Y-3220400D01*
X8984300Y-4856800D02*
X9024300Y-4896800D01*
X9024300Y-4856800D02*
X8984300Y-4896800D01*
X8997000Y-3497900D02*
X9037000Y-3537900D01*
X9037000Y-3497900D02*
X8997000Y-3537900D01*
X8997000Y-4679000D02*
X9037000Y-4719000D01*
X9037000Y-4679000D02*
X8997000Y-4719000D01*
X8997000Y-6457000D02*
X9037000Y-6497000D01*
X9037000Y-6457000D02*
X8997000Y-6497000D01*
X9035100Y-2685100D02*
X9075100Y-2725100D01*
X9075100Y-2685100D02*
X9035100Y-2725100D01*
X9035100Y-2875600D02*
X9075100Y-2915600D01*
X9075100Y-2875600D02*
X9035100Y-2915600D01*
X9035100Y-3764600D02*
X9075100Y-3804600D01*
X9075100Y-3764600D02*
X9035100Y-3804600D01*
X9047800Y-4145600D02*
X9087800Y-4185600D01*
X9087800Y-4145600D02*
X9047800Y-4185600D01*
X9060500Y-2062800D02*
X9100500Y-2102800D01*
X9100500Y-2062800D02*
X9060500Y-2102800D01*
X9124000Y-6126800D02*
X9164000Y-6166800D01*
X9164000Y-6126800D02*
X9124000Y-6166800D01*
X9136700Y-2456500D02*
X9176700Y-2496500D01*
X9176700Y-2456500D02*
X9136700Y-2496500D01*
X9149400Y-5542600D02*
X9189400Y-5582600D01*
X9189400Y-5542600D02*
X9149400Y-5582600D01*
X9162100Y-5927900D02*
X9202100Y-5967900D01*
X9202100Y-5927900D02*
X9162100Y-5967900D01*
X9174800Y-6304600D02*
X9214800Y-6344600D01*
X9214800Y-6304600D02*
X9174800Y-6344600D01*
X9263700Y-2875600D02*
X9303700Y-2915600D01*
X9303700Y-2875600D02*
X9263700Y-2915600D01*
X9276400Y-4882200D02*
X9316400Y-4922200D01*
X9316400Y-4882200D02*
X9276400Y-4922200D01*
X9276400Y-5148900D02*
X9316400Y-5188900D01*
X9316400Y-5148900D02*
X9276400Y-5188900D01*
X9289100Y-2062800D02*
X9329100Y-2102800D01*
X9329100Y-2062800D02*
X9289100Y-2102800D01*
X9289100Y-3180400D02*
X9329100Y-3220400D01*
X9329100Y-3180400D02*
X9289100Y-3220400D01*
X9289100Y-3497900D02*
X9329100Y-3537900D01*
X9329100Y-3497900D02*
X9289100Y-3537900D01*
X9289100Y-4145600D02*
X9329100Y-4185600D01*
X9329100Y-4145600D02*
X9289100Y-4185600D01*
X9314500Y-5314000D02*
X9354500Y-5354000D01*
X9354500Y-5314000D02*
X9314500Y-5354000D01*
X9314500Y-6457000D02*
X9354500Y-6497000D01*
X9354500Y-6457000D02*
X9314500Y-6497000D01*
X9339900Y-2685100D02*
X9379900Y-2725100D01*
X9379900Y-2685100D02*
X9339900Y-2725100D01*
X9390700Y-2456500D02*
X9430700Y-2496500D01*
X9430700Y-2456500D02*
X9390700Y-2496500D01*
X9428800Y-5314000D02*
X9468800Y-5354000D01*
X9468800Y-5314000D02*
X9428800Y-5354000D01*
X9492300Y-4679000D02*
X9532300Y-4719000D01*
X9532300Y-4679000D02*
X9492300Y-4719000D01*
X9505000Y-2875600D02*
X9545000Y-2915600D01*
X9545000Y-2875600D02*
X9505000Y-2915600D01*
X9530400Y-5148900D02*
X9570400Y-5188900D01*
X9570400Y-5148900D02*
X9530400Y-5188900D01*
X9568500Y-2062800D02*
X9608500Y-2102800D01*
X9608500Y-2062800D02*
X9568500Y-2102800D01*
X9606600Y-2685100D02*
X9646600Y-2725100D01*
X9646600Y-2685100D02*
X9606600Y-2725100D01*
X9632000Y-4615500D02*
X9672000Y-4655500D01*
X9672000Y-4615500D02*
X9632000Y-4655500D01*
X9632000Y-6457000D02*
X9672000Y-6497000D01*
X9672000Y-6457000D02*
X9632000Y-6497000D01*
X9670100Y-5123500D02*
X9710100Y-5163500D01*
X9710100Y-5123500D02*
X9670100Y-5163500D01*
X9670100Y-5377500D02*
X9710100Y-5417500D01*
X9710100Y-5377500D02*
X9670100Y-5417500D01*
X9682800Y-3497900D02*
X9722800Y-3537900D01*
X9722800Y-3497900D02*
X9682800Y-3537900D01*
X9682800Y-3713800D02*
X9722800Y-3753800D01*
X9722800Y-3713800D02*
X9682800Y-3753800D01*
X9708200Y-6101400D02*
X9748200Y-6141400D01*
X9748200Y-6101400D02*
X9708200Y-6141400D01*
X9746300Y-3040700D02*
X9786300Y-3080700D01*
X9786300Y-3040700D02*
X9746300Y-3080700D01*
X9746300Y-3193100D02*
X9786300Y-3233100D01*
X9786300Y-3193100D02*
X9746300Y-3233100D01*
X9771700Y-4272600D02*
X9811700Y-4312600D01*
X9811700Y-4272600D02*
X9771700Y-4312600D01*
X9784400Y-3980500D02*
X9824400Y-4020500D01*
X9824400Y-3980500D02*
X9784400Y-4020500D01*
X9809800Y-4767900D02*
X9849800Y-4807900D01*
X9849800Y-4767900D02*
X9809800Y-4807900D01*
X9822500Y-2062800D02*
X9862500Y-2102800D01*
X9862500Y-2062800D02*
X9822500Y-2102800D01*
X9886000Y-6050600D02*
X9926000Y-6090600D01*
X9926000Y-6050600D02*
X9886000Y-6090600D01*
X9886000Y-6457000D02*
X9926000Y-6497000D01*
X9926000Y-6457000D02*
X9886000Y-6497000D01*
X9924100Y-3497900D02*
X9964100Y-3537900D01*
X9964100Y-3497900D02*
X9924100Y-3537900D01*
X9924100Y-3713800D02*
X9964100Y-3753800D01*
X9964100Y-3713800D02*
X9924100Y-3753800D01*
X9924100Y-5377500D02*
X9964100Y-5417500D01*
X9964100Y-5377500D02*
X9924100Y-5417500D01*
X9928400Y-5631500D02*
X9968400Y-5671500D01*
X9968400Y-5631500D02*
X9928400Y-5671500D01*
X9949500Y-4628200D02*
X9989500Y-4668200D01*
X9989500Y-4628200D02*
X9949500Y-4668200D01*
X9949500Y-4958400D02*
X9989500Y-4998400D01*
X9989500Y-4958400D02*
X9949500Y-4998400D01*
X9987600Y-5936300D02*
X10027600Y-5976300D01*
X10027600Y-5936300D02*
X9987600Y-5976300D01*
X10000300Y-4183700D02*
X10040300Y-4223700D01*
X10040300Y-4183700D02*
X10000300Y-4223700D01*
X10000300Y-5453700D02*
X10040300Y-5493700D01*
X10040300Y-5453700D02*
X10000300Y-5493700D01*
X10051100Y-2062800D02*
X10091100Y-2102800D01*
X10091100Y-2062800D02*
X10051100Y-2102800D01*
X10101900Y-4272600D02*
X10141900Y-4312600D01*
X10141900Y-4272600D02*
X10101900Y-4312600D01*
X10140000Y-6457000D02*
X10180000Y-6497000D01*
X10180000Y-6457000D02*
X10140000Y-6497000D01*
X10190800Y-4869500D02*
X10230800Y-4909500D01*
X10230800Y-4869500D02*
X10190800Y-4909500D01*
X10190800Y-5288600D02*
X10230800Y-5328600D01*
X10230800Y-5288600D02*
X10190800Y-5328600D01*
X10203500Y-3612200D02*
X10243500Y-3652200D01*
X10243500Y-3612200D02*
X10203500Y-3652200D01*
X10216200Y-2862900D02*
X10256200Y-2902900D01*
X10256200Y-2862900D02*
X10216200Y-2902900D01*
X10228900Y-2062800D02*
X10268900Y-2102800D01*
X10268900Y-2062800D02*
X10228900Y-2102800D01*
X10254300Y-3167700D02*
X10294300Y-3207700D01*
X10294300Y-3167700D02*
X10254300Y-3207700D01*
X10267000Y-5961700D02*
X10307000Y-6001700D01*
X10307000Y-5961700D02*
X10267000Y-6001700D01*
X10317800Y-5466400D02*
X10357800Y-5506400D01*
X10357800Y-5466400D02*
X10317800Y-5506400D01*
X10381300Y-6457000D02*
X10421300Y-6497000D01*
X10421300Y-6457000D02*
X10381300Y-6497000D01*
X10419400Y-2062800D02*
X10459400Y-2102800D01*
X10459400Y-2062800D02*
X10419400Y-2102800D01*
X10444800Y-4615500D02*
X10484800Y-4655500D01*
X10484800Y-4615500D02*
X10444800Y-4655500D01*
X10470200Y-2545400D02*
X10510200Y-2585400D01*
X10510200Y-2545400D02*
X10470200Y-2585400D01*
X10533700Y-4564700D02*
X10573700Y-4604700D01*
X10573700Y-4564700D02*
X10533700Y-4604700D01*
X10533700Y-5301300D02*
X10573700Y-5341300D01*
X10573700Y-5301300D02*
X10533700Y-5341300D01*
X10540050Y-5409250D02*
X10580050Y-5449250D01*
X10580050Y-5409250D02*
X10540050Y-5449250D01*
X10546400Y-3764600D02*
X10586400Y-3804600D01*
X10586400Y-3764600D02*
X10546400Y-3804600D01*
X10559100Y-3269300D02*
X10599100Y-3309300D01*
X10599100Y-3269300D02*
X10559100Y-3309300D01*
X10597200Y-4488500D02*
X10637200Y-4528500D01*
X10637200Y-4488500D02*
X10597200Y-4528500D01*
X10609900Y-3497900D02*
X10649900Y-3537900D01*
X10649900Y-3497900D02*
X10609900Y-3537900D01*
X10609900Y-6025200D02*
X10649900Y-6065200D01*
X10649900Y-6025200D02*
X10609900Y-6065200D01*
X10622600Y-2062800D02*
X10662600Y-2102800D01*
X10662600Y-2062800D02*
X10622600Y-2102800D01*
X10622600Y-6457000D02*
X10662600Y-6497000D01*
X10662600Y-6457000D02*
X10622600Y-6497000D01*
X10635300Y-3040700D02*
X10675300Y-3080700D01*
X10675300Y-3040700D02*
X10635300Y-3080700D01*
X10648000Y-2748600D02*
X10688000Y-2788600D01*
X10688000Y-2748600D02*
X10648000Y-2788600D01*
X10660700Y-2431100D02*
X10700700Y-2471100D01*
X10700700Y-2431100D02*
X10660700Y-2471100D01*
X10660700Y-5631500D02*
X10700700Y-5671500D01*
X10700700Y-5631500D02*
X10660700Y-5671500D01*
X10724200Y-3929700D02*
X10764200Y-3969700D01*
X10764200Y-3929700D02*
X10724200Y-3969700D01*
X10724200Y-4145600D02*
X10764200Y-4185600D01*
X10764200Y-4145600D02*
X10724200Y-4185600D01*
X10724200Y-6253800D02*
X10764200Y-6293800D01*
X10764200Y-6253800D02*
X10724200Y-6293800D01*
X10779200Y-2117800D02*
X10819200Y-2157800D01*
X10819200Y-2117800D02*
X10779200Y-2157800D01*
X10800400Y-3294700D02*
X10840400Y-3334700D01*
X10840400Y-3294700D02*
X10800400Y-3334700D01*
X10838500Y-3764600D02*
X10878500Y-3804600D01*
X10878500Y-3764600D02*
X10838500Y-3804600D01*
X10838500Y-5631500D02*
X10878500Y-5671500D01*
X10878500Y-5631500D02*
X10838500Y-5671500D01*
X10851200Y-4704400D02*
X10891200Y-4744400D01*
X10891200Y-4704400D02*
X10851200Y-4744400D01*
X10851200Y-4894900D02*
X10891200Y-4934900D01*
X10891200Y-4894900D02*
X10851200Y-4934900D01*
X10851200Y-6457000D02*
X10891200Y-6497000D01*
X10891200Y-6457000D02*
X10851200Y-6497000D01*
X10884900Y-5018500D02*
X10924900Y-5058500D01*
X10924900Y-5018500D02*
X10884900Y-5058500D01*
X10884900Y-5221700D02*
X10924900Y-5261700D01*
X10924900Y-5221700D02*
X10884900Y-5261700D01*
X10889300Y-5441000D02*
X10929300Y-5481000D01*
X10929300Y-5441000D02*
X10889300Y-5481000D01*
X10914700Y-2748600D02*
X10954700Y-2788600D01*
X10954700Y-2748600D02*
X10914700Y-2788600D01*
X10940100Y-4717100D02*
X10980100Y-4757100D01*
X10980100Y-4717100D02*
X10940100Y-4757100D01*
X10952800Y-4818700D02*
X10992800Y-4858700D01*
X10992800Y-4818700D02*
X10952800Y-4858700D01*
X11016300Y-2621600D02*
X11056300Y-2661600D01*
X11056300Y-2621600D02*
X11016300Y-2661600D01*
X11029000Y-2862900D02*
X11069000Y-2902900D01*
X11069000Y-2862900D02*
X11029000Y-2902900D01*
X11029000Y-5415600D02*
X11069000Y-5455600D01*
X11069000Y-5415600D02*
X11029000Y-5455600D01*
X11029000Y-5618800D02*
X11069000Y-5658800D01*
X11069000Y-5618800D02*
X11029000Y-5658800D01*
X11029000Y-5834700D02*
X11069000Y-5874700D01*
X11069000Y-5834700D02*
X11029000Y-5874700D01*
X11065500Y-6014100D02*
X11105500Y-6054100D01*
X11105500Y-6014100D02*
X11065500Y-6054100D01*
X11067100Y-6164900D02*
X11107100Y-6204900D01*
X11107100Y-6164900D02*
X11067100Y-6204900D01*
X11105200Y-3294700D02*
X11145200Y-3334700D01*
X11145200Y-3294700D02*
X11105200Y-3334700D01*
X11143300Y-3586800D02*
X11183300Y-3626800D01*
X11183300Y-3586800D02*
X11143300Y-3626800D01*
X11194100Y-2862900D02*
X11234100Y-2902900D01*
X11234100Y-2862900D02*
X11194100Y-2902900D01*
X11219500Y-5047300D02*
X11259500Y-5087300D01*
X11259500Y-5047300D02*
X11219500Y-5087300D01*
X11219500Y-5631500D02*
X11259500Y-5671500D01*
X11259500Y-5631500D02*
X11219500Y-5671500D01*
X11219500Y-5834700D02*
X11259500Y-5874700D01*
X11259500Y-5834700D02*
X11219500Y-5874700D01*
X11244900Y-5377500D02*
X11284900Y-5417500D01*
X11284900Y-5377500D02*
X11244900Y-5417500D01*
X11359200Y-6012500D02*
X11399200Y-6052500D01*
X11399200Y-6012500D02*
X11359200Y-6052500D01*
X11435400Y-1986600D02*
X11475400Y-2026600D01*
X11475400Y-1986600D02*
X11435400Y-2026600D01*
X11486200Y-3218500D02*
X11526200Y-3258500D01*
X11526200Y-3218500D02*
X11486200Y-3258500D01*
X11486200Y-3409000D02*
X11526200Y-3449000D01*
X11526200Y-3409000D02*
X11486200Y-3449000D01*
X11486200Y-3624900D02*
X11526200Y-3664900D01*
X11526200Y-3624900D02*
X11486200Y-3664900D01*
X11486200Y-6355400D02*
X11526200Y-6395400D01*
X11526200Y-6355400D02*
X11486200Y-6395400D01*
X11511600Y-5644200D02*
X11551600Y-5684200D01*
X11551600Y-5644200D02*
X11511600Y-5684200D01*
X11524300Y-3040700D02*
X11564300Y-3080700D01*
X11564300Y-3040700D02*
X11524300Y-3080700D01*
X11524300Y-6152200D02*
X11564300Y-6192200D01*
X11564300Y-6152200D02*
X11524300Y-6192200D01*
X11575100Y-2342200D02*
X11615100Y-2382200D01*
X11615100Y-2342200D02*
X11575100Y-2382200D01*
X11587800Y-5187000D02*
X11627800Y-5227000D01*
X11627800Y-5187000D02*
X11587800Y-5227000D01*
X11634300Y-1987100D02*
X11674300Y-2027100D01*
X11674300Y-1987100D02*
X11634300Y-2027100D01*
X11696900Y-6004100D02*
X11736900Y-6044100D01*
X11736900Y-6004100D02*
X11696900Y-6044100D01*
X11702100Y-3218500D02*
X11742100Y-3258500D01*
X11742100Y-3218500D02*
X11702100Y-3258500D01*
X11702100Y-3497900D02*
X11742100Y-3537900D01*
X11742100Y-3497900D02*
X11702100Y-3537900D01*
X11702100Y-3726500D02*
X11742100Y-3766500D01*
X11742100Y-3726500D02*
X11702100Y-3766500D01*
X11714800Y-5072700D02*
X11754800Y-5112700D01*
X11754800Y-5072700D02*
X11714800Y-5112700D01*
X11714800Y-5644200D02*
X11754800Y-5684200D01*
X11754800Y-5644200D02*
X11714800Y-5684200D01*
X11841800Y-1987100D02*
X11881800Y-2027100D01*
X11881800Y-1987100D02*
X11841800Y-2027100D01*
X11892600Y-4209100D02*
X11932600Y-4249100D01*
X11932600Y-4209100D02*
X11892600Y-4249100D01*
X11922300Y-5263200D02*
X11962300Y-5303200D01*
X11962300Y-5263200D02*
X11922300Y-5303200D01*
X11930700Y-5644200D02*
X11970700Y-5684200D01*
X11970700Y-5644200D02*
X11930700Y-5684200D01*
X11943400Y-5860100D02*
X11983400Y-5900100D01*
X11983400Y-5860100D02*
X11943400Y-5900100D01*
X11956100Y-6545900D02*
X11996100Y-6585900D01*
X11996100Y-6545900D02*
X11956100Y-6585900D01*
X12019600Y-5822000D02*
X12059600Y-5862000D01*
X12059600Y-5822000D02*
X12019600Y-5862000D01*
X12019600Y-5910900D02*
X12059600Y-5950900D01*
X12059600Y-5910900D02*
X12019600Y-5950900D01*
X12108500Y-5606100D02*
X12148500Y-5646100D01*
X12148500Y-5606100D02*
X12108500Y-5646100D01*
X12108500Y-5695000D02*
X12148500Y-5735000D01*
X12148500Y-5695000D02*
X12108500Y-5735000D01*
X12108500Y-5783900D02*
X12148500Y-5823900D01*
X12148500Y-5783900D02*
X12108500Y-5823900D01*
X12108500Y-5872800D02*
X12148500Y-5912800D01*
X12148500Y-5872800D02*
X12108500Y-5912800D01*
X12108500Y-5961700D02*
X12148500Y-6001700D01*
X12148500Y-5961700D02*
X12108500Y-6001700D01*
X12108500Y-6050600D02*
X12148500Y-6090600D01*
X12148500Y-6050600D02*
X12108500Y-6090600D01*
X12108500Y-6139500D02*
X12148500Y-6179500D01*
X12148500Y-6139500D02*
X12108500Y-6179500D01*
X12108500Y-6228400D02*
X12148500Y-6268400D01*
X12148500Y-6228400D02*
X12108500Y-6268400D01*
X12172000Y-5060000D02*
X12212000Y-5100000D01*
X12212000Y-5060000D02*
X12172000Y-5100000D01*
X12172000Y-6545900D02*
X12212000Y-6585900D01*
X12212000Y-6545900D02*
X12172000Y-6585900D01*
X12197400Y-5606100D02*
X12237400Y-5646100D01*
X12237400Y-5606100D02*
X12197400Y-5646100D01*
X12197400Y-5695000D02*
X12237400Y-5735000D01*
X12237400Y-5695000D02*
X12197400Y-5735000D01*
X12197400Y-5783900D02*
X12237400Y-5823900D01*
X12237400Y-5783900D02*
X12197400Y-5823900D01*
X12197400Y-5872800D02*
X12237400Y-5912800D01*
X12237400Y-5872800D02*
X12197400Y-5912800D01*
X12197400Y-5961700D02*
X12237400Y-6001700D01*
X12237400Y-5961700D02*
X12197400Y-6001700D01*
X12197400Y-6050600D02*
X12237400Y-6090600D01*
X12237400Y-6050600D02*
X12197400Y-6090600D01*
X12197400Y-6139500D02*
X12237400Y-6179500D01*
X12237400Y-6139500D02*
X12197400Y-6179500D01*
X12197400Y-6228400D02*
X12237400Y-6268400D01*
X12237400Y-6228400D02*
X12197400Y-6268400D01*
X12235500Y-4742500D02*
X12275500Y-4782500D01*
X12275500Y-4742500D02*
X12235500Y-4782500D01*
X12286300Y-5529900D02*
X12326300Y-5569900D01*
X12326300Y-5529900D02*
X12286300Y-5569900D01*
X12286300Y-5618800D02*
X12326300Y-5658800D01*
X12326300Y-5618800D02*
X12286300Y-5658800D01*
X12286300Y-5695000D02*
X12326300Y-5735000D01*
X12326300Y-5695000D02*
X12286300Y-5735000D01*
X12286300Y-5783900D02*
X12326300Y-5823900D01*
X12326300Y-5783900D02*
X12286300Y-5823900D01*
X12286300Y-5872800D02*
X12326300Y-5912800D01*
X12326300Y-5872800D02*
X12286300Y-5912800D01*
X12286300Y-5961700D02*
X12326300Y-6001700D01*
X12326300Y-5961700D02*
X12286300Y-6001700D01*
X12286300Y-6050600D02*
X12326300Y-6090600D01*
X12326300Y-6050600D02*
X12286300Y-6090600D01*
X12286300Y-6139500D02*
X12326300Y-6179500D01*
X12326300Y-6139500D02*
X12286300Y-6179500D01*
X12286300Y-6228400D02*
X12326300Y-6268400D01*
X12326300Y-6228400D02*
X12286300Y-6268400D01*
X12375200Y-3218500D02*
X12415200Y-3258500D01*
X12415200Y-3218500D02*
X12375200Y-3258500D01*
X12375200Y-3497900D02*
X12415200Y-3537900D01*
X12415200Y-3497900D02*
X12375200Y-3537900D01*
X12375200Y-3726500D02*
X12415200Y-3766500D01*
X12415200Y-3726500D02*
X12375200Y-3766500D01*
X12375200Y-5466400D02*
X12415200Y-5506400D01*
X12415200Y-5466400D02*
X12375200Y-5506400D01*
X12375200Y-5555300D02*
X12415200Y-5595300D01*
X12415200Y-5555300D02*
X12375200Y-5595300D01*
X12375200Y-5644200D02*
X12415200Y-5684200D01*
X12415200Y-5644200D02*
X12375200Y-5684200D01*
X12375200Y-5733100D02*
X12415200Y-5773100D01*
X12415200Y-5733100D02*
X12375200Y-5773100D01*
X12375200Y-5830400D02*
X12415200Y-5870400D01*
X12415200Y-5830400D02*
X12375200Y-5870400D01*
X12375200Y-5919300D02*
X12415200Y-5959300D01*
X12415200Y-5919300D02*
X12375200Y-5959300D01*
X12375200Y-6012500D02*
X12415200Y-6052500D01*
X12415200Y-6012500D02*
X12375200Y-6052500D01*
X12375200Y-6101400D02*
X12415200Y-6141400D01*
X12415200Y-6101400D02*
X12375200Y-6141400D01*
X12375200Y-6190300D02*
X12415200Y-6230300D01*
X12415200Y-6190300D02*
X12375200Y-6230300D01*
X12400600Y-6571300D02*
X12440600Y-6611300D01*
X12440600Y-6571300D02*
X12400600Y-6611300D01*
X12451400Y-3040700D02*
X12491400Y-3080700D01*
X12491400Y-3040700D02*
X12451400Y-3080700D01*
X12464100Y-4742500D02*
X12504100Y-4782500D01*
X12504100Y-4742500D02*
X12464100Y-4782500D01*
X12464100Y-5479100D02*
X12504100Y-5519100D01*
X12504100Y-5479100D02*
X12464100Y-5519100D01*
X12464100Y-5568000D02*
X12504100Y-5608000D01*
X12504100Y-5568000D02*
X12464100Y-5608000D01*
X12464100Y-5656900D02*
X12504100Y-5696900D01*
X12504100Y-5656900D02*
X12464100Y-5696900D01*
X12464100Y-5745800D02*
X12504100Y-5785800D01*
X12504100Y-5745800D02*
X12464100Y-5785800D01*
X12464100Y-5830400D02*
X12504100Y-5870400D01*
X12504100Y-5830400D02*
X12464100Y-5870400D01*
X12464100Y-5919300D02*
X12504100Y-5959300D01*
X12504100Y-5919300D02*
X12464100Y-5959300D01*
X12464100Y-6012500D02*
X12504100Y-6052500D01*
X12504100Y-6012500D02*
X12464100Y-6052500D01*
X12464100Y-6101400D02*
X12504100Y-6141400D01*
X12504100Y-6101400D02*
X12464100Y-6141400D01*
X12464100Y-6190300D02*
X12504100Y-6230300D01*
X12504100Y-6190300D02*
X12464100Y-6230300D01*
X12553000Y-5479100D02*
X12593000Y-5519100D01*
X12593000Y-5479100D02*
X12553000Y-5519100D01*
X12553000Y-5568000D02*
X12593000Y-5608000D01*
X12593000Y-5568000D02*
X12553000Y-5608000D01*
X12553000Y-5656900D02*
X12593000Y-5696900D01*
X12593000Y-5656900D02*
X12553000Y-5696900D01*
X12553000Y-5745800D02*
X12593000Y-5785800D01*
X12593000Y-5745800D02*
X12553000Y-5785800D01*
X12553000Y-5830400D02*
X12593000Y-5870400D01*
X12593000Y-5830400D02*
X12553000Y-5870400D01*
X12553000Y-5919300D02*
X12593000Y-5959300D01*
X12593000Y-5919300D02*
X12553000Y-5959300D01*
X12553000Y-6012500D02*
X12593000Y-6052500D01*
X12593000Y-6012500D02*
X12553000Y-6052500D01*
X12553000Y-6101400D02*
X12593000Y-6141400D01*
X12593000Y-6101400D02*
X12553000Y-6141400D01*
X12553000Y-6190300D02*
X12593000Y-6230300D01*
X12593000Y-6190300D02*
X12553000Y-6230300D01*
X12578400Y-3218500D02*
X12618400Y-3258500D01*
X12618400Y-3218500D02*
X12578400Y-3258500D01*
X12591100Y-3497900D02*
X12631100Y-3537900D01*
X12631100Y-3497900D02*
X12591100Y-3537900D01*
X12591100Y-3726500D02*
X12631100Y-3766500D01*
X12631100Y-3726500D02*
X12591100Y-3766500D01*
X12603800Y-6571300D02*
X12643800Y-6611300D01*
X12643800Y-6571300D02*
X12603800Y-6611300D01*
X12641900Y-5479100D02*
X12681900Y-5519100D01*
X12681900Y-5479100D02*
X12641900Y-5519100D01*
X12641900Y-5568000D02*
X12681900Y-5608000D01*
X12681900Y-5568000D02*
X12641900Y-5608000D01*
X12641900Y-5656900D02*
X12681900Y-5696900D01*
X12681900Y-5656900D02*
X12641900Y-5696900D01*
X12641900Y-5745800D02*
X12681900Y-5785800D01*
X12681900Y-5745800D02*
X12641900Y-5785800D01*
X12641900Y-5830400D02*
X12681900Y-5870400D01*
X12681900Y-5830400D02*
X12641900Y-5870400D01*
X12641900Y-5919300D02*
X12681900Y-5959300D01*
X12681900Y-5919300D02*
X12641900Y-5959300D01*
X12641900Y-6012500D02*
X12681900Y-6052500D01*
X12681900Y-6012500D02*
X12641900Y-6052500D01*
X12641900Y-6101400D02*
X12681900Y-6141400D01*
X12681900Y-6101400D02*
X12641900Y-6141400D01*
X12641900Y-6190300D02*
X12681900Y-6230300D01*
X12681900Y-6190300D02*
X12641900Y-6230300D01*
X12654600Y-4742500D02*
X12694600Y-4782500D01*
X12694600Y-4742500D02*
X12654600Y-4782500D01*
X12667300Y-2393000D02*
X12707300Y-2433000D01*
X12707300Y-2393000D02*
X12667300Y-2433000D01*
X12667300Y-2596200D02*
X12707300Y-2636200D01*
X12707300Y-2596200D02*
X12667300Y-2636200D01*
X12730800Y-5885500D02*
X12770800Y-5925500D01*
X12770800Y-5885500D02*
X12730800Y-5925500D01*
X12730800Y-6177600D02*
X12770800Y-6217600D01*
X12770800Y-6177600D02*
X12730800Y-6217600D01*
X12819700Y-6177600D02*
X12859700Y-6217600D01*
X12859700Y-6177600D02*
X12819700Y-6217600D01*
X12819700Y-6571300D02*
X12859700Y-6611300D01*
X12859700Y-6571300D02*
X12819700Y-6611300D01*
X12832400Y-4539300D02*
X12872400Y-4579300D01*
X12872400Y-4539300D02*
X12832400Y-4579300D01*
X12832400Y-4742500D02*
X12872400Y-4782500D01*
X12872400Y-4742500D02*
X12832400Y-4782500D01*
X12908600Y-6177600D02*
X12948600Y-6217600D01*
X12948600Y-6177600D02*
X12908600Y-6217600D01*
X12921300Y-3218500D02*
X12961300Y-3258500D01*
X12961300Y-3218500D02*
X12921300Y-3258500D01*
X12921300Y-3739200D02*
X12961300Y-3779200D01*
X12961300Y-3739200D02*
X12921300Y-3779200D01*
X12946700Y-3040700D02*
X12986700Y-3080700D01*
X12986700Y-3040700D02*
X12946700Y-3080700D01*
X12946700Y-6025200D02*
X12986700Y-6065200D01*
X12986700Y-6025200D02*
X12946700Y-6065200D01*
X12997500Y-5314000D02*
X13037500Y-5354000D01*
X13037500Y-5314000D02*
X12997500Y-5354000D01*
X13022900Y-6571300D02*
X13062900Y-6611300D01*
X13062900Y-6571300D02*
X13022900Y-6611300D01*
X13073700Y-4642300D02*
X13113700Y-4682300D01*
X13113700Y-4642300D02*
X13073700Y-4682300D01*
X13073700Y-4971100D02*
X13113700Y-5011100D01*
X13113700Y-4971100D02*
X13073700Y-5011100D01*
X13099100Y-5881200D02*
X13139100Y-5921200D01*
X13139100Y-5881200D02*
X13099100Y-5921200D01*
X13200700Y-4564700D02*
X13240700Y-4604700D01*
X13240700Y-4564700D02*
X13200700Y-4604700D01*
X13213400Y-5652600D02*
X13253400Y-5692600D01*
X13253400Y-5652600D02*
X13213400Y-5692600D01*
X13238800Y-6571300D02*
X13278800Y-6611300D01*
X13278800Y-6571300D02*
X13238800Y-6611300D01*
X13276900Y-3726500D02*
X13316900Y-3766500D01*
X13316900Y-3726500D02*
X13276900Y-3766500D01*
X13289600Y-3218500D02*
X13329600Y-3258500D01*
X13329600Y-3218500D02*
X13289600Y-3258500D01*
X13289600Y-3485200D02*
X13329600Y-3525200D01*
X13329600Y-3485200D02*
X13289600Y-3525200D01*
X13452550Y-5881200D02*
X13492550Y-5921200D01*
X13492550Y-5881200D02*
X13452550Y-5921200D01*
X13480100Y-6571300D02*
X13520100Y-6611300D01*
X13520100Y-6571300D02*
X13480100Y-6611300D01*
X13480960Y-3219360D02*
X13520960Y-3259360D01*
X13520960Y-3219360D02*
X13480960Y-3259360D01*
X13492800Y-1923100D02*
X13532800Y-1963100D01*
X13532800Y-1923100D02*
X13492800Y-1963100D01*
X13492800Y-3497900D02*
X13532800Y-3537900D01*
X13532800Y-3497900D02*
X13492800Y-3537900D01*
X13492800Y-3726500D02*
X13532800Y-3766500D01*
X13532800Y-3726500D02*
X13492800Y-3766500D01*
X13505500Y-2316800D02*
X13545500Y-2356800D01*
X13545500Y-2316800D02*
X13505500Y-2356800D01*
X13505500Y-3040700D02*
X13545500Y-3080700D01*
X13545500Y-3040700D02*
X13505500Y-3080700D01*
X13543600Y-5652600D02*
X13583600Y-5692600D01*
X13583600Y-5652600D02*
X13543600Y-5692600D01*
X13696000Y-6571300D02*
X13736000Y-6611300D01*
X13736000Y-6571300D02*
X13696000Y-6611300D01*
X13823000Y-2456500D02*
X13863000Y-2496500D01*
X13863000Y-2456500D02*
X13823000Y-2496500D01*
X13823000Y-2723200D02*
X13863000Y-2763200D01*
X13863000Y-2723200D02*
X13823000Y-2763200D01*
X13823000Y-2977200D02*
X13863000Y-3017200D01*
X13863000Y-2977200D02*
X13823000Y-3017200D01*
X13823000Y-3243900D02*
X13863000Y-3283900D01*
X13863000Y-3243900D02*
X13823000Y-3283900D01*
X13823000Y-3485200D02*
X13863000Y-3525200D01*
X13863000Y-3485200D02*
X13823000Y-3525200D01*
X13823000Y-3713800D02*
X13863000Y-3753800D01*
X13863000Y-3713800D02*
X13823000Y-3753800D01*
X13823000Y-3929700D02*
X13863000Y-3969700D01*
X13863000Y-3929700D02*
X13823000Y-3969700D01*
X13823000Y-4183700D02*
X13863000Y-4223700D01*
X13863000Y-4183700D02*
X13823000Y-4223700D01*
X13823000Y-4399600D02*
X13863000Y-4439600D01*
X13863000Y-4399600D02*
X13823000Y-4439600D01*
X13823000Y-4615500D02*
X13863000Y-4655500D01*
X13863000Y-4615500D02*
X13823000Y-4655500D01*
X13823000Y-4806000D02*
X13863000Y-4846000D01*
X13863000Y-4806000D02*
X13823000Y-4846000D01*
X13823000Y-5009200D02*
X13863000Y-5049200D01*
X13863000Y-5009200D02*
X13823000Y-5049200D01*
X13823000Y-5212400D02*
X13863000Y-5252400D01*
X13863000Y-5212400D02*
X13823000Y-5252400D01*
X13823000Y-5415600D02*
X13863000Y-5455600D01*
X13863000Y-5415600D02*
X13823000Y-5455600D01*
X13848400Y-6190300D02*
X13888400Y-6230300D01*
X13888400Y-6190300D02*
X13848400Y-6230300D01*
X13848400Y-6418900D02*
X13888400Y-6458900D01*
X13888400Y-6418900D02*
X13848400Y-6458900D01*
X13848400Y-6571300D02*
X13888400Y-6611300D01*
X13888400Y-6571300D02*
X13848400Y-6611300D01*
D10*
X5203300Y-5744396D02*
G75*
G03*
X5203300Y-5744396I-25000J0D01*
G01*
X5203300Y-5934396D02*
G75*
G03*
X5203300Y-5934396I-25000J0D01*
G01*
D13*
X2074440Y-3830800D02*
X2074440Y-3890800D01*
X2044440Y-3860800D02*
X2104440Y-3860800D01*
X2082800Y-4935700D02*
X2082800Y-4995700D01*
X2052800Y-4965700D02*
X2112800Y-4965700D01*
X2274440Y-3830800D02*
X2274440Y-3890800D01*
X2244440Y-3860800D02*
X2304440Y-3860800D01*
X2282800Y-4935700D02*
X2282800Y-4995700D01*
X2252800Y-4965700D02*
X2312800Y-4965700D01*
X2489200Y-3119600D02*
X2489200Y-3179600D01*
X2459200Y-3149600D02*
X2519200Y-3149600D01*
X2689200Y-3119600D02*
X2689200Y-3179600D01*
X2659200Y-3149600D02*
X2719200Y-3149600D01*
X3060700Y-3018000D02*
X3060700Y-3078000D01*
X3030700Y-3048000D02*
X3090700Y-3048000D01*
X3060700Y-3218000D02*
X3060700Y-3278000D01*
X3030700Y-3248000D02*
X3090700Y-3248000D01*
X8623300Y-3159700D02*
X8623300Y-3219700D01*
X8593300Y-3189700D02*
X8653300Y-3189700D01*
X8623300Y-3379700D02*
X8623300Y-3439700D01*
X8593300Y-3409700D02*
X8653300Y-3409700D01*
X8623300Y-3599700D02*
X8623300Y-3659700D01*
X8593300Y-3629700D02*
X8653300Y-3629700D01*
X8623300Y-3919700D02*
X8623300Y-3979700D01*
X8593300Y-3949700D02*
X8653300Y-3949700D01*
X9131300Y-3159700D02*
X9131300Y-3219700D01*
X9101300Y-3189700D02*
X9161300Y-3189700D01*
X9131300Y-3379700D02*
X9131300Y-3439700D01*
X9101300Y-3409700D02*
X9161300Y-3409700D01*
X9131300Y-3599700D02*
X9131300Y-3659700D01*
X9101300Y-3629700D02*
X9161300Y-3629700D01*
X9131300Y-3919700D02*
X9131300Y-3979700D01*
X9101300Y-3949700D02*
X9161300Y-3949700D01*
X9547800Y-3158700D02*
X9547800Y-3218700D01*
X9517800Y-3188700D02*
X9577800Y-3188700D01*
X9547800Y-3378700D02*
X9547800Y-3438700D01*
X9517800Y-3408700D02*
X9577800Y-3408700D01*
X9547800Y-3598700D02*
X9547800Y-3658700D01*
X9517800Y-3628700D02*
X9577800Y-3628700D01*
X9547800Y-3918700D02*
X9547800Y-3978700D01*
X9517800Y-3948700D02*
X9577800Y-3948700D01*
X10055800Y-3158700D02*
X10055800Y-3218700D01*
X10025800Y-3188700D02*
X10085800Y-3188700D01*
X10055800Y-3378700D02*
X10055800Y-3438700D01*
X10025800Y-3408700D02*
X10085800Y-3408700D01*
X10055800Y-3598700D02*
X10055800Y-3658700D01*
X10025800Y-3628700D02*
X10085800Y-3628700D01*
X10055800Y-3918700D02*
X10055800Y-3978700D01*
X10025800Y-3948700D02*
X10085800Y-3948700D01*
X10464800Y-3159700D02*
X10464800Y-3219700D01*
X10434800Y-3189700D02*
X10494800Y-3189700D01*
X10464800Y-3379700D02*
X10464800Y-3439700D01*
X10434800Y-3409700D02*
X10494800Y-3409700D01*
X10464800Y-3599700D02*
X10464800Y-3659700D01*
X10434800Y-3629700D02*
X10494800Y-3629700D01*
X10464800Y-3919700D02*
X10464800Y-3979700D01*
X10434800Y-3949700D02*
X10494800Y-3949700D01*
X10498500Y-4962040D02*
X10498500Y-5022040D01*
X10468500Y-4992040D02*
X10528500Y-4992040D01*
X10498500Y-5162040D02*
X10498500Y-5222040D01*
X10468500Y-5192040D02*
X10528500Y-5192040D01*
X10972800Y-3159700D02*
X10972800Y-3219700D01*
X10942800Y-3189700D02*
X11002800Y-3189700D01*
X10972800Y-3379700D02*
X10972800Y-3439700D01*
X10942800Y-3409700D02*
X11002800Y-3409700D01*
X10972800Y-3599700D02*
X10972800Y-3659700D01*
X10942800Y-3629700D02*
X11002800Y-3629700D01*
X10972800Y-3919700D02*
X10972800Y-3979700D01*
X10942800Y-3949700D02*
X11002800Y-3949700D01*
X11353800Y-3159700D02*
X11353800Y-3219700D01*
X11323800Y-3189700D02*
X11383800Y-3189700D01*
X11353800Y-3379700D02*
X11353800Y-3439700D01*
X11323800Y-3409700D02*
X11383800Y-3409700D01*
X11353800Y-3599700D02*
X11353800Y-3659700D01*
X11323800Y-3629700D02*
X11383800Y-3629700D01*
X11353800Y-3919700D02*
X11353800Y-3979700D01*
X11323800Y-3949700D02*
X11383800Y-3949700D01*
X11861800Y-3159700D02*
X11861800Y-3219700D01*
X11831800Y-3189700D02*
X11891800Y-3189700D01*
X11861800Y-3379700D02*
X11861800Y-3439700D01*
X11831800Y-3409700D02*
X11891800Y-3409700D01*
X11861800Y-3599700D02*
X11861800Y-3659700D01*
X11831800Y-3629700D02*
X11891800Y-3629700D01*
X11861800Y-3919700D02*
X11861800Y-3979700D01*
X11831800Y-3949700D02*
X11891800Y-3949700D01*
X12265600Y-3158700D02*
X12265600Y-3218700D01*
X12235600Y-3188700D02*
X12295600Y-3188700D01*
X12265600Y-3378700D02*
X12265600Y-3438700D01*
X12235600Y-3408700D02*
X12295600Y-3408700D01*
X12265600Y-3598700D02*
X12265600Y-3658700D01*
X12235600Y-3628700D02*
X12295600Y-3628700D01*
X12265600Y-3918700D02*
X12265600Y-3978700D01*
X12235600Y-3948700D02*
X12295600Y-3948700D01*
X12773600Y-3158700D02*
X12773600Y-3218700D01*
X12743600Y-3188700D02*
X12803600Y-3188700D01*
X12773600Y-3378700D02*
X12773600Y-3438700D01*
X12743600Y-3408700D02*
X12803600Y-3408700D01*
X12773600Y-3598700D02*
X12773600Y-3658700D01*
X12743600Y-3628700D02*
X12803600Y-3628700D01*
X12773600Y-3918700D02*
X12773600Y-3978700D01*
X12743600Y-3948700D02*
X12803600Y-3948700D01*
X13169900Y-3159700D02*
X13169900Y-3219700D01*
X13139900Y-3189700D02*
X13199900Y-3189700D01*
X13169900Y-3379700D02*
X13169900Y-3439700D01*
X13139900Y-3409700D02*
X13199900Y-3409700D01*
X13169900Y-3599700D02*
X13169900Y-3659700D01*
X13139900Y-3629700D02*
X13199900Y-3629700D01*
X13169900Y-3919700D02*
X13169900Y-3979700D01*
X13139900Y-3949700D02*
X13199900Y-3949700D01*
X13677900Y-3159700D02*
X13677900Y-3219700D01*
X13647900Y-3189700D02*
X13707900Y-3189700D01*
X13677900Y-3379700D02*
X13677900Y-3439700D01*
X13647900Y-3409700D02*
X13707900Y-3409700D01*
X13677900Y-3599700D02*
X13677900Y-3659700D01*
X13647900Y-3629700D02*
X13707900Y-3629700D01*
X13677900Y-3919700D02*
X13677900Y-3979700D01*
X13647900Y-3949700D02*
X13707900Y-3949700D01*
D14*
X2885784Y-2115085D02*
X2885784Y-2058515D01*
X2829215Y-2058515D01*
X2829215Y-2115085D01*
X2885784Y-2115085D01*
X2885784Y-2365085D02*
X2885784Y-2308516D01*
X2829215Y-2308516D01*
X2829215Y-2365085D01*
X2885784Y-2365085D01*
X3025847Y-4282785D02*
X3025847Y-4226216D01*
X2969278Y-4226216D01*
X2969278Y-4282785D01*
X3025847Y-4282785D01*
X3275847Y-4282785D02*
X3275847Y-4226216D01*
X3219278Y-4226216D01*
X3219278Y-4282785D01*
X3275847Y-4282785D01*
X3431884Y-4794785D02*
X3431884Y-4738216D01*
X3375315Y-4738216D01*
X3375315Y-4794785D01*
X3431884Y-4794785D01*
X3431884Y-5044785D02*
X3431884Y-4988216D01*
X3375315Y-4988216D01*
X3375315Y-5044785D01*
X3431884Y-5044785D01*
X3838284Y-4159784D02*
X3838284Y-4103215D01*
X3781715Y-4103215D01*
X3781715Y-4159784D01*
X3838284Y-4159784D01*
X3838284Y-4409785D02*
X3838284Y-4353216D01*
X3781715Y-4353216D01*
X3781715Y-4409785D01*
X3838284Y-4409785D01*
X4193884Y-3279484D02*
X4193884Y-3222915D01*
X4137315Y-3222915D01*
X4137315Y-3279484D01*
X4193884Y-3279484D01*
X4193884Y-3533484D02*
X4193884Y-3476915D01*
X4137315Y-3476915D01*
X4137315Y-3533484D01*
X4193884Y-3533484D01*
X4498685Y-3279484D02*
X4498685Y-3222915D01*
X4442116Y-3222915D01*
X4442116Y-3279484D01*
X4498685Y-3279484D01*
X4498685Y-3533484D02*
X4498685Y-3476915D01*
X4442116Y-3476915D01*
X4442116Y-3533484D01*
X4498685Y-3533484D01*
X4803485Y-3279484D02*
X4803485Y-3222915D01*
X4746916Y-3222915D01*
X4746916Y-3279484D01*
X4803485Y-3279484D01*
X4803485Y-3533484D02*
X4803485Y-3476915D01*
X4746916Y-3476915D01*
X4746916Y-3533484D01*
X4803485Y-3533484D01*
X5108285Y-3279484D02*
X5108285Y-3222915D01*
X5051716Y-3222915D01*
X5051716Y-3279484D01*
X5108285Y-3279484D01*
X5108285Y-3533484D02*
X5108285Y-3476915D01*
X5051716Y-3476915D01*
X5051716Y-3533484D01*
X5108285Y-3533484D01*
X5658384Y-6204480D02*
X5658384Y-6147911D01*
X5601815Y-6147911D01*
X5601815Y-6204480D01*
X5658384Y-6204480D01*
X6146384Y-6204480D02*
X6146384Y-6147911D01*
X6089815Y-6147911D01*
X6089815Y-6204480D01*
X6146384Y-6204480D01*
X8232484Y-5476585D02*
X8232484Y-5420016D01*
X8175915Y-5420016D01*
X8175915Y-5476585D01*
X8232484Y-5476585D01*
X8232484Y-6238584D02*
X8232484Y-6182015D01*
X8175915Y-6182015D01*
X8175915Y-6238584D01*
X8232484Y-6238584D01*
X8994485Y-5476585D02*
X8994485Y-5420016D01*
X8937916Y-5420016D01*
X8937916Y-5476585D01*
X8994485Y-5476585D01*
X8994485Y-6238584D02*
X8994485Y-6182015D01*
X8937916Y-6182015D01*
X8937916Y-6238584D01*
X8994485Y-6238584D01*
X10861385Y-2365085D02*
X10861385Y-2308516D01*
X10804816Y-2308516D01*
X10804816Y-2365085D01*
X10861385Y-2365085D01*
X11115385Y-2365085D02*
X11115385Y-2308516D01*
X11058816Y-2308516D01*
X11058816Y-2365085D01*
X11115385Y-2365085D01*
X11369384Y-2365085D02*
X11369384Y-2308516D01*
X11312815Y-2308516D01*
X11312815Y-2365085D01*
X11369384Y-2365085D01*
X11864684Y-4507447D02*
X11864684Y-4450878D01*
X11808115Y-4450878D01*
X11808115Y-4507447D01*
X11864684Y-4507447D01*
X11864684Y-4757447D02*
X11864684Y-4700878D01*
X11808115Y-4700878D01*
X11808115Y-4757447D01*
X11864684Y-4757447D01*
X11978984Y-6162084D02*
X11978984Y-6105515D01*
X11922415Y-6105515D01*
X11922415Y-6162084D01*
X11978984Y-6162084D01*
X11978984Y-6412084D02*
X11978984Y-6355515D01*
X11922415Y-6355515D01*
X11922415Y-6412084D01*
X11978984Y-6412084D01*
X13452184Y-4765385D02*
X13452184Y-4708816D01*
X13395615Y-4708816D01*
X13395615Y-4765385D01*
X13452184Y-4765385D01*
X13452184Y-5019385D02*
X13452184Y-4962816D01*
X13395615Y-4962816D01*
X13395615Y-5019385D01*
X13452184Y-5019385D01*
X13452184Y-5273385D02*
X13452184Y-5216816D01*
X13395615Y-5216816D01*
X13395615Y-5273385D01*
X13452184Y-5273385D01*
D15*
X2133600Y-2615400D02*
X2183600Y-2565400D01*
X2133600Y-2515400D01*
X2083600Y-2565400D01*
X2133600Y-2615400D01*
X2133600Y-2869400D02*
X2183600Y-2819400D01*
X2133600Y-2769400D01*
X2083600Y-2819400D01*
X2133600Y-2869400D01*
X3721100Y-2187068D02*
X3771100Y-2137068D01*
X3721100Y-2087068D01*
X3671100Y-2137068D01*
X3721100Y-2187068D01*
X3721100Y-2687068D02*
X3771100Y-2637068D01*
X3721100Y-2587068D01*
X3671100Y-2637068D01*
X3721100Y-2687068D01*
X4546600Y-5612600D02*
X4596600Y-5562600D01*
X4546600Y-5512600D01*
X4496600Y-5562600D01*
X4546600Y-5612600D01*
X4546600Y-5866600D02*
X4596600Y-5816600D01*
X4546600Y-5766600D01*
X4496600Y-5816600D01*
X4546600Y-5866600D01*
X4546600Y-6120600D02*
X4596600Y-6070600D01*
X4546600Y-6020600D01*
X4496600Y-6070600D01*
X4546600Y-6120600D01*
X4546600Y-6374600D02*
X4596600Y-6324600D01*
X4546600Y-6274600D01*
X4496600Y-6324600D01*
X4546600Y-6374600D01*
X4851400Y-4837900D02*
X4901400Y-4787900D01*
X4851400Y-4737900D01*
X4801400Y-4787900D01*
X4851400Y-4837900D01*
X4851400Y-5091900D02*
X4901400Y-5041900D01*
X4851400Y-4991900D01*
X4801400Y-5041900D01*
X4851400Y-5091900D01*
X4851400Y-5345900D02*
X4901400Y-5295900D01*
X4851400Y-5245900D01*
X4801400Y-5295900D01*
X4851400Y-5345900D01*
X4851400Y-5599900D02*
X4901400Y-5549900D01*
X4851400Y-5499900D01*
X4801400Y-5549900D01*
X4851400Y-5599900D01*
X5025900Y-6154296D02*
X5075900Y-6104296D01*
X5025900Y-6054296D01*
X4975900Y-6104296D01*
X5025900Y-6154296D01*
X5025900Y-6408296D02*
X5075900Y-6358296D01*
X5025900Y-6308296D01*
X4975900Y-6358296D01*
X5025900Y-6408296D01*
X5245100Y-4749000D02*
X5295100Y-4699000D01*
X5245100Y-4649000D01*
X5195100Y-4699000D01*
X5245100Y-4749000D01*
X5499100Y-4749000D02*
X5549100Y-4699000D01*
X5499100Y-4649000D01*
X5449100Y-4699000D01*
X5499100Y-4749000D01*
X5753100Y-4749000D02*
X5803100Y-4699000D01*
X5753100Y-4649000D01*
X5703100Y-4699000D01*
X5753100Y-4749000D01*
X6159500Y-2187068D02*
X6209500Y-2137068D01*
X6159500Y-2087068D01*
X6109500Y-2137068D01*
X6159500Y-2187068D01*
X6159500Y-2687068D02*
X6209500Y-2637068D01*
X6159500Y-2587068D01*
X6109500Y-2637068D01*
X6159500Y-2687068D01*
X6172200Y-4685500D02*
X6222200Y-4635500D01*
X6172200Y-4585500D01*
X6122200Y-4635500D01*
X6172200Y-4685500D01*
X6426200Y-4685500D02*
X6476200Y-4635500D01*
X6426200Y-4585500D01*
X6376200Y-4635500D01*
X6426200Y-4685500D01*
X6638800Y-6149496D02*
X6688800Y-6099496D01*
X6638800Y-6049496D01*
X6588800Y-6099496D01*
X6638800Y-6149496D01*
X6638800Y-6403496D02*
X6688800Y-6353496D01*
X6638800Y-6303496D01*
X6588800Y-6353496D01*
X6638800Y-6403496D01*
X6680200Y-4685500D02*
X6730200Y-4635500D01*
X6680200Y-4585500D01*
X6630200Y-4635500D01*
X6680200Y-4685500D01*
X6934200Y-4685500D02*
X6984200Y-4635500D01*
X6934200Y-4585500D01*
X6884200Y-4635500D01*
X6934200Y-4685500D01*
X6959600Y-5893500D02*
X7009600Y-5843500D01*
X6959600Y-5793500D01*
X6909600Y-5843500D01*
X6959600Y-5893500D01*
X6959600Y-6147500D02*
X7009600Y-6097500D01*
X6959600Y-6047500D01*
X6909600Y-6097500D01*
X6959600Y-6147500D01*
X6959600Y-6401500D02*
X7009600Y-6351500D01*
X6959600Y-6301500D01*
X6909600Y-6351500D01*
X6959600Y-6401500D01*
X7810500Y-2166200D02*
X7860500Y-2116200D01*
X7810500Y-2066200D01*
X7760500Y-2116200D01*
X7810500Y-2166200D01*
X7810500Y-2666200D02*
X7860500Y-2616200D01*
X7810500Y-2566200D01*
X7760500Y-2616200D01*
X7810500Y-2666200D01*
X13652500Y-2590500D02*
X13702500Y-2540500D01*
X13652500Y-2490500D01*
X13602500Y-2540500D01*
X13652500Y-2590500D01*
X13652500Y-2844500D02*
X13702500Y-2794500D01*
X13652500Y-2744500D01*
X13602500Y-2794500D01*
X13652500Y-2844500D01*
X13716000Y-5722600D02*
X13766000Y-5672600D01*
X13716000Y-5622600D01*
X13666000Y-5672600D01*
X13716000Y-5722600D01*
X13716000Y-5976600D02*
X13766000Y-5926600D01*
X13716000Y-5876600D01*
X13666000Y-5926600D01*
X13716000Y-5976600D01*
D16*
X2535800Y-2706500D02*
X2645800Y-2816500D01*
X2645800Y-2706500D02*
X2535800Y-2816500D01*
X2645800Y-2761500D02*
G75*
G03*
X2645800Y-2761500I-55000J0D01*
G01*
X2789800Y-2706500D02*
X2899800Y-2816500D01*
X2899800Y-2706500D02*
X2789800Y-2816500D01*
X2899800Y-2761500D02*
G75*
G03*
X2899800Y-2761500I-55000J0D01*
G01*
X3043800Y-2706500D02*
X3153800Y-2816500D01*
X3153800Y-2706500D02*
X3043800Y-2816500D01*
X3153800Y-2761500D02*
G75*
G03*
X3153800Y-2761500I-55000J0D01*
G01*
X5444100Y-3056500D02*
X5554100Y-3166500D01*
X5554100Y-3056500D02*
X5444100Y-3166500D01*
X5554100Y-3111500D02*
G75*
G03*
X5554100Y-3111500I-55000J0D01*
G01*
X5698100Y-3056500D02*
X5808100Y-3166500D01*
X5808100Y-3056500D02*
X5698100Y-3166500D01*
X5808100Y-3111500D02*
G75*
G03*
X5808100Y-3111500I-55000J0D01*
G01*
X5952100Y-3056500D02*
X6062100Y-3166500D01*
X6062100Y-3056500D02*
X5952100Y-3166500D01*
X6062100Y-3111500D02*
G75*
G03*
X6062100Y-3111500I-55000J0D01*
G01*
X8568300Y-2319900D02*
X8678300Y-2429900D01*
X8678300Y-2319900D02*
X8568300Y-2429900D01*
X8678300Y-2374900D02*
G75*
G03*
X8678300Y-2374900I-55000J0D01*
G01*
X9584300Y-2319900D02*
X9694300Y-2429900D01*
X9694300Y-2319900D02*
X9584300Y-2429900D01*
X9694300Y-2374900D02*
G75*
G03*
X9694300Y-2374900I-55000J0D01*
G01*
X11743300Y-2307700D02*
X11853300Y-2417700D01*
X11853300Y-2307700D02*
X11743300Y-2417700D01*
X11853300Y-2362700D02*
G75*
G03*
X11853300Y-2362700I-55000J0D01*
G01*
X11743300Y-2561700D02*
X11853300Y-2671700D01*
X11853300Y-2561700D02*
X11743300Y-2671700D01*
X11853300Y-2616700D02*
G75*
G03*
X11853300Y-2616700I-55000J0D01*
G01*
X11743300Y-2815700D02*
X11853300Y-2925700D01*
X11853300Y-2815700D02*
X11743300Y-2925700D01*
X11853300Y-2870700D02*
G75*
G03*
X11853300Y-2870700I-55000J0D01*
G01*
D17*
X5261300Y-1921200D02*
X5381300Y-2041200D01*
X5381300Y-1921200D02*
X5261300Y-2041200D01*
X5321300Y-1921200D02*
X5321300Y-2041200D01*
X5261300Y-1981200D02*
X5381300Y-1981200D01*
X5261300Y-2429200D02*
X5381300Y-2549200D01*
X5381300Y-2429200D02*
X5261300Y-2549200D01*
X5321300Y-2429200D02*
X5321300Y-2549200D01*
X5261300Y-2489200D02*
X5381300Y-2489200D01*
D11*
X2198219Y-6980476D02*
X2198219Y-6780476D01*
X2245838Y-6780476D01*
X2274410Y-6790000D01*
X2293457Y-6809048D01*
X2302981Y-6828095D01*
X2312505Y-6866190D01*
X2312505Y-6894762D01*
X2302981Y-6932857D01*
X2293457Y-6951905D01*
X2274410Y-6970952D01*
X2245838Y-6980476D01*
X2198219Y-6980476D01*
X2398219Y-6980476D02*
X2398219Y-6847143D01*
X2398219Y-6885238D02*
X2407743Y-6866190D01*
X2417267Y-6856667D01*
X2436314Y-6847143D01*
X2455362Y-6847143D01*
X2522029Y-6980476D02*
X2522029Y-6847143D01*
X2522029Y-6780476D02*
X2512505Y-6790000D01*
X2522029Y-6799524D01*
X2531552Y-6790000D01*
X2522029Y-6780476D01*
X2522029Y-6799524D01*
X2645838Y-6980476D02*
X2626790Y-6970952D01*
X2617267Y-6951905D01*
X2617267Y-6780476D01*
X2750600Y-6980476D02*
X2731552Y-6970952D01*
X2722029Y-6951905D01*
X2722029Y-6780476D01*
X2979171Y-6980476D02*
X2979171Y-6780476D01*
X3045838Y-6923333D01*
X3112505Y-6780476D01*
X3112505Y-6980476D01*
X3293457Y-6980476D02*
X3293457Y-6875714D01*
X3283933Y-6856667D01*
X3264886Y-6847143D01*
X3226790Y-6847143D01*
X3207743Y-6856667D01*
X3293457Y-6970952D02*
X3274409Y-6980476D01*
X3226790Y-6980476D01*
X3207743Y-6970952D01*
X3198219Y-6951905D01*
X3198219Y-6932857D01*
X3207743Y-6913809D01*
X3226790Y-6904286D01*
X3274409Y-6904286D01*
X3293457Y-6894762D01*
X3388695Y-6847143D02*
X3388695Y-7047143D01*
X3388695Y-6856667D02*
X3407743Y-6847143D01*
X3445838Y-6847143D01*
X3464886Y-6856667D01*
X3474409Y-6866190D01*
X3483933Y-6885238D01*
X3483933Y-6942381D01*
X3474409Y-6961428D01*
X3464886Y-6970952D01*
X3445838Y-6980476D01*
X3407743Y-6980476D01*
X3388695Y-6970952D01*
X3569648Y-6961428D02*
X3579171Y-6970952D01*
X3569648Y-6980476D01*
X3560124Y-6970952D01*
X3569648Y-6961428D01*
X3569648Y-6980476D01*
X3569648Y-6856667D02*
X3579171Y-6866190D01*
X3569648Y-6875714D01*
X3560124Y-6866190D01*
X3569648Y-6856667D01*
X3569648Y-6875714D01*
D12*
X1900600Y-7290000D02*
X1940600Y-7330000D01*
X1940600Y-7290000D02*
X1900600Y-7330000D01*
D11*
X2236314Y-7200476D02*
X2255362Y-7200476D01*
X2274410Y-7210000D01*
X2283933Y-7219524D01*
X2293457Y-7238571D01*
X2302981Y-7276667D01*
X2302981Y-7324286D01*
X2293457Y-7362381D01*
X2283933Y-7381428D01*
X2274410Y-7390952D01*
X2255362Y-7400476D01*
X2236314Y-7400476D01*
X2217267Y-7390952D01*
X2207743Y-7381428D01*
X2198219Y-7362381D01*
X2188695Y-7324286D01*
X2188695Y-7276667D01*
X2198219Y-7238571D01*
X2207743Y-7219524D01*
X2217267Y-7210000D01*
X2236314Y-7200476D01*
X2388695Y-7381428D02*
X2398219Y-7390952D01*
X2388695Y-7400476D01*
X2379171Y-7390952D01*
X2388695Y-7381428D01*
X2388695Y-7400476D01*
X2569648Y-7267143D02*
X2569648Y-7400476D01*
X2522029Y-7190952D02*
X2474410Y-7333809D01*
X2598219Y-7333809D01*
X2712505Y-7200476D02*
X2731552Y-7200476D01*
X2750600Y-7210000D01*
X2760124Y-7219524D01*
X2769648Y-7238571D01*
X2779171Y-7276667D01*
X2779171Y-7324286D01*
X2769648Y-7362381D01*
X2760124Y-7381428D01*
X2750600Y-7390952D01*
X2731552Y-7400476D01*
X2712505Y-7400476D01*
X2693457Y-7390952D01*
X2683933Y-7381428D01*
X2674410Y-7362381D01*
X2664886Y-7324286D01*
X2664886Y-7276667D01*
X2674410Y-7238571D01*
X2683933Y-7219524D01*
X2693457Y-7210000D01*
X2712505Y-7200476D01*
X2902981Y-7200476D02*
X2922028Y-7200476D01*
X2941076Y-7210000D01*
X2950600Y-7219524D01*
X2960124Y-7238571D01*
X2969648Y-7276667D01*
X2969648Y-7324286D01*
X2960124Y-7362381D01*
X2950600Y-7381428D01*
X2941076Y-7390952D01*
X2922028Y-7400476D01*
X2902981Y-7400476D01*
X2883933Y-7390952D01*
X2874409Y-7381428D01*
X2864886Y-7362381D01*
X2855362Y-7324286D01*
X2855362Y-7276667D01*
X2864886Y-7238571D01*
X2874409Y-7219524D01*
X2883933Y-7210000D01*
X2902981Y-7200476D01*
X3055362Y-7400476D02*
X3055362Y-7267143D01*
X3055362Y-7286190D02*
X3064886Y-7276667D01*
X3083933Y-7267143D01*
X3112505Y-7267143D01*
X3131552Y-7276667D01*
X3141076Y-7295714D01*
X3141076Y-7400476D01*
X3141076Y-7295714D02*
X3150600Y-7276667D01*
X3169648Y-7267143D01*
X3198219Y-7267143D01*
X3217267Y-7276667D01*
X3226790Y-7295714D01*
X3226790Y-7400476D01*
X3322028Y-7400476D02*
X3322028Y-7267143D01*
X3322028Y-7286190D02*
X3331552Y-7276667D01*
X3350600Y-7267143D01*
X3379171Y-7267143D01*
X3398219Y-7276667D01*
X3407743Y-7295714D01*
X3407743Y-7400476D01*
X3407743Y-7295714D02*
X3417267Y-7276667D01*
X3436314Y-7267143D01*
X3464886Y-7267143D01*
X3483933Y-7276667D01*
X3493457Y-7295714D01*
X3493457Y-7400476D01*
X3883933Y-7190952D02*
X3712505Y-7448095D01*
X4141076Y-7200476D02*
X4160124Y-7200476D01*
X4179171Y-7210000D01*
X4188695Y-7219524D01*
X4198219Y-7238571D01*
X4207743Y-7276667D01*
X4207743Y-7324286D01*
X4198219Y-7362381D01*
X4188695Y-7381428D01*
X4179171Y-7390952D01*
X4160124Y-7400476D01*
X4141076Y-7400476D01*
X4122028Y-7390952D01*
X4112505Y-7381428D01*
X4102981Y-7362381D01*
X4093457Y-7324286D01*
X4093457Y-7276667D01*
X4102981Y-7238571D01*
X4112505Y-7219524D01*
X4122028Y-7210000D01*
X4141076Y-7200476D01*
X4293457Y-7381428D02*
X4302981Y-7390952D01*
X4293457Y-7400476D01*
X4283933Y-7390952D01*
X4293457Y-7381428D01*
X4293457Y-7400476D01*
X4426790Y-7200476D02*
X4445838Y-7200476D01*
X4464886Y-7210000D01*
X4474410Y-7219524D01*
X4483933Y-7238571D01*
X4493457Y-7276667D01*
X4493457Y-7324286D01*
X4483933Y-7362381D01*
X4474410Y-7381428D01*
X4464886Y-7390952D01*
X4445838Y-7400476D01*
X4426790Y-7400476D01*
X4407743Y-7390952D01*
X4398219Y-7381428D01*
X4388695Y-7362381D01*
X4379171Y-7324286D01*
X4379171Y-7276667D01*
X4388695Y-7238571D01*
X4398219Y-7219524D01*
X4407743Y-7210000D01*
X4426790Y-7200476D01*
X4683933Y-7400476D02*
X4569648Y-7400476D01*
X4626790Y-7400476D02*
X4626790Y-7200476D01*
X4607743Y-7229048D01*
X4588695Y-7248095D01*
X4569648Y-7257619D01*
X4864886Y-7200476D02*
X4769648Y-7200476D01*
X4760124Y-7295714D01*
X4769648Y-7286190D01*
X4788695Y-7276667D01*
X4836314Y-7276667D01*
X4855362Y-7286190D01*
X4864886Y-7295714D01*
X4874410Y-7314762D01*
X4874410Y-7362381D01*
X4864886Y-7381428D01*
X4855362Y-7390952D01*
X4836314Y-7400476D01*
X4788695Y-7400476D01*
X4769648Y-7390952D01*
X4760124Y-7381428D01*
X4941076Y-7200476D02*
X5074410Y-7200476D01*
X4988695Y-7400476D01*
X5141076Y-7200476D02*
X5141076Y-7238571D01*
X5217267Y-7200476D02*
X5217267Y-7238571D01*
X5512505Y-7476667D02*
X5502981Y-7467143D01*
X5483933Y-7438571D01*
X5474410Y-7419524D01*
X5464886Y-7390952D01*
X5455362Y-7343333D01*
X5455362Y-7305238D01*
X5464886Y-7257619D01*
X5474410Y-7229048D01*
X5483933Y-7210000D01*
X5502981Y-7181428D01*
X5512505Y-7171905D01*
X5683933Y-7200476D02*
X5588695Y-7200476D01*
X5579171Y-7295714D01*
X5588695Y-7286190D01*
X5607743Y-7276667D01*
X5655362Y-7276667D01*
X5674409Y-7286190D01*
X5683933Y-7295714D01*
X5693457Y-7314762D01*
X5693457Y-7362381D01*
X5683933Y-7381428D01*
X5674409Y-7390952D01*
X5655362Y-7400476D01*
X5607743Y-7400476D01*
X5588695Y-7390952D01*
X5579171Y-7381428D01*
X5883933Y-7400476D02*
X5769648Y-7400476D01*
X5826790Y-7400476D02*
X5826790Y-7200476D01*
X5807743Y-7229048D01*
X5788695Y-7248095D01*
X5769648Y-7257619D01*
X6055362Y-7200476D02*
X6017267Y-7200476D01*
X5998219Y-7210000D01*
X5988695Y-7219524D01*
X5969648Y-7248095D01*
X5960124Y-7286190D01*
X5960124Y-7362381D01*
X5969648Y-7381428D01*
X5979171Y-7390952D01*
X5998219Y-7400476D01*
X6036314Y-7400476D01*
X6055362Y-7390952D01*
X6064886Y-7381428D01*
X6074409Y-7362381D01*
X6074409Y-7314762D01*
X6064886Y-7295714D01*
X6055362Y-7286190D01*
X6036314Y-7276667D01*
X5998219Y-7276667D01*
X5979171Y-7286190D01*
X5969648Y-7295714D01*
X5960124Y-7314762D01*
X6312505Y-7400476D02*
X6312505Y-7200476D01*
X6398219Y-7400476D02*
X6398219Y-7295714D01*
X6388695Y-7276667D01*
X6369648Y-7267143D01*
X6341076Y-7267143D01*
X6322028Y-7276667D01*
X6312505Y-7286190D01*
X6522028Y-7400476D02*
X6502981Y-7390952D01*
X6493457Y-7381428D01*
X6483933Y-7362381D01*
X6483933Y-7305238D01*
X6493457Y-7286190D01*
X6502981Y-7276667D01*
X6522028Y-7267143D01*
X6550600Y-7267143D01*
X6569648Y-7276667D01*
X6579171Y-7286190D01*
X6588695Y-7305238D01*
X6588695Y-7362381D01*
X6579171Y-7381428D01*
X6569648Y-7390952D01*
X6550600Y-7400476D01*
X6522028Y-7400476D01*
X6702981Y-7400476D02*
X6683933Y-7390952D01*
X6674409Y-7371905D01*
X6674409Y-7200476D01*
X6855362Y-7390952D02*
X6836314Y-7400476D01*
X6798219Y-7400476D01*
X6779171Y-7390952D01*
X6769648Y-7371905D01*
X6769648Y-7295714D01*
X6779171Y-7276667D01*
X6798219Y-7267143D01*
X6836314Y-7267143D01*
X6855362Y-7276667D01*
X6864886Y-7295714D01*
X6864886Y-7314762D01*
X6769648Y-7333809D01*
X6941076Y-7390952D02*
X6960124Y-7400476D01*
X6998219Y-7400476D01*
X7017267Y-7390952D01*
X7026790Y-7371905D01*
X7026790Y-7362381D01*
X7017267Y-7343333D01*
X6998219Y-7333809D01*
X6969648Y-7333809D01*
X6950600Y-7324286D01*
X6941076Y-7305238D01*
X6941076Y-7295714D01*
X6950600Y-7276667D01*
X6969648Y-7267143D01*
X6998219Y-7267143D01*
X7017267Y-7276667D01*
X7093457Y-7476667D02*
X7102981Y-7467143D01*
X7122028Y-7438571D01*
X7131552Y-7419524D01*
X7141076Y-7390952D01*
X7150600Y-7343333D01*
X7150600Y-7305238D01*
X7141076Y-7257619D01*
X7131552Y-7229048D01*
X7122028Y-7210000D01*
X7102981Y-7181428D01*
X7093457Y-7171905D01*
D10*
X1940600Y-7574000D02*
G75*
G03*
X1940600Y-7574000I-25000J0D01*
G01*
D11*
X2236314Y-7464476D02*
X2255362Y-7464476D01*
X2274410Y-7474000D01*
X2283933Y-7483524D01*
X2293457Y-7502571D01*
X2302981Y-7540667D01*
X2302981Y-7588286D01*
X2293457Y-7626381D01*
X2283933Y-7645428D01*
X2274410Y-7654952D01*
X2255362Y-7664476D01*
X2236314Y-7664476D01*
X2217267Y-7654952D01*
X2207743Y-7645428D01*
X2198219Y-7626381D01*
X2188695Y-7588286D01*
X2188695Y-7540667D01*
X2198219Y-7502571D01*
X2207743Y-7483524D01*
X2217267Y-7474000D01*
X2236314Y-7464476D01*
X2388695Y-7645428D02*
X2398219Y-7654952D01*
X2388695Y-7664476D01*
X2379171Y-7654952D01*
X2388695Y-7645428D01*
X2388695Y-7664476D01*
X2579171Y-7464476D02*
X2483933Y-7464476D01*
X2474410Y-7559714D01*
X2483933Y-7550190D01*
X2502981Y-7540667D01*
X2550600Y-7540667D01*
X2569648Y-7550190D01*
X2579171Y-7559714D01*
X2588695Y-7578762D01*
X2588695Y-7626381D01*
X2579171Y-7645428D01*
X2569648Y-7654952D01*
X2550600Y-7664476D01*
X2502981Y-7664476D01*
X2483933Y-7654952D01*
X2474410Y-7645428D01*
X2712505Y-7464476D02*
X2731552Y-7464476D01*
X2750600Y-7474000D01*
X2760124Y-7483524D01*
X2769648Y-7502571D01*
X2779171Y-7540667D01*
X2779171Y-7588286D01*
X2769648Y-7626381D01*
X2760124Y-7645428D01*
X2750600Y-7654952D01*
X2731552Y-7664476D01*
X2712505Y-7664476D01*
X2693457Y-7654952D01*
X2683933Y-7645428D01*
X2674410Y-7626381D01*
X2664886Y-7588286D01*
X2664886Y-7540667D01*
X2674410Y-7502571D01*
X2683933Y-7483524D01*
X2693457Y-7474000D01*
X2712505Y-7464476D01*
X2902981Y-7464476D02*
X2922028Y-7464476D01*
X2941076Y-7474000D01*
X2950600Y-7483524D01*
X2960124Y-7502571D01*
X2969648Y-7540667D01*
X2969648Y-7588286D01*
X2960124Y-7626381D01*
X2950600Y-7645428D01*
X2941076Y-7654952D01*
X2922028Y-7664476D01*
X2902981Y-7664476D01*
X2883933Y-7654952D01*
X2874409Y-7645428D01*
X2864886Y-7626381D01*
X2855362Y-7588286D01*
X2855362Y-7540667D01*
X2864886Y-7502571D01*
X2874409Y-7483524D01*
X2883933Y-7474000D01*
X2902981Y-7464476D01*
X3055362Y-7664476D02*
X3055362Y-7531143D01*
X3055362Y-7550190D02*
X3064886Y-7540667D01*
X3083933Y-7531143D01*
X3112505Y-7531143D01*
X3131552Y-7540667D01*
X3141076Y-7559714D01*
X3141076Y-7664476D01*
X3141076Y-7559714D02*
X3150600Y-7540667D01*
X3169648Y-7531143D01*
X3198219Y-7531143D01*
X3217267Y-7540667D01*
X3226790Y-7559714D01*
X3226790Y-7664476D01*
X3322028Y-7664476D02*
X3322028Y-7531143D01*
X3322028Y-7550190D02*
X3331552Y-7540667D01*
X3350600Y-7531143D01*
X3379171Y-7531143D01*
X3398219Y-7540667D01*
X3407743Y-7559714D01*
X3407743Y-7664476D01*
X3407743Y-7559714D02*
X3417267Y-7540667D01*
X3436314Y-7531143D01*
X3464886Y-7531143D01*
X3483933Y-7540667D01*
X3493457Y-7559714D01*
X3493457Y-7664476D01*
X3883933Y-7454952D02*
X3712505Y-7712095D01*
X4141076Y-7464476D02*
X4160124Y-7464476D01*
X4179171Y-7474000D01*
X4188695Y-7483524D01*
X4198219Y-7502571D01*
X4207743Y-7540667D01*
X4207743Y-7588286D01*
X4198219Y-7626381D01*
X4188695Y-7645428D01*
X4179171Y-7654952D01*
X4160124Y-7664476D01*
X4141076Y-7664476D01*
X4122028Y-7654952D01*
X4112505Y-7645428D01*
X4102981Y-7626381D01*
X4093457Y-7588286D01*
X4093457Y-7540667D01*
X4102981Y-7502571D01*
X4112505Y-7483524D01*
X4122028Y-7474000D01*
X4141076Y-7464476D01*
X4293457Y-7645428D02*
X4302981Y-7654952D01*
X4293457Y-7664476D01*
X4283933Y-7654952D01*
X4293457Y-7645428D01*
X4293457Y-7664476D01*
X4426790Y-7464476D02*
X4445838Y-7464476D01*
X4464886Y-7474000D01*
X4474410Y-7483524D01*
X4483933Y-7502571D01*
X4493457Y-7540667D01*
X4493457Y-7588286D01*
X4483933Y-7626381D01*
X4474410Y-7645428D01*
X4464886Y-7654952D01*
X4445838Y-7664476D01*
X4426790Y-7664476D01*
X4407743Y-7654952D01*
X4398219Y-7645428D01*
X4388695Y-7626381D01*
X4379171Y-7588286D01*
X4379171Y-7540667D01*
X4388695Y-7502571D01*
X4398219Y-7483524D01*
X4407743Y-7474000D01*
X4426790Y-7464476D01*
X4683933Y-7664476D02*
X4569648Y-7664476D01*
X4626790Y-7664476D02*
X4626790Y-7464476D01*
X4607743Y-7493048D01*
X4588695Y-7512095D01*
X4569648Y-7521619D01*
X4779171Y-7664476D02*
X4817267Y-7664476D01*
X4836314Y-7654952D01*
X4845838Y-7645428D01*
X4864886Y-7616857D01*
X4874410Y-7578762D01*
X4874410Y-7502571D01*
X4864886Y-7483524D01*
X4855362Y-7474000D01*
X4836314Y-7464476D01*
X4798219Y-7464476D01*
X4779171Y-7474000D01*
X4769648Y-7483524D01*
X4760124Y-7502571D01*
X4760124Y-7550190D01*
X4769648Y-7569238D01*
X4779171Y-7578762D01*
X4798219Y-7588286D01*
X4836314Y-7588286D01*
X4855362Y-7578762D01*
X4864886Y-7569238D01*
X4874410Y-7550190D01*
X4941076Y-7464476D02*
X5074410Y-7464476D01*
X4988695Y-7664476D01*
X5141076Y-7464476D02*
X5141076Y-7502571D01*
X5217267Y-7464476D02*
X5217267Y-7502571D01*
X5512505Y-7740667D02*
X5502981Y-7731143D01*
X5483933Y-7702571D01*
X5474410Y-7683524D01*
X5464886Y-7654952D01*
X5455362Y-7607333D01*
X5455362Y-7569238D01*
X5464886Y-7521619D01*
X5474410Y-7493048D01*
X5483933Y-7474000D01*
X5502981Y-7445428D01*
X5512505Y-7435905D01*
X5579171Y-7483524D02*
X5588695Y-7474000D01*
X5607743Y-7464476D01*
X5655362Y-7464476D01*
X5674409Y-7474000D01*
X5683933Y-7483524D01*
X5693457Y-7502571D01*
X5693457Y-7521619D01*
X5683933Y-7550190D01*
X5569648Y-7664476D01*
X5693457Y-7664476D01*
X5931552Y-7664476D02*
X5931552Y-7464476D01*
X6017267Y-7664476D02*
X6017267Y-7559714D01*
X6007743Y-7540667D01*
X5988695Y-7531143D01*
X5960124Y-7531143D01*
X5941076Y-7540667D01*
X5931552Y-7550190D01*
X6141076Y-7664476D02*
X6122028Y-7654952D01*
X6112505Y-7645428D01*
X6102981Y-7626381D01*
X6102981Y-7569238D01*
X6112505Y-7550190D01*
X6122028Y-7540667D01*
X6141076Y-7531143D01*
X6169648Y-7531143D01*
X6188695Y-7540667D01*
X6198219Y-7550190D01*
X6207743Y-7569238D01*
X6207743Y-7626381D01*
X6198219Y-7645428D01*
X6188695Y-7654952D01*
X6169648Y-7664476D01*
X6141076Y-7664476D01*
X6322028Y-7664476D02*
X6302981Y-7654952D01*
X6293457Y-7635905D01*
X6293457Y-7464476D01*
X6474409Y-7654952D02*
X6455362Y-7664476D01*
X6417267Y-7664476D01*
X6398219Y-7654952D01*
X6388695Y-7635905D01*
X6388695Y-7559714D01*
X6398219Y-7540667D01*
X6417267Y-7531143D01*
X6455362Y-7531143D01*
X6474409Y-7540667D01*
X6483933Y-7559714D01*
X6483933Y-7578762D01*
X6388695Y-7597809D01*
X6560124Y-7654952D02*
X6579171Y-7664476D01*
X6617267Y-7664476D01*
X6636314Y-7654952D01*
X6645838Y-7635905D01*
X6645838Y-7626381D01*
X6636314Y-7607333D01*
X6617267Y-7597809D01*
X6588695Y-7597809D01*
X6569648Y-7588286D01*
X6560124Y-7569238D01*
X6560124Y-7559714D01*
X6569648Y-7540667D01*
X6588695Y-7531143D01*
X6617267Y-7531143D01*
X6636314Y-7540667D01*
X6712505Y-7740667D02*
X6722028Y-7731143D01*
X6741076Y-7702571D01*
X6750600Y-7683524D01*
X6760124Y-7654952D01*
X6769648Y-7607333D01*
X6769648Y-7569238D01*
X6760124Y-7521619D01*
X6750600Y-7493048D01*
X6741076Y-7474000D01*
X6722028Y-7445428D01*
X6712505Y-7435905D01*
D13*
X1910600Y-7808000D02*
X1910600Y-7868000D01*
X1880600Y-7838000D02*
X1940600Y-7838000D01*
D11*
X2236314Y-7728476D02*
X2255362Y-7728476D01*
X2274410Y-7738000D01*
X2283933Y-7747524D01*
X2293457Y-7766571D01*
X2302981Y-7804667D01*
X2302981Y-7852286D01*
X2293457Y-7890381D01*
X2283933Y-7909428D01*
X2274410Y-7918952D01*
X2255362Y-7928476D01*
X2236314Y-7928476D01*
X2217267Y-7918952D01*
X2207743Y-7909428D01*
X2198219Y-7890381D01*
X2188695Y-7852286D01*
X2188695Y-7804667D01*
X2198219Y-7766571D01*
X2207743Y-7747524D01*
X2217267Y-7738000D01*
X2236314Y-7728476D01*
X2388695Y-7909428D02*
X2398219Y-7918952D01*
X2388695Y-7928476D01*
X2379171Y-7918952D01*
X2388695Y-7909428D01*
X2388695Y-7928476D01*
X2569648Y-7728476D02*
X2531552Y-7728476D01*
X2512505Y-7738000D01*
X2502981Y-7747524D01*
X2483933Y-7776095D01*
X2474410Y-7814190D01*
X2474410Y-7890381D01*
X2483933Y-7909428D01*
X2493457Y-7918952D01*
X2512505Y-7928476D01*
X2550600Y-7928476D01*
X2569648Y-7918952D01*
X2579171Y-7909428D01*
X2588695Y-7890381D01*
X2588695Y-7842762D01*
X2579171Y-7823714D01*
X2569648Y-7814190D01*
X2550600Y-7804667D01*
X2512505Y-7804667D01*
X2493457Y-7814190D01*
X2483933Y-7823714D01*
X2474410Y-7842762D01*
X2712505Y-7728476D02*
X2731552Y-7728476D01*
X2750600Y-7738000D01*
X2760124Y-7747524D01*
X2769648Y-7766571D01*
X2779171Y-7804667D01*
X2779171Y-7852286D01*
X2769648Y-7890381D01*
X2760124Y-7909428D01*
X2750600Y-7918952D01*
X2731552Y-7928476D01*
X2712505Y-7928476D01*
X2693457Y-7918952D01*
X2683933Y-7909428D01*
X2674410Y-7890381D01*
X2664886Y-7852286D01*
X2664886Y-7804667D01*
X2674410Y-7766571D01*
X2683933Y-7747524D01*
X2693457Y-7738000D01*
X2712505Y-7728476D01*
X2902981Y-7728476D02*
X2922028Y-7728476D01*
X2941076Y-7738000D01*
X2950600Y-7747524D01*
X2960124Y-7766571D01*
X2969648Y-7804667D01*
X2969648Y-7852286D01*
X2960124Y-7890381D01*
X2950600Y-7909428D01*
X2941076Y-7918952D01*
X2922028Y-7928476D01*
X2902981Y-7928476D01*
X2883933Y-7918952D01*
X2874409Y-7909428D01*
X2864886Y-7890381D01*
X2855362Y-7852286D01*
X2855362Y-7804667D01*
X2864886Y-7766571D01*
X2874409Y-7747524D01*
X2883933Y-7738000D01*
X2902981Y-7728476D01*
X3055362Y-7928476D02*
X3055362Y-7795143D01*
X3055362Y-7814190D02*
X3064886Y-7804667D01*
X3083933Y-7795143D01*
X3112505Y-7795143D01*
X3131552Y-7804667D01*
X3141076Y-7823714D01*
X3141076Y-7928476D01*
X3141076Y-7823714D02*
X3150600Y-7804667D01*
X3169648Y-7795143D01*
X3198219Y-7795143D01*
X3217267Y-7804667D01*
X3226790Y-7823714D01*
X3226790Y-7928476D01*
X3322028Y-7928476D02*
X3322028Y-7795143D01*
X3322028Y-7814190D02*
X3331552Y-7804667D01*
X3350600Y-7795143D01*
X3379171Y-7795143D01*
X3398219Y-7804667D01*
X3407743Y-7823714D01*
X3407743Y-7928476D01*
X3407743Y-7823714D02*
X3417267Y-7804667D01*
X3436314Y-7795143D01*
X3464886Y-7795143D01*
X3483933Y-7804667D01*
X3493457Y-7823714D01*
X3493457Y-7928476D01*
X3883933Y-7718952D02*
X3712505Y-7976095D01*
X4141076Y-7728476D02*
X4160124Y-7728476D01*
X4179171Y-7738000D01*
X4188695Y-7747524D01*
X4198219Y-7766571D01*
X4207743Y-7804667D01*
X4207743Y-7852286D01*
X4198219Y-7890381D01*
X4188695Y-7909428D01*
X4179171Y-7918952D01*
X4160124Y-7928476D01*
X4141076Y-7928476D01*
X4122028Y-7918952D01*
X4112505Y-7909428D01*
X4102981Y-7890381D01*
X4093457Y-7852286D01*
X4093457Y-7804667D01*
X4102981Y-7766571D01*
X4112505Y-7747524D01*
X4122028Y-7738000D01*
X4141076Y-7728476D01*
X4293457Y-7909428D02*
X4302981Y-7918952D01*
X4293457Y-7928476D01*
X4283933Y-7918952D01*
X4293457Y-7909428D01*
X4293457Y-7928476D01*
X4426790Y-7728476D02*
X4445838Y-7728476D01*
X4464886Y-7738000D01*
X4474410Y-7747524D01*
X4483933Y-7766571D01*
X4493457Y-7804667D01*
X4493457Y-7852286D01*
X4483933Y-7890381D01*
X4474410Y-7909428D01*
X4464886Y-7918952D01*
X4445838Y-7928476D01*
X4426790Y-7928476D01*
X4407743Y-7918952D01*
X4398219Y-7909428D01*
X4388695Y-7890381D01*
X4379171Y-7852286D01*
X4379171Y-7804667D01*
X4388695Y-7766571D01*
X4398219Y-7747524D01*
X4407743Y-7738000D01*
X4426790Y-7728476D01*
X4569648Y-7747524D02*
X4579171Y-7738000D01*
X4598219Y-7728476D01*
X4645838Y-7728476D01*
X4664886Y-7738000D01*
X4674410Y-7747524D01*
X4683933Y-7766571D01*
X4683933Y-7785619D01*
X4674410Y-7814190D01*
X4560124Y-7928476D01*
X4683933Y-7928476D01*
X4750600Y-7728476D02*
X4874410Y-7728476D01*
X4807743Y-7804667D01*
X4836314Y-7804667D01*
X4855362Y-7814190D01*
X4864886Y-7823714D01*
X4874410Y-7842762D01*
X4874410Y-7890381D01*
X4864886Y-7909428D01*
X4855362Y-7918952D01*
X4836314Y-7928476D01*
X4779171Y-7928476D01*
X4760124Y-7918952D01*
X4750600Y-7909428D01*
X5045838Y-7728476D02*
X5007743Y-7728476D01*
X4988695Y-7738000D01*
X4979171Y-7747524D01*
X4960124Y-7776095D01*
X4950600Y-7814190D01*
X4950600Y-7890381D01*
X4960124Y-7909428D01*
X4969648Y-7918952D01*
X4988695Y-7928476D01*
X5026790Y-7928476D01*
X5045838Y-7918952D01*
X5055362Y-7909428D01*
X5064886Y-7890381D01*
X5064886Y-7842762D01*
X5055362Y-7823714D01*
X5045838Y-7814190D01*
X5026790Y-7804667D01*
X4988695Y-7804667D01*
X4969648Y-7814190D01*
X4960124Y-7823714D01*
X4950600Y-7842762D01*
X5141076Y-7728476D02*
X5141076Y-7766571D01*
X5217267Y-7728476D02*
X5217267Y-7766571D01*
X5512505Y-8004667D02*
X5502981Y-7995143D01*
X5483933Y-7966571D01*
X5474410Y-7947524D01*
X5464886Y-7918952D01*
X5455362Y-7871333D01*
X5455362Y-7833238D01*
X5464886Y-7785619D01*
X5474410Y-7757048D01*
X5483933Y-7738000D01*
X5502981Y-7709428D01*
X5512505Y-7699905D01*
X5683933Y-7728476D02*
X5588695Y-7728476D01*
X5579171Y-7823714D01*
X5588695Y-7814190D01*
X5607743Y-7804667D01*
X5655362Y-7804667D01*
X5674409Y-7814190D01*
X5683933Y-7823714D01*
X5693457Y-7842762D01*
X5693457Y-7890381D01*
X5683933Y-7909428D01*
X5674409Y-7918952D01*
X5655362Y-7928476D01*
X5607743Y-7928476D01*
X5588695Y-7918952D01*
X5579171Y-7909428D01*
X5807743Y-7814190D02*
X5788695Y-7804667D01*
X5779171Y-7795143D01*
X5769648Y-7776095D01*
X5769648Y-7766571D01*
X5779171Y-7747524D01*
X5788695Y-7738000D01*
X5807743Y-7728476D01*
X5845838Y-7728476D01*
X5864886Y-7738000D01*
X5874409Y-7747524D01*
X5883933Y-7766571D01*
X5883933Y-7776095D01*
X5874409Y-7795143D01*
X5864886Y-7804667D01*
X5845838Y-7814190D01*
X5807743Y-7814190D01*
X5788695Y-7823714D01*
X5779171Y-7833238D01*
X5769648Y-7852286D01*
X5769648Y-7890381D01*
X5779171Y-7909428D01*
X5788695Y-7918952D01*
X5807743Y-7928476D01*
X5845838Y-7928476D01*
X5864886Y-7918952D01*
X5874409Y-7909428D01*
X5883933Y-7890381D01*
X5883933Y-7852286D01*
X5874409Y-7833238D01*
X5864886Y-7823714D01*
X5845838Y-7814190D01*
X6122028Y-7928476D02*
X6122028Y-7728476D01*
X6207743Y-7928476D02*
X6207743Y-7823714D01*
X6198219Y-7804667D01*
X6179171Y-7795143D01*
X6150600Y-7795143D01*
X6131552Y-7804667D01*
X6122028Y-7814190D01*
X6331552Y-7928476D02*
X6312505Y-7918952D01*
X6302981Y-7909428D01*
X6293457Y-7890381D01*
X6293457Y-7833238D01*
X6302981Y-7814190D01*
X6312505Y-7804667D01*
X6331552Y-7795143D01*
X6360124Y-7795143D01*
X6379171Y-7804667D01*
X6388695Y-7814190D01*
X6398219Y-7833238D01*
X6398219Y-7890381D01*
X6388695Y-7909428D01*
X6379171Y-7918952D01*
X6360124Y-7928476D01*
X6331552Y-7928476D01*
X6512505Y-7928476D02*
X6493457Y-7918952D01*
X6483933Y-7899905D01*
X6483933Y-7728476D01*
X6664886Y-7918952D02*
X6645838Y-7928476D01*
X6607743Y-7928476D01*
X6588695Y-7918952D01*
X6579171Y-7899905D01*
X6579171Y-7823714D01*
X6588695Y-7804667D01*
X6607743Y-7795143D01*
X6645838Y-7795143D01*
X6664886Y-7804667D01*
X6674409Y-7823714D01*
X6674409Y-7842762D01*
X6579171Y-7861809D01*
X6750600Y-7918952D02*
X6769648Y-7928476D01*
X6807743Y-7928476D01*
X6826790Y-7918952D01*
X6836314Y-7899905D01*
X6836314Y-7890381D01*
X6826790Y-7871333D01*
X6807743Y-7861809D01*
X6779171Y-7861809D01*
X6760124Y-7852286D01*
X6750600Y-7833238D01*
X6750600Y-7823714D01*
X6760124Y-7804667D01*
X6779171Y-7795143D01*
X6807743Y-7795143D01*
X6826790Y-7804667D01*
X6902981Y-8004667D02*
X6912505Y-7995143D01*
X6931552Y-7966571D01*
X6941076Y-7947524D01*
X6950600Y-7918952D01*
X6960124Y-7871333D01*
X6960124Y-7833238D01*
X6950600Y-7785619D01*
X6941076Y-7757048D01*
X6931552Y-7738000D01*
X6912505Y-7709428D01*
X6902981Y-7699905D01*
D14*
X1928884Y-8130284D02*
X1928884Y-8073715D01*
X1872315Y-8073715D01*
X1872315Y-8130284D01*
X1928884Y-8130284D01*
D11*
X2236314Y-7992476D02*
X2255362Y-7992476D01*
X2274410Y-8002000D01*
X2283933Y-8011524D01*
X2293457Y-8030571D01*
X2302981Y-8068667D01*
X2302981Y-8116286D01*
X2293457Y-8154381D01*
X2283933Y-8173428D01*
X2274410Y-8182952D01*
X2255362Y-8192476D01*
X2236314Y-8192476D01*
X2217267Y-8182952D01*
X2207743Y-8173428D01*
X2198219Y-8154381D01*
X2188695Y-8116286D01*
X2188695Y-8068667D01*
X2198219Y-8030571D01*
X2207743Y-8011524D01*
X2217267Y-8002000D01*
X2236314Y-7992476D01*
X2388695Y-8173428D02*
X2398219Y-8182952D01*
X2388695Y-8192476D01*
X2379171Y-8182952D01*
X2388695Y-8173428D01*
X2388695Y-8192476D01*
X2512505Y-8078190D02*
X2493457Y-8068667D01*
X2483933Y-8059143D01*
X2474410Y-8040095D01*
X2474410Y-8030571D01*
X2483933Y-8011524D01*
X2493457Y-8002000D01*
X2512505Y-7992476D01*
X2550600Y-7992476D01*
X2569648Y-8002000D01*
X2579171Y-8011524D01*
X2588695Y-8030571D01*
X2588695Y-8040095D01*
X2579171Y-8059143D01*
X2569648Y-8068667D01*
X2550600Y-8078190D01*
X2512505Y-8078190D01*
X2493457Y-8087714D01*
X2483933Y-8097238D01*
X2474410Y-8116286D01*
X2474410Y-8154381D01*
X2483933Y-8173428D01*
X2493457Y-8182952D01*
X2512505Y-8192476D01*
X2550600Y-8192476D01*
X2569648Y-8182952D01*
X2579171Y-8173428D01*
X2588695Y-8154381D01*
X2588695Y-8116286D01*
X2579171Y-8097238D01*
X2569648Y-8087714D01*
X2550600Y-8078190D01*
X2712505Y-7992476D02*
X2731552Y-7992476D01*
X2750600Y-8002000D01*
X2760124Y-8011524D01*
X2769648Y-8030571D01*
X2779171Y-8068667D01*
X2779171Y-8116286D01*
X2769648Y-8154381D01*
X2760124Y-8173428D01*
X2750600Y-8182952D01*
X2731552Y-8192476D01*
X2712505Y-8192476D01*
X2693457Y-8182952D01*
X2683933Y-8173428D01*
X2674410Y-8154381D01*
X2664886Y-8116286D01*
X2664886Y-8068667D01*
X2674410Y-8030571D01*
X2683933Y-8011524D01*
X2693457Y-8002000D01*
X2712505Y-7992476D01*
X2902981Y-7992476D02*
X2922028Y-7992476D01*
X2941076Y-8002000D01*
X2950600Y-8011524D01*
X2960124Y-8030571D01*
X2969648Y-8068667D01*
X2969648Y-8116286D01*
X2960124Y-8154381D01*
X2950600Y-8173428D01*
X2941076Y-8182952D01*
X2922028Y-8192476D01*
X2902981Y-8192476D01*
X2883933Y-8182952D01*
X2874409Y-8173428D01*
X2864886Y-8154381D01*
X2855362Y-8116286D01*
X2855362Y-8068667D01*
X2864886Y-8030571D01*
X2874409Y-8011524D01*
X2883933Y-8002000D01*
X2902981Y-7992476D01*
X3055362Y-8192476D02*
X3055362Y-8059143D01*
X3055362Y-8078190D02*
X3064886Y-8068667D01*
X3083933Y-8059143D01*
X3112505Y-8059143D01*
X3131552Y-8068667D01*
X3141076Y-8087714D01*
X3141076Y-8192476D01*
X3141076Y-8087714D02*
X3150600Y-8068667D01*
X3169648Y-8059143D01*
X3198219Y-8059143D01*
X3217267Y-8068667D01*
X3226790Y-8087714D01*
X3226790Y-8192476D01*
X3322028Y-8192476D02*
X3322028Y-8059143D01*
X3322028Y-8078190D02*
X3331552Y-8068667D01*
X3350600Y-8059143D01*
X3379171Y-8059143D01*
X3398219Y-8068667D01*
X3407743Y-8087714D01*
X3407743Y-8192476D01*
X3407743Y-8087714D02*
X3417267Y-8068667D01*
X3436314Y-8059143D01*
X3464886Y-8059143D01*
X3483933Y-8068667D01*
X3493457Y-8087714D01*
X3493457Y-8192476D01*
X3883933Y-7982952D02*
X3712505Y-8240095D01*
X4141076Y-7992476D02*
X4160124Y-7992476D01*
X4179171Y-8002000D01*
X4188695Y-8011524D01*
X4198219Y-8030571D01*
X4207743Y-8068667D01*
X4207743Y-8116286D01*
X4198219Y-8154381D01*
X4188695Y-8173428D01*
X4179171Y-8182952D01*
X4160124Y-8192476D01*
X4141076Y-8192476D01*
X4122028Y-8182952D01*
X4112505Y-8173428D01*
X4102981Y-8154381D01*
X4093457Y-8116286D01*
X4093457Y-8068667D01*
X4102981Y-8030571D01*
X4112505Y-8011524D01*
X4122028Y-8002000D01*
X4141076Y-7992476D01*
X4293457Y-8173428D02*
X4302981Y-8182952D01*
X4293457Y-8192476D01*
X4283933Y-8182952D01*
X4293457Y-8173428D01*
X4293457Y-8192476D01*
X4426790Y-7992476D02*
X4445838Y-7992476D01*
X4464886Y-8002000D01*
X4474410Y-8011524D01*
X4483933Y-8030571D01*
X4493457Y-8068667D01*
X4493457Y-8116286D01*
X4483933Y-8154381D01*
X4474410Y-8173428D01*
X4464886Y-8182952D01*
X4445838Y-8192476D01*
X4426790Y-8192476D01*
X4407743Y-8182952D01*
X4398219Y-8173428D01*
X4388695Y-8154381D01*
X4379171Y-8116286D01*
X4379171Y-8068667D01*
X4388695Y-8030571D01*
X4398219Y-8011524D01*
X4407743Y-8002000D01*
X4426790Y-7992476D01*
X4560124Y-7992476D02*
X4683933Y-7992476D01*
X4617267Y-8068667D01*
X4645838Y-8068667D01*
X4664886Y-8078190D01*
X4674410Y-8087714D01*
X4683933Y-8106762D01*
X4683933Y-8154381D01*
X4674410Y-8173428D01*
X4664886Y-8182952D01*
X4645838Y-8192476D01*
X4588695Y-8192476D01*
X4569648Y-8182952D01*
X4560124Y-8173428D01*
X4874410Y-8192476D02*
X4760124Y-8192476D01*
X4817267Y-8192476D02*
X4817267Y-7992476D01*
X4798219Y-8021048D01*
X4779171Y-8040095D01*
X4760124Y-8049619D01*
X5055362Y-7992476D02*
X4960124Y-7992476D01*
X4950600Y-8087714D01*
X4960124Y-8078190D01*
X4979171Y-8068667D01*
X5026790Y-8068667D01*
X5045838Y-8078190D01*
X5055362Y-8087714D01*
X5064886Y-8106762D01*
X5064886Y-8154381D01*
X5055362Y-8173428D01*
X5045838Y-8182952D01*
X5026790Y-8192476D01*
X4979171Y-8192476D01*
X4960124Y-8182952D01*
X4950600Y-8173428D01*
X5141076Y-7992476D02*
X5141076Y-8030571D01*
X5217267Y-7992476D02*
X5217267Y-8030571D01*
X5512505Y-8268667D02*
X5502981Y-8259143D01*
X5483933Y-8230571D01*
X5474410Y-8211524D01*
X5464886Y-8182952D01*
X5455362Y-8135333D01*
X5455362Y-8097238D01*
X5464886Y-8049619D01*
X5474410Y-8021048D01*
X5483933Y-8002000D01*
X5502981Y-7973428D01*
X5512505Y-7963905D01*
X5569648Y-7992476D02*
X5693457Y-7992476D01*
X5626790Y-8068667D01*
X5655362Y-8068667D01*
X5674409Y-8078190D01*
X5683933Y-8087714D01*
X5693457Y-8106762D01*
X5693457Y-8154381D01*
X5683933Y-8173428D01*
X5674409Y-8182952D01*
X5655362Y-8192476D01*
X5598219Y-8192476D01*
X5579171Y-8182952D01*
X5569648Y-8173428D01*
X5769648Y-8011524D02*
X5779171Y-8002000D01*
X5798219Y-7992476D01*
X5845838Y-7992476D01*
X5864886Y-8002000D01*
X5874409Y-8011524D01*
X5883933Y-8030571D01*
X5883933Y-8049619D01*
X5874409Y-8078190D01*
X5760124Y-8192476D01*
X5883933Y-8192476D01*
X6122028Y-8192476D02*
X6122028Y-7992476D01*
X6207743Y-8192476D02*
X6207743Y-8087714D01*
X6198219Y-8068667D01*
X6179171Y-8059143D01*
X6150600Y-8059143D01*
X6131552Y-8068667D01*
X6122028Y-8078190D01*
X6331552Y-8192476D02*
X6312505Y-8182952D01*
X6302981Y-8173428D01*
X6293457Y-8154381D01*
X6293457Y-8097238D01*
X6302981Y-8078190D01*
X6312505Y-8068667D01*
X6331552Y-8059143D01*
X6360124Y-8059143D01*
X6379171Y-8068667D01*
X6388695Y-8078190D01*
X6398219Y-8097238D01*
X6398219Y-8154381D01*
X6388695Y-8173428D01*
X6379171Y-8182952D01*
X6360124Y-8192476D01*
X6331552Y-8192476D01*
X6512505Y-8192476D02*
X6493457Y-8182952D01*
X6483933Y-8163905D01*
X6483933Y-7992476D01*
X6664886Y-8182952D02*
X6645838Y-8192476D01*
X6607743Y-8192476D01*
X6588695Y-8182952D01*
X6579171Y-8163905D01*
X6579171Y-8087714D01*
X6588695Y-8068667D01*
X6607743Y-8059143D01*
X6645838Y-8059143D01*
X6664886Y-8068667D01*
X6674409Y-8087714D01*
X6674409Y-8106762D01*
X6579171Y-8125809D01*
X6750600Y-8182952D02*
X6769648Y-8192476D01*
X6807743Y-8192476D01*
X6826790Y-8182952D01*
X6836314Y-8163905D01*
X6836314Y-8154381D01*
X6826790Y-8135333D01*
X6807743Y-8125809D01*
X6779171Y-8125809D01*
X6760124Y-8116286D01*
X6750600Y-8097238D01*
X6750600Y-8087714D01*
X6760124Y-8068667D01*
X6779171Y-8059143D01*
X6807743Y-8059143D01*
X6826790Y-8068667D01*
X6902981Y-8268667D02*
X6912505Y-8259143D01*
X6931552Y-8230571D01*
X6941076Y-8211524D01*
X6950600Y-8182952D01*
X6960124Y-8135333D01*
X6960124Y-8097238D01*
X6950600Y-8049619D01*
X6941076Y-8021048D01*
X6931552Y-8002000D01*
X6912505Y-7973428D01*
X6902981Y-7963905D01*
D15*
X1890600Y-8416000D02*
X1940600Y-8366000D01*
X1890600Y-8316000D01*
X1840600Y-8366000D01*
X1890600Y-8416000D01*
D11*
X2302981Y-8456476D02*
X2188695Y-8456476D01*
X2245838Y-8456476D02*
X2245838Y-8256476D01*
X2226790Y-8285048D01*
X2207743Y-8304095D01*
X2188695Y-8313619D01*
X2388695Y-8437429D02*
X2398219Y-8446952D01*
X2388695Y-8456476D01*
X2379171Y-8446952D01*
X2388695Y-8437429D01*
X2388695Y-8456476D01*
X2522029Y-8256476D02*
X2541076Y-8256476D01*
X2560124Y-8266000D01*
X2569648Y-8275524D01*
X2579171Y-8294571D01*
X2588695Y-8332667D01*
X2588695Y-8380286D01*
X2579171Y-8418381D01*
X2569648Y-8437429D01*
X2560124Y-8446952D01*
X2541076Y-8456476D01*
X2522029Y-8456476D01*
X2502981Y-8446952D01*
X2493457Y-8437429D01*
X2483933Y-8418381D01*
X2474410Y-8380286D01*
X2474410Y-8332667D01*
X2483933Y-8294571D01*
X2493457Y-8275524D01*
X2502981Y-8266000D01*
X2522029Y-8256476D01*
X2712505Y-8256476D02*
X2731552Y-8256476D01*
X2750600Y-8266000D01*
X2760124Y-8275524D01*
X2769648Y-8294571D01*
X2779171Y-8332667D01*
X2779171Y-8380286D01*
X2769648Y-8418381D01*
X2760124Y-8437429D01*
X2750600Y-8446952D01*
X2731552Y-8456476D01*
X2712505Y-8456476D01*
X2693457Y-8446952D01*
X2683933Y-8437429D01*
X2674410Y-8418381D01*
X2664886Y-8380286D01*
X2664886Y-8332667D01*
X2674410Y-8294571D01*
X2683933Y-8275524D01*
X2693457Y-8266000D01*
X2712505Y-8256476D01*
X2902981Y-8256476D02*
X2922028Y-8256476D01*
X2941076Y-8266000D01*
X2950600Y-8275524D01*
X2960124Y-8294571D01*
X2969648Y-8332667D01*
X2969648Y-8380286D01*
X2960124Y-8418381D01*
X2950600Y-8437429D01*
X2941076Y-8446952D01*
X2922028Y-8456476D01*
X2902981Y-8456476D01*
X2883933Y-8446952D01*
X2874409Y-8437429D01*
X2864886Y-8418381D01*
X2855362Y-8380286D01*
X2855362Y-8332667D01*
X2864886Y-8294571D01*
X2874409Y-8275524D01*
X2883933Y-8266000D01*
X2902981Y-8256476D01*
X3055362Y-8456476D02*
X3055362Y-8323143D01*
X3055362Y-8342190D02*
X3064886Y-8332667D01*
X3083933Y-8323143D01*
X3112505Y-8323143D01*
X3131552Y-8332667D01*
X3141076Y-8351714D01*
X3141076Y-8456476D01*
X3141076Y-8351714D02*
X3150600Y-8332667D01*
X3169648Y-8323143D01*
X3198219Y-8323143D01*
X3217267Y-8332667D01*
X3226790Y-8351714D01*
X3226790Y-8456476D01*
X3322028Y-8456476D02*
X3322028Y-8323143D01*
X3322028Y-8342190D02*
X3331552Y-8332667D01*
X3350600Y-8323143D01*
X3379171Y-8323143D01*
X3398219Y-8332667D01*
X3407743Y-8351714D01*
X3407743Y-8456476D01*
X3407743Y-8351714D02*
X3417267Y-8332667D01*
X3436314Y-8323143D01*
X3464886Y-8323143D01*
X3483933Y-8332667D01*
X3493457Y-8351714D01*
X3493457Y-8456476D01*
X3883933Y-8246952D02*
X3712505Y-8504095D01*
X4141076Y-8256476D02*
X4160124Y-8256476D01*
X4179171Y-8266000D01*
X4188695Y-8275524D01*
X4198219Y-8294571D01*
X4207743Y-8332667D01*
X4207743Y-8380286D01*
X4198219Y-8418381D01*
X4188695Y-8437429D01*
X4179171Y-8446952D01*
X4160124Y-8456476D01*
X4141076Y-8456476D01*
X4122028Y-8446952D01*
X4112505Y-8437429D01*
X4102981Y-8418381D01*
X4093457Y-8380286D01*
X4093457Y-8332667D01*
X4102981Y-8294571D01*
X4112505Y-8275524D01*
X4122028Y-8266000D01*
X4141076Y-8256476D01*
X4293457Y-8437429D02*
X4302981Y-8446952D01*
X4293457Y-8456476D01*
X4283933Y-8446952D01*
X4293457Y-8437429D01*
X4293457Y-8456476D01*
X4426790Y-8256476D02*
X4445838Y-8256476D01*
X4464886Y-8266000D01*
X4474410Y-8275524D01*
X4483933Y-8294571D01*
X4493457Y-8332667D01*
X4493457Y-8380286D01*
X4483933Y-8418381D01*
X4474410Y-8437429D01*
X4464886Y-8446952D01*
X4445838Y-8456476D01*
X4426790Y-8456476D01*
X4407743Y-8446952D01*
X4398219Y-8437429D01*
X4388695Y-8418381D01*
X4379171Y-8380286D01*
X4379171Y-8332667D01*
X4388695Y-8294571D01*
X4398219Y-8275524D01*
X4407743Y-8266000D01*
X4426790Y-8256476D01*
X4560124Y-8256476D02*
X4683933Y-8256476D01*
X4617267Y-8332667D01*
X4645838Y-8332667D01*
X4664886Y-8342190D01*
X4674410Y-8351714D01*
X4683933Y-8370762D01*
X4683933Y-8418381D01*
X4674410Y-8437429D01*
X4664886Y-8446952D01*
X4645838Y-8456476D01*
X4588695Y-8456476D01*
X4569648Y-8446952D01*
X4560124Y-8437429D01*
X4779171Y-8456476D02*
X4817267Y-8456476D01*
X4836314Y-8446952D01*
X4845838Y-8437429D01*
X4864886Y-8408857D01*
X4874410Y-8370762D01*
X4874410Y-8294571D01*
X4864886Y-8275524D01*
X4855362Y-8266000D01*
X4836314Y-8256476D01*
X4798219Y-8256476D01*
X4779171Y-8266000D01*
X4769648Y-8275524D01*
X4760124Y-8294571D01*
X4760124Y-8342190D01*
X4769648Y-8361238D01*
X4779171Y-8370762D01*
X4798219Y-8380286D01*
X4836314Y-8380286D01*
X4855362Y-8370762D01*
X4864886Y-8361238D01*
X4874410Y-8342190D01*
X5045838Y-8323143D02*
X5045838Y-8456476D01*
X4998219Y-8246952D02*
X4950600Y-8389810D01*
X5074410Y-8389810D01*
X5141076Y-8256476D02*
X5141076Y-8294571D01*
X5217267Y-8256476D02*
X5217267Y-8294571D01*
X5512505Y-8532667D02*
X5502981Y-8523143D01*
X5483933Y-8494571D01*
X5474410Y-8475524D01*
X5464886Y-8446952D01*
X5455362Y-8399333D01*
X5455362Y-8361238D01*
X5464886Y-8313619D01*
X5474410Y-8285048D01*
X5483933Y-8266000D01*
X5502981Y-8237428D01*
X5512505Y-8227905D01*
X5569648Y-8256476D02*
X5693457Y-8256476D01*
X5626790Y-8332667D01*
X5655362Y-8332667D01*
X5674409Y-8342190D01*
X5683933Y-8351714D01*
X5693457Y-8370762D01*
X5693457Y-8418381D01*
X5683933Y-8437429D01*
X5674409Y-8446952D01*
X5655362Y-8456476D01*
X5598219Y-8456476D01*
X5579171Y-8446952D01*
X5569648Y-8437429D01*
X5864886Y-8323143D02*
X5864886Y-8456476D01*
X5817267Y-8246952D02*
X5769648Y-8389810D01*
X5893457Y-8389810D01*
X6122028Y-8456476D02*
X6122028Y-8256476D01*
X6207743Y-8456476D02*
X6207743Y-8351714D01*
X6198219Y-8332667D01*
X6179171Y-8323143D01*
X6150600Y-8323143D01*
X6131552Y-8332667D01*
X6122028Y-8342190D01*
X6331552Y-8456476D02*
X6312505Y-8446952D01*
X6302981Y-8437429D01*
X6293457Y-8418381D01*
X6293457Y-8361238D01*
X6302981Y-8342190D01*
X6312505Y-8332667D01*
X6331552Y-8323143D01*
X6360124Y-8323143D01*
X6379171Y-8332667D01*
X6388695Y-8342190D01*
X6398219Y-8361238D01*
X6398219Y-8418381D01*
X6388695Y-8437429D01*
X6379171Y-8446952D01*
X6360124Y-8456476D01*
X6331552Y-8456476D01*
X6512505Y-8456476D02*
X6493457Y-8446952D01*
X6483933Y-8427905D01*
X6483933Y-8256476D01*
X6664886Y-8446952D02*
X6645838Y-8456476D01*
X6607743Y-8456476D01*
X6588695Y-8446952D01*
X6579171Y-8427905D01*
X6579171Y-8351714D01*
X6588695Y-8332667D01*
X6607743Y-8323143D01*
X6645838Y-8323143D01*
X6664886Y-8332667D01*
X6674409Y-8351714D01*
X6674409Y-8370762D01*
X6579171Y-8389810D01*
X6750600Y-8446952D02*
X6769648Y-8456476D01*
X6807743Y-8456476D01*
X6826790Y-8446952D01*
X6836314Y-8427905D01*
X6836314Y-8418381D01*
X6826790Y-8399333D01*
X6807743Y-8389810D01*
X6779171Y-8389810D01*
X6760124Y-8380286D01*
X6750600Y-8361238D01*
X6750600Y-8351714D01*
X6760124Y-8332667D01*
X6779171Y-8323143D01*
X6807743Y-8323143D01*
X6826790Y-8332667D01*
X6902981Y-8532667D02*
X6912505Y-8523143D01*
X6931552Y-8494571D01*
X6941076Y-8475524D01*
X6950600Y-8446952D01*
X6960124Y-8399333D01*
X6960124Y-8361238D01*
X6950600Y-8313619D01*
X6941076Y-8285048D01*
X6931552Y-8266000D01*
X6912505Y-8237428D01*
X6902981Y-8227905D01*
D16*
X1830600Y-8575000D02*
X1940600Y-8685000D01*
X1940600Y-8575000D02*
X1830600Y-8685000D01*
X1940600Y-8630000D02*
G75*
G03*
X1940600Y-8630000I-55000J0D01*
G01*
D11*
X2302981Y-8720476D02*
X2188695Y-8720476D01*
X2245838Y-8720476D02*
X2245838Y-8520476D01*
X2226790Y-8549048D01*
X2207743Y-8568095D01*
X2188695Y-8577619D01*
X2388695Y-8701429D02*
X2398219Y-8710952D01*
X2388695Y-8720476D01*
X2379171Y-8710952D01*
X2388695Y-8701429D01*
X2388695Y-8720476D01*
X2588695Y-8720476D02*
X2474410Y-8720476D01*
X2531552Y-8720476D02*
X2531552Y-8520476D01*
X2512505Y-8549048D01*
X2493457Y-8568095D01*
X2474410Y-8577619D01*
X2712505Y-8520476D02*
X2731552Y-8520476D01*
X2750600Y-8530000D01*
X2760124Y-8539524D01*
X2769648Y-8558571D01*
X2779171Y-8596667D01*
X2779171Y-8644286D01*
X2769648Y-8682381D01*
X2760124Y-8701429D01*
X2750600Y-8710952D01*
X2731552Y-8720476D01*
X2712505Y-8720476D01*
X2693457Y-8710952D01*
X2683933Y-8701429D01*
X2674410Y-8682381D01*
X2664886Y-8644286D01*
X2664886Y-8596667D01*
X2674410Y-8558571D01*
X2683933Y-8539524D01*
X2693457Y-8530000D01*
X2712505Y-8520476D01*
X2902981Y-8520476D02*
X2922028Y-8520476D01*
X2941076Y-8530000D01*
X2950600Y-8539524D01*
X2960124Y-8558571D01*
X2969648Y-8596667D01*
X2969648Y-8644286D01*
X2960124Y-8682381D01*
X2950600Y-8701429D01*
X2941076Y-8710952D01*
X2922028Y-8720476D01*
X2902981Y-8720476D01*
X2883933Y-8710952D01*
X2874409Y-8701429D01*
X2864886Y-8682381D01*
X2855362Y-8644286D01*
X2855362Y-8596667D01*
X2864886Y-8558571D01*
X2874409Y-8539524D01*
X2883933Y-8530000D01*
X2902981Y-8520476D01*
X3055362Y-8720476D02*
X3055362Y-8587143D01*
X3055362Y-8606190D02*
X3064886Y-8596667D01*
X3083933Y-8587143D01*
X3112505Y-8587143D01*
X3131552Y-8596667D01*
X3141076Y-8615714D01*
X3141076Y-8720476D01*
X3141076Y-8615714D02*
X3150600Y-8596667D01*
X3169648Y-8587143D01*
X3198219Y-8587143D01*
X3217267Y-8596667D01*
X3226790Y-8615714D01*
X3226790Y-8720476D01*
X3322028Y-8720476D02*
X3322028Y-8587143D01*
X3322028Y-8606190D02*
X3331552Y-8596667D01*
X3350600Y-8587143D01*
X3379171Y-8587143D01*
X3398219Y-8596667D01*
X3407743Y-8615714D01*
X3407743Y-8720476D01*
X3407743Y-8615714D02*
X3417267Y-8596667D01*
X3436314Y-8587143D01*
X3464886Y-8587143D01*
X3483933Y-8596667D01*
X3493457Y-8615714D01*
X3493457Y-8720476D01*
X3883933Y-8510952D02*
X3712505Y-8768095D01*
X4141076Y-8520476D02*
X4160124Y-8520476D01*
X4179171Y-8530000D01*
X4188695Y-8539524D01*
X4198219Y-8558571D01*
X4207743Y-8596667D01*
X4207743Y-8644286D01*
X4198219Y-8682381D01*
X4188695Y-8701429D01*
X4179171Y-8710952D01*
X4160124Y-8720476D01*
X4141076Y-8720476D01*
X4122028Y-8710952D01*
X4112505Y-8701429D01*
X4102981Y-8682381D01*
X4093457Y-8644286D01*
X4093457Y-8596667D01*
X4102981Y-8558571D01*
X4112505Y-8539524D01*
X4122028Y-8530000D01*
X4141076Y-8520476D01*
X4293457Y-8701429D02*
X4302981Y-8710952D01*
X4293457Y-8720476D01*
X4283933Y-8710952D01*
X4293457Y-8701429D01*
X4293457Y-8720476D01*
X4426790Y-8520476D02*
X4445838Y-8520476D01*
X4464886Y-8530000D01*
X4474410Y-8539524D01*
X4483933Y-8558571D01*
X4493457Y-8596667D01*
X4493457Y-8644286D01*
X4483933Y-8682381D01*
X4474410Y-8701429D01*
X4464886Y-8710952D01*
X4445838Y-8720476D01*
X4426790Y-8720476D01*
X4407743Y-8710952D01*
X4398219Y-8701429D01*
X4388695Y-8682381D01*
X4379171Y-8644286D01*
X4379171Y-8596667D01*
X4388695Y-8558571D01*
X4398219Y-8539524D01*
X4407743Y-8530000D01*
X4426790Y-8520476D01*
X4664886Y-8587143D02*
X4664886Y-8720476D01*
X4617267Y-8510952D02*
X4569648Y-8653810D01*
X4693457Y-8653810D01*
X4750600Y-8520476D02*
X4874410Y-8520476D01*
X4807743Y-8596667D01*
X4836314Y-8596667D01*
X4855362Y-8606190D01*
X4864886Y-8615714D01*
X4874410Y-8634762D01*
X4874410Y-8682381D01*
X4864886Y-8701429D01*
X4855362Y-8710952D01*
X4836314Y-8720476D01*
X4779171Y-8720476D01*
X4760124Y-8710952D01*
X4750600Y-8701429D01*
X4941076Y-8520476D02*
X5064886Y-8520476D01*
X4998219Y-8596667D01*
X5026790Y-8596667D01*
X5045838Y-8606190D01*
X5055362Y-8615714D01*
X5064886Y-8634762D01*
X5064886Y-8682381D01*
X5055362Y-8701429D01*
X5045838Y-8710952D01*
X5026790Y-8720476D01*
X4969648Y-8720476D01*
X4950600Y-8710952D01*
X4941076Y-8701429D01*
X5141076Y-8520476D02*
X5141076Y-8558571D01*
X5217267Y-8520476D02*
X5217267Y-8558571D01*
X5512505Y-8796667D02*
X5502981Y-8787143D01*
X5483933Y-8758571D01*
X5474410Y-8739524D01*
X5464886Y-8710952D01*
X5455362Y-8663333D01*
X5455362Y-8625238D01*
X5464886Y-8577619D01*
X5474410Y-8549048D01*
X5483933Y-8530000D01*
X5502981Y-8501429D01*
X5512505Y-8491905D01*
X5693457Y-8720476D02*
X5579171Y-8720476D01*
X5636314Y-8720476D02*
X5636314Y-8520476D01*
X5617267Y-8549048D01*
X5598219Y-8568095D01*
X5579171Y-8577619D01*
X5883933Y-8720476D02*
X5769648Y-8720476D01*
X5826790Y-8720476D02*
X5826790Y-8520476D01*
X5807743Y-8549048D01*
X5788695Y-8568095D01*
X5769648Y-8577619D01*
X6122028Y-8720476D02*
X6122028Y-8520476D01*
X6207743Y-8720476D02*
X6207743Y-8615714D01*
X6198219Y-8596667D01*
X6179171Y-8587143D01*
X6150600Y-8587143D01*
X6131552Y-8596667D01*
X6122028Y-8606190D01*
X6331552Y-8720476D02*
X6312505Y-8710952D01*
X6302981Y-8701429D01*
X6293457Y-8682381D01*
X6293457Y-8625238D01*
X6302981Y-8606190D01*
X6312505Y-8596667D01*
X6331552Y-8587143D01*
X6360124Y-8587143D01*
X6379171Y-8596667D01*
X6388695Y-8606190D01*
X6398219Y-8625238D01*
X6398219Y-8682381D01*
X6388695Y-8701429D01*
X6379171Y-8710952D01*
X6360124Y-8720476D01*
X6331552Y-8720476D01*
X6512505Y-8720476D02*
X6493457Y-8710952D01*
X6483933Y-8691905D01*
X6483933Y-8520476D01*
X6664886Y-8710952D02*
X6645838Y-8720476D01*
X6607743Y-8720476D01*
X6588695Y-8710952D01*
X6579171Y-8691905D01*
X6579171Y-8615714D01*
X6588695Y-8596667D01*
X6607743Y-8587143D01*
X6645838Y-8587143D01*
X6664886Y-8596667D01*
X6674409Y-8615714D01*
X6674409Y-8634762D01*
X6579171Y-8653810D01*
X6750600Y-8710952D02*
X6769648Y-8720476D01*
X6807743Y-8720476D01*
X6826790Y-8710952D01*
X6836314Y-8691905D01*
X6836314Y-8682381D01*
X6826790Y-8663333D01*
X6807743Y-8653810D01*
X6779171Y-8653810D01*
X6760124Y-8644286D01*
X6750600Y-8625238D01*
X6750600Y-8615714D01*
X6760124Y-8596667D01*
X6779171Y-8587143D01*
X6807743Y-8587143D01*
X6826790Y-8596667D01*
X6902981Y-8796667D02*
X6912505Y-8787143D01*
X6931552Y-8758571D01*
X6941076Y-8739524D01*
X6950600Y-8710952D01*
X6960124Y-8663333D01*
X6960124Y-8625238D01*
X6950600Y-8577619D01*
X6941076Y-8549048D01*
X6931552Y-8530000D01*
X6912505Y-8501429D01*
X6902981Y-8491905D01*
D17*
X1820600Y-8834000D02*
X1940600Y-8954000D01*
X1940600Y-8834000D02*
X1820600Y-8954000D01*
X1880600Y-8834000D02*
X1880600Y-8954000D01*
X1820600Y-8894000D02*
X1940600Y-8894000D01*
D11*
X2302981Y-8984476D02*
X2188695Y-8984476D01*
X2245838Y-8984476D02*
X2245838Y-8784476D01*
X2226790Y-8813048D01*
X2207743Y-8832095D01*
X2188695Y-8841619D01*
X2388695Y-8965429D02*
X2398219Y-8974952D01*
X2388695Y-8984476D01*
X2379171Y-8974952D01*
X2388695Y-8965429D01*
X2388695Y-8984476D01*
X2474410Y-8803524D02*
X2483933Y-8794000D01*
X2502981Y-8784476D01*
X2550600Y-8784476D01*
X2569648Y-8794000D01*
X2579171Y-8803524D01*
X2588695Y-8822571D01*
X2588695Y-8841619D01*
X2579171Y-8870190D01*
X2464886Y-8984476D01*
X2588695Y-8984476D01*
X2712505Y-8784476D02*
X2731552Y-8784476D01*
X2750600Y-8794000D01*
X2760124Y-8803524D01*
X2769648Y-8822571D01*
X2779171Y-8860667D01*
X2779171Y-8908286D01*
X2769648Y-8946381D01*
X2760124Y-8965429D01*
X2750600Y-8974952D01*
X2731552Y-8984476D01*
X2712505Y-8984476D01*
X2693457Y-8974952D01*
X2683933Y-8965429D01*
X2674410Y-8946381D01*
X2664886Y-8908286D01*
X2664886Y-8860667D01*
X2674410Y-8822571D01*
X2683933Y-8803524D01*
X2693457Y-8794000D01*
X2712505Y-8784476D01*
X2902981Y-8784476D02*
X2922028Y-8784476D01*
X2941076Y-8794000D01*
X2950600Y-8803524D01*
X2960124Y-8822571D01*
X2969648Y-8860667D01*
X2969648Y-8908286D01*
X2960124Y-8946381D01*
X2950600Y-8965429D01*
X2941076Y-8974952D01*
X2922028Y-8984476D01*
X2902981Y-8984476D01*
X2883933Y-8974952D01*
X2874409Y-8965429D01*
X2864886Y-8946381D01*
X2855362Y-8908286D01*
X2855362Y-8860667D01*
X2864886Y-8822571D01*
X2874409Y-8803524D01*
X2883933Y-8794000D01*
X2902981Y-8784476D01*
X3055362Y-8984476D02*
X3055362Y-8851143D01*
X3055362Y-8870190D02*
X3064886Y-8860667D01*
X3083933Y-8851143D01*
X3112505Y-8851143D01*
X3131552Y-8860667D01*
X3141076Y-8879714D01*
X3141076Y-8984476D01*
X3141076Y-8879714D02*
X3150600Y-8860667D01*
X3169648Y-8851143D01*
X3198219Y-8851143D01*
X3217267Y-8860667D01*
X3226790Y-8879714D01*
X3226790Y-8984476D01*
X3322028Y-8984476D02*
X3322028Y-8851143D01*
X3322028Y-8870190D02*
X3331552Y-8860667D01*
X3350600Y-8851143D01*
X3379171Y-8851143D01*
X3398219Y-8860667D01*
X3407743Y-8879714D01*
X3407743Y-8984476D01*
X3407743Y-8879714D02*
X3417267Y-8860667D01*
X3436314Y-8851143D01*
X3464886Y-8851143D01*
X3483933Y-8860667D01*
X3493457Y-8879714D01*
X3493457Y-8984476D01*
X3883933Y-8774952D02*
X3712505Y-9032095D01*
X4141076Y-8784476D02*
X4160124Y-8784476D01*
X4179171Y-8794000D01*
X4188695Y-8803524D01*
X4198219Y-8822571D01*
X4207743Y-8860667D01*
X4207743Y-8908286D01*
X4198219Y-8946381D01*
X4188695Y-8965429D01*
X4179171Y-8974952D01*
X4160124Y-8984476D01*
X4141076Y-8984476D01*
X4122028Y-8974952D01*
X4112505Y-8965429D01*
X4102981Y-8946381D01*
X4093457Y-8908286D01*
X4093457Y-8860667D01*
X4102981Y-8822571D01*
X4112505Y-8803524D01*
X4122028Y-8794000D01*
X4141076Y-8784476D01*
X4293457Y-8965429D02*
X4302981Y-8974952D01*
X4293457Y-8984476D01*
X4283933Y-8974952D01*
X4293457Y-8965429D01*
X4293457Y-8984476D01*
X4426790Y-8784476D02*
X4445838Y-8784476D01*
X4464886Y-8794000D01*
X4474410Y-8803524D01*
X4483933Y-8822571D01*
X4493457Y-8860667D01*
X4493457Y-8908286D01*
X4483933Y-8946381D01*
X4474410Y-8965429D01*
X4464886Y-8974952D01*
X4445838Y-8984476D01*
X4426790Y-8984476D01*
X4407743Y-8974952D01*
X4398219Y-8965429D01*
X4388695Y-8946381D01*
X4379171Y-8908286D01*
X4379171Y-8860667D01*
X4388695Y-8822571D01*
X4398219Y-8803524D01*
X4407743Y-8794000D01*
X4426790Y-8784476D01*
X4664886Y-8851143D02*
X4664886Y-8984476D01*
X4617267Y-8774952D02*
X4569648Y-8917810D01*
X4693457Y-8917810D01*
X4750600Y-8784476D02*
X4883933Y-8784476D01*
X4798219Y-8984476D01*
X4950600Y-8803524D02*
X4960124Y-8794000D01*
X4979171Y-8784476D01*
X5026790Y-8784476D01*
X5045838Y-8794000D01*
X5055362Y-8803524D01*
X5064886Y-8822571D01*
X5064886Y-8841619D01*
X5055362Y-8870190D01*
X4941076Y-8984476D01*
X5064886Y-8984476D01*
X5141076Y-8784476D02*
X5141076Y-8822571D01*
X5217267Y-8784476D02*
X5217267Y-8822571D01*
X5512505Y-9060667D02*
X5502981Y-9051143D01*
X5483933Y-9022571D01*
X5474410Y-9003524D01*
X5464886Y-8974952D01*
X5455362Y-8927333D01*
X5455362Y-8889238D01*
X5464886Y-8841619D01*
X5474410Y-8813048D01*
X5483933Y-8794000D01*
X5502981Y-8765429D01*
X5512505Y-8755905D01*
X5579171Y-8803524D02*
X5588695Y-8794000D01*
X5607743Y-8784476D01*
X5655362Y-8784476D01*
X5674409Y-8794000D01*
X5683933Y-8803524D01*
X5693457Y-8822571D01*
X5693457Y-8841619D01*
X5683933Y-8870190D01*
X5569648Y-8984476D01*
X5693457Y-8984476D01*
X5931552Y-8984476D02*
X5931552Y-8784476D01*
X6017267Y-8984476D02*
X6017267Y-8879714D01*
X6007743Y-8860667D01*
X5988695Y-8851143D01*
X5960124Y-8851143D01*
X5941076Y-8860667D01*
X5931552Y-8870190D01*
X6141076Y-8984476D02*
X6122028Y-8974952D01*
X6112505Y-8965429D01*
X6102981Y-8946381D01*
X6102981Y-8889238D01*
X6112505Y-8870190D01*
X6122028Y-8860667D01*
X6141076Y-8851143D01*
X6169648Y-8851143D01*
X6188695Y-8860667D01*
X6198219Y-8870190D01*
X6207743Y-8889238D01*
X6207743Y-8946381D01*
X6198219Y-8965429D01*
X6188695Y-8974952D01*
X6169648Y-8984476D01*
X6141076Y-8984476D01*
X6322028Y-8984476D02*
X6302981Y-8974952D01*
X6293457Y-8955905D01*
X6293457Y-8784476D01*
X6474409Y-8974952D02*
X6455362Y-8984476D01*
X6417267Y-8984476D01*
X6398219Y-8974952D01*
X6388695Y-8955905D01*
X6388695Y-8879714D01*
X6398219Y-8860667D01*
X6417267Y-8851143D01*
X6455362Y-8851143D01*
X6474409Y-8860667D01*
X6483933Y-8879714D01*
X6483933Y-8898762D01*
X6388695Y-8917810D01*
X6560124Y-8974952D02*
X6579171Y-8984476D01*
X6617267Y-8984476D01*
X6636314Y-8974952D01*
X6645838Y-8955905D01*
X6645838Y-8946381D01*
X6636314Y-8927333D01*
X6617267Y-8917810D01*
X6588695Y-8917810D01*
X6569648Y-8908286D01*
X6560124Y-8889238D01*
X6560124Y-8879714D01*
X6569648Y-8860667D01*
X6588695Y-8851143D01*
X6617267Y-8851143D01*
X6636314Y-8860667D01*
X6712505Y-9060667D02*
X6722028Y-9051143D01*
X6741076Y-9022571D01*
X6750600Y-9003524D01*
X6760124Y-8974952D01*
X6769648Y-8927333D01*
X6769648Y-8889238D01*
X6760124Y-8841619D01*
X6750600Y-8813048D01*
X6741076Y-8794000D01*
X6722028Y-8765429D01*
X6712505Y-8755905D01*
M02*
